<?xml version="1.0" encoding="UTF-8" standalone="no"?>
<!DOCTYPE svg PUBLIC "-//W3C//DTD SVG 1.0//EN"
 "http://www.w3.org/TR/2001/REC-SVG-20010904/DTD/svg10.dtd" [
 <!ATTLIST svg xmlns:xlink CDATA #FIXED "http://www.w3.org/1999/xlink">
]>
<!-- Generated by Graphviz version 2.20.2 (Mon Mar 30 10:09:11 UTC 2009)
     For user: (s) s,,, -->
<!-- Title: models_diagram Pages: 1 -->
<svg width="591pt" height="916pt"
 viewBox="0.00 0.00 591.00 916.00" xmlns="http://www.w3.org/2000/svg" xmlns:xlink="http://www.w3.org/1999/xlink">
<g id="graph0" class="graph" transform="scale(1 1) rotate(0) translate(4 912)">
<title>models_diagram</title>
<polygon style="fill:white;stroke:white;" points="-4,4 -4,-912 587,-912 587,4 -4,4"/>
<!-- Person -->
<g id="node1" class="node"><title>Person</title>
<polyline style="fill:none;stroke:black;" points="122,-532 263,-532 "/>
<path style="fill:none;stroke:black;" d="M263,-532C269,-532 275,-538 275,-544"/>
<polyline style="fill:none;stroke:black;" points="275,-544 275,-655 "/>
<path style="fill:none;stroke:black;" d="M275,-655C275,-661 269,-667 263,-667"/>
<polyline style="fill:none;stroke:black;" points="263,-667 122,-667 "/>
<path style="fill:none;stroke:black;" d="M122,-667C116,-667 110,-661 110,-655"/>
<polyline style="fill:none;stroke:black;" points="110,-655 110,-544 "/>
<path style="fill:none;stroke:black;" d="M110,-544C110,-538 116,-532 122,-532"/>
<text text-anchor="middle" x="192" y="-649.9" style="font-family:Times New Roman;font-size:14.00;">Person</text>
<polyline style="fill:none;stroke:black;" points="110,-642 275,-642 "/>
<text text-anchor="start" x="117.5" y="-625.4" style="font-family:Times New Roman;font-size:14.00;">name :string</text>
<text text-anchor="start" x="117.5" y="-608.4" style="font-family:Times New Roman;font-size:14.00;">surname :string</text>
<text text-anchor="start" x="117.5" y="-591.4" style="font-family:Times New Roman;font-size:14.00;">dni :string</text>
<text text-anchor="start" x="117.5" y="-574.4" style="font-family:Times New Roman;font-size:14.00;">created_at :datetime</text>
<text text-anchor="start" x="117.5" y="-557.4" style="font-family:Times New Roman;font-size:14.00;">updated_at :datetime</text>
<text text-anchor="start" x="117.5" y="-540.4" style="font-family:Times New Roman;font-size:14.00;">manager :string</text>
</g>
<!-- Company -->
<g id="node2" class="node"><title>Company</title>
<polyline style="fill:none;stroke:black;" points="12,-360 153,-360 "/>
<path style="fill:none;stroke:black;" d="M153,-360C159,-360 165,-366 165,-372"/>
<polyline style="fill:none;stroke:black;" points="165,-372 165,-483 "/>
<path style="fill:none;stroke:black;" d="M165,-483C165,-489 159,-495 153,-495"/>
<polyline style="fill:none;stroke:black;" points="153,-495 12,-495 "/>
<path style="fill:none;stroke:black;" d="M12,-495C6,-495 0,-489 0,-483"/>
<polyline style="fill:none;stroke:black;" points="0,-483 0,-372 "/>
<path style="fill:none;stroke:black;" d="M0,-372C0,-366 6,-360 12,-360"/>
<text text-anchor="middle" x="82" y="-477.9" style="font-family:Times New Roman;font-size:14.00;">Company</text>
<polyline style="fill:none;stroke:black;" points="0,-470 165,-470 "/>
<text text-anchor="start" x="7.5" y="-453.4" style="font-family:Times New Roman;font-size:14.00;">name :string</text>
<text text-anchor="start" x="7.5" y="-436.4" style="font-family:Times New Roman;font-size:14.00;">address :string</text>
<text text-anchor="start" x="7.5" y="-419.4" style="font-family:Times New Roman;font-size:14.00;">created_at :datetime</text>
<text text-anchor="start" x="7.5" y="-402.4" style="font-family:Times New Roman;font-size:14.00;">updated_at :datetime</text>
<text text-anchor="start" x="7.5" y="-385.4" style="font-family:Times New Roman;font-size:14.00;">manager :string</text>
<text text-anchor="start" x="7.5" y="-368.4" style="font-family:Times New Roman;font-size:14.00;">boss :string</text>
</g>
<!-- Person&#45;&gt;Company -->
<g id="edge4" class="edge"><title>Person&#45;&gt;Company</title>
<path style="fill:none;stroke:black;" d="M143,-523C139,-517 135,-510 131,-504"/>
<polygon style="fill:black;stroke:black;" points="143.144,-523.258 144.066,-534.185 145.572,-527.629 148,-532 148,-532 148,-532 145.572,-527.629 151.934,-529.815 143.144,-523.258 143.144,-523.258"/>
<polygon style="fill:black;stroke:black;" points="130.547,-503.321 128.744,-492.504 127.774,-499.16 125,-495 125,-495 125,-495 127.774,-499.16 121.256,-497.496 130.547,-503.321 130.547,-503.321"/>
</g>
<!-- Internship -->
<g id="node3" class="node"><title>Internship</title>
<polyline style="fill:none;stroke:black;" points="61,-120 213,-120 "/>
<path style="fill:none;stroke:black;" d="M213,-120C219,-120 225,-126 225,-132"/>
<polyline style="fill:none;stroke:black;" points="225,-132 225,-311 "/>
<path style="fill:none;stroke:black;" d="M225,-311C225,-317 219,-323 213,-323"/>
<polyline style="fill:none;stroke:black;" points="213,-323 61,-323 "/>
<path style="fill:none;stroke:black;" d="M61,-323C55,-323 49,-317 49,-311"/>
<polyline style="fill:none;stroke:black;" points="49,-311 49,-132 "/>
<path style="fill:none;stroke:black;" d="M49,-132C49,-126 55,-120 61,-120"/>
<text text-anchor="middle" x="137" y="-305.9" style="font-family:Times New Roman;font-size:14.00;">Internship</text>
<polyline style="fill:none;stroke:black;" points="49,-298 225,-298 "/>
<text text-anchor="start" x="57" y="-281.4" style="font-family:Times New Roman;font-size:14.00;">job :string</text>
<text text-anchor="start" x="57" y="-264.4" style="font-family:Times New Roman;font-size:14.00;">date_from :date</text>
<text text-anchor="start" x="57" y="-247.4" style="font-family:Times New Roman;font-size:14.00;">date_until :date</text>
<text text-anchor="start" x="57" y="-230.4" style="font-family:Times New Roman;font-size:14.00;">hs_monday :integer</text>
<text text-anchor="start" x="57" y="-213.4" style="font-family:Times New Roman;font-size:14.00;">hs_tuesday :integer</text>
<text text-anchor="start" x="57" y="-196.4" style="font-family:Times New Roman;font-size:14.00;">hs_wednesday :integer</text>
<text text-anchor="start" x="57" y="-179.4" style="font-family:Times New Roman;font-size:14.00;">hs_thursday :integer</text>
<text text-anchor="start" x="57" y="-162.4" style="font-family:Times New Roman;font-size:14.00;">hs_friday :integer</text>
<text text-anchor="start" x="57" y="-145.4" style="font-family:Times New Roman;font-size:14.00;">created_at :datetime</text>
<text text-anchor="start" x="57" y="-128.4" style="font-family:Times New Roman;font-size:14.00;">updated_at :datetime</text>
</g>
<!-- Person&#45;&gt;Internship -->
<g id="edge2" class="edge"><title>Person&#45;&gt;Internship</title>
<path style="fill:none;stroke:black;" d="M189,-522C186,-475 181,-413 173,-360 171,-351 169,-341 167,-331"/>
<polygon style="fill:black;stroke:black;" points="189.005,-522.05 185.522,-532.448 189.502,-527.025 190,-532 190,-532 190,-532 189.502,-527.025 194.478,-531.552 189.005,-522.05 189.005,-522.05"/>
<ellipse style="fill:black;stroke:black;" cx="165.97" cy="-326.881" rx="4.00001" ry="4.00001"/>
</g>
<!-- Company&#45;&gt;Internship -->
<g id="edge6" class="edge"><title>Company&#45;&gt;Internship</title>
<path style="fill:none;stroke:black;" d="M103,-350C104,-344 106,-337 108,-331"/>
<polygon style="fill:black;stroke:black;" points="102.874,-350.422 95.6898,-358.707 101.437,-355.211 100,-360 100,-360 100,-360 101.437,-355.211 104.31,-361.293 102.874,-350.422 102.874,-350.422"/>
<ellipse style="fill:black;stroke:black;" cx="109.03" cy="-326.881" rx="4.00001" ry="4.00001"/>
</g>
<!-- Task -->
<g id="node4" class="node"><title>Task</title>
<polyline style="fill:none;stroke:black;" points="67,-0 208,-0 "/>
<path style="fill:none;stroke:black;" d="M208,-0C214,-0 220,-6 220,-12"/>
<polyline style="fill:none;stroke:black;" points="220,-12 220,-72 "/>
<path style="fill:none;stroke:black;" d="M220,-72C220,-78 214,-84 208,-84"/>
<polyline style="fill:none;stroke:black;" points="208,-84 67,-84 "/>
<path style="fill:none;stroke:black;" d="M67,-84C61,-84 55,-78 55,-72"/>
<polyline style="fill:none;stroke:black;" points="55,-72 55,-12 "/>
<path style="fill:none;stroke:black;" d="M55,-12C55,-6 61,-0 67,-0"/>
<text text-anchor="middle" x="137" y="-66.9" style="font-family:Times New Roman;font-size:14.00;">Task</text>
<polyline style="fill:none;stroke:black;" points="55,-59 220,-59 "/>
<text text-anchor="start" x="62.5" y="-41.9" style="font-family:Times New Roman;font-size:14.00;">description :string</text>
<text text-anchor="start" x="62.5" y="-24.9" style="font-family:Times New Roman;font-size:14.00;">created_at :datetime</text>
<text text-anchor="start" x="62.5" y="-7.9" style="font-family:Times New Roman;font-size:14.00;">updated_at :datetime</text>
</g>
<!-- Internship&#45;&gt;Task -->
<g id="edge8" class="edge"><title>Internship&#45;&gt;Task</title>
<path style="fill:none;stroke:black;" d="M137,-110C137,-105 137,-99 137,-94"/>
<polygon style="fill:black;stroke:black;" points="137,-110 132.5,-120 137,-115 137,-120 137,-120 137,-120 137,-115 141.5,-120 137,-110 137,-110"/>
<polygon style="fill:black;stroke:black;" points="137,-94 141.5,-84 137,-89 137,-84 137,-84 137,-84 137,-89 132.5,-84 137,-94 137,-94"/>
</g>
<!-- Locality -->
<g id="node5" class="node"><title>Locality</title>
<polyline style="fill:none;stroke:black;" points="67,-704 208,-704 "/>
<path style="fill:none;stroke:black;" d="M208,-704C214,-704 220,-710 220,-716"/>
<polyline style="fill:none;stroke:black;" points="220,-716 220,-776 "/>
<path style="fill:none;stroke:black;" d="M220,-776C220,-782 214,-788 208,-788"/>
<polyline style="fill:none;stroke:black;" points="208,-788 67,-788 "/>
<path style="fill:none;stroke:black;" d="M67,-788C61,-788 55,-782 55,-776"/>
<polyline style="fill:none;stroke:black;" points="55,-776 55,-716 "/>
<path style="fill:none;stroke:black;" d="M55,-716C55,-710 61,-704 67,-704"/>
<text text-anchor="middle" x="137" y="-770.9" style="font-family:Times New Roman;font-size:14.00;">Locality</text>
<polyline style="fill:none;stroke:black;" points="55,-763 220,-763 "/>
<text text-anchor="start" x="62.5" y="-745.9" style="font-family:Times New Roman;font-size:14.00;">locality :string</text>
<text text-anchor="start" x="62.5" y="-728.9" style="font-family:Times New Roman;font-size:14.00;">created_at :datetime</text>
<text text-anchor="start" x="62.5" y="-711.9" style="font-family:Times New Roman;font-size:14.00;">updated_at :datetime</text>
</g>
<!-- Locality&#45;&gt;Person -->
<g id="edge12" class="edge"><title>Locality&#45;&gt;Person</title>
<path style="fill:none;stroke:black;" d="M156,-696C158,-689 161,-682 164,-674"/>
<ellipse style="fill:none;stroke:black;" cx="154.405" cy="-700.255" rx="4.00001" ry="4.00001"/>
<ellipse style="fill:black;stroke:black;" cx="165.424" cy="-670.677" rx="4.00002" ry="4.00002"/>
</g>
<!-- Locality&#45;&gt;Company -->
<g id="edge10" class="edge"><title>Locality&#45;&gt;Company</title>
<path style="fill:none;stroke:black;" d="M111,-697C107,-687 103,-678 101,-668 87,-614 82,-551 81,-503"/>
<ellipse style="fill:none;stroke:black;" cx="113.015" cy="-700.527" rx="4.00002" ry="4.00002"/>
<ellipse style="fill:black;stroke:black;" cx="81" cy="-499" rx="4" ry="4"/>
</g>
<!-- Province -->
<g id="node6" class="node"><title>Province</title>
<polyline style="fill:none;stroke:black;" points="67,-824 208,-824 "/>
<path style="fill:none;stroke:black;" d="M208,-824C214,-824 220,-830 220,-836"/>
<polyline style="fill:none;stroke:black;" points="220,-836 220,-896 "/>
<path style="fill:none;stroke:black;" d="M220,-896C220,-902 214,-908 208,-908"/>
<polyline style="fill:none;stroke:black;" points="208,-908 67,-908 "/>
<path style="fill:none;stroke:black;" d="M67,-908C61,-908 55,-902 55,-896"/>
<polyline style="fill:none;stroke:black;" points="55,-896 55,-836 "/>
<path style="fill:none;stroke:black;" d="M55,-836C55,-830 61,-824 67,-824"/>
<text text-anchor="middle" x="137" y="-890.9" style="font-family:Times New Roman;font-size:14.00;">Province</text>
<polyline style="fill:none;stroke:black;" points="55,-883 220,-883 "/>
<text text-anchor="start" x="62.5" y="-865.9" style="font-family:Times New Roman;font-size:14.00;">province :string</text>
<text text-anchor="start" x="62.5" y="-848.9" style="font-family:Times New Roman;font-size:14.00;">created_at :datetime</text>
<text text-anchor="start" x="62.5" y="-831.9" style="font-family:Times New Roman;font-size:14.00;">updated_at :datetime</text>
</g>
<!-- Province&#45;&gt;Locality -->
<g id="edge14" class="edge"><title>Province&#45;&gt;Locality</title>
<path style="fill:none;stroke:black;" d="M137,-814C137,-808 137,-802 137,-796"/>
<polygon style="fill:black;stroke:black;" points="137,-814 132.5,-824 137,-819 137,-824 137,-824 137,-824 137,-819 141.5,-824 137,-814 137,-814"/>
<ellipse style="fill:black;stroke:black;" cx="137" cy="-792" rx="4" ry="4"/>
</g>
<!-- InternshipsTasks -->
<g id="node7" class="node"><title>InternshipsTasks</title>
<polyline style="fill:none;stroke:black;" points="249,-832 390,-832 "/>
<path style="fill:none;stroke:black;" d="M390,-832C396,-832 402,-838 402,-844"/>
<polyline style="fill:none;stroke:black;" points="402,-844 402,-887 "/>
<path style="fill:none;stroke:black;" d="M402,-887C402,-893 396,-899 390,-899"/>
<polyline style="fill:none;stroke:black;" points="390,-899 249,-899 "/>
<path style="fill:none;stroke:black;" d="M249,-899C243,-899 237,-893 237,-887"/>
<polyline style="fill:none;stroke:black;" points="237,-887 237,-844 "/>
<path style="fill:none;stroke:black;" d="M237,-844C237,-838 243,-832 249,-832"/>
<text text-anchor="middle" x="319" y="-881.9" style="font-family:Times New Roman;font-size:14.00;">InternshipsTasks</text>
<polyline style="fill:none;stroke:black;" points="237,-874 402,-874 "/>
<text text-anchor="start" x="244.5" y="-857.4" style="font-family:Times New Roman;font-size:14.00;">created_at :datetime</text>
<text text-anchor="start" x="244.5" y="-840.4" style="font-family:Times New Roman;font-size:14.00;">updated_at :datetime</text>
</g>
<!-- Situation -->
<g id="node8" class="node"><title>Situation</title>
<polyline style="fill:none;stroke:black;" points="431,-824 572,-824 "/>
<path style="fill:none;stroke:black;" d="M572,-824C578,-824 584,-830 584,-836"/>
<polyline style="fill:none;stroke:black;" points="584,-836 584,-896 "/>
<path style="fill:none;stroke:black;" d="M584,-896C584,-902 578,-908 572,-908"/>
<polyline style="fill:none;stroke:black;" points="572,-908 431,-908 "/>
<path style="fill:none;stroke:black;" d="M431,-908C425,-908 419,-902 419,-896"/>
<polyline style="fill:none;stroke:black;" points="419,-896 419,-836 "/>
<path style="fill:none;stroke:black;" d="M419,-836C419,-830 425,-824 431,-824"/>
<text text-anchor="middle" x="501" y="-890.9" style="font-family:Times New Roman;font-size:14.00;">Situation</text>
<polyline style="fill:none;stroke:black;" points="419,-883 584,-883 "/>
<text text-anchor="start" x="426.5" y="-865.9" style="font-family:Times New Roman;font-size:14.00;">status :string</text>
<text text-anchor="start" x="426.5" y="-848.9" style="font-family:Times New Roman;font-size:14.00;">created_at :datetime</text>
<text text-anchor="start" x="426.5" y="-831.9" style="font-family:Times New Roman;font-size:14.00;">updated_at :datetime</text>
</g>
</g>
</svg>
