<?xml version="1.0" encoding="UTF-8" standalone="no"?>
<!DOCTYPE svg PUBLIC "-//W3C//DTD SVG 1.1//EN"
 "http://www.w3.org/Graphics/SVG/1.1/DTD/svg11.dtd">
<!-- Generated by graphviz version 2.26.3 (20100126.1600)
 -->
<!-- Title: models_diagram Pages: 1 -->
<svg width="544pt" height="346pt"
 viewBox="0.00 0.00 543.62 345.74" xmlns="http://www.w3.org/2000/svg" xmlns:xlink="http://www.w3.org/1999/xlink">
<g id="graph1" class="graph" transform="scale(1 1) rotate(0) translate(4 341.743)">
<title>models_diagram</title>
<polygon fill="white" stroke="white" points="-4,5 -4,-341.743 540.62,-341.743 540.62,5 -4,5"/>
<!-- Province -->
<g id="node1" class="node"><title>Province</title>
<polyline fill="none" stroke="black" points="13,-179.058 154,-179.058 "/>
<path fill="none" stroke="black" d="M154,-179.058C160,-179.058 166,-185.058 166,-191.058"/>
<polyline fill="none" stroke="black" points="166,-191.058 166,-273.058 "/>
<path fill="none" stroke="black" d="M166,-273.058C166,-279.058 160,-285.058 154,-285.058"/>
<polyline fill="none" stroke="black" points="154,-285.058 13,-285.058 "/>
<path fill="none" stroke="black" d="M13,-285.058C7,-285.058 1,-279.058 1,-273.058"/>
<polyline fill="none" stroke="black" points="1,-273.058 1,-191.058 "/>
<path fill="none" stroke="black" d="M1,-191.058C1,-185.058 7,-179.058 13,-179.058"/>
<text text-anchor="middle" x="83.5" y="-268.458" font-family="Times Roman,serif" font-size="14.00">Province</text>
<polyline fill="none" stroke="black" points="1,-259.058 166,-259.058 "/>
<text text-anchor="start" x="9" y="-242.458" font-family="Times Roman,serif" font-size="14.00">id :integer</text>
<text text-anchor="start" x="9" y="-224.458" font-family="Times Roman,serif" font-size="14.00">province :string</text>
<text text-anchor="start" x="9" y="-206.458" font-family="Times Roman,serif" font-size="14.00">created_at :datetime</text>
<text text-anchor="start" x="9" y="-188.458" font-family="Times Roman,serif" font-size="14.00">updated_at :datetime</text>
</g>
<!-- Locality -->
<g id="node3" class="node"><title>Locality</title>
<polyline fill="none" stroke="black" points="189.824,-1.5 330.824,-1.5 "/>
<path fill="none" stroke="black" d="M330.824,-1.5C336.824,-1.5 342.824,-7.5 342.824,-13.5"/>
<polyline fill="none" stroke="black" points="342.824,-13.5 342.824,-113.5 "/>
<path fill="none" stroke="black" d="M342.824,-113.5C342.824,-119.5 336.824,-125.5 330.824,-125.5"/>
<polyline fill="none" stroke="black" points="330.824,-125.5 189.824,-125.5 "/>
<path fill="none" stroke="black" d="M189.824,-125.5C183.824,-125.5 177.824,-119.5 177.824,-113.5"/>
<polyline fill="none" stroke="black" points="177.824,-113.5 177.824,-13.5 "/>
<path fill="none" stroke="black" d="M177.824,-13.5C177.824,-7.5 183.824,-1.5 189.824,-1.5"/>
<text text-anchor="middle" x="260.324" y="-108.9" font-family="Times Roman,serif" font-size="14.00">Locality</text>
<polyline fill="none" stroke="black" points="177.824,-99.5 342.824,-99.5 "/>
<text text-anchor="start" x="185.824" y="-82.9" font-family="Times Roman,serif" font-size="14.00">id :integer</text>
<text text-anchor="start" x="185.824" y="-64.9" font-family="Times Roman,serif" font-size="14.00">locality :string</text>
<text text-anchor="start" x="185.824" y="-46.9" font-family="Times Roman,serif" font-size="14.00">province_id :integer</text>
<text text-anchor="start" x="185.824" y="-28.9" font-family="Times Roman,serif" font-size="14.00">created_at :datetime</text>
<text text-anchor="start" x="185.824" y="-10.9" font-family="Times Roman,serif" font-size="14.00">updated_at :datetime</text>
</g>
<!-- Province&#45;&gt;Locality -->
<g id="edge2" class="edge"><title>Province&#45;&gt;Locality</title>
<path fill="none" stroke="#5a61af" d="M145.326,-173.122C159.059,-160.032 173.734,-146.042 187.85,-132.586"/>
<ellipse fill="none" stroke="#5a61af" cx="142.344" cy="-175.965" rx="4.00002" ry="4.00002"/>
<polygon fill="#5a61af" stroke="#5a61af" points="187.934,-132.506 198.277,-128.864 191.553,-129.056 195.172,-125.606 195.172,-125.606 195.172,-125.606 191.553,-129.056 192.067,-122.349 187.934,-132.506 187.934,-132.506"/>
</g>
<!-- User -->
<g id="node2" class="node"><title>User</title>
<polyline fill="none" stroke="black" points="367.62,-122.243 522.62,-122.243 "/>
<path fill="none" stroke="black" d="M522.62,-122.243C528.62,-122.243 534.62,-128.243 534.62,-134.243"/>
<polyline fill="none" stroke="black" points="534.62,-134.243 534.62,-324.243 "/>
<path fill="none" stroke="black" d="M534.62,-324.243C534.62,-330.243 528.62,-336.243 522.62,-336.243"/>
<polyline fill="none" stroke="black" points="522.62,-336.243 367.62,-336.243 "/>
<path fill="none" stroke="black" d="M367.62,-336.243C361.62,-336.243 355.62,-330.243 355.62,-324.243"/>
<polyline fill="none" stroke="black" points="355.62,-324.243 355.62,-134.243 "/>
<path fill="none" stroke="black" d="M355.62,-134.243C355.62,-128.243 361.62,-122.243 367.62,-122.243"/>
<text text-anchor="middle" x="445.12" y="-319.643" font-family="Times Roman,serif" font-size="14.00">User</text>
<polyline fill="none" stroke="black" points="355.62,-310.243 534.62,-310.243 "/>
<text text-anchor="start" x="363.62" y="-293.643" font-family="Times Roman,serif" font-size="14.00">id :integer</text>
<text text-anchor="start" x="363.62" y="-275.643" font-family="Times Roman,serif" font-size="14.00">name :string</text>
<text text-anchor="start" x="363.62" y="-257.643" font-family="Times Roman,serif" font-size="14.00">surname :string</text>
<text text-anchor="start" x="363.62" y="-239.643" font-family="Times Roman,serif" font-size="14.00">dni :string</text>
<text text-anchor="start" x="363.62" y="-221.643" font-family="Times Roman,serif" font-size="14.00">locality_id :integer</text>
<text text-anchor="start" x="363.62" y="-203.643" font-family="Times Roman,serif" font-size="14.00">password_digest :string</text>
<text text-anchor="start" x="363.62" y="-185.643" font-family="Times Roman,serif" font-size="14.00">created_at :datetime</text>
<text text-anchor="start" x="363.62" y="-167.643" font-family="Times Roman,serif" font-size="14.00">updated_at :datetime</text>
<text text-anchor="start" x="363.62" y="-149.643" font-family="Times Roman,serif" font-size="14.00">email :string</text>
<text text-anchor="start" x="363.62" y="-131.643" font-family="Times Roman,serif" font-size="14.00">admin :boolean</text>
</g>
<!-- Locality&#45;&gt;User -->
<g id="edge4" class="edge"><title>Locality&#45;&gt;User</title>
<path fill="none" stroke="#6c57ba" d="M336.006,-131.379C340.396,-135.316 344.839,-139.301 349.292,-143.295"/>
<ellipse fill="none" stroke="#6c57ba" cx="332.639" cy="-128.359" rx="4.00002" ry="4.00002"/>
<ellipse fill="#6c57ba" stroke="#6c57ba" cx="352.39" cy="-146.073" rx="4.00002" ry="4.00002"/>
</g>
</g>
</svg>
