<?xml version="1.0" encoding="UTF-8" standalone="no"?>
<!DOCTYPE svg PUBLIC "-//W3C//DTD SVG 1.1//EN"
 "http://www.w3.org/Graphics/SVG/1.1/DTD/svg11.dtd">
<!-- Generated by graphviz version 2.26.3 (20100126.1600)
 -->
<!-- Title: controllers_diagram Pages: 1 -->
<svg width="1469pt" height="1264pt"
 viewBox="0.00 0.00 1469.00 1263.94" xmlns="http://www.w3.org/2000/svg" xmlns:xlink="http://www.w3.org/1999/xlink">
<g id="graph1" class="graph" transform="scale(1 1) rotate(0) translate(4 1259.94)">
<title>controllers_diagram</title>
<polygon fill="white" stroke="white" points="-4,5 -4,-1259.94 1466,-1259.94 1466,5 -4,5"/>
<!-- _diagram_info -->
<g id="node1" class="node"><title>_diagram_info</title>
<text text-anchor="start" x="1218" y="-78.3" font-family="Times Roman,serif" font-size="13.00">Controllers diagram</text>
<text text-anchor="start" x="1218" y="-61.3" font-family="Times Roman,serif" font-size="13.00">Date: Oct 26 2013 &#45; 22:17</text>
<text text-anchor="start" x="1218" y="-44.3" font-family="Times Roman,serif" font-size="13.00">Migration version: 20130908214125</text>
<text text-anchor="start" x="1218" y="-27.3" font-family="Times Roman,serif" font-size="13.00">Generated by RailRoady 1.1.0</text>
<text text-anchor="start" x="1218" y="-10.3" font-family="Times Roman,serif" font-size="13.00">http://railroady.prestonlee.com</text>
</g>
<!-- ReconectarController -->
<g id="node2" class="node"><title>ReconectarController</title>
<polyline fill="none" stroke="black" points="18.6766,-428.133 156.677,-428.133 "/>
<path fill="none" stroke="black" d="M156.677,-428.133C162.677,-428.133 168.677,-434.133 168.677,-440.133"/>
<polyline fill="none" stroke="black" points="168.677,-440.133 168.677,-536.133 "/>
<path fill="none" stroke="black" d="M168.677,-536.133C168.677,-542.133 162.677,-548.133 156.677,-548.133"/>
<polyline fill="none" stroke="black" points="156.677,-548.133 18.6766,-548.133 "/>
<path fill="none" stroke="black" d="M18.6766,-548.133C12.6766,-548.133 6.67663,-542.133 6.67663,-536.133"/>
<polyline fill="none" stroke="black" points="6.67663,-536.133 6.67663,-440.133 "/>
<path fill="none" stroke="black" d="M6.67663,-440.133C6.67663,-434.133 12.6766,-428.133 18.6766,-428.133"/>
<text text-anchor="middle" x="87.6766" y="-531.533" font-family="Times Roman,serif" font-size="14.00">ReconectarController</text>
<polyline fill="none" stroke="black" points="6.67663,-522.133 168.677,-522.133 "/>
<text text-anchor="start" x="14.6766" y="-505.533" font-family="Times Roman,serif" font-size="14.00">reconectar_form</text>
<text text-anchor="start" x="14.6766" y="-487.533" font-family="Times Roman,serif" font-size="14.00">reconectar_response</text>
<polyline fill="none" stroke="black" points="6.67663,-478.133 168.677,-478.133 "/>
<polyline fill="none" stroke="black" points="6.67663,-454.133 168.677,-454.133 "/>
<text text-anchor="start" x="14.6766" y="-437.533" font-family="Times Roman,serif" font-size="14.00">_layout</text>
</g>
<!-- TreatmentsController -->
<g id="node3" class="node"><title>TreatmentsController</title>
<polyline fill="none" stroke="black" points="723.016,-524.526 863.016,-524.526 "/>
<path fill="none" stroke="black" d="M863.016,-524.526C869.016,-524.526 875.016,-530.526 875.016,-536.526"/>
<polyline fill="none" stroke="black" points="875.016,-536.526 875.016,-722.526 "/>
<path fill="none" stroke="black" d="M875.016,-722.526C875.016,-728.526 869.016,-734.526 863.016,-734.526"/>
<polyline fill="none" stroke="black" points="863.016,-734.526 723.016,-734.526 "/>
<path fill="none" stroke="black" d="M723.016,-734.526C717.016,-734.526 711.016,-728.526 711.016,-722.526"/>
<polyline fill="none" stroke="black" points="711.016,-722.526 711.016,-536.526 "/>
<path fill="none" stroke="black" d="M711.016,-536.526C711.016,-530.526 717.016,-524.526 723.016,-524.526"/>
<text text-anchor="middle" x="793.016" y="-717.926" font-family="Times Roman,serif" font-size="14.00">TreatmentsController</text>
<polyline fill="none" stroke="black" points="711.016,-708.526 875.016,-708.526 "/>
<text text-anchor="start" x="719.016" y="-691.926" font-family="Times Roman,serif" font-size="14.00">create</text>
<text text-anchor="start" x="719.016" y="-673.926" font-family="Times Roman,serif" font-size="14.00">destroy</text>
<text text-anchor="start" x="719.016" y="-655.926" font-family="Times Roman,serif" font-size="14.00">edit</text>
<text text-anchor="start" x="719.016" y="-637.926" font-family="Times Roman,serif" font-size="14.00">index</text>
<text text-anchor="start" x="719.016" y="-619.926" font-family="Times Roman,serif" font-size="14.00">new</text>
<text text-anchor="start" x="719.016" y="-601.926" font-family="Times Roman,serif" font-size="14.00">show</text>
<text text-anchor="start" x="719.016" y="-583.926" font-family="Times Roman,serif" font-size="14.00">update</text>
<polyline fill="none" stroke="black" points="711.016,-574.526 875.016,-574.526 "/>
<polyline fill="none" stroke="black" points="711.016,-550.526 875.016,-550.526 "/>
<text text-anchor="start" x="719.016" y="-533.926" font-family="Times Roman,serif" font-size="14.00">_layout</text>
</g>
<!-- TasksController -->
<g id="node4" class="node"><title>TasksController</title>
<polyline fill="none" stroke="black" points="372.33,-12.1805 470.33,-12.1805 "/>
<path fill="none" stroke="black" d="M470.33,-12.1805C476.33,-12.1805 482.33,-18.1805 482.33,-24.1805"/>
<polyline fill="none" stroke="black" points="482.33,-24.1805 482.33,-210.181 "/>
<path fill="none" stroke="black" d="M482.33,-210.181C482.33,-216.181 476.33,-222.181 470.33,-222.181"/>
<polyline fill="none" stroke="black" points="470.33,-222.181 372.33,-222.181 "/>
<path fill="none" stroke="black" d="M372.33,-222.181C366.33,-222.181 360.33,-216.181 360.33,-210.181"/>
<polyline fill="none" stroke="black" points="360.33,-210.181 360.33,-24.1805 "/>
<path fill="none" stroke="black" d="M360.33,-24.1805C360.33,-18.1805 366.33,-12.1805 372.33,-12.1805"/>
<text text-anchor="middle" x="421.33" y="-205.581" font-family="Times Roman,serif" font-size="14.00">TasksController</text>
<polyline fill="none" stroke="black" points="360.33,-196.181 482.33,-196.181 "/>
<text text-anchor="start" x="368.33" y="-179.581" font-family="Times Roman,serif" font-size="14.00">create</text>
<text text-anchor="start" x="368.33" y="-161.581" font-family="Times Roman,serif" font-size="14.00">destroy</text>
<text text-anchor="start" x="368.33" y="-143.581" font-family="Times Roman,serif" font-size="14.00">edit</text>
<text text-anchor="start" x="368.33" y="-125.581" font-family="Times Roman,serif" font-size="14.00">index</text>
<text text-anchor="start" x="368.33" y="-107.581" font-family="Times Roman,serif" font-size="14.00">new</text>
<text text-anchor="start" x="368.33" y="-89.5805" font-family="Times Roman,serif" font-size="14.00">show</text>
<text text-anchor="start" x="368.33" y="-71.5805" font-family="Times Roman,serif" font-size="14.00">update</text>
<polyline fill="none" stroke="black" points="360.33,-62.1805 482.33,-62.1805 "/>
<polyline fill="none" stroke="black" points="360.33,-38.1805 482.33,-38.1805 "/>
<text text-anchor="start" x="368.33" y="-21.5805" font-family="Times Roman,serif" font-size="14.00">_layout</text>
</g>
<!-- ProvincesController -->
<g id="node5" class="node"><title>ProvincesController</title>
<polyline fill="none" stroke="black" points="361.343,-1044.44 489.343,-1044.44 "/>
<path fill="none" stroke="black" d="M489.343,-1044.44C495.343,-1044.44 501.343,-1050.44 501.343,-1056.44"/>
<polyline fill="none" stroke="black" points="501.343,-1056.44 501.343,-1242.44 "/>
<path fill="none" stroke="black" d="M501.343,-1242.44C501.343,-1248.44 495.343,-1254.44 489.343,-1254.44"/>
<polyline fill="none" stroke="black" points="489.343,-1254.44 361.343,-1254.44 "/>
<path fill="none" stroke="black" d="M361.343,-1254.44C355.343,-1254.44 349.343,-1248.44 349.343,-1242.44"/>
<polyline fill="none" stroke="black" points="349.343,-1242.44 349.343,-1056.44 "/>
<path fill="none" stroke="black" d="M349.343,-1056.44C349.343,-1050.44 355.343,-1044.44 361.343,-1044.44"/>
<text text-anchor="middle" x="425.343" y="-1237.84" font-family="Times Roman,serif" font-size="14.00">ProvincesController</text>
<polyline fill="none" stroke="black" points="349.343,-1228.44 501.343,-1228.44 "/>
<text text-anchor="start" x="357.343" y="-1211.84" font-family="Times Roman,serif" font-size="14.00">create</text>
<text text-anchor="start" x="357.343" y="-1193.84" font-family="Times Roman,serif" font-size="14.00">destroy</text>
<text text-anchor="start" x="357.343" y="-1175.84" font-family="Times Roman,serif" font-size="14.00">edit</text>
<text text-anchor="start" x="357.343" y="-1157.84" font-family="Times Roman,serif" font-size="14.00">index</text>
<text text-anchor="start" x="357.343" y="-1139.84" font-family="Times Roman,serif" font-size="14.00">new</text>
<text text-anchor="start" x="357.343" y="-1121.84" font-family="Times Roman,serif" font-size="14.00">show</text>
<text text-anchor="start" x="357.343" y="-1103.84" font-family="Times Roman,serif" font-size="14.00">update</text>
<polyline fill="none" stroke="black" points="349.343,-1094.44 501.343,-1094.44 "/>
<polyline fill="none" stroke="black" points="349.343,-1070.44 501.343,-1070.44 "/>
<text text-anchor="start" x="357.343" y="-1053.84" font-family="Times Roman,serif" font-size="14.00">_layout</text>
</g>
<!-- SessionsController -->
<g id="node6" class="node"><title>SessionsController</title>
<polyline fill="none" stroke="black" points="658.014,-817.36 778.014,-817.36 "/>
<path fill="none" stroke="black" d="M778.014,-817.36C784.014,-817.36 790.014,-823.36 790.014,-829.36"/>
<polyline fill="none" stroke="black" points="790.014,-829.36 790.014,-943.36 "/>
<path fill="none" stroke="black" d="M790.014,-943.36C790.014,-949.36 784.014,-955.36 778.014,-955.36"/>
<polyline fill="none" stroke="black" points="778.014,-955.36 658.014,-955.36 "/>
<path fill="none" stroke="black" d="M658.014,-955.36C652.014,-955.36 646.014,-949.36 646.014,-943.36"/>
<polyline fill="none" stroke="black" points="646.014,-943.36 646.014,-829.36 "/>
<path fill="none" stroke="black" d="M646.014,-829.36C646.014,-823.36 652.014,-817.36 658.014,-817.36"/>
<text text-anchor="middle" x="718.014" y="-938.76" font-family="Times Roman,serif" font-size="14.00">SessionsController</text>
<polyline fill="none" stroke="black" points="646.014,-929.36 790.014,-929.36 "/>
<text text-anchor="start" x="654.014" y="-912.76" font-family="Times Roman,serif" font-size="14.00">create</text>
<text text-anchor="start" x="654.014" y="-894.76" font-family="Times Roman,serif" font-size="14.00">destroy</text>
<text text-anchor="start" x="654.014" y="-876.76" font-family="Times Roman,serif" font-size="14.00">new</text>
<polyline fill="none" stroke="black" points="646.014,-867.36 790.014,-867.36 "/>
<polyline fill="none" stroke="black" points="646.014,-843.36 790.014,-843.36 "/>
<text text-anchor="start" x="654.014" y="-826.76" font-family="Times Roman,serif" font-size="14.00">_layout</text>
</g>
<!-- InternshipsUsersController -->
<g id="node7" class="node"><title>InternshipsUsersController</title>
<polyline fill="none" stroke="black" points="319.629,-784.807 496.629,-784.807 "/>
<path fill="none" stroke="black" d="M496.629,-784.807C502.629,-784.807 508.629,-790.807 508.629,-796.807"/>
<polyline fill="none" stroke="black" points="508.629,-796.807 508.629,-982.807 "/>
<path fill="none" stroke="black" d="M508.629,-982.807C508.629,-988.807 502.629,-994.807 496.629,-994.807"/>
<polyline fill="none" stroke="black" points="496.629,-994.807 319.629,-994.807 "/>
<path fill="none" stroke="black" d="M319.629,-994.807C313.629,-994.807 307.629,-988.807 307.629,-982.807"/>
<polyline fill="none" stroke="black" points="307.629,-982.807 307.629,-796.807 "/>
<path fill="none" stroke="black" d="M307.629,-796.807C307.629,-790.807 313.629,-784.807 319.629,-784.807"/>
<text text-anchor="middle" x="408.129" y="-978.207" font-family="Times Roman,serif" font-size="14.00">InternshipsUsersController</text>
<polyline fill="none" stroke="black" points="307.629,-968.807 508.629,-968.807 "/>
<text text-anchor="start" x="315.629" y="-952.207" font-family="Times Roman,serif" font-size="14.00">create</text>
<text text-anchor="start" x="315.629" y="-934.207" font-family="Times Roman,serif" font-size="14.00">destroy</text>
<text text-anchor="start" x="315.629" y="-916.207" font-family="Times Roman,serif" font-size="14.00">edit</text>
<text text-anchor="start" x="315.629" y="-898.207" font-family="Times Roman,serif" font-size="14.00">index</text>
<text text-anchor="start" x="315.629" y="-880.207" font-family="Times Roman,serif" font-size="14.00">new</text>
<text text-anchor="start" x="315.629" y="-862.207" font-family="Times Roman,serif" font-size="14.00">show</text>
<text text-anchor="start" x="315.629" y="-844.207" font-family="Times Roman,serif" font-size="14.00">update</text>
<polyline fill="none" stroke="black" points="307.629,-834.807 508.629,-834.807 "/>
<polyline fill="none" stroke="black" points="307.629,-810.807 508.629,-810.807 "/>
<text text-anchor="start" x="315.629" y="-794.207" font-family="Times Roman,serif" font-size="14.00">_layout</text>
</g>
<!-- ContractsController -->
<g id="node8" class="node"><title>ContractsController</title>
<polyline fill="none" stroke="black" points="52.4648,-4.81366 180.465,-4.81366 "/>
<path fill="none" stroke="black" d="M180.465,-4.81366C186.465,-4.81366 192.465,-10.8137 192.465,-16.8137"/>
<polyline fill="none" stroke="black" points="192.465,-16.8137 192.465,-274.814 "/>
<path fill="none" stroke="black" d="M192.465,-274.814C192.465,-280.814 186.465,-286.814 180.465,-286.814"/>
<polyline fill="none" stroke="black" points="180.465,-286.814 52.4648,-286.814 "/>
<path fill="none" stroke="black" d="M52.4648,-286.814C46.4648,-286.814 40.4648,-280.814 40.4648,-274.814"/>
<polyline fill="none" stroke="black" points="40.4648,-274.814 40.4648,-16.8137 "/>
<path fill="none" stroke="black" d="M40.4648,-16.8137C40.4648,-10.8137 46.4648,-4.81366 52.4648,-4.81366"/>
<text text-anchor="middle" x="116.465" y="-270.214" font-family="Times Roman,serif" font-size="14.00">ContractsController</text>
<polyline fill="none" stroke="black" points="40.4648,-260.814 192.465,-260.814 "/>
<text text-anchor="start" x="48.4648" y="-244.214" font-family="Times Roman,serif" font-size="14.00">cm</text>
<text text-anchor="start" x="48.4648" y="-226.214" font-family="Times Roman,serif" font-size="14.00">create</text>
<text text-anchor="start" x="48.4648" y="-208.214" font-family="Times Roman,serif" font-size="14.00">destroy</text>
<text text-anchor="start" x="48.4648" y="-190.214" font-family="Times Roman,serif" font-size="14.00">edit</text>
<text text-anchor="start" x="48.4648" y="-172.214" font-family="Times Roman,serif" font-size="14.00">imprimirmeci</text>
<text text-anchor="start" x="48.4648" y="-154.214" font-family="Times Roman,serif" font-size="14.00">imprimirmecm</text>
<text text-anchor="start" x="48.4648" y="-136.214" font-family="Times Roman,serif" font-size="14.00">index</text>
<text text-anchor="start" x="48.4648" y="-118.214" font-family="Times Roman,serif" font-size="14.00">new</text>
<text text-anchor="start" x="48.4648" y="-100.214" font-family="Times Roman,serif" font-size="14.00">redactarme</text>
<text text-anchor="start" x="48.4648" y="-82.2137" font-family="Times Roman,serif" font-size="14.00">show</text>
<text text-anchor="start" x="48.4648" y="-64.2137" font-family="Times Roman,serif" font-size="14.00">update</text>
<polyline fill="none" stroke="black" points="40.4648,-54.8137 192.465,-54.8137 "/>
<polyline fill="none" stroke="black" points="40.4648,-30.8137 192.465,-30.8137 "/>
<text text-anchor="start" x="48.4648" y="-14.2137" font-family="Times Roman,serif" font-size="14.00">_layout</text>
</g>
<!-- SkillsController -->
<g id="node9" class="node"><title>SkillsController</title>
<polyline fill="none" stroke="black" points="992.984,-385.316 1089.98,-385.316 "/>
<path fill="none" stroke="black" d="M1089.98,-385.316C1095.98,-385.316 1101.98,-391.316 1101.98,-397.316"/>
<polyline fill="none" stroke="black" points="1101.98,-397.316 1101.98,-583.316 "/>
<path fill="none" stroke="black" d="M1101.98,-583.316C1101.98,-589.316 1095.98,-595.316 1089.98,-595.316"/>
<polyline fill="none" stroke="black" points="1089.98,-595.316 992.984,-595.316 "/>
<path fill="none" stroke="black" d="M992.984,-595.316C986.984,-595.316 980.984,-589.316 980.984,-583.316"/>
<polyline fill="none" stroke="black" points="980.984,-583.316 980.984,-397.316 "/>
<path fill="none" stroke="black" d="M980.984,-397.316C980.984,-391.316 986.984,-385.316 992.984,-385.316"/>
<text text-anchor="middle" x="1041.48" y="-578.716" font-family="Times Roman,serif" font-size="14.00">SkillsController</text>
<polyline fill="none" stroke="black" points="980.984,-569.316 1101.98,-569.316 "/>
<text text-anchor="start" x="988.984" y="-552.716" font-family="Times Roman,serif" font-size="14.00">create</text>
<text text-anchor="start" x="988.984" y="-534.716" font-family="Times Roman,serif" font-size="14.00">destroy</text>
<text text-anchor="start" x="988.984" y="-516.716" font-family="Times Roman,serif" font-size="14.00">edit</text>
<text text-anchor="start" x="988.984" y="-498.716" font-family="Times Roman,serif" font-size="14.00">index</text>
<text text-anchor="start" x="988.984" y="-480.716" font-family="Times Roman,serif" font-size="14.00">new</text>
<text text-anchor="start" x="988.984" y="-462.716" font-family="Times Roman,serif" font-size="14.00">show</text>
<text text-anchor="start" x="988.984" y="-444.716" font-family="Times Roman,serif" font-size="14.00">update</text>
<polyline fill="none" stroke="black" points="980.984,-435.316 1101.98,-435.316 "/>
<polyline fill="none" stroke="black" points="980.984,-411.316 1101.98,-411.316 "/>
<text text-anchor="start" x="988.984" y="-394.716" font-family="Times Roman,serif" font-size="14.00">_layout</text>
</g>
<!-- InternshipsTasksController -->
<g id="node10" class="node"><title>InternshipsTasksController</title>
<polyline fill="none" stroke="black" points="239.879,-272.291 415.879,-272.291 "/>
<path fill="none" stroke="black" d="M415.879,-272.291C421.879,-272.291 427.879,-278.291 427.879,-284.291"/>
<polyline fill="none" stroke="black" points="427.879,-284.291 427.879,-470.291 "/>
<path fill="none" stroke="black" d="M427.879,-470.291C427.879,-476.291 421.879,-482.291 415.879,-482.291"/>
<polyline fill="none" stroke="black" points="415.879,-482.291 239.879,-482.291 "/>
<path fill="none" stroke="black" d="M239.879,-482.291C233.879,-482.291 227.879,-476.291 227.879,-470.291"/>
<polyline fill="none" stroke="black" points="227.879,-470.291 227.879,-284.291 "/>
<path fill="none" stroke="black" d="M227.879,-284.291C227.879,-278.291 233.879,-272.291 239.879,-272.291"/>
<text text-anchor="middle" x="327.879" y="-465.691" font-family="Times Roman,serif" font-size="14.00">InternshipsTasksController</text>
<polyline fill="none" stroke="black" points="227.879,-456.291 427.879,-456.291 "/>
<text text-anchor="start" x="235.879" y="-439.691" font-family="Times Roman,serif" font-size="14.00">create</text>
<text text-anchor="start" x="235.879" y="-421.691" font-family="Times Roman,serif" font-size="14.00">destroy</text>
<text text-anchor="start" x="235.879" y="-403.691" font-family="Times Roman,serif" font-size="14.00">edit</text>
<text text-anchor="start" x="235.879" y="-385.691" font-family="Times Roman,serif" font-size="14.00">index</text>
<text text-anchor="start" x="235.879" y="-367.691" font-family="Times Roman,serif" font-size="14.00">new</text>
<text text-anchor="start" x="235.879" y="-349.691" font-family="Times Roman,serif" font-size="14.00">show</text>
<text text-anchor="start" x="235.879" y="-331.691" font-family="Times Roman,serif" font-size="14.00">update</text>
<polyline fill="none" stroke="black" points="227.879,-322.291 427.879,-322.291 "/>
<polyline fill="none" stroke="black" points="227.879,-298.291 427.879,-298.291 "/>
<text text-anchor="start" x="235.879" y="-281.691" font-family="Times Roman,serif" font-size="14.00">_layout</text>
</g>
<!-- UsersController -->
<g id="node11" class="node"><title>UsersController</title>
<polyline fill="none" stroke="black" points="594.679,-1.5 817.679,-1.5 "/>
<path fill="none" stroke="black" d="M817.679,-1.5C823.679,-1.5 829.679,-7.5 829.679,-13.5"/>
<polyline fill="none" stroke="black" points="829.679,-13.5 829.679,-217.5 "/>
<path fill="none" stroke="black" d="M829.679,-217.5C829.679,-223.5 823.679,-229.5 817.679,-229.5"/>
<polyline fill="none" stroke="black" points="817.679,-229.5 594.679,-229.5 "/>
<path fill="none" stroke="black" d="M594.679,-229.5C588.679,-229.5 582.679,-223.5 582.679,-217.5"/>
<polyline fill="none" stroke="black" points="582.679,-217.5 582.679,-13.5 "/>
<path fill="none" stroke="black" d="M582.679,-13.5C582.679,-7.5 588.679,-1.5 594.679,-1.5"/>
<text text-anchor="middle" x="706.179" y="-212.9" font-family="Times Roman,serif" font-size="14.00">UsersController</text>
<polyline fill="none" stroke="black" points="582.679,-203.5 829.679,-203.5 "/>
<text text-anchor="start" x="590.679" y="-186.9" font-family="Times Roman,serif" font-size="14.00">_one_time_conditions_valid_143?</text>
<text text-anchor="start" x="590.679" y="-168.9" font-family="Times Roman,serif" font-size="14.00">create</text>
<text text-anchor="start" x="590.679" y="-150.9" font-family="Times Roman,serif" font-size="14.00">destroy</text>
<text text-anchor="start" x="590.679" y="-132.9" font-family="Times Roman,serif" font-size="14.00">edit</text>
<text text-anchor="start" x="590.679" y="-114.9" font-family="Times Roman,serif" font-size="14.00">index</text>
<text text-anchor="start" x="590.679" y="-96.9" font-family="Times Roman,serif" font-size="14.00">new</text>
<text text-anchor="start" x="590.679" y="-78.9" font-family="Times Roman,serif" font-size="14.00">show</text>
<text text-anchor="start" x="590.679" y="-60.9" font-family="Times Roman,serif" font-size="14.00">update</text>
<polyline fill="none" stroke="black" points="582.679,-51.5 829.679,-51.5 "/>
<polyline fill="none" stroke="black" points="582.679,-27.5 829.679,-27.5 "/>
<text text-anchor="start" x="590.679" y="-10.9" font-family="Times Roman,serif" font-size="14.00">_layout</text>
</g>
<!-- CompaniesController -->
<g id="node12" class="node"><title>CompaniesController</title>
<polyline fill="none" stroke="black" points="456.544,-291.015 679.544,-291.015 "/>
<path fill="none" stroke="black" d="M679.544,-291.015C685.544,-291.015 691.544,-297.015 691.544,-303.015"/>
<polyline fill="none" stroke="black" points="691.544,-303.015 691.544,-507.015 "/>
<path fill="none" stroke="black" d="M691.544,-507.015C691.544,-513.015 685.544,-519.015 679.544,-519.015"/>
<polyline fill="none" stroke="black" points="679.544,-519.015 456.544,-519.015 "/>
<path fill="none" stroke="black" d="M456.544,-519.015C450.544,-519.015 444.544,-513.015 444.544,-507.015"/>
<polyline fill="none" stroke="black" points="444.544,-507.015 444.544,-303.015 "/>
<path fill="none" stroke="black" d="M444.544,-303.015C444.544,-297.015 450.544,-291.015 456.544,-291.015"/>
<text text-anchor="middle" x="568.044" y="-502.415" font-family="Times Roman,serif" font-size="14.00">CompaniesController</text>
<polyline fill="none" stroke="black" points="444.544,-493.015 691.544,-493.015 "/>
<text text-anchor="start" x="452.544" y="-476.415" font-family="Times Roman,serif" font-size="14.00">_one_time_conditions_valid_177?</text>
<text text-anchor="start" x="452.544" y="-458.415" font-family="Times Roman,serif" font-size="14.00">create</text>
<text text-anchor="start" x="452.544" y="-440.415" font-family="Times Roman,serif" font-size="14.00">destroy</text>
<text text-anchor="start" x="452.544" y="-422.415" font-family="Times Roman,serif" font-size="14.00">edit</text>
<text text-anchor="start" x="452.544" y="-404.415" font-family="Times Roman,serif" font-size="14.00">index</text>
<text text-anchor="start" x="452.544" y="-386.415" font-family="Times Roman,serif" font-size="14.00">new</text>
<text text-anchor="start" x="452.544" y="-368.415" font-family="Times Roman,serif" font-size="14.00">show</text>
<text text-anchor="start" x="452.544" y="-350.415" font-family="Times Roman,serif" font-size="14.00">update</text>
<polyline fill="none" stroke="black" points="444.544,-341.015 691.544,-341.015 "/>
<polyline fill="none" stroke="black" points="444.544,-317.015 691.544,-317.015 "/>
<text text-anchor="start" x="452.544" y="-300.415" font-family="Times Roman,serif" font-size="14.00">_layout</text>
</g>
<!-- ApplicationController -->
<g id="node13" class="node"><title>ApplicationController</title>
<polyline fill="none" stroke="black" points="451.797,-604.107 665.797,-604.107 "/>
<path fill="none" stroke="black" d="M665.797,-604.107C671.797,-604.107 677.797,-610.107 677.797,-616.107"/>
<polyline fill="none" stroke="black" points="677.797,-616.107 677.797,-714.107 "/>
<path fill="none" stroke="black" d="M677.797,-714.107C677.797,-720.107 671.797,-726.107 665.797,-726.107"/>
<polyline fill="none" stroke="black" points="665.797,-726.107 451.797,-726.107 "/>
<path fill="none" stroke="black" d="M451.797,-726.107C445.797,-726.107 439.797,-720.107 439.797,-714.107"/>
<polyline fill="none" stroke="black" points="439.797,-714.107 439.797,-616.107 "/>
<path fill="none" stroke="black" d="M439.797,-616.107C439.797,-610.107 445.797,-604.107 451.797,-604.107"/>
<text text-anchor="middle" x="558.797" y="-709.507" font-family="Times Roman,serif" font-size="14.00">ApplicationController</text>
<polyline fill="none" stroke="black" points="439.797,-700.107 677.797,-700.107 "/>
<text text-anchor="start" x="447.797" y="-683.507" font-family="Times Roman,serif" font-size="14.00">_one_time_conditions_valid_10?</text>
<text text-anchor="start" x="447.797" y="-665.507" font-family="Times Roman,serif" font-size="14.00">_one_time_conditions_valid_8?</text>
<polyline fill="none" stroke="black" points="439.797,-656.107 677.797,-656.107 "/>
<text text-anchor="start" x="447.797" y="-639.507" font-family="Times Roman,serif" font-size="14.00">authorize</text>
<polyline fill="none" stroke="black" points="439.797,-630.107 677.797,-630.107 "/>
<text text-anchor="start" x="447.797" y="-613.507" font-family="Times Roman,serif" font-size="14.00">_layout</text>
</g>
<!-- ApplicationController&#45;&gt;ReconectarController -->
<g id="edge2" class="edge"><title>ApplicationController&#45;&gt;ReconectarController</title>
<path fill="none" stroke="black" d="M507.919,-603.771C481.114,-575.729 445.893,-544.909 407.661,-527.351 331.878,-492.546 235.913,-484.971 168.932,-484.719"/>
</g>
<!-- ApplicationController&#45;&gt;TreatmentsController -->
<g id="edge4" class="edge"><title>ApplicationController&#45;&gt;TreatmentsController</title>
<path fill="none" stroke="black" d="M677.965,-647.004C689.04,-645.322 700.09,-643.643 710.72,-642.028"/>
</g>
<!-- ApplicationController&#45;&gt;TasksController -->
<g id="edge6" class="edge"><title>ApplicationController&#45;&gt;TasksController</title>
<path fill="none" stroke="black" d="M493.853,-604.019C473.208,-580.588 452.784,-552.221 441.344,-522.215 431.316,-495.914 432.551,-297.2 431.079,-269.091 430.292,-254.047 429.372,-238.172 428.417,-222.581"/>
</g>
<!-- ApplicationController&#45;&gt;ProvincesController -->
<g id="edge8" class="edge"><title>ApplicationController&#45;&gt;ProvincesController</title>
<path fill="none" stroke="black" d="M557.057,-726.235C553.56,-794.251 543.089,-906.606 511.829,-998.007 506.538,-1013.48 499.632,-1029.16 492.026,-1044.27"/>
</g>
<!-- ApplicationController&#45;&gt;SessionsController -->
<g id="edge10" class="edge"><title>ApplicationController&#45;&gt;SessionsController</title>
<path fill="none" stroke="black" d="M602.725,-726.151C623.067,-754.419 647.328,-788.133 668.335,-817.325"/>
</g>
<!-- ApplicationController&#45;&gt;InternshipsUsersController -->
<g id="edge12" class="edge"><title>ApplicationController&#45;&gt;InternshipsUsersController</title>
<path fill="none" stroke="black" d="M517.825,-726.211C505.713,-744.275 492.092,-764.588 478.674,-784.598"/>
</g>
<!-- ApplicationController&#45;&gt;ContractsController -->
<g id="edge14" class="edge"><title>ApplicationController&#45;&gt;ContractsController</title>
<path fill="none" stroke="black" d="M505.719,-604.051C478.902,-576.775 444.31,-546.524 407.661,-527.351 333.74,-488.678 286.082,-541.968 224.679,-485.491 169.446,-434.688 142.258,-355.81 128.939,-286.848"/>
</g>
<!-- ApplicationController&#45;&gt;SkillsController -->
<g id="edge16" class="edge"><title>ApplicationController&#45;&gt;SkillsController</title>
<path fill="none" stroke="black" d="M605.125,-603.936C631.653,-573.676 667.624,-539.764 707.816,-521.326 796.257,-480.756 911.556,-479.961 980.87,-484.285"/>
</g>
<!-- ApplicationController&#45;&gt;InternshipsTasksController -->
<g id="edge18" class="edge"><title>ApplicationController&#45;&gt;InternshipsTasksController</title>
<path fill="none" stroke="black" d="M507.889,-603.826C487.116,-578.651 462.946,-549.142 441.344,-522.215 431.046,-509.379 420.299,-495.842 409.701,-482.406"/>
</g>
<!-- ApplicationController&#45;&gt;UsersController -->
<g id="edge20" class="edge"><title>ApplicationController&#45;&gt;UsersController</title>
<path fill="none" stroke="black" d="M635.856,-604.055C659.142,-581.11 681.918,-553.039 694.744,-522.215 733.413,-429.28 732.576,-313.788 724.232,-229.646"/>
</g>
<!-- ApplicationController&#45;&gt;CompaniesController -->
<g id="edge22" class="edge"><title>ApplicationController&#45;&gt;CompaniesController</title>
<path fill="none" stroke="black" d="M560.976,-603.798C561.876,-578.492 562.949,-548.313 563.984,-519.209"/>
</g>
<!-- LandingController -->
<g id="node14" class="node"><title>LandingController</title>
<polyline fill="none" stroke="black" points="960.881,-755.873 1076.88,-755.873 "/>
<path fill="none" stroke="black" d="M1076.88,-755.873C1082.88,-755.873 1088.88,-761.873 1088.88,-767.873"/>
<polyline fill="none" stroke="black" points="1088.88,-767.873 1088.88,-845.873 "/>
<path fill="none" stroke="black" d="M1088.88,-845.873C1088.88,-851.873 1082.88,-857.873 1076.88,-857.873"/>
<polyline fill="none" stroke="black" points="1076.88,-857.873 960.881,-857.873 "/>
<path fill="none" stroke="black" d="M960.881,-857.873C954.881,-857.873 948.881,-851.873 948.881,-845.873"/>
<polyline fill="none" stroke="black" points="948.881,-845.873 948.881,-767.873 "/>
<path fill="none" stroke="black" d="M948.881,-767.873C948.881,-761.873 954.881,-755.873 960.881,-755.873"/>
<text text-anchor="middle" x="1018.88" y="-841.273" font-family="Times Roman,serif" font-size="14.00">LandingController</text>
<polyline fill="none" stroke="black" points="948.881,-831.873 1088.88,-831.873 "/>
<text text-anchor="start" x="956.881" y="-815.273" font-family="Times Roman,serif" font-size="14.00">bienvenida</text>
<polyline fill="none" stroke="black" points="948.881,-805.873 1088.88,-805.873 "/>
<polyline fill="none" stroke="black" points="948.881,-781.873 1088.88,-781.873 "/>
<text text-anchor="start" x="956.881" y="-765.273" font-family="Times Roman,serif" font-size="14.00">_layout</text>
</g>
<!-- ApplicationController&#45;&gt;LandingController -->
<g id="edge24" class="edge"><title>ApplicationController&#45;&gt;LandingController</title>
<path fill="none" stroke="black" d="M678.134,-726.252C688.058,-730.417 698.035,-734.309 707.816,-737.726 788.377,-765.87 884.789,-785.202 948.702,-796.123"/>
</g>
<!-- InternshipsController -->
<g id="node15" class="node"><title>InternshipsController</title>
<polyline fill="none" stroke="black" points="894.929,-997.068 1117.93,-997.068 "/>
<path fill="none" stroke="black" d="M1117.93,-997.068C1123.93,-997.068 1129.93,-1003.07 1129.93,-1009.07"/>
<polyline fill="none" stroke="black" points="1129.93,-1009.07 1129.93,-1231.07 "/>
<path fill="none" stroke="black" d="M1129.93,-1231.07C1129.93,-1237.07 1123.93,-1243.07 1117.93,-1243.07"/>
<polyline fill="none" stroke="black" points="1117.93,-1243.07 894.929,-1243.07 "/>
<path fill="none" stroke="black" d="M894.929,-1243.07C888.929,-1243.07 882.929,-1237.07 882.929,-1231.07"/>
<polyline fill="none" stroke="black" points="882.929,-1231.07 882.929,-1009.07 "/>
<path fill="none" stroke="black" d="M882.929,-1009.07C882.929,-1003.07 888.929,-997.068 894.929,-997.068"/>
<text text-anchor="middle" x="1006.43" y="-1226.47" font-family="Times Roman,serif" font-size="14.00">InternshipsController</text>
<polyline fill="none" stroke="black" points="882.929,-1217.07 1129.93,-1217.07 "/>
<text text-anchor="start" x="890.929" y="-1200.47" font-family="Times Roman,serif" font-size="14.00">_one_time_conditions_valid_221?</text>
<text text-anchor="start" x="890.929" y="-1182.47" font-family="Times Roman,serif" font-size="14.00">create</text>
<text text-anchor="start" x="890.929" y="-1164.47" font-family="Times Roman,serif" font-size="14.00">destroy</text>
<text text-anchor="start" x="890.929" y="-1146.47" font-family="Times Roman,serif" font-size="14.00">edit</text>
<text text-anchor="start" x="890.929" y="-1128.47" font-family="Times Roman,serif" font-size="14.00">index</text>
<text text-anchor="start" x="890.929" y="-1110.47" font-family="Times Roman,serif" font-size="14.00">new</text>
<text text-anchor="start" x="890.929" y="-1092.47" font-family="Times Roman,serif" font-size="14.00">postularme</text>
<text text-anchor="start" x="890.929" y="-1074.47" font-family="Times Roman,serif" font-size="14.00">show</text>
<text text-anchor="start" x="890.929" y="-1056.47" font-family="Times Roman,serif" font-size="14.00">update</text>
<polyline fill="none" stroke="black" points="882.929,-1047.07 1129.93,-1047.07 "/>
<polyline fill="none" stroke="black" points="882.929,-1023.07 1129.93,-1023.07 "/>
<text text-anchor="start" x="890.929" y="-1006.47" font-family="Times Roman,serif" font-size="14.00">_layout</text>
</g>
<!-- ApplicationController&#45;&gt;InternshipsController -->
<g id="edge26" class="edge"><title>ApplicationController&#45;&gt;InternshipsController</title>
<path fill="none" stroke="black" d="M674.466,-726.157C714.578,-750.443 758.224,-780.621 793.214,-814.16 848.828,-867.468 898.81,-937.316 936.379,-996.809"/>
</g>
<!-- LocalitiesController -->
<g id="node16" class="node"><title>LocalitiesController</title>
<polyline fill="none" stroke="black" points="646.616,-1043.44 771.616,-1043.44 "/>
<path fill="none" stroke="black" d="M771.616,-1043.44C777.616,-1043.44 783.616,-1049.44 783.616,-1055.44"/>
<polyline fill="none" stroke="black" points="783.616,-1055.44 783.616,-1241.44 "/>
<path fill="none" stroke="black" d="M783.616,-1241.44C783.616,-1247.44 777.616,-1253.44 771.616,-1253.44"/>
<polyline fill="none" stroke="black" points="771.616,-1253.44 646.616,-1253.44 "/>
<path fill="none" stroke="black" d="M646.616,-1253.44C640.616,-1253.44 634.616,-1247.44 634.616,-1241.44"/>
<polyline fill="none" stroke="black" points="634.616,-1241.44 634.616,-1055.44 "/>
<path fill="none" stroke="black" d="M634.616,-1055.44C634.616,-1049.44 640.616,-1043.44 646.616,-1043.44"/>
<text text-anchor="middle" x="709.116" y="-1236.84" font-family="Times Roman,serif" font-size="14.00">LocalitiesController</text>
<polyline fill="none" stroke="black" points="634.616,-1227.44 783.616,-1227.44 "/>
<text text-anchor="start" x="642.616" y="-1210.84" font-family="Times Roman,serif" font-size="14.00">create</text>
<text text-anchor="start" x="642.616" y="-1192.84" font-family="Times Roman,serif" font-size="14.00">destroy</text>
<text text-anchor="start" x="642.616" y="-1174.84" font-family="Times Roman,serif" font-size="14.00">edit</text>
<text text-anchor="start" x="642.616" y="-1156.84" font-family="Times Roman,serif" font-size="14.00">index</text>
<text text-anchor="start" x="642.616" y="-1138.84" font-family="Times Roman,serif" font-size="14.00">new</text>
<text text-anchor="start" x="642.616" y="-1120.84" font-family="Times Roman,serif" font-size="14.00">show</text>
<text text-anchor="start" x="642.616" y="-1102.84" font-family="Times Roman,serif" font-size="14.00">update</text>
<polyline fill="none" stroke="black" points="634.616,-1093.44 783.616,-1093.44 "/>
<polyline fill="none" stroke="black" points="634.616,-1069.44 783.616,-1069.44 "/>
<text text-anchor="start" x="642.616" y="-1052.84" font-family="Times Roman,serif" font-size="14.00">_layout</text>
</g>
<!-- ApplicationController&#45;&gt;LocalitiesController -->
<g id="edge28" class="edge"><title>ApplicationController&#45;&gt;LocalitiesController</title>
<path fill="none" stroke="black" d="M575.169,-726.109C591.414,-785.677 617.48,-878.755 642.814,-958.56 651.584,-986.184 661.636,-1015.86 671.218,-1043.34"/>
</g>
<!-- StudiesController -->
<g id="node17" class="node"><title>StudiesController</title>
<polyline fill="none" stroke="black" points="751.8,-265.491 864.8,-265.491 "/>
<path fill="none" stroke="black" d="M864.8,-265.491C870.8,-265.491 876.8,-271.491 876.8,-277.491"/>
<polyline fill="none" stroke="black" points="876.8,-277.491 876.8,-463.491 "/>
<path fill="none" stroke="black" d="M876.8,-463.491C876.8,-469.491 870.8,-475.491 864.8,-475.491"/>
<polyline fill="none" stroke="black" points="864.8,-475.491 751.8,-475.491 "/>
<path fill="none" stroke="black" d="M751.8,-475.491C745.8,-475.491 739.8,-469.491 739.8,-463.491"/>
<polyline fill="none" stroke="black" points="739.8,-463.491 739.8,-277.491 "/>
<path fill="none" stroke="black" d="M739.8,-277.491C739.8,-271.491 745.8,-265.491 751.8,-265.491"/>
<text text-anchor="middle" x="808.3" y="-458.891" font-family="Times Roman,serif" font-size="14.00">StudiesController</text>
<polyline fill="none" stroke="black" points="739.8,-449.491 876.8,-449.491 "/>
<text text-anchor="start" x="747.8" y="-432.891" font-family="Times Roman,serif" font-size="14.00">create</text>
<text text-anchor="start" x="747.8" y="-414.891" font-family="Times Roman,serif" font-size="14.00">destroy</text>
<text text-anchor="start" x="747.8" y="-396.891" font-family="Times Roman,serif" font-size="14.00">edit</text>
<text text-anchor="start" x="747.8" y="-378.891" font-family="Times Roman,serif" font-size="14.00">index</text>
<text text-anchor="start" x="747.8" y="-360.891" font-family="Times Roman,serif" font-size="14.00">new</text>
<text text-anchor="start" x="747.8" y="-342.891" font-family="Times Roman,serif" font-size="14.00">show</text>
<text text-anchor="start" x="747.8" y="-324.891" font-family="Times Roman,serif" font-size="14.00">update</text>
<polyline fill="none" stroke="black" points="739.8,-315.491 876.8,-315.491 "/>
<polyline fill="none" stroke="black" points="739.8,-291.491 876.8,-291.491 "/>
<text text-anchor="start" x="747.8" y="-274.891" font-family="Times Roman,serif" font-size="14.00">_layout</text>
</g>
<!-- ApplicationController&#45;&gt;StudiesController -->
<g id="edge30" class="edge"><title>ApplicationController&#45;&gt;StudiesController</title>
<path fill="none" stroke="black" d="M619.996,-603.979C643.986,-579.205 671.32,-549.941 694.744,-522.215 709.819,-504.371 725.268,-484.754 739.722,-465.721"/>
</g>
<!-- AdminController -->
<g id="node18" class="node"><title>AdminController</title>
<polyline fill="none" stroke="black" points="961.169,-93.7964 1066.17,-93.7964 "/>
<path fill="none" stroke="black" d="M1066.17,-93.7964C1072.17,-93.7964 1078.17,-99.7964 1078.17,-105.796"/>
<polyline fill="none" stroke="black" points="1078.17,-105.796 1078.17,-183.796 "/>
<path fill="none" stroke="black" d="M1078.17,-183.796C1078.17,-189.796 1072.17,-195.796 1066.17,-195.796"/>
<polyline fill="none" stroke="black" points="1066.17,-195.796 961.169,-195.796 "/>
<path fill="none" stroke="black" d="M961.169,-195.796C955.169,-195.796 949.169,-189.796 949.169,-183.796"/>
<polyline fill="none" stroke="black" points="949.169,-183.796 949.169,-105.796 "/>
<path fill="none" stroke="black" d="M949.169,-105.796C949.169,-99.7964 955.169,-93.7964 961.169,-93.7964"/>
<text text-anchor="middle" x="1013.67" y="-179.196" font-family="Times Roman,serif" font-size="14.00">AdminController</text>
<polyline fill="none" stroke="black" points="949.169,-169.796 1078.17,-169.796 "/>
<text text-anchor="start" x="957.169" y="-153.196" font-family="Times Roman,serif" font-size="14.00">index</text>
<polyline fill="none" stroke="black" points="949.169,-143.796 1078.17,-143.796 "/>
<polyline fill="none" stroke="black" points="949.169,-119.796 1078.17,-119.796 "/>
<text text-anchor="start" x="957.169" y="-103.196" font-family="Times Roman,serif" font-size="14.00">_layout</text>
</g>
<!-- ApplicationController&#45;&gt;AdminController -->
<g id="edge32" class="edge"><title>ApplicationController&#45;&gt;AdminController</title>
<path fill="none" stroke="black" d="M608.651,-603.798C635.253,-574.826 670.221,-542.116 707.816,-521.326 776.808,-483.176 820.542,-530.46 880,-478.691 964.766,-404.888 996.414,-269.798 1007.73,-196.093"/>
</g>
<!-- JobsController -->
<g id="node19" class="node"><title>JobsController</title>
<polyline fill="none" stroke="black" points="62.5687,-704.312 151.569,-704.312 "/>
<path fill="none" stroke="black" d="M151.569,-704.312C157.569,-704.312 163.569,-710.312 163.569,-716.312"/>
<polyline fill="none" stroke="black" points="163.569,-716.312 163.569,-902.312 "/>
<path fill="none" stroke="black" d="M163.569,-902.312C163.569,-908.312 157.569,-914.312 151.569,-914.312"/>
<polyline fill="none" stroke="black" points="151.569,-914.312 62.5687,-914.312 "/>
<path fill="none" stroke="black" d="M62.5687,-914.312C56.5687,-914.312 50.5687,-908.312 50.5687,-902.312"/>
<polyline fill="none" stroke="black" points="50.5687,-902.312 50.5687,-716.312 "/>
<path fill="none" stroke="black" d="M50.5687,-716.312C50.5687,-710.312 56.5687,-704.312 62.5687,-704.312"/>
<text text-anchor="middle" x="107.069" y="-897.712" font-family="Times Roman,serif" font-size="14.00">JobsController</text>
<polyline fill="none" stroke="black" points="50.5687,-888.312 163.569,-888.312 "/>
<text text-anchor="start" x="58.5687" y="-871.712" font-family="Times Roman,serif" font-size="14.00">create</text>
<text text-anchor="start" x="58.5687" y="-853.712" font-family="Times Roman,serif" font-size="14.00">destroy</text>
<text text-anchor="start" x="58.5687" y="-835.712" font-family="Times Roman,serif" font-size="14.00">edit</text>
<text text-anchor="start" x="58.5687" y="-817.712" font-family="Times Roman,serif" font-size="14.00">index</text>
<text text-anchor="start" x="58.5687" y="-799.712" font-family="Times Roman,serif" font-size="14.00">new</text>
<text text-anchor="start" x="58.5687" y="-781.712" font-family="Times Roman,serif" font-size="14.00">show</text>
<text text-anchor="start" x="58.5687" y="-763.712" font-family="Times Roman,serif" font-size="14.00">update</text>
<polyline fill="none" stroke="black" points="50.5687,-754.312 163.569,-754.312 "/>
<polyline fill="none" stroke="black" points="50.5687,-730.312 163.569,-730.312 "/>
<text text-anchor="start" x="58.5687" y="-713.712" font-family="Times Roman,serif" font-size="14.00">_layout</text>
</g>
<!-- ApplicationController&#45;&gt;JobsController -->
<g id="edge34" class="edge"><title>ApplicationController&#45;&gt;JobsController</title>
<path fill="none" stroke="black" d="M449.719,-726.145C435.807,-732.65 421.567,-738.717 407.661,-743.751 325.293,-773.563 225.096,-792.085 163.717,-801.547"/>
</g>
<!-- SituationsController -->
<g id="node20" class="node"><title>SituationsController</title>
<polyline fill="none" stroke="black" points="261.461,-530.551 392.461,-530.551 "/>
<path fill="none" stroke="black" d="M392.461,-530.551C398.461,-530.551 404.461,-536.551 404.461,-542.551"/>
<polyline fill="none" stroke="black" points="404.461,-542.551 404.461,-728.551 "/>
<path fill="none" stroke="black" d="M404.461,-728.551C404.461,-734.551 398.461,-740.551 392.461,-740.551"/>
<polyline fill="none" stroke="black" points="392.461,-740.551 261.461,-740.551 "/>
<path fill="none" stroke="black" d="M261.461,-740.551C255.461,-740.551 249.461,-734.551 249.461,-728.551"/>
<polyline fill="none" stroke="black" points="249.461,-728.551 249.461,-542.551 "/>
<path fill="none" stroke="black" d="M249.461,-542.551C249.461,-536.551 255.461,-530.551 261.461,-530.551"/>
<text text-anchor="middle" x="326.961" y="-723.951" font-family="Times Roman,serif" font-size="14.00">SituationsController</text>
<polyline fill="none" stroke="black" points="249.461,-714.551 404.461,-714.551 "/>
<text text-anchor="start" x="257.461" y="-697.951" font-family="Times Roman,serif" font-size="14.00">create</text>
<text text-anchor="start" x="257.461" y="-679.951" font-family="Times Roman,serif" font-size="14.00">destroy</text>
<text text-anchor="start" x="257.461" y="-661.951" font-family="Times Roman,serif" font-size="14.00">edit</text>
<text text-anchor="start" x="257.461" y="-643.951" font-family="Times Roman,serif" font-size="14.00">index</text>
<text text-anchor="start" x="257.461" y="-625.951" font-family="Times Roman,serif" font-size="14.00">new</text>
<text text-anchor="start" x="257.461" y="-607.951" font-family="Times Roman,serif" font-size="14.00">show</text>
<text text-anchor="start" x="257.461" y="-589.951" font-family="Times Roman,serif" font-size="14.00">update</text>
<polyline fill="none" stroke="black" points="249.461,-580.551 404.461,-580.551 "/>
<polyline fill="none" stroke="black" points="249.461,-556.551 404.461,-556.551 "/>
<text text-anchor="start" x="257.461" y="-539.951" font-family="Times Roman,serif" font-size="14.00">_layout</text>
</g>
<!-- ApplicationController&#45;&gt;SituationsController -->
<g id="edge36" class="edge"><title>ApplicationController&#45;&gt;SituationsController</title>
<path fill="none" stroke="black" d="M439.483,-649.896C427.612,-648.383 415.788,-646.875 404.51,-645.437"/>
</g>
<!-- TypesController -->
<g id="node21" class="node"><title>TypesController</title>
<polyline fill="none" stroke="black" points="13,-1007.85 236,-1007.85 "/>
<path fill="none" stroke="black" d="M236,-1007.85C242,-1007.85 248,-1013.85 248,-1019.85"/>
<polyline fill="none" stroke="black" points="248,-1019.85 248,-1223.85 "/>
<path fill="none" stroke="black" d="M248,-1223.85C248,-1229.85 242,-1235.85 236,-1235.85"/>
<polyline fill="none" stroke="black" points="236,-1235.85 13,-1235.85 "/>
<path fill="none" stroke="black" d="M13,-1235.85C7,-1235.85 1,-1229.85 1,-1223.85"/>
<polyline fill="none" stroke="black" points="1,-1223.85 1,-1019.85 "/>
<path fill="none" stroke="black" d="M1,-1019.85C1,-1013.85 7,-1007.85 13,-1007.85"/>
<text text-anchor="middle" x="124.5" y="-1219.25" font-family="Times Roman,serif" font-size="14.00">TypesController</text>
<polyline fill="none" stroke="black" points="1,-1209.85 248,-1209.85 "/>
<text text-anchor="start" x="9" y="-1193.25" font-family="Times Roman,serif" font-size="14.00">_one_time_conditions_valid_271?</text>
<text text-anchor="start" x="9" y="-1175.25" font-family="Times Roman,serif" font-size="14.00">create</text>
<text text-anchor="start" x="9" y="-1157.25" font-family="Times Roman,serif" font-size="14.00">destroy</text>
<text text-anchor="start" x="9" y="-1139.25" font-family="Times Roman,serif" font-size="14.00">edit</text>
<text text-anchor="start" x="9" y="-1121.25" font-family="Times Roman,serif" font-size="14.00">index</text>
<text text-anchor="start" x="9" y="-1103.25" font-family="Times Roman,serif" font-size="14.00">new</text>
<text text-anchor="start" x="9" y="-1085.25" font-family="Times Roman,serif" font-size="14.00">show</text>
<text text-anchor="start" x="9" y="-1067.25" font-family="Times Roman,serif" font-size="14.00">update</text>
<polyline fill="none" stroke="black" points="1,-1057.85 248,-1057.85 "/>
<polyline fill="none" stroke="black" points="1,-1033.85 248,-1033.85 "/>
<text text-anchor="start" x="9" y="-1017.25" font-family="Times Roman,serif" font-size="14.00">_layout</text>
</g>
<!-- ApplicationController&#45;&gt;TypesController -->
<g id="edge38" class="edge"><title>ApplicationController&#45;&gt;TypesController</title>
<path fill="none" stroke="black" d="M445.261,-726.158C432.683,-732.33 419.973,-738.316 407.661,-743.751 362.953,-763.482 341.236,-749.46 304.429,-781.607 235.857,-841.498 189.309,-934.018 160.765,-1007.47"/>
</g>
</g>
</svg>
