<?xml version="1.0" encoding="UTF-8" standalone="no"?>
<!DOCTYPE svg PUBLIC "-//W3C//DTD SVG 1.1//EN"
 "http://www.w3.org/Graphics/SVG/1.1/DTD/svg11.dtd">
<!-- Generated by graphviz version 2.26.3 (20100126.1600)
 -->
<!-- Title: controllers_diagram Pages: 1 -->
<svg width="1455pt" height="796pt"
 viewBox="0.00 0.00 1454.92 796.14" xmlns="http://www.w3.org/2000/svg" xmlns:xlink="http://www.w3.org/1999/xlink">
<g id="graph1" class="graph" transform="scale(1 1) rotate(0) translate(4 792.141)">
<title>controllers_diagram</title>
<polygon fill="white" stroke="white" points="-4,5 -4,-792.141 1451.92,-792.141 1451.92,5 -4,5"/>
<!-- _diagram_info -->
<g id="node1" class="node"><title>_diagram_info</title>
<text text-anchor="start" x="1073" y="-78.3" font-family="Times Roman,serif" font-size="13.00">Controllers diagram</text>
<text text-anchor="start" x="1073" y="-61.3" font-family="Times Roman,serif" font-size="13.00">Date: Sep 08 2013 &#45; 18:47</text>
<text text-anchor="start" x="1073" y="-44.3" font-family="Times Roman,serif" font-size="13.00">Migration version: 20130908214222</text>
<text text-anchor="start" x="1073" y="-27.3" font-family="Times Roman,serif" font-size="13.00">Generated by RailRoady 1.1.0</text>
<text text-anchor="start" x="1073" y="-10.3" font-family="Times Roman,serif" font-size="13.00">http://railroady.prestonlee.com</text>
</g>
<!-- TreatmentsController -->
<g id="node2" class="node"><title>TreatmentsController</title>
<ellipse fill="none" stroke="black" cx="121.544" cy="-207.745" rx="115.966" ry="18.3848"/>
<text text-anchor="middle" x="121.544" y="-204.145" font-family="Times Roman,serif" font-size="14.00">TreatmentsController</text>
</g>
<!-- CompaniesController -->
<g id="node3" class="node"><title>CompaniesController</title>
<ellipse fill="none" stroke="black" cx="1067.77" cy="-491.316" rx="113.844" ry="18.3848"/>
<text text-anchor="middle" x="1067.77" y="-487.716" font-family="Times Roman,serif" font-size="14.00">CompaniesController</text>
</g>
<!-- LocalitiesController -->
<g id="node4" class="node"><title>LocalitiesController</title>
<ellipse fill="none" stroke="black" cx="610.839" cy="-185.633" rx="104.86" ry="18.3848"/>
<text text-anchor="middle" x="610.839" y="-182.033" font-family="Times Roman,serif" font-size="14.00">LocalitiesController</text>
</g>
<!-- InternshipsController -->
<g id="node5" class="node"><title>InternshipsController</title>
<ellipse fill="none" stroke="black" cx="710.625" cy="-768.641" rx="114.759" ry="18.3848"/>
<text text-anchor="middle" x="710.625" y="-765.041" font-family="Times Roman,serif" font-size="14.00">InternshipsController</text>
</g>
<!-- SessionsController -->
<g id="node6" class="node"><title>SessionsController</title>
<ellipse fill="none" stroke="black" cx="829.578" cy="-572.495" rx="101.823" ry="18.3848"/>
<text text-anchor="middle" x="829.578" y="-568.895" font-family="Times Roman,serif" font-size="14.00">SessionsController</text>
</g>
<!-- SkillsController -->
<g id="node7" class="node"><title>SkillsController</title>
<ellipse fill="none" stroke="black" cx="605.346" cy="-581.08" rx="85.0596" ry="18.3848"/>
<text text-anchor="middle" x="605.346" y="-577.48" font-family="Times Roman,serif" font-size="14.00">SkillsController</text>
</g>
<!-- LandingController -->
<g id="node8" class="node"><title>LandingController</title>
<ellipse fill="none" stroke="black" cx="398.155" cy="-199.797" rx="98.9949" ry="18.3848"/>
<text text-anchor="middle" x="398.155" y="-196.197" font-family="Times Roman,serif" font-size="14.00">LandingController</text>
</g>
<!-- TypesController -->
<g id="node9" class="node"><title>TypesController</title>
<ellipse fill="none" stroke="black" cx="1324.67" cy="-203.357" rx="87.1802" ry="18.3848"/>
<text text-anchor="middle" x="1324.67" y="-199.757" font-family="Times Roman,serif" font-size="14.00">TypesController</text>
</g>
<!-- InternshipsTasksController -->
<g id="node10" class="node"><title>InternshipsTasksController</title>
<ellipse fill="none" stroke="black" cx="427.574" cy="-450.877" rx="140.922" ry="18.3848"/>
<text text-anchor="middle" x="427.574" y="-447.277" font-family="Times Roman,serif" font-size="14.00">InternshipsTasksController</text>
</g>
<!-- ProvincesController -->
<g id="node11" class="node"><title>ProvincesController</title>
<ellipse fill="none" stroke="black" cx="822.068" cy="-171.5" rx="106.98" ry="18.3848"/>
<text text-anchor="middle" x="822.068" y="-167.9" font-family="Times Roman,serif" font-size="14.00">ProvincesController</text>
</g>
<!-- TasksController -->
<g id="node12" class="node"><title>TasksController</title>
<ellipse fill="none" stroke="black" cx="877.765" cy="-378.735" rx="85.7684" ry="18.3848"/>
<text text-anchor="middle" x="877.765" y="-375.135" font-family="Times Roman,serif" font-size="14.00">TasksController</text>
</g>
<!-- InternshipsUsersController -->
<g id="node13" class="node"><title>InternshipsUsersController</title>
<ellipse fill="none" stroke="black" cx="143" cy="-470.282" rx="142.128" ry="18.3848"/>
<text text-anchor="middle" x="143" y="-466.682" font-family="Times Roman,serif" font-size="14.00">InternshipsUsersController</text>
</g>
<!-- ContractsController -->
<g id="node14" class="node"><title>ContractsController</title>
<ellipse fill="none" stroke="black" cx="1338.42" cy="-470.414" rx="106.98" ry="18.3848"/>
<text text-anchor="middle" x="1338.42" y="-466.814" font-family="Times Roman,serif" font-size="14.00">ContractsController</text>
</g>
<!-- AdminController -->
<g id="node15" class="node"><title>AdminController</title>
<ellipse fill="none" stroke="black" cx="1306.3" cy="-732.929" rx="91.2168" ry="18.3848"/>
<text text-anchor="middle" x="1306.3" y="-729.329" font-family="Times Roman,serif" font-size="14.00">AdminController</text>
</g>
<!-- UsersController -->
<g id="node16" class="node"><title>UsersController</title>
<ellipse fill="none" stroke="black" cx="991.487" cy="-746.439" rx="87.1802" ry="18.3848"/>
<text text-anchor="middle" x="991.487" y="-742.839" font-family="Times Roman,serif" font-size="14.00">UsersController</text>
</g>
<!-- ApplicationController -->
<g id="node17" class="node"><title>ApplicationController</title>
<ellipse fill="none" stroke="black" cx="667.008" cy="-393.963" rx="113.844" ry="18.3848"/>
<text text-anchor="middle" x="667.008" y="-390.363" font-family="Times Roman,serif" font-size="14.00">ApplicationController</text>
</g>
<!-- ApplicationController&#45;&gt;TreatmentsController -->
<g id="edge2" class="edge"><title>ApplicationController&#45;&gt;TreatmentsController</title>
<path fill="none" stroke="black" d="M617.64,-377.109C513.921,-341.7 274.421,-259.937 170.8,-224.561"/>
</g>
<!-- ApplicationController&#45;&gt;CompaniesController -->
<g id="edge4" class="edge"><title>ApplicationController&#45;&gt;CompaniesController</title>
<path fill="none" stroke="black" d="M730.51,-409.389C805.442,-427.591 929.289,-457.676 1004.23,-475.882"/>
</g>
<!-- ApplicationController&#45;&gt;LocalitiesController -->
<g id="edge6" class="edge"><title>ApplicationController&#45;&gt;LocalitiesController</title>
<path fill="none" stroke="black" d="M662.023,-375.475C651.391,-336.04 626.587,-244.041 615.893,-204.379"/>
</g>
<!-- ApplicationController&#45;&gt;InternshipsController -->
<g id="edge8" class="edge"><title>ApplicationController&#45;&gt;InternshipsController</title>
<path fill="none" stroke="black" d="M669.69,-412.537C674.495,-446.141 684.743,-519.288 691.945,-581.168 699.13,-642.898 705.94,-716.265 708.973,-749.993"/>
</g>
<!-- ApplicationController&#45;&gt;SessionsController -->
<g id="edge10" class="edge"><title>ApplicationController&#45;&gt;SessionsController</title>
<path fill="none" stroke="black" d="M683.794,-412.396C715.027,-446.697 781.72,-519.938 812.884,-554.162"/>
</g>
<!-- ApplicationController&#45;&gt;SkillsController -->
<g id="edge12" class="edge"><title>ApplicationController&#45;&gt;SkillsController</title>
<path fill="none" stroke="black" d="M660.87,-412.588C649.051,-448.455 623.259,-526.723 611.459,-562.53"/>
</g>
<!-- ApplicationController&#45;&gt;LandingController -->
<g id="edge14" class="edge"><title>ApplicationController&#45;&gt;LandingController</title>
<path fill="none" stroke="black" d="M641.715,-375.696C590.343,-338.595 474.335,-254.815 423.185,-217.874"/>
</g>
<!-- ApplicationController&#45;&gt;TypesController -->
<g id="edge16" class="edge"><title>ApplicationController&#45;&gt;TypesController</title>
<path fill="none" stroke="black" d="M722.797,-377.794C848.254,-341.434 1151.15,-253.648 1272.81,-218.388"/>
</g>
<!-- ApplicationController&#45;&gt;InternshipsTasksController -->
<g id="edge18" class="edge"><title>ApplicationController&#45;&gt;InternshipsTasksController</title>
<path fill="none" stroke="black" d="M602.529,-409.289C569.564,-417.125 529.442,-426.662 495.94,-434.626"/>
</g>
<!-- ApplicationController&#45;&gt;ProvincesController -->
<g id="edge20" class="edge"><title>ApplicationController&#45;&gt;ProvincesController</title>
<path fill="none" stroke="black" d="M679.962,-375.378C709.222,-333.399 780.139,-231.655 809.26,-189.875"/>
</g>
<!-- ApplicationController&#45;&gt;TasksController -->
<g id="edge22" class="edge"><title>ApplicationController&#45;&gt;TasksController</title>
<path fill="none" stroke="black" d="M771.46,-386.416C779.741,-385.817 788.029,-385.219 796.121,-384.634"/>
</g>
<!-- ApplicationController&#45;&gt;InternshipsUsersController -->
<g id="edge24" class="edge"><title>ApplicationController&#45;&gt;InternshipsUsersController</title>
<path fill="none" stroke="black" d="M572.423,-404.392C504.211,-412.263 410.01,-423.852 327.525,-436.554 292.763,-441.907 254.49,-448.747 221.855,-454.865"/>
</g>
<!-- ApplicationController&#45;&gt;ContractsController -->
<g id="edge26" class="edge"><title>ApplicationController&#45;&gt;ContractsController</title>
<path fill="none" stroke="black" d="M760.365,-404.593C889.632,-419.312 1121.55,-445.72 1248.8,-460.21"/>
</g>
<!-- ApplicationController&#45;&gt;AdminController -->
<g id="edge28" class="edge"><title>ApplicationController&#45;&gt;AdminController</title>
<path fill="none" stroke="black" d="M700.479,-411.71C811.08,-470.353 1163.99,-657.474 1273.54,-715.56"/>
</g>
<!-- ApplicationController&#45;&gt;UsersController -->
<g id="edge30" class="edge"><title>ApplicationController&#45;&gt;UsersController</title>
<path fill="none" stroke="black" d="M708.365,-411.221C766.701,-437.6 872.761,-493.362 933.177,-572.558 970.062,-620.909 984.366,-693.903 989.252,-727.853"/>
</g>
<!-- JobsController -->
<g id="node18" class="node"><title>JobsController</title>
<ellipse fill="none" stroke="black" cx="1050.36" cy="-204.737" rx="79.9031" ry="18.3848"/>
<text text-anchor="middle" x="1050.36" y="-201.137" font-family="Times Roman,serif" font-size="14.00">JobsController</text>
</g>
<!-- ApplicationController&#45;&gt;JobsController -->
<g id="edge32" class="edge"><title>ApplicationController&#45;&gt;JobsController</title>
<path fill="none" stroke="black" d="M702.729,-376.331C776.335,-339.998 944.038,-257.219 1016.25,-221.575"/>
</g>
<!-- SituationsController -->
<g id="node19" class="node"><title>SituationsController</title>
<ellipse fill="none" stroke="black" cx="429.239" cy="-732.839" rx="109.101" ry="18.3848"/>
<text text-anchor="middle" x="429.239" y="-729.239" font-family="Times Roman,serif" font-size="14.00">SituationsController</text>
</g>
<!-- ApplicationController&#45;&gt;SituationsController -->
<g id="edge34" class="edge"><title>ApplicationController&#45;&gt;SituationsController</title>
<path fill="none" stroke="black" d="M650.963,-412.421C622.753,-445.252 563.06,-516.423 518.747,-580.992 487.059,-627.165 454.936,-684.919 439.193,-714.102"/>
</g>
<!-- StudiesController -->
<g id="node20" class="node"><title>StudiesController</title>
<ellipse fill="none" stroke="black" cx="132.017" cy="-726.779" rx="96.8736" ry="18.3848"/>
<text text-anchor="middle" x="132.017" y="-723.179" font-family="Times Roman,serif" font-size="14.00">StudiesController</text>
</g>
<!-- ApplicationController&#45;&gt;StudiesController -->
<g id="edge36" class="edge"><title>ApplicationController&#45;&gt;StudiesController</title>
<path fill="none" stroke="black" d="M637.865,-412.093C544.431,-470.218 253.081,-651.466 160.536,-709.038"/>
</g>
</g>
</svg>
