<?xml version="1.0" encoding="UTF-8" standalone="no"?>
<!DOCTYPE svg PUBLIC "-//W3C//DTD SVG 1.1//EN"
 "http://www.w3.org/Graphics/SVG/1.1/DTD/svg11.dtd">
<!-- Generated by graphviz version 2.38.0 (20140413.2041)
 -->
<!-- Title: controllers_diagram Pages: 1 -->
<svg width="1754pt" height="1707pt"
 viewBox="0.00 0.00 1753.81 1706.53" xmlns="http://www.w3.org/2000/svg" xmlns:xlink="http://www.w3.org/1999/xlink">
<g id="graph0" class="graph" transform="scale(1 1) rotate(0) translate(772.313 806.624)">
<title>controllers_diagram</title>
<polygon fill="white" stroke="none" points="-772.313,899.907 -772.313,-806.624 981.5,-806.624 981.5,899.907 -772.313,899.907"/>
<!-- _diagram_info -->
<g id="node1" class="node"><title>_diagram_info</title>
<text text-anchor="start" x="776.5" y="704.4" font-family="Times,serif" font-size="13.00">Controllers diagram</text>
<text text-anchor="start" x="776.5" y="718.4" font-family="Times,serif" font-size="13.00">Date: Mar 03 2015 &#45; 09:30</text>
<text text-anchor="start" x="776.5" y="732.4" font-family="Times,serif" font-size="13.00">Migration version: 20150301221325</text>
<text text-anchor="start" x="776.5" y="746.4" font-family="Times,serif" font-size="13.00">Generated by RailRoady 1.1.0</text>
<text text-anchor="start" x="776.5" y="760.4" font-family="Times,serif" font-size="13.00">http://railroady.prestonlee.com</text>
</g>
<!-- ReconectarController -->
<g id="node2" class="node"><title>ReconectarController</title>
<path fill="none" stroke="black" d="M-741.527,225.521C-741.527,225.521 -628.527,225.521 -628.527,225.521 -622.527,225.521 -616.527,219.521 -616.527,213.521 -616.527,213.521 -616.527,129.521 -616.527,129.521 -616.527,123.521 -622.527,117.521 -628.527,117.521 -628.527,117.521 -741.527,117.521 -741.527,117.521 -747.527,117.521 -753.527,123.521 -753.527,129.521 -753.527,129.521 -753.527,213.521 -753.527,213.521 -753.527,219.521 -747.527,225.521 -741.527,225.521"/>
<text text-anchor="middle" x="-685.027" y="132.721" font-family="Times,serif" font-size="14.00">ReconectarController</text>
<polyline fill="none" stroke="black" points="-753.527,140.521 -616.527,140.521 "/>
<text text-anchor="start" x="-745.527" y="155.721" font-family="Times,serif" font-size="14.00">reconectar_form</text>
<text text-anchor="start" x="-745.527" y="170.721" font-family="Times,serif" font-size="14.00">reconectar_response</text>
<polyline fill="none" stroke="black" points="-753.527,178.521 -616.527,178.521 "/>
<polyline fill="none" stroke="black" points="-753.527,202.521 -616.527,202.521 "/>
<text text-anchor="start" x="-745.527" y="217.721" font-family="Times,serif" font-size="14.00">_layout</text>
</g>
<!-- TreatmentsController -->
<g id="node3" class="node"><title>TreatmentsController</title>
<path fill="none" stroke="black" d="M503.61,130.292C503.61,130.292 681.61,130.292 681.61,130.292 687.61,130.292 693.61,124.292 693.61,118.292 693.61,118.292 693.61,-55.7076 693.61,-55.7076 693.61,-61.7076 687.61,-67.7076 681.61,-67.7076 681.61,-67.7076 503.61,-67.7076 503.61,-67.7076 497.61,-67.7076 491.61,-61.7076 491.61,-55.7076 491.61,-55.7076 491.61,118.292 491.61,118.292 491.61,124.292 497.61,130.292 503.61,130.292"/>
<text text-anchor="middle" x="592.61" y="-52.5076" font-family="Times,serif" font-size="14.00">TreatmentsController</text>
<polyline fill="none" stroke="black" points="491.61,-44.7076 693.61,-44.7076 "/>
<text text-anchor="start" x="499.61" y="-29.5076" font-family="Times,serif" font-size="14.00">_one_time_conditions_valid_38?</text>
<text text-anchor="start" x="499.61" y="-14.5076" font-family="Times,serif" font-size="14.00">create</text>
<text text-anchor="start" x="499.61" y="0.492426" font-family="Times,serif" font-size="14.00">destroy</text>
<text text-anchor="start" x="499.61" y="15.4924" font-family="Times,serif" font-size="14.00">edit</text>
<text text-anchor="start" x="499.61" y="30.4924" font-family="Times,serif" font-size="14.00">index</text>
<text text-anchor="start" x="499.61" y="45.4924" font-family="Times,serif" font-size="14.00">new</text>
<text text-anchor="start" x="499.61" y="60.4924" font-family="Times,serif" font-size="14.00">show</text>
<text text-anchor="start" x="499.61" y="75.4924" font-family="Times,serif" font-size="14.00">update</text>
<polyline fill="none" stroke="black" points="491.61,83.2924 693.61,83.2924 "/>
<polyline fill="none" stroke="black" points="491.61,107.292 693.61,107.292 "/>
<text text-anchor="start" x="499.61" y="122.492" font-family="Times,serif" font-size="14.00">_layout</text>
</g>
<!-- TasksController -->
<g id="node4" class="node"><title>TasksController</title>
<path fill="none" stroke="black" d="M-348.657,889.266C-348.657,889.266 -170.657,889.266 -170.657,889.266 -164.657,889.266 -158.657,883.266 -158.657,877.266 -158.657,877.266 -158.657,703.266 -158.657,703.266 -158.657,697.266 -164.657,691.266 -170.657,691.266 -170.657,691.266 -348.657,691.266 -348.657,691.266 -354.657,691.266 -360.657,697.266 -360.657,703.266 -360.657,703.266 -360.657,877.266 -360.657,877.266 -360.657,883.266 -354.657,889.266 -348.657,889.266"/>
<text text-anchor="middle" x="-259.657" y="706.466" font-family="Times,serif" font-size="14.00">TasksController</text>
<polyline fill="none" stroke="black" points="-360.657,714.266 -158.657,714.266 "/>
<text text-anchor="start" x="-352.657" y="729.466" font-family="Times,serif" font-size="14.00">_one_time_conditions_valid_50?</text>
<text text-anchor="start" x="-352.657" y="744.466" font-family="Times,serif" font-size="14.00">create</text>
<text text-anchor="start" x="-352.657" y="759.466" font-family="Times,serif" font-size="14.00">destroy</text>
<text text-anchor="start" x="-352.657" y="774.466" font-family="Times,serif" font-size="14.00">edit</text>
<text text-anchor="start" x="-352.657" y="789.466" font-family="Times,serif" font-size="14.00">index</text>
<text text-anchor="start" x="-352.657" y="804.466" font-family="Times,serif" font-size="14.00">new</text>
<text text-anchor="start" x="-352.657" y="819.466" font-family="Times,serif" font-size="14.00">show</text>
<text text-anchor="start" x="-352.657" y="834.466" font-family="Times,serif" font-size="14.00">update</text>
<polyline fill="none" stroke="black" points="-360.657,842.266 -158.657,842.266 "/>
<polyline fill="none" stroke="black" points="-360.657,866.266 -158.657,866.266 "/>
<text text-anchor="start" x="-352.657" y="881.466" font-family="Times,serif" font-size="14.00">_layout</text>
</g>
<!-- ProvincesController -->
<g id="node5" class="node"><title>ProvincesController</title>
<path fill="none" stroke="black" d="M-199.073,-604.124C-199.073,-604.124 -21.0731,-604.124 -21.0731,-604.124 -15.0731,-604.124 -9.07308,-610.124 -9.07308,-616.124 -9.07308,-616.124 -9.07308,-790.124 -9.07308,-790.124 -9.07308,-796.124 -15.0731,-802.124 -21.0731,-802.124 -21.0731,-802.124 -199.073,-802.124 -199.073,-802.124 -205.073,-802.124 -211.073,-796.124 -211.073,-790.124 -211.073,-790.124 -211.073,-616.124 -211.073,-616.124 -211.073,-610.124 -205.073,-604.124 -199.073,-604.124"/>
<text text-anchor="middle" x="-110.073" y="-786.924" font-family="Times,serif" font-size="14.00">ProvincesController</text>
<polyline fill="none" stroke="black" points="-211.073,-779.124 -9.07308,-779.124 "/>
<text text-anchor="start" x="-203.073" y="-763.924" font-family="Times,serif" font-size="14.00">_one_time_conditions_valid_64?</text>
<text text-anchor="start" x="-203.073" y="-748.924" font-family="Times,serif" font-size="14.00">create</text>
<text text-anchor="start" x="-203.073" y="-733.924" font-family="Times,serif" font-size="14.00">destroy</text>
<text text-anchor="start" x="-203.073" y="-718.924" font-family="Times,serif" font-size="14.00">edit</text>
<text text-anchor="start" x="-203.073" y="-703.924" font-family="Times,serif" font-size="14.00">index</text>
<text text-anchor="start" x="-203.073" y="-688.924" font-family="Times,serif" font-size="14.00">new</text>
<text text-anchor="start" x="-203.073" y="-673.924" font-family="Times,serif" font-size="14.00">show</text>
<text text-anchor="start" x="-203.073" y="-658.924" font-family="Times,serif" font-size="14.00">update</text>
<polyline fill="none" stroke="black" points="-211.073,-651.124 -9.07308,-651.124 "/>
<polyline fill="none" stroke="black" points="-211.073,-627.124 -9.07308,-627.124 "/>
<text text-anchor="start" x="-203.073" y="-611.924" font-family="Times,serif" font-size="14.00">_layout</text>
</g>
<!-- SessionsController -->
<g id="node6" class="node"><title>SessionsController</title>
<path fill="none" stroke="black" d="M323.73,-284.921C323.73,-284.921 421.73,-284.921 421.73,-284.921 427.73,-284.921 433.73,-290.921 433.73,-296.921 433.73,-296.921 433.73,-395.921 433.73,-395.921 433.73,-401.921 427.73,-407.921 421.73,-407.921 421.73,-407.921 323.73,-407.921 323.73,-407.921 317.73,-407.921 311.73,-401.921 311.73,-395.921 311.73,-395.921 311.73,-296.921 311.73,-296.921 311.73,-290.921 317.73,-284.921 323.73,-284.921"/>
<text text-anchor="middle" x="372.73" y="-392.721" font-family="Times,serif" font-size="14.00">SessionsController</text>
<polyline fill="none" stroke="black" points="311.73,-384.921 433.73,-384.921 "/>
<text text-anchor="start" x="319.73" y="-369.721" font-family="Times,serif" font-size="14.00">create</text>
<text text-anchor="start" x="319.73" y="-354.721" font-family="Times,serif" font-size="14.00">destroy</text>
<text text-anchor="start" x="319.73" y="-339.721" font-family="Times,serif" font-size="14.00">new</text>
<polyline fill="none" stroke="black" points="311.73,-331.921 433.73,-331.921 "/>
<polyline fill="none" stroke="black" points="311.73,-307.921 433.73,-307.921 "/>
<text text-anchor="start" x="319.73" y="-292.721" font-family="Times,serif" font-size="14.00">_layout</text>
</g>
<!-- InternshipsUsersController -->
<g id="node7" class="node"><title>InternshipsUsersController</title>
<path fill="none" stroke="black" d="M-216.893,-290.565C-216.893,-290.565 -73.8929,-290.565 -73.8929,-290.565 -67.8929,-290.565 -61.8929,-296.565 -61.8929,-302.565 -61.8929,-302.565 -61.8929,-461.565 -61.8929,-461.565 -61.8929,-467.565 -67.8929,-473.565 -73.8929,-473.565 -73.8929,-473.565 -216.893,-473.565 -216.893,-473.565 -222.893,-473.565 -228.893,-467.565 -228.893,-461.565 -228.893,-461.565 -228.893,-302.565 -228.893,-302.565 -228.893,-296.565 -222.893,-290.565 -216.893,-290.565"/>
<text text-anchor="middle" x="-145.393" y="-458.365" font-family="Times,serif" font-size="14.00">InternshipsUsersController</text>
<polyline fill="none" stroke="black" points="-228.893,-450.565 -61.8929,-450.565 "/>
<text text-anchor="start" x="-220.893" y="-435.365" font-family="Times,serif" font-size="14.00">create</text>
<text text-anchor="start" x="-220.893" y="-420.365" font-family="Times,serif" font-size="14.00">destroy</text>
<text text-anchor="start" x="-220.893" y="-405.365" font-family="Times,serif" font-size="14.00">edit</text>
<text text-anchor="start" x="-220.893" y="-390.365" font-family="Times,serif" font-size="14.00">index</text>
<text text-anchor="start" x="-220.893" y="-375.365" font-family="Times,serif" font-size="14.00">new</text>
<text text-anchor="start" x="-220.893" y="-360.365" font-family="Times,serif" font-size="14.00">show</text>
<text text-anchor="start" x="-220.893" y="-345.365" font-family="Times,serif" font-size="14.00">update</text>
<polyline fill="none" stroke="black" points="-228.893,-337.565 -61.8929,-337.565 "/>
<polyline fill="none" stroke="black" points="-228.893,-313.565 -61.8929,-313.565 "/>
<text text-anchor="start" x="-220.893" y="-298.365" font-family="Times,serif" font-size="14.00">_layout</text>
</g>
<!-- ContractsController -->
<g id="node8" class="node"><title>ContractsController</title>
<path fill="none" stroke="black" d="M-725.636,602.723C-725.636,602.723 -547.636,602.723 -547.636,602.723 -541.636,602.723 -535.636,596.723 -535.636,590.723 -535.636,590.723 -535.636,356.723 -535.636,356.723 -535.636,350.723 -541.636,344.723 -547.636,344.723 -547.636,344.723 -725.636,344.723 -725.636,344.723 -731.636,344.723 -737.636,350.723 -737.636,356.723 -737.636,356.723 -737.636,590.723 -737.636,590.723 -737.636,596.723 -731.636,602.723 -725.636,602.723"/>
<text text-anchor="middle" x="-636.636" y="359.923" font-family="Times,serif" font-size="14.00">ContractsController</text>
<polyline fill="none" stroke="black" points="-737.636,367.723 -535.636,367.723 "/>
<text text-anchor="start" x="-729.636" y="382.923" font-family="Times,serif" font-size="14.00">_one_time_conditions_valid_70?</text>
<text text-anchor="start" x="-729.636" y="397.923" font-family="Times,serif" font-size="14.00">cm</text>
<text text-anchor="start" x="-729.636" y="412.923" font-family="Times,serif" font-size="14.00">create</text>
<text text-anchor="start" x="-729.636" y="427.923" font-family="Times,serif" font-size="14.00">destroy</text>
<text text-anchor="start" x="-729.636" y="442.923" font-family="Times,serif" font-size="14.00">edit</text>
<text text-anchor="start" x="-729.636" y="457.923" font-family="Times,serif" font-size="14.00">imprimirmeci</text>
<text text-anchor="start" x="-729.636" y="472.923" font-family="Times,serif" font-size="14.00">imprimirmecm</text>
<text text-anchor="start" x="-729.636" y="487.923" font-family="Times,serif" font-size="14.00">index</text>
<text text-anchor="start" x="-729.636" y="502.923" font-family="Times,serif" font-size="14.00">new</text>
<text text-anchor="start" x="-729.636" y="517.923" font-family="Times,serif" font-size="14.00">redactarme</text>
<text text-anchor="start" x="-729.636" y="532.923" font-family="Times,serif" font-size="14.00">show</text>
<text text-anchor="start" x="-729.636" y="547.923" font-family="Times,serif" font-size="14.00">update</text>
<polyline fill="none" stroke="black" points="-737.636,555.723 -535.636,555.723 "/>
<polyline fill="none" stroke="black" points="-737.636,579.723 -535.636,579.723 "/>
<text text-anchor="start" x="-729.636" y="594.923" font-family="Times,serif" font-size="14.00">_layout</text>
</g>
<!-- SkillsController -->
<g id="node9" class="node"><title>SkillsController</title>
<path fill="none" stroke="black" d="M653.757,404.255C653.757,404.255 831.757,404.255 831.757,404.255 837.757,404.255 843.757,398.255 843.757,392.255 843.757,392.255 843.757,218.255 843.757,218.255 843.757,212.255 837.757,206.255 831.757,206.255 831.757,206.255 653.757,206.255 653.757,206.255 647.757,206.255 641.757,212.255 641.757,218.255 641.757,218.255 641.757,392.255 641.757,392.255 641.757,398.255 647.757,404.255 653.757,404.255"/>
<text text-anchor="middle" x="742.757" y="221.455" font-family="Times,serif" font-size="14.00">SkillsController</text>
<polyline fill="none" stroke="black" points="641.757,229.255 843.757,229.255 "/>
<text text-anchor="start" x="649.757" y="244.455" font-family="Times,serif" font-size="14.00">_one_time_conditions_valid_72?</text>
<text text-anchor="start" x="649.757" y="259.455" font-family="Times,serif" font-size="14.00">create</text>
<text text-anchor="start" x="649.757" y="274.455" font-family="Times,serif" font-size="14.00">destroy</text>
<text text-anchor="start" x="649.757" y="289.455" font-family="Times,serif" font-size="14.00">edit</text>
<text text-anchor="start" x="649.757" y="304.455" font-family="Times,serif" font-size="14.00">index</text>
<text text-anchor="start" x="649.757" y="319.455" font-family="Times,serif" font-size="14.00">new</text>
<text text-anchor="start" x="649.757" y="334.455" font-family="Times,serif" font-size="14.00">show</text>
<text text-anchor="start" x="649.757" y="349.455" font-family="Times,serif" font-size="14.00">update</text>
<polyline fill="none" stroke="black" points="641.757,357.255 843.757,357.255 "/>
<polyline fill="none" stroke="black" points="641.757,381.255 843.757,381.255 "/>
<text text-anchor="start" x="649.757" y="396.455" font-family="Times,serif" font-size="14.00">_layout</text>
</g>
<!-- InternshipsTasksController -->
<g id="node10" class="node"><title>InternshipsTasksController</title>
<path fill="none" stroke="black" d="M-456.313,544.048C-456.313,544.048 -312.313,544.048 -312.313,544.048 -306.313,544.048 -300.313,538.048 -300.313,532.048 -300.313,532.048 -300.313,373.048 -300.313,373.048 -300.313,367.048 -306.313,361.048 -312.313,361.048 -312.313,361.048 -456.313,361.048 -456.313,361.048 -462.313,361.048 -468.313,367.048 -468.313,373.048 -468.313,373.048 -468.313,532.048 -468.313,532.048 -468.313,538.048 -462.313,544.048 -456.313,544.048"/>
<text text-anchor="middle" x="-384.313" y="376.248" font-family="Times,serif" font-size="14.00">InternshipsTasksController</text>
<polyline fill="none" stroke="black" points="-468.313,384.048 -300.313,384.048 "/>
<text text-anchor="start" x="-460.313" y="399.248" font-family="Times,serif" font-size="14.00">create</text>
<text text-anchor="start" x="-460.313" y="414.248" font-family="Times,serif" font-size="14.00">destroy</text>
<text text-anchor="start" x="-460.313" y="429.248" font-family="Times,serif" font-size="14.00">edit</text>
<text text-anchor="start" x="-460.313" y="444.248" font-family="Times,serif" font-size="14.00">index</text>
<text text-anchor="start" x="-460.313" y="459.248" font-family="Times,serif" font-size="14.00">new</text>
<text text-anchor="start" x="-460.313" y="474.248" font-family="Times,serif" font-size="14.00">show</text>
<text text-anchor="start" x="-460.313" y="489.248" font-family="Times,serif" font-size="14.00">update</text>
<polyline fill="none" stroke="black" points="-468.313,497.048 -300.313,497.048 "/>
<polyline fill="none" stroke="black" points="-468.313,521.048 -300.313,521.048 "/>
<text text-anchor="start" x="-460.313" y="536.248" font-family="Times,serif" font-size="14.00">_layout</text>
</g>
<!-- UsersController -->
<g id="node11" class="node"><title>UsersController</title>
<path fill="none" stroke="black" d="M117.512,895.407C117.512,895.407 302.512,895.407 302.512,895.407 308.512,895.407 314.512,889.407 314.512,883.407 314.512,883.407 314.512,709.407 314.512,709.407 314.512,703.407 308.512,697.407 302.512,697.407 302.512,697.407 117.512,697.407 117.512,697.407 111.512,697.407 105.512,703.407 105.512,709.407 105.512,709.407 105.512,883.407 105.512,883.407 105.512,889.407 111.512,895.407 117.512,895.407"/>
<text text-anchor="middle" x="210.012" y="712.607" font-family="Times,serif" font-size="14.00">UsersController</text>
<polyline fill="none" stroke="black" points="105.512,720.407 314.512,720.407 "/>
<text text-anchor="start" x="113.512" y="735.607" font-family="Times,serif" font-size="14.00">_one_time_conditions_valid_152?</text>
<text text-anchor="start" x="113.512" y="750.607" font-family="Times,serif" font-size="14.00">create</text>
<text text-anchor="start" x="113.512" y="765.607" font-family="Times,serif" font-size="14.00">destroy</text>
<text text-anchor="start" x="113.512" y="780.607" font-family="Times,serif" font-size="14.00">edit</text>
<text text-anchor="start" x="113.512" y="795.607" font-family="Times,serif" font-size="14.00">index</text>
<text text-anchor="start" x="113.512" y="810.607" font-family="Times,serif" font-size="14.00">new</text>
<text text-anchor="start" x="113.512" y="825.607" font-family="Times,serif" font-size="14.00">show</text>
<text text-anchor="start" x="113.512" y="840.607" font-family="Times,serif" font-size="14.00">update</text>
<polyline fill="none" stroke="black" points="105.512,848.407 314.512,848.407 "/>
<polyline fill="none" stroke="black" points="105.512,872.407 314.512,872.407 "/>
<text text-anchor="start" x="113.512" y="887.607" font-family="Times,serif" font-size="14.00">_layout</text>
</g>
<!-- CompaniesController -->
<g id="node12" class="node"><title>CompaniesController</title>
<path fill="none" stroke="black" d="M-138.636,725.009C-138.636,725.009 46.3641,725.009 46.3641,725.009 52.3641,725.009 58.3641,719.009 58.3641,713.009 58.3641,713.009 58.3641,539.009 58.3641,539.009 58.3641,533.009 52.3641,527.009 46.3641,527.009 46.3641,527.009 -138.636,527.009 -138.636,527.009 -144.636,527.009 -150.636,533.009 -150.636,539.009 -150.636,539.009 -150.636,713.009 -150.636,713.009 -150.636,719.009 -144.636,725.009 -138.636,725.009"/>
<text text-anchor="middle" x="-46.1359" y="542.209" font-family="Times,serif" font-size="14.00">CompaniesController</text>
<polyline fill="none" stroke="black" points="-150.636,550.009 58.3641,550.009 "/>
<text text-anchor="start" x="-142.636" y="565.209" font-family="Times,serif" font-size="14.00">_one_time_conditions_valid_186?</text>
<text text-anchor="start" x="-142.636" y="580.209" font-family="Times,serif" font-size="14.00">create</text>
<text text-anchor="start" x="-142.636" y="595.209" font-family="Times,serif" font-size="14.00">destroy</text>
<text text-anchor="start" x="-142.636" y="610.209" font-family="Times,serif" font-size="14.00">edit</text>
<text text-anchor="start" x="-142.636" y="625.209" font-family="Times,serif" font-size="14.00">index</text>
<text text-anchor="start" x="-142.636" y="640.209" font-family="Times,serif" font-size="14.00">new</text>
<text text-anchor="start" x="-142.636" y="655.209" font-family="Times,serif" font-size="14.00">show</text>
<text text-anchor="start" x="-142.636" y="670.209" font-family="Times,serif" font-size="14.00">update</text>
<polyline fill="none" stroke="black" points="-150.636,678.009 58.3641,678.009 "/>
<polyline fill="none" stroke="black" points="-150.636,702.009 58.3641,702.009 "/>
<text text-anchor="start" x="-142.636" y="717.209" font-family="Times,serif" font-size="14.00">_layout</text>
</g>
<!-- ApplicationController -->
<g id="node13" class="node"><title>ApplicationController</title>
<path fill="none" stroke="black" d="M-71.2128,99.2878C-71.2128,99.2878 99.7872,99.2878 99.7872,99.2878 105.787,99.2878 111.787,93.2878 111.787,87.2878 111.787,87.2878 111.787,19.2878 111.787,19.2878 111.787,13.2878 105.787,7.28778 99.7872,7.28778 99.7872,7.28778 -71.2128,7.28778 -71.2128,7.28778 -77.2128,7.28778 -83.2128,13.2878 -83.2128,19.2878 -83.2128,19.2878 -83.2128,87.2878 -83.2128,87.2878 -83.2128,93.2878 -77.2128,99.2878 -71.2128,99.2878"/>
<text text-anchor="middle" x="14.2872" y="22.4878" font-family="Times,serif" font-size="14.00">ApplicationController</text>
<polyline fill="none" stroke="black" points="-83.2128,30.2878 111.787,30.2878 "/>
<text text-anchor="start" x="-75.2128" y="45.4878" font-family="Times,serif" font-size="14.00">_one_time_conditions_valid_8?</text>
<polyline fill="none" stroke="black" points="-83.2128,53.2878 111.787,53.2878 "/>
<text text-anchor="start" x="-75.2128" y="68.4878" font-family="Times,serif" font-size="14.00">authorize</text>
<polyline fill="none" stroke="black" points="-83.2128,76.2878 111.787,76.2878 "/>
<text text-anchor="start" x="-75.2128" y="91.4878" font-family="Times,serif" font-size="14.00">_layout</text>
</g>
<!-- ApplicationController&#45;&gt;ReconectarController -->
<g id="edge1" class="edge"><title>ApplicationController&#45;&gt;ReconectarController</title>
<path fill="none" stroke="black" d="M-83.3173,69.7898C-226.797,94.048 -491.123,138.738 -616.102,159.868"/>
</g>
<!-- ApplicationController&#45;&gt;TreatmentsController -->
<g id="edge2" class="edge"><title>ApplicationController&#45;&gt;TreatmentsController</title>
<path fill="none" stroke="black" d="M112.065,49.569C217.548,45.5572 384.702,39.1998 491.473,35.139"/>
</g>
<!-- ApplicationController&#45;&gt;TasksController -->
<g id="edge3" class="edge"><title>ApplicationController&#45;&gt;TasksController</title>
<path fill="none" stroke="black" d="M-2.84925,99.389C-46.5406,216.93 -162.869,529.882 -222.812,691.143"/>
</g>
<!-- ApplicationController&#45;&gt;ProvincesController -->
<g id="edge4" class="edge"><title>ApplicationController&#45;&gt;ProvincesController</title>
<path fill="none" stroke="black" d="M9.27598,6.98943C-1.02322,-85.3902 -26.3446,-299.011 -58.6929,-476.765 -66.3229,-518.692 -76.4167,-564.606 -85.6368,-604.058"/>
</g>
<!-- ApplicationController&#45;&gt;SessionsController -->
<g id="edge5" class="edge"><title>ApplicationController&#45;&gt;SessionsController</title>
<path fill="none" stroke="black" d="M55.7553,7.04561C120.347,-64.982 245.049,-204.041 317.293,-284.601"/>
</g>
<!-- ApplicationController&#45;&gt;InternshipsUsersController -->
<g id="edge6" class="edge"><title>ApplicationController&#45;&gt;InternshipsUsersController</title>
<path fill="none" stroke="black" d="M-2.6502,7.10954C-28.4955,-63.3552 -78.2903,-199.116 -111.688,-290.172"/>
</g>
<!-- ApplicationController&#45;&gt;ContractsController -->
<g id="edge7" class="edge"><title>ApplicationController&#45;&gt;ContractsController</title>
<path fill="none" stroke="black" d="M-61.8034,99.3042C-158.102,157.926 -328.65,263.03 -471.513,357.848 -492.377,371.695 -514.467,386.846 -535.471,401.493"/>
</g>
<!-- ApplicationController&#45;&gt;SkillsController -->
<g id="edge8" class="edge"><title>ApplicationController&#45;&gt;SkillsController</title>
<path fill="none" stroke="black" d="M112.154,87.1384C250.39,134.952 501.556,221.827 641.573,270.257"/>
</g>
<!-- ApplicationController&#45;&gt;InternshipsTasksController -->
<g id="edge9" class="edge"><title>ApplicationController&#45;&gt;InternshipsTasksController</title>
<path fill="none" stroke="black" d="M-31.8267,99.478C-97.3017,165.061 -218.321,286.281 -300.066,368.161"/>
</g>
<!-- ApplicationController&#45;&gt;UsersController -->
<g id="edge10" class="edge"><title>ApplicationController&#45;&gt;UsersController</title>
<path fill="none" stroke="black" d="M26.4567,99.4924C57.6712,218.006 141.125,534.86 183.917,697.333"/>
</g>
<!-- ApplicationController&#45;&gt;CompaniesController -->
<g id="edge11" class="edge"><title>ApplicationController&#45;&gt;CompaniesController</title>
<path fill="none" stroke="black" d="M9.39371,99.6708C-0.376335,192.276 -22.4912,401.893 -35.6747,526.852"/>
</g>
<!-- LandingController -->
<g id="node14" class="node"><title>LandingController</title>
<path fill="none" stroke="black" d="M729.608,-103.957C729.608,-103.957 823.608,-103.957 823.608,-103.957 829.608,-103.957 835.608,-109.957 835.608,-115.957 835.608,-115.957 835.608,-184.957 835.608,-184.957 835.608,-190.957 829.608,-196.957 823.608,-196.957 823.608,-196.957 729.608,-196.957 729.608,-196.957 723.608,-196.957 717.608,-190.957 717.608,-184.957 717.608,-184.957 717.608,-115.957 717.608,-115.957 717.608,-109.957 723.608,-103.957 729.608,-103.957"/>
<text text-anchor="middle" x="776.608" y="-181.757" font-family="Times,serif" font-size="14.00">LandingController</text>
<polyline fill="none" stroke="black" points="717.608,-173.957 835.608,-173.957 "/>
<text text-anchor="start" x="725.608" y="-158.757" font-family="Times,serif" font-size="14.00">bienvenida</text>
<polyline fill="none" stroke="black" points="717.608,-150.957 835.608,-150.957 "/>
<polyline fill="none" stroke="black" points="717.608,-126.957 835.608,-126.957 "/>
<text text-anchor="start" x="725.608" y="-111.757" font-family="Times,serif" font-size="14.00">_layout</text>
</g>
<!-- ApplicationController&#45;&gt;LandingController -->
<g id="edge12" class="edge"><title>ApplicationController&#45;&gt;LandingController</title>
<path fill="none" stroke="black" d="M111.998,27.1727C272.301,-15.6712 586.377,-99.6139 717.204,-134.58"/>
</g>
<!-- InternshipsController -->
<g id="node15" class="node"><title>InternshipsController</title>
<path fill="none" stroke="black" d="M474.189,-404.549C474.189,-404.549 659.189,-404.549 659.189,-404.549 665.189,-404.549 671.189,-410.549 671.189,-416.549 671.189,-416.549 671.189,-605.549 671.189,-605.549 671.189,-611.549 665.189,-617.549 659.189,-617.549 659.189,-617.549 474.189,-617.549 474.189,-617.549 468.189,-617.549 462.189,-611.549 462.189,-605.549 462.189,-605.549 462.189,-416.549 462.189,-416.549 462.189,-410.549 468.189,-404.549 474.189,-404.549"/>
<text text-anchor="middle" x="566.689" y="-602.349" font-family="Times,serif" font-size="14.00">InternshipsController</text>
<polyline fill="none" stroke="black" points="462.189,-594.549 671.189,-594.549 "/>
<text text-anchor="start" x="470.189" y="-579.349" font-family="Times,serif" font-size="14.00">_one_time_conditions_valid_228?</text>
<text text-anchor="start" x="470.189" y="-564.349" font-family="Times,serif" font-size="14.00">create</text>
<text text-anchor="start" x="470.189" y="-549.349" font-family="Times,serif" font-size="14.00">destroy</text>
<text text-anchor="start" x="470.189" y="-534.349" font-family="Times,serif" font-size="14.00">edit</text>
<text text-anchor="start" x="470.189" y="-519.349" font-family="Times,serif" font-size="14.00">index</text>
<text text-anchor="start" x="470.189" y="-504.349" font-family="Times,serif" font-size="14.00">new</text>
<text text-anchor="start" x="470.189" y="-489.349" font-family="Times,serif" font-size="14.00">postularme</text>
<text text-anchor="start" x="470.189" y="-474.349" font-family="Times,serif" font-size="14.00">show</text>
<text text-anchor="start" x="470.189" y="-459.349" font-family="Times,serif" font-size="14.00">update</text>
<polyline fill="none" stroke="black" points="462.189,-451.549 671.189,-451.549 "/>
<polyline fill="none" stroke="black" points="462.189,-427.549 671.189,-427.549 "/>
<text text-anchor="start" x="470.189" y="-412.349" font-family="Times,serif" font-size="14.00">_layout</text>
</g>
<!-- ApplicationController&#45;&gt;InternshipsController -->
<g id="edge13" class="edge"><title>ApplicationController&#45;&gt;InternshipsController</title>
<path fill="none" stroke="black" d="M88.7027,7.25068C179.233,-51.4585 332.842,-160.064 436.93,-281.721 468.305,-318.392 495.858,-363.786 517.41,-404.485"/>
</g>
<!-- LocalitiesController -->
<g id="node16" class="node"><title>LocalitiesController</title>
<path fill="none" stroke="black" d="M120.397,-572.163C120.397,-572.163 305.397,-572.163 305.397,-572.163 311.397,-572.163 317.397,-578.163 317.397,-584.163 317.397,-584.163 317.397,-758.163 317.397,-758.163 317.397,-764.163 311.397,-770.163 305.397,-770.163 305.397,-770.163 120.397,-770.163 120.397,-770.163 114.397,-770.163 108.397,-764.163 108.397,-758.163 108.397,-758.163 108.397,-584.163 108.397,-584.163 108.397,-578.163 114.397,-572.163 120.397,-572.163"/>
<text text-anchor="middle" x="212.897" y="-754.963" font-family="Times,serif" font-size="14.00">LocalitiesController</text>
<polyline fill="none" stroke="black" points="108.397,-747.163 317.397,-747.163 "/>
<text text-anchor="start" x="116.397" y="-731.963" font-family="Times,serif" font-size="14.00">_one_time_conditions_valid_248?</text>
<text text-anchor="start" x="116.397" y="-716.963" font-family="Times,serif" font-size="14.00">create</text>
<text text-anchor="start" x="116.397" y="-701.963" font-family="Times,serif" font-size="14.00">destroy</text>
<text text-anchor="start" x="116.397" y="-686.963" font-family="Times,serif" font-size="14.00">edit</text>
<text text-anchor="start" x="116.397" y="-671.963" font-family="Times,serif" font-size="14.00">index</text>
<text text-anchor="start" x="116.397" y="-656.963" font-family="Times,serif" font-size="14.00">new</text>
<text text-anchor="start" x="116.397" y="-641.963" font-family="Times,serif" font-size="14.00">show</text>
<text text-anchor="start" x="116.397" y="-626.963" font-family="Times,serif" font-size="14.00">update</text>
<polyline fill="none" stroke="black" points="108.397,-619.163 317.397,-619.163 "/>
<polyline fill="none" stroke="black" points="108.397,-595.163 317.397,-595.163 "/>
<text text-anchor="start" x="116.397" y="-579.963" font-family="Times,serif" font-size="14.00">_layout</text>
</g>
<!-- ApplicationController&#45;&gt;LocalitiesController -->
<g id="edge14" class="edge"><title>ApplicationController&#45;&gt;LocalitiesController</title>
<path fill="none" stroke="black" d="M26.9374,7.14466C58.6796,-108.639 142.261,-413.512 185.743,-572.117"/>
</g>
<!-- StudiesController -->
<g id="node17" class="node"><title>StudiesController</title>
<path fill="none" stroke="black" d="M265.966,525.104C265.966,525.104 450.966,525.104 450.966,525.104 456.966,525.104 462.966,519.104 462.966,513.104 462.966,513.104 462.966,339.104 462.966,339.104 462.966,333.104 456.966,327.104 450.966,327.104 450.966,327.104 265.966,327.104 265.966,327.104 259.966,327.104 253.966,333.104 253.966,339.104 253.966,339.104 253.966,513.104 253.966,513.104 253.966,519.104 259.966,525.104 265.966,525.104"/>
<text text-anchor="middle" x="358.466" y="342.304" font-family="Times,serif" font-size="14.00">StudiesController</text>
<polyline fill="none" stroke="black" points="253.966,350.104 462.966,350.104 "/>
<text text-anchor="start" x="261.966" y="365.304" font-family="Times,serif" font-size="14.00">_one_time_conditions_valid_252?</text>
<text text-anchor="start" x="261.966" y="380.304" font-family="Times,serif" font-size="14.00">create</text>
<text text-anchor="start" x="261.966" y="395.304" font-family="Times,serif" font-size="14.00">destroy</text>
<text text-anchor="start" x="261.966" y="410.304" font-family="Times,serif" font-size="14.00">edit</text>
<text text-anchor="start" x="261.966" y="425.304" font-family="Times,serif" font-size="14.00">index</text>
<text text-anchor="start" x="261.966" y="440.304" font-family="Times,serif" font-size="14.00">new</text>
<text text-anchor="start" x="261.966" y="455.304" font-family="Times,serif" font-size="14.00">show</text>
<text text-anchor="start" x="261.966" y="470.304" font-family="Times,serif" font-size="14.00">update</text>
<polyline fill="none" stroke="black" points="253.966,478.104 462.966,478.104 "/>
<polyline fill="none" stroke="black" points="253.966,502.104 462.966,502.104 "/>
<text text-anchor="start" x="261.966" y="517.304" font-family="Times,serif" font-size="14.00">_layout</text>
</g>
<!-- ApplicationController&#45;&gt;StudiesController -->
<g id="edge15" class="edge"><title>ApplicationController&#45;&gt;StudiesController</title>
<path fill="none" stroke="black" d="M56.8354,99.3762C108.993,155.874 198.834,253.189 266.937,326.959"/>
</g>
<!-- AdminController -->
<g id="node18" class="node"><title>AdminController</title>
<path fill="none" stroke="black" d="M505.23,671.371C505.23,671.371 591.23,671.371 591.23,671.371 597.23,671.371 603.23,665.371 603.23,659.371 603.23,659.371 603.23,590.371 603.23,590.371 603.23,584.371 597.23,578.371 591.23,578.371 591.23,578.371 505.23,578.371 505.23,578.371 499.23,578.371 493.23,584.371 493.23,590.371 493.23,590.371 493.23,659.371 493.23,659.371 493.23,665.371 499.23,671.371 505.23,671.371"/>
<text text-anchor="middle" x="548.23" y="593.571" font-family="Times,serif" font-size="14.00">AdminController</text>
<polyline fill="none" stroke="black" points="493.23,601.371 603.23,601.371 "/>
<text text-anchor="start" x="501.23" y="616.571" font-family="Times,serif" font-size="14.00">index</text>
<polyline fill="none" stroke="black" points="493.23,624.371 603.23,624.371 "/>
<polyline fill="none" stroke="black" points="493.23,648.371 603.23,648.371 "/>
<text text-anchor="start" x="501.23" y="663.571" font-family="Times,serif" font-size="14.00">_layout</text>
</g>
<!-- ApplicationController&#45;&gt;AdminController -->
<g id="edge16" class="edge"><title>ApplicationController&#45;&gt;AdminController</title>
<path fill="none" stroke="black" d="M111.845,86.5321C215.106,126.713 375.424,204.218 466.166,323.904 523.999,400.184 541.092,514.601 546.133,578.131"/>
</g>
<!-- JobsController -->
<g id="node19" class="node"><title>JobsController</title>
<path fill="none" stroke="black" d="M-708.304,-226.551C-708.304,-226.551 -523.304,-226.551 -523.304,-226.551 -517.304,-226.551 -511.304,-232.551 -511.304,-238.551 -511.304,-238.551 -511.304,-412.551 -511.304,-412.551 -511.304,-418.551 -517.304,-424.551 -523.304,-424.551 -523.304,-424.551 -708.304,-424.551 -708.304,-424.551 -714.304,-424.551 -720.304,-418.551 -720.304,-412.551 -720.304,-412.551 -720.304,-238.551 -720.304,-238.551 -720.304,-232.551 -714.304,-226.551 -708.304,-226.551"/>
<text text-anchor="middle" x="-615.804" y="-409.351" font-family="Times,serif" font-size="14.00">JobsController</text>
<polyline fill="none" stroke="black" points="-720.304,-401.551 -511.304,-401.551 "/>
<text text-anchor="start" x="-712.304" y="-386.351" font-family="Times,serif" font-size="14.00">_one_time_conditions_valid_256?</text>
<text text-anchor="start" x="-712.304" y="-371.351" font-family="Times,serif" font-size="14.00">create</text>
<text text-anchor="start" x="-712.304" y="-356.351" font-family="Times,serif" font-size="14.00">destroy</text>
<text text-anchor="start" x="-712.304" y="-341.351" font-family="Times,serif" font-size="14.00">edit</text>
<text text-anchor="start" x="-712.304" y="-326.351" font-family="Times,serif" font-size="14.00">index</text>
<text text-anchor="start" x="-712.304" y="-311.351" font-family="Times,serif" font-size="14.00">new</text>
<text text-anchor="start" x="-712.304" y="-296.351" font-family="Times,serif" font-size="14.00">show</text>
<text text-anchor="start" x="-712.304" y="-281.351" font-family="Times,serif" font-size="14.00">update</text>
<polyline fill="none" stroke="black" points="-720.304,-273.551 -511.304,-273.551 "/>
<polyline fill="none" stroke="black" points="-720.304,-249.551 -511.304,-249.551 "/>
<text text-anchor="start" x="-712.304" y="-234.351" font-family="Times,serif" font-size="14.00">_layout</text>
</g>
<!-- ApplicationController&#45;&gt;JobsController -->
<g id="edge17" class="edge"><title>ApplicationController&#45;&gt;JobsController</title>
<path fill="none" stroke="black" d="M-62.3444,7.21345C-174.756,-60.3734 -384.692,-186.596 -511.203,-262.66"/>
</g>
<!-- SituationsController -->
<g id="node20" class="node"><title>SituationsController</title>
<path fill="none" stroke="black" d="M-756.313,23.9247C-756.313,23.9247 -571.313,23.9247 -571.313,23.9247 -565.313,23.9247 -559.313,17.9247 -559.313,11.9247 -559.313,11.9247 -559.313,-162.075 -559.313,-162.075 -559.313,-168.075 -565.313,-174.075 -571.313,-174.075 -571.313,-174.075 -756.313,-174.075 -756.313,-174.075 -762.313,-174.075 -768.313,-168.075 -768.313,-162.075 -768.313,-162.075 -768.313,11.9247 -768.313,11.9247 -768.313,17.9247 -762.313,23.9247 -756.313,23.9247"/>
<text text-anchor="middle" x="-663.813" y="-158.875" font-family="Times,serif" font-size="14.00">SituationsController</text>
<polyline fill="none" stroke="black" points="-768.313,-151.075 -559.313,-151.075 "/>
<text text-anchor="start" x="-760.313" y="-135.875" font-family="Times,serif" font-size="14.00">_one_time_conditions_valid_270?</text>
<text text-anchor="start" x="-760.313" y="-120.875" font-family="Times,serif" font-size="14.00">create</text>
<text text-anchor="start" x="-760.313" y="-105.875" font-family="Times,serif" font-size="14.00">destroy</text>
<text text-anchor="start" x="-760.313" y="-90.8753" font-family="Times,serif" font-size="14.00">edit</text>
<text text-anchor="start" x="-760.313" y="-75.8753" font-family="Times,serif" font-size="14.00">index</text>
<text text-anchor="start" x="-760.313" y="-60.8753" font-family="Times,serif" font-size="14.00">new</text>
<text text-anchor="start" x="-760.313" y="-45.8753" font-family="Times,serif" font-size="14.00">show</text>
<text text-anchor="start" x="-760.313" y="-30.8753" font-family="Times,serif" font-size="14.00">update</text>
<polyline fill="none" stroke="black" points="-768.313,-23.0753 -559.313,-23.0753 "/>
<polyline fill="none" stroke="black" points="-768.313,0.924716 -559.313,0.924716 "/>
<text text-anchor="start" x="-760.313" y="16.1247" font-family="Times,serif" font-size="14.00">_layout</text>
</g>
<!-- ApplicationController&#45;&gt;SituationsController -->
<g id="edge18" class="edge"><title>ApplicationController&#45;&gt;SituationsController</title>
<path fill="none" stroke="black" d="M-83.2288,34.8282C-209.669,10.8933 -429.322,-30.6866 -559.16,-55.2646"/>
</g>
<!-- TypesController -->
<g id="node21" class="node"><title>TypesController</title>
<path fill="none" stroke="black" d="M-520.934,-447.377C-520.934,-447.377 -335.934,-447.377 -335.934,-447.377 -329.934,-447.377 -323.934,-453.377 -323.934,-459.377 -323.934,-459.377 -323.934,-633.377 -323.934,-633.377 -323.934,-639.377 -329.934,-645.377 -335.934,-645.377 -335.934,-645.377 -520.934,-645.377 -520.934,-645.377 -526.934,-645.377 -532.934,-639.377 -532.934,-633.377 -532.934,-633.377 -532.934,-459.377 -532.934,-459.377 -532.934,-453.377 -526.934,-447.377 -520.934,-447.377"/>
<text text-anchor="middle" x="-428.434" y="-630.177" font-family="Times,serif" font-size="14.00">TypesController</text>
<polyline fill="none" stroke="black" points="-532.934,-622.377 -323.934,-622.377 "/>
<text text-anchor="start" x="-524.934" y="-607.177" font-family="Times,serif" font-size="14.00">_one_time_conditions_valid_284?</text>
<text text-anchor="start" x="-524.934" y="-592.177" font-family="Times,serif" font-size="14.00">create</text>
<text text-anchor="start" x="-524.934" y="-577.177" font-family="Times,serif" font-size="14.00">destroy</text>
<text text-anchor="start" x="-524.934" y="-562.177" font-family="Times,serif" font-size="14.00">edit</text>
<text text-anchor="start" x="-524.934" y="-547.177" font-family="Times,serif" font-size="14.00">index</text>
<text text-anchor="start" x="-524.934" y="-532.177" font-family="Times,serif" font-size="14.00">new</text>
<text text-anchor="start" x="-524.934" y="-517.177" font-family="Times,serif" font-size="14.00">show</text>
<text text-anchor="start" x="-524.934" y="-502.177" font-family="Times,serif" font-size="14.00">update</text>
<polyline fill="none" stroke="black" points="-532.934,-494.377 -323.934,-494.377 "/>
<polyline fill="none" stroke="black" points="-532.934,-470.377 -323.934,-470.377 "/>
<text text-anchor="start" x="-524.934" y="-455.177" font-family="Times,serif" font-size="14.00">_layout</text>
</g>
<!-- ApplicationController&#45;&gt;TypesController -->
<g id="edge19" class="edge"><title>ApplicationController&#45;&gt;TypesController</title>
<path fill="none" stroke="black" d="M-19.7173,7.22881C-91.1414,-89.5149 -258.155,-315.734 -355.139,-447.099"/>
</g>
</g>
</svg>
