<?xml version="1.0" encoding="UTF-8" standalone="no"?>
<!DOCTYPE svg PUBLIC "-//W3C//DTD SVG 1.1//EN"
 "http://www.w3.org/Graphics/SVG/1.1/DTD/svg11.dtd">
<!-- Generated by graphviz version 2.26.3 (20100126.1600)
 -->
<!-- Title: controllers_diagram Pages: 1 -->
<svg width="1145pt" height="693pt"
 viewBox="0.00 0.00 1145.00 693.00" xmlns="http://www.w3.org/2000/svg" xmlns:xlink="http://www.w3.org/1999/xlink">
<g id="graph1" class="graph" transform="scale(1 1) rotate(0) translate(4 689)">
<title>controllers_diagram</title>
<polygon fill="white" stroke="white" points="-4,5 -4,-689 1142,-689 1142,5 -4,5"/>
<!-- _diagram_info -->
<g id="node1" class="node"><title>_diagram_info</title>
<text text-anchor="start" x="894" y="-668.3" font-family="Times Roman,serif" font-size="13.00">Controllers diagram</text>
<text text-anchor="start" x="894" y="-651.3" font-family="Times Roman,serif" font-size="13.00">Date: May 08 2013 &#45; 21:02</text>
<text text-anchor="start" x="894" y="-634.3" font-family="Times Roman,serif" font-size="13.00">Migration version: 20130415035859</text>
<text text-anchor="start" x="894" y="-617.3" font-family="Times Roman,serif" font-size="13.00">Generated by RailRoady 1.1.0</text>
<text text-anchor="start" x="894" y="-600.3" font-family="Times Roman,serif" font-size="13.00">http://railroady.prestonlee.com</text>
</g>
<!-- CompaniesController -->
<g id="node2" class="node"><title>CompaniesController</title>
<ellipse fill="none" stroke="black" cx="137.945" cy="-248.511" rx="113.844" ry="18.3848"/>
<text text-anchor="middle" x="137.945" y="-244.911" font-family="Times Roman,serif" font-size="14.00">CompaniesController</text>
</g>
<!-- LocalitiesController -->
<g id="node3" class="node"><title>LocalitiesController</title>
<ellipse fill="none" stroke="black" cx="763.879" cy="-465.854" rx="104.86" ry="18.3848"/>
<text text-anchor="middle" x="763.879" y="-462.254" font-family="Times Roman,serif" font-size="14.00">LocalitiesController</text>
</g>
<!-- InternshipsController -->
<g id="node4" class="node"><title>InternshipsController</title>
<ellipse fill="none" stroke="black" cx="373.634" cy="-21.2665" rx="114.759" ry="18.3848"/>
<text text-anchor="middle" x="373.634" y="-17.6665" font-family="Times Roman,serif" font-size="14.00">InternshipsController</text>
</g>
<!-- SessionsController -->
<g id="node5" class="node"><title>SessionsController</title>
<ellipse fill="none" stroke="black" cx="381.157" cy="-468.865" rx="101.823" ry="18.3848"/>
<text text-anchor="middle" x="381.157" y="-465.265" font-family="Times Roman,serif" font-size="14.00">SessionsController</text>
</g>
<!-- SkillsController -->
<g id="node6" class="node"><title>SkillsController</title>
<ellipse fill="none" stroke="black" cx="748.023" cy="-311.37" rx="85.0596" ry="18.3848"/>
<text text-anchor="middle" x="748.023" y="-307.77" font-family="Times Roman,serif" font-size="14.00">SkillsController</text>
</g>
<!-- LandingController -->
<g id="node7" class="node"><title>LandingController</title>
<ellipse fill="none" stroke="black" cx="374.049" cy="-317.947" rx="98.9949" ry="18.3848"/>
<text text-anchor="middle" x="374.049" y="-314.347" font-family="Times Roman,serif" font-size="14.00">LandingController</text>
</g>
<!-- InternshipsTasksController -->
<g id="node8" class="node"><title>InternshipsTasksController</title>
<ellipse fill="none" stroke="black" cx="142.5" cy="-48.4934" rx="140.922" ry="18.3848"/>
<text text-anchor="middle" x="142.5" y="-44.8934" font-family="Times Roman,serif" font-size="14.00">InternshipsTasksController</text>
</g>
<!-- ProvincesController -->
<g id="node9" class="node"><title>ProvincesController</title>
<ellipse fill="none" stroke="black" cx="981.808" cy="-241.792" rx="106.98" ry="18.3848"/>
<text text-anchor="middle" x="981.808" y="-238.192" font-family="Times Roman,serif" font-size="14.00">ProvincesController</text>
</g>
<!-- TasksController -->
<g id="node10" class="node"><title>TasksController</title>
<ellipse fill="none" stroke="black" cx="358.86" cy="-175.604" rx="85.7684" ry="18.3848"/>
<text text-anchor="middle" x="358.86" y="-172.004" font-family="Times Roman,serif" font-size="14.00">TasksController</text>
</g>
<!-- InternshipsUsersController -->
<g id="node11" class="node"><title>InternshipsUsersController</title>
<ellipse fill="none" stroke="black" cx="737.717" cy="-19.5" rx="142.128" ry="18.3848"/>
<text text-anchor="middle" x="737.717" y="-15.9" font-family="Times Roman,serif" font-size="14.00">InternshipsUsersController</text>
</g>
<!-- ContractsController -->
<g id="node12" class="node"><title>ContractsController</title>
<ellipse fill="none" stroke="black" cx="555.22" cy="-55.6624" rx="106.98" ry="18.3848"/>
<text text-anchor="middle" x="555.22" y="-52.0624" font-family="Times Roman,serif" font-size="14.00">ContractsController</text>
</g>
<!-- AdminController -->
<g id="node13" class="node"><title>AdminController</title>
<ellipse fill="none" stroke="black" cx="146.758" cy="-443.759" rx="91.2168" ry="18.3848"/>
<text text-anchor="middle" x="146.758" y="-440.159" font-family="Times Roman,serif" font-size="14.00">AdminController</text>
</g>
<!-- UsersController -->
<g id="node14" class="node"><title>UsersController</title>
<ellipse fill="none" stroke="black" cx="983.929" cy="-439.043" rx="87.1802" ry="18.3848"/>
<text text-anchor="middle" x="983.929" y="-435.443" font-family="Times Roman,serif" font-size="14.00">UsersController</text>
</g>
<!-- ApplicationController -->
<g id="node15" class="node"><title>ApplicationController</title>
<ellipse fill="none" stroke="black" cx="559.565" cy="-245.459" rx="113.844" ry="18.3848"/>
<text text-anchor="middle" x="559.565" y="-241.859" font-family="Times Roman,serif" font-size="14.00">ApplicationController</text>
</g>
<!-- ApplicationController&#45;&gt;CompaniesController -->
<g id="edge2" class="edge"><title>ApplicationController&#45;&gt;CompaniesController</title>
<path fill="none" stroke="black" d="M445.468,-246.285C385.475,-246.719 312.139,-247.25 252.132,-247.684"/>
</g>
<!-- ApplicationController&#45;&gt;LocalitiesController -->
<g id="edge4" class="edge"><title>ApplicationController&#45;&gt;LocalitiesController</title>
<path fill="none" stroke="black" d="M576.633,-263.871C615.092,-305.357 708.166,-405.757 746.715,-447.34"/>
</g>
<!-- ApplicationController&#45;&gt;InternshipsController -->
<g id="edge6" class="edge"><title>ApplicationController&#45;&gt;InternshipsController</title>
<path fill="none" stroke="black" d="M544.349,-227.112C509.484,-185.072 424.127,-82.1504 389.06,-39.8666"/>
</g>
<!-- ApplicationController&#45;&gt;SessionsController -->
<g id="edge8" class="edge"><title>ApplicationController&#45;&gt;SessionsController</title>
<path fill="none" stroke="black" d="M544.661,-264.122C510.994,-306.28 429.399,-408.455 395.893,-450.412"/>
</g>
<!-- ApplicationController&#45;&gt;SkillsController -->
<g id="edge10" class="edge"><title>ApplicationController&#45;&gt;SkillsController</title>
<path fill="none" stroke="black" d="M607.608,-262.262C636.944,-272.521 674.213,-285.556 702.983,-295.617"/>
</g>
<!-- ApplicationController&#45;&gt;LandingController -->
<g id="edge12" class="edge"><title>ApplicationController&#45;&gt;LandingController</title>
<path fill="none" stroke="black" d="M515.6,-262.638C485.813,-274.276 446.641,-289.582 417.058,-301.142"/>
</g>
<!-- ApplicationController&#45;&gt;InternshipsTasksController -->
<g id="edge14" class="edge"><title>ApplicationController&#45;&gt;InternshipsTasksController</title>
<path fill="none" stroke="black" d="M530.95,-227.329C508.208,-213.034 475.504,-192.734 446.459,-175.667 363.234,-126.763 257.654,-87.0727 195.353,-65.699"/>
</g>
<!-- ApplicationController&#45;&gt;ProvincesController -->
<g id="edge16" class="edge"><title>ApplicationController&#45;&gt;ProvincesController</title>
<path fill="none" stroke="black" d="M673.552,-244.469C736.202,-243.925 813.445,-243.254 874.936,-242.72"/>
</g>
<!-- ApplicationController&#45;&gt;TasksController -->
<g id="edge18" class="edge"><title>ApplicationController&#45;&gt;TasksController</title>
<path fill="none" stroke="black" d="M511.236,-228.638C478.757,-217.334 436.231,-202.533 404.36,-191.44"/>
</g>
<!-- ApplicationController&#45;&gt;InternshipsUsersController -->
<g id="edge20" class="edge"><title>ApplicationController&#45;&gt;InternshipsUsersController</title>
<path fill="none" stroke="black" d="M574.144,-226.968C607.634,-184.491 689.743,-80.3471 723.186,-37.9298"/>
</g>
<!-- ApplicationController&#45;&gt;ContractsController -->
<g id="edge22" class="edge"><title>ApplicationController&#45;&gt;ContractsController</title>
<path fill="none" stroke="black" d="M559.14,-226.915C558.31,-190.63 556.478,-110.627 555.646,-74.2818"/>
</g>
<!-- ApplicationController&#45;&gt;AdminController -->
<g id="edge24" class="edge"><title>ApplicationController&#45;&gt;AdminController</title>
<path fill="none" stroke="black" d="M541.159,-263.737C524.689,-279.449 499.392,-302.044 474.647,-318.077 388.31,-374.018 273.322,-410.819 204.971,-429.407"/>
</g>
<!-- ApplicationController&#45;&gt;UsersController -->
<g id="edge26" class="edge"><title>ApplicationController&#45;&gt;UsersController</title>
<path fill="none" stroke="black" d="M586.523,-263.512C606.896,-277.001 635.66,-295.722 661.423,-311.31 750.175,-365.01 865.501,-404.274 931.46,-424.217"/>
</g>
<!-- JobsController -->
<g id="node16" class="node"><title>JobsController</title>
<ellipse fill="none" stroke="black" cx="572.153" cy="-441.34" rx="79.9031" ry="18.3848"/>
<text text-anchor="middle" x="572.153" y="-437.74" font-family="Times Roman,serif" font-size="14.00">JobsController</text>
</g>
<!-- ApplicationController&#45;&gt;JobsController -->
<g id="edge28" class="edge"><title>ApplicationController&#45;&gt;JobsController</title>
<path fill="none" stroke="black" d="M560.772,-264.241C563.178,-301.682 568.546,-385.221 570.95,-422.615"/>
</g>
<!-- SituationsController -->
<g id="node17" class="node"><title>SituationsController</title>
<ellipse fill="none" stroke="black" cx="758.591" cy="-169.461" rx="109.101" ry="18.3848"/>
<text text-anchor="middle" x="758.591" y="-165.861" font-family="Times Roman,serif" font-size="14.00">SituationsController</text>
</g>
<!-- ApplicationController&#45;&gt;SituationsController -->
<g id="edge30" class="edge"><title>ApplicationController&#45;&gt;SituationsController</title>
<path fill="none" stroke="black" d="M604.23,-228.404C637.008,-215.887 681.332,-198.962 714.075,-186.46"/>
</g>
<!-- StudiesController -->
<g id="node18" class="node"><title>StudiesController</title>
<ellipse fill="none" stroke="black" cx="976.19" cy="-45.6097" rx="96.8736" ry="18.3848"/>
<text text-anchor="middle" x="976.19" y="-42.0097" font-family="Times Roman,serif" font-size="14.00">StudiesController</text>
</g>
<!-- ApplicationController&#45;&gt;StudiesController -->
<g id="edge32" class="edge"><title>ApplicationController&#45;&gt;StudiesController</title>
<path fill="none" stroke="black" d="M577.549,-226.995C594.543,-210.306 621.338,-185.878 647.997,-169.264 734.68,-115.241 848.681,-78.9225 916.979,-60.3026"/>
</g>
</g>
</svg>
