<?xml version="1.0" encoding="UTF-8" standalone="no"?>
<!DOCTYPE svg PUBLIC "-//W3C//DTD SVG 1.1//EN"
 "http://www.w3.org/Graphics/SVG/1.1/DTD/svg11.dtd">
<!-- Generated by graphviz version 2.26.3 (20100126.1600)
 -->
<!-- Title: controllers_diagram Pages: 1 -->
<svg width="2199pt" height="1212pt"
 viewBox="0.00 0.00 2199.02 1212.09" xmlns="http://www.w3.org/2000/svg" xmlns:xlink="http://www.w3.org/1999/xlink">
<g id="graph1" class="graph" transform="scale(1 1) rotate(0) translate(4 1208.09)">
<title>controllers_diagram</title>
<polygon fill="white" stroke="white" points="-4,5 -4,-1208.09 2196.02,-1208.09 2196.02,5 -4,5"/>
<!-- _diagram_info -->
<g id="node1" class="node"><title>_diagram_info</title>
<text text-anchor="start" x="1449" y="-78.3" font-family="Times Roman,serif" font-size="13.00">Controllers diagram</text>
<text text-anchor="start" x="1449" y="-61.3" font-family="Times Roman,serif" font-size="13.00">Date: Oct 26 2013 &#45; 22:17</text>
<text text-anchor="start" x="1449" y="-44.3" font-family="Times Roman,serif" font-size="13.00">Migration version: 20130908214125</text>
<text text-anchor="start" x="1449" y="-27.3" font-family="Times Roman,serif" font-size="13.00">Generated by RailRoady 1.1.0</text>
<text text-anchor="start" x="1449" y="-10.3" font-family="Times Roman,serif" font-size="13.00">http://railroady.prestonlee.com</text>
</g>
<!-- ReconectarController -->
<g id="node2" class="node"><title>ReconectarController</title>
<ellipse fill="none" stroke="black" cx="115.5" cy="-643.164" rx="114.051" ry="18.3848"/>
<text text-anchor="middle" x="115.5" y="-639.564" font-family="Times Roman,serif" font-size="14.00">ReconectarController</text>
</g>
<!-- TreatmentsController -->
<g id="node3" class="node"><title>TreatmentsController</title>
<ellipse fill="none" stroke="black" cx="1735.71" cy="-641.553" rx="115.966" ry="18.3848"/>
<text text-anchor="middle" x="1735.71" y="-637.953" font-family="Times Roman,serif" font-size="14.00">TreatmentsController</text>
</g>
<!-- TasksController -->
<g id="node4" class="node"><title>TasksController</title>
<ellipse fill="none" stroke="black" cx="739.074" cy="-139.5" rx="85.7684" ry="18.3848"/>
<text text-anchor="middle" x="739.074" y="-135.9" font-family="Times Roman,serif" font-size="14.00">TasksController</text>
</g>
<!-- ProvincesController -->
<g id="node5" class="node"><title>ProvincesController</title>
<ellipse fill="none" stroke="black" cx="986.79" cy="-1162.19" rx="106.98" ry="18.3848"/>
<text text-anchor="middle" x="986.79" y="-1158.59" font-family="Times Roman,serif" font-size="14.00">ProvincesController</text>
</g>
<!-- SessionsController -->
<g id="node6" class="node"><title>SessionsController</title>
<ellipse fill="none" stroke="black" cx="1433.44" cy="-818.449" rx="101.823" ry="18.3848"/>
<text text-anchor="middle" x="1433.44" y="-814.849" font-family="Times Roman,serif" font-size="14.00">SessionsController</text>
</g>
<!-- InternshipsUsersController -->
<g id="node7" class="node"><title>InternshipsUsersController</title>
<ellipse fill="none" stroke="black" cx="873.382" cy="-789.368" rx="142.128" ry="18.3848"/>
<text text-anchor="middle" x="873.382" y="-785.768" font-family="Times Roman,serif" font-size="14.00">InternshipsUsersController</text>
</g>
<!-- ContractsController -->
<g id="node8" class="node"><title>ContractsController</title>
<ellipse fill="none" stroke="black" cx="179.21" cy="-183.423" rx="106.98" ry="18.3848"/>
<text text-anchor="middle" x="179.21" y="-179.823" font-family="Times Roman,serif" font-size="14.00">ContractsController</text>
</g>
<!-- SkillsController -->
<g id="node9" class="node"><title>SkillsController</title>
<ellipse fill="none" stroke="black" cx="2073.71" cy="-283.648" rx="85.0596" ry="18.3848"/>
<text text-anchor="middle" x="2073.71" y="-280.048" font-family="Times Roman,serif" font-size="14.00">SkillsController</text>
</g>
<!-- InternshipsTasksController -->
<g id="node10" class="node"><title>InternshipsTasksController</title>
<ellipse fill="none" stroke="black" cx="618.57" cy="-484.748" rx="140.922" ry="18.3848"/>
<text text-anchor="middle" x="618.57" y="-481.148" font-family="Times Roman,serif" font-size="14.00">InternshipsTasksController</text>
</g>
<!-- UsersController -->
<g id="node11" class="node"><title>UsersController</title>
<ellipse fill="none" stroke="black" cx="1157.01" cy="-144.497" rx="87.1802" ry="18.3848"/>
<text text-anchor="middle" x="1157.01" y="-140.897" font-family="Times Roman,serif" font-size="14.00">UsersController</text>
</g>
<!-- CompaniesController -->
<g id="node12" class="node"><title>CompaniesController</title>
<ellipse fill="none" stroke="black" cx="992.744" cy="-479.278" rx="113.844" ry="18.3848"/>
<text text-anchor="middle" x="992.744" y="-475.678" font-family="Times Roman,serif" font-size="14.00">CompaniesController</text>
</g>
<!-- ApplicationController -->
<g id="node13" class="node"><title>ApplicationController</title>
<ellipse fill="none" stroke="black" cx="1145.23" cy="-788.865" rx="113.844" ry="18.3848"/>
<text text-anchor="middle" x="1145.23" y="-785.265" font-family="Times Roman,serif" font-size="14.00">ApplicationController</text>
</g>
<!-- ApplicationController&#45;&gt;ReconectarController -->
<g id="edge2" class="edge"><title>ApplicationController&#45;&gt;ReconectarController</title>
<path fill="none" stroke="black" d="M1059.21,-776.693C865.256,-749.25 395.702,-682.811 201.64,-655.353"/>
</g>
<!-- ApplicationController&#45;&gt;TreatmentsController -->
<g id="edge4" class="edge"><title>ApplicationController&#45;&gt;TreatmentsController</title>
<path fill="none" stroke="black" d="M1207.59,-773.309C1320.98,-745.019 1559.7,-685.463 1673.21,-657.146"/>
</g>
<!-- ApplicationController&#45;&gt;TasksController -->
<g id="edge6" class="edge"><title>ApplicationController&#45;&gt;TasksController</title>
<path fill="none" stroke="black" d="M1125.22,-770.363C1076.95,-724.863 952.58,-602.234 877.147,-479.142 807.637,-365.714 759.596,-211.115 744.298,-158.171"/>
</g>
<!-- ApplicationController&#45;&gt;ProvincesController -->
<g id="edge8" class="edge"><title>ApplicationController&#45;&gt;ProvincesController</title>
<path fill="none" stroke="black" d="M1137.37,-807.378C1110.4,-870.937 1021.74,-1079.84 994.694,-1143.56"/>
</g>
<!-- ApplicationController&#45;&gt;SessionsController -->
<g id="edge10" class="edge"><title>ApplicationController&#45;&gt;SessionsController</title>
<path fill="none" stroke="black" d="M1241.6,-798.757C1274.82,-802.167 1311.85,-805.969 1344.46,-809.315"/>
</g>
<!-- ApplicationController&#45;&gt;InternshipsUsersController -->
<g id="edge12" class="edge"><title>ApplicationController&#45;&gt;InternshipsUsersController</title>
<path fill="none" stroke="black" d="M1031.12,-789.076C1026.04,-789.085 1020.91,-789.095 1015.77,-789.104"/>
</g>
<!-- ApplicationController&#45;&gt;ContractsController -->
<g id="edge14" class="edge"><title>ApplicationController&#45;&gt;ContractsController</title>
<path fill="none" stroke="black" d="M1125.06,-770.574C1069.65,-720.863 909.377,-580.594 761.169,-484.812 567.181,-359.443 314.91,-243.388 218.769,-200.708"/>
</g>
<!-- ApplicationController&#45;&gt;SkillsController -->
<g id="edge16" class="edge"><title>ApplicationController&#45;&gt;SkillsController</title>
<path fill="none" stroke="black" d="M1178,-771.032C1322.26,-692.536 1899.84,-378.255 2041.98,-300.911"/>
</g>
<!-- ApplicationController&#45;&gt;InternshipsTasksController -->
<g id="edge18" class="edge"><title>ApplicationController&#45;&gt;InternshipsTasksController</title>
<path fill="none" stroke="black" d="M1114.25,-770.976C1020.98,-717.119 743.494,-556.884 649.841,-502.805"/>
</g>
<!-- ApplicationController&#45;&gt;UsersController -->
<g id="edge20" class="edge"><title>ApplicationController&#45;&gt;UsersController</title>
<path fill="none" stroke="black" d="M1145.57,-770.275C1147.28,-676.592 1154.95,-257.02 1156.67,-163.162"/>
</g>
<!-- ApplicationController&#45;&gt;CompaniesController -->
<g id="edge22" class="edge"><title>ApplicationController&#45;&gt;CompaniesController</title>
<path fill="none" stroke="black" d="M1135.92,-769.965C1108.64,-714.564 1029.06,-553.014 1001.93,-497.931"/>
</g>
<!-- LandingController -->
<g id="node14" class="node"><title>LandingController</title>
<ellipse fill="none" stroke="black" cx="2091.02" cy="-1023.57" rx="98.9949" ry="18.3848"/>
<text text-anchor="middle" x="2091.02" y="-1019.97" font-family="Times Roman,serif" font-size="14.00">LandingController</text>
</g>
<!-- ApplicationController&#45;&gt;LandingController -->
<g id="edge24" class="edge"><title>ApplicationController&#45;&gt;LandingController</title>
<path fill="none" stroke="black" d="M1207.65,-804.355C1380.19,-847.17 1861.93,-966.719 2031.25,-1008.74"/>
</g>
<!-- InternshipsController -->
<g id="node15" class="node"><title>InternshipsController</title>
<ellipse fill="none" stroke="black" cx="1645.71" cy="-1166.84" rx="114.759" ry="18.3848"/>
<text text-anchor="middle" x="1645.71" y="-1163.24" font-family="Times Roman,serif" font-size="14.00">InternshipsController</text>
</g>
<!-- ApplicationController&#45;&gt;InternshipsController -->
<g id="edge26" class="edge"><title>ApplicationController&#45;&gt;InternshipsController</title>
<path fill="none" stroke="black" d="M1169.37,-807.095C1254.02,-871.022 1536.8,-1084.59 1621.52,-1148.58"/>
</g>
<!-- LocalitiesController -->
<g id="node16" class="node"><title>LocalitiesController</title>
<ellipse fill="none" stroke="black" cx="1282.58" cy="-1176" rx="104.86" ry="18.3848"/>
<text text-anchor="middle" x="1282.58" y="-1172.4" font-family="Times Roman,serif" font-size="14.00">LocalitiesController</text>
</g>
<!-- ApplicationController&#45;&gt;LocalitiesController -->
<g id="edge28" class="edge"><title>ApplicationController&#45;&gt;LocalitiesController</title>
<path fill="none" stroke="black" d="M1151.86,-807.537C1175.11,-873.088 1252.87,-1092.26 1276.02,-1157.52"/>
</g>
<!-- StudiesController -->
<g id="node17" class="node"><title>StudiesController</title>
<ellipse fill="none" stroke="black" cx="1339.8" cy="-496.53" rx="96.8736" ry="18.3848"/>
<text text-anchor="middle" x="1339.8" y="-492.93" font-family="Times Roman,serif" font-size="14.00">StudiesController</text>
</g>
<!-- ApplicationController&#45;&gt;StudiesController -->
<g id="edge30" class="edge"><title>ApplicationController&#45;&gt;StudiesController</title>
<path fill="none" stroke="black" d="M1157.7,-770.133C1192.84,-717.331 1292.42,-567.716 1327.44,-515.105"/>
</g>
<!-- AdminController -->
<g id="node18" class="node"><title>AdminController</title>
<ellipse fill="none" stroke="black" cx="1573.28" cy="-166.909" rx="91.2168" ry="18.3848"/>
<text text-anchor="middle" x="1573.28" y="-163.309" font-family="Times Roman,serif" font-size="14.00">AdminController</text>
</g>
<!-- ApplicationController&#45;&gt;AdminController -->
<g id="edge32" class="edge"><title>ApplicationController&#45;&gt;AdminController</title>
<path fill="none" stroke="black" d="M1169.33,-770.524C1223.93,-727.888 1358.51,-616.557 1438.4,-496.643 1509.89,-389.32 1554.4,-238.092 1568.46,-185.668"/>
</g>
<!-- JobsController -->
<g id="node19" class="node"><title>JobsController</title>
<ellipse fill="none" stroke="black" cx="145.909" cy="-1131" rx="79.9031" ry="18.3848"/>
<text text-anchor="middle" x="145.909" y="-1127.4" font-family="Times Roman,serif" font-size="14.00">JobsController</text>
</g>
<!-- ApplicationController&#45;&gt;JobsController -->
<g id="edge34" class="edge"><title>ApplicationController&#45;&gt;JobsController</title>
<path fill="none" stroke="black" d="M1096.36,-805.598C925.406,-864.126 355.756,-1059.16 190.94,-1115.59"/>
</g>
<!-- SituationsController -->
<g id="node20" class="node"><title>SituationsController</title>
<ellipse fill="none" stroke="black" cx="554.998" cy="-815.841" rx="109.101" ry="18.3848"/>
<text text-anchor="middle" x="554.998" y="-812.241" font-family="Times Roman,serif" font-size="14.00">SituationsController</text>
</g>
<!-- ApplicationController&#45;&gt;SituationsController -->
<g id="edge36" class="edge"><title>ApplicationController&#45;&gt;SituationsController</title>
<path fill="none" stroke="black" d="M1045.79,-797.98C1022.33,-799.992 997.394,-802.017 974.207,-803.68 869.085,-811.219 748.815,-814.12 664.137,-815.218"/>
</g>
<!-- TypesController -->
<g id="node21" class="node"><title>TypesController</title>
<ellipse fill="none" stroke="black" cx="648.725" cy="-1184.59" rx="87.1802" ry="18.3848"/>
<text text-anchor="middle" x="648.725" y="-1180.99" font-family="Times Roman,serif" font-size="14.00">TypesController</text>
</g>
<!-- ApplicationController&#45;&gt;TypesController -->
<g id="edge38" class="edge"><title>ApplicationController&#45;&gt;TypesController</title>
<path fill="none" stroke="black" d="M1122.28,-807.158C1039.13,-873.432 754.192,-1100.53 671.434,-1166.49"/>
</g>
</g>
</svg>
