<?xml version="1.0" encoding="UTF-8" standalone="no"?>
<!DOCTYPE svg PUBLIC "-//W3C//DTD SVG 1.1//EN"
 "http://www.w3.org/Graphics/SVG/1.1/DTD/svg11.dtd">
<!-- Generated by graphviz version 2.38.0 (20140413.2041)
 -->
<!-- Title: controllers_diagram Pages: 1 -->
<svg width="1309pt" height="1027pt"
 viewBox="0.00 0.00 1309.21 1026.85" xmlns="http://www.w3.org/2000/svg" xmlns:xlink="http://www.w3.org/1999/xlink">
<g id="graph0" class="graph" transform="scale(1 1) rotate(0) translate(591.714 518.846)">
<title>controllers_diagram</title>
<polygon fill="white" stroke="none" points="-591.714,508 -591.714,-518.846 717.5,-518.846 717.5,508 -591.714,508"/>
<!-- _diagram_info -->
<g id="node1" class="node"><title>_diagram_info</title>
<text text-anchor="start" x="512.5" y="440.4" font-family="Times,serif" font-size="13.00">Controllers diagram</text>
<text text-anchor="start" x="512.5" y="454.4" font-family="Times,serif" font-size="13.00">Date: Mar 03 2015 &#45; 09:30</text>
<text text-anchor="start" x="512.5" y="468.4" font-family="Times,serif" font-size="13.00">Migration version: 20150301221325</text>
<text text-anchor="start" x="512.5" y="482.4" font-family="Times,serif" font-size="13.00">Generated by RailRoady 1.1.0</text>
<text text-anchor="start" x="512.5" y="496.4" font-family="Times,serif" font-size="13.00">http://railroady.prestonlee.com</text>
</g>
<!-- ReconectarController -->
<g id="node2" class="node"><title>ReconectarController</title>
<ellipse fill="none" stroke="black" cx="-498.672" cy="76.3245" rx="89.0842" ry="18"/>
<text text-anchor="middle" x="-498.672" y="80.0245" font-family="Times,serif" font-size="14.00">ReconectarController</text>
</g>
<!-- TreatmentsController -->
<g id="node3" class="node"><title>TreatmentsController</title>
<ellipse fill="none" stroke="black" cx="338.587" cy="-15.57" rx="87.9851" ry="18"/>
<text text-anchor="middle" x="338.587" y="-11.87" font-family="Times,serif" font-size="14.00">TreatmentsController</text>
</g>
<!-- TasksController -->
<g id="node4" class="node"><title>TasksController</title>
<ellipse fill="none" stroke="black" cx="-219.92" cy="481.799" rx="69.5877" ry="18"/>
<text text-anchor="middle" x="-219.92" y="485.499" font-family="Times,serif" font-size="14.00">TasksController</text>
</g>
<!-- ProvincesController -->
<g id="node5" class="node"><title>ProvincesController</title>
<ellipse fill="none" stroke="black" cx="-121.895" cy="-496.846" rx="83.3857" ry="18"/>
<text text-anchor="middle" x="-121.895" y="-493.146" font-family="Times,serif" font-size="14.00">ProvincesController</text>
</g>
<!-- SessionsController -->
<g id="node6" class="node"><title>SessionsController</title>
<ellipse fill="none" stroke="black" cx="194.495" cy="-263.093" rx="79.0865" ry="18"/>
<text text-anchor="middle" x="194.495" y="-259.393" font-family="Times,serif" font-size="14.00">SessionsController</text>
</g>
<!-- InternshipsUsersController -->
<g id="node7" class="node"><title>InternshipsUsersController</title>
<ellipse fill="none" stroke="black" cx="-145.04" cy="-286.451" rx="108.581" ry="18"/>
<text text-anchor="middle" x="-145.04" y="-282.751" font-family="Times,serif" font-size="14.00">InternshipsUsersController</text>
</g>
<!-- ContractsController -->
<g id="node8" class="node"><title>ContractsController</title>
<ellipse fill="none" stroke="black" cx="-484.559" cy="275.84" rx="83.3857" ry="18"/>
<text text-anchor="middle" x="-484.559" y="279.54" font-family="Times,serif" font-size="14.00">ContractsController</text>
</g>
<!-- SkillsController -->
<g id="node9" class="node"><title>SkillsController</title>
<ellipse fill="none" stroke="black" cx="436.981" cy="163.962" rx="66.8882" ry="18"/>
<text text-anchor="middle" x="436.981" y="167.662" font-family="Times,serif" font-size="14.00">SkillsController</text>
</g>
<!-- InternshipsTasksController -->
<g id="node10" class="node"><title>InternshipsTasksController</title>
<ellipse fill="none" stroke="black" cx="-284.156" cy="259.021" rx="109.381" ry="18"/>
<text text-anchor="middle" x="-284.156" y="262.721" font-family="Times,serif" font-size="14.00">InternshipsTasksController</text>
</g>
<!-- UsersController -->
<g id="node11" class="node"><title>UsersController</title>
<ellipse fill="none" stroke="black" cx="87.8628" cy="485.823" rx="68.4888" ry="18"/>
<text text-anchor="middle" x="87.8628" y="489.523" font-family="Times,serif" font-size="14.00">UsersController</text>
</g>
<!-- CompaniesController -->
<g id="node12" class="node"><title>CompaniesController</title>
<ellipse fill="none" stroke="black" cx="-79.9954" cy="374.158" rx="88.2844" ry="18"/>
<text text-anchor="middle" x="-79.9954" y="377.858" font-family="Times,serif" font-size="14.00">CompaniesController</text>
</g>
<!-- ApplicationController -->
<g id="node13" class="node"><title>ApplicationController</title>
<ellipse fill="none" stroke="black" cx="-40.399" cy="-1.1561" rx="89.0842" ry="18"/>
<text text-anchor="middle" x="-40.399" y="2.5439" font-family="Times,serif" font-size="14.00">ApplicationController</text>
</g>
<!-- ApplicationController&#45;&gt;ReconectarController -->
<g id="edge1" class="edge"><title>ApplicationController&#45;&gt;ReconectarController</title>
<path fill="none" stroke="black" d="M-109.007,10.4435C-195.651,25.0924 -343.834,50.1459 -430.345,64.7723"/>
</g>
<!-- ApplicationController&#45;&gt;TreatmentsController -->
<g id="edge2" class="edge"><title>ApplicationController&#45;&gt;TreatmentsController</title>
<path fill="none" stroke="black" d="M47.5005,-4.49918C109.054,-6.84026 190.914,-9.95363 252.144,-12.2824"/>
</g>
<!-- ApplicationController&#45;&gt;TasksController -->
<g id="edge3" class="edge"><title>ApplicationController&#45;&gt;TasksController</title>
<path fill="none" stroke="black" d="M-47.1088,16.8949C-75.4026,93.0121 -184.818,387.367 -213.176,463.657"/>
</g>
<!-- ApplicationController&#45;&gt;ProvincesController -->
<g id="edge4" class="edge"><title>ApplicationController&#45;&gt;ProvincesController</title>
<path fill="none" stroke="black" d="M-37.49,-19.4042C-30.7758,-64.9729 -16.1529,-187.233 -34.9027,-286.589 -49.0778,-361.703 -91.5246,-443.391 -111.406,-478.8"/>
</g>
<!-- ApplicationController&#45;&gt;SessionsController -->
<g id="edge5" class="edge"><title>ApplicationController&#45;&gt;SessionsController</title>
<path fill="none" stroke="black" d="M-24.2538,-19.1601C18.7613,-67.1273 135.76,-197.595 178.548,-245.309"/>
</g>
<!-- ApplicationController&#45;&gt;InternshipsUsersController -->
<g id="edge6" class="edge"><title>ApplicationController&#45;&gt;InternshipsUsersController</title>
<path fill="none" stroke="black" d="M-47.104,-19.4366C-66.0043,-70.9666 -119.559,-216.979 -138.391,-268.323"/>
</g>
<!-- ApplicationController&#45;&gt;ContractsController -->
<g id="edge7" class="edge"><title>ApplicationController&#45;&gt;ContractsController</title>
<path fill="none" stroke="black" d="M-68.1832,16.1712C-148.043,65.9751 -377.579,209.123 -457.069,258.696"/>
</g>
<!-- ApplicationController&#45;&gt;SkillsController -->
<g id="edge8" class="edge"><title>ApplicationController&#45;&gt;SkillsController</title>
<path fill="none" stroke="black" d="M4.94209,14.5267C97.4556,46.5258 306.73,118.911 395.704,149.686"/>
</g>
<!-- ApplicationController&#45;&gt;InternshipsTasksController -->
<g id="edge9" class="edge"><title>ApplicationController&#45;&gt;InternshipsTasksController</title>
<path fill="none" stroke="black" d="M-57.1534,16.727C-101.684,64.2573 -222.62,193.34 -267.284,241.013"/>
</g>
<!-- ApplicationController&#45;&gt;UsersController -->
<g id="edge10" class="edge"><title>ApplicationController&#45;&gt;UsersController</title>
<path fill="none" stroke="black" d="M-35.6051,17.0453C-15.3674,93.8831 62.9599,391.273 83.113,467.789"/>
</g>
<!-- ApplicationController&#45;&gt;CompaniesController -->
<g id="edge11" class="edge"><title>ApplicationController&#45;&gt;CompaniesController</title>
<path fill="none" stroke="black" d="M-42.3088,16.9461C-48.9979,80.3489 -71.327,291.995 -78.0583,355.798"/>
</g>
<!-- LandingController -->
<g id="node14" class="node"><title>LandingController</title>
<ellipse fill="none" stroke="black" cx="459.164" cy="-134.674" rx="76.8869" ry="18"/>
<text text-anchor="middle" x="459.164" y="-130.974" font-family="Times,serif" font-size="14.00">LandingController</text>
</g>
<!-- ApplicationController&#45;&gt;LandingController -->
<g id="edge12" class="edge"><title>ApplicationController&#45;&gt;LandingController</title>
<path fill="none" stroke="black" d="M13.5376,-15.5717C110.672,-41.5326 313.697,-95.795 408.44,-121.117"/>
</g>
<!-- InternshipsController -->
<g id="node15" class="node"><title>InternshipsController</title>
<ellipse fill="none" stroke="black" cx="321.6" cy="-370.977" rx="87.1846" ry="18"/>
<text text-anchor="middle" x="321.6" y="-367.277" font-family="Times,serif" font-size="14.00">InternshipsController</text>
</g>
<!-- ApplicationController&#45;&gt;InternshipsController -->
<g id="edge13" class="edge"><title>ApplicationController&#45;&gt;InternshipsController</title>
<path fill="none" stroke="black" d="M-11.6577,-18.2974C48.9469,-55.7253 191.174,-150.498 275.386,-263.222 296.34,-291.27 309.999,-330.271 316.707,-352.845"/>
</g>
<!-- LocalitiesController -->
<g id="node16" class="node"><title>LocalitiesController</title>
<ellipse fill="none" stroke="black" cx="89.7535" cy="-475.902" rx="81.7856" ry="18"/>
<text text-anchor="middle" x="89.7535" y="-472.202" font-family="Times,serif" font-size="14.00">LocalitiesController</text>
</g>
<!-- ApplicationController&#45;&gt;LocalitiesController -->
<g id="edge14" class="edge"><title>ApplicationController&#45;&gt;LocalitiesController</title>
<path fill="none" stroke="black" d="M-35.4558,-19.187C-14.8394,-94.3878 64.1796,-382.618 84.8054,-457.853"/>
</g>
<!-- StudiesController -->
<g id="node17" class="node"><title>StudiesController</title>
<ellipse fill="none" stroke="black" cx="185.147" cy="243.157" rx="74.187" ry="18"/>
<text text-anchor="middle" x="185.147" y="246.857" font-family="Times,serif" font-size="14.00">StudiesController</text>
</g>
<!-- ApplicationController&#45;&gt;StudiesController -->
<g id="edge15" class="edge"><title>ApplicationController&#45;&gt;StudiesController</title>
<path fill="none" stroke="black" d="M-23.8141,16.8088C17.9981,62.1 127.333,180.532 168.842,225.495"/>
</g>
<!-- AdminController -->
<g id="node18" class="node"><title>AdminController</title>
<ellipse fill="none" stroke="black" cx="309.503" cy="373.413" rx="71.4873" ry="18"/>
<text text-anchor="middle" x="309.503" y="377.113" font-family="Times,serif" font-size="14.00">AdminController</text>
</g>
<!-- ApplicationController&#45;&gt;AdminController -->
<g id="edge16" class="edge"><title>ApplicationController&#45;&gt;AdminController</title>
<path fill="none" stroke="black" d="M-32.7126,16.9447C-13.6975,60.1444 39.1436,171.047 109.455,243.268 159.457,294.627 233.236,336.006 275.822,357.438"/>
</g>
<!-- JobsController -->
<g id="node19" class="node"><title>JobsController</title>
<ellipse fill="none" stroke="black" cx="-453.309" cy="-249.416" rx="64.189" ry="18"/>
<text text-anchor="middle" x="-453.309" y="-245.716" font-family="Times,serif" font-size="14.00">JobsController</text>
</g>
<!-- ApplicationController&#45;&gt;JobsController -->
<g id="edge17" class="edge"><title>ApplicationController&#45;&gt;JobsController</title>
<path fill="none" stroke="black" d="M-68.78,-18.22C-144.668,-63.8471 -351.55,-188.234 -426.086,-233.048"/>
</g>
<!-- SituationsController -->
<g id="node20" class="node"><title>SituationsController</title>
<ellipse fill="none" stroke="black" cx="-484.77" cy="-85.2747" rx="83.3857" ry="18"/>
<text text-anchor="middle" x="-484.77" y="-81.5747" font-family="Times,serif" font-size="14.00">SituationsController</text>
</g>
<!-- ApplicationController&#45;&gt;SituationsController -->
<g id="edge18" class="edge"><title>ApplicationController&#45;&gt;SituationsController</title>
<path fill="none" stroke="black" d="M-105.49,-13.4778C-190.468,-29.5638 -338.214,-57.5319 -422.02,-73.3962"/>
</g>
<!-- TypesController -->
<g id="node21" class="node"><title>TypesController</title>
<ellipse fill="none" stroke="black" cx="-330.522" cy="-394.127" rx="70.3881" ry="18"/>
<text text-anchor="middle" x="-330.522" y="-390.427" font-family="Times,serif" font-size="14.00">TypesController</text>
</g>
<!-- ApplicationController&#45;&gt;TypesController -->
<g id="edge19" class="edge"><title>ApplicationController&#45;&gt;TypesController</title>
<path fill="none" stroke="black" d="M-54.1925,-19.0064C-88.6239,-63.6637 -180.92,-183.982 -255.178,-286.313 -277.844,-317.548 -303.419,-354.529 -318.185,-376.057"/>
</g>
</g>
</svg>
