<?xml version="1.0" encoding="UTF-8" standalone="no"?>
<!DOCTYPE svg PUBLIC "-//W3C//DTD SVG 1.1//EN"
 "http://www.w3.org/Graphics/SVG/1.1/DTD/svg11.dtd">
<!-- Generated by graphviz version 2.26.3 (20100126.1600)
 -->
<!-- Title: controllers_diagram Pages: 1 -->
<svg width="1729pt" height="1574pt"
 viewBox="0.00 0.00 1729.00 1574.33" xmlns="http://www.w3.org/2000/svg" xmlns:xlink="http://www.w3.org/1999/xlink">
<g id="graph1" class="graph" transform="scale(1 1) rotate(0) translate(4 1570.33)">
<title>controllers_diagram</title>
<polygon fill="white" stroke="white" points="-4,5 -4,-1570.33 1726,-1570.33 1726,5 -4,5"/>
<!-- _diagram_info -->
<g id="node1" class="node"><title>_diagram_info</title>
<text text-anchor="start" x="1478" y="-78.3" font-family="Times Roman,serif" font-size="13.00">Controllers diagram</text>
<text text-anchor="start" x="1478" y="-61.3" font-family="Times Roman,serif" font-size="13.00">Date: May 12 2013 &#45; 19:07</text>
<text text-anchor="start" x="1478" y="-44.3" font-family="Times Roman,serif" font-size="13.00">Migration version: 20130509000641</text>
<text text-anchor="start" x="1478" y="-27.3" font-family="Times Roman,serif" font-size="13.00">Generated by RailRoady 1.1.0</text>
<text text-anchor="start" x="1478" y="-10.3" font-family="Times Roman,serif" font-size="13.00">http://railroady.prestonlee.com</text>
</g>
<!-- CompaniesController -->
<g id="node2" class="node"><title>CompaniesController</title>
<polyline fill="none" stroke="black" points="13,-637.916 227,-637.916 "/>
<path fill="none" stroke="black" d="M227,-637.916C233,-637.916 239,-643.916 239,-649.916"/>
<polyline fill="none" stroke="black" points="239,-649.916 239,-853.916 "/>
<path fill="none" stroke="black" d="M239,-853.916C239,-859.916 233,-865.916 227,-865.916"/>
<polyline fill="none" stroke="black" points="227,-865.916 13,-865.916 "/>
<path fill="none" stroke="black" d="M13,-865.916C7,-865.916 1,-859.916 1,-853.916"/>
<polyline fill="none" stroke="black" points="1,-853.916 1,-649.916 "/>
<path fill="none" stroke="black" d="M1,-649.916C1,-643.916 7,-637.916 13,-637.916"/>
<text text-anchor="middle" x="120" y="-849.316" font-family="Times Roman,serif" font-size="14.00">CompaniesController</text>
<polyline fill="none" stroke="black" points="1,-839.916 239,-839.916 "/>
<text text-anchor="start" x="9" y="-823.316" font-family="Times Roman,serif" font-size="14.00">_one_time_conditions_valid_43?</text>
<text text-anchor="start" x="9" y="-805.316" font-family="Times Roman,serif" font-size="14.00">create</text>
<text text-anchor="start" x="9" y="-787.316" font-family="Times Roman,serif" font-size="14.00">destroy</text>
<text text-anchor="start" x="9" y="-769.316" font-family="Times Roman,serif" font-size="14.00">edit</text>
<text text-anchor="start" x="9" y="-751.316" font-family="Times Roman,serif" font-size="14.00">index</text>
<text text-anchor="start" x="9" y="-733.316" font-family="Times Roman,serif" font-size="14.00">new</text>
<text text-anchor="start" x="9" y="-715.316" font-family="Times Roman,serif" font-size="14.00">show</text>
<text text-anchor="start" x="9" y="-697.316" font-family="Times Roman,serif" font-size="14.00">update</text>
<polyline fill="none" stroke="black" points="1,-687.916 239,-687.916 "/>
<polyline fill="none" stroke="black" points="1,-663.916 239,-663.916 "/>
<text text-anchor="start" x="9" y="-647.316" font-family="Times Roman,serif" font-size="14.00">_layout</text>
</g>
<!-- AdminController -->
<g id="node3" class="node"><title>AdminController</title>
<polyline fill="none" stroke="black" points="1180.38,-1012.28 1285.38,-1012.28 "/>
<path fill="none" stroke="black" d="M1285.38,-1012.28C1291.38,-1012.28 1297.38,-1018.28 1297.38,-1024.28"/>
<polyline fill="none" stroke="black" points="1297.38,-1024.28 1297.38,-1102.28 "/>
<path fill="none" stroke="black" d="M1297.38,-1102.28C1297.38,-1108.28 1291.38,-1114.28 1285.38,-1114.28"/>
<polyline fill="none" stroke="black" points="1285.38,-1114.28 1180.38,-1114.28 "/>
<path fill="none" stroke="black" d="M1180.38,-1114.28C1174.38,-1114.28 1168.38,-1108.28 1168.38,-1102.28"/>
<polyline fill="none" stroke="black" points="1168.38,-1102.28 1168.38,-1024.28 "/>
<path fill="none" stroke="black" d="M1168.38,-1024.28C1168.38,-1018.28 1174.38,-1012.28 1180.38,-1012.28"/>
<text text-anchor="middle" x="1232.88" y="-1097.68" font-family="Times Roman,serif" font-size="14.00">AdminController</text>
<polyline fill="none" stroke="black" points="1168.38,-1088.28 1297.38,-1088.28 "/>
<text text-anchor="start" x="1176.38" y="-1071.68" font-family="Times Roman,serif" font-size="14.00">index</text>
<polyline fill="none" stroke="black" points="1168.38,-1062.28 1297.38,-1062.28 "/>
<polyline fill="none" stroke="black" points="1168.38,-1038.28 1297.38,-1038.28 "/>
<text text-anchor="start" x="1176.38" y="-1021.68" font-family="Times Roman,serif" font-size="14.00">_layout</text>
</g>
<!-- StudiesController -->
<g id="node4" class="node"><title>StudiesController</title>
<polyline fill="none" stroke="black" points="595.658,-1.5 708.658,-1.5 "/>
<path fill="none" stroke="black" d="M708.658,-1.5C714.658,-1.5 720.658,-7.5 720.658,-13.5"/>
<polyline fill="none" stroke="black" points="720.658,-13.5 720.658,-199.5 "/>
<path fill="none" stroke="black" d="M720.658,-199.5C720.658,-205.5 714.658,-211.5 708.658,-211.5"/>
<polyline fill="none" stroke="black" points="708.658,-211.5 595.658,-211.5 "/>
<path fill="none" stroke="black" d="M595.658,-211.5C589.658,-211.5 583.658,-205.5 583.658,-199.5"/>
<polyline fill="none" stroke="black" points="583.658,-199.5 583.658,-13.5 "/>
<path fill="none" stroke="black" d="M583.658,-13.5C583.658,-7.5 589.658,-1.5 595.658,-1.5"/>
<text text-anchor="middle" x="652.158" y="-194.9" font-family="Times Roman,serif" font-size="14.00">StudiesController</text>
<polyline fill="none" stroke="black" points="583.658,-185.5 720.658,-185.5 "/>
<text text-anchor="start" x="591.658" y="-168.9" font-family="Times Roman,serif" font-size="14.00">create</text>
<text text-anchor="start" x="591.658" y="-150.9" font-family="Times Roman,serif" font-size="14.00">destroy</text>
<text text-anchor="start" x="591.658" y="-132.9" font-family="Times Roman,serif" font-size="14.00">edit</text>
<text text-anchor="start" x="591.658" y="-114.9" font-family="Times Roman,serif" font-size="14.00">index</text>
<text text-anchor="start" x="591.658" y="-96.9" font-family="Times Roman,serif" font-size="14.00">new</text>
<text text-anchor="start" x="591.658" y="-78.9" font-family="Times Roman,serif" font-size="14.00">show</text>
<text text-anchor="start" x="591.658" y="-60.9" font-family="Times Roman,serif" font-size="14.00">update</text>
<polyline fill="none" stroke="black" points="583.658,-51.5 720.658,-51.5 "/>
<polyline fill="none" stroke="black" points="583.658,-27.5 720.658,-27.5 "/>
<text text-anchor="start" x="591.658" y="-10.9" font-family="Times Roman,serif" font-size="14.00">_layout</text>
</g>
<!-- InternshipsController -->
<g id="node5" class="node"><title>InternshipsController</title>
<polyline fill="none" stroke="black" points="396.34,-1318.83 610.34,-1318.83 "/>
<path fill="none" stroke="black" d="M610.34,-1318.83C616.34,-1318.83 622.34,-1324.83 622.34,-1330.83"/>
<polyline fill="none" stroke="black" points="622.34,-1330.83 622.34,-1552.83 "/>
<path fill="none" stroke="black" d="M622.34,-1552.83C622.34,-1558.83 616.34,-1564.83 610.34,-1564.83"/>
<polyline fill="none" stroke="black" points="610.34,-1564.83 396.34,-1564.83 "/>
<path fill="none" stroke="black" d="M396.34,-1564.83C390.34,-1564.83 384.34,-1558.83 384.34,-1552.83"/>
<polyline fill="none" stroke="black" points="384.34,-1552.83 384.34,-1330.83 "/>
<path fill="none" stroke="black" d="M384.34,-1330.83C384.34,-1324.83 390.34,-1318.83 396.34,-1318.83"/>
<text text-anchor="middle" x="503.34" y="-1548.23" font-family="Times Roman,serif" font-size="14.00">InternshipsController</text>
<polyline fill="none" stroke="black" points="384.34,-1538.83 622.34,-1538.83 "/>
<text text-anchor="start" x="392.34" y="-1522.23" font-family="Times Roman,serif" font-size="14.00">_one_time_conditions_valid_85?</text>
<text text-anchor="start" x="392.34" y="-1504.23" font-family="Times Roman,serif" font-size="14.00">create</text>
<text text-anchor="start" x="392.34" y="-1486.23" font-family="Times Roman,serif" font-size="14.00">destroy</text>
<text text-anchor="start" x="392.34" y="-1468.23" font-family="Times Roman,serif" font-size="14.00">edit</text>
<text text-anchor="start" x="392.34" y="-1450.23" font-family="Times Roman,serif" font-size="14.00">index</text>
<text text-anchor="start" x="392.34" y="-1432.23" font-family="Times Roman,serif" font-size="14.00">new</text>
<text text-anchor="start" x="392.34" y="-1414.23" font-family="Times Roman,serif" font-size="14.00">postularme</text>
<text text-anchor="start" x="392.34" y="-1396.23" font-family="Times Roman,serif" font-size="14.00">show</text>
<text text-anchor="start" x="392.34" y="-1378.23" font-family="Times Roman,serif" font-size="14.00">update</text>
<polyline fill="none" stroke="black" points="384.34,-1368.83 622.34,-1368.83 "/>
<polyline fill="none" stroke="black" points="384.34,-1344.83 622.34,-1344.83 "/>
<text text-anchor="start" x="392.34" y="-1328.23" font-family="Times Roman,serif" font-size="14.00">_layout</text>
</g>
<!-- ProvincesController -->
<g id="node6" class="node"><title>ProvincesController</title>
<polyline fill="none" stroke="black" points="738.98,-939.911 866.98,-939.911 "/>
<path fill="none" stroke="black" d="M866.98,-939.911C872.98,-939.911 878.98,-945.911 878.98,-951.911"/>
<polyline fill="none" stroke="black" points="878.98,-951.911 878.98,-1137.91 "/>
<path fill="none" stroke="black" d="M878.98,-1137.91C878.98,-1143.91 872.98,-1149.91 866.98,-1149.91"/>
<polyline fill="none" stroke="black" points="866.98,-1149.91 738.98,-1149.91 "/>
<path fill="none" stroke="black" d="M738.98,-1149.91C732.98,-1149.91 726.98,-1143.91 726.98,-1137.91"/>
<polyline fill="none" stroke="black" points="726.98,-1137.91 726.98,-951.911 "/>
<path fill="none" stroke="black" d="M726.98,-951.911C726.98,-945.911 732.98,-939.911 738.98,-939.911"/>
<text text-anchor="middle" x="802.98" y="-1133.31" font-family="Times Roman,serif" font-size="14.00">ProvincesController</text>
<polyline fill="none" stroke="black" points="726.98,-1123.91 878.98,-1123.91 "/>
<text text-anchor="start" x="734.98" y="-1107.31" font-family="Times Roman,serif" font-size="14.00">create</text>
<text text-anchor="start" x="734.98" y="-1089.31" font-family="Times Roman,serif" font-size="14.00">destroy</text>
<text text-anchor="start" x="734.98" y="-1071.31" font-family="Times Roman,serif" font-size="14.00">edit</text>
<text text-anchor="start" x="734.98" y="-1053.31" font-family="Times Roman,serif" font-size="14.00">index</text>
<text text-anchor="start" x="734.98" y="-1035.31" font-family="Times Roman,serif" font-size="14.00">new</text>
<text text-anchor="start" x="734.98" y="-1017.31" font-family="Times Roman,serif" font-size="14.00">show</text>
<text text-anchor="start" x="734.98" y="-999.311" font-family="Times Roman,serif" font-size="14.00">update</text>
<polyline fill="none" stroke="black" points="726.98,-989.911 878.98,-989.911 "/>
<polyline fill="none" stroke="black" points="726.98,-965.911 878.98,-965.911 "/>
<text text-anchor="start" x="734.98" y="-949.311" font-family="Times Roman,serif" font-size="14.00">_layout</text>
</g>
<!-- ContractsController -->
<g id="node7" class="node"><title>ContractsController</title>
<polyline fill="none" stroke="black" points="356.573,-892.78 484.573,-892.78 "/>
<path fill="none" stroke="black" d="M484.573,-892.78C490.573,-892.78 496.573,-898.78 496.573,-904.78"/>
<polyline fill="none" stroke="black" points="496.573,-904.78 496.573,-1162.78 "/>
<path fill="none" stroke="black" d="M496.573,-1162.78C496.573,-1168.78 490.573,-1174.78 484.573,-1174.78"/>
<polyline fill="none" stroke="black" points="484.573,-1174.78 356.573,-1174.78 "/>
<path fill="none" stroke="black" d="M356.573,-1174.78C350.573,-1174.78 344.573,-1168.78 344.573,-1162.78"/>
<polyline fill="none" stroke="black" points="344.573,-1162.78 344.573,-904.78 "/>
<path fill="none" stroke="black" d="M344.573,-904.78C344.573,-898.78 350.573,-892.78 356.573,-892.78"/>
<text text-anchor="middle" x="420.573" y="-1158.18" font-family="Times Roman,serif" font-size="14.00">ContractsController</text>
<polyline fill="none" stroke="black" points="344.573,-1148.78 496.573,-1148.78 "/>
<text text-anchor="start" x="352.573" y="-1132.18" font-family="Times Roman,serif" font-size="14.00">cm</text>
<text text-anchor="start" x="352.573" y="-1114.18" font-family="Times Roman,serif" font-size="14.00">create</text>
<text text-anchor="start" x="352.573" y="-1096.18" font-family="Times Roman,serif" font-size="14.00">destroy</text>
<text text-anchor="start" x="352.573" y="-1078.18" font-family="Times Roman,serif" font-size="14.00">edit</text>
<text text-anchor="start" x="352.573" y="-1060.18" font-family="Times Roman,serif" font-size="14.00">imprimirmeci</text>
<text text-anchor="start" x="352.573" y="-1042.18" font-family="Times Roman,serif" font-size="14.00">imprimirmecm</text>
<text text-anchor="start" x="352.573" y="-1024.18" font-family="Times Roman,serif" font-size="14.00">index</text>
<text text-anchor="start" x="352.573" y="-1006.18" font-family="Times Roman,serif" font-size="14.00">new</text>
<text text-anchor="start" x="352.573" y="-988.18" font-family="Times Roman,serif" font-size="14.00">redactarme</text>
<text text-anchor="start" x="352.573" y="-970.18" font-family="Times Roman,serif" font-size="14.00">show</text>
<text text-anchor="start" x="352.573" y="-952.18" font-family="Times Roman,serif" font-size="14.00">update</text>
<polyline fill="none" stroke="black" points="344.573,-942.78 496.573,-942.78 "/>
<polyline fill="none" stroke="black" points="344.573,-918.78 496.573,-918.78 "/>
<text text-anchor="start" x="352.573" y="-902.18" font-family="Times Roman,serif" font-size="14.00">_layout</text>
</g>
<!-- LandingController -->
<g id="node8" class="node"><title>LandingController</title>
<polyline fill="none" stroke="black" points="101.214,-137.124 217.214,-137.124 "/>
<path fill="none" stroke="black" d="M217.214,-137.124C223.214,-137.124 229.214,-143.124 229.214,-149.124"/>
<polyline fill="none" stroke="black" points="229.214,-149.124 229.214,-227.124 "/>
<path fill="none" stroke="black" d="M229.214,-227.124C229.214,-233.124 223.214,-239.124 217.214,-239.124"/>
<polyline fill="none" stroke="black" points="217.214,-239.124 101.214,-239.124 "/>
<path fill="none" stroke="black" d="M101.214,-239.124C95.214,-239.124 89.214,-233.124 89.214,-227.124"/>
<polyline fill="none" stroke="black" points="89.214,-227.124 89.214,-149.124 "/>
<path fill="none" stroke="black" d="M89.214,-149.124C89.214,-143.124 95.214,-137.124 101.214,-137.124"/>
<text text-anchor="middle" x="159.214" y="-222.524" font-family="Times Roman,serif" font-size="14.00">LandingController</text>
<polyline fill="none" stroke="black" points="89.214,-213.124 229.214,-213.124 "/>
<text text-anchor="start" x="97.214" y="-196.524" font-family="Times Roman,serif" font-size="14.00">bienvenida</text>
<polyline fill="none" stroke="black" points="89.214,-187.124 229.214,-187.124 "/>
<polyline fill="none" stroke="black" points="89.214,-163.124 229.214,-163.124 "/>
<text text-anchor="start" x="97.214" y="-146.524" font-family="Times Roman,serif" font-size="14.00">_layout</text>
</g>
<!-- ApplicationController -->
<g id="node9" class="node"><title>ApplicationController</title>
<polyline fill="none" stroke="black" points="791.578,-680.738 1005.58,-680.738 "/>
<path fill="none" stroke="black" d="M1005.58,-680.738C1011.58,-680.738 1017.58,-686.738 1017.58,-692.738"/>
<polyline fill="none" stroke="black" points="1017.58,-692.738 1017.58,-790.738 "/>
<path fill="none" stroke="black" d="M1017.58,-790.738C1017.58,-796.738 1011.58,-802.738 1005.58,-802.738"/>
<polyline fill="none" stroke="black" points="1005.58,-802.738 791.578,-802.738 "/>
<path fill="none" stroke="black" d="M791.578,-802.738C785.578,-802.738 779.578,-796.738 779.578,-790.738"/>
<polyline fill="none" stroke="black" points="779.578,-790.738 779.578,-692.738 "/>
<path fill="none" stroke="black" d="M779.578,-692.738C779.578,-686.738 785.578,-680.738 791.578,-680.738"/>
<text text-anchor="middle" x="898.578" y="-786.138" font-family="Times Roman,serif" font-size="14.00">ApplicationController</text>
<polyline fill="none" stroke="black" points="779.578,-776.738 1017.58,-776.738 "/>
<text text-anchor="start" x="787.578" y="-760.138" font-family="Times Roman,serif" font-size="14.00">_one_time_conditions_valid_10?</text>
<text text-anchor="start" x="787.578" y="-742.138" font-family="Times Roman,serif" font-size="14.00">_one_time_conditions_valid_8?</text>
<polyline fill="none" stroke="black" points="779.578,-732.738 1017.58,-732.738 "/>
<text text-anchor="start" x="787.578" y="-716.138" font-family="Times Roman,serif" font-size="14.00">authorize</text>
<polyline fill="none" stroke="black" points="779.578,-706.738 1017.58,-706.738 "/>
<text text-anchor="start" x="787.578" y="-690.138" font-family="Times Roman,serif" font-size="14.00">_layout</text>
</g>
<!-- ApplicationController&#45;&gt;CompaniesController -->
<g id="edge2" class="edge"><title>ApplicationController&#45;&gt;CompaniesController</title>
<path fill="none" stroke="black" d="M779.345,-688.154C747.052,-676.113 711.655,-665.092 677.825,-658.958 526.759,-631.565 352.109,-672.323 239.053,-708.194"/>
</g>
<!-- ApplicationController&#45;&gt;AdminController -->
<g id="edge4" class="edge"><title>ApplicationController&#45;&gt;AdminController</title>
<path fill="none" stroke="black" d="M962.244,-802.974C1025.23,-863.559 1120.55,-955.236 1179.63,-1012.07"/>
</g>
<!-- ApplicationController&#45;&gt;StudiesController -->
<g id="edge6" class="edge"><title>ApplicationController&#45;&gt;StudiesController</title>
<path fill="none" stroke="black" d="M852.857,-680.596C826.514,-643.023 794.486,-593.004 773.08,-544.852 724.574,-435.744 691.175,-302.547 671.963,-211.812"/>
</g>
<!-- ApplicationController&#45;&gt;InternshipsController -->
<g id="edge8" class="edge"><title>ApplicationController&#45;&gt;InternshipsController</title>
<path fill="none" stroke="black" d="M834.354,-802.938C798.598,-839.396 755.117,-887.949 723.78,-936.711 645.475,-1058.56 582.699,-1212.92 544.466,-1318.74"/>
</g>
<!-- ApplicationController&#45;&gt;ProvincesController -->
<g id="edge10" class="edge"><title>ApplicationController&#45;&gt;ProvincesController</title>
<path fill="none" stroke="black" d="M879.233,-803.089C866.875,-842.279 850.528,-894.12 836.14,-939.75"/>
</g>
<!-- ApplicationController&#45;&gt;ContractsController -->
<g id="edge12" class="edge"><title>ApplicationController&#45;&gt;ContractsController</title>
<path fill="none" stroke="black" d="M798.664,-802.781C708.757,-857.711 578.577,-937.246 496.812,-987.2"/>
</g>
<!-- ApplicationController&#45;&gt;LandingController -->
<g id="edge14" class="edge"><title>ApplicationController&#45;&gt;LandingController</title>
<path fill="none" stroke="black" d="M860.366,-680.438C807.956,-600.634 706.859,-461.114 590.092,-374.161 476.709,-289.728 319.1,-234.29 229.292,-207.327"/>
</g>
<!-- InternshipsTasksController -->
<g id="node10" class="node"><title>InternshipsTasksController</title>
<polyline fill="none" stroke="black" points="486.625,-662.158 662.625,-662.158 "/>
<path fill="none" stroke="black" d="M662.625,-662.158C668.625,-662.158 674.625,-668.158 674.625,-674.158"/>
<polyline fill="none" stroke="black" points="674.625,-674.158 674.625,-860.158 "/>
<path fill="none" stroke="black" d="M674.625,-860.158C674.625,-866.158 668.625,-872.158 662.625,-872.158"/>
<polyline fill="none" stroke="black" points="662.625,-872.158 486.625,-872.158 "/>
<path fill="none" stroke="black" d="M486.625,-872.158C480.625,-872.158 474.625,-866.158 474.625,-860.158"/>
<polyline fill="none" stroke="black" points="474.625,-860.158 474.625,-674.158 "/>
<path fill="none" stroke="black" d="M474.625,-674.158C474.625,-668.158 480.625,-662.158 486.625,-662.158"/>
<text text-anchor="middle" x="574.625" y="-855.558" font-family="Times Roman,serif" font-size="14.00">InternshipsTasksController</text>
<polyline fill="none" stroke="black" points="474.625,-846.158 674.625,-846.158 "/>
<text text-anchor="start" x="482.625" y="-829.558" font-family="Times Roman,serif" font-size="14.00">create</text>
<text text-anchor="start" x="482.625" y="-811.558" font-family="Times Roman,serif" font-size="14.00">destroy</text>
<text text-anchor="start" x="482.625" y="-793.558" font-family="Times Roman,serif" font-size="14.00">edit</text>
<text text-anchor="start" x="482.625" y="-775.558" font-family="Times Roman,serif" font-size="14.00">index</text>
<text text-anchor="start" x="482.625" y="-757.558" font-family="Times Roman,serif" font-size="14.00">new</text>
<text text-anchor="start" x="482.625" y="-739.558" font-family="Times Roman,serif" font-size="14.00">show</text>
<text text-anchor="start" x="482.625" y="-721.558" font-family="Times Roman,serif" font-size="14.00">update</text>
<polyline fill="none" stroke="black" points="474.625,-712.158 674.625,-712.158 "/>
<polyline fill="none" stroke="black" points="474.625,-688.158 674.625,-688.158 "/>
<text text-anchor="start" x="482.625" y="-671.558" font-family="Times Roman,serif" font-size="14.00">_layout</text>
</g>
<!-- ApplicationController&#45;&gt;InternshipsTasksController -->
<g id="edge16" class="edge"><title>ApplicationController&#45;&gt;InternshipsTasksController</title>
<path fill="none" stroke="black" d="M779.33,-751.095C744.962,-753.792 707.83,-756.705 674.749,-759.301"/>
</g>
<!-- TasksController -->
<g id="node11" class="node"><title>TasksController</title>
<polyline fill="none" stroke="black" points="1146.99,-5.89156 1244.99,-5.89156 "/>
<path fill="none" stroke="black" d="M1244.99,-5.89156C1250.99,-5.89156 1256.99,-11.8916 1256.99,-17.8916"/>
<polyline fill="none" stroke="black" points="1256.99,-17.8916 1256.99,-203.892 "/>
<path fill="none" stroke="black" d="M1256.99,-203.892C1256.99,-209.892 1250.99,-215.892 1244.99,-215.892"/>
<polyline fill="none" stroke="black" points="1244.99,-215.892 1146.99,-215.892 "/>
<path fill="none" stroke="black" d="M1146.99,-215.892C1140.99,-215.892 1134.99,-209.892 1134.99,-203.892"/>
<polyline fill="none" stroke="black" points="1134.99,-203.892 1134.99,-17.8916 "/>
<path fill="none" stroke="black" d="M1134.99,-17.8916C1134.99,-11.8916 1140.99,-5.89156 1146.99,-5.89156"/>
<text text-anchor="middle" x="1195.99" y="-199.292" font-family="Times Roman,serif" font-size="14.00">TasksController</text>
<polyline fill="none" stroke="black" points="1134.99,-189.892 1256.99,-189.892 "/>
<text text-anchor="start" x="1142.99" y="-173.292" font-family="Times Roman,serif" font-size="14.00">create</text>
<text text-anchor="start" x="1142.99" y="-155.292" font-family="Times Roman,serif" font-size="14.00">destroy</text>
<text text-anchor="start" x="1142.99" y="-137.292" font-family="Times Roman,serif" font-size="14.00">edit</text>
<text text-anchor="start" x="1142.99" y="-119.292" font-family="Times Roman,serif" font-size="14.00">index</text>
<text text-anchor="start" x="1142.99" y="-101.292" font-family="Times Roman,serif" font-size="14.00">new</text>
<text text-anchor="start" x="1142.99" y="-83.2916" font-family="Times Roman,serif" font-size="14.00">show</text>
<text text-anchor="start" x="1142.99" y="-65.2916" font-family="Times Roman,serif" font-size="14.00">update</text>
<polyline fill="none" stroke="black" points="1134.99,-55.8916 1256.99,-55.8916 "/>
<polyline fill="none" stroke="black" points="1134.99,-31.8916 1256.99,-31.8916 "/>
<text text-anchor="start" x="1142.99" y="-15.2916" font-family="Times Roman,serif" font-size="14.00">_layout</text>
</g>
<!-- ApplicationController&#45;&gt;TasksController -->
<g id="edge18" class="edge"><title>ApplicationController&#45;&gt;TasksController</title>
<path fill="none" stroke="black" d="M927.366,-680.676C978.06,-573.147 1083.81,-348.837 1146.44,-215.986"/>
</g>
<!-- UsersController -->
<g id="node12" class="node"><title>UsersController</title>
<polyline fill="none" stroke="black" points="351.892,-377.361 574.892,-377.361 "/>
<path fill="none" stroke="black" d="M574.892,-377.361C580.892,-377.361 586.892,-383.361 586.892,-389.361"/>
<polyline fill="none" stroke="black" points="586.892,-389.361 586.892,-593.361 "/>
<path fill="none" stroke="black" d="M586.892,-593.361C586.892,-599.361 580.892,-605.361 574.892,-605.361"/>
<polyline fill="none" stroke="black" points="574.892,-605.361 351.892,-605.361 "/>
<path fill="none" stroke="black" d="M351.892,-605.361C345.892,-605.361 339.892,-599.361 339.892,-593.361"/>
<polyline fill="none" stroke="black" points="339.892,-593.361 339.892,-389.361 "/>
<path fill="none" stroke="black" d="M339.892,-389.361C339.892,-383.361 345.892,-377.361 351.892,-377.361"/>
<text text-anchor="middle" x="463.392" y="-588.761" font-family="Times Roman,serif" font-size="14.00">UsersController</text>
<polyline fill="none" stroke="black" points="339.892,-579.361 586.892,-579.361 "/>
<text text-anchor="start" x="347.892" y="-562.761" font-family="Times Roman,serif" font-size="14.00">_one_time_conditions_valid_191?</text>
<text text-anchor="start" x="347.892" y="-544.761" font-family="Times Roman,serif" font-size="14.00">create</text>
<text text-anchor="start" x="347.892" y="-526.761" font-family="Times Roman,serif" font-size="14.00">destroy</text>
<text text-anchor="start" x="347.892" y="-508.761" font-family="Times Roman,serif" font-size="14.00">edit</text>
<text text-anchor="start" x="347.892" y="-490.761" font-family="Times Roman,serif" font-size="14.00">index</text>
<text text-anchor="start" x="347.892" y="-472.761" font-family="Times Roman,serif" font-size="14.00">new</text>
<text text-anchor="start" x="347.892" y="-454.761" font-family="Times Roman,serif" font-size="14.00">show</text>
<text text-anchor="start" x="347.892" y="-436.761" font-family="Times Roman,serif" font-size="14.00">update</text>
<polyline fill="none" stroke="black" points="339.892,-427.361 586.892,-427.361 "/>
<polyline fill="none" stroke="black" points="339.892,-403.361 586.892,-403.361 "/>
<text text-anchor="start" x="347.892" y="-386.761" font-family="Times Roman,serif" font-size="14.00">_layout</text>
</g>
<!-- ApplicationController&#45;&gt;UsersController -->
<g id="edge20" class="edge"><title>ApplicationController&#45;&gt;UsersController</title>
<path fill="none" stroke="black" d="M792.398,-680.649C730.375,-644.965 651.814,-599.766 587.014,-562.485"/>
</g>
<!-- SituationsController -->
<g id="node13" class="node"><title>SituationsController</title>
<polyline fill="none" stroke="black" points="52.4331,-1241.02 183.433,-1241.02 "/>
<path fill="none" stroke="black" d="M183.433,-1241.02C189.433,-1241.02 195.433,-1247.02 195.433,-1253.02"/>
<polyline fill="none" stroke="black" points="195.433,-1253.02 195.433,-1439.02 "/>
<path fill="none" stroke="black" d="M195.433,-1439.02C195.433,-1445.02 189.433,-1451.02 183.433,-1451.02"/>
<polyline fill="none" stroke="black" points="183.433,-1451.02 52.4331,-1451.02 "/>
<path fill="none" stroke="black" d="M52.4331,-1451.02C46.4331,-1451.02 40.4331,-1445.02 40.4331,-1439.02"/>
<polyline fill="none" stroke="black" points="40.4331,-1439.02 40.4331,-1253.02 "/>
<path fill="none" stroke="black" d="M40.4331,-1253.02C40.4331,-1247.02 46.4331,-1241.02 52.4331,-1241.02"/>
<text text-anchor="middle" x="117.933" y="-1434.42" font-family="Times Roman,serif" font-size="14.00">SituationsController</text>
<polyline fill="none" stroke="black" points="40.4331,-1425.02 195.433,-1425.02 "/>
<text text-anchor="start" x="48.4331" y="-1408.42" font-family="Times Roman,serif" font-size="14.00">create</text>
<text text-anchor="start" x="48.4331" y="-1390.42" font-family="Times Roman,serif" font-size="14.00">destroy</text>
<text text-anchor="start" x="48.4331" y="-1372.42" font-family="Times Roman,serif" font-size="14.00">edit</text>
<text text-anchor="start" x="48.4331" y="-1354.42" font-family="Times Roman,serif" font-size="14.00">index</text>
<text text-anchor="start" x="48.4331" y="-1336.42" font-family="Times Roman,serif" font-size="14.00">new</text>
<text text-anchor="start" x="48.4331" y="-1318.42" font-family="Times Roman,serif" font-size="14.00">show</text>
<text text-anchor="start" x="48.4331" y="-1300.42" font-family="Times Roman,serif" font-size="14.00">update</text>
<polyline fill="none" stroke="black" points="40.4331,-1291.02 195.433,-1291.02 "/>
<polyline fill="none" stroke="black" points="40.4331,-1267.02 195.433,-1267.02 "/>
<text text-anchor="start" x="48.4331" y="-1250.42" font-family="Times Roman,serif" font-size="14.00">_layout</text>
</g>
<!-- ApplicationController&#45;&gt;SituationsController -->
<g id="edge22" class="edge"><title>ApplicationController&#45;&gt;SituationsController</title>
<path fill="none" stroke="black" d="M843.695,-803.103C739.155,-919.801 520.017,-1163.45 499.773,-1177.98 404.295,-1246.49 276.462,-1295.65 195.639,-1322.48"/>
</g>
<!-- SkillsController -->
<g id="node14" class="node"><title>SkillsController</title>
<polyline fill="none" stroke="black" points="1229.36,-676.848 1326.36,-676.848 "/>
<path fill="none" stroke="black" d="M1326.36,-676.848C1332.36,-676.848 1338.36,-682.848 1338.36,-688.848"/>
<polyline fill="none" stroke="black" points="1338.36,-688.848 1338.36,-874.848 "/>
<path fill="none" stroke="black" d="M1338.36,-874.848C1338.36,-880.848 1332.36,-886.848 1326.36,-886.848"/>
<polyline fill="none" stroke="black" points="1326.36,-886.848 1229.36,-886.848 "/>
<path fill="none" stroke="black" d="M1229.36,-886.848C1223.36,-886.848 1217.36,-880.848 1217.36,-874.848"/>
<polyline fill="none" stroke="black" points="1217.36,-874.848 1217.36,-688.848 "/>
<path fill="none" stroke="black" d="M1217.36,-688.848C1217.36,-682.848 1223.36,-676.848 1229.36,-676.848"/>
<text text-anchor="middle" x="1277.86" y="-870.248" font-family="Times Roman,serif" font-size="14.00">SkillsController</text>
<polyline fill="none" stroke="black" points="1217.36,-860.848 1338.36,-860.848 "/>
<text text-anchor="start" x="1225.36" y="-844.248" font-family="Times Roman,serif" font-size="14.00">create</text>
<text text-anchor="start" x="1225.36" y="-826.248" font-family="Times Roman,serif" font-size="14.00">destroy</text>
<text text-anchor="start" x="1225.36" y="-808.248" font-family="Times Roman,serif" font-size="14.00">edit</text>
<text text-anchor="start" x="1225.36" y="-790.248" font-family="Times Roman,serif" font-size="14.00">index</text>
<text text-anchor="start" x="1225.36" y="-772.248" font-family="Times Roman,serif" font-size="14.00">new</text>
<text text-anchor="start" x="1225.36" y="-754.248" font-family="Times Roman,serif" font-size="14.00">show</text>
<text text-anchor="start" x="1225.36" y="-736.248" font-family="Times Roman,serif" font-size="14.00">update</text>
<polyline fill="none" stroke="black" points="1217.36,-726.848 1338.36,-726.848 "/>
<polyline fill="none" stroke="black" points="1217.36,-702.848 1338.36,-702.848 "/>
<text text-anchor="start" x="1225.36" y="-686.248" font-family="Times Roman,serif" font-size="14.00">_layout</text>
</g>
<!-- ApplicationController&#45;&gt;SkillsController -->
<g id="edge24" class="edge"><title>ApplicationController&#45;&gt;SkillsController</title>
<path fill="none" stroke="black" d="M1017.81,-754.346C1084.05,-761.352 1163.66,-769.77 1217.2,-775.432"/>
</g>
<!-- JobsController -->
<g id="node15" class="node"><title>JobsController</title>
<polyline fill="none" stroke="black" points="1218.57,-1328.82 1307.57,-1328.82 "/>
<path fill="none" stroke="black" d="M1307.57,-1328.82C1313.57,-1328.82 1319.57,-1334.82 1319.57,-1340.82"/>
<polyline fill="none" stroke="black" points="1319.57,-1340.82 1319.57,-1526.82 "/>
<path fill="none" stroke="black" d="M1319.57,-1526.82C1319.57,-1532.82 1313.57,-1538.82 1307.57,-1538.82"/>
<polyline fill="none" stroke="black" points="1307.57,-1538.82 1218.57,-1538.82 "/>
<path fill="none" stroke="black" d="M1218.57,-1538.82C1212.57,-1538.82 1206.57,-1532.82 1206.57,-1526.82"/>
<polyline fill="none" stroke="black" points="1206.57,-1526.82 1206.57,-1340.82 "/>
<path fill="none" stroke="black" d="M1206.57,-1340.82C1206.57,-1334.82 1212.57,-1328.82 1218.57,-1328.82"/>
<text text-anchor="middle" x="1263.07" y="-1522.22" font-family="Times Roman,serif" font-size="14.00">JobsController</text>
<polyline fill="none" stroke="black" points="1206.57,-1512.82 1319.57,-1512.82 "/>
<text text-anchor="start" x="1214.57" y="-1496.22" font-family="Times Roman,serif" font-size="14.00">create</text>
<text text-anchor="start" x="1214.57" y="-1478.22" font-family="Times Roman,serif" font-size="14.00">destroy</text>
<text text-anchor="start" x="1214.57" y="-1460.22" font-family="Times Roman,serif" font-size="14.00">edit</text>
<text text-anchor="start" x="1214.57" y="-1442.22" font-family="Times Roman,serif" font-size="14.00">index</text>
<text text-anchor="start" x="1214.57" y="-1424.22" font-family="Times Roman,serif" font-size="14.00">new</text>
<text text-anchor="start" x="1214.57" y="-1406.22" font-family="Times Roman,serif" font-size="14.00">show</text>
<text text-anchor="start" x="1214.57" y="-1388.22" font-family="Times Roman,serif" font-size="14.00">update</text>
<polyline fill="none" stroke="black" points="1206.57,-1378.82 1319.57,-1378.82 "/>
<polyline fill="none" stroke="black" points="1206.57,-1354.82 1319.57,-1354.82 "/>
<text text-anchor="start" x="1214.57" y="-1338.22" font-family="Times Roman,serif" font-size="14.00">_layout</text>
</g>
<!-- ApplicationController&#45;&gt;JobsController -->
<g id="edge26" class="edge"><title>ApplicationController&#45;&gt;JobsController</title>
<path fill="none" stroke="black" d="M930.764,-802.852C993.002,-921.029 1130.5,-1182.11 1207.7,-1328.7"/>
</g>
<!-- InternshipsUsersController -->
<g id="node16" class="node"><title>InternshipsUsersController</title>
<polyline fill="none" stroke="black" points="769.867,-1318.63 946.867,-1318.63 "/>
<path fill="none" stroke="black" d="M946.867,-1318.63C952.867,-1318.63 958.867,-1324.63 958.867,-1330.63"/>
<polyline fill="none" stroke="black" points="958.867,-1330.63 958.867,-1516.63 "/>
<path fill="none" stroke="black" d="M958.867,-1516.63C958.867,-1522.63 952.867,-1528.63 946.867,-1528.63"/>
<polyline fill="none" stroke="black" points="946.867,-1528.63 769.867,-1528.63 "/>
<path fill="none" stroke="black" d="M769.867,-1528.63C763.867,-1528.63 757.867,-1522.63 757.867,-1516.63"/>
<polyline fill="none" stroke="black" points="757.867,-1516.63 757.867,-1330.63 "/>
<path fill="none" stroke="black" d="M757.867,-1330.63C757.867,-1324.63 763.867,-1318.63 769.867,-1318.63"/>
<text text-anchor="middle" x="858.367" y="-1512.03" font-family="Times Roman,serif" font-size="14.00">InternshipsUsersController</text>
<polyline fill="none" stroke="black" points="757.867,-1502.63 958.867,-1502.63 "/>
<text text-anchor="start" x="765.867" y="-1486.03" font-family="Times Roman,serif" font-size="14.00">create</text>
<text text-anchor="start" x="765.867" y="-1468.03" font-family="Times Roman,serif" font-size="14.00">destroy</text>
<text text-anchor="start" x="765.867" y="-1450.03" font-family="Times Roman,serif" font-size="14.00">edit</text>
<text text-anchor="start" x="765.867" y="-1432.03" font-family="Times Roman,serif" font-size="14.00">index</text>
<text text-anchor="start" x="765.867" y="-1414.03" font-family="Times Roman,serif" font-size="14.00">new</text>
<text text-anchor="start" x="765.867" y="-1396.03" font-family="Times Roman,serif" font-size="14.00">show</text>
<text text-anchor="start" x="765.867" y="-1378.03" font-family="Times Roman,serif" font-size="14.00">update</text>
<polyline fill="none" stroke="black" points="757.867,-1368.63 958.867,-1368.63 "/>
<polyline fill="none" stroke="black" points="757.867,-1344.63 958.867,-1344.63 "/>
<text text-anchor="start" x="765.867" y="-1328.03" font-family="Times Roman,serif" font-size="14.00">_layout</text>
</g>
<!-- ApplicationController&#45;&gt;InternshipsUsersController -->
<g id="edge28" class="edge"><title>ApplicationController&#45;&gt;InternshipsUsersController</title>
<path fill="none" stroke="black" d="M897.06,-802.771C894.851,-883.138 890.123,-1028.82 882.18,-1153.11 878.692,-1207.69 873.476,-1268.35 868.813,-1318.38"/>
</g>
<!-- LocalitiesController -->
<g id="node17" class="node"><title>LocalitiesController</title>
<polyline fill="none" stroke="black" points="788.28,-331.652 913.28,-331.652 "/>
<path fill="none" stroke="black" d="M913.28,-331.652C919.28,-331.652 925.28,-337.652 925.28,-343.652"/>
<polyline fill="none" stroke="black" points="925.28,-343.652 925.28,-529.652 "/>
<path fill="none" stroke="black" d="M925.28,-529.652C925.28,-535.652 919.28,-541.652 913.28,-541.652"/>
<polyline fill="none" stroke="black" points="913.28,-541.652 788.28,-541.652 "/>
<path fill="none" stroke="black" d="M788.28,-541.652C782.28,-541.652 776.28,-535.652 776.28,-529.652"/>
<polyline fill="none" stroke="black" points="776.28,-529.652 776.28,-343.652 "/>
<path fill="none" stroke="black" d="M776.28,-343.652C776.28,-337.652 782.28,-331.652 788.28,-331.652"/>
<text text-anchor="middle" x="850.78" y="-525.052" font-family="Times Roman,serif" font-size="14.00">LocalitiesController</text>
<polyline fill="none" stroke="black" points="776.28,-515.652 925.28,-515.652 "/>
<text text-anchor="start" x="784.28" y="-499.052" font-family="Times Roman,serif" font-size="14.00">create</text>
<text text-anchor="start" x="784.28" y="-481.052" font-family="Times Roman,serif" font-size="14.00">destroy</text>
<text text-anchor="start" x="784.28" y="-463.052" font-family="Times Roman,serif" font-size="14.00">edit</text>
<text text-anchor="start" x="784.28" y="-445.052" font-family="Times Roman,serif" font-size="14.00">index</text>
<text text-anchor="start" x="784.28" y="-427.052" font-family="Times Roman,serif" font-size="14.00">new</text>
<text text-anchor="start" x="784.28" y="-409.052" font-family="Times Roman,serif" font-size="14.00">show</text>
<text text-anchor="start" x="784.28" y="-391.052" font-family="Times Roman,serif" font-size="14.00">update</text>
<polyline fill="none" stroke="black" points="776.28,-381.652 925.28,-381.652 "/>
<polyline fill="none" stroke="black" points="776.28,-357.652 925.28,-357.652 "/>
<text text-anchor="start" x="784.28" y="-341.052" font-family="Times Roman,serif" font-size="14.00">_layout</text>
</g>
<!-- ApplicationController&#45;&gt;LocalitiesController -->
<g id="edge30" class="edge"><title>ApplicationController&#45;&gt;LocalitiesController</title>
<path fill="none" stroke="black" d="M889.02,-680.732C882.795,-640.999 874.51,-588.116 867.243,-541.735"/>
</g>
<!-- SessionsController -->
<g id="node18" class="node"><title>SessionsController</title>
<polyline fill="none" stroke="black" points="1218.49,-407.049 1338.49,-407.049 "/>
<path fill="none" stroke="black" d="M1338.49,-407.049C1344.49,-407.049 1350.49,-413.049 1350.49,-419.049"/>
<polyline fill="none" stroke="black" points="1350.49,-419.049 1350.49,-533.049 "/>
<path fill="none" stroke="black" d="M1350.49,-533.049C1350.49,-539.049 1344.49,-545.049 1338.49,-545.049"/>
<polyline fill="none" stroke="black" points="1338.49,-545.049 1218.49,-545.049 "/>
<path fill="none" stroke="black" d="M1218.49,-545.049C1212.49,-545.049 1206.49,-539.049 1206.49,-533.049"/>
<polyline fill="none" stroke="black" points="1206.49,-533.049 1206.49,-419.049 "/>
<path fill="none" stroke="black" d="M1206.49,-419.049C1206.49,-413.049 1212.49,-407.049 1218.49,-407.049"/>
<text text-anchor="middle" x="1278.49" y="-528.449" font-family="Times Roman,serif" font-size="14.00">SessionsController</text>
<polyline fill="none" stroke="black" points="1206.49,-519.049 1350.49,-519.049 "/>
<text text-anchor="start" x="1214.49" y="-502.449" font-family="Times Roman,serif" font-size="14.00">create</text>
<text text-anchor="start" x="1214.49" y="-484.449" font-family="Times Roman,serif" font-size="14.00">destroy</text>
<text text-anchor="start" x="1214.49" y="-466.449" font-family="Times Roman,serif" font-size="14.00">new</text>
<polyline fill="none" stroke="black" points="1206.49,-457.049 1350.49,-457.049 "/>
<polyline fill="none" stroke="black" points="1206.49,-433.049 1350.49,-433.049 "/>
<text text-anchor="start" x="1214.49" y="-416.449" font-family="Times Roman,serif" font-size="14.00">_layout</text>
</g>
<!-- ApplicationController&#45;&gt;SessionsController -->
<g id="edge32" class="edge"><title>ApplicationController&#45;&gt;SessionsController</title>
<path fill="none" stroke="black" d="M986.215,-680.45C1052.94,-633.785 1143.68,-570.329 1206.26,-526.56"/>
</g>
</g>
</svg>
