<?xml version="1.0" encoding="UTF-8" standalone="no"?>
<!DOCTYPE svg PUBLIC "-//W3C//DTD SVG 1.1//EN"
 "http://www.w3.org/Graphics/SVG/1.1/DTD/svg11.dtd">
<!-- Generated by graphviz version 2.36.0 (20140111.2315)
 -->
<!-- Title: controllers_diagram Pages: 1 -->
<svg width="1317pt" height="889pt"
 viewBox="0.00 0.00 1317.00 889.00" xmlns="http://www.w3.org/2000/svg" xmlns:xlink="http://www.w3.org/1999/xlink">
<g id="graph0" class="graph" transform="scale(1 1) rotate(0) translate(4 885)">
<title>controllers_diagram</title>
<polygon fill="white" stroke="none" points="-4,4 -4,-885 1313,-885 1313,4 -4,4"/>
<!-- _diagram_info -->
<g id="node1" class="node"><title>_diagram_info</title>
<text text-anchor="start" x="1103" y="-866.6" font-family="Times,serif" font-size="13.00">Controllers diagram</text>
<text text-anchor="start" x="1103" y="-852.6" font-family="Times,serif" font-size="13.00">Date: Aug 04 2015 &#45; 20:48</text>
<text text-anchor="start" x="1103" y="-838.6" font-family="Times,serif" font-size="13.00">Migration version: 20150301221325</text>
<text text-anchor="start" x="1103" y="-824.6" font-family="Times,serif" font-size="13.00">Generated by RailRoady 1.1.0</text>
<text text-anchor="start" x="1103" y="-810.6" font-family="Times,serif" font-size="13.00">http://railroady.prestonlee.com</text>
</g>
<!-- ReconectarController -->
<g id="node2" class="node"><title>ReconectarController</title>
<ellipse fill="none" stroke="black" cx="86.4423" cy="-341.795" rx="86.3847" ry="18"/>
<text text-anchor="middle" x="86.4423" y="-338.095" font-family="Times,serif" font-size="14.00">ReconectarController</text>
</g>
<!-- TreatmentsController -->
<g id="node3" class="node"><title>TreatmentsController</title>
<ellipse fill="none" stroke="black" cx="917.066" cy="-375.433" rx="87.1846" ry="18"/>
<text text-anchor="middle" x="917.066" y="-371.733" font-family="Times,serif" font-size="14.00">TreatmentsController</text>
</g>
<!-- TasksController -->
<g id="node4" class="node"><title>TasksController</title>
<ellipse fill="none" stroke="black" cx="403.154" cy="-21.9519" rx="67.6881" ry="18"/>
<text text-anchor="middle" x="403.154" y="-18.2519" font-family="Times,serif" font-size="14.00">TasksController</text>
</g>
<!-- ProvincesController -->
<g id="node5" class="node"><title>ProvincesController</title>
<ellipse fill="none" stroke="black" cx="626.312" cy="-675.938" rx="81.4863" ry="18"/>
<text text-anchor="middle" x="626.312" y="-672.238" font-family="Times,serif" font-size="14.00">ProvincesController</text>
</g>
<!-- SessionsController -->
<g id="node6" class="node"><title>SessionsController</title>
<ellipse fill="none" stroke="black" cx="731.511" cy="-469.47" rx="77.1866" ry="18"/>
<text text-anchor="middle" x="731.511" y="-465.77" font-family="Times,serif" font-size="14.00">SessionsController</text>
</g>
<!-- InternshipsUsersController -->
<g id="node7" class="node"><title>InternshipsUsersController</title>
<ellipse fill="none" stroke="black" cx="514.282" cy="-468.274" rx="105.881" ry="18"/>
<text text-anchor="middle" x="514.282" y="-464.574" font-family="Times,serif" font-size="14.00">InternshipsUsersController</text>
</g>
<!-- ContractsController -->
<g id="node8" class="node"><title>ContractsController</title>
<ellipse fill="none" stroke="black" cx="111.834" cy="-56.5662" rx="80.6858" ry="18"/>
<text text-anchor="middle" x="111.834" y="-52.8662" font-family="Times,serif" font-size="14.00">ContractsController</text>
</g>
<!-- SkillsController -->
<g id="node9" class="node"><title>SkillsController</title>
<ellipse fill="none" stroke="black" cx="1137.76" cy="-64.4649" rx="66.8882" ry="18"/>
<text text-anchor="middle" x="1137.76" y="-60.7649" font-family="Times,serif" font-size="14.00">SkillsController</text>
</g>
<!-- InternshipsTasksController -->
<g id="node10" class="node"><title>InternshipsTasksController</title>
<ellipse fill="none" stroke="black" cx="355.611" cy="-254.555" rx="106.681" ry="18"/>
<text text-anchor="middle" x="355.611" y="-250.855" font-family="Times,serif" font-size="14.00">InternshipsTasksController</text>
</g>
<!-- UsersController -->
<g id="node11" class="node"><title>UsersController</title>
<ellipse fill="none" stroke="black" cx="654.031" cy="-18" rx="66.8882" ry="18"/>
<text text-anchor="middle" x="654.031" y="-14.3" font-family="Times,serif" font-size="14.00">UsersController</text>
</g>
<!-- CompaniesController -->
<g id="node12" class="node"><title>CompaniesController</title>
<ellipse fill="none" stroke="black" cx="548.82" cy="-196.527" rx="87.1846" ry="18"/>
<text text-anchor="middle" x="548.82" y="-192.827" font-family="Times,serif" font-size="14.00">CompaniesController</text>
</g>
<!-- ApplicationController -->
<g id="node13" class="node"><title>ApplicationController</title>
<ellipse fill="none" stroke="black" cx="608.621" cy="-339.216" rx="88.2844" ry="18"/>
<text text-anchor="middle" x="608.621" y="-335.516" font-family="Times,serif" font-size="14.00">ApplicationController</text>
</g>
<!-- ApplicationController&#45;&gt;ReconectarController -->
<g id="edge1" class="edge"><title>ApplicationController&#45;&gt;ReconectarController</title>
<path fill="none" stroke="black" d="M520.041,-339.654C423.291,-340.131 269.337,-340.892 173.281,-341.366"/>
</g>
<!-- ApplicationController&#45;&gt;TreatmentsController -->
<g id="edge2" class="edge"><title>ApplicationController&#45;&gt;TreatmentsController</title>
<path fill="none" stroke="black" d="M685.262,-348.215C732.811,-353.798 793.663,-360.943 841.087,-366.512"/>
</g>
<!-- ApplicationController&#45;&gt;TasksController -->
<g id="edge3" class="edge"><title>ApplicationController&#45;&gt;TasksController</title>
<path fill="none" stroke="black" d="M583.982,-321.715C551.224,-297.23 493.584,-249.722 460.13,-196.394 427.792,-144.846 411.992,-73.1131 406.054,-40.0094"/>
</g>
<!-- ApplicationController&#45;&gt;ProvincesController -->
<g id="edge4" class="edge"><title>ApplicationController&#45;&gt;ProvincesController</title>
<path fill="none" stroke="black" d="M610.965,-357.578C614.052,-382.593 619.372,-428.805 621.82,-468.412 626.144,-538.371 626.491,-621.818 626.408,-657.875"/>
</g>
<!-- ApplicationController&#45;&gt;SessionsController -->
<g id="edge5" class="edge"><title>ApplicationController&#45;&gt;SessionsController</title>
<path fill="none" stroke="black" d="M625.451,-357.054C648.984,-381.998 691.461,-427.02 714.884,-451.848"/>
</g>
<!-- ApplicationController&#45;&gt;InternshipsUsersController -->
<g id="edge6" class="edge"><title>ApplicationController&#45;&gt;InternshipsUsersController</title>
<path fill="none" stroke="black" d="M595.504,-357.161C577.581,-381.68 545.615,-425.41 527.592,-450.066"/>
</g>
<!-- ApplicationController&#45;&gt;ContractsController -->
<g id="edge7" class="edge"><title>ApplicationController&#45;&gt;ContractsController</title>
<path fill="none" stroke="black" d="M579.576,-322.064C550.393,-304.874 504.091,-277.719 463.801,-254.617 345.191,-186.608 203.06,-107.295 142.059,-73.3578"/>
</g>
<!-- ApplicationController&#45;&gt;SkillsController -->
<g id="edge8" class="edge"><title>ApplicationController&#45;&gt;SkillsController</title>
<path fill="none" stroke="black" d="M652.338,-323.515C695.65,-307.46 763.492,-280.96 819.902,-252.907 932.774,-196.776 1059.64,-115.789 1112.52,-81.1752"/>
</g>
<!-- ApplicationController&#45;&gt;InternshipsTasksController -->
<g id="edge9" class="edge"><title>ApplicationController&#45;&gt;InternshipsTasksController</title>
<path fill="none" stroke="black" d="M562.509,-323.786C517.612,-308.763 449.646,-286.02 403.99,-270.743"/>
</g>
<!-- ApplicationController&#45;&gt;UsersController -->
<g id="edge10" class="edge"><title>ApplicationController&#45;&gt;UsersController</title>
<path fill="none" stroke="black" d="M612.998,-320.874C619.3,-293.839 630.894,-241.631 637.51,-196.66 646.102,-138.26 651.026,-68.4233 653.005,-36.0815"/>
</g>
<!-- ApplicationController&#45;&gt;CompaniesController -->
<g id="edge11" class="edge"><title>ApplicationController&#45;&gt;CompaniesController</title>
<path fill="none" stroke="black" d="M601.047,-321.145C589.607,-293.848 568.036,-242.378 556.521,-214.903"/>
</g>
<!-- LandingController -->
<g id="node14" class="node"><title>LandingController</title>
<ellipse fill="none" stroke="black" cx="1152.71" cy="-349.566" rx="76.0865" ry="18"/>
<text text-anchor="middle" x="1152.71" y="-345.866" font-family="Times,serif" font-size="14.00">LandingController</text>
</g>
<!-- ApplicationController&#45;&gt;LandingController -->
<g id="edge12" class="edge"><title>ApplicationController&#45;&gt;LandingController</title>
<path fill="none" stroke="black" d="M696.644,-340.891C802.061,-342.896 976.878,-346.221 1076.67,-348.12"/>
</g>
<!-- InternshipsController -->
<g id="node15" class="node"><title>InternshipsController</title>
<ellipse fill="none" stroke="black" cx="1132.26" cy="-639.161" rx="85.5853" ry="18"/>
<text text-anchor="middle" x="1132.26" y="-635.461" font-family="Times,serif" font-size="14.00">InternshipsController</text>
</g>
<!-- ApplicationController&#45;&gt;InternshipsController -->
<g id="edge13" class="edge"><title>ApplicationController&#45;&gt;InternshipsController</title>
<path fill="none" stroke="black" d="M638.275,-356.202C730.333,-408.934 1010.55,-569.446 1102.61,-622.176"/>
</g>
<!-- LocalitiesController -->
<g id="node16" class="node"><title>LocalitiesController</title>
<ellipse fill="none" stroke="black" cx="859.297" cy="-661.521" rx="81.4863" ry="18"/>
<text text-anchor="middle" x="859.297" y="-657.821" font-family="Times,serif" font-size="14.00">LocalitiesController</text>
</g>
<!-- ApplicationController&#45;&gt;LocalitiesController -->
<g id="edge14" class="edge"><title>ApplicationController&#45;&gt;LocalitiesController</title>
<path fill="none" stroke="black" d="M611.781,-357.281C617.009,-383.606 629.271,-433.294 652.569,-469.341 702.576,-546.713 790.625,-614.089 833.873,-644.423"/>
</g>
<!-- StudiesController -->
<g id="node17" class="node"><title>StudiesController</title>
<ellipse fill="none" stroke="black" cx="767.596" cy="-238.969" rx="72.5877" ry="18"/>
<text text-anchor="middle" x="767.596" y="-235.269" font-family="Times,serif" font-size="14.00">StudiesController</text>
</g>
<!-- ApplicationController&#45;&gt;StudiesController -->
<g id="edge15" class="edge"><title>ApplicationController&#45;&gt;StudiesController</title>
<path fill="none" stroke="black" d="M635.95,-321.983C665.335,-303.454 711.746,-274.187 740.889,-255.811"/>
</g>
<!-- AdminController -->
<g id="node18" class="node"><title>AdminController</title>
<ellipse fill="none" stroke="black" cx="881.305" cy="-48.1369" rx="71.4873" ry="18"/>
<text text-anchor="middle" x="881.305" y="-44.4369" font-family="Times,serif" font-size="14.00">AdminController</text>
</g>
<!-- ApplicationController&#45;&gt;AdminController -->
<g id="edge16" class="edge"><title>ApplicationController&#45;&gt;AdminController</title>
<path fill="none" stroke="black" d="M623.182,-321.089C639.718,-300.707 667.716,-266.806 693.204,-238.859 753.372,-172.883 829.095,-98.5899 863.195,-65.5667"/>
</g>
<!-- JobsController -->
<g id="node19" class="node"><title>JobsController</title>
<ellipse fill="none" stroke="black" cx="102.963" cy="-640.938" rx="62.2891" ry="18"/>
<text text-anchor="middle" x="102.963" y="-637.238" font-family="Times,serif" font-size="14.00">JobsController</text>
</g>
<!-- ApplicationController&#45;&gt;JobsController -->
<g id="edge17" class="edge"><title>ApplicationController&#45;&gt;JobsController</title>
<path fill="none" stroke="black" d="M579.986,-356.303C490.671,-409.596 217.944,-572.33 130.355,-624.594"/>
</g>
<!-- SituationsController -->
<g id="node20" class="node"><title>SituationsController</title>
<ellipse fill="none" stroke="black" cx="320.063" cy="-454.801" rx="81.7856" ry="18"/>
<text text-anchor="middle" x="320.063" y="-451.101" font-family="Times,serif" font-size="14.00">SituationsController</text>
</g>
<!-- ApplicationController&#45;&gt;SituationsController -->
<g id="edge18" class="edge"><title>ApplicationController&#45;&gt;SituationsController</title>
<path fill="none" stroke="black" d="M568.498,-355.288C513.369,-377.371 414.796,-416.855 359.845,-438.866"/>
</g>
<!-- TypesController -->
<g id="node21" class="node"><title>TypesController</title>
<ellipse fill="none" stroke="black" cx="391.424" cy="-677.877" rx="68.4888" ry="18"/>
<text text-anchor="middle" x="391.424" y="-674.177" font-family="Times,serif" font-size="14.00">TypesController</text>
</g>
<!-- ApplicationController&#45;&gt;TypesController -->
<g id="edge19" class="edge"><title>ApplicationController&#45;&gt;TypesController</title>
<path fill="none" stroke="black" d="M615.546,-357.45C624.182,-383.111 636.167,-430.931 621.82,-468.412 585.392,-563.58 477.694,-632.166 423.433,-661.718"/>
</g>
</g>
</svg>
