<?xml version="1.0" encoding="UTF-8" standalone="no"?>
<!DOCTYPE svg PUBLIC "-//W3C//DTD SVG 1.1//EN"
 "http://www.w3.org/Graphics/SVG/1.1/DTD/svg11.dtd">
<!-- Generated by graphviz version 2.26.3 (20100126.1600)
 -->
<!-- Title: controllers_diagram Pages: 1 -->
<svg width="1348pt" height="783pt"
 viewBox="0.00 0.00 1348.00 783.00" xmlns="http://www.w3.org/2000/svg" xmlns:xlink="http://www.w3.org/1999/xlink">
<g id="graph1" class="graph" transform="scale(1 1) rotate(0) translate(4 779)">
<title>controllers_diagram</title>
<polygon fill="white" stroke="white" points="-4,5 -4,-779 1345,-779 1345,5 -4,5"/>
<!-- _diagram_info -->
<g id="node1" class="node"><title>_diagram_info</title>
<text text-anchor="start" x="1097" y="-758.3" font-family="Times Roman,serif" font-size="13.00">Controllers diagram</text>
<text text-anchor="start" x="1097" y="-741.3" font-family="Times Roman,serif" font-size="13.00">Date: Apr 08 2013 &#45; 00:57</text>
<text text-anchor="start" x="1097" y="-724.3" font-family="Times Roman,serif" font-size="13.00">Migration version: 20130408000305</text>
<text text-anchor="start" x="1097" y="-707.3" font-family="Times Roman,serif" font-size="13.00">Generated by RailRoady 1.1.0</text>
<text text-anchor="start" x="1097" y="-690.3" font-family="Times Roman,serif" font-size="13.00">http://railroady.prestonlee.com</text>
</g>
<!-- CompaniesController -->
<g id="node2" class="node"><title>CompaniesController</title>
<ellipse fill="none" stroke="black" cx="115" cy="-265.518" rx="113.844" ry="18.3848"/>
<text text-anchor="middle" x="115" y="-261.918" font-family="Times Roman,serif" font-size="14.00">CompaniesController</text>
</g>
<!-- AdminController -->
<g id="node3" class="node"><title>AdminController</title>
<ellipse fill="none" stroke="black" cx="1191.45" cy="-450.127" rx="91.2168" ry="18.3848"/>
<text text-anchor="middle" x="1191.45" y="-446.527" font-family="Times Roman,serif" font-size="14.00">AdminController</text>
</g>
<!-- StudiesController -->
<g id="node4" class="node"><title>StudiesController</title>
<ellipse fill="none" stroke="black" cx="713.525" cy="-19.5" rx="96.8736" ry="18.3848"/>
<text text-anchor="middle" x="713.525" y="-15.9" font-family="Times Roman,serif" font-size="14.00">StudiesController</text>
</g>
<!-- InternshipsController -->
<g id="node5" class="node"><title>InternshipsController</title>
<ellipse fill="none" stroke="black" cx="424.417" cy="-518.573" rx="114.759" ry="18.3848"/>
<text text-anchor="middle" x="424.417" y="-514.973" font-family="Times Roman,serif" font-size="14.00">InternshipsController</text>
</g>
<!-- ProvincesController -->
<g id="node6" class="node"><title>ProvincesController</title>
<ellipse fill="none" stroke="black" cx="790.291" cy="-362.55" rx="106.98" ry="18.3848"/>
<text text-anchor="middle" x="790.291" y="-358.95" font-family="Times Roman,serif" font-size="14.00">ProvincesController</text>
</g>
<!-- ContractsController -->
<g id="node7" class="node"><title>ContractsController</title>
<ellipse fill="none" stroke="black" cx="570.821" cy="-357.573" rx="106.98" ry="18.3848"/>
<text text-anchor="middle" x="570.821" y="-353.973" font-family="Times Roman,serif" font-size="14.00">ContractsController</text>
</g>
<!-- LandingController -->
<g id="node8" class="node"><title>LandingController</title>
<ellipse fill="none" stroke="black" cx="159.564" cy="-29.6746" rx="98.9949" ry="18.3848"/>
<text text-anchor="middle" x="159.564" y="-26.0746" font-family="Times Roman,serif" font-size="14.00">LandingController</text>
</g>
<!-- ApplicationController -->
<g id="node9" class="node"><title>ApplicationController</title>
<ellipse fill="none" stroke="black" cx="665.586" cy="-200.669" rx="113.844" ry="18.3848"/>
<text text-anchor="middle" x="665.586" y="-197.069" font-family="Times Roman,serif" font-size="14.00">ApplicationController</text>
</g>
<!-- ApplicationController&#45;&gt;CompaniesController -->
<g id="edge2" class="edge"><title>ApplicationController&#45;&gt;CompaniesController</title>
<path fill="none" stroke="black" d="M569.584,-210.697C491.812,-218.968 379.436,-231.252 281.334,-243.252 255.596,-246.401 227.65,-250.051 202.142,-253.474"/>
</g>
<!-- ApplicationController&#45;&gt;AdminController -->
<g id="edge4" class="edge"><title>ApplicationController&#45;&gt;AdminController</title>
<path fill="none" stroke="black" d="M702.564,-218.21C799.468,-264.179 1059.89,-387.717 1155.56,-433.101"/>
</g>
<!-- ApplicationController&#45;&gt;StudiesController -->
<g id="edge6" class="edge"><title>ApplicationController&#45;&gt;StudiesController</title>
<path fill="none" stroke="black" d="M670.536,-181.963C679.746,-147.156 699.412,-72.8336 708.602,-38.1041"/>
</g>
<!-- ApplicationController&#45;&gt;InternshipsController -->
<g id="edge8" class="edge"><title>ApplicationController&#45;&gt;InternshipsController</title>
<path fill="none" stroke="black" d="M629.684,-218.332C583.535,-242.952 504.349,-292.029 462.224,-357.423 433.044,-402.72 426.327,-468.111 424.822,-499.863"/>
</g>
<!-- ApplicationController&#45;&gt;ProvincesController -->
<g id="edge10" class="edge"><title>ApplicationController&#45;&gt;ProvincesController</title>
<path fill="none" stroke="black" d="M679.891,-219.239C703.946,-250.465 752.21,-313.116 776.152,-344.197"/>
</g>
<!-- ApplicationController&#45;&gt;ContractsController -->
<g id="edge12" class="edge"><title>ApplicationController&#45;&gt;ContractsController</title>
<path fill="none" stroke="black" d="M654.343,-219.284C636.105,-249.482 600.278,-308.8 582.049,-338.982"/>
</g>
<!-- ApplicationController&#45;&gt;LandingController -->
<g id="edge14" class="edge"><title>ApplicationController&#45;&gt;LandingController</title>
<path fill="none" stroke="black" d="M616.145,-183.962C518.908,-151.104 303.91,-78.4517 207.721,-45.9475"/>
</g>
<!-- InternshipsTasksController -->
<g id="node10" class="node"><title>InternshipsTasksController</title>
<ellipse fill="none" stroke="black" cx="381.737" cy="-257.526" rx="140.922" ry="18.3848"/>
<text text-anchor="middle" x="381.737" y="-253.926" font-family="Times Roman,serif" font-size="14.00">InternshipsTasksController</text>
</g>
<!-- ApplicationController&#45;&gt;InternshipsTasksController -->
<g id="edge16" class="edge"><title>ApplicationController&#45;&gt;InternshipsTasksController</title>
<path fill="none" stroke="black" d="M593.592,-215.09C552.531,-223.315 501.058,-233.625 459.131,-242.023"/>
</g>
<!-- TasksController -->
<g id="node11" class="node"><title>TasksController</title>
<ellipse fill="none" stroke="black" cx="939.394" cy="-22.4251" rx="85.7684" ry="18.3848"/>
<text text-anchor="middle" x="939.394" y="-18.8251" font-family="Times Roman,serif" font-size="14.00">TasksController</text>
</g>
<!-- ApplicationController&#45;&gt;TasksController -->
<g id="edge18" class="edge"><title>ApplicationController&#45;&gt;TasksController</title>
<path fill="none" stroke="black" d="M693.347,-182.597C746.098,-148.257 860.198,-73.9801 912.371,-40.0164"/>
</g>
<!-- UsersController -->
<g id="node12" class="node"><title>UsersController</title>
<ellipse fill="none" stroke="black" cx="465.945" cy="-31.4507" rx="87.1802" ry="18.3848"/>
<text text-anchor="middle" x="465.945" y="-27.8507" font-family="Times Roman,serif" font-size="14.00">UsersController</text>
</g>
<!-- ApplicationController&#45;&gt;UsersController -->
<g id="edge20" class="edge"><title>ApplicationController&#45;&gt;UsersController</title>
<path fill="none" stroke="black" d="M643.841,-182.237C605.337,-149.601 525.629,-82.0394 487.362,-49.6033"/>
</g>
<!-- SituationsController -->
<g id="node13" class="node"><title>SituationsController</title>
<ellipse fill="none" stroke="black" cx="144.607" cy="-509.301" rx="109.101" ry="18.3848"/>
<text text-anchor="middle" x="144.607" y="-505.701" font-family="Times Roman,serif" font-size="14.00">SituationsController</text>
</g>
<!-- ApplicationController&#45;&gt;SituationsController -->
<g id="edge22" class="edge"><title>ApplicationController&#45;&gt;SituationsController</title>
<path fill="none" stroke="black" d="M635.324,-218.596C543.245,-273.145 267.143,-436.71 174.953,-491.324"/>
</g>
<!-- JobsController -->
<g id="node14" class="node"><title>JobsController</title>
<ellipse fill="none" stroke="black" cx="1191.6" cy="-91.2714" rx="79.9031" ry="18.3848"/>
<text text-anchor="middle" x="1191.6" y="-87.6714" font-family="Times Roman,serif" font-size="14.00">JobsController</text>
</g>
<!-- ApplicationController&#45;&gt;JobsController -->
<g id="edge24" class="edge"><title>ApplicationController&#45;&gt;JobsController</title>
<path fill="none" stroke="black" d="M735.98,-186.029C840.261,-164.341 1033.97,-124.054 1131.78,-103.711"/>
</g>
<!-- InternshipsUsersController -->
<g id="node15" class="node"><title>InternshipsUsersController</title>
<ellipse fill="none" stroke="black" cx="947.09" cy="-524.724" rx="142.128" ry="18.3848"/>
<text text-anchor="middle" x="947.09" y="-521.124" font-family="Times Roman,serif" font-size="14.00">InternshipsUsersController</text>
</g>
<!-- ApplicationController&#45;&gt;InternshipsUsersController -->
<g id="edge26" class="edge"><title>ApplicationController&#45;&gt;InternshipsUsersController</title>
<path fill="none" stroke="black" d="M705.682,-218.047C757.854,-242.687 848.302,-292.682 898.891,-362.574 931.35,-407.418 942.141,-474.137 945.574,-506.202"/>
</g>
<!-- LocalitiesController -->
<g id="node16" class="node"><title>LocalitiesController</title>
<ellipse fill="none" stroke="black" cx="684.234" cy="-542.823" rx="104.86" ry="18.3848"/>
<text text-anchor="middle" x="684.234" y="-539.223" font-family="Times Roman,serif" font-size="14.00">LocalitiesController</text>
</g>
<!-- ApplicationController&#45;&gt;LocalitiesController -->
<g id="edge28" class="edge"><title>ApplicationController&#45;&gt;LocalitiesController</title>
<path fill="none" stroke="black" d="M667.623,-219.498C670.724,-248.948 676.568,-307.715 679.418,-357.724 682.884,-418.542 683.857,-490.745 684.129,-524.153"/>
</g>
<!-- SessionsController -->
<g id="node17" class="node"><title>SessionsController</title>
<ellipse fill="none" stroke="black" cx="952.802" cy="-250.969" rx="101.823" ry="18.3848"/>
<text text-anchor="middle" x="952.802" y="-247.369" font-family="Times Roman,serif" font-size="14.00">SessionsController</text>
</g>
<!-- ApplicationController&#45;&gt;SessionsController -->
<g id="edge30" class="edge"><title>ApplicationController&#45;&gt;SessionsController</title>
<path fill="none" stroke="black" d="M743.311,-214.281C785.509,-221.671 837.396,-230.758 878.974,-238.04"/>
</g>
</g>
</svg>
