<?xml version="1.0" encoding="UTF-8" standalone="no"?>
<!DOCTYPE svg PUBLIC "-//W3C//DTD SVG 1.1//EN"
 "http://www.w3.org/Graphics/SVG/1.1/DTD/svg11.dtd">
<!-- Generated by graphviz version 2.26.3 (20100126.1600)
 -->
<!-- Title: controllers_diagram Pages: 1 -->
<svg width="1300pt" height="1065pt"
 viewBox="0.00 0.00 1300.00 1065.42" xmlns="http://www.w3.org/2000/svg" xmlns:xlink="http://www.w3.org/1999/xlink">
<g id="graph1" class="graph" transform="scale(1 1) rotate(0) translate(4 1061.42)">
<title>controllers_diagram</title>
<polygon fill="white" stroke="white" points="-4,5 -4,-1061.42 1297,-1061.42 1297,5 -4,5"/>
<!-- _diagram_info -->
<g id="node1" class="node"><title>_diagram_info</title>
<text text-anchor="start" x="1049" y="-78.3" font-family="Times Roman,serif" font-size="13.00">Controllers diagram</text>
<text text-anchor="start" x="1049" y="-61.3" font-family="Times Roman,serif" font-size="13.00">Date: Apr 07 2013 &#45; 21:05</text>
<text text-anchor="start" x="1049" y="-44.3" font-family="Times Roman,serif" font-size="13.00">Migration version: 20130408000305</text>
<text text-anchor="start" x="1049" y="-27.3" font-family="Times Roman,serif" font-size="13.00">Generated by RailRoady 1.1.0</text>
<text text-anchor="start" x="1049" y="-10.3" font-family="Times Roman,serif" font-size="13.00">http://railroady.prestonlee.com</text>
</g>
<!-- CompaniesController -->
<g id="node2" class="node"><title>CompaniesController</title>
<polyline fill="none" stroke="black" points="13,-413.182 227,-413.182 "/>
<path fill="none" stroke="black" d="M227,-413.182C233,-413.182 239,-419.182 239,-425.182"/>
<polyline fill="none" stroke="black" points="239,-425.182 239,-629.182 "/>
<path fill="none" stroke="black" d="M239,-629.182C239,-635.182 233,-641.182 227,-641.182"/>
<polyline fill="none" stroke="black" points="227,-641.182 13,-641.182 "/>
<path fill="none" stroke="black" d="M13,-641.182C7,-641.182 1,-635.182 1,-629.182"/>
<polyline fill="none" stroke="black" points="1,-629.182 1,-425.182 "/>
<path fill="none" stroke="black" d="M1,-425.182C1,-419.182 7,-413.182 13,-413.182"/>
<text text-anchor="middle" x="120" y="-624.582" font-family="Times Roman,serif" font-size="14.00">CompaniesController</text>
<polyline fill="none" stroke="black" points="1,-615.182 239,-615.182 "/>
<text text-anchor="start" x="9" y="-598.582" font-family="Times Roman,serif" font-size="14.00">_one_time_conditions_valid_43?</text>
<text text-anchor="start" x="9" y="-580.582" font-family="Times Roman,serif" font-size="14.00">create</text>
<text text-anchor="start" x="9" y="-562.582" font-family="Times Roman,serif" font-size="14.00">destroy</text>
<text text-anchor="start" x="9" y="-544.582" font-family="Times Roman,serif" font-size="14.00">edit</text>
<text text-anchor="start" x="9" y="-526.582" font-family="Times Roman,serif" font-size="14.00">index</text>
<text text-anchor="start" x="9" y="-508.582" font-family="Times Roman,serif" font-size="14.00">new</text>
<text text-anchor="start" x="9" y="-490.582" font-family="Times Roman,serif" font-size="14.00">show</text>
<text text-anchor="start" x="9" y="-472.582" font-family="Times Roman,serif" font-size="14.00">update</text>
<polyline fill="none" stroke="black" points="1,-463.182 239,-463.182 "/>
<polyline fill="none" stroke="black" points="1,-439.182 239,-439.182 "/>
<text text-anchor="start" x="9" y="-422.582" font-family="Times Roman,serif" font-size="14.00">_layout</text>
</g>
<!-- AdminController -->
<g id="node3" class="node"><title>AdminController</title>
<polyline fill="none" stroke="black" points="819.931,-596.979 924.931,-596.979 "/>
<path fill="none" stroke="black" d="M924.931,-596.979C930.931,-596.979 936.931,-602.979 936.931,-608.979"/>
<polyline fill="none" stroke="black" points="936.931,-608.979 936.931,-686.979 "/>
<path fill="none" stroke="black" d="M936.931,-686.979C936.931,-692.979 930.931,-698.979 924.931,-698.979"/>
<polyline fill="none" stroke="black" points="924.931,-698.979 819.931,-698.979 "/>
<path fill="none" stroke="black" d="M819.931,-698.979C813.931,-698.979 807.931,-692.979 807.931,-686.979"/>
<polyline fill="none" stroke="black" points="807.931,-686.979 807.931,-608.979 "/>
<path fill="none" stroke="black" d="M807.931,-608.979C807.931,-602.979 813.931,-596.979 819.931,-596.979"/>
<text text-anchor="middle" x="872.431" y="-682.379" font-family="Times Roman,serif" font-size="14.00">AdminController</text>
<polyline fill="none" stroke="black" points="807.931,-672.979 936.931,-672.979 "/>
<text text-anchor="start" x="815.931" y="-656.379" font-family="Times Roman,serif" font-size="14.00">index</text>
<polyline fill="none" stroke="black" points="807.931,-646.979 936.931,-646.979 "/>
<polyline fill="none" stroke="black" points="807.931,-622.979 936.931,-622.979 "/>
<text text-anchor="start" x="815.931" y="-606.379" font-family="Times Roman,serif" font-size="14.00">_layout</text>
</g>
<!-- StudiesController -->
<g id="node4" class="node"><title>StudiesController</title>
<polyline fill="none" stroke="black" points="564.671,-1.5 677.671,-1.5 "/>
<path fill="none" stroke="black" d="M677.671,-1.5C683.671,-1.5 689.671,-7.5 689.671,-13.5"/>
<polyline fill="none" stroke="black" points="689.671,-13.5 689.671,-199.5 "/>
<path fill="none" stroke="black" d="M689.671,-199.5C689.671,-205.5 683.671,-211.5 677.671,-211.5"/>
<polyline fill="none" stroke="black" points="677.671,-211.5 564.671,-211.5 "/>
<path fill="none" stroke="black" d="M564.671,-211.5C558.671,-211.5 552.671,-205.5 552.671,-199.5"/>
<polyline fill="none" stroke="black" points="552.671,-199.5 552.671,-13.5 "/>
<path fill="none" stroke="black" d="M552.671,-13.5C552.671,-7.5 558.671,-1.5 564.671,-1.5"/>
<text text-anchor="middle" x="621.171" y="-194.9" font-family="Times Roman,serif" font-size="14.00">StudiesController</text>
<polyline fill="none" stroke="black" points="552.671,-185.5 689.671,-185.5 "/>
<text text-anchor="start" x="560.671" y="-168.9" font-family="Times Roman,serif" font-size="14.00">create</text>
<text text-anchor="start" x="560.671" y="-150.9" font-family="Times Roman,serif" font-size="14.00">destroy</text>
<text text-anchor="start" x="560.671" y="-132.9" font-family="Times Roman,serif" font-size="14.00">edit</text>
<text text-anchor="start" x="560.671" y="-114.9" font-family="Times Roman,serif" font-size="14.00">index</text>
<text text-anchor="start" x="560.671" y="-96.9" font-family="Times Roman,serif" font-size="14.00">new</text>
<text text-anchor="start" x="560.671" y="-78.9" font-family="Times Roman,serif" font-size="14.00">show</text>
<text text-anchor="start" x="560.671" y="-60.9" font-family="Times Roman,serif" font-size="14.00">update</text>
<polyline fill="none" stroke="black" points="552.671,-51.5 689.671,-51.5 "/>
<polyline fill="none" stroke="black" points="552.671,-27.5 689.671,-27.5 "/>
<text text-anchor="start" x="560.671" y="-10.9" font-family="Times Roman,serif" font-size="14.00">_layout</text>
</g>
<!-- InternshipsController -->
<g id="node5" class="node"><title>InternshipsController</title>
<polyline fill="none" stroke="black" points="264.461,-807.08 478.461,-807.08 "/>
<path fill="none" stroke="black" d="M478.461,-807.08C484.461,-807.08 490.461,-813.08 490.461,-819.08"/>
<polyline fill="none" stroke="black" points="490.461,-819.08 490.461,-1041.08 "/>
<path fill="none" stroke="black" d="M490.461,-1041.08C490.461,-1047.08 484.461,-1053.08 478.461,-1053.08"/>
<polyline fill="none" stroke="black" points="478.461,-1053.08 264.461,-1053.08 "/>
<path fill="none" stroke="black" d="M264.461,-1053.08C258.461,-1053.08 252.461,-1047.08 252.461,-1041.08"/>
<polyline fill="none" stroke="black" points="252.461,-1041.08 252.461,-819.08 "/>
<path fill="none" stroke="black" d="M252.461,-819.08C252.461,-813.08 258.461,-807.08 264.461,-807.08"/>
<text text-anchor="middle" x="371.461" y="-1036.48" font-family="Times Roman,serif" font-size="14.00">InternshipsController</text>
<polyline fill="none" stroke="black" points="252.461,-1027.08 490.461,-1027.08 "/>
<text text-anchor="start" x="260.461" y="-1010.48" font-family="Times Roman,serif" font-size="14.00">_one_time_conditions_valid_85?</text>
<text text-anchor="start" x="260.461" y="-992.48" font-family="Times Roman,serif" font-size="14.00">create</text>
<text text-anchor="start" x="260.461" y="-974.48" font-family="Times Roman,serif" font-size="14.00">destroy</text>
<text text-anchor="start" x="260.461" y="-956.48" font-family="Times Roman,serif" font-size="14.00">edit</text>
<text text-anchor="start" x="260.461" y="-938.48" font-family="Times Roman,serif" font-size="14.00">index</text>
<text text-anchor="start" x="260.461" y="-920.48" font-family="Times Roman,serif" font-size="14.00">new</text>
<text text-anchor="start" x="260.461" y="-902.48" font-family="Times Roman,serif" font-size="14.00">postularme</text>
<text text-anchor="start" x="260.461" y="-884.48" font-family="Times Roman,serif" font-size="14.00">show</text>
<text text-anchor="start" x="260.461" y="-866.48" font-family="Times Roman,serif" font-size="14.00">update</text>
<polyline fill="none" stroke="black" points="252.461,-857.08 490.461,-857.08 "/>
<polyline fill="none" stroke="black" points="252.461,-833.08 490.461,-833.08 "/>
<text text-anchor="start" x="260.461" y="-816.48" font-family="Times Roman,serif" font-size="14.00">_layout</text>
</g>
<!-- ProvincesController -->
<g id="node6" class="node"><title>ProvincesController</title>
<polyline fill="none" stroke="black" points="541.391,-622.936 669.391,-622.936 "/>
<path fill="none" stroke="black" d="M669.391,-622.936C675.391,-622.936 681.391,-628.936 681.391,-634.936"/>
<polyline fill="none" stroke="black" points="681.391,-634.936 681.391,-820.936 "/>
<path fill="none" stroke="black" d="M681.391,-820.936C681.391,-826.936 675.391,-832.936 669.391,-832.936"/>
<polyline fill="none" stroke="black" points="669.391,-832.936 541.391,-832.936 "/>
<path fill="none" stroke="black" d="M541.391,-832.936C535.391,-832.936 529.391,-826.936 529.391,-820.936"/>
<polyline fill="none" stroke="black" points="529.391,-820.936 529.391,-634.936 "/>
<path fill="none" stroke="black" d="M529.391,-634.936C529.391,-628.936 535.391,-622.936 541.391,-622.936"/>
<text text-anchor="middle" x="605.391" y="-816.336" font-family="Times Roman,serif" font-size="14.00">ProvincesController</text>
<polyline fill="none" stroke="black" points="529.391,-806.936 681.391,-806.936 "/>
<text text-anchor="start" x="537.391" y="-790.336" font-family="Times Roman,serif" font-size="14.00">create</text>
<text text-anchor="start" x="537.391" y="-772.336" font-family="Times Roman,serif" font-size="14.00">destroy</text>
<text text-anchor="start" x="537.391" y="-754.336" font-family="Times Roman,serif" font-size="14.00">edit</text>
<text text-anchor="start" x="537.391" y="-736.336" font-family="Times Roman,serif" font-size="14.00">index</text>
<text text-anchor="start" x="537.391" y="-718.336" font-family="Times Roman,serif" font-size="14.00">new</text>
<text text-anchor="start" x="537.391" y="-700.336" font-family="Times Roman,serif" font-size="14.00">show</text>
<text text-anchor="start" x="537.391" y="-682.336" font-family="Times Roman,serif" font-size="14.00">update</text>
<polyline fill="none" stroke="black" points="529.391,-672.936 681.391,-672.936 "/>
<polyline fill="none" stroke="black" points="529.391,-648.936 681.391,-648.936 "/>
<text text-anchor="start" x="537.391" y="-632.336" font-family="Times Roman,serif" font-size="14.00">_layout</text>
</g>
<!-- ContractsController -->
<g id="node7" class="node"><title>ContractsController</title>
<polyline fill="none" stroke="black" points="288.673,-544.556 416.673,-544.556 "/>
<path fill="none" stroke="black" d="M416.673,-544.556C422.673,-544.556 428.673,-550.556 428.673,-556.556"/>
<polyline fill="none" stroke="black" points="428.673,-556.556 428.673,-760.556 "/>
<path fill="none" stroke="black" d="M428.673,-760.556C428.673,-766.556 422.673,-772.556 416.673,-772.556"/>
<polyline fill="none" stroke="black" points="416.673,-772.556 288.673,-772.556 "/>
<path fill="none" stroke="black" d="M288.673,-772.556C282.673,-772.556 276.673,-766.556 276.673,-760.556"/>
<polyline fill="none" stroke="black" points="276.673,-760.556 276.673,-556.556 "/>
<path fill="none" stroke="black" d="M276.673,-556.556C276.673,-550.556 282.673,-544.556 288.673,-544.556"/>
<text text-anchor="middle" x="352.673" y="-755.956" font-family="Times Roman,serif" font-size="14.00">ContractsController</text>
<polyline fill="none" stroke="black" points="276.673,-746.556 428.673,-746.556 "/>
<text text-anchor="start" x="284.673" y="-729.956" font-family="Times Roman,serif" font-size="14.00">cm</text>
<text text-anchor="start" x="284.673" y="-711.956" font-family="Times Roman,serif" font-size="14.00">create</text>
<text text-anchor="start" x="284.673" y="-693.956" font-family="Times Roman,serif" font-size="14.00">destroy</text>
<text text-anchor="start" x="284.673" y="-675.956" font-family="Times Roman,serif" font-size="14.00">edit</text>
<text text-anchor="start" x="284.673" y="-657.956" font-family="Times Roman,serif" font-size="14.00">index</text>
<text text-anchor="start" x="284.673" y="-639.956" font-family="Times Roman,serif" font-size="14.00">new</text>
<text text-anchor="start" x="284.673" y="-621.956" font-family="Times Roman,serif" font-size="14.00">show</text>
<text text-anchor="start" x="284.673" y="-603.956" font-family="Times Roman,serif" font-size="14.00">update</text>
<polyline fill="none" stroke="black" points="276.673,-594.556 428.673,-594.556 "/>
<polyline fill="none" stroke="black" points="276.673,-570.556 428.673,-570.556 "/>
<text text-anchor="start" x="284.673" y="-553.956" font-family="Times Roman,serif" font-size="14.00">_layout</text>
</g>
<!-- LandingController -->
<g id="node8" class="node"><title>LandingController</title>
<polyline fill="none" stroke="black" points="68.6735,-123.76 184.673,-123.76 "/>
<path fill="none" stroke="black" d="M184.673,-123.76C190.673,-123.76 196.673,-129.76 196.673,-135.76"/>
<polyline fill="none" stroke="black" points="196.673,-135.76 196.673,-213.76 "/>
<path fill="none" stroke="black" d="M196.673,-213.76C196.673,-219.76 190.673,-225.76 184.673,-225.76"/>
<polyline fill="none" stroke="black" points="184.673,-225.76 68.6735,-225.76 "/>
<path fill="none" stroke="black" d="M68.6735,-225.76C62.6735,-225.76 56.6735,-219.76 56.6735,-213.76"/>
<polyline fill="none" stroke="black" points="56.6735,-213.76 56.6735,-135.76 "/>
<path fill="none" stroke="black" d="M56.6735,-135.76C56.6735,-129.76 62.6735,-123.76 68.6735,-123.76"/>
<text text-anchor="middle" x="126.673" y="-209.16" font-family="Times Roman,serif" font-size="14.00">LandingController</text>
<polyline fill="none" stroke="black" points="56.6735,-199.76 196.673,-199.76 "/>
<text text-anchor="start" x="64.6735" y="-183.16" font-family="Times Roman,serif" font-size="14.00">bienvenida</text>
<polyline fill="none" stroke="black" points="56.6735,-173.76 196.673,-173.76 "/>
<polyline fill="none" stroke="black" points="56.6735,-149.76 196.673,-149.76 "/>
<text text-anchor="start" x="64.6735" y="-133.16" font-family="Times Roman,serif" font-size="14.00">_layout</text>
</g>
<!-- ApplicationController -->
<g id="node9" class="node"><title>ApplicationController</title>
<polyline fill="none" stroke="black" points="486.003,-467.976 700.003,-467.976 "/>
<path fill="none" stroke="black" d="M700.003,-467.976C706.003,-467.976 712.003,-473.976 712.003,-479.976"/>
<polyline fill="none" stroke="black" points="712.003,-479.976 712.003,-577.976 "/>
<path fill="none" stroke="black" d="M712.003,-577.976C712.003,-583.976 706.003,-589.976 700.003,-589.976"/>
<polyline fill="none" stroke="black" points="700.003,-589.976 486.003,-589.976 "/>
<path fill="none" stroke="black" d="M486.003,-589.976C480.003,-589.976 474.003,-583.976 474.003,-577.976"/>
<polyline fill="none" stroke="black" points="474.003,-577.976 474.003,-479.976 "/>
<path fill="none" stroke="black" d="M474.003,-479.976C474.003,-473.976 480.003,-467.976 486.003,-467.976"/>
<text text-anchor="middle" x="593.003" y="-573.376" font-family="Times Roman,serif" font-size="14.00">ApplicationController</text>
<polyline fill="none" stroke="black" points="474.003,-563.976 712.003,-563.976 "/>
<text text-anchor="start" x="482.003" y="-547.376" font-family="Times Roman,serif" font-size="14.00">_one_time_conditions_valid_10?</text>
<text text-anchor="start" x="482.003" y="-529.376" font-family="Times Roman,serif" font-size="14.00">_one_time_conditions_valid_8?</text>
<polyline fill="none" stroke="black" points="474.003,-519.976 712.003,-519.976 "/>
<text text-anchor="start" x="482.003" y="-503.376" font-family="Times Roman,serif" font-size="14.00">authorize</text>
<polyline fill="none" stroke="black" points="474.003,-493.976 712.003,-493.976 "/>
<text text-anchor="start" x="482.003" y="-477.376" font-family="Times Roman,serif" font-size="14.00">_layout</text>
</g>
<!-- ApplicationController&#45;&gt;CompaniesController -->
<g id="edge2" class="edge"><title>ApplicationController&#45;&gt;CompaniesController</title>
<path fill="none" stroke="black" d="M473.949,-528.525C402.112,-528.252 310.898,-527.906 239.059,-527.634"/>
</g>
<!-- ApplicationController&#45;&gt;AdminController -->
<g id="edge4" class="edge"><title>ApplicationController&#45;&gt;AdminController</title>
<path fill="none" stroke="black" d="M712.316,-579.789C745.098,-593.75 779.412,-608.364 807.827,-620.465"/>
</g>
<!-- ApplicationController&#45;&gt;StudiesController -->
<g id="edge6" class="edge"><title>ApplicationController&#45;&gt;StudiesController</title>
<path fill="none" stroke="black" d="M644.758,-467.895C658.468,-448.133 671.419,-425.284 678.521,-402.03 697.451,-340.048 684.587,-268.774 666.288,-211.752"/>
</g>
<!-- ApplicationController&#45;&gt;InternshipsController -->
<g id="edge8" class="edge"><title>ApplicationController&#45;&gt;InternshipsController</title>
<path fill="none" stroke="black" d="M545.895,-589.996C539.004,-599.755 532.211,-609.886 526.191,-619.736 489.697,-679.456 454.44,-748.933 426.823,-806.992"/>
</g>
<!-- ApplicationController&#45;&gt;ProvincesController -->
<g id="edge10" class="edge"><title>ApplicationController&#45;&gt;ProvincesController</title>
<path fill="none" stroke="black" d="M596.804,-590.023C597.451,-600.418 598.139,-611.474 598.834,-622.629"/>
</g>
<!-- ApplicationController&#45;&gt;ContractsController -->
<g id="edge12" class="edge"><title>ApplicationController&#45;&gt;ContractsController</title>
<path fill="none" stroke="black" d="M479.524,-590.161C462.387,-599.401 445.069,-608.738 428.969,-617.419"/>
</g>
<!-- ApplicationController&#45;&gt;LandingController -->
<g id="edge14" class="edge"><title>ApplicationController&#45;&gt;LandingController</title>
<path fill="none" stroke="black" d="M560.931,-467.706C525.521,-401.035 471.378,-302.285 455.222,-290.395 380.185,-235.176 337.718,-277.658 250.734,-244.29 232.638,-237.348 213.974,-228.126 196.793,-218.675"/>
</g>
<!-- InternshipsTasksController -->
<g id="node10" class="node"><title>InternshipsTasksController</title>
<polyline fill="none" stroke="black" points="264.022,-293.595 440.022,-293.595 "/>
<path fill="none" stroke="black" d="M440.022,-293.595C446.022,-293.595 452.022,-299.595 452.022,-305.595"/>
<polyline fill="none" stroke="black" points="452.022,-305.595 452.022,-491.595 "/>
<path fill="none" stroke="black" d="M452.022,-491.595C452.022,-497.595 446.022,-503.595 440.022,-503.595"/>
<polyline fill="none" stroke="black" points="440.022,-503.595 264.022,-503.595 "/>
<path fill="none" stroke="black" d="M264.022,-503.595C258.022,-503.595 252.022,-497.595 252.022,-491.595"/>
<polyline fill="none" stroke="black" points="252.022,-491.595 252.022,-305.595 "/>
<path fill="none" stroke="black" d="M252.022,-305.595C252.022,-299.595 258.022,-293.595 264.022,-293.595"/>
<text text-anchor="middle" x="352.022" y="-486.995" font-family="Times Roman,serif" font-size="14.00">InternshipsTasksController</text>
<polyline fill="none" stroke="black" points="252.022,-477.595 452.022,-477.595 "/>
<text text-anchor="start" x="260.022" y="-460.995" font-family="Times Roman,serif" font-size="14.00">create</text>
<text text-anchor="start" x="260.022" y="-442.995" font-family="Times Roman,serif" font-size="14.00">destroy</text>
<text text-anchor="start" x="260.022" y="-424.995" font-family="Times Roman,serif" font-size="14.00">edit</text>
<text text-anchor="start" x="260.022" y="-406.995" font-family="Times Roman,serif" font-size="14.00">index</text>
<text text-anchor="start" x="260.022" y="-388.995" font-family="Times Roman,serif" font-size="14.00">new</text>
<text text-anchor="start" x="260.022" y="-370.995" font-family="Times Roman,serif" font-size="14.00">show</text>
<text text-anchor="start" x="260.022" y="-352.995" font-family="Times Roman,serif" font-size="14.00">update</text>
<polyline fill="none" stroke="black" points="252.022,-343.595 452.022,-343.595 "/>
<polyline fill="none" stroke="black" points="252.022,-319.595 452.022,-319.595 "/>
<text text-anchor="start" x="260.022" y="-302.995" font-family="Times Roman,serif" font-size="14.00">_layout</text>
</g>
<!-- ApplicationController&#45;&gt;InternshipsTasksController -->
<g id="edge16" class="edge"><title>ApplicationController&#45;&gt;InternshipsTasksController</title>
<path fill="none" stroke="black" d="M479.921,-467.794C470.627,-462.766 461.274,-457.706 452.085,-452.734"/>
</g>
<!-- TasksController -->
<g id="node11" class="node"><title>TasksController</title>
<polyline fill="none" stroke="black" points="830.475,-36.2033 928.475,-36.2033 "/>
<path fill="none" stroke="black" d="M928.475,-36.2033C934.475,-36.2033 940.475,-42.2033 940.475,-48.2033"/>
<polyline fill="none" stroke="black" points="940.475,-48.2033 940.475,-234.203 "/>
<path fill="none" stroke="black" d="M940.475,-234.203C940.475,-240.203 934.475,-246.203 928.475,-246.203"/>
<polyline fill="none" stroke="black" points="928.475,-246.203 830.475,-246.203 "/>
<path fill="none" stroke="black" d="M830.475,-246.203C824.475,-246.203 818.475,-240.203 818.475,-234.203"/>
<polyline fill="none" stroke="black" points="818.475,-234.203 818.475,-48.2033 "/>
<path fill="none" stroke="black" d="M818.475,-48.2033C818.475,-42.2033 824.475,-36.2033 830.475,-36.2033"/>
<text text-anchor="middle" x="879.475" y="-229.603" font-family="Times Roman,serif" font-size="14.00">TasksController</text>
<polyline fill="none" stroke="black" points="818.475,-220.203 940.475,-220.203 "/>
<text text-anchor="start" x="826.475" y="-203.603" font-family="Times Roman,serif" font-size="14.00">create</text>
<text text-anchor="start" x="826.475" y="-185.603" font-family="Times Roman,serif" font-size="14.00">destroy</text>
<text text-anchor="start" x="826.475" y="-167.603" font-family="Times Roman,serif" font-size="14.00">edit</text>
<text text-anchor="start" x="826.475" y="-149.603" font-family="Times Roman,serif" font-size="14.00">index</text>
<text text-anchor="start" x="826.475" y="-131.603" font-family="Times Roman,serif" font-size="14.00">new</text>
<text text-anchor="start" x="826.475" y="-113.603" font-family="Times Roman,serif" font-size="14.00">show</text>
<text text-anchor="start" x="826.475" y="-95.6033" font-family="Times Roman,serif" font-size="14.00">update</text>
<polyline fill="none" stroke="black" points="818.475,-86.2033 940.475,-86.2033 "/>
<polyline fill="none" stroke="black" points="818.475,-62.2033 940.475,-62.2033 "/>
<text text-anchor="start" x="826.475" y="-45.6033" font-family="Times Roman,serif" font-size="14.00">_layout</text>
</g>
<!-- ApplicationController&#45;&gt;TasksController -->
<g id="edge18" class="edge"><title>ApplicationController&#45;&gt;TasksController</title>
<path fill="none" stroke="black" d="M638.079,-467.96C686.689,-402.162 764.36,-297.025 818.423,-223.845"/>
</g>
<!-- UsersController -->
<g id="node12" class="node"><title>UsersController</title>
<polyline fill="none" stroke="black" points="265.934,-13.0903 488.934,-13.0903 "/>
<path fill="none" stroke="black" d="M488.934,-13.0903C494.934,-13.0903 500.934,-19.0903 500.934,-25.0903"/>
<polyline fill="none" stroke="black" points="500.934,-25.0903 500.934,-229.09 "/>
<path fill="none" stroke="black" d="M500.934,-229.09C500.934,-235.09 494.934,-241.09 488.934,-241.09"/>
<polyline fill="none" stroke="black" points="488.934,-241.09 265.934,-241.09 "/>
<path fill="none" stroke="black" d="M265.934,-241.09C259.934,-241.09 253.934,-235.09 253.934,-229.09"/>
<polyline fill="none" stroke="black" points="253.934,-229.09 253.934,-25.0903 "/>
<path fill="none" stroke="black" d="M253.934,-25.0903C253.934,-19.0903 259.934,-13.0903 265.934,-13.0903"/>
<text text-anchor="middle" x="377.434" y="-224.49" font-family="Times Roman,serif" font-size="14.00">UsersController</text>
<polyline fill="none" stroke="black" points="253.934,-215.09 500.934,-215.09 "/>
<text text-anchor="start" x="261.934" y="-198.49" font-family="Times Roman,serif" font-size="14.00">_one_time_conditions_valid_179?</text>
<text text-anchor="start" x="261.934" y="-180.49" font-family="Times Roman,serif" font-size="14.00">create</text>
<text text-anchor="start" x="261.934" y="-162.49" font-family="Times Roman,serif" font-size="14.00">destroy</text>
<text text-anchor="start" x="261.934" y="-144.49" font-family="Times Roman,serif" font-size="14.00">edit</text>
<text text-anchor="start" x="261.934" y="-126.49" font-family="Times Roman,serif" font-size="14.00">index</text>
<text text-anchor="start" x="261.934" y="-108.49" font-family="Times Roman,serif" font-size="14.00">new</text>
<text text-anchor="start" x="261.934" y="-90.4903" font-family="Times Roman,serif" font-size="14.00">show</text>
<text text-anchor="start" x="261.934" y="-72.4903" font-family="Times Roman,serif" font-size="14.00">update</text>
<polyline fill="none" stroke="black" points="253.934,-63.0903 500.934,-63.0903 "/>
<polyline fill="none" stroke="black" points="253.934,-39.0903 500.934,-39.0903 "/>
<text text-anchor="start" x="261.934" y="-22.4903" font-family="Times Roman,serif" font-size="14.00">_layout</text>
</g>
<!-- ApplicationController&#45;&gt;UsersController -->
<g id="edge20" class="edge"><title>ApplicationController&#45;&gt;UsersController</title>
<path fill="none" stroke="black" d="M560.262,-467.938C528.108,-407.992 478.264,-315.068 438.736,-241.377"/>
</g>
<!-- SituationsController -->
<g id="node13" class="node"><title>SituationsController</title>
<polyline fill="none" stroke="black" points="59.0709,-775.105 190.071,-775.105 "/>
<path fill="none" stroke="black" d="M190.071,-775.105C196.071,-775.105 202.071,-781.105 202.071,-787.105"/>
<polyline fill="none" stroke="black" points="202.071,-787.105 202.071,-973.105 "/>
<path fill="none" stroke="black" d="M202.071,-973.105C202.071,-979.105 196.071,-985.105 190.071,-985.105"/>
<polyline fill="none" stroke="black" points="190.071,-985.105 59.0709,-985.105 "/>
<path fill="none" stroke="black" d="M59.0709,-985.105C53.0709,-985.105 47.0709,-979.105 47.0709,-973.105"/>
<polyline fill="none" stroke="black" points="47.0709,-973.105 47.0709,-787.105 "/>
<path fill="none" stroke="black" d="M47.0709,-787.105C47.0709,-781.105 53.0709,-775.105 59.0709,-775.105"/>
<text text-anchor="middle" x="124.571" y="-968.505" font-family="Times Roman,serif" font-size="14.00">SituationsController</text>
<polyline fill="none" stroke="black" points="47.0709,-959.105 202.071,-959.105 "/>
<text text-anchor="start" x="55.0709" y="-942.505" font-family="Times Roman,serif" font-size="14.00">create</text>
<text text-anchor="start" x="55.0709" y="-924.505" font-family="Times Roman,serif" font-size="14.00">destroy</text>
<text text-anchor="start" x="55.0709" y="-906.505" font-family="Times Roman,serif" font-size="14.00">edit</text>
<text text-anchor="start" x="55.0709" y="-888.505" font-family="Times Roman,serif" font-size="14.00">index</text>
<text text-anchor="start" x="55.0709" y="-870.505" font-family="Times Roman,serif" font-size="14.00">new</text>
<text text-anchor="start" x="55.0709" y="-852.505" font-family="Times Roman,serif" font-size="14.00">show</text>
<text text-anchor="start" x="55.0709" y="-834.505" font-family="Times Roman,serif" font-size="14.00">update</text>
<polyline fill="none" stroke="black" points="47.0709,-825.105 202.071,-825.105 "/>
<polyline fill="none" stroke="black" points="47.0709,-801.105 202.071,-801.105 "/>
<text text-anchor="start" x="55.0709" y="-784.505" font-family="Times Roman,serif" font-size="14.00">_layout</text>
</g>
<!-- ApplicationController&#45;&gt;SituationsController -->
<g id="edge22" class="edge"><title>ApplicationController&#45;&gt;SituationsController</title>
<path fill="none" stroke="black" d="M546.597,-590.445C539.612,-600.144 532.606,-610.138 526.191,-619.736 481.167,-687.104 499.206,-730.679 431.873,-775.756 363.635,-821.438 326.379,-775.664 249.261,-803.88 233.416,-809.677 217.389,-817.606 202.344,-826.168"/>
</g>
<!-- JobsController -->
<g id="node14" class="node"><title>JobsController</title>
<polyline fill="none" stroke="black" points="826.512,-305.788 915.512,-305.788 "/>
<path fill="none" stroke="black" d="M915.512,-305.788C921.512,-305.788 927.512,-311.788 927.512,-317.788"/>
<polyline fill="none" stroke="black" points="927.512,-317.788 927.512,-503.788 "/>
<path fill="none" stroke="black" d="M927.512,-503.788C927.512,-509.788 921.512,-515.788 915.512,-515.788"/>
<polyline fill="none" stroke="black" points="915.512,-515.788 826.512,-515.788 "/>
<path fill="none" stroke="black" d="M826.512,-515.788C820.512,-515.788 814.512,-509.788 814.512,-503.788"/>
<polyline fill="none" stroke="black" points="814.512,-503.788 814.512,-317.788 "/>
<path fill="none" stroke="black" d="M814.512,-317.788C814.512,-311.788 820.512,-305.788 826.512,-305.788"/>
<text text-anchor="middle" x="871.012" y="-499.188" font-family="Times Roman,serif" font-size="14.00">JobsController</text>
<polyline fill="none" stroke="black" points="814.512,-489.788 927.512,-489.788 "/>
<text text-anchor="start" x="822.512" y="-473.188" font-family="Times Roman,serif" font-size="14.00">create</text>
<text text-anchor="start" x="822.512" y="-455.188" font-family="Times Roman,serif" font-size="14.00">destroy</text>
<text text-anchor="start" x="822.512" y="-437.188" font-family="Times Roman,serif" font-size="14.00">edit</text>
<text text-anchor="start" x="822.512" y="-419.188" font-family="Times Roman,serif" font-size="14.00">index</text>
<text text-anchor="start" x="822.512" y="-401.188" font-family="Times Roman,serif" font-size="14.00">new</text>
<text text-anchor="start" x="822.512" y="-383.188" font-family="Times Roman,serif" font-size="14.00">show</text>
<text text-anchor="start" x="822.512" y="-365.188" font-family="Times Roman,serif" font-size="14.00">update</text>
<polyline fill="none" stroke="black" points="814.512,-355.788 927.512,-355.788 "/>
<polyline fill="none" stroke="black" points="814.512,-331.788 927.512,-331.788 "/>
<text text-anchor="start" x="822.512" y="-315.188" font-family="Times Roman,serif" font-size="14.00">_layout</text>
</g>
<!-- ApplicationController&#45;&gt;JobsController -->
<g id="edge24" class="edge"><title>ApplicationController&#45;&gt;JobsController</title>
<path fill="none" stroke="black" d="M712.113,-478.339C747.631,-463.24 784.918,-447.388 814.439,-434.838"/>
</g>
<!-- InternshipsUsersController -->
<g id="node15" class="node"><title>InternshipsUsersController</title>
<polyline fill="none" stroke="black" points="788.28,-812.692 965.28,-812.692 "/>
<path fill="none" stroke="black" d="M965.28,-812.692C971.28,-812.692 977.28,-818.692 977.28,-824.692"/>
<polyline fill="none" stroke="black" points="977.28,-824.692 977.28,-1010.69 "/>
<path fill="none" stroke="black" d="M977.28,-1010.69C977.28,-1016.69 971.28,-1022.69 965.28,-1022.69"/>
<polyline fill="none" stroke="black" points="965.28,-1022.69 788.28,-1022.69 "/>
<path fill="none" stroke="black" d="M788.28,-1022.69C782.28,-1022.69 776.28,-1016.69 776.28,-1010.69"/>
<polyline fill="none" stroke="black" points="776.28,-1010.69 776.28,-824.692 "/>
<path fill="none" stroke="black" d="M776.28,-824.692C776.28,-818.692 782.28,-812.692 788.28,-812.692"/>
<text text-anchor="middle" x="876.78" y="-1006.09" font-family="Times Roman,serif" font-size="14.00">InternshipsUsersController</text>
<polyline fill="none" stroke="black" points="776.28,-996.692 977.28,-996.692 "/>
<text text-anchor="start" x="784.28" y="-980.092" font-family="Times Roman,serif" font-size="14.00">create</text>
<text text-anchor="start" x="784.28" y="-962.092" font-family="Times Roman,serif" font-size="14.00">destroy</text>
<text text-anchor="start" x="784.28" y="-944.092" font-family="Times Roman,serif" font-size="14.00">edit</text>
<text text-anchor="start" x="784.28" y="-926.092" font-family="Times Roman,serif" font-size="14.00">index</text>
<text text-anchor="start" x="784.28" y="-908.092" font-family="Times Roman,serif" font-size="14.00">new</text>
<text text-anchor="start" x="784.28" y="-890.092" font-family="Times Roman,serif" font-size="14.00">show</text>
<text text-anchor="start" x="784.28" y="-872.092" font-family="Times Roman,serif" font-size="14.00">update</text>
<polyline fill="none" stroke="black" points="776.28,-862.692 977.28,-862.692 "/>
<polyline fill="none" stroke="black" points="776.28,-838.692 977.28,-838.692 "/>
<text text-anchor="start" x="784.28" y="-822.092" font-family="Times Roman,serif" font-size="14.00">_layout</text>
</g>
<!-- ApplicationController&#45;&gt;InternshipsUsersController -->
<g id="edge26" class="edge"><title>ApplicationController&#45;&gt;InternshipsUsersController</title>
<path fill="none" stroke="black" d="M658.181,-590.024C667.397,-599.654 676.483,-609.739 684.591,-619.736 733.639,-680.215 781.142,-753.677 816.65,-812.524"/>
</g>
<!-- LocalitiesController -->
<g id="node16" class="node"><title>LocalitiesController</title>
<polyline fill="none" stroke="black" points="551.463,-845.922 676.463,-845.922 "/>
<path fill="none" stroke="black" d="M676.463,-845.922C682.463,-845.922 688.463,-851.922 688.463,-857.922"/>
<polyline fill="none" stroke="black" points="688.463,-857.922 688.463,-1043.92 "/>
<path fill="none" stroke="black" d="M688.463,-1043.92C688.463,-1049.92 682.463,-1055.92 676.463,-1055.92"/>
<polyline fill="none" stroke="black" points="676.463,-1055.92 551.463,-1055.92 "/>
<path fill="none" stroke="black" d="M551.463,-1055.92C545.463,-1055.92 539.463,-1049.92 539.463,-1043.92"/>
<polyline fill="none" stroke="black" points="539.463,-1043.92 539.463,-857.922 "/>
<path fill="none" stroke="black" d="M539.463,-857.922C539.463,-851.922 545.463,-845.922 551.463,-845.922"/>
<text text-anchor="middle" x="613.963" y="-1039.32" font-family="Times Roman,serif" font-size="14.00">LocalitiesController</text>
<polyline fill="none" stroke="black" points="539.463,-1029.92 688.463,-1029.92 "/>
<text text-anchor="start" x="547.463" y="-1013.32" font-family="Times Roman,serif" font-size="14.00">create</text>
<text text-anchor="start" x="547.463" y="-995.322" font-family="Times Roman,serif" font-size="14.00">destroy</text>
<text text-anchor="start" x="547.463" y="-977.322" font-family="Times Roman,serif" font-size="14.00">edit</text>
<text text-anchor="start" x="547.463" y="-959.322" font-family="Times Roman,serif" font-size="14.00">index</text>
<text text-anchor="start" x="547.463" y="-941.322" font-family="Times Roman,serif" font-size="14.00">new</text>
<text text-anchor="start" x="547.463" y="-923.322" font-family="Times Roman,serif" font-size="14.00">show</text>
<text text-anchor="start" x="547.463" y="-905.322" font-family="Times Roman,serif" font-size="14.00">update</text>
<polyline fill="none" stroke="black" points="539.463,-895.922 688.463,-895.922 "/>
<polyline fill="none" stroke="black" points="539.463,-871.922 688.463,-871.922 "/>
<text text-anchor="start" x="547.463" y="-855.322" font-family="Times Roman,serif" font-size="14.00">_layout</text>
</g>
<!-- ApplicationController&#45;&gt;LocalitiesController -->
<g id="edge28" class="edge"><title>ApplicationController&#45;&gt;LocalitiesController</title>
<path fill="none" stroke="black" d="M540.327,-590.06C534.547,-599.492 529.548,-609.512 526.191,-619.736 496.185,-711.113 495.352,-745.036 526.191,-836.136 529.529,-845.997 534.092,-855.678 539.394,-864.977"/>
</g>
<!-- SessionsController -->
<g id="node17" class="node"><title>SessionsController</title>
<polyline fill="none" stroke="black" points="543.321,-260.83 663.321,-260.83 "/>
<path fill="none" stroke="black" d="M663.321,-260.83C669.321,-260.83 675.321,-266.83 675.321,-272.83"/>
<polyline fill="none" stroke="black" points="675.321,-272.83 675.321,-386.83 "/>
<path fill="none" stroke="black" d="M675.321,-386.83C675.321,-392.83 669.321,-398.83 663.321,-398.83"/>
<polyline fill="none" stroke="black" points="663.321,-398.83 543.321,-398.83 "/>
<path fill="none" stroke="black" d="M543.321,-398.83C537.321,-398.83 531.321,-392.83 531.321,-386.83"/>
<polyline fill="none" stroke="black" points="531.321,-386.83 531.321,-272.83 "/>
<path fill="none" stroke="black" d="M531.321,-272.83C531.321,-266.83 537.321,-260.83 543.321,-260.83"/>
<text text-anchor="middle" x="603.321" y="-382.23" font-family="Times Roman,serif" font-size="14.00">SessionsController</text>
<polyline fill="none" stroke="black" points="531.321,-372.83 675.321,-372.83 "/>
<text text-anchor="start" x="539.321" y="-356.23" font-family="Times Roman,serif" font-size="14.00">create</text>
<text text-anchor="start" x="539.321" y="-338.23" font-family="Times Roman,serif" font-size="14.00">destroy</text>
<text text-anchor="start" x="539.321" y="-320.23" font-family="Times Roman,serif" font-size="14.00">new</text>
<polyline fill="none" stroke="black" points="531.321,-310.83 675.321,-310.83 "/>
<polyline fill="none" stroke="black" points="531.321,-286.83 675.321,-286.83 "/>
<text text-anchor="start" x="539.321" y="-270.23" font-family="Times Roman,serif" font-size="14.00">_layout</text>
</g>
<!-- ApplicationController&#45;&gt;SessionsController -->
<g id="edge30" class="edge"><title>ApplicationController&#45;&gt;SessionsController</title>
<path fill="none" stroke="black" d="M596.168,-467.872C597.294,-446.149 598.569,-421.538 599.728,-399.175"/>
</g>
</g>
</svg>
