<?xml version="1.0" encoding="UTF-8" standalone="no"?>
<!DOCTYPE svg PUBLIC "-//W3C//DTD SVG 1.1//EN"
 "http://www.w3.org/Graphics/SVG/1.1/DTD/svg11.dtd">
<!-- Generated by graphviz version 2.26.3 (20100126.1600)
 -->
<!-- Title: controllers_diagram Pages: 1 -->
<svg width="1366pt" height="1447pt"
 viewBox="0.00 0.00 1366.37 1447.29" xmlns="http://www.w3.org/2000/svg" xmlns:xlink="http://www.w3.org/1999/xlink">
<g id="graph1" class="graph" transform="scale(1 1) rotate(0) translate(4 1443.29)">
<title>controllers_diagram</title>
<polygon fill="white" stroke="white" points="-4,5 -4,-1443.29 1363.37,-1443.29 1363.37,5 -4,5"/>
<!-- _diagram_info -->
<g id="node1" class="node"><title>_diagram_info</title>
<text text-anchor="start" x="849" y="-78.3" font-family="Times Roman,serif" font-size="13.00">Controllers diagram</text>
<text text-anchor="start" x="849" y="-61.3" font-family="Times Roman,serif" font-size="13.00">Date: May 08 2013 &#45; 21:02</text>
<text text-anchor="start" x="849" y="-44.3" font-family="Times Roman,serif" font-size="13.00">Migration version: 20130415035859</text>
<text text-anchor="start" x="849" y="-27.3" font-family="Times Roman,serif" font-size="13.00">Generated by RailRoady 1.1.0</text>
<text text-anchor="start" x="849" y="-10.3" font-family="Times Roman,serif" font-size="13.00">http://railroady.prestonlee.com</text>
</g>
<!-- CompaniesController -->
<g id="node2" class="node"><title>CompaniesController</title>
<polyline fill="none" stroke="black" points="13,-696.169 227,-696.169 "/>
<path fill="none" stroke="black" d="M227,-696.169C233,-696.169 239,-702.169 239,-708.169"/>
<polyline fill="none" stroke="black" points="239,-708.169 239,-912.169 "/>
<path fill="none" stroke="black" d="M239,-912.169C239,-918.169 233,-924.169 227,-924.169"/>
<polyline fill="none" stroke="black" points="227,-924.169 13,-924.169 "/>
<path fill="none" stroke="black" d="M13,-924.169C7,-924.169 1,-918.169 1,-912.169"/>
<polyline fill="none" stroke="black" points="1,-912.169 1,-708.169 "/>
<path fill="none" stroke="black" d="M1,-708.169C1,-702.169 7,-696.169 13,-696.169"/>
<text text-anchor="middle" x="120" y="-907.569" font-family="Times Roman,serif" font-size="14.00">CompaniesController</text>
<polyline fill="none" stroke="black" points="1,-898.169 239,-898.169 "/>
<text text-anchor="start" x="9" y="-881.569" font-family="Times Roman,serif" font-size="14.00">_one_time_conditions_valid_43?</text>
<text text-anchor="start" x="9" y="-863.569" font-family="Times Roman,serif" font-size="14.00">create</text>
<text text-anchor="start" x="9" y="-845.569" font-family="Times Roman,serif" font-size="14.00">destroy</text>
<text text-anchor="start" x="9" y="-827.569" font-family="Times Roman,serif" font-size="14.00">edit</text>
<text text-anchor="start" x="9" y="-809.569" font-family="Times Roman,serif" font-size="14.00">index</text>
<text text-anchor="start" x="9" y="-791.569" font-family="Times Roman,serif" font-size="14.00">new</text>
<text text-anchor="start" x="9" y="-773.569" font-family="Times Roman,serif" font-size="14.00">show</text>
<text text-anchor="start" x="9" y="-755.569" font-family="Times Roman,serif" font-size="14.00">update</text>
<polyline fill="none" stroke="black" points="1,-746.169 239,-746.169 "/>
<polyline fill="none" stroke="black" points="1,-722.169 239,-722.169 "/>
<text text-anchor="start" x="9" y="-705.569" font-family="Times Roman,serif" font-size="14.00">_layout</text>
</g>
<!-- LocalitiesController -->
<g id="node3" class="node"><title>LocalitiesController</title>
<polyline fill="none" stroke="black" points="1177.16,-1203.22 1302.16,-1203.22 "/>
<path fill="none" stroke="black" d="M1302.16,-1203.22C1308.16,-1203.22 1314.16,-1209.22 1314.16,-1215.22"/>
<polyline fill="none" stroke="black" points="1314.16,-1215.22 1314.16,-1401.22 "/>
<path fill="none" stroke="black" d="M1314.16,-1401.22C1314.16,-1407.22 1308.16,-1413.22 1302.16,-1413.22"/>
<polyline fill="none" stroke="black" points="1302.16,-1413.22 1177.16,-1413.22 "/>
<path fill="none" stroke="black" d="M1177.16,-1413.22C1171.16,-1413.22 1165.16,-1407.22 1165.16,-1401.22"/>
<polyline fill="none" stroke="black" points="1165.16,-1401.22 1165.16,-1215.22 "/>
<path fill="none" stroke="black" d="M1165.16,-1215.22C1165.16,-1209.22 1171.16,-1203.22 1177.16,-1203.22"/>
<text text-anchor="middle" x="1239.66" y="-1396.62" font-family="Times Roman,serif" font-size="14.00">LocalitiesController</text>
<polyline fill="none" stroke="black" points="1165.16,-1387.22 1314.16,-1387.22 "/>
<text text-anchor="start" x="1173.16" y="-1370.62" font-family="Times Roman,serif" font-size="14.00">create</text>
<text text-anchor="start" x="1173.16" y="-1352.62" font-family="Times Roman,serif" font-size="14.00">destroy</text>
<text text-anchor="start" x="1173.16" y="-1334.62" font-family="Times Roman,serif" font-size="14.00">edit</text>
<text text-anchor="start" x="1173.16" y="-1316.62" font-family="Times Roman,serif" font-size="14.00">index</text>
<text text-anchor="start" x="1173.16" y="-1298.62" font-family="Times Roman,serif" font-size="14.00">new</text>
<text text-anchor="start" x="1173.16" y="-1280.62" font-family="Times Roman,serif" font-size="14.00">show</text>
<text text-anchor="start" x="1173.16" y="-1262.62" font-family="Times Roman,serif" font-size="14.00">update</text>
<polyline fill="none" stroke="black" points="1165.16,-1253.22 1314.16,-1253.22 "/>
<polyline fill="none" stroke="black" points="1165.16,-1229.22 1314.16,-1229.22 "/>
<text text-anchor="start" x="1173.16" y="-1212.62" font-family="Times Roman,serif" font-size="14.00">_layout</text>
</g>
<!-- InternshipsController -->
<g id="node4" class="node"><title>InternshipsController</title>
<polyline fill="none" stroke="black" points="393.6,-106.5 616.6,-106.5 "/>
<path fill="none" stroke="black" d="M616.6,-106.5C622.6,-106.5 628.6,-112.5 628.6,-118.5"/>
<polyline fill="none" stroke="black" points="628.6,-118.5 628.6,-340.5 "/>
<path fill="none" stroke="black" d="M628.6,-340.5C628.6,-346.5 622.6,-352.5 616.6,-352.5"/>
<polyline fill="none" stroke="black" points="616.6,-352.5 393.6,-352.5 "/>
<path fill="none" stroke="black" d="M393.6,-352.5C387.6,-352.5 381.6,-346.5 381.6,-340.5"/>
<polyline fill="none" stroke="black" points="381.6,-340.5 381.6,-118.5 "/>
<path fill="none" stroke="black" d="M381.6,-118.5C381.6,-112.5 387.6,-106.5 393.6,-106.5"/>
<text text-anchor="middle" x="505.1" y="-335.9" font-family="Times Roman,serif" font-size="14.00">InternshipsController</text>
<polyline fill="none" stroke="black" points="381.6,-326.5 628.6,-326.5 "/>
<text text-anchor="start" x="389.6" y="-309.9" font-family="Times Roman,serif" font-size="14.00">_one_time_conditions_valid_101?</text>
<text text-anchor="start" x="389.6" y="-291.9" font-family="Times Roman,serif" font-size="14.00">create</text>
<text text-anchor="start" x="389.6" y="-273.9" font-family="Times Roman,serif" font-size="14.00">destroy</text>
<text text-anchor="start" x="389.6" y="-255.9" font-family="Times Roman,serif" font-size="14.00">edit</text>
<text text-anchor="start" x="389.6" y="-237.9" font-family="Times Roman,serif" font-size="14.00">index</text>
<text text-anchor="start" x="389.6" y="-219.9" font-family="Times Roman,serif" font-size="14.00">new</text>
<text text-anchor="start" x="389.6" y="-201.9" font-family="Times Roman,serif" font-size="14.00">postularme</text>
<text text-anchor="start" x="389.6" y="-183.9" font-family="Times Roman,serif" font-size="14.00">show</text>
<text text-anchor="start" x="389.6" y="-165.9" font-family="Times Roman,serif" font-size="14.00">update</text>
<polyline fill="none" stroke="black" points="381.6,-156.5 628.6,-156.5 "/>
<polyline fill="none" stroke="black" points="381.6,-132.5 628.6,-132.5 "/>
<text text-anchor="start" x="389.6" y="-115.9" font-family="Times Roman,serif" font-size="14.00">_layout</text>
</g>
<!-- SessionsController -->
<g id="node5" class="node"><title>SessionsController</title>
<polyline fill="none" stroke="black" points="472.875,-1256.18 592.875,-1256.18 "/>
<path fill="none" stroke="black" d="M592.875,-1256.18C598.875,-1256.18 604.875,-1262.18 604.875,-1268.18"/>
<polyline fill="none" stroke="black" points="604.875,-1268.18 604.875,-1382.18 "/>
<path fill="none" stroke="black" d="M604.875,-1382.18C604.875,-1388.18 598.875,-1394.18 592.875,-1394.18"/>
<polyline fill="none" stroke="black" points="592.875,-1394.18 472.875,-1394.18 "/>
<path fill="none" stroke="black" d="M472.875,-1394.18C466.875,-1394.18 460.875,-1388.18 460.875,-1382.18"/>
<polyline fill="none" stroke="black" points="460.875,-1382.18 460.875,-1268.18 "/>
<path fill="none" stroke="black" d="M460.875,-1268.18C460.875,-1262.18 466.875,-1256.18 472.875,-1256.18"/>
<text text-anchor="middle" x="532.875" y="-1377.58" font-family="Times Roman,serif" font-size="14.00">SessionsController</text>
<polyline fill="none" stroke="black" points="460.875,-1368.18 604.875,-1368.18 "/>
<text text-anchor="start" x="468.875" y="-1351.58" font-family="Times Roman,serif" font-size="14.00">create</text>
<text text-anchor="start" x="468.875" y="-1333.58" font-family="Times Roman,serif" font-size="14.00">destroy</text>
<text text-anchor="start" x="468.875" y="-1315.58" font-family="Times Roman,serif" font-size="14.00">new</text>
<polyline fill="none" stroke="black" points="460.875,-1306.18 604.875,-1306.18 "/>
<polyline fill="none" stroke="black" points="460.875,-1282.18 604.875,-1282.18 "/>
<text text-anchor="start" x="468.875" y="-1265.58" font-family="Times Roman,serif" font-size="14.00">_layout</text>
</g>
<!-- SkillsController -->
<g id="node6" class="node"><title>SkillsController</title>
<polyline fill="none" stroke="black" points="809.557,-897.792 906.557,-897.792 "/>
<path fill="none" stroke="black" d="M906.557,-897.792C912.557,-897.792 918.557,-903.792 918.557,-909.792"/>
<polyline fill="none" stroke="black" points="918.557,-909.792 918.557,-1095.79 "/>
<path fill="none" stroke="black" d="M918.557,-1095.79C918.557,-1101.79 912.557,-1107.79 906.557,-1107.79"/>
<polyline fill="none" stroke="black" points="906.557,-1107.79 809.557,-1107.79 "/>
<path fill="none" stroke="black" d="M809.557,-1107.79C803.557,-1107.79 797.557,-1101.79 797.557,-1095.79"/>
<polyline fill="none" stroke="black" points="797.557,-1095.79 797.557,-909.792 "/>
<path fill="none" stroke="black" d="M797.557,-909.792C797.557,-903.792 803.557,-897.792 809.557,-897.792"/>
<text text-anchor="middle" x="858.057" y="-1091.19" font-family="Times Roman,serif" font-size="14.00">SkillsController</text>
<polyline fill="none" stroke="black" points="797.557,-1081.79 918.557,-1081.79 "/>
<text text-anchor="start" x="805.557" y="-1065.19" font-family="Times Roman,serif" font-size="14.00">create</text>
<text text-anchor="start" x="805.557" y="-1047.19" font-family="Times Roman,serif" font-size="14.00">destroy</text>
<text text-anchor="start" x="805.557" y="-1029.19" font-family="Times Roman,serif" font-size="14.00">edit</text>
<text text-anchor="start" x="805.557" y="-1011.19" font-family="Times Roman,serif" font-size="14.00">index</text>
<text text-anchor="start" x="805.557" y="-993.192" font-family="Times Roman,serif" font-size="14.00">new</text>
<text text-anchor="start" x="805.557" y="-975.192" font-family="Times Roman,serif" font-size="14.00">show</text>
<text text-anchor="start" x="805.557" y="-957.192" font-family="Times Roman,serif" font-size="14.00">update</text>
<polyline fill="none" stroke="black" points="797.557,-947.792 918.557,-947.792 "/>
<polyline fill="none" stroke="black" points="797.557,-923.792 918.557,-923.792 "/>
<text text-anchor="start" x="805.557" y="-907.192" font-family="Times Roman,serif" font-size="14.00">_layout</text>
</g>
<!-- LandingController -->
<g id="node7" class="node"><title>LandingController</title>
<polyline fill="none" stroke="black" points="391.77,-937.288 507.77,-937.288 "/>
<path fill="none" stroke="black" d="M507.77,-937.288C513.77,-937.288 519.77,-943.288 519.77,-949.288"/>
<polyline fill="none" stroke="black" points="519.77,-949.288 519.77,-1027.29 "/>
<path fill="none" stroke="black" d="M519.77,-1027.29C519.77,-1033.29 513.77,-1039.29 507.77,-1039.29"/>
<polyline fill="none" stroke="black" points="507.77,-1039.29 391.77,-1039.29 "/>
<path fill="none" stroke="black" d="M391.77,-1039.29C385.77,-1039.29 379.77,-1033.29 379.77,-1027.29"/>
<polyline fill="none" stroke="black" points="379.77,-1027.29 379.77,-949.288 "/>
<path fill="none" stroke="black" d="M379.77,-949.288C379.77,-943.288 385.77,-937.288 391.77,-937.288"/>
<text text-anchor="middle" x="449.77" y="-1022.69" font-family="Times Roman,serif" font-size="14.00">LandingController</text>
<polyline fill="none" stroke="black" points="379.77,-1013.29 519.77,-1013.29 "/>
<text text-anchor="start" x="387.77" y="-996.688" font-family="Times Roman,serif" font-size="14.00">bienvenida</text>
<polyline fill="none" stroke="black" points="379.77,-987.288 519.77,-987.288 "/>
<polyline fill="none" stroke="black" points="379.77,-963.288 519.77,-963.288 "/>
<text text-anchor="start" x="387.77" y="-946.688" font-family="Times Roman,serif" font-size="14.00">_layout</text>
</g>
<!-- InternshipsTasksController -->
<g id="node8" class="node"><title>InternshipsTasksController</title>
<polyline fill="none" stroke="black" points="50.422,-200.372 226.422,-200.372 "/>
<path fill="none" stroke="black" d="M226.422,-200.372C232.422,-200.372 238.422,-206.372 238.422,-212.372"/>
<polyline fill="none" stroke="black" points="238.422,-212.372 238.422,-398.372 "/>
<path fill="none" stroke="black" d="M238.422,-398.372C238.422,-404.372 232.422,-410.372 226.422,-410.372"/>
<polyline fill="none" stroke="black" points="226.422,-410.372 50.422,-410.372 "/>
<path fill="none" stroke="black" d="M50.422,-410.372C44.422,-410.372 38.422,-404.372 38.422,-398.372"/>
<polyline fill="none" stroke="black" points="38.422,-398.372 38.422,-212.372 "/>
<path fill="none" stroke="black" d="M38.422,-212.372C38.422,-206.372 44.422,-200.372 50.422,-200.372"/>
<text text-anchor="middle" x="138.422" y="-393.772" font-family="Times Roman,serif" font-size="14.00">InternshipsTasksController</text>
<polyline fill="none" stroke="black" points="38.422,-384.372 238.422,-384.372 "/>
<text text-anchor="start" x="46.422" y="-367.772" font-family="Times Roman,serif" font-size="14.00">create</text>
<text text-anchor="start" x="46.422" y="-349.772" font-family="Times Roman,serif" font-size="14.00">destroy</text>
<text text-anchor="start" x="46.422" y="-331.772" font-family="Times Roman,serif" font-size="14.00">edit</text>
<text text-anchor="start" x="46.422" y="-313.772" font-family="Times Roman,serif" font-size="14.00">index</text>
<text text-anchor="start" x="46.422" y="-295.772" font-family="Times Roman,serif" font-size="14.00">new</text>
<text text-anchor="start" x="46.422" y="-277.772" font-family="Times Roman,serif" font-size="14.00">show</text>
<text text-anchor="start" x="46.422" y="-259.772" font-family="Times Roman,serif" font-size="14.00">update</text>
<polyline fill="none" stroke="black" points="38.422,-250.372 238.422,-250.372 "/>
<polyline fill="none" stroke="black" points="38.422,-226.372 238.422,-226.372 "/>
<text text-anchor="start" x="46.422" y="-209.772" font-family="Times Roman,serif" font-size="14.00">_layout</text>
</g>
<!-- ProvincesController -->
<g id="node9" class="node"><title>ProvincesController</title>
<polyline fill="none" stroke="black" points="1204.92,-513.496 1332.92,-513.496 "/>
<path fill="none" stroke="black" d="M1332.92,-513.496C1338.92,-513.496 1344.92,-519.496 1344.92,-525.496"/>
<polyline fill="none" stroke="black" points="1344.92,-525.496 1344.92,-711.496 "/>
<path fill="none" stroke="black" d="M1344.92,-711.496C1344.92,-717.496 1338.92,-723.496 1332.92,-723.496"/>
<polyline fill="none" stroke="black" points="1332.92,-723.496 1204.92,-723.496 "/>
<path fill="none" stroke="black" d="M1204.92,-723.496C1198.92,-723.496 1192.92,-717.496 1192.92,-711.496"/>
<polyline fill="none" stroke="black" points="1192.92,-711.496 1192.92,-525.496 "/>
<path fill="none" stroke="black" d="M1192.92,-525.496C1192.92,-519.496 1198.92,-513.496 1204.92,-513.496"/>
<text text-anchor="middle" x="1268.92" y="-706.896" font-family="Times Roman,serif" font-size="14.00">ProvincesController</text>
<polyline fill="none" stroke="black" points="1192.92,-697.496 1344.92,-697.496 "/>
<text text-anchor="start" x="1200.92" y="-680.896" font-family="Times Roman,serif" font-size="14.00">create</text>
<text text-anchor="start" x="1200.92" y="-662.896" font-family="Times Roman,serif" font-size="14.00">destroy</text>
<text text-anchor="start" x="1200.92" y="-644.896" font-family="Times Roman,serif" font-size="14.00">edit</text>
<text text-anchor="start" x="1200.92" y="-626.896" font-family="Times Roman,serif" font-size="14.00">index</text>
<text text-anchor="start" x="1200.92" y="-608.896" font-family="Times Roman,serif" font-size="14.00">new</text>
<text text-anchor="start" x="1200.92" y="-590.896" font-family="Times Roman,serif" font-size="14.00">show</text>
<text text-anchor="start" x="1200.92" y="-572.896" font-family="Times Roman,serif" font-size="14.00">update</text>
<polyline fill="none" stroke="black" points="1192.92,-563.496 1344.92,-563.496 "/>
<polyline fill="none" stroke="black" points="1192.92,-539.496 1344.92,-539.496 "/>
<text text-anchor="start" x="1200.92" y="-522.896" font-family="Times Roman,serif" font-size="14.00">_layout</text>
</g>
<!-- TasksController -->
<g id="node10" class="node"><title>TasksController</title>
<polyline fill="none" stroke="black" points="339.687,-508.328 437.687,-508.328 "/>
<path fill="none" stroke="black" d="M437.687,-508.328C443.687,-508.328 449.687,-514.328 449.687,-520.328"/>
<polyline fill="none" stroke="black" points="449.687,-520.328 449.687,-706.328 "/>
<path fill="none" stroke="black" d="M449.687,-706.328C449.687,-712.328 443.687,-718.328 437.687,-718.328"/>
<polyline fill="none" stroke="black" points="437.687,-718.328 339.687,-718.328 "/>
<path fill="none" stroke="black" d="M339.687,-718.328C333.687,-718.328 327.687,-712.328 327.687,-706.328"/>
<polyline fill="none" stroke="black" points="327.687,-706.328 327.687,-520.328 "/>
<path fill="none" stroke="black" d="M327.687,-520.328C327.687,-514.328 333.687,-508.328 339.687,-508.328"/>
<text text-anchor="middle" x="388.687" y="-701.728" font-family="Times Roman,serif" font-size="14.00">TasksController</text>
<polyline fill="none" stroke="black" points="327.687,-692.328 449.687,-692.328 "/>
<text text-anchor="start" x="335.687" y="-675.728" font-family="Times Roman,serif" font-size="14.00">create</text>
<text text-anchor="start" x="335.687" y="-657.728" font-family="Times Roman,serif" font-size="14.00">destroy</text>
<text text-anchor="start" x="335.687" y="-639.728" font-family="Times Roman,serif" font-size="14.00">edit</text>
<text text-anchor="start" x="335.687" y="-621.728" font-family="Times Roman,serif" font-size="14.00">index</text>
<text text-anchor="start" x="335.687" y="-603.728" font-family="Times Roman,serif" font-size="14.00">new</text>
<text text-anchor="start" x="335.687" y="-585.728" font-family="Times Roman,serif" font-size="14.00">show</text>
<text text-anchor="start" x="335.687" y="-567.728" font-family="Times Roman,serif" font-size="14.00">update</text>
<polyline fill="none" stroke="black" points="327.687,-558.328 449.687,-558.328 "/>
<polyline fill="none" stroke="black" points="327.687,-534.328 449.687,-534.328 "/>
<text text-anchor="start" x="335.687" y="-517.728" font-family="Times Roman,serif" font-size="14.00">_layout</text>
</g>
<!-- InternshipsUsersController -->
<g id="node11" class="node"><title>InternshipsUsersController</title>
<polyline fill="none" stroke="black" points="776.583,-142.432 953.583,-142.432 "/>
<path fill="none" stroke="black" d="M953.583,-142.432C959.583,-142.432 965.583,-148.432 965.583,-154.432"/>
<polyline fill="none" stroke="black" points="965.583,-154.432 965.583,-340.432 "/>
<path fill="none" stroke="black" d="M965.583,-340.432C965.583,-346.432 959.583,-352.432 953.583,-352.432"/>
<polyline fill="none" stroke="black" points="953.583,-352.432 776.583,-352.432 "/>
<path fill="none" stroke="black" d="M776.583,-352.432C770.583,-352.432 764.583,-346.432 764.583,-340.432"/>
<polyline fill="none" stroke="black" points="764.583,-340.432 764.583,-154.432 "/>
<path fill="none" stroke="black" d="M764.583,-154.432C764.583,-148.432 770.583,-142.432 776.583,-142.432"/>
<text text-anchor="middle" x="865.083" y="-335.832" font-family="Times Roman,serif" font-size="14.00">InternshipsUsersController</text>
<polyline fill="none" stroke="black" points="764.583,-326.432 965.583,-326.432 "/>
<text text-anchor="start" x="772.583" y="-309.832" font-family="Times Roman,serif" font-size="14.00">create</text>
<text text-anchor="start" x="772.583" y="-291.832" font-family="Times Roman,serif" font-size="14.00">destroy</text>
<text text-anchor="start" x="772.583" y="-273.832" font-family="Times Roman,serif" font-size="14.00">edit</text>
<text text-anchor="start" x="772.583" y="-255.832" font-family="Times Roman,serif" font-size="14.00">index</text>
<text text-anchor="start" x="772.583" y="-237.832" font-family="Times Roman,serif" font-size="14.00">new</text>
<text text-anchor="start" x="772.583" y="-219.832" font-family="Times Roman,serif" font-size="14.00">show</text>
<text text-anchor="start" x="772.583" y="-201.832" font-family="Times Roman,serif" font-size="14.00">update</text>
<polyline fill="none" stroke="black" points="764.583,-192.432 965.583,-192.432 "/>
<polyline fill="none" stroke="black" points="764.583,-168.432 965.583,-168.432 "/>
<text text-anchor="start" x="772.583" y="-151.832" font-family="Times Roman,serif" font-size="14.00">_layout</text>
</g>
<!-- ContractsController -->
<g id="node12" class="node"><title>ContractsController</title>
<polyline fill="none" stroke="black" points="615.381,-383.687 743.381,-383.687 "/>
<path fill="none" stroke="black" d="M743.381,-383.687C749.381,-383.687 755.381,-389.687 755.381,-395.687"/>
<polyline fill="none" stroke="black" points="755.381,-395.687 755.381,-653.687 "/>
<path fill="none" stroke="black" d="M755.381,-653.687C755.381,-659.687 749.381,-665.687 743.381,-665.687"/>
<polyline fill="none" stroke="black" points="743.381,-665.687 615.381,-665.687 "/>
<path fill="none" stroke="black" d="M615.381,-665.687C609.381,-665.687 603.381,-659.687 603.381,-653.687"/>
<polyline fill="none" stroke="black" points="603.381,-653.687 603.381,-395.687 "/>
<path fill="none" stroke="black" d="M603.381,-395.687C603.381,-389.687 609.381,-383.687 615.381,-383.687"/>
<text text-anchor="middle" x="679.381" y="-649.087" font-family="Times Roman,serif" font-size="14.00">ContractsController</text>
<polyline fill="none" stroke="black" points="603.381,-639.687 755.381,-639.687 "/>
<text text-anchor="start" x="611.381" y="-623.087" font-family="Times Roman,serif" font-size="14.00">cm</text>
<text text-anchor="start" x="611.381" y="-605.087" font-family="Times Roman,serif" font-size="14.00">create</text>
<text text-anchor="start" x="611.381" y="-587.087" font-family="Times Roman,serif" font-size="14.00">destroy</text>
<text text-anchor="start" x="611.381" y="-569.087" font-family="Times Roman,serif" font-size="14.00">edit</text>
<text text-anchor="start" x="611.381" y="-551.087" font-family="Times Roman,serif" font-size="14.00">imprimirmeci</text>
<text text-anchor="start" x="611.381" y="-533.087" font-family="Times Roman,serif" font-size="14.00">imprimirmecm</text>
<text text-anchor="start" x="611.381" y="-515.087" font-family="Times Roman,serif" font-size="14.00">index</text>
<text text-anchor="start" x="611.381" y="-497.087" font-family="Times Roman,serif" font-size="14.00">new</text>
<text text-anchor="start" x="611.381" y="-479.087" font-family="Times Roman,serif" font-size="14.00">redactarme</text>
<text text-anchor="start" x="611.381" y="-461.087" font-family="Times Roman,serif" font-size="14.00">show</text>
<text text-anchor="start" x="611.381" y="-443.087" font-family="Times Roman,serif" font-size="14.00">update</text>
<polyline fill="none" stroke="black" points="603.381,-433.687 755.381,-433.687 "/>
<polyline fill="none" stroke="black" points="603.381,-409.687 755.381,-409.687 "/>
<text text-anchor="start" x="611.381" y="-393.087" font-family="Times Roman,serif" font-size="14.00">_layout</text>
</g>
<!-- AdminController -->
<g id="node13" class="node"><title>AdminController</title>
<polyline fill="none" stroke="black" points="100.242,-1227.17 205.242,-1227.17 "/>
<path fill="none" stroke="black" d="M205.242,-1227.17C211.242,-1227.17 217.242,-1233.17 217.242,-1239.17"/>
<polyline fill="none" stroke="black" points="217.242,-1239.17 217.242,-1317.17 "/>
<path fill="none" stroke="black" d="M217.242,-1317.17C217.242,-1323.17 211.242,-1329.17 205.242,-1329.17"/>
<polyline fill="none" stroke="black" points="205.242,-1329.17 100.242,-1329.17 "/>
<path fill="none" stroke="black" d="M100.242,-1329.17C94.2417,-1329.17 88.2417,-1323.17 88.2417,-1317.17"/>
<polyline fill="none" stroke="black" points="88.2417,-1317.17 88.2417,-1239.17 "/>
<path fill="none" stroke="black" d="M88.2417,-1239.17C88.2417,-1233.17 94.2417,-1227.17 100.242,-1227.17"/>
<text text-anchor="middle" x="152.742" y="-1312.57" font-family="Times Roman,serif" font-size="14.00">AdminController</text>
<polyline fill="none" stroke="black" points="88.2417,-1303.17 217.242,-1303.17 "/>
<text text-anchor="start" x="96.2417" y="-1286.57" font-family="Times Roman,serif" font-size="14.00">index</text>
<polyline fill="none" stroke="black" points="88.2417,-1277.17 217.242,-1277.17 "/>
<polyline fill="none" stroke="black" points="88.2417,-1253.17 217.242,-1253.17 "/>
<text text-anchor="start" x="96.2417" y="-1236.57" font-family="Times Roman,serif" font-size="14.00">_layout</text>
</g>
<!-- UsersController -->
<g id="node14" class="node"><title>UsersController</title>
<polyline fill="none" stroke="black" points="1122.37,-830.287 1345.37,-830.287 "/>
<path fill="none" stroke="black" d="M1345.37,-830.287C1351.37,-830.287 1357.37,-836.287 1357.37,-842.287"/>
<polyline fill="none" stroke="black" points="1357.37,-842.287 1357.37,-1046.29 "/>
<path fill="none" stroke="black" d="M1357.37,-1046.29C1357.37,-1052.29 1351.37,-1058.29 1345.37,-1058.29"/>
<polyline fill="none" stroke="black" points="1345.37,-1058.29 1122.37,-1058.29 "/>
<path fill="none" stroke="black" d="M1122.37,-1058.29C1116.37,-1058.29 1110.37,-1052.29 1110.37,-1046.29"/>
<polyline fill="none" stroke="black" points="1110.37,-1046.29 1110.37,-842.287 "/>
<path fill="none" stroke="black" d="M1110.37,-842.287C1110.37,-836.287 1116.37,-830.287 1122.37,-830.287"/>
<text text-anchor="middle" x="1233.87" y="-1041.69" font-family="Times Roman,serif" font-size="14.00">UsersController</text>
<polyline fill="none" stroke="black" points="1110.37,-1032.29 1357.37,-1032.29 "/>
<text text-anchor="start" x="1118.37" y="-1015.69" font-family="Times Roman,serif" font-size="14.00">_one_time_conditions_valid_207?</text>
<text text-anchor="start" x="1118.37" y="-997.687" font-family="Times Roman,serif" font-size="14.00">create</text>
<text text-anchor="start" x="1118.37" y="-979.687" font-family="Times Roman,serif" font-size="14.00">destroy</text>
<text text-anchor="start" x="1118.37" y="-961.687" font-family="Times Roman,serif" font-size="14.00">edit</text>
<text text-anchor="start" x="1118.37" y="-943.687" font-family="Times Roman,serif" font-size="14.00">index</text>
<text text-anchor="start" x="1118.37" y="-925.687" font-family="Times Roman,serif" font-size="14.00">new</text>
<text text-anchor="start" x="1118.37" y="-907.687" font-family="Times Roman,serif" font-size="14.00">show</text>
<text text-anchor="start" x="1118.37" y="-889.687" font-family="Times Roman,serif" font-size="14.00">update</text>
<polyline fill="none" stroke="black" points="1110.37,-880.287 1357.37,-880.287 "/>
<polyline fill="none" stroke="black" points="1110.37,-856.287 1357.37,-856.287 "/>
<text text-anchor="start" x="1118.37" y="-839.687" font-family="Times Roman,serif" font-size="14.00">_layout</text>
</g>
<!-- ApplicationController -->
<g id="node15" class="node"><title>ApplicationController</title>
<polyline fill="none" stroke="black" points="552.796,-741.741 766.796,-741.741 "/>
<path fill="none" stroke="black" d="M766.796,-741.741C772.796,-741.741 778.796,-747.741 778.796,-753.741"/>
<polyline fill="none" stroke="black" points="778.796,-753.741 778.796,-851.741 "/>
<path fill="none" stroke="black" d="M778.796,-851.741C778.796,-857.741 772.796,-863.741 766.796,-863.741"/>
<polyline fill="none" stroke="black" points="766.796,-863.741 552.796,-863.741 "/>
<path fill="none" stroke="black" d="M552.796,-863.741C546.796,-863.741 540.796,-857.741 540.796,-851.741"/>
<polyline fill="none" stroke="black" points="540.796,-851.741 540.796,-753.741 "/>
<path fill="none" stroke="black" d="M540.796,-753.741C540.796,-747.741 546.796,-741.741 552.796,-741.741"/>
<text text-anchor="middle" x="659.796" y="-847.141" font-family="Times Roman,serif" font-size="14.00">ApplicationController</text>
<polyline fill="none" stroke="black" points="540.796,-837.741 778.796,-837.741 "/>
<text text-anchor="start" x="548.796" y="-821.141" font-family="Times Roman,serif" font-size="14.00">_one_time_conditions_valid_10?</text>
<text text-anchor="start" x="548.796" y="-803.141" font-family="Times Roman,serif" font-size="14.00">_one_time_conditions_valid_8?</text>
<polyline fill="none" stroke="black" points="540.796,-793.741 778.796,-793.741 "/>
<text text-anchor="start" x="548.796" y="-777.141" font-family="Times Roman,serif" font-size="14.00">authorize</text>
<polyline fill="none" stroke="black" points="540.796,-767.741 778.796,-767.741 "/>
<text text-anchor="start" x="548.796" y="-751.141" font-family="Times Roman,serif" font-size="14.00">_layout</text>
</g>
<!-- ApplicationController&#45;&gt;CompaniesController -->
<g id="edge2" class="edge"><title>ApplicationController&#45;&gt;CompaniesController</title>
<path fill="none" stroke="black" d="M540.667,-804.38C451.095,-805.613 328.902,-807.294 239.29,-808.527"/>
</g>
<!-- ApplicationController&#45;&gt;LocalitiesController -->
<g id="edge4" class="edge"><title>ApplicationController&#45;&gt;LocalitiesController</title>
<path fill="none" stroke="black" d="M778.944,-828.749C826.376,-842.965 879.589,-864.08 921.757,-894.592 1034.94,-976.489 1127.15,-1109.86 1182.56,-1202.95"/>
</g>
<!-- ApplicationController&#45;&gt;InternshipsController -->
<g id="edge6" class="edge"><title>ApplicationController&#45;&gt;InternshipsController</title>
<path fill="none" stroke="black" d="M629.326,-741.475C619.022,-719.037 608.127,-693.187 600.181,-668.887 565.976,-564.29 540.606,-441.621 524.716,-352.517"/>
</g>
<!-- ApplicationController&#45;&gt;SessionsController -->
<g id="edge8" class="edge"><title>ApplicationController&#45;&gt;SessionsController</title>
<path fill="none" stroke="black" d="M644.926,-863.951C621.131,-961.895 574.644,-1153.25 549.68,-1256.01"/>
</g>
<!-- ApplicationController&#45;&gt;SkillsController -->
<g id="edge10" class="edge"><title>ApplicationController&#45;&gt;SkillsController</title>
<path fill="none" stroke="black" d="M720.358,-863.85C744.842,-888.555 773.044,-917.011 797.524,-941.713"/>
</g>
<!-- ApplicationController&#45;&gt;LandingController -->
<g id="edge12" class="edge"><title>ApplicationController&#45;&gt;LandingController</title>
<path fill="none" stroke="black" d="M590.734,-863.753C563.834,-887.519 533.353,-914.447 507.634,-937.168"/>
</g>
<!-- ApplicationController&#45;&gt;InternshipsTasksController -->
<g id="edge14" class="edge"><title>ApplicationController&#45;&gt;InternshipsTasksController</title>
<path fill="none" stroke="black" d="M627.024,-741.56C590.553,-677.374 526.91,-576.135 452.887,-505.128 389.291,-444.124 304.313,-391.472 238.728,-355.562"/>
</g>
<!-- ApplicationController&#45;&gt;ProvincesController -->
<g id="edge16" class="edge"><title>ApplicationController&#45;&gt;ProvincesController</title>
<path fill="none" stroke="black" d="M779.198,-802.113C852.444,-798.65 947.213,-788.573 1027.26,-761.772 1086.57,-741.911 1147.11,-705.991 1192.75,-675.086"/>
</g>
<!-- ApplicationController&#45;&gt;TasksController -->
<g id="edge18" class="edge"><title>ApplicationController&#45;&gt;TasksController</title>
<path fill="none" stroke="black" d="M572.149,-741.506C532.235,-713.62 485.962,-681.29 449.873,-656.077"/>
</g>
<!-- ApplicationController&#45;&gt;InternshipsUsersController -->
<g id="edge20" class="edge"><title>ApplicationController&#45;&gt;InternshipsUsersController</title>
<path fill="none" stroke="black" d="M712.666,-741.622C729.347,-719.827 746.544,-694.345 758.581,-668.887 806.806,-566.886 835.027,-440.287 850.162,-352.606"/>
</g>
<!-- ApplicationController&#45;&gt;ContractsController -->
<g id="edge22" class="edge"><title>ApplicationController&#45;&gt;ContractsController</title>
<path fill="none" stroke="black" d="M664.094,-741.721C665.681,-719.18 667.554,-692.595 669.434,-665.902"/>
</g>
<!-- ApplicationController&#45;&gt;AdminController -->
<g id="edge24" class="edge"><title>ApplicationController&#45;&gt;AdminController</title>
<path fill="none" stroke="black" d="M634.933,-863.955C611.652,-915.855 572.973,-990.011 522.97,-1042.49 432.696,-1137.23 296.91,-1210.93 217.312,-1249.17"/>
</g>
<!-- ApplicationController&#45;&gt;UsersController -->
<g id="edge26" class="edge"><title>ApplicationController&#45;&gt;UsersController</title>
<path fill="none" stroke="black" d="M779.094,-832.155C876.005,-856.05 1012.22,-889.635 1110.27,-913.811"/>
</g>
<!-- JobsController -->
<g id="node16" class="node"><title>JobsController</title>
<polyline fill="none" stroke="black" points="821.88,-1227.79 910.88,-1227.79 "/>
<path fill="none" stroke="black" d="M910.88,-1227.79C916.88,-1227.79 922.88,-1233.79 922.88,-1239.79"/>
<polyline fill="none" stroke="black" points="922.88,-1239.79 922.88,-1425.79 "/>
<path fill="none" stroke="black" d="M922.88,-1425.79C922.88,-1431.79 916.88,-1437.79 910.88,-1437.79"/>
<polyline fill="none" stroke="black" points="910.88,-1437.79 821.88,-1437.79 "/>
<path fill="none" stroke="black" d="M821.88,-1437.79C815.88,-1437.79 809.88,-1431.79 809.88,-1425.79"/>
<polyline fill="none" stroke="black" points="809.88,-1425.79 809.88,-1239.79 "/>
<path fill="none" stroke="black" d="M809.88,-1239.79C809.88,-1233.79 815.88,-1227.79 821.88,-1227.79"/>
<text text-anchor="middle" x="866.38" y="-1421.19" font-family="Times Roman,serif" font-size="14.00">JobsController</text>
<polyline fill="none" stroke="black" points="809.88,-1411.79 922.88,-1411.79 "/>
<text text-anchor="start" x="817.88" y="-1395.19" font-family="Times Roman,serif" font-size="14.00">create</text>
<text text-anchor="start" x="817.88" y="-1377.19" font-family="Times Roman,serif" font-size="14.00">destroy</text>
<text text-anchor="start" x="817.88" y="-1359.19" font-family="Times Roman,serif" font-size="14.00">edit</text>
<text text-anchor="start" x="817.88" y="-1341.19" font-family="Times Roman,serif" font-size="14.00">index</text>
<text text-anchor="start" x="817.88" y="-1323.19" font-family="Times Roman,serif" font-size="14.00">new</text>
<text text-anchor="start" x="817.88" y="-1305.19" font-family="Times Roman,serif" font-size="14.00">show</text>
<text text-anchor="start" x="817.88" y="-1287.19" font-family="Times Roman,serif" font-size="14.00">update</text>
<polyline fill="none" stroke="black" points="809.88,-1277.79 922.88,-1277.79 "/>
<polyline fill="none" stroke="black" points="809.88,-1253.79 922.88,-1253.79 "/>
<text text-anchor="start" x="817.88" y="-1237.19" font-family="Times Roman,serif" font-size="14.00">_layout</text>
</g>
<!-- ApplicationController&#45;&gt;JobsController -->
<g id="edge28" class="edge"><title>ApplicationController&#45;&gt;JobsController</title>
<path fill="none" stroke="black" d="M683.594,-863.803C718.235,-952.683 783.026,-1118.92 825.427,-1227.71"/>
</g>
<!-- SituationsController -->
<g id="node17" class="node"><title>SituationsController</title>
<polyline fill="none" stroke="black" points="881.056,-548.572 1012.06,-548.572 "/>
<path fill="none" stroke="black" d="M1012.06,-548.572C1018.06,-548.572 1024.06,-554.572 1024.06,-560.572"/>
<polyline fill="none" stroke="black" points="1024.06,-560.572 1024.06,-746.572 "/>
<path fill="none" stroke="black" d="M1024.06,-746.572C1024.06,-752.572 1018.06,-758.572 1012.06,-758.572"/>
<polyline fill="none" stroke="black" points="1012.06,-758.572 881.056,-758.572 "/>
<path fill="none" stroke="black" d="M881.056,-758.572C875.056,-758.572 869.056,-752.572 869.056,-746.572"/>
<polyline fill="none" stroke="black" points="869.056,-746.572 869.056,-560.572 "/>
<path fill="none" stroke="black" d="M869.056,-560.572C869.056,-554.572 875.056,-548.572 881.056,-548.572"/>
<text text-anchor="middle" x="946.556" y="-741.972" font-family="Times Roman,serif" font-size="14.00">SituationsController</text>
<polyline fill="none" stroke="black" points="869.056,-732.572 1024.06,-732.572 "/>
<text text-anchor="start" x="877.056" y="-715.972" font-family="Times Roman,serif" font-size="14.00">create</text>
<text text-anchor="start" x="877.056" y="-697.972" font-family="Times Roman,serif" font-size="14.00">destroy</text>
<text text-anchor="start" x="877.056" y="-679.972" font-family="Times Roman,serif" font-size="14.00">edit</text>
<text text-anchor="start" x="877.056" y="-661.972" font-family="Times Roman,serif" font-size="14.00">index</text>
<text text-anchor="start" x="877.056" y="-643.972" font-family="Times Roman,serif" font-size="14.00">new</text>
<text text-anchor="start" x="877.056" y="-625.972" font-family="Times Roman,serif" font-size="14.00">show</text>
<text text-anchor="start" x="877.056" y="-607.972" font-family="Times Roman,serif" font-size="14.00">update</text>
<polyline fill="none" stroke="black" points="869.056,-598.572 1024.06,-598.572 "/>
<polyline fill="none" stroke="black" points="869.056,-574.572 1024.06,-574.572 "/>
<text text-anchor="start" x="877.056" y="-557.972" font-family="Times Roman,serif" font-size="14.00">_layout</text>
</g>
<!-- ApplicationController&#45;&gt;SituationsController -->
<g id="edge30" class="edge"><title>ApplicationController&#45;&gt;SituationsController</title>
<path fill="none" stroke="black" d="M777.26,-741.638C808.194,-725.546 840.794,-708.588 869.037,-693.896"/>
</g>
<!-- StudiesController -->
<g id="node18" class="node"><title>StudiesController</title>
<polyline fill="none" stroke="black" points="1177.19,-150.147 1290.19,-150.147 "/>
<path fill="none" stroke="black" d="M1290.19,-150.147C1296.19,-150.147 1302.19,-156.147 1302.19,-162.147"/>
<polyline fill="none" stroke="black" points="1302.19,-162.147 1302.19,-348.147 "/>
<path fill="none" stroke="black" d="M1302.19,-348.147C1302.19,-354.147 1296.19,-360.147 1290.19,-360.147"/>
<polyline fill="none" stroke="black" points="1290.19,-360.147 1177.19,-360.147 "/>
<path fill="none" stroke="black" d="M1177.19,-360.147C1171.19,-360.147 1165.19,-354.147 1165.19,-348.147"/>
<polyline fill="none" stroke="black" points="1165.19,-348.147 1165.19,-162.147 "/>
<path fill="none" stroke="black" d="M1165.19,-162.147C1165.19,-156.147 1171.19,-150.147 1177.19,-150.147"/>
<text text-anchor="middle" x="1233.69" y="-343.547" font-family="Times Roman,serif" font-size="14.00">StudiesController</text>
<polyline fill="none" stroke="black" points="1165.19,-334.147 1302.19,-334.147 "/>
<text text-anchor="start" x="1173.19" y="-317.547" font-family="Times Roman,serif" font-size="14.00">create</text>
<text text-anchor="start" x="1173.19" y="-299.547" font-family="Times Roman,serif" font-size="14.00">destroy</text>
<text text-anchor="start" x="1173.19" y="-281.547" font-family="Times Roman,serif" font-size="14.00">edit</text>
<text text-anchor="start" x="1173.19" y="-263.547" font-family="Times Roman,serif" font-size="14.00">index</text>
<text text-anchor="start" x="1173.19" y="-245.547" font-family="Times Roman,serif" font-size="14.00">new</text>
<text text-anchor="start" x="1173.19" y="-227.547" font-family="Times Roman,serif" font-size="14.00">show</text>
<text text-anchor="start" x="1173.19" y="-209.547" font-family="Times Roman,serif" font-size="14.00">update</text>
<polyline fill="none" stroke="black" points="1165.19,-200.147 1302.19,-200.147 "/>
<polyline fill="none" stroke="black" points="1165.19,-176.147 1302.19,-176.147 "/>
<text text-anchor="start" x="1173.19" y="-159.547" font-family="Times Roman,serif" font-size="14.00">_layout</text>
</g>
<!-- ApplicationController&#45;&gt;StudiesController -->
<g id="edge32" class="edge"><title>ApplicationController&#45;&gt;StudiesController</title>
<path fill="none" stroke="black" d="M706.243,-741.502C755.971,-676.533 832.245,-578.745 865.856,-545.372 961.821,-450.089 1088.27,-356.163 1165.14,-302.016"/>
</g>
</g>
</svg>
