<?xml version="1.0" encoding="UTF-8" standalone="no"?>
<!DOCTYPE svg PUBLIC "-//W3C//DTD SVG 1.1//EN"
 "http://www.w3.org/Graphics/SVG/1.1/DTD/svg11.dtd">
<!-- Generated by graphviz version 2.26.3 (20100126.1600)
 -->
<!-- Title: controllers_diagram Pages: 1 -->
<svg width="1325pt" height="813pt"
 viewBox="0.00 0.00 1325.00 813.00" xmlns="http://www.w3.org/2000/svg" xmlns:xlink="http://www.w3.org/1999/xlink">
<g id="graph1" class="graph" transform="scale(1 1) rotate(0) translate(4 809)">
<title>controllers_diagram</title>
<polygon fill="white" stroke="white" points="-4,5 -4,-809 1322,-809 1322,5 -4,5"/>
<!-- _diagram_info -->
<g id="node1" class="node"><title>_diagram_info</title>
<text text-anchor="start" x="1074" y="-788.3" font-family="Times Roman,serif" font-size="13.00">Controllers diagram</text>
<text text-anchor="start" x="1074" y="-771.3" font-family="Times Roman,serif" font-size="13.00">Date: May 12 2013 &#45; 19:07</text>
<text text-anchor="start" x="1074" y="-754.3" font-family="Times Roman,serif" font-size="13.00">Migration version: 20130509000641</text>
<text text-anchor="start" x="1074" y="-737.3" font-family="Times Roman,serif" font-size="13.00">Generated by RailRoady 1.1.0</text>
<text text-anchor="start" x="1074" y="-720.3" font-family="Times Roman,serif" font-size="13.00">http://railroady.prestonlee.com</text>
</g>
<!-- CompaniesController -->
<g id="node2" class="node"><title>CompaniesController</title>
<ellipse fill="none" stroke="black" cx="115" cy="-303.325" rx="113.844" ry="18.3848"/>
<text text-anchor="middle" x="115" y="-299.725" font-family="Times Roman,serif" font-size="14.00">CompaniesController</text>
</g>
<!-- AdminController -->
<g id="node3" class="node"><title>AdminController</title>
<ellipse fill="none" stroke="black" cx="932.729" cy="-536.939" rx="91.2168" ry="18.3848"/>
<text text-anchor="middle" x="932.729" y="-533.339" font-family="Times Roman,serif" font-size="14.00">AdminController</text>
</g>
<!-- StudiesController -->
<g id="node4" class="node"><title>StudiesController</title>
<ellipse fill="none" stroke="black" cx="674.686" cy="-20.3762" rx="96.8736" ry="18.3848"/>
<text text-anchor="middle" x="674.686" y="-16.7762" font-family="Times Roman,serif" font-size="14.00">StudiesController</text>
</g>
<!-- InternshipsController -->
<g id="node5" class="node"><title>InternshipsController</title>
<ellipse fill="none" stroke="black" cx="440.157" cy="-585.118" rx="114.759" ry="18.3848"/>
<text text-anchor="middle" x="440.157" y="-581.518" font-family="Times Roman,serif" font-size="14.00">InternshipsController</text>
</g>
<!-- ProvincesController -->
<g id="node6" class="node"><title>ProvincesController</title>
<ellipse fill="none" stroke="black" cx="762.864" cy="-361.759" rx="106.98" ry="18.3848"/>
<text text-anchor="middle" x="762.864" y="-358.159" font-family="Times Roman,serif" font-size="14.00">ProvincesController</text>
</g>
<!-- ContractsController -->
<g id="node7" class="node"><title>ContractsController</title>
<ellipse fill="none" stroke="black" cx="575.506" cy="-419.337" rx="106.98" ry="18.3848"/>
<text text-anchor="middle" x="575.506" y="-415.737" font-family="Times Roman,serif" font-size="14.00">ContractsController</text>
</g>
<!-- LandingController -->
<g id="node8" class="node"><title>LandingController</title>
<ellipse fill="none" stroke="black" cx="141.655" cy="-39.3914" rx="98.9949" ry="18.3848"/>
<text text-anchor="middle" x="141.655" y="-35.7914" font-family="Times Roman,serif" font-size="14.00">LandingController</text>
</g>
<!-- ApplicationController -->
<g id="node9" class="node"><title>ApplicationController</title>
<ellipse fill="none" stroke="black" cx="613.02" cy="-218.978" rx="113.844" ry="18.3848"/>
<text text-anchor="middle" x="613.02" y="-215.378" font-family="Times Roman,serif" font-size="14.00">ApplicationController</text>
</g>
<!-- ApplicationController&#45;&gt;CompaniesController -->
<g id="edge2" class="edge"><title>ApplicationController&#45;&gt;CompaniesController</title>
<path fill="none" stroke="black" d="M534.108,-232.343C440.992,-248.114 287.089,-274.179 193.955,-289.953"/>
</g>
<!-- ApplicationController&#45;&gt;AdminController -->
<g id="edge4" class="edge"><title>ApplicationController&#45;&gt;AdminController</title>
<path fill="none" stroke="black" d="M614.2,-237.499C616.904,-266.641 625.725,-323.782 654.264,-361.699 715.494,-443.049 826.462,-496.072 888.218,-520.776"/>
</g>
<!-- ApplicationController&#45;&gt;StudiesController -->
<g id="edge6" class="edge"><title>ApplicationController&#45;&gt;StudiesController</title>
<path fill="none" stroke="black" d="M618.822,-200.294C630.605,-162.346 657.213,-76.6507 668.945,-38.8659"/>
</g>
<!-- ApplicationController&#45;&gt;InternshipsController -->
<g id="edge8" class="edge"><title>ApplicationController&#45;&gt;InternshipsController</title>
<path fill="none" stroke="black" d="M594.919,-237.256C563.278,-270.39 498.298,-343.943 466.908,-419.207 445.907,-469.562 441.313,-534.879 440.363,-566.431"/>
</g>
<!-- ApplicationController&#45;&gt;ProvincesController -->
<g id="edge10" class="edge"><title>ApplicationController&#45;&gt;ProvincesController</title>
<path fill="none" stroke="black" d="M632.303,-237.352C661.075,-264.768 714.926,-316.081 743.655,-343.455"/>
</g>
<!-- ApplicationController&#45;&gt;ContractsController -->
<g id="edge12" class="edge"><title>ApplicationController&#45;&gt;ContractsController</title>
<path fill="none" stroke="black" d="M609.491,-237.828C602.323,-276.112 586.136,-362.565 578.998,-400.684"/>
</g>
<!-- ApplicationController&#45;&gt;LandingController -->
<g id="edge14" class="edge"><title>ApplicationController&#45;&gt;LandingController</title>
<path fill="none" stroke="black" d="M568.25,-201.921C477.937,-167.512 274.929,-90.1678 185.44,-56.0734"/>
</g>
<!-- InternshipsTasksController -->
<g id="node10" class="node"><title>InternshipsTasksController</title>
<ellipse fill="none" stroke="black" cx="383.028" cy="-306.325" rx="140.922" ry="18.3848"/>
<text text-anchor="middle" x="383.028" y="-302.725" font-family="Times Roman,serif" font-size="14.00">InternshipsTasksController</text>
</g>
<!-- ApplicationController&#45;&gt;InternshipsTasksController -->
<g id="edge16" class="edge"><title>ApplicationController&#45;&gt;InternshipsTasksController</title>
<path fill="none" stroke="black" d="M568.13,-236.027C528.127,-251.219 469.823,-273.362 429.382,-288.721"/>
</g>
<!-- TasksController -->
<g id="node11" class="node"><title>TasksController</title>
<ellipse fill="none" stroke="black" cx="901.242" cy="-19.5" rx="85.7684" ry="18.3848"/>
<text text-anchor="middle" x="901.242" y="-15.9" font-family="Times Roman,serif" font-size="14.00">TasksController</text>
</g>
<!-- ApplicationController&#45;&gt;TasksController -->
<g id="edge18" class="edge"><title>ApplicationController&#45;&gt;TasksController</title>
<path fill="none" stroke="black" d="M639.106,-200.924C693.981,-162.946 820.782,-75.1862 875.423,-37.3697"/>
</g>
<!-- UsersController -->
<g id="node12" class="node"><title>UsersController</title>
<ellipse fill="none" stroke="black" cx="432.031" cy="-36.1341" rx="87.1802" ry="18.3848"/>
<text text-anchor="middle" x="432.031" y="-32.5341" font-family="Times Roman,serif" font-size="14.00">UsersController</text>
</g>
<!-- ApplicationController&#45;&gt;UsersController -->
<g id="edge20" class="edge"><title>ApplicationController&#45;&gt;UsersController</title>
<path fill="none" stroke="black" d="M594.67,-200.44C559.891,-165.304 484.768,-89.4122 450.161,-54.4497"/>
</g>
<!-- SituationsController -->
<g id="node13" class="node"><title>SituationsController</title>
<ellipse fill="none" stroke="black" cx="143.81" cy="-566.617" rx="109.101" ry="18.3848"/>
<text text-anchor="middle" x="143.81" y="-563.017" font-family="Times Roman,serif" font-size="14.00">SituationsController</text>
</g>
<!-- ApplicationController&#45;&gt;SituationsController -->
<g id="edge22" class="edge"><title>ApplicationController&#45;&gt;SituationsController</title>
<path fill="none" stroke="black" d="M596.523,-237.394C579.595,-255.815 552.067,-284.484 525.627,-306.388 402.698,-408.233 240.167,-508.988 173.884,-548.806"/>
</g>
<!-- SkillsController -->
<g id="node14" class="node"><title>SkillsController</title>
<ellipse fill="none" stroke="black" cx="1185.09" cy="-310.227" rx="85.0596" ry="18.3848"/>
<text text-anchor="middle" x="1185.09" y="-306.627" font-family="Times Roman,serif" font-size="14.00">SkillsController</text>
</g>
<!-- ApplicationController&#45;&gt;SkillsController -->
<g id="edge24" class="edge"><title>ApplicationController&#45;&gt;SkillsController</title>
<path fill="none" stroke="black" d="M688.05,-232.956C730.919,-240.796 785.715,-250.572 834.6,-258.539 930.819,-274.22 1042.25,-290.297 1113.17,-300.269"/>
</g>
<!-- JobsController -->
<g id="node15" class="node"><title>JobsController</title>
<ellipse fill="none" stroke="black" cx="1190.67" cy="-570.748" rx="79.9031" ry="18.3848"/>
<text text-anchor="middle" x="1190.67" y="-567.148" font-family="Times Roman,serif" font-size="14.00">JobsController</text>
</g>
<!-- ApplicationController&#45;&gt;JobsController -->
<g id="edge26" class="edge"><title>ApplicationController&#45;&gt;JobsController</title>
<path fill="none" stroke="black" d="M646.931,-236.68C696.762,-262.926 792.422,-314.198 871.463,-361.818 982.943,-428.981 1111.35,-516.135 1165.02,-553.02"/>
</g>
<!-- InternshipsUsersController -->
<g id="node16" class="node"><title>InternshipsUsersController</title>
<ellipse fill="none" stroke="black" cx="714.259" cy="-601.019" rx="142.128" ry="18.3848"/>
<text text-anchor="middle" x="714.259" y="-597.419" font-family="Times Roman,serif" font-size="14.00">InternshipsUsersController</text>
</g>
<!-- ApplicationController&#45;&gt;InternshipsUsersController -->
<g id="edge28" class="edge"><title>ApplicationController&#45;&gt;InternshipsUsersController</title>
<path fill="none" stroke="black" d="M617.225,-237.842C623.674,-265.532 637.085,-318.569 654.264,-361.699 664.958,-388.545 674.994,-392.043 684.103,-419.467 703.189,-476.928 710.542,-548.801 713.075,-582.263"/>
</g>
<!-- LocalitiesController -->
<g id="node17" class="node"><title>LocalitiesController</title>
<ellipse fill="none" stroke="black" cx="910.714" cy="-244.466" rx="104.86" ry="18.3848"/>
<text text-anchor="middle" x="910.714" y="-240.866" font-family="Times Roman,serif" font-size="14.00">LocalitiesController</text>
</g>
<!-- ApplicationController&#45;&gt;LocalitiesController -->
<g id="edge30" class="edge"><title>ApplicationController&#45;&gt;LocalitiesController</title>
<path fill="none" stroke="black" d="M714.221,-227.643C747.09,-230.457 783.424,-233.568 815.817,-236.341"/>
</g>
<!-- SessionsController -->
<g id="node18" class="node"><title>SessionsController</title>
<ellipse fill="none" stroke="black" cx="1186.57" cy="-45.0696" rx="101.823" ry="18.3848"/>
<text text-anchor="middle" x="1186.57" y="-41.4696" font-family="Times Roman,serif" font-size="14.00">SessionsController</text>
</g>
<!-- ApplicationController&#45;&gt;SessionsController -->
<g id="edge32" class="edge"><title>ApplicationController&#45;&gt;SessionsController</title>
<path fill="none" stroke="black" d="M666.978,-202.617C776.849,-169.303 1025.31,-93.965 1134,-61.0086"/>
</g>
</g>
</svg>
