<?xml version="1.0" encoding="UTF-8" standalone="no"?>
<!DOCTYPE svg PUBLIC "-//W3C//DTD SVG 1.1//EN"
 "http://www.w3.org/Graphics/SVG/1.1/DTD/svg11.dtd">
<!-- Generated by graphviz version 2.26.3 (20100126.1600)
 -->
<!-- Title: controllers_diagram Pages: 1 -->
<svg width="1209pt" height="1001pt"
 viewBox="0.00 0.00 1209.00 1001.20" xmlns="http://www.w3.org/2000/svg" xmlns:xlink="http://www.w3.org/1999/xlink">
<g id="graph1" class="graph" transform="scale(1 1) rotate(0) translate(4 997.202)">
<title>controllers_diagram</title>
<polygon fill="white" stroke="white" points="-4,5 -4,-997.202 1206,-997.202 1206,5 -4,5"/>
<!-- _diagram_info -->
<g id="node1" class="node"><title>_diagram_info</title>
<text text-anchor="start" x="958" y="-78.3" font-family="Times Roman,serif" font-size="13.00">Controllers diagram</text>
<text text-anchor="start" x="958" y="-61.3" font-family="Times Roman,serif" font-size="13.00">Date: Feb 08 2013 &#45; 18:23</text>
<text text-anchor="start" x="958" y="-44.3" font-family="Times Roman,serif" font-size="13.00">Migration version: 20130208173710</text>
<text text-anchor="start" x="958" y="-27.3" font-family="Times Roman,serif" font-size="13.00">Generated by RailRoady 1.1.0</text>
<text text-anchor="start" x="958" y="-10.3" font-family="Times Roman,serif" font-size="13.00">http://railroady.prestonlee.com</text>
</g>
<!-- CompaniesController -->
<g id="node2" class="node"><title>CompaniesController</title>
<polyline fill="none" stroke="black" points="32.2007,-528.943 169.201,-528.943 "/>
<path fill="none" stroke="black" d="M169.201,-528.943C175.201,-528.943 181.201,-534.943 181.201,-540.943"/>
<polyline fill="none" stroke="black" points="181.201,-540.943 181.201,-726.943 "/>
<path fill="none" stroke="black" d="M181.201,-726.943C181.201,-732.943 175.201,-738.943 169.201,-738.943"/>
<polyline fill="none" stroke="black" points="169.201,-738.943 32.2007,-738.943 "/>
<path fill="none" stroke="black" d="M32.2007,-738.943C26.2007,-738.943 20.2007,-732.943 20.2007,-726.943"/>
<polyline fill="none" stroke="black" points="20.2007,-726.943 20.2007,-540.943 "/>
<path fill="none" stroke="black" d="M20.2007,-540.943C20.2007,-534.943 26.2007,-528.943 32.2007,-528.943"/>
<text text-anchor="middle" x="100.701" y="-722.343" font-family="Times Roman,serif" font-size="14.00">CompaniesController</text>
<polyline fill="none" stroke="black" points="20.2007,-712.943 181.201,-712.943 "/>
<text text-anchor="start" x="28.2007" y="-696.343" font-family="Times Roman,serif" font-size="14.00">create</text>
<text text-anchor="start" x="28.2007" y="-678.343" font-family="Times Roman,serif" font-size="14.00">destroy</text>
<text text-anchor="start" x="28.2007" y="-660.343" font-family="Times Roman,serif" font-size="14.00">edit</text>
<text text-anchor="start" x="28.2007" y="-642.343" font-family="Times Roman,serif" font-size="14.00">index</text>
<text text-anchor="start" x="28.2007" y="-624.343" font-family="Times Roman,serif" font-size="14.00">new</text>
<text text-anchor="start" x="28.2007" y="-606.343" font-family="Times Roman,serif" font-size="14.00">show</text>
<text text-anchor="start" x="28.2007" y="-588.343" font-family="Times Roman,serif" font-size="14.00">update</text>
<polyline fill="none" stroke="black" points="20.2007,-578.943 181.201,-578.943 "/>
<polyline fill="none" stroke="black" points="20.2007,-554.943 181.201,-554.943 "/>
<text text-anchor="start" x="28.2007" y="-538.343" font-family="Times Roman,serif" font-size="14.00">_layout</text>
</g>
<!-- AdminController -->
<g id="node3" class="node"><title>AdminController</title>
<polyline fill="none" stroke="black" points="523.849,-608.655 628.849,-608.655 "/>
<path fill="none" stroke="black" d="M628.849,-608.655C634.849,-608.655 640.849,-614.655 640.849,-620.655"/>
<polyline fill="none" stroke="black" points="640.849,-620.655 640.849,-698.655 "/>
<path fill="none" stroke="black" d="M640.849,-698.655C640.849,-704.655 634.849,-710.655 628.849,-710.655"/>
<polyline fill="none" stroke="black" points="628.849,-710.655 523.849,-710.655 "/>
<path fill="none" stroke="black" d="M523.849,-710.655C517.849,-710.655 511.849,-704.655 511.849,-698.655"/>
<polyline fill="none" stroke="black" points="511.849,-698.655 511.849,-620.655 "/>
<path fill="none" stroke="black" d="M511.849,-620.655C511.849,-614.655 517.849,-608.655 523.849,-608.655"/>
<text text-anchor="middle" x="576.349" y="-694.055" font-family="Times Roman,serif" font-size="14.00">AdminController</text>
<polyline fill="none" stroke="black" points="511.849,-684.655 640.849,-684.655 "/>
<text text-anchor="start" x="519.849" y="-668.055" font-family="Times Roman,serif" font-size="14.00">index</text>
<polyline fill="none" stroke="black" points="511.849,-658.655 640.849,-658.655 "/>
<polyline fill="none" stroke="black" points="511.849,-634.655 640.849,-634.655 "/>
<text text-anchor="start" x="519.849" y="-618.055" font-family="Times Roman,serif" font-size="14.00">_layout</text>
</g>
<!-- InternshipsController -->
<g id="node4" class="node"><title>InternshipsController</title>
<polyline fill="none" stroke="black" points="333.362,-27.2352 472.362,-27.2352 "/>
<path fill="none" stroke="black" d="M472.362,-27.2352C478.362,-27.2352 484.362,-33.2352 484.362,-39.2352"/>
<polyline fill="none" stroke="black" points="484.362,-39.2352 484.362,-225.235 "/>
<path fill="none" stroke="black" d="M484.362,-225.235C484.362,-231.235 478.362,-237.235 472.362,-237.235"/>
<polyline fill="none" stroke="black" points="472.362,-237.235 333.362,-237.235 "/>
<path fill="none" stroke="black" d="M333.362,-237.235C327.362,-237.235 321.362,-231.235 321.362,-225.235"/>
<polyline fill="none" stroke="black" points="321.362,-225.235 321.362,-39.2352 "/>
<path fill="none" stroke="black" d="M321.362,-39.2352C321.362,-33.2352 327.362,-27.2352 333.362,-27.2352"/>
<text text-anchor="middle" x="402.862" y="-220.635" font-family="Times Roman,serif" font-size="14.00">InternshipsController</text>
<polyline fill="none" stroke="black" points="321.362,-211.235 484.362,-211.235 "/>
<text text-anchor="start" x="329.362" y="-194.635" font-family="Times Roman,serif" font-size="14.00">create</text>
<text text-anchor="start" x="329.362" y="-176.635" font-family="Times Roman,serif" font-size="14.00">destroy</text>
<text text-anchor="start" x="329.362" y="-158.635" font-family="Times Roman,serif" font-size="14.00">edit</text>
<text text-anchor="start" x="329.362" y="-140.635" font-family="Times Roman,serif" font-size="14.00">index</text>
<text text-anchor="start" x="329.362" y="-122.635" font-family="Times Roman,serif" font-size="14.00">new</text>
<text text-anchor="start" x="329.362" y="-104.635" font-family="Times Roman,serif" font-size="14.00">show</text>
<text text-anchor="start" x="329.362" y="-86.6352" font-family="Times Roman,serif" font-size="14.00">update</text>
<polyline fill="none" stroke="black" points="321.362,-77.2352 484.362,-77.2352 "/>
<polyline fill="none" stroke="black" points="321.362,-53.2352 484.362,-53.2352 "/>
<text text-anchor="start" x="329.362" y="-36.6352" font-family="Times Roman,serif" font-size="14.00">_layout</text>
</g>
<!-- ProvincesController -->
<g id="node5" class="node"><title>ProvincesController</title>
<polyline fill="none" stroke="black" points="337.209,-781.702 465.209,-781.702 "/>
<path fill="none" stroke="black" d="M465.209,-781.702C471.209,-781.702 477.209,-787.702 477.209,-793.702"/>
<polyline fill="none" stroke="black" points="477.209,-793.702 477.209,-979.702 "/>
<path fill="none" stroke="black" d="M477.209,-979.702C477.209,-985.702 471.209,-991.702 465.209,-991.702"/>
<polyline fill="none" stroke="black" points="465.209,-991.702 337.209,-991.702 "/>
<path fill="none" stroke="black" d="M337.209,-991.702C331.209,-991.702 325.209,-985.702 325.209,-979.702"/>
<polyline fill="none" stroke="black" points="325.209,-979.702 325.209,-793.702 "/>
<path fill="none" stroke="black" d="M325.209,-793.702C325.209,-787.702 331.209,-781.702 337.209,-781.702"/>
<text text-anchor="middle" x="401.209" y="-975.102" font-family="Times Roman,serif" font-size="14.00">ProvincesController</text>
<polyline fill="none" stroke="black" points="325.209,-965.702 477.209,-965.702 "/>
<text text-anchor="start" x="333.209" y="-949.102" font-family="Times Roman,serif" font-size="14.00">create</text>
<text text-anchor="start" x="333.209" y="-931.102" font-family="Times Roman,serif" font-size="14.00">destroy</text>
<text text-anchor="start" x="333.209" y="-913.102" font-family="Times Roman,serif" font-size="14.00">edit</text>
<text text-anchor="start" x="333.209" y="-895.102" font-family="Times Roman,serif" font-size="14.00">index</text>
<text text-anchor="start" x="333.209" y="-877.102" font-family="Times Roman,serif" font-size="14.00">new</text>
<text text-anchor="start" x="333.209" y="-859.102" font-family="Times Roman,serif" font-size="14.00">show</text>
<text text-anchor="start" x="333.209" y="-841.102" font-family="Times Roman,serif" font-size="14.00">update</text>
<polyline fill="none" stroke="black" points="325.209,-831.702 477.209,-831.702 "/>
<polyline fill="none" stroke="black" points="325.209,-807.702 477.209,-807.702 "/>
<text text-anchor="start" x="333.209" y="-791.102" font-family="Times Roman,serif" font-size="14.00">_layout</text>
</g>
<!-- LandingController -->
<g id="node6" class="node"><title>LandingController</title>
<polyline fill="none" stroke="black" points="678.567,-847.525 794.567,-847.525 "/>
<path fill="none" stroke="black" d="M794.567,-847.525C800.567,-847.525 806.567,-853.525 806.567,-859.525"/>
<polyline fill="none" stroke="black" points="806.567,-859.525 806.567,-937.525 "/>
<path fill="none" stroke="black" d="M806.567,-937.525C806.567,-943.525 800.567,-949.525 794.567,-949.525"/>
<polyline fill="none" stroke="black" points="794.567,-949.525 678.567,-949.525 "/>
<path fill="none" stroke="black" d="M678.567,-949.525C672.567,-949.525 666.567,-943.525 666.567,-937.525"/>
<polyline fill="none" stroke="black" points="666.567,-937.525 666.567,-859.525 "/>
<path fill="none" stroke="black" d="M666.567,-859.525C666.567,-853.525 672.567,-847.525 678.567,-847.525"/>
<text text-anchor="middle" x="736.567" y="-932.925" font-family="Times Roman,serif" font-size="14.00">LandingController</text>
<polyline fill="none" stroke="black" points="666.567,-923.525 806.567,-923.525 "/>
<text text-anchor="start" x="674.567" y="-906.925" font-family="Times Roman,serif" font-size="14.00">bienvenida</text>
<polyline fill="none" stroke="black" points="666.567,-897.525 806.567,-897.525 "/>
<polyline fill="none" stroke="black" points="666.567,-873.525 806.567,-873.525 "/>
<text text-anchor="start" x="674.567" y="-856.925" font-family="Times Roman,serif" font-size="14.00">_layout</text>
</g>
<!-- ApplicationController -->
<g id="node7" class="node"><title>ApplicationController</title>
<polyline fill="none" stroke="black" points="263.341,-447.202 477.341,-447.202 "/>
<path fill="none" stroke="black" d="M477.341,-447.202C483.341,-447.202 489.341,-453.202 489.341,-459.202"/>
<polyline fill="none" stroke="black" points="489.341,-459.202 489.341,-557.202 "/>
<path fill="none" stroke="black" d="M489.341,-557.202C489.341,-563.202 483.341,-569.202 477.341,-569.202"/>
<polyline fill="none" stroke="black" points="477.341,-569.202 263.341,-569.202 "/>
<path fill="none" stroke="black" d="M263.341,-569.202C257.341,-569.202 251.341,-563.202 251.341,-557.202"/>
<polyline fill="none" stroke="black" points="251.341,-557.202 251.341,-459.202 "/>
<path fill="none" stroke="black" d="M251.341,-459.202C251.341,-453.202 257.341,-447.202 263.341,-447.202"/>
<text text-anchor="middle" x="370.341" y="-552.602" font-family="Times Roman,serif" font-size="14.00">ApplicationController</text>
<polyline fill="none" stroke="black" points="251.341,-543.202 489.341,-543.202 "/>
<text text-anchor="start" x="259.341" y="-526.602" font-family="Times Roman,serif" font-size="14.00">_one_time_conditions_valid_10?</text>
<text text-anchor="start" x="259.341" y="-508.602" font-family="Times Roman,serif" font-size="14.00">_one_time_conditions_valid_8?</text>
<polyline fill="none" stroke="black" points="251.341,-499.202 489.341,-499.202 "/>
<text text-anchor="start" x="259.341" y="-482.602" font-family="Times Roman,serif" font-size="14.00">authorize</text>
<polyline fill="none" stroke="black" points="251.341,-473.202 489.341,-473.202 "/>
<text text-anchor="start" x="259.341" y="-456.602" font-family="Times Roman,serif" font-size="14.00">_layout</text>
</g>
<!-- ApplicationController&#45;&gt;CompaniesController -->
<g id="edge2" class="edge"><title>ApplicationController&#45;&gt;CompaniesController</title>
<path fill="none" stroke="black" d="M251.288,-563.72C227.728,-574.707 203.516,-585.997 181.585,-596.225"/>
</g>
<!-- ApplicationController&#45;&gt;AdminController -->
<g id="edge4" class="edge"><title>ApplicationController&#45;&gt;AdminController</title>
<path fill="none" stroke="black" d="M453.539,-569.367C472.857,-583.57 493.142,-598.483 511.535,-612.004"/>
</g>
<!-- ApplicationController&#45;&gt;InternshipsController -->
<g id="edge6" class="edge"><title>ApplicationController&#45;&gt;InternshipsController</title>
<path fill="none" stroke="black" d="M375.638,-446.959C380.534,-390.363 387.911,-305.077 393.751,-237.557"/>
</g>
<!-- ApplicationController&#45;&gt;ProvincesController -->
<g id="edge8" class="edge"><title>ApplicationController&#45;&gt;ProvincesController</title>
<path fill="none" stroke="black" d="M375.335,-569.435C380.002,-626.658 387.066,-713.278 392.634,-781.56"/>
</g>
<!-- ApplicationController&#45;&gt;LandingController -->
<g id="edge10" class="edge"><title>ApplicationController&#45;&gt;LandingController</title>
<path fill="none" stroke="black" d="M404.754,-569.234C430.437,-612.071 467.989,-669.409 508.649,-713.855 556.173,-765.803 618.837,-815.501 666.43,-850.229"/>
</g>
<!-- InternshipsTasksController -->
<g id="node8" class="node"><title>InternshipsTasksController</title>
<polyline fill="none" stroke="black" points="13,-277.834 189,-277.834 "/>
<path fill="none" stroke="black" d="M189,-277.834C195,-277.834 201,-283.834 201,-289.834"/>
<polyline fill="none" stroke="black" points="201,-289.834 201,-475.834 "/>
<path fill="none" stroke="black" d="M201,-475.834C201,-481.834 195,-487.834 189,-487.834"/>
<polyline fill="none" stroke="black" points="189,-487.834 13,-487.834 "/>
<path fill="none" stroke="black" d="M13,-487.834C7,-487.834 1,-481.834 1,-475.834"/>
<polyline fill="none" stroke="black" points="1,-475.834 1,-289.834 "/>
<path fill="none" stroke="black" d="M1,-289.834C1,-283.834 7,-277.834 13,-277.834"/>
<text text-anchor="middle" x="101" y="-471.234" font-family="Times Roman,serif" font-size="14.00">InternshipsTasksController</text>
<polyline fill="none" stroke="black" points="1,-461.834 201,-461.834 "/>
<text text-anchor="start" x="9" y="-445.234" font-family="Times Roman,serif" font-size="14.00">create</text>
<text text-anchor="start" x="9" y="-427.234" font-family="Times Roman,serif" font-size="14.00">destroy</text>
<text text-anchor="start" x="9" y="-409.234" font-family="Times Roman,serif" font-size="14.00">edit</text>
<text text-anchor="start" x="9" y="-391.234" font-family="Times Roman,serif" font-size="14.00">index</text>
<text text-anchor="start" x="9" y="-373.234" font-family="Times Roman,serif" font-size="14.00">new</text>
<text text-anchor="start" x="9" y="-355.234" font-family="Times Roman,serif" font-size="14.00">show</text>
<text text-anchor="start" x="9" y="-337.234" font-family="Times Roman,serif" font-size="14.00">update</text>
<polyline fill="none" stroke="black" points="1,-327.834 201,-327.834 "/>
<polyline fill="none" stroke="black" points="1,-303.834 201,-303.834 "/>
<text text-anchor="start" x="9" y="-287.234" font-family="Times Roman,serif" font-size="14.00">_layout</text>
</g>
<!-- ApplicationController&#45;&gt;InternshipsTasksController -->
<g id="edge12" class="edge"><title>ApplicationController&#45;&gt;InternshipsTasksController</title>
<path fill="none" stroke="black" d="M251.028,-452.666C234.424,-444.938 217.505,-437.062 201.297,-429.518"/>
</g>
<!-- TasksController -->
<g id="node9" class="node"><title>TasksController</title>
<polyline fill="none" stroke="black" points="742.833,-407.52 840.833,-407.52 "/>
<path fill="none" stroke="black" d="M840.833,-407.52C846.833,-407.52 852.833,-413.52 852.833,-419.52"/>
<polyline fill="none" stroke="black" points="852.833,-419.52 852.833,-605.52 "/>
<path fill="none" stroke="black" d="M852.833,-605.52C852.833,-611.52 846.833,-617.52 840.833,-617.52"/>
<polyline fill="none" stroke="black" points="840.833,-617.52 742.833,-617.52 "/>
<path fill="none" stroke="black" d="M742.833,-617.52C736.833,-617.52 730.833,-611.52 730.833,-605.52"/>
<polyline fill="none" stroke="black" points="730.833,-605.52 730.833,-419.52 "/>
<path fill="none" stroke="black" d="M730.833,-419.52C730.833,-413.52 736.833,-407.52 742.833,-407.52"/>
<text text-anchor="middle" x="791.833" y="-600.92" font-family="Times Roman,serif" font-size="14.00">TasksController</text>
<polyline fill="none" stroke="black" points="730.833,-591.52 852.833,-591.52 "/>
<text text-anchor="start" x="738.833" y="-574.92" font-family="Times Roman,serif" font-size="14.00">create</text>
<text text-anchor="start" x="738.833" y="-556.92" font-family="Times Roman,serif" font-size="14.00">destroy</text>
<text text-anchor="start" x="738.833" y="-538.92" font-family="Times Roman,serif" font-size="14.00">edit</text>
<text text-anchor="start" x="738.833" y="-520.92" font-family="Times Roman,serif" font-size="14.00">index</text>
<text text-anchor="start" x="738.833" y="-502.92" font-family="Times Roman,serif" font-size="14.00">new</text>
<text text-anchor="start" x="738.833" y="-484.92" font-family="Times Roman,serif" font-size="14.00">show</text>
<text text-anchor="start" x="738.833" y="-466.92" font-family="Times Roman,serif" font-size="14.00">update</text>
<polyline fill="none" stroke="black" points="730.833,-457.52 852.833,-457.52 "/>
<polyline fill="none" stroke="black" points="730.833,-433.52 852.833,-433.52 "/>
<text text-anchor="start" x="738.833" y="-416.92" font-family="Times Roman,serif" font-size="14.00">_layout</text>
</g>
<!-- ApplicationController&#45;&gt;TasksController -->
<g id="edge14" class="edge"><title>ApplicationController&#45;&gt;TasksController</title>
<path fill="none" stroke="black" d="M489.434,-509.422C568.064,-510.228 667.835,-511.25 730.779,-511.895"/>
</g>
<!-- UsersController -->
<g id="node10" class="node"><title>UsersController</title>
<polyline fill="none" stroke="black" points="45.8937,-1.5 145.894,-1.5 "/>
<path fill="none" stroke="black" d="M145.894,-1.5C151.894,-1.5 157.894,-7.5 157.894,-13.5"/>
<polyline fill="none" stroke="black" points="157.894,-13.5 157.894,-199.5 "/>
<path fill="none" stroke="black" d="M157.894,-199.5C157.894,-205.5 151.894,-211.5 145.894,-211.5"/>
<polyline fill="none" stroke="black" points="145.894,-211.5 45.8937,-211.5 "/>
<path fill="none" stroke="black" d="M45.8937,-211.5C39.8937,-211.5 33.8937,-205.5 33.8937,-199.5"/>
<polyline fill="none" stroke="black" points="33.8937,-199.5 33.8937,-13.5 "/>
<path fill="none" stroke="black" d="M33.8937,-13.5C33.8937,-7.5 39.8937,-1.5 45.8937,-1.5"/>
<text text-anchor="middle" x="95.8937" y="-194.9" font-family="Times Roman,serif" font-size="14.00">UsersController</text>
<polyline fill="none" stroke="black" points="33.8937,-185.5 157.894,-185.5 "/>
<text text-anchor="start" x="41.8937" y="-168.9" font-family="Times Roman,serif" font-size="14.00">create</text>
<text text-anchor="start" x="41.8937" y="-150.9" font-family="Times Roman,serif" font-size="14.00">destroy</text>
<text text-anchor="start" x="41.8937" y="-132.9" font-family="Times Roman,serif" font-size="14.00">edit</text>
<text text-anchor="start" x="41.8937" y="-114.9" font-family="Times Roman,serif" font-size="14.00">index</text>
<text text-anchor="start" x="41.8937" y="-96.9" font-family="Times Roman,serif" font-size="14.00">new</text>
<text text-anchor="start" x="41.8937" y="-78.9" font-family="Times Roman,serif" font-size="14.00">show</text>
<text text-anchor="start" x="41.8937" y="-60.9" font-family="Times Roman,serif" font-size="14.00">update</text>
<polyline fill="none" stroke="black" points="33.8937,-51.5 157.894,-51.5 "/>
<polyline fill="none" stroke="black" points="33.8937,-27.5 157.894,-27.5 "/>
<text text-anchor="start" x="41.8937" y="-10.9" font-family="Times Roman,serif" font-size="14.00">_layout</text>
</g>
<!-- ApplicationController&#45;&gt;UsersController -->
<g id="edge16" class="edge"><title>ApplicationController&#45;&gt;UsersController</title>
<path fill="none" stroke="black" d="M328.658,-447.192C283.298,-380.798 210.286,-273.933 158.131,-197.595"/>
</g>
<!-- SituationsController -->
<g id="node11" class="node"><title>SituationsController</title>
<polyline fill="none" stroke="black" points="516.458,-255.274 647.458,-255.274 "/>
<path fill="none" stroke="black" d="M647.458,-255.274C653.458,-255.274 659.458,-261.274 659.458,-267.274"/>
<polyline fill="none" stroke="black" points="659.458,-267.274 659.458,-453.274 "/>
<path fill="none" stroke="black" d="M659.458,-453.274C659.458,-459.274 653.458,-465.274 647.458,-465.274"/>
<polyline fill="none" stroke="black" points="647.458,-465.274 516.458,-465.274 "/>
<path fill="none" stroke="black" d="M516.458,-465.274C510.458,-465.274 504.458,-459.274 504.458,-453.274"/>
<polyline fill="none" stroke="black" points="504.458,-453.274 504.458,-267.274 "/>
<path fill="none" stroke="black" d="M504.458,-267.274C504.458,-261.274 510.458,-255.274 516.458,-255.274"/>
<text text-anchor="middle" x="581.958" y="-448.674" font-family="Times Roman,serif" font-size="14.00">SituationsController</text>
<polyline fill="none" stroke="black" points="504.458,-439.274 659.458,-439.274 "/>
<text text-anchor="start" x="512.458" y="-422.674" font-family="Times Roman,serif" font-size="14.00">create</text>
<text text-anchor="start" x="512.458" y="-404.674" font-family="Times Roman,serif" font-size="14.00">destroy</text>
<text text-anchor="start" x="512.458" y="-386.674" font-family="Times Roman,serif" font-size="14.00">edit</text>
<text text-anchor="start" x="512.458" y="-368.674" font-family="Times Roman,serif" font-size="14.00">index</text>
<text text-anchor="start" x="512.458" y="-350.674" font-family="Times Roman,serif" font-size="14.00">new</text>
<text text-anchor="start" x="512.458" y="-332.674" font-family="Times Roman,serif" font-size="14.00">show</text>
<text text-anchor="start" x="512.458" y="-314.674" font-family="Times Roman,serif" font-size="14.00">update</text>
<polyline fill="none" stroke="black" points="504.458,-305.274 659.458,-305.274 "/>
<polyline fill="none" stroke="black" points="504.458,-281.274 659.458,-281.274 "/>
<text text-anchor="start" x="512.458" y="-264.674" font-family="Times Roman,serif" font-size="14.00">_layout</text>
</g>
<!-- ApplicationController&#45;&gt;SituationsController -->
<g id="edge18" class="edge"><title>ApplicationController&#45;&gt;SituationsController</title>
<path fill="none" stroke="black" d="M457.635,-447.18C473.119,-436.356 489.149,-425.151 504.342,-414.53"/>
</g>
<!-- LocalitiesController -->
<g id="node12" class="node"><title>LocalitiesController</title>
<polyline fill="none" stroke="black" points="674.985,-15.3133 799.985,-15.3133 "/>
<path fill="none" stroke="black" d="M799.985,-15.3133C805.985,-15.3133 811.985,-21.3133 811.985,-27.3133"/>
<polyline fill="none" stroke="black" points="811.985,-27.3133 811.985,-213.313 "/>
<path fill="none" stroke="black" d="M811.985,-213.313C811.985,-219.313 805.985,-225.313 799.985,-225.313"/>
<polyline fill="none" stroke="black" points="799.985,-225.313 674.985,-225.313 "/>
<path fill="none" stroke="black" d="M674.985,-225.313C668.985,-225.313 662.985,-219.313 662.985,-213.313"/>
<polyline fill="none" stroke="black" points="662.985,-213.313 662.985,-27.3133 "/>
<path fill="none" stroke="black" d="M662.985,-27.3133C662.985,-21.3133 668.985,-15.3133 674.985,-15.3133"/>
<text text-anchor="middle" x="737.485" y="-208.713" font-family="Times Roman,serif" font-size="14.00">LocalitiesController</text>
<polyline fill="none" stroke="black" points="662.985,-199.313 811.985,-199.313 "/>
<text text-anchor="start" x="670.985" y="-182.713" font-family="Times Roman,serif" font-size="14.00">create</text>
<text text-anchor="start" x="670.985" y="-164.713" font-family="Times Roman,serif" font-size="14.00">destroy</text>
<text text-anchor="start" x="670.985" y="-146.713" font-family="Times Roman,serif" font-size="14.00">edit</text>
<text text-anchor="start" x="670.985" y="-128.713" font-family="Times Roman,serif" font-size="14.00">index</text>
<text text-anchor="start" x="670.985" y="-110.713" font-family="Times Roman,serif" font-size="14.00">new</text>
<text text-anchor="start" x="670.985" y="-92.7133" font-family="Times Roman,serif" font-size="14.00">show</text>
<text text-anchor="start" x="670.985" y="-74.7133" font-family="Times Roman,serif" font-size="14.00">update</text>
<polyline fill="none" stroke="black" points="662.985,-65.3133 811.985,-65.3133 "/>
<polyline fill="none" stroke="black" points="662.985,-41.3133 811.985,-41.3133 "/>
<text text-anchor="start" x="670.985" y="-24.7133" font-family="Times Roman,serif" font-size="14.00">_layout</text>
</g>
<!-- ApplicationController&#45;&gt;LocalitiesController -->
<g id="edge20" class="edge"><title>ApplicationController&#45;&gt;LocalitiesController</title>
<path fill="none" stroke="black" d="M389.908,-447.158C410.395,-390.994 447.179,-308.151 501.258,-252.074 546.569,-205.089 612.318,-170.282 662.953,-148.28"/>
</g>
<!-- SessionsController -->
<g id="node13" class="node"><title>SessionsController</title>
<polyline fill="none" stroke="black" points="35.1493,-841.868 155.149,-841.868 "/>
<path fill="none" stroke="black" d="M155.149,-841.868C161.149,-841.868 167.149,-847.868 167.149,-853.868"/>
<polyline fill="none" stroke="black" points="167.149,-853.868 167.149,-967.868 "/>
<path fill="none" stroke="black" d="M167.149,-967.868C167.149,-973.868 161.149,-979.868 155.149,-979.868"/>
<polyline fill="none" stroke="black" points="155.149,-979.868 35.1493,-979.868 "/>
<path fill="none" stroke="black" d="M35.1493,-979.868C29.1493,-979.868 23.1493,-973.868 23.1493,-967.868"/>
<polyline fill="none" stroke="black" points="23.1493,-967.868 23.1493,-853.868 "/>
<path fill="none" stroke="black" d="M23.1493,-853.868C23.1493,-847.868 29.1493,-841.868 35.1493,-841.868"/>
<text text-anchor="middle" x="95.1493" y="-963.268" font-family="Times Roman,serif" font-size="14.00">SessionsController</text>
<polyline fill="none" stroke="black" points="23.1493,-953.868 167.149,-953.868 "/>
<text text-anchor="start" x="31.1493" y="-937.268" font-family="Times Roman,serif" font-size="14.00">create</text>
<text text-anchor="start" x="31.1493" y="-919.268" font-family="Times Roman,serif" font-size="14.00">destroy</text>
<text text-anchor="start" x="31.1493" y="-901.268" font-family="Times Roman,serif" font-size="14.00">new</text>
<polyline fill="none" stroke="black" points="23.1493,-891.868 167.149,-891.868 "/>
<polyline fill="none" stroke="black" points="23.1493,-867.868 167.149,-867.868 "/>
<text text-anchor="start" x="31.1493" y="-851.268" font-family="Times Roman,serif" font-size="14.00">_layout</text>
</g>
<!-- ApplicationController&#45;&gt;SessionsController -->
<g id="edge22" class="edge"><title>ApplicationController&#45;&gt;SessionsController</title>
<path fill="none" stroke="black" d="M328.545,-569.358C278.476,-642.621 194.807,-765.046 142.425,-841.694"/>
</g>
</g>
</svg>
