<?xml version="1.0" encoding="UTF-8" standalone="no"?>
<!DOCTYPE svg PUBLIC "-//W3C//DTD SVG 1.1//EN"
 "http://www.w3.org/Graphics/SVG/1.1/DTD/svg11.dtd">
<!-- Generated by graphviz version 2.26.3 (20100126.1600)
 -->
<!-- Title: controllers_diagram Pages: 1 -->
<svg width="1352pt" height="1133pt"
 viewBox="0.00 0.00 1352.00 1132.97" xmlns="http://www.w3.org/2000/svg" xmlns:xlink="http://www.w3.org/1999/xlink">
<g id="graph1" class="graph" transform="scale(1 1) rotate(0) translate(4 1128.97)">
<title>controllers_diagram</title>
<polygon fill="white" stroke="white" points="-4,5 -4,-1128.97 1349,-1128.97 1349,5 -4,5"/>
<!-- _diagram_info -->
<g id="node1" class="node"><title>_diagram_info</title>
<text text-anchor="start" x="1101" y="-78.3" font-family="Times Roman,serif" font-size="13.00">Controllers diagram</text>
<text text-anchor="start" x="1101" y="-61.3" font-family="Times Roman,serif" font-size="13.00">Date: Feb 24 2013 &#45; 18:48</text>
<text text-anchor="start" x="1101" y="-44.3" font-family="Times Roman,serif" font-size="13.00">Migration version: 20130224213735</text>
<text text-anchor="start" x="1101" y="-27.3" font-family="Times Roman,serif" font-size="13.00">Generated by RailRoady 1.1.0</text>
<text text-anchor="start" x="1101" y="-10.3" font-family="Times Roman,serif" font-size="13.00">http://railroady.prestonlee.com</text>
</g>
<!-- CompaniesController -->
<g id="node2" class="node"><title>CompaniesController</title>
<polyline fill="none" stroke="black" points="67.8741,-307.761 204.874,-307.761 "/>
<path fill="none" stroke="black" d="M204.874,-307.761C210.874,-307.761 216.874,-313.761 216.874,-319.761"/>
<polyline fill="none" stroke="black" points="216.874,-319.761 216.874,-505.761 "/>
<path fill="none" stroke="black" d="M216.874,-505.761C216.874,-511.761 210.874,-517.761 204.874,-517.761"/>
<polyline fill="none" stroke="black" points="204.874,-517.761 67.8741,-517.761 "/>
<path fill="none" stroke="black" d="M67.8741,-517.761C61.8741,-517.761 55.8741,-511.761 55.8741,-505.761"/>
<polyline fill="none" stroke="black" points="55.8741,-505.761 55.8741,-319.761 "/>
<path fill="none" stroke="black" d="M55.8741,-319.761C55.8741,-313.761 61.8741,-307.761 67.8741,-307.761"/>
<text text-anchor="middle" x="136.374" y="-501.161" font-family="Times Roman,serif" font-size="14.00">CompaniesController</text>
<polyline fill="none" stroke="black" points="55.8741,-491.761 216.874,-491.761 "/>
<text text-anchor="start" x="63.8741" y="-475.161" font-family="Times Roman,serif" font-size="14.00">create</text>
<text text-anchor="start" x="63.8741" y="-457.161" font-family="Times Roman,serif" font-size="14.00">destroy</text>
<text text-anchor="start" x="63.8741" y="-439.161" font-family="Times Roman,serif" font-size="14.00">edit</text>
<text text-anchor="start" x="63.8741" y="-421.161" font-family="Times Roman,serif" font-size="14.00">index</text>
<text text-anchor="start" x="63.8741" y="-403.161" font-family="Times Roman,serif" font-size="14.00">new</text>
<text text-anchor="start" x="63.8741" y="-385.161" font-family="Times Roman,serif" font-size="14.00">show</text>
<text text-anchor="start" x="63.8741" y="-367.161" font-family="Times Roman,serif" font-size="14.00">update</text>
<polyline fill="none" stroke="black" points="55.8741,-357.761 216.874,-357.761 "/>
<polyline fill="none" stroke="black" points="55.8741,-333.761 216.874,-333.761 "/>
<text text-anchor="start" x="63.8741" y="-317.161" font-family="Times Roman,serif" font-size="14.00">_layout</text>
</g>
<!-- AdminController -->
<g id="node3" class="node"><title>AdminController</title>
<polyline fill="none" stroke="black" points="597.809,-626.647 702.809,-626.647 "/>
<path fill="none" stroke="black" d="M702.809,-626.647C708.809,-626.647 714.809,-632.647 714.809,-638.647"/>
<polyline fill="none" stroke="black" points="714.809,-638.647 714.809,-716.647 "/>
<path fill="none" stroke="black" d="M714.809,-716.647C714.809,-722.647 708.809,-728.647 702.809,-728.647"/>
<polyline fill="none" stroke="black" points="702.809,-728.647 597.809,-728.647 "/>
<path fill="none" stroke="black" d="M597.809,-728.647C591.809,-728.647 585.809,-722.647 585.809,-716.647"/>
<polyline fill="none" stroke="black" points="585.809,-716.647 585.809,-638.647 "/>
<path fill="none" stroke="black" d="M585.809,-638.647C585.809,-632.647 591.809,-626.647 597.809,-626.647"/>
<text text-anchor="middle" x="650.309" y="-712.047" font-family="Times Roman,serif" font-size="14.00">AdminController</text>
<polyline fill="none" stroke="black" points="585.809,-702.647 714.809,-702.647 "/>
<text text-anchor="start" x="593.809" y="-686.047" font-family="Times Roman,serif" font-size="14.00">index</text>
<polyline fill="none" stroke="black" points="585.809,-676.647 714.809,-676.647 "/>
<polyline fill="none" stroke="black" points="585.809,-652.647 714.809,-652.647 "/>
<text text-anchor="start" x="593.809" y="-636.047" font-family="Times Roman,serif" font-size="14.00">_layout</text>
</g>
<!-- InternshipsController -->
<g id="node4" class="node"><title>InternshipsController</title>
<polyline fill="none" stroke="black" points="321.89,-15.7632 460.89,-15.7632 "/>
<path fill="none" stroke="black" d="M460.89,-15.7632C466.89,-15.7632 472.89,-21.7632 472.89,-27.7632"/>
<polyline fill="none" stroke="black" points="472.89,-27.7632 472.89,-213.763 "/>
<path fill="none" stroke="black" d="M472.89,-213.763C472.89,-219.763 466.89,-225.763 460.89,-225.763"/>
<polyline fill="none" stroke="black" points="460.89,-225.763 321.89,-225.763 "/>
<path fill="none" stroke="black" d="M321.89,-225.763C315.89,-225.763 309.89,-219.763 309.89,-213.763"/>
<polyline fill="none" stroke="black" points="309.89,-213.763 309.89,-27.7632 "/>
<path fill="none" stroke="black" d="M309.89,-27.7632C309.89,-21.7632 315.89,-15.7632 321.89,-15.7632"/>
<text text-anchor="middle" x="391.39" y="-209.163" font-family="Times Roman,serif" font-size="14.00">InternshipsController</text>
<polyline fill="none" stroke="black" points="309.89,-199.763 472.89,-199.763 "/>
<text text-anchor="start" x="317.89" y="-183.163" font-family="Times Roman,serif" font-size="14.00">create</text>
<text text-anchor="start" x="317.89" y="-165.163" font-family="Times Roman,serif" font-size="14.00">destroy</text>
<text text-anchor="start" x="317.89" y="-147.163" font-family="Times Roman,serif" font-size="14.00">edit</text>
<text text-anchor="start" x="317.89" y="-129.163" font-family="Times Roman,serif" font-size="14.00">index</text>
<text text-anchor="start" x="317.89" y="-111.163" font-family="Times Roman,serif" font-size="14.00">new</text>
<text text-anchor="start" x="317.89" y="-93.1632" font-family="Times Roman,serif" font-size="14.00">show</text>
<text text-anchor="start" x="317.89" y="-75.1632" font-family="Times Roman,serif" font-size="14.00">update</text>
<polyline fill="none" stroke="black" points="309.89,-65.7632 472.89,-65.7632 "/>
<polyline fill="none" stroke="black" points="309.89,-41.7632 472.89,-41.7632 "/>
<text text-anchor="start" x="317.89" y="-25.1632" font-family="Times Roman,serif" font-size="14.00">_layout</text>
</g>
<!-- ProvincesController -->
<g id="node5" class="node"><title>ProvincesController</title>
<polyline fill="none" stroke="black" points="324.606,-643.56 452.606,-643.56 "/>
<path fill="none" stroke="black" d="M452.606,-643.56C458.606,-643.56 464.606,-649.56 464.606,-655.56"/>
<polyline fill="none" stroke="black" points="464.606,-655.56 464.606,-841.56 "/>
<path fill="none" stroke="black" d="M464.606,-841.56C464.606,-847.56 458.606,-853.56 452.606,-853.56"/>
<polyline fill="none" stroke="black" points="452.606,-853.56 324.606,-853.56 "/>
<path fill="none" stroke="black" d="M324.606,-853.56C318.606,-853.56 312.606,-847.56 312.606,-841.56"/>
<polyline fill="none" stroke="black" points="312.606,-841.56 312.606,-655.56 "/>
<path fill="none" stroke="black" d="M312.606,-655.56C312.606,-649.56 318.606,-643.56 324.606,-643.56"/>
<text text-anchor="middle" x="388.606" y="-836.96" font-family="Times Roman,serif" font-size="14.00">ProvincesController</text>
<polyline fill="none" stroke="black" points="312.606,-827.56 464.606,-827.56 "/>
<text text-anchor="start" x="320.606" y="-810.96" font-family="Times Roman,serif" font-size="14.00">create</text>
<text text-anchor="start" x="320.606" y="-792.96" font-family="Times Roman,serif" font-size="14.00">destroy</text>
<text text-anchor="start" x="320.606" y="-774.96" font-family="Times Roman,serif" font-size="14.00">edit</text>
<text text-anchor="start" x="320.606" y="-756.96" font-family="Times Roman,serif" font-size="14.00">index</text>
<text text-anchor="start" x="320.606" y="-738.96" font-family="Times Roman,serif" font-size="14.00">new</text>
<text text-anchor="start" x="320.606" y="-720.96" font-family="Times Roman,serif" font-size="14.00">show</text>
<text text-anchor="start" x="320.606" y="-702.96" font-family="Times Roman,serif" font-size="14.00">update</text>
<polyline fill="none" stroke="black" points="312.606,-693.56 464.606,-693.56 "/>
<polyline fill="none" stroke="black" points="312.606,-669.56 464.606,-669.56 "/>
<text text-anchor="start" x="320.606" y="-652.96" font-family="Times Roman,serif" font-size="14.00">_layout</text>
</g>
<!-- ContractsController -->
<g id="node6" class="node"><title>ContractsController</title>
<polyline fill="none" stroke="black" points="478.952,-895.469 606.952,-895.469 "/>
<path fill="none" stroke="black" d="M606.952,-895.469C612.952,-895.469 618.952,-901.469 618.952,-907.469"/>
<polyline fill="none" stroke="black" points="618.952,-907.469 618.952,-1111.47 "/>
<path fill="none" stroke="black" d="M618.952,-1111.47C618.952,-1117.47 612.952,-1123.47 606.952,-1123.47"/>
<polyline fill="none" stroke="black" points="606.952,-1123.47 478.952,-1123.47 "/>
<path fill="none" stroke="black" d="M478.952,-1123.47C472.952,-1123.47 466.952,-1117.47 466.952,-1111.47"/>
<polyline fill="none" stroke="black" points="466.952,-1111.47 466.952,-907.469 "/>
<path fill="none" stroke="black" d="M466.952,-907.469C466.952,-901.469 472.952,-895.469 478.952,-895.469"/>
<text text-anchor="middle" x="542.952" y="-1106.87" font-family="Times Roman,serif" font-size="14.00">ContractsController</text>
<polyline fill="none" stroke="black" points="466.952,-1097.47 618.952,-1097.47 "/>
<text text-anchor="start" x="474.952" y="-1080.87" font-family="Times Roman,serif" font-size="14.00">cm</text>
<text text-anchor="start" x="474.952" y="-1062.87" font-family="Times Roman,serif" font-size="14.00">create</text>
<text text-anchor="start" x="474.952" y="-1044.87" font-family="Times Roman,serif" font-size="14.00">destroy</text>
<text text-anchor="start" x="474.952" y="-1026.87" font-family="Times Roman,serif" font-size="14.00">edit</text>
<text text-anchor="start" x="474.952" y="-1008.87" font-family="Times Roman,serif" font-size="14.00">index</text>
<text text-anchor="start" x="474.952" y="-990.869" font-family="Times Roman,serif" font-size="14.00">new</text>
<text text-anchor="start" x="474.952" y="-972.869" font-family="Times Roman,serif" font-size="14.00">show</text>
<text text-anchor="start" x="474.952" y="-954.869" font-family="Times Roman,serif" font-size="14.00">update</text>
<polyline fill="none" stroke="black" points="466.952,-945.469 618.952,-945.469 "/>
<polyline fill="none" stroke="black" points="466.952,-921.469 618.952,-921.469 "/>
<text text-anchor="start" x="474.952" y="-904.869" font-family="Times Roman,serif" font-size="14.00">_layout</text>
</g>
<!-- LandingController -->
<g id="node7" class="node"><title>LandingController</title>
<polyline fill="none" stroke="black" points="86.3548,-948.458 202.355,-948.458 "/>
<path fill="none" stroke="black" d="M202.355,-948.458C208.355,-948.458 214.355,-954.458 214.355,-960.458"/>
<polyline fill="none" stroke="black" points="214.355,-960.458 214.355,-1038.46 "/>
<path fill="none" stroke="black" d="M214.355,-1038.46C214.355,-1044.46 208.355,-1050.46 202.355,-1050.46"/>
<polyline fill="none" stroke="black" points="202.355,-1050.46 86.3548,-1050.46 "/>
<path fill="none" stroke="black" d="M86.3548,-1050.46C80.3548,-1050.46 74.3548,-1044.46 74.3548,-1038.46"/>
<polyline fill="none" stroke="black" points="74.3548,-1038.46 74.3548,-960.458 "/>
<path fill="none" stroke="black" d="M74.3548,-960.458C74.3548,-954.458 80.3548,-948.458 86.3548,-948.458"/>
<text text-anchor="middle" x="144.355" y="-1033.86" font-family="Times Roman,serif" font-size="14.00">LandingController</text>
<polyline fill="none" stroke="black" points="74.3548,-1024.46 214.355,-1024.46 "/>
<text text-anchor="start" x="82.3548" y="-1007.86" font-family="Times Roman,serif" font-size="14.00">bienvenida</text>
<polyline fill="none" stroke="black" points="74.3548,-998.458 214.355,-998.458 "/>
<polyline fill="none" stroke="black" points="74.3548,-974.458 214.355,-974.458 "/>
<text text-anchor="start" x="82.3548" y="-957.858" font-family="Times Roman,serif" font-size="14.00">_layout</text>
</g>
<!-- ApplicationController -->
<g id="node8" class="node"><title>ApplicationController</title>
<polyline fill="none" stroke="black" points="366.436,-390.556 580.436,-390.556 "/>
<path fill="none" stroke="black" d="M580.436,-390.556C586.436,-390.556 592.436,-396.556 592.436,-402.556"/>
<polyline fill="none" stroke="black" points="592.436,-402.556 592.436,-500.556 "/>
<path fill="none" stroke="black" d="M592.436,-500.556C592.436,-506.556 586.436,-512.556 580.436,-512.556"/>
<polyline fill="none" stroke="black" points="580.436,-512.556 366.436,-512.556 "/>
<path fill="none" stroke="black" d="M366.436,-512.556C360.436,-512.556 354.436,-506.556 354.436,-500.556"/>
<polyline fill="none" stroke="black" points="354.436,-500.556 354.436,-402.556 "/>
<path fill="none" stroke="black" d="M354.436,-402.556C354.436,-396.556 360.436,-390.556 366.436,-390.556"/>
<text text-anchor="middle" x="473.436" y="-495.956" font-family="Times Roman,serif" font-size="14.00">ApplicationController</text>
<polyline fill="none" stroke="black" points="354.436,-486.556 592.436,-486.556 "/>
<text text-anchor="start" x="362.436" y="-469.956" font-family="Times Roman,serif" font-size="14.00">_one_time_conditions_valid_10?</text>
<text text-anchor="start" x="362.436" y="-451.956" font-family="Times Roman,serif" font-size="14.00">_one_time_conditions_valid_8?</text>
<polyline fill="none" stroke="black" points="354.436,-442.556 592.436,-442.556 "/>
<text text-anchor="start" x="362.436" y="-425.956" font-family="Times Roman,serif" font-size="14.00">authorize</text>
<polyline fill="none" stroke="black" points="354.436,-416.556 592.436,-416.556 "/>
<text text-anchor="start" x="362.436" y="-399.956" font-family="Times Roman,serif" font-size="14.00">_layout</text>
</g>
<!-- ApplicationController&#45;&gt;CompaniesController -->
<g id="edge2" class="edge"><title>ApplicationController&#45;&gt;CompaniesController</title>
<path fill="none" stroke="black" d="M354.126,-437.824C308.675,-432.592 257.989,-426.758 216.962,-422.036"/>
</g>
<!-- ApplicationController&#45;&gt;AdminController -->
<g id="edge4" class="edge"><title>ApplicationController&#45;&gt;AdminController</title>
<path fill="none" stroke="black" d="M521.3,-512.739C549.128,-548.311 583.798,-592.629 610.187,-626.361"/>
</g>
<!-- ApplicationController&#45;&gt;InternshipsController -->
<g id="edge6" class="edge"><title>ApplicationController&#45;&gt;InternshipsController</title>
<path fill="none" stroke="black" d="M458.292,-390.498C446.879,-344.481 430.948,-280.252 417.495,-226.013"/>
</g>
<!-- ApplicationController&#45;&gt;ProvincesController -->
<g id="edge8" class="edge"><title>ApplicationController&#45;&gt;ProvincesController</title>
<path fill="none" stroke="black" d="M455.962,-512.735C445.219,-550.349 431.165,-599.554 418.675,-643.282"/>
</g>
<!-- ApplicationController&#45;&gt;ContractsController -->
<g id="edge10" class="edge"><title>ApplicationController&#45;&gt;ContractsController</title>
<path fill="none" stroke="black" d="M481.041,-512.591C492.473,-604.341 514.283,-779.381 528.724,-895.279"/>
</g>
<!-- ApplicationController&#45;&gt;LandingController -->
<g id="edge12" class="edge"><title>ApplicationController&#45;&gt;LandingController</title>
<path fill="none" stroke="black" d="M412.448,-512.607C379.27,-547.934 339.071,-594.39 309.406,-640.36 243.185,-742.981 189.257,-876.504 162.542,-948.343"/>
</g>
<!-- InternshipsTasksController -->
<g id="node9" class="node"><title>InternshipsTasksController</title>
<polyline fill="none" stroke="black" points="770.534,-306.211 946.534,-306.211 "/>
<path fill="none" stroke="black" d="M946.534,-306.211C952.534,-306.211 958.534,-312.211 958.534,-318.211"/>
<polyline fill="none" stroke="black" points="958.534,-318.211 958.534,-504.211 "/>
<path fill="none" stroke="black" d="M958.534,-504.211C958.534,-510.211 952.534,-516.211 946.534,-516.211"/>
<polyline fill="none" stroke="black" points="946.534,-516.211 770.534,-516.211 "/>
<path fill="none" stroke="black" d="M770.534,-516.211C764.534,-516.211 758.534,-510.211 758.534,-504.211"/>
<polyline fill="none" stroke="black" points="758.534,-504.211 758.534,-318.211 "/>
<path fill="none" stroke="black" d="M758.534,-318.211C758.534,-312.211 764.534,-306.211 770.534,-306.211"/>
<text text-anchor="middle" x="858.534" y="-499.611" font-family="Times Roman,serif" font-size="14.00">InternshipsTasksController</text>
<polyline fill="none" stroke="black" points="758.534,-490.211 958.534,-490.211 "/>
<text text-anchor="start" x="766.534" y="-473.611" font-family="Times Roman,serif" font-size="14.00">create</text>
<text text-anchor="start" x="766.534" y="-455.611" font-family="Times Roman,serif" font-size="14.00">destroy</text>
<text text-anchor="start" x="766.534" y="-437.611" font-family="Times Roman,serif" font-size="14.00">edit</text>
<text text-anchor="start" x="766.534" y="-419.611" font-family="Times Roman,serif" font-size="14.00">index</text>
<text text-anchor="start" x="766.534" y="-401.611" font-family="Times Roman,serif" font-size="14.00">new</text>
<text text-anchor="start" x="766.534" y="-383.611" font-family="Times Roman,serif" font-size="14.00">show</text>
<text text-anchor="start" x="766.534" y="-365.611" font-family="Times Roman,serif" font-size="14.00">update</text>
<polyline fill="none" stroke="black" points="758.534,-356.211 958.534,-356.211 "/>
<polyline fill="none" stroke="black" points="758.534,-332.211 958.534,-332.211 "/>
<text text-anchor="start" x="766.534" y="-315.611" font-family="Times Roman,serif" font-size="14.00">_layout</text>
</g>
<!-- ApplicationController&#45;&gt;InternshipsTasksController -->
<g id="edge14" class="edge"><title>ApplicationController&#45;&gt;InternshipsTasksController</title>
<path fill="none" stroke="black" d="M592.646,-439.067C645.772,-433.501 707.655,-427.018 758.346,-421.707"/>
</g>
<!-- TasksController -->
<g id="node10" class="node"><title>TasksController</title>
<polyline fill="none" stroke="black" points="53.122,-1.5 151.122,-1.5 "/>
<path fill="none" stroke="black" d="M151.122,-1.5C157.122,-1.5 163.122,-7.5 163.122,-13.5"/>
<polyline fill="none" stroke="black" points="163.122,-13.5 163.122,-199.5 "/>
<path fill="none" stroke="black" d="M163.122,-199.5C163.122,-205.5 157.122,-211.5 151.122,-211.5"/>
<polyline fill="none" stroke="black" points="151.122,-211.5 53.122,-211.5 "/>
<path fill="none" stroke="black" d="M53.122,-211.5C47.122,-211.5 41.122,-205.5 41.122,-199.5"/>
<polyline fill="none" stroke="black" points="41.122,-199.5 41.122,-13.5 "/>
<path fill="none" stroke="black" d="M41.122,-13.5C41.122,-7.5 47.122,-1.5 53.122,-1.5"/>
<text text-anchor="middle" x="102.122" y="-194.9" font-family="Times Roman,serif" font-size="14.00">TasksController</text>
<polyline fill="none" stroke="black" points="41.122,-185.5 163.122,-185.5 "/>
<text text-anchor="start" x="49.122" y="-168.9" font-family="Times Roman,serif" font-size="14.00">create</text>
<text text-anchor="start" x="49.122" y="-150.9" font-family="Times Roman,serif" font-size="14.00">destroy</text>
<text text-anchor="start" x="49.122" y="-132.9" font-family="Times Roman,serif" font-size="14.00">edit</text>
<text text-anchor="start" x="49.122" y="-114.9" font-family="Times Roman,serif" font-size="14.00">index</text>
<text text-anchor="start" x="49.122" y="-96.9" font-family="Times Roman,serif" font-size="14.00">new</text>
<text text-anchor="start" x="49.122" y="-78.9" font-family="Times Roman,serif" font-size="14.00">show</text>
<text text-anchor="start" x="49.122" y="-60.9" font-family="Times Roman,serif" font-size="14.00">update</text>
<polyline fill="none" stroke="black" points="41.122,-51.5 163.122,-51.5 "/>
<polyline fill="none" stroke="black" points="41.122,-27.5 163.122,-27.5 "/>
<text text-anchor="start" x="49.122" y="-10.9" font-family="Times Roman,serif" font-size="14.00">_layout</text>
</g>
<!-- ApplicationController&#45;&gt;TasksController -->
<g id="edge16" class="edge"><title>ApplicationController&#45;&gt;TasksController</title>
<path fill="none" stroke="black" d="M407.481,-390.264C338.292,-325.968 230.438,-225.741 163.154,-163.216"/>
</g>
<!-- UsersController -->
<g id="node11" class="node"><title>UsersController</title>
<polyline fill="none" stroke="black" points="880.99,-7.77328 980.99,-7.77328 "/>
<path fill="none" stroke="black" d="M980.99,-7.77328C986.99,-7.77328 992.99,-13.7733 992.99,-19.7733"/>
<polyline fill="none" stroke="black" points="992.99,-19.7733 992.99,-205.773 "/>
<path fill="none" stroke="black" d="M992.99,-205.773C992.99,-211.773 986.99,-217.773 980.99,-217.773"/>
<polyline fill="none" stroke="black" points="980.99,-217.773 880.99,-217.773 "/>
<path fill="none" stroke="black" d="M880.99,-217.773C874.99,-217.773 868.99,-211.773 868.99,-205.773"/>
<polyline fill="none" stroke="black" points="868.99,-205.773 868.99,-19.7733 "/>
<path fill="none" stroke="black" d="M868.99,-19.7733C868.99,-13.7733 874.99,-7.77328 880.99,-7.77328"/>
<text text-anchor="middle" x="930.99" y="-201.173" font-family="Times Roman,serif" font-size="14.00">UsersController</text>
<polyline fill="none" stroke="black" points="868.99,-191.773 992.99,-191.773 "/>
<text text-anchor="start" x="876.99" y="-175.173" font-family="Times Roman,serif" font-size="14.00">create</text>
<text text-anchor="start" x="876.99" y="-157.173" font-family="Times Roman,serif" font-size="14.00">destroy</text>
<text text-anchor="start" x="876.99" y="-139.173" font-family="Times Roman,serif" font-size="14.00">edit</text>
<text text-anchor="start" x="876.99" y="-121.173" font-family="Times Roman,serif" font-size="14.00">index</text>
<text text-anchor="start" x="876.99" y="-103.173" font-family="Times Roman,serif" font-size="14.00">new</text>
<text text-anchor="start" x="876.99" y="-85.1733" font-family="Times Roman,serif" font-size="14.00">show</text>
<text text-anchor="start" x="876.99" y="-67.1733" font-family="Times Roman,serif" font-size="14.00">update</text>
<polyline fill="none" stroke="black" points="868.99,-57.7733 992.99,-57.7733 "/>
<polyline fill="none" stroke="black" points="868.99,-33.7733 992.99,-33.7733 "/>
<text text-anchor="start" x="876.99" y="-17.1733" font-family="Times Roman,serif" font-size="14.00">_layout</text>
</g>
<!-- ApplicationController&#45;&gt;UsersController -->
<g id="edge18" class="edge"><title>ApplicationController&#45;&gt;UsersController</title>
<path fill="none" stroke="black" d="M556.031,-390.401C645.995,-323.789 787.855,-218.753 868.841,-158.79"/>
</g>
<!-- SituationsController -->
<g id="node12" class="node"><title>SituationsController</title>
<polyline fill="none" stroke="black" points="570.687,-26.7701 701.687,-26.7701 "/>
<path fill="none" stroke="black" d="M701.687,-26.7701C707.687,-26.7701 713.687,-32.7701 713.687,-38.7701"/>
<polyline fill="none" stroke="black" points="713.687,-38.7701 713.687,-224.77 "/>
<path fill="none" stroke="black" d="M713.687,-224.77C713.687,-230.77 707.687,-236.77 701.687,-236.77"/>
<polyline fill="none" stroke="black" points="701.687,-236.77 570.687,-236.77 "/>
<path fill="none" stroke="black" d="M570.687,-236.77C564.687,-236.77 558.687,-230.77 558.687,-224.77"/>
<polyline fill="none" stroke="black" points="558.687,-224.77 558.687,-38.7701 "/>
<path fill="none" stroke="black" d="M558.687,-38.7701C558.687,-32.7701 564.687,-26.7701 570.687,-26.7701"/>
<text text-anchor="middle" x="636.187" y="-220.17" font-family="Times Roman,serif" font-size="14.00">SituationsController</text>
<polyline fill="none" stroke="black" points="558.687,-210.77 713.687,-210.77 "/>
<text text-anchor="start" x="566.687" y="-194.17" font-family="Times Roman,serif" font-size="14.00">create</text>
<text text-anchor="start" x="566.687" y="-176.17" font-family="Times Roman,serif" font-size="14.00">destroy</text>
<text text-anchor="start" x="566.687" y="-158.17" font-family="Times Roman,serif" font-size="14.00">edit</text>
<text text-anchor="start" x="566.687" y="-140.17" font-family="Times Roman,serif" font-size="14.00">index</text>
<text text-anchor="start" x="566.687" y="-122.17" font-family="Times Roman,serif" font-size="14.00">new</text>
<text text-anchor="start" x="566.687" y="-104.17" font-family="Times Roman,serif" font-size="14.00">show</text>
<text text-anchor="start" x="566.687" y="-86.1701" font-family="Times Roman,serif" font-size="14.00">update</text>
<polyline fill="none" stroke="black" points="558.687,-76.7701 713.687,-76.7701 "/>
<polyline fill="none" stroke="black" points="558.687,-52.7701 713.687,-52.7701 "/>
<text text-anchor="start" x="566.687" y="-36.1701" font-family="Times Roman,serif" font-size="14.00">_layout</text>
</g>
<!-- ApplicationController&#45;&gt;SituationsController -->
<g id="edge20" class="edge"><title>ApplicationController&#45;&gt;SituationsController</title>
<path fill="none" stroke="black" d="M504.624,-390.276C526.683,-346.932 556.816,-287.725 582.677,-236.91"/>
</g>
<!-- InternshipsUsersController -->
<g id="node13" class="node"><title>InternshipsUsersController</title>
<polyline fill="none" stroke="black" points="13,-571.623 190,-571.623 "/>
<path fill="none" stroke="black" d="M190,-571.623C196,-571.623 202,-577.623 202,-583.623"/>
<polyline fill="none" stroke="black" points="202,-583.623 202,-769.623 "/>
<path fill="none" stroke="black" d="M202,-769.623C202,-775.623 196,-781.623 190,-781.623"/>
<polyline fill="none" stroke="black" points="190,-781.623 13,-781.623 "/>
<path fill="none" stroke="black" d="M13,-781.623C7,-781.623 1,-775.623 1,-769.623"/>
<polyline fill="none" stroke="black" points="1,-769.623 1,-583.623 "/>
<path fill="none" stroke="black" d="M1,-583.623C1,-577.623 7,-571.623 13,-571.623"/>
<text text-anchor="middle" x="101.5" y="-765.023" font-family="Times Roman,serif" font-size="14.00">InternshipsUsersController</text>
<polyline fill="none" stroke="black" points="1,-755.623 202,-755.623 "/>
<text text-anchor="start" x="9" y="-739.023" font-family="Times Roman,serif" font-size="14.00">create</text>
<text text-anchor="start" x="9" y="-721.023" font-family="Times Roman,serif" font-size="14.00">destroy</text>
<text text-anchor="start" x="9" y="-703.023" font-family="Times Roman,serif" font-size="14.00">edit</text>
<text text-anchor="start" x="9" y="-685.023" font-family="Times Roman,serif" font-size="14.00">index</text>
<text text-anchor="start" x="9" y="-667.023" font-family="Times Roman,serif" font-size="14.00">new</text>
<text text-anchor="start" x="9" y="-649.023" font-family="Times Roman,serif" font-size="14.00">show</text>
<text text-anchor="start" x="9" y="-631.023" font-family="Times Roman,serif" font-size="14.00">update</text>
<polyline fill="none" stroke="black" points="1,-621.623 202,-621.623 "/>
<polyline fill="none" stroke="black" points="1,-597.623 202,-597.623 "/>
<text text-anchor="start" x="9" y="-581.023" font-family="Times Roman,serif" font-size="14.00">_layout</text>
</g>
<!-- ApplicationController&#45;&gt;InternshipsUsersController -->
<g id="edge22" class="edge"><title>ApplicationController&#45;&gt;InternshipsUsersController</title>
<path fill="none" stroke="black" d="M372.294,-512.759C319.484,-544.716 255.059,-583.701 202.299,-615.627"/>
</g>
<!-- LocalitiesController -->
<g id="node14" class="node"><title>LocalitiesController</title>
<polyline fill="none" stroke="black" points="884.376,-557.278 1009.38,-557.278 "/>
<path fill="none" stroke="black" d="M1009.38,-557.278C1015.38,-557.278 1021.38,-563.278 1021.38,-569.278"/>
<polyline fill="none" stroke="black" points="1021.38,-569.278 1021.38,-755.278 "/>
<path fill="none" stroke="black" d="M1021.38,-755.278C1021.38,-761.278 1015.38,-767.278 1009.38,-767.278"/>
<polyline fill="none" stroke="black" points="1009.38,-767.278 884.376,-767.278 "/>
<path fill="none" stroke="black" d="M884.376,-767.278C878.376,-767.278 872.376,-761.278 872.376,-755.278"/>
<polyline fill="none" stroke="black" points="872.376,-755.278 872.376,-569.278 "/>
<path fill="none" stroke="black" d="M872.376,-569.278C872.376,-563.278 878.376,-557.278 884.376,-557.278"/>
<text text-anchor="middle" x="946.876" y="-750.678" font-family="Times Roman,serif" font-size="14.00">LocalitiesController</text>
<polyline fill="none" stroke="black" points="872.376,-741.278 1021.38,-741.278 "/>
<text text-anchor="start" x="880.376" y="-724.678" font-family="Times Roman,serif" font-size="14.00">create</text>
<text text-anchor="start" x="880.376" y="-706.678" font-family="Times Roman,serif" font-size="14.00">destroy</text>
<text text-anchor="start" x="880.376" y="-688.678" font-family="Times Roman,serif" font-size="14.00">edit</text>
<text text-anchor="start" x="880.376" y="-670.678" font-family="Times Roman,serif" font-size="14.00">index</text>
<text text-anchor="start" x="880.376" y="-652.678" font-family="Times Roman,serif" font-size="14.00">new</text>
<text text-anchor="start" x="880.376" y="-634.678" font-family="Times Roman,serif" font-size="14.00">show</text>
<text text-anchor="start" x="880.376" y="-616.678" font-family="Times Roman,serif" font-size="14.00">update</text>
<polyline fill="none" stroke="black" points="872.376,-607.278 1021.38,-607.278 "/>
<polyline fill="none" stroke="black" points="872.376,-583.278 1021.38,-583.278 "/>
<text text-anchor="start" x="880.376" y="-566.678" font-family="Times Roman,serif" font-size="14.00">_layout</text>
</g>
<!-- ApplicationController&#45;&gt;LocalitiesController -->
<g id="edge24" class="edge"><title>ApplicationController&#45;&gt;LocalitiesController</title>
<path fill="none" stroke="black" d="M592.599,-504.594C680.391,-543.669 797.094,-595.612 872.111,-629.001"/>
</g>
<!-- SessionsController -->
<g id="node15" class="node"><title>SessionsController</title>
<polyline fill="none" stroke="black" points="839.35,-917.505 959.35,-917.505 "/>
<path fill="none" stroke="black" d="M959.35,-917.505C965.35,-917.505 971.35,-923.505 971.35,-929.505"/>
<polyline fill="none" stroke="black" points="971.35,-929.505 971.35,-1043.5 "/>
<path fill="none" stroke="black" d="M971.35,-1043.5C971.35,-1049.5 965.35,-1055.5 959.35,-1055.5"/>
<polyline fill="none" stroke="black" points="959.35,-1055.5 839.35,-1055.5 "/>
<path fill="none" stroke="black" d="M839.35,-1055.5C833.35,-1055.5 827.35,-1049.5 827.35,-1043.5"/>
<polyline fill="none" stroke="black" points="827.35,-1043.5 827.35,-929.505 "/>
<path fill="none" stroke="black" d="M827.35,-929.505C827.35,-923.505 833.35,-917.505 839.35,-917.505"/>
<text text-anchor="middle" x="899.35" y="-1038.9" font-family="Times Roman,serif" font-size="14.00">SessionsController</text>
<polyline fill="none" stroke="black" points="827.35,-1029.5 971.35,-1029.5 "/>
<text text-anchor="start" x="835.35" y="-1012.9" font-family="Times Roman,serif" font-size="14.00">create</text>
<text text-anchor="start" x="835.35" y="-994.905" font-family="Times Roman,serif" font-size="14.00">destroy</text>
<text text-anchor="start" x="835.35" y="-976.905" font-family="Times Roman,serif" font-size="14.00">new</text>
<polyline fill="none" stroke="black" points="827.35,-967.505 971.35,-967.505 "/>
<polyline fill="none" stroke="black" points="827.35,-943.505 971.35,-943.505 "/>
<text text-anchor="start" x="835.35" y="-926.905" font-family="Times Roman,serif" font-size="14.00">_layout</text>
</g>
<!-- ApplicationController&#45;&gt;SessionsController -->
<g id="edge26" class="edge"><title>ApplicationController&#45;&gt;SessionsController</title>
<path fill="none" stroke="black" d="M584.08,-512.699C629.685,-541.843 680.512,-579.885 718.009,-623.447 794.653,-712.489 848.389,-839.571 876.543,-917.358"/>
</g>
</g>
</svg>
