<?xml version="1.0" encoding="UTF-8" standalone="no"?>
<!DOCTYPE svg PUBLIC "-//W3C//DTD SVG 1.1//EN"
 "http://www.w3.org/Graphics/SVG/1.1/DTD/svg11.dtd">
<!-- Generated by graphviz version 2.26.3 (20100126.1600)
 -->
<!-- Title: controllers_diagram Pages: 1 -->
<svg width="1547pt" height="1388pt"
 viewBox="0.00 0.00 1547.00 1387.80" xmlns="http://www.w3.org/2000/svg" xmlns:xlink="http://www.w3.org/1999/xlink">
<g id="graph1" class="graph" transform="scale(1 1) rotate(0) translate(4 1383.8)">
<title>controllers_diagram</title>
<polygon fill="white" stroke="white" points="-4,5 -4,-1383.8 1544,-1383.8 1544,5 -4,5"/>
<!-- _diagram_info -->
<g id="node1" class="node"><title>_diagram_info</title>
<text text-anchor="start" x="1296" y="-78.3" font-family="Times Roman,serif" font-size="13.00">Controllers diagram</text>
<text text-anchor="start" x="1296" y="-61.3" font-family="Times Roman,serif" font-size="13.00">Date: Jun 10 2013 &#45; 16:56</text>
<text text-anchor="start" x="1296" y="-44.3" font-family="Times Roman,serif" font-size="13.00">Migration version: 20130610184034</text>
<text text-anchor="start" x="1296" y="-27.3" font-family="Times Roman,serif" font-size="13.00">Generated by RailRoady 1.1.0</text>
<text text-anchor="start" x="1296" y="-10.3" font-family="Times Roman,serif" font-size="13.00">http://railroady.prestonlee.com</text>
</g>
<!-- TreatmentsController -->
<g id="node2" class="node"><title>TreatmentsController</title>
<polyline fill="none" stroke="black" points="14.9344,-400.45 154.934,-400.45 "/>
<path fill="none" stroke="black" d="M154.934,-400.45C160.934,-400.45 166.934,-406.45 166.934,-412.45"/>
<polyline fill="none" stroke="black" points="166.934,-412.45 166.934,-598.45 "/>
<path fill="none" stroke="black" d="M166.934,-598.45C166.934,-604.45 160.934,-610.45 154.934,-610.45"/>
<polyline fill="none" stroke="black" points="154.934,-610.45 14.9344,-610.45 "/>
<path fill="none" stroke="black" d="M14.9344,-610.45C8.93437,-610.45 2.93437,-604.45 2.93437,-598.45"/>
<polyline fill="none" stroke="black" points="2.93437,-598.45 2.93437,-412.45 "/>
<path fill="none" stroke="black" d="M2.93437,-412.45C2.93437,-406.45 8.93437,-400.45 14.9344,-400.45"/>
<text text-anchor="middle" x="84.9344" y="-593.85" font-family="Times Roman,serif" font-size="14.00">TreatmentsController</text>
<polyline fill="none" stroke="black" points="2.93437,-584.45 166.934,-584.45 "/>
<text text-anchor="start" x="10.9344" y="-567.85" font-family="Times Roman,serif" font-size="14.00">create</text>
<text text-anchor="start" x="10.9344" y="-549.85" font-family="Times Roman,serif" font-size="14.00">destroy</text>
<text text-anchor="start" x="10.9344" y="-531.85" font-family="Times Roman,serif" font-size="14.00">edit</text>
<text text-anchor="start" x="10.9344" y="-513.85" font-family="Times Roman,serif" font-size="14.00">index</text>
<text text-anchor="start" x="10.9344" y="-495.85" font-family="Times Roman,serif" font-size="14.00">new</text>
<text text-anchor="start" x="10.9344" y="-477.85" font-family="Times Roman,serif" font-size="14.00">show</text>
<text text-anchor="start" x="10.9344" y="-459.85" font-family="Times Roman,serif" font-size="14.00">update</text>
<polyline fill="none" stroke="black" points="2.93437,-450.45 166.934,-450.45 "/>
<polyline fill="none" stroke="black" points="2.93437,-426.45 166.934,-426.45 "/>
<text text-anchor="start" x="10.9344" y="-409.85" font-family="Times Roman,serif" font-size="14.00">_layout</text>
</g>
<!-- CompaniesController -->
<g id="node3" class="node"><title>CompaniesController</title>
<polyline fill="none" stroke="black" points="714.729,-583.849 928.729,-583.849 "/>
<path fill="none" stroke="black" d="M928.729,-583.849C934.729,-583.849 940.729,-589.849 940.729,-595.849"/>
<polyline fill="none" stroke="black" points="940.729,-595.849 940.729,-799.849 "/>
<path fill="none" stroke="black" d="M940.729,-799.849C940.729,-805.849 934.729,-811.849 928.729,-811.849"/>
<polyline fill="none" stroke="black" points="928.729,-811.849 714.729,-811.849 "/>
<path fill="none" stroke="black" d="M714.729,-811.849C708.729,-811.849 702.729,-805.849 702.729,-799.849"/>
<polyline fill="none" stroke="black" points="702.729,-799.849 702.729,-595.849 "/>
<path fill="none" stroke="black" d="M702.729,-595.849C702.729,-589.849 708.729,-583.849 714.729,-583.849"/>
<text text-anchor="middle" x="821.729" y="-795.249" font-family="Times Roman,serif" font-size="14.00">CompaniesController</text>
<polyline fill="none" stroke="black" points="702.729,-785.849 940.729,-785.849 "/>
<text text-anchor="start" x="710.729" y="-769.249" font-family="Times Roman,serif" font-size="14.00">_one_time_conditions_valid_69?</text>
<text text-anchor="start" x="710.729" y="-751.249" font-family="Times Roman,serif" font-size="14.00">create</text>
<text text-anchor="start" x="710.729" y="-733.249" font-family="Times Roman,serif" font-size="14.00">destroy</text>
<text text-anchor="start" x="710.729" y="-715.249" font-family="Times Roman,serif" font-size="14.00">edit</text>
<text text-anchor="start" x="710.729" y="-697.249" font-family="Times Roman,serif" font-size="14.00">index</text>
<text text-anchor="start" x="710.729" y="-679.249" font-family="Times Roman,serif" font-size="14.00">new</text>
<text text-anchor="start" x="710.729" y="-661.249" font-family="Times Roman,serif" font-size="14.00">show</text>
<text text-anchor="start" x="710.729" y="-643.249" font-family="Times Roman,serif" font-size="14.00">update</text>
<polyline fill="none" stroke="black" points="702.729,-633.849 940.729,-633.849 "/>
<polyline fill="none" stroke="black" points="702.729,-609.849 940.729,-609.849 "/>
<text text-anchor="start" x="710.729" y="-593.249" font-family="Times Roman,serif" font-size="14.00">_layout</text>
</g>
<!-- LocalitiesController -->
<g id="node4" class="node"><title>LocalitiesController</title>
<polyline fill="none" stroke="black" points="357.548,-1.5 482.548,-1.5 "/>
<path fill="none" stroke="black" d="M482.548,-1.5C488.548,-1.5 494.548,-7.5 494.548,-13.5"/>
<polyline fill="none" stroke="black" points="494.548,-13.5 494.548,-199.5 "/>
<path fill="none" stroke="black" d="M494.548,-199.5C494.548,-205.5 488.548,-211.5 482.548,-211.5"/>
<polyline fill="none" stroke="black" points="482.548,-211.5 357.548,-211.5 "/>
<path fill="none" stroke="black" d="M357.548,-211.5C351.548,-211.5 345.548,-205.5 345.548,-199.5"/>
<polyline fill="none" stroke="black" points="345.548,-199.5 345.548,-13.5 "/>
<path fill="none" stroke="black" d="M345.548,-13.5C345.548,-7.5 351.548,-1.5 357.548,-1.5"/>
<text text-anchor="middle" x="420.048" y="-194.9" font-family="Times Roman,serif" font-size="14.00">LocalitiesController</text>
<polyline fill="none" stroke="black" points="345.548,-185.5 494.548,-185.5 "/>
<text text-anchor="start" x="353.548" y="-168.9" font-family="Times Roman,serif" font-size="14.00">create</text>
<text text-anchor="start" x="353.548" y="-150.9" font-family="Times Roman,serif" font-size="14.00">destroy</text>
<text text-anchor="start" x="353.548" y="-132.9" font-family="Times Roman,serif" font-size="14.00">edit</text>
<text text-anchor="start" x="353.548" y="-114.9" font-family="Times Roman,serif" font-size="14.00">index</text>
<text text-anchor="start" x="353.548" y="-96.9" font-family="Times Roman,serif" font-size="14.00">new</text>
<text text-anchor="start" x="353.548" y="-78.9" font-family="Times Roman,serif" font-size="14.00">show</text>
<text text-anchor="start" x="353.548" y="-60.9" font-family="Times Roman,serif" font-size="14.00">update</text>
<polyline fill="none" stroke="black" points="345.548,-51.5 494.548,-51.5 "/>
<polyline fill="none" stroke="black" points="345.548,-27.5 494.548,-27.5 "/>
<text text-anchor="start" x="353.548" y="-10.9" font-family="Times Roman,serif" font-size="14.00">_layout</text>
</g>
<!-- InternshipsController -->
<g id="node5" class="node"><title>InternshipsController</title>
<polyline fill="none" stroke="black" points="455.484,-1132.3 678.484,-1132.3 "/>
<path fill="none" stroke="black" d="M678.484,-1132.3C684.484,-1132.3 690.484,-1138.3 690.484,-1144.3"/>
<polyline fill="none" stroke="black" points="690.484,-1144.3 690.484,-1366.3 "/>
<path fill="none" stroke="black" d="M690.484,-1366.3C690.484,-1372.3 684.484,-1378.3 678.484,-1378.3"/>
<polyline fill="none" stroke="black" points="678.484,-1378.3 455.484,-1378.3 "/>
<path fill="none" stroke="black" d="M455.484,-1378.3C449.484,-1378.3 443.484,-1372.3 443.484,-1366.3"/>
<polyline fill="none" stroke="black" points="443.484,-1366.3 443.484,-1144.3 "/>
<path fill="none" stroke="black" d="M443.484,-1144.3C443.484,-1138.3 449.484,-1132.3 455.484,-1132.3"/>
<text text-anchor="middle" x="566.984" y="-1361.7" font-family="Times Roman,serif" font-size="14.00">InternshipsController</text>
<polyline fill="none" stroke="black" points="443.484,-1352.3 690.484,-1352.3 "/>
<text text-anchor="start" x="451.484" y="-1335.7" font-family="Times Roman,serif" font-size="14.00">_one_time_conditions_valid_127?</text>
<text text-anchor="start" x="451.484" y="-1317.7" font-family="Times Roman,serif" font-size="14.00">create</text>
<text text-anchor="start" x="451.484" y="-1299.7" font-family="Times Roman,serif" font-size="14.00">destroy</text>
<text text-anchor="start" x="451.484" y="-1281.7" font-family="Times Roman,serif" font-size="14.00">edit</text>
<text text-anchor="start" x="451.484" y="-1263.7" font-family="Times Roman,serif" font-size="14.00">index</text>
<text text-anchor="start" x="451.484" y="-1245.7" font-family="Times Roman,serif" font-size="14.00">new</text>
<text text-anchor="start" x="451.484" y="-1227.7" font-family="Times Roman,serif" font-size="14.00">postularme</text>
<text text-anchor="start" x="451.484" y="-1209.7" font-family="Times Roman,serif" font-size="14.00">show</text>
<text text-anchor="start" x="451.484" y="-1191.7" font-family="Times Roman,serif" font-size="14.00">update</text>
<polyline fill="none" stroke="black" points="443.484,-1182.3 690.484,-1182.3 "/>
<polyline fill="none" stroke="black" points="443.484,-1158.3 690.484,-1158.3 "/>
<text text-anchor="start" x="451.484" y="-1141.7" font-family="Times Roman,serif" font-size="14.00">_layout</text>
</g>
<!-- SessionsController -->
<g id="node6" class="node"><title>SessionsController</title>
<polyline fill="none" stroke="black" points="669.71,-903.937 789.71,-903.937 "/>
<path fill="none" stroke="black" d="M789.71,-903.937C795.71,-903.937 801.71,-909.937 801.71,-915.937"/>
<polyline fill="none" stroke="black" points="801.71,-915.937 801.71,-1029.94 "/>
<path fill="none" stroke="black" d="M801.71,-1029.94C801.71,-1035.94 795.71,-1041.94 789.71,-1041.94"/>
<polyline fill="none" stroke="black" points="789.71,-1041.94 669.71,-1041.94 "/>
<path fill="none" stroke="black" d="M669.71,-1041.94C663.71,-1041.94 657.71,-1035.94 657.71,-1029.94"/>
<polyline fill="none" stroke="black" points="657.71,-1029.94 657.71,-915.937 "/>
<path fill="none" stroke="black" d="M657.71,-915.937C657.71,-909.937 663.71,-903.937 669.71,-903.937"/>
<text text-anchor="middle" x="729.71" y="-1025.34" font-family="Times Roman,serif" font-size="14.00">SessionsController</text>
<polyline fill="none" stroke="black" points="657.71,-1015.94 801.71,-1015.94 "/>
<text text-anchor="start" x="665.71" y="-999.337" font-family="Times Roman,serif" font-size="14.00">create</text>
<text text-anchor="start" x="665.71" y="-981.337" font-family="Times Roman,serif" font-size="14.00">destroy</text>
<text text-anchor="start" x="665.71" y="-963.337" font-family="Times Roman,serif" font-size="14.00">new</text>
<polyline fill="none" stroke="black" points="657.71,-953.937 801.71,-953.937 "/>
<polyline fill="none" stroke="black" points="657.71,-929.937 801.71,-929.937 "/>
<text text-anchor="start" x="665.71" y="-913.337" font-family="Times Roman,serif" font-size="14.00">_layout</text>
</g>
<!-- SkillsController -->
<g id="node7" class="node"><title>SkillsController</title>
<polyline fill="none" stroke="black" points="360.372,-860.924 457.372,-860.924 "/>
<path fill="none" stroke="black" d="M457.372,-860.924C463.372,-860.924 469.372,-866.924 469.372,-872.924"/>
<polyline fill="none" stroke="black" points="469.372,-872.924 469.372,-1058.92 "/>
<path fill="none" stroke="black" d="M469.372,-1058.92C469.372,-1064.92 463.372,-1070.92 457.372,-1070.92"/>
<polyline fill="none" stroke="black" points="457.372,-1070.92 360.372,-1070.92 "/>
<path fill="none" stroke="black" d="M360.372,-1070.92C354.372,-1070.92 348.372,-1064.92 348.372,-1058.92"/>
<polyline fill="none" stroke="black" points="348.372,-1058.92 348.372,-872.924 "/>
<path fill="none" stroke="black" d="M348.372,-872.924C348.372,-866.924 354.372,-860.924 360.372,-860.924"/>
<text text-anchor="middle" x="408.872" y="-1054.32" font-family="Times Roman,serif" font-size="14.00">SkillsController</text>
<polyline fill="none" stroke="black" points="348.372,-1044.92 469.372,-1044.92 "/>
<text text-anchor="start" x="356.372" y="-1028.32" font-family="Times Roman,serif" font-size="14.00">create</text>
<text text-anchor="start" x="356.372" y="-1010.32" font-family="Times Roman,serif" font-size="14.00">destroy</text>
<text text-anchor="start" x="356.372" y="-992.324" font-family="Times Roman,serif" font-size="14.00">edit</text>
<text text-anchor="start" x="356.372" y="-974.324" font-family="Times Roman,serif" font-size="14.00">index</text>
<text text-anchor="start" x="356.372" y="-956.324" font-family="Times Roman,serif" font-size="14.00">new</text>
<text text-anchor="start" x="356.372" y="-938.324" font-family="Times Roman,serif" font-size="14.00">show</text>
<text text-anchor="start" x="356.372" y="-920.324" font-family="Times Roman,serif" font-size="14.00">update</text>
<polyline fill="none" stroke="black" points="348.372,-910.924 469.372,-910.924 "/>
<polyline fill="none" stroke="black" points="348.372,-886.924 469.372,-886.924 "/>
<text text-anchor="start" x="356.372" y="-870.324" font-family="Times Roman,serif" font-size="14.00">_layout</text>
</g>
<!-- LandingController -->
<g id="node8" class="node"><title>LandingController</title>
<polyline fill="none" stroke="black" points="40.5732,-91 156.573,-91 "/>
<path fill="none" stroke="black" d="M156.573,-91C162.573,-91 168.573,-97 168.573,-103"/>
<polyline fill="none" stroke="black" points="168.573,-103 168.573,-181 "/>
<path fill="none" stroke="black" d="M168.573,-181C168.573,-187 162.573,-193 156.573,-193"/>
<polyline fill="none" stroke="black" points="156.573,-193 40.5732,-193 "/>
<path fill="none" stroke="black" d="M40.5732,-193C34.5732,-193 28.5732,-187 28.5732,-181"/>
<polyline fill="none" stroke="black" points="28.5732,-181 28.5732,-103 "/>
<path fill="none" stroke="black" d="M28.5732,-103C28.5732,-97 34.5732,-91 40.5732,-91"/>
<text text-anchor="middle" x="98.5732" y="-176.4" font-family="Times Roman,serif" font-size="14.00">LandingController</text>
<polyline fill="none" stroke="black" points="28.5732,-167 168.573,-167 "/>
<text text-anchor="start" x="36.5732" y="-150.4" font-family="Times Roman,serif" font-size="14.00">bienvenida</text>
<polyline fill="none" stroke="black" points="28.5732,-141 168.573,-141 "/>
<polyline fill="none" stroke="black" points="28.5732,-117 168.573,-117 "/>
<text text-anchor="start" x="36.5732" y="-100.4" font-family="Times Roman,serif" font-size="14.00">_layout</text>
</g>
<!-- InternshipsTasksController -->
<g id="node9" class="node"><title>InternshipsTasksController</title>
<polyline fill="none" stroke="black" points="975.096,-407.727 1151.1,-407.727 "/>
<path fill="none" stroke="black" d="M1151.1,-407.727C1157.1,-407.727 1163.1,-413.727 1163.1,-419.727"/>
<polyline fill="none" stroke="black" points="1163.1,-419.727 1163.1,-605.727 "/>
<path fill="none" stroke="black" d="M1163.1,-605.727C1163.1,-611.727 1157.1,-617.727 1151.1,-617.727"/>
<polyline fill="none" stroke="black" points="1151.1,-617.727 975.096,-617.727 "/>
<path fill="none" stroke="black" d="M975.096,-617.727C969.096,-617.727 963.096,-611.727 963.096,-605.727"/>
<polyline fill="none" stroke="black" points="963.096,-605.727 963.096,-419.727 "/>
<path fill="none" stroke="black" d="M963.096,-419.727C963.096,-413.727 969.096,-407.727 975.096,-407.727"/>
<text text-anchor="middle" x="1063.1" y="-601.127" font-family="Times Roman,serif" font-size="14.00">InternshipsTasksController</text>
<polyline fill="none" stroke="black" points="963.096,-591.727 1163.1,-591.727 "/>
<text text-anchor="start" x="971.096" y="-575.127" font-family="Times Roman,serif" font-size="14.00">create</text>
<text text-anchor="start" x="971.096" y="-557.127" font-family="Times Roman,serif" font-size="14.00">destroy</text>
<text text-anchor="start" x="971.096" y="-539.127" font-family="Times Roman,serif" font-size="14.00">edit</text>
<text text-anchor="start" x="971.096" y="-521.127" font-family="Times Roman,serif" font-size="14.00">index</text>
<text text-anchor="start" x="971.096" y="-503.127" font-family="Times Roman,serif" font-size="14.00">new</text>
<text text-anchor="start" x="971.096" y="-485.127" font-family="Times Roman,serif" font-size="14.00">show</text>
<text text-anchor="start" x="971.096" y="-467.127" font-family="Times Roman,serif" font-size="14.00">update</text>
<polyline fill="none" stroke="black" points="963.096,-457.727 1163.1,-457.727 "/>
<polyline fill="none" stroke="black" points="963.096,-433.727 1163.1,-433.727 "/>
<text text-anchor="start" x="971.096" y="-417.127" font-family="Times Roman,serif" font-size="14.00">_layout</text>
</g>
<!-- ProvincesController -->
<g id="node10" class="node"><title>ProvincesController</title>
<polyline fill="none" stroke="black" points="261.924,-580.507 389.924,-580.507 "/>
<path fill="none" stroke="black" d="M389.924,-580.507C395.924,-580.507 401.924,-586.507 401.924,-592.507"/>
<polyline fill="none" stroke="black" points="401.924,-592.507 401.924,-778.507 "/>
<path fill="none" stroke="black" d="M401.924,-778.507C401.924,-784.507 395.924,-790.507 389.924,-790.507"/>
<polyline fill="none" stroke="black" points="389.924,-790.507 261.924,-790.507 "/>
<path fill="none" stroke="black" d="M261.924,-790.507C255.924,-790.507 249.924,-784.507 249.924,-778.507"/>
<polyline fill="none" stroke="black" points="249.924,-778.507 249.924,-592.507 "/>
<path fill="none" stroke="black" d="M249.924,-592.507C249.924,-586.507 255.924,-580.507 261.924,-580.507"/>
<text text-anchor="middle" x="325.924" y="-773.907" font-family="Times Roman,serif" font-size="14.00">ProvincesController</text>
<polyline fill="none" stroke="black" points="249.924,-764.507 401.924,-764.507 "/>
<text text-anchor="start" x="257.924" y="-747.907" font-family="Times Roman,serif" font-size="14.00">create</text>
<text text-anchor="start" x="257.924" y="-729.907" font-family="Times Roman,serif" font-size="14.00">destroy</text>
<text text-anchor="start" x="257.924" y="-711.907" font-family="Times Roman,serif" font-size="14.00">edit</text>
<text text-anchor="start" x="257.924" y="-693.907" font-family="Times Roman,serif" font-size="14.00">index</text>
<text text-anchor="start" x="257.924" y="-675.907" font-family="Times Roman,serif" font-size="14.00">new</text>
<text text-anchor="start" x="257.924" y="-657.907" font-family="Times Roman,serif" font-size="14.00">show</text>
<text text-anchor="start" x="257.924" y="-639.907" font-family="Times Roman,serif" font-size="14.00">update</text>
<polyline fill="none" stroke="black" points="249.924,-630.507 401.924,-630.507 "/>
<polyline fill="none" stroke="black" points="249.924,-606.507 401.924,-606.507 "/>
<text text-anchor="start" x="257.924" y="-589.907" font-family="Times Roman,serif" font-size="14.00">_layout</text>
</g>
<!-- TasksController -->
<g id="node11" class="node"><title>TasksController</title>
<polyline fill="none" stroke="black" points="665.797,-6.19017 763.797,-6.19017 "/>
<path fill="none" stroke="black" d="M763.797,-6.19017C769.797,-6.19017 775.797,-12.1902 775.797,-18.1902"/>
<polyline fill="none" stroke="black" points="775.797,-18.1902 775.797,-204.19 "/>
<path fill="none" stroke="black" d="M775.797,-204.19C775.797,-210.19 769.797,-216.19 763.797,-216.19"/>
<polyline fill="none" stroke="black" points="763.797,-216.19 665.797,-216.19 "/>
<path fill="none" stroke="black" d="M665.797,-216.19C659.797,-216.19 653.797,-210.19 653.797,-204.19"/>
<polyline fill="none" stroke="black" points="653.797,-204.19 653.797,-18.1902 "/>
<path fill="none" stroke="black" d="M653.797,-18.1902C653.797,-12.1902 659.797,-6.19017 665.797,-6.19017"/>
<text text-anchor="middle" x="714.797" y="-199.59" font-family="Times Roman,serif" font-size="14.00">TasksController</text>
<polyline fill="none" stroke="black" points="653.797,-190.19 775.797,-190.19 "/>
<text text-anchor="start" x="661.797" y="-173.59" font-family="Times Roman,serif" font-size="14.00">create</text>
<text text-anchor="start" x="661.797" y="-155.59" font-family="Times Roman,serif" font-size="14.00">destroy</text>
<text text-anchor="start" x="661.797" y="-137.59" font-family="Times Roman,serif" font-size="14.00">edit</text>
<text text-anchor="start" x="661.797" y="-119.59" font-family="Times Roman,serif" font-size="14.00">index</text>
<text text-anchor="start" x="661.797" y="-101.59" font-family="Times Roman,serif" font-size="14.00">new</text>
<text text-anchor="start" x="661.797" y="-83.5902" font-family="Times Roman,serif" font-size="14.00">show</text>
<text text-anchor="start" x="661.797" y="-65.5902" font-family="Times Roman,serif" font-size="14.00">update</text>
<polyline fill="none" stroke="black" points="653.797,-56.1902 775.797,-56.1902 "/>
<polyline fill="none" stroke="black" points="653.797,-32.1902 775.797,-32.1902 "/>
<text text-anchor="start" x="661.797" y="-15.5902" font-family="Times Roman,serif" font-size="14.00">_layout</text>
</g>
<!-- InternshipsUsersController -->
<g id="node12" class="node"><title>InternshipsUsersController</title>
<polyline fill="none" stroke="black" points="338.167,-312.917 515.167,-312.917 "/>
<path fill="none" stroke="black" d="M515.167,-312.917C521.167,-312.917 527.167,-318.917 527.167,-324.917"/>
<polyline fill="none" stroke="black" points="527.167,-324.917 527.167,-510.917 "/>
<path fill="none" stroke="black" d="M527.167,-510.917C527.167,-516.917 521.167,-522.917 515.167,-522.917"/>
<polyline fill="none" stroke="black" points="515.167,-522.917 338.167,-522.917 "/>
<path fill="none" stroke="black" d="M338.167,-522.917C332.167,-522.917 326.167,-516.917 326.167,-510.917"/>
<polyline fill="none" stroke="black" points="326.167,-510.917 326.167,-324.917 "/>
<path fill="none" stroke="black" d="M326.167,-324.917C326.167,-318.917 332.167,-312.917 338.167,-312.917"/>
<text text-anchor="middle" x="426.667" y="-506.317" font-family="Times Roman,serif" font-size="14.00">InternshipsUsersController</text>
<polyline fill="none" stroke="black" points="326.167,-496.917 527.167,-496.917 "/>
<text text-anchor="start" x="334.167" y="-480.317" font-family="Times Roman,serif" font-size="14.00">create</text>
<text text-anchor="start" x="334.167" y="-462.317" font-family="Times Roman,serif" font-size="14.00">destroy</text>
<text text-anchor="start" x="334.167" y="-444.317" font-family="Times Roman,serif" font-size="14.00">edit</text>
<text text-anchor="start" x="334.167" y="-426.317" font-family="Times Roman,serif" font-size="14.00">index</text>
<text text-anchor="start" x="334.167" y="-408.317" font-family="Times Roman,serif" font-size="14.00">new</text>
<text text-anchor="start" x="334.167" y="-390.317" font-family="Times Roman,serif" font-size="14.00">show</text>
<text text-anchor="start" x="334.167" y="-372.317" font-family="Times Roman,serif" font-size="14.00">update</text>
<polyline fill="none" stroke="black" points="326.167,-362.917 527.167,-362.917 "/>
<polyline fill="none" stroke="black" points="326.167,-338.917 527.167,-338.917 "/>
<text text-anchor="start" x="334.167" y="-322.317" font-family="Times Roman,serif" font-size="14.00">_layout</text>
</g>
<!-- ContractsController -->
<g id="node13" class="node"><title>ContractsController</title>
<polyline fill="none" stroke="black" points="13,-721.867 141,-721.867 "/>
<path fill="none" stroke="black" d="M141,-721.867C147,-721.867 153,-727.867 153,-733.867"/>
<polyline fill="none" stroke="black" points="153,-733.867 153,-991.867 "/>
<path fill="none" stroke="black" d="M153,-991.867C153,-997.867 147,-1003.87 141,-1003.87"/>
<polyline fill="none" stroke="black" points="141,-1003.87 13,-1003.87 "/>
<path fill="none" stroke="black" d="M13,-1003.87C7,-1003.87 1,-997.867 1,-991.867"/>
<polyline fill="none" stroke="black" points="1,-991.867 1,-733.867 "/>
<path fill="none" stroke="black" d="M1,-733.867C1,-727.867 7,-721.867 13,-721.867"/>
<text text-anchor="middle" x="77" y="-987.267" font-family="Times Roman,serif" font-size="14.00">ContractsController</text>
<polyline fill="none" stroke="black" points="1,-977.867 153,-977.867 "/>
<text text-anchor="start" x="9" y="-961.267" font-family="Times Roman,serif" font-size="14.00">cm</text>
<text text-anchor="start" x="9" y="-943.267" font-family="Times Roman,serif" font-size="14.00">create</text>
<text text-anchor="start" x="9" y="-925.267" font-family="Times Roman,serif" font-size="14.00">destroy</text>
<text text-anchor="start" x="9" y="-907.267" font-family="Times Roman,serif" font-size="14.00">edit</text>
<text text-anchor="start" x="9" y="-889.267" font-family="Times Roman,serif" font-size="14.00">imprimirmeci</text>
<text text-anchor="start" x="9" y="-871.267" font-family="Times Roman,serif" font-size="14.00">imprimirmecm</text>
<text text-anchor="start" x="9" y="-853.267" font-family="Times Roman,serif" font-size="14.00">index</text>
<text text-anchor="start" x="9" y="-835.267" font-family="Times Roman,serif" font-size="14.00">new</text>
<text text-anchor="start" x="9" y="-817.267" font-family="Times Roman,serif" font-size="14.00">redactarme</text>
<text text-anchor="start" x="9" y="-799.267" font-family="Times Roman,serif" font-size="14.00">show</text>
<text text-anchor="start" x="9" y="-781.267" font-family="Times Roman,serif" font-size="14.00">update</text>
<polyline fill="none" stroke="black" points="1,-771.867 153,-771.867 "/>
<polyline fill="none" stroke="black" points="1,-747.867 153,-747.867 "/>
<text text-anchor="start" x="9" y="-731.267" font-family="Times Roman,serif" font-size="14.00">_layout</text>
</g>
<!-- AdminController -->
<g id="node14" class="node"><title>AdminController</title>
<polyline fill="none" stroke="black" points="1014.18,-821.716 1119.18,-821.716 "/>
<path fill="none" stroke="black" d="M1119.18,-821.716C1125.18,-821.716 1131.18,-827.716 1131.18,-833.716"/>
<polyline fill="none" stroke="black" points="1131.18,-833.716 1131.18,-911.716 "/>
<path fill="none" stroke="black" d="M1131.18,-911.716C1131.18,-917.716 1125.18,-923.716 1119.18,-923.716"/>
<polyline fill="none" stroke="black" points="1119.18,-923.716 1014.18,-923.716 "/>
<path fill="none" stroke="black" d="M1014.18,-923.716C1008.18,-923.716 1002.18,-917.716 1002.18,-911.716"/>
<polyline fill="none" stroke="black" points="1002.18,-911.716 1002.18,-833.716 "/>
<path fill="none" stroke="black" d="M1002.18,-833.716C1002.18,-827.716 1008.18,-821.716 1014.18,-821.716"/>
<text text-anchor="middle" x="1066.68" y="-907.116" font-family="Times Roman,serif" font-size="14.00">AdminController</text>
<polyline fill="none" stroke="black" points="1002.18,-897.716 1131.18,-897.716 "/>
<text text-anchor="start" x="1010.18" y="-881.116" font-family="Times Roman,serif" font-size="14.00">index</text>
<polyline fill="none" stroke="black" points="1002.18,-871.716 1131.18,-871.716 "/>
<polyline fill="none" stroke="black" points="1002.18,-847.716 1131.18,-847.716 "/>
<text text-anchor="start" x="1010.18" y="-831.116" font-family="Times Roman,serif" font-size="14.00">_layout</text>
</g>
<!-- UsersController -->
<g id="node15" class="node"><title>UsersController</title>
<polyline fill="none" stroke="black" points="890.365,-1115.07 1113.37,-1115.07 "/>
<path fill="none" stroke="black" d="M1113.37,-1115.07C1119.37,-1115.07 1125.37,-1121.07 1125.37,-1127.07"/>
<polyline fill="none" stroke="black" points="1125.37,-1127.07 1125.37,-1331.07 "/>
<path fill="none" stroke="black" d="M1125.37,-1331.07C1125.37,-1337.07 1119.37,-1343.07 1113.37,-1343.07"/>
<polyline fill="none" stroke="black" points="1113.37,-1343.07 890.365,-1343.07 "/>
<path fill="none" stroke="black" d="M890.365,-1343.07C884.365,-1343.07 878.365,-1337.07 878.365,-1331.07"/>
<polyline fill="none" stroke="black" points="878.365,-1331.07 878.365,-1127.07 "/>
<path fill="none" stroke="black" d="M878.365,-1127.07C878.365,-1121.07 884.365,-1115.07 890.365,-1115.07"/>
<text text-anchor="middle" x="1001.87" y="-1326.47" font-family="Times Roman,serif" font-size="14.00">UsersController</text>
<polyline fill="none" stroke="black" points="878.365,-1317.07 1125.37,-1317.07 "/>
<text text-anchor="start" x="886.365" y="-1300.47" font-family="Times Roman,serif" font-size="14.00">_one_time_conditions_valid_235?</text>
<text text-anchor="start" x="886.365" y="-1282.47" font-family="Times Roman,serif" font-size="14.00">create</text>
<text text-anchor="start" x="886.365" y="-1264.47" font-family="Times Roman,serif" font-size="14.00">destroy</text>
<text text-anchor="start" x="886.365" y="-1246.47" font-family="Times Roman,serif" font-size="14.00">edit</text>
<text text-anchor="start" x="886.365" y="-1228.47" font-family="Times Roman,serif" font-size="14.00">index</text>
<text text-anchor="start" x="886.365" y="-1210.47" font-family="Times Roman,serif" font-size="14.00">new</text>
<text text-anchor="start" x="886.365" y="-1192.47" font-family="Times Roman,serif" font-size="14.00">show</text>
<text text-anchor="start" x="886.365" y="-1174.47" font-family="Times Roman,serif" font-size="14.00">update</text>
<polyline fill="none" stroke="black" points="878.365,-1165.07 1125.37,-1165.07 "/>
<polyline fill="none" stroke="black" points="878.365,-1141.07 1125.37,-1141.07 "/>
<text text-anchor="start" x="886.365" y="-1124.47" font-family="Times Roman,serif" font-size="14.00">_layout</text>
</g>
<!-- ApplicationController -->
<g id="node16" class="node"><title>ApplicationController</title>
<polyline fill="none" stroke="black" points="466.96,-636.252 680.96,-636.252 "/>
<path fill="none" stroke="black" d="M680.96,-636.252C686.96,-636.252 692.96,-642.252 692.96,-648.252"/>
<polyline fill="none" stroke="black" points="692.96,-648.252 692.96,-746.252 "/>
<path fill="none" stroke="black" d="M692.96,-746.252C692.96,-752.252 686.96,-758.252 680.96,-758.252"/>
<polyline fill="none" stroke="black" points="680.96,-758.252 466.96,-758.252 "/>
<path fill="none" stroke="black" d="M466.96,-758.252C460.96,-758.252 454.96,-752.252 454.96,-746.252"/>
<polyline fill="none" stroke="black" points="454.96,-746.252 454.96,-648.252 "/>
<path fill="none" stroke="black" d="M454.96,-648.252C454.96,-642.252 460.96,-636.252 466.96,-636.252"/>
<text text-anchor="middle" x="573.96" y="-741.652" font-family="Times Roman,serif" font-size="14.00">ApplicationController</text>
<polyline fill="none" stroke="black" points="454.96,-732.252 692.96,-732.252 "/>
<text text-anchor="start" x="462.96" y="-715.652" font-family="Times Roman,serif" font-size="14.00">_one_time_conditions_valid_10?</text>
<text text-anchor="start" x="462.96" y="-697.652" font-family="Times Roman,serif" font-size="14.00">_one_time_conditions_valid_8?</text>
<polyline fill="none" stroke="black" points="454.96,-688.252 692.96,-688.252 "/>
<text text-anchor="start" x="462.96" y="-671.652" font-family="Times Roman,serif" font-size="14.00">authorize</text>
<polyline fill="none" stroke="black" points="454.96,-662.252 692.96,-662.252 "/>
<text text-anchor="start" x="462.96" y="-645.652" font-family="Times Roman,serif" font-size="14.00">_layout</text>
</g>
<!-- ApplicationController&#45;&gt;TreatmentsController -->
<g id="edge2" class="edge"><title>ApplicationController&#45;&gt;TreatmentsController</title>
<path fill="none" stroke="black" d="M501.374,-636.087C472.89,-614.743 438.952,-592.382 405.124,-577.307 328.238,-543.043 233.446,-524.395 167.028,-514.75"/>
</g>
<!-- ApplicationController&#45;&gt;CompaniesController -->
<g id="edge4" class="edge"><title>ApplicationController&#45;&gt;CompaniesController</title>
<path fill="none" stroke="black" d="M693.127,-697.539C696.227,-697.547 699.33,-697.554 702.429,-697.562"/>
</g>
<!-- ApplicationController&#45;&gt;LocalitiesController -->
<g id="edge6" class="edge"><title>ApplicationController&#45;&gt;LocalitiesController</title>
<path fill="none" stroke="black" d="M574.254,-636.019C573.016,-558.354 565.403,-421.129 530.367,-309.717 519.889,-276.4 503.792,-242.258 487.105,-211.7"/>
</g>
<!-- ApplicationController&#45;&gt;InternshipsController -->
<g id="edge8" class="edge"><title>ApplicationController&#45;&gt;InternshipsController</title>
<path fill="none" stroke="black" d="M573.197,-758.302C572.079,-847.741 569.972,-1016.31 568.524,-1132.13"/>
</g>
<!-- ApplicationController&#45;&gt;SessionsController -->
<g id="edge10" class="edge"><title>ApplicationController&#45;&gt;SessionsController</title>
<path fill="none" stroke="black" d="M608.526,-758.436C632.813,-801.425 665.34,-858.999 690.58,-903.676"/>
</g>
<!-- ApplicationController&#45;&gt;SkillsController -->
<g id="edge12" class="edge"><title>ApplicationController&#45;&gt;SkillsController</title>
<path fill="none" stroke="black" d="M536.293,-758.554C516.546,-790.691 491.877,-830.839 469.518,-867.227"/>
</g>
<!-- ApplicationController&#45;&gt;LandingController -->
<g id="edge14" class="edge"><title>ApplicationController&#45;&gt;LandingController</title>
<path fill="none" stroke="black" d="M490.064,-636.143C463.171,-616.962 433.107,-595.94 405.124,-577.307 369.314,-553.462 352.951,-556.969 322.967,-526.117 224.462,-424.764 152.123,-272.03 118.877,-193.165"/>
</g>
<!-- ApplicationController&#45;&gt;InternshipsTasksController -->
<g id="edge16" class="edge"><title>ApplicationController&#45;&gt;InternshipsTasksController</title>
<path fill="none" stroke="black" d="M626.188,-636.249C646.988,-615.581 672.427,-594.298 699.529,-580.649 782.254,-538.986 887.187,-522.71 963.034,-516.439"/>
</g>
<!-- ApplicationController&#45;&gt;ProvincesController -->
<g id="edge18" class="edge"><title>ApplicationController&#45;&gt;ProvincesController</title>
<path fill="none" stroke="black" d="M454.665,-691.603C436.793,-690.757 418.791,-689.904 402.145,-689.116"/>
</g>
<!-- ApplicationController&#45;&gt;TasksController -->
<g id="edge20" class="edge"><title>ApplicationController&#45;&gt;TasksController</title>
<path fill="none" stroke="black" d="M588.634,-636.192C612.535,-536.733 660.152,-338.582 689.564,-216.191"/>
</g>
<!-- ApplicationController&#45;&gt;InternshipsUsersController -->
<g id="edge22" class="edge"><title>ApplicationController&#45;&gt;InternshipsUsersController</title>
<path fill="none" stroke="black" d="M541.636,-635.951C524.191,-602.867 502.173,-561.11 482.085,-523.015"/>
</g>
<!-- ApplicationController&#45;&gt;ContractsController -->
<g id="edge24" class="edge"><title>ApplicationController&#45;&gt;ContractsController</title>
<path fill="none" stroke="black" d="M478.738,-758.476C455.348,-771.576 429.894,-784.288 405.124,-793.707 321.868,-825.367 220.925,-843.887 153.175,-853.665"/>
</g>
<!-- ApplicationController&#45;&gt;AdminController -->
<g id="edge26" class="edge"><title>ApplicationController&#45;&gt;AdminController</title>
<path fill="none" stroke="black" d="M624.96,-758.391C645.889,-779.608 671.734,-801.463 699.529,-815.049 797.352,-862.863 925.745,-872.698 1001.9,-873.848"/>
</g>
<!-- ApplicationController&#45;&gt;UsersController -->
<g id="edge28" class="edge"><title>ApplicationController&#45;&gt;UsersController</title>
<path fill="none" stroke="black" d="M637.358,-758.37C657.017,-776.874 678.932,-797.054 699.529,-815.049 744.988,-854.766 765.369,-855.124 804.91,-900.737 861.185,-965.654 910.841,-1048.71 946.216,-1115.05"/>
</g>
<!-- JobsController -->
<g id="node17" class="node"><title>JobsController</title>
<polyline fill="none" stroke="black" points="691.032,-320.206 780.032,-320.206 "/>
<path fill="none" stroke="black" d="M780.032,-320.206C786.032,-320.206 792.032,-326.206 792.032,-332.206"/>
<polyline fill="none" stroke="black" points="792.032,-332.206 792.032,-518.206 "/>
<path fill="none" stroke="black" d="M792.032,-518.206C792.032,-524.206 786.032,-530.206 780.032,-530.206"/>
<polyline fill="none" stroke="black" points="780.032,-530.206 691.032,-530.206 "/>
<path fill="none" stroke="black" d="M691.032,-530.206C685.032,-530.206 679.032,-524.206 679.032,-518.206"/>
<polyline fill="none" stroke="black" points="679.032,-518.206 679.032,-332.206 "/>
<path fill="none" stroke="black" d="M679.032,-332.206C679.032,-326.206 685.032,-320.206 691.032,-320.206"/>
<text text-anchor="middle" x="735.532" y="-513.606" font-family="Times Roman,serif" font-size="14.00">JobsController</text>
<polyline fill="none" stroke="black" points="679.032,-504.206 792.032,-504.206 "/>
<text text-anchor="start" x="687.032" y="-487.606" font-family="Times Roman,serif" font-size="14.00">create</text>
<text text-anchor="start" x="687.032" y="-469.606" font-family="Times Roman,serif" font-size="14.00">destroy</text>
<text text-anchor="start" x="687.032" y="-451.606" font-family="Times Roman,serif" font-size="14.00">edit</text>
<text text-anchor="start" x="687.032" y="-433.606" font-family="Times Roman,serif" font-size="14.00">index</text>
<text text-anchor="start" x="687.032" y="-415.606" font-family="Times Roman,serif" font-size="14.00">new</text>
<text text-anchor="start" x="687.032" y="-397.606" font-family="Times Roman,serif" font-size="14.00">show</text>
<text text-anchor="start" x="687.032" y="-379.606" font-family="Times Roman,serif" font-size="14.00">update</text>
<polyline fill="none" stroke="black" points="679.032,-370.206 792.032,-370.206 "/>
<polyline fill="none" stroke="black" points="679.032,-346.206 792.032,-346.206 "/>
<text text-anchor="start" x="687.032" y="-329.606" font-family="Times Roman,serif" font-size="14.00">_layout</text>
</g>
<!-- ApplicationController&#45;&gt;JobsController -->
<g id="edge30" class="edge"><title>ApplicationController&#45;&gt;JobsController</title>
<path fill="none" stroke="black" d="M610.22,-636.2C630.456,-602.127 656.114,-558.927 678.934,-520.503"/>
</g>
<!-- SituationsController -->
<g id="node18" class="node"><title>SituationsController</title>
<polyline fill="none" stroke="black" points="976.95,-36.9952 1107.95,-36.9952 "/>
<path fill="none" stroke="black" d="M1107.95,-36.9952C1113.95,-36.9952 1119.95,-42.9952 1119.95,-48.9952"/>
<polyline fill="none" stroke="black" points="1119.95,-48.9952 1119.95,-234.995 "/>
<path fill="none" stroke="black" d="M1119.95,-234.995C1119.95,-240.995 1113.95,-246.995 1107.95,-246.995"/>
<polyline fill="none" stroke="black" points="1107.95,-246.995 976.95,-246.995 "/>
<path fill="none" stroke="black" d="M976.95,-246.995C970.95,-246.995 964.95,-240.995 964.95,-234.995"/>
<polyline fill="none" stroke="black" points="964.95,-234.995 964.95,-48.9952 "/>
<path fill="none" stroke="black" d="M964.95,-48.9952C964.95,-42.9952 970.95,-36.9952 976.95,-36.9952"/>
<text text-anchor="middle" x="1042.45" y="-230.395" font-family="Times Roman,serif" font-size="14.00">SituationsController</text>
<polyline fill="none" stroke="black" points="964.95,-220.995 1119.95,-220.995 "/>
<text text-anchor="start" x="972.95" y="-204.395" font-family="Times Roman,serif" font-size="14.00">create</text>
<text text-anchor="start" x="972.95" y="-186.395" font-family="Times Roman,serif" font-size="14.00">destroy</text>
<text text-anchor="start" x="972.95" y="-168.395" font-family="Times Roman,serif" font-size="14.00">edit</text>
<text text-anchor="start" x="972.95" y="-150.395" font-family="Times Roman,serif" font-size="14.00">index</text>
<text text-anchor="start" x="972.95" y="-132.395" font-family="Times Roman,serif" font-size="14.00">new</text>
<text text-anchor="start" x="972.95" y="-114.395" font-family="Times Roman,serif" font-size="14.00">show</text>
<text text-anchor="start" x="972.95" y="-96.3952" font-family="Times Roman,serif" font-size="14.00">update</text>
<polyline fill="none" stroke="black" points="964.95,-86.9952 1119.95,-86.9952 "/>
<polyline fill="none" stroke="black" points="964.95,-62.9952 1119.95,-62.9952 "/>
<text text-anchor="start" x="972.95" y="-46.3952" font-family="Times Roman,serif" font-size="14.00">_layout</text>
</g>
<!-- ApplicationController&#45;&gt;SituationsController -->
<g id="edge32" class="edge"><title>ApplicationController&#45;&gt;SituationsController</title>
<path fill="none" stroke="black" d="M632.558,-636.236C652.722,-617.093 676.136,-596.772 699.529,-580.649 738.585,-553.729 759.98,-565.145 795.232,-533.406 884.529,-453.008 953.84,-333.027 996.055,-247.113"/>
</g>
<!-- StudiesController -->
<g id="node19" class="node"><title>StudiesController</title>
<polyline fill="none" stroke="black" points="81.1507,-1120.19 194.151,-1120.19 "/>
<path fill="none" stroke="black" d="M194.151,-1120.19C200.151,-1120.19 206.151,-1126.19 206.151,-1132.19"/>
<polyline fill="none" stroke="black" points="206.151,-1132.19 206.151,-1318.19 "/>
<path fill="none" stroke="black" d="M206.151,-1318.19C206.151,-1324.19 200.151,-1330.19 194.151,-1330.19"/>
<polyline fill="none" stroke="black" points="194.151,-1330.19 81.1507,-1330.19 "/>
<path fill="none" stroke="black" d="M81.1507,-1330.19C75.1507,-1330.19 69.1507,-1324.19 69.1507,-1318.19"/>
<polyline fill="none" stroke="black" points="69.1507,-1318.19 69.1507,-1132.19 "/>
<path fill="none" stroke="black" d="M69.1507,-1132.19C69.1507,-1126.19 75.1507,-1120.19 81.1507,-1120.19"/>
<text text-anchor="middle" x="137.651" y="-1313.59" font-family="Times Roman,serif" font-size="14.00">StudiesController</text>
<polyline fill="none" stroke="black" points="69.1507,-1304.19 206.151,-1304.19 "/>
<text text-anchor="start" x="77.1507" y="-1287.59" font-family="Times Roman,serif" font-size="14.00">create</text>
<text text-anchor="start" x="77.1507" y="-1269.59" font-family="Times Roman,serif" font-size="14.00">destroy</text>
<text text-anchor="start" x="77.1507" y="-1251.59" font-family="Times Roman,serif" font-size="14.00">edit</text>
<text text-anchor="start" x="77.1507" y="-1233.59" font-family="Times Roman,serif" font-size="14.00">index</text>
<text text-anchor="start" x="77.1507" y="-1215.59" font-family="Times Roman,serif" font-size="14.00">new</text>
<text text-anchor="start" x="77.1507" y="-1197.59" font-family="Times Roman,serif" font-size="14.00">show</text>
<text text-anchor="start" x="77.1507" y="-1179.59" font-family="Times Roman,serif" font-size="14.00">update</text>
<polyline fill="none" stroke="black" points="69.1507,-1170.19 206.151,-1170.19 "/>
<polyline fill="none" stroke="black" points="69.1507,-1146.19 206.151,-1146.19 "/>
<text text-anchor="start" x="77.1507" y="-1129.59" font-family="Times Roman,serif" font-size="14.00">_layout</text>
</g>
<!-- ApplicationController&#45;&gt;StudiesController -->
<g id="edge34" class="edge"><title>ApplicationController&#45;&gt;StudiesController</title>
<path fill="none" stroke="black" d="M466.529,-758.355C425.31,-785.248 379.883,-819.449 345.172,-857.724 274.543,-935.604 217.89,-1041.64 181.737,-1119.79"/>
</g>
</g>
</svg>
