<?xml version="1.0" encoding="UTF-8" standalone="no"?>
<!DOCTYPE svg PUBLIC "-//W3C//DTD SVG 1.1//EN"
 "http://www.w3.org/Graphics/SVG/1.1/DTD/svg11.dtd">
<!-- Generated by graphviz version 2.36.0 (20140111.2315)
 -->
<!-- Title: controllers_diagram Pages: 1 -->
<svg width="1392pt" height="1177pt"
 viewBox="0.00 0.00 1392.00 1176.66" xmlns="http://www.w3.org/2000/svg" xmlns:xlink="http://www.w3.org/1999/xlink">
<g id="graph0" class="graph" transform="scale(1 1) rotate(0) translate(4 1172.66)">
<title>controllers_diagram</title>
<polygon fill="white" stroke="none" points="-4,4 -4,-1172.66 1388,-1172.66 1388,4 -4,4"/>
<!-- _diagram_info -->
<g id="node1" class="node"><title>_diagram_info</title>
<text text-anchor="start" x="1178" y="-63.6" font-family="Times,serif" font-size="13.00">Controllers diagram</text>
<text text-anchor="start" x="1178" y="-49.6" font-family="Times,serif" font-size="13.00">Date: Aug 04 2015 &#45; 20:47</text>
<text text-anchor="start" x="1178" y="-35.6" font-family="Times,serif" font-size="13.00">Migration version: 20150301221325</text>
<text text-anchor="start" x="1178" y="-21.6" font-family="Times,serif" font-size="13.00">Generated by RailRoady 1.1.0</text>
<text text-anchor="start" x="1178" y="-7.6" font-family="Times,serif" font-size="13.00">http://railroady.prestonlee.com</text>
</g>
<!-- ReconectarController -->
<g id="node2" class="node"><title>ReconectarController</title>
<path fill="none" stroke="black" d="M27.4739,-400.062C27.4739,-400.062 136.474,-400.062 136.474,-400.062 142.474,-400.062 148.474,-406.062 148.474,-412.062 148.474,-412.062 148.474,-496.062 148.474,-496.062 148.474,-502.062 142.474,-508.062 136.474,-508.062 136.474,-508.062 27.4739,-508.062 27.4739,-508.062 21.4739,-508.062 15.4739,-502.062 15.4739,-496.062 15.4739,-496.062 15.4739,-412.062 15.4739,-412.062 15.4739,-406.062 21.4739,-400.062 27.4739,-400.062"/>
<text text-anchor="middle" x="81.9739" y="-492.862" font-family="Times,serif" font-size="14.00">ReconectarController</text>
<polyline fill="none" stroke="black" points="15.4739,-485.062 148.474,-485.062 "/>
<text text-anchor="start" x="23.4739" y="-469.862" font-family="Times,serif" font-size="14.00">reconectar_form</text>
<text text-anchor="start" x="23.4739" y="-454.862" font-family="Times,serif" font-size="14.00">reconectar_response</text>
<polyline fill="none" stroke="black" points="15.4739,-447.062 148.474,-447.062 "/>
<polyline fill="none" stroke="black" points="15.4739,-423.062 148.474,-423.062 "/>
<text text-anchor="start" x="23.4739" y="-407.862" font-family="Times,serif" font-size="14.00">_layout</text>
</g>
<!-- TreatmentsController -->
<g id="node3" class="node"><title>TreatmentsController</title>
<path fill="none" stroke="black" d="M697.986,-482.676C697.986,-482.676 870.986,-482.676 870.986,-482.676 876.986,-482.676 882.986,-488.676 882.986,-494.676 882.986,-494.676 882.986,-668.676 882.986,-668.676 882.986,-674.676 876.986,-680.676 870.986,-680.676 870.986,-680.676 697.986,-680.676 697.986,-680.676 691.986,-680.676 685.986,-674.676 685.986,-668.676 685.986,-668.676 685.986,-494.676 685.986,-494.676 685.986,-488.676 691.986,-482.676 697.986,-482.676"/>
<text text-anchor="middle" x="784.486" y="-665.476" font-family="Times,serif" font-size="14.00">TreatmentsController</text>
<polyline fill="none" stroke="black" points="685.986,-657.676 882.986,-657.676 "/>
<text text-anchor="start" x="693.986" y="-642.476" font-family="Times,serif" font-size="14.00">_one_time_conditions_valid_38?</text>
<text text-anchor="start" x="693.986" y="-627.476" font-family="Times,serif" font-size="14.00">create</text>
<text text-anchor="start" x="693.986" y="-612.476" font-family="Times,serif" font-size="14.00">destroy</text>
<text text-anchor="start" x="693.986" y="-597.476" font-family="Times,serif" font-size="14.00">edit</text>
<text text-anchor="start" x="693.986" y="-582.476" font-family="Times,serif" font-size="14.00">index</text>
<text text-anchor="start" x="693.986" y="-567.476" font-family="Times,serif" font-size="14.00">new</text>
<text text-anchor="start" x="693.986" y="-552.476" font-family="Times,serif" font-size="14.00">show</text>
<text text-anchor="start" x="693.986" y="-537.476" font-family="Times,serif" font-size="14.00">update</text>
<polyline fill="none" stroke="black" points="685.986,-529.676 882.986,-529.676 "/>
<polyline fill="none" stroke="black" points="685.986,-505.676 882.986,-505.676 "/>
<text text-anchor="start" x="693.986" y="-490.476" font-family="Times,serif" font-size="14.00">_layout</text>
</g>
<!-- TasksController -->
<g id="node4" class="node"><title>TasksController</title>
<path fill="none" stroke="black" d="M331.682,-3.93102C331.682,-3.93102 504.682,-3.93102 504.682,-3.93102 510.682,-3.93102 516.682,-9.93102 516.682,-15.931 516.682,-15.931 516.682,-189.931 516.682,-189.931 516.682,-195.931 510.682,-201.931 504.682,-201.931 504.682,-201.931 331.682,-201.931 331.682,-201.931 325.682,-201.931 319.682,-195.931 319.682,-189.931 319.682,-189.931 319.682,-15.931 319.682,-15.931 319.682,-9.93102 325.682,-3.93102 331.682,-3.93102"/>
<text text-anchor="middle" x="418.182" y="-186.731" font-family="Times,serif" font-size="14.00">TasksController</text>
<polyline fill="none" stroke="black" points="319.682,-178.931 516.682,-178.931 "/>
<text text-anchor="start" x="327.682" y="-163.731" font-family="Times,serif" font-size="14.00">_one_time_conditions_valid_50?</text>
<text text-anchor="start" x="327.682" y="-148.731" font-family="Times,serif" font-size="14.00">create</text>
<text text-anchor="start" x="327.682" y="-133.731" font-family="Times,serif" font-size="14.00">destroy</text>
<text text-anchor="start" x="327.682" y="-118.731" font-family="Times,serif" font-size="14.00">edit</text>
<text text-anchor="start" x="327.682" y="-103.731" font-family="Times,serif" font-size="14.00">index</text>
<text text-anchor="start" x="327.682" y="-88.731" font-family="Times,serif" font-size="14.00">new</text>
<text text-anchor="start" x="327.682" y="-73.731" font-family="Times,serif" font-size="14.00">show</text>
<text text-anchor="start" x="327.682" y="-58.731" font-family="Times,serif" font-size="14.00">update</text>
<polyline fill="none" stroke="black" points="319.682,-50.931 516.682,-50.931 "/>
<polyline fill="none" stroke="black" points="319.682,-26.931 516.682,-26.931 "/>
<text text-anchor="start" x="327.682" y="-11.731" font-family="Times,serif" font-size="14.00">_layout</text>
</g>
<!-- ProvincesController -->
<g id="node5" class="node"><title>ProvincesController</title>
<path fill="none" stroke="black" d="M332.484,-970.159C332.484,-970.159 505.484,-970.159 505.484,-970.159 511.484,-970.159 517.484,-976.159 517.484,-982.159 517.484,-982.159 517.484,-1156.16 517.484,-1156.16 517.484,-1162.16 511.484,-1168.16 505.484,-1168.16 505.484,-1168.16 332.484,-1168.16 332.484,-1168.16 326.484,-1168.16 320.484,-1162.16 320.484,-1156.16 320.484,-1156.16 320.484,-982.159 320.484,-982.159 320.484,-976.159 326.484,-970.159 332.484,-970.159"/>
<text text-anchor="middle" x="418.984" y="-1152.96" font-family="Times,serif" font-size="14.00">ProvincesController</text>
<polyline fill="none" stroke="black" points="320.484,-1145.16 517.484,-1145.16 "/>
<text text-anchor="start" x="328.484" y="-1129.96" font-family="Times,serif" font-size="14.00">_one_time_conditions_valid_64?</text>
<text text-anchor="start" x="328.484" y="-1114.96" font-family="Times,serif" font-size="14.00">create</text>
<text text-anchor="start" x="328.484" y="-1099.96" font-family="Times,serif" font-size="14.00">destroy</text>
<text text-anchor="start" x="328.484" y="-1084.96" font-family="Times,serif" font-size="14.00">edit</text>
<text text-anchor="start" x="328.484" y="-1069.96" font-family="Times,serif" font-size="14.00">index</text>
<text text-anchor="start" x="328.484" y="-1054.96" font-family="Times,serif" font-size="14.00">new</text>
<text text-anchor="start" x="328.484" y="-1039.96" font-family="Times,serif" font-size="14.00">show</text>
<text text-anchor="start" x="328.484" y="-1024.96" font-family="Times,serif" font-size="14.00">update</text>
<polyline fill="none" stroke="black" points="320.484,-1017.16 517.484,-1017.16 "/>
<polyline fill="none" stroke="black" points="320.484,-993.159 517.484,-993.159 "/>
<text text-anchor="start" x="328.484" y="-977.959" font-family="Times,serif" font-size="14.00">_layout</text>
</g>
<!-- SessionsController -->
<g id="node6" class="node"><title>SessionsController</title>
<path fill="none" stroke="black" d="M665.934,-755.577C665.934,-755.577 760.934,-755.577 760.934,-755.577 766.934,-755.577 772.934,-761.577 772.934,-767.577 772.934,-767.577 772.934,-866.577 772.934,-866.577 772.934,-872.577 766.934,-878.577 760.934,-878.577 760.934,-878.577 665.934,-878.577 665.934,-878.577 659.934,-878.577 653.934,-872.577 653.934,-866.577 653.934,-866.577 653.934,-767.577 653.934,-767.577 653.934,-761.577 659.934,-755.577 665.934,-755.577"/>
<text text-anchor="middle" x="713.434" y="-863.377" font-family="Times,serif" font-size="14.00">SessionsController</text>
<polyline fill="none" stroke="black" points="653.934,-855.577 772.934,-855.577 "/>
<text text-anchor="start" x="661.934" y="-840.377" font-family="Times,serif" font-size="14.00">create</text>
<text text-anchor="start" x="661.934" y="-825.377" font-family="Times,serif" font-size="14.00">destroy</text>
<text text-anchor="start" x="661.934" y="-810.377" font-family="Times,serif" font-size="14.00">new</text>
<polyline fill="none" stroke="black" points="653.934,-802.577 772.934,-802.577 "/>
<polyline fill="none" stroke="black" points="653.934,-778.577 772.934,-778.577 "/>
<text text-anchor="start" x="661.934" y="-763.377" font-family="Times,serif" font-size="14.00">_layout</text>
</g>
<!-- InternshipsUsersController -->
<g id="node7" class="node"><title>InternshipsUsersController</title>
<path fill="none" stroke="black" d="M342.507,-730.96C342.507,-730.96 481.507,-730.96 481.507,-730.96 487.507,-730.96 493.507,-736.96 493.507,-742.96 493.507,-742.96 493.507,-901.96 493.507,-901.96 493.507,-907.96 487.507,-913.96 481.507,-913.96 481.507,-913.96 342.507,-913.96 342.507,-913.96 336.507,-913.96 330.507,-907.96 330.507,-901.96 330.507,-901.96 330.507,-742.96 330.507,-742.96 330.507,-736.96 336.507,-730.96 342.507,-730.96"/>
<text text-anchor="middle" x="412.007" y="-898.76" font-family="Times,serif" font-size="14.00">InternshipsUsersController</text>
<polyline fill="none" stroke="black" points="330.507,-890.96 493.507,-890.96 "/>
<text text-anchor="start" x="338.507" y="-875.76" font-family="Times,serif" font-size="14.00">create</text>
<text text-anchor="start" x="338.507" y="-860.76" font-family="Times,serif" font-size="14.00">destroy</text>
<text text-anchor="start" x="338.507" y="-845.76" font-family="Times,serif" font-size="14.00">edit</text>
<text text-anchor="start" x="338.507" y="-830.76" font-family="Times,serif" font-size="14.00">index</text>
<text text-anchor="start" x="338.507" y="-815.76" font-family="Times,serif" font-size="14.00">new</text>
<text text-anchor="start" x="338.507" y="-800.76" font-family="Times,serif" font-size="14.00">show</text>
<text text-anchor="start" x="338.507" y="-785.76" font-family="Times,serif" font-size="14.00">update</text>
<polyline fill="none" stroke="black" points="330.507,-777.96 493.507,-777.96 "/>
<polyline fill="none" stroke="black" points="330.507,-753.96 493.507,-753.96 "/>
<text text-anchor="start" x="338.507" y="-738.76" font-family="Times,serif" font-size="14.00">_layout</text>
</g>
<!-- ContractsController -->
<g id="node8" class="node"><title>ContractsController</title>
<path fill="none" stroke="black" d="M23.8692,-0.5C23.8692,-0.5 196.869,-0.5 196.869,-0.5 202.869,-0.5 208.869,-6.5 208.869,-12.5 208.869,-12.5 208.869,-246.5 208.869,-246.5 208.869,-252.5 202.869,-258.5 196.869,-258.5 196.869,-258.5 23.8692,-258.5 23.8692,-258.5 17.8692,-258.5 11.8692,-252.5 11.8692,-246.5 11.8692,-246.5 11.8692,-12.5 11.8692,-12.5 11.8692,-6.5 17.8692,-0.5 23.8692,-0.5"/>
<text text-anchor="middle" x="110.369" y="-243.3" font-family="Times,serif" font-size="14.00">ContractsController</text>
<polyline fill="none" stroke="black" points="11.8692,-235.5 208.869,-235.5 "/>
<text text-anchor="start" x="19.8692" y="-220.3" font-family="Times,serif" font-size="14.00">_one_time_conditions_valid_70?</text>
<text text-anchor="start" x="19.8692" y="-205.3" font-family="Times,serif" font-size="14.00">cm</text>
<text text-anchor="start" x="19.8692" y="-190.3" font-family="Times,serif" font-size="14.00">create</text>
<text text-anchor="start" x="19.8692" y="-175.3" font-family="Times,serif" font-size="14.00">destroy</text>
<text text-anchor="start" x="19.8692" y="-160.3" font-family="Times,serif" font-size="14.00">edit</text>
<text text-anchor="start" x="19.8692" y="-145.3" font-family="Times,serif" font-size="14.00">imprimirmeci</text>
<text text-anchor="start" x="19.8692" y="-130.3" font-family="Times,serif" font-size="14.00">imprimirmecm</text>
<text text-anchor="start" x="19.8692" y="-115.3" font-family="Times,serif" font-size="14.00">index</text>
<text text-anchor="start" x="19.8692" y="-100.3" font-family="Times,serif" font-size="14.00">new</text>
<text text-anchor="start" x="19.8692" y="-85.3" font-family="Times,serif" font-size="14.00">redactarme</text>
<text text-anchor="start" x="19.8692" y="-70.3" font-family="Times,serif" font-size="14.00">show</text>
<text text-anchor="start" x="19.8692" y="-55.3" font-family="Times,serif" font-size="14.00">update</text>
<polyline fill="none" stroke="black" points="11.8692,-47.5 208.869,-47.5 "/>
<polyline fill="none" stroke="black" points="11.8692,-23.5 208.869,-23.5 "/>
<text text-anchor="start" x="19.8692" y="-8.3" font-family="Times,serif" font-size="14.00">_layout</text>
</g>
<!-- SkillsController -->
<g id="node9" class="node"><title>SkillsController</title>
<path fill="none" stroke="black" d="M948.077,-353.74C948.077,-353.74 1121.08,-353.74 1121.08,-353.74 1127.08,-353.74 1133.08,-359.74 1133.08,-365.74 1133.08,-365.74 1133.08,-539.74 1133.08,-539.74 1133.08,-545.74 1127.08,-551.74 1121.08,-551.74 1121.08,-551.74 948.077,-551.74 948.077,-551.74 942.077,-551.74 936.077,-545.74 936.077,-539.74 936.077,-539.74 936.077,-365.74 936.077,-365.74 936.077,-359.74 942.077,-353.74 948.077,-353.74"/>
<text text-anchor="middle" x="1034.58" y="-536.54" font-family="Times,serif" font-size="14.00">SkillsController</text>
<polyline fill="none" stroke="black" points="936.077,-528.74 1133.08,-528.74 "/>
<text text-anchor="start" x="944.077" y="-513.54" font-family="Times,serif" font-size="14.00">_one_time_conditions_valid_72?</text>
<text text-anchor="start" x="944.077" y="-498.54" font-family="Times,serif" font-size="14.00">create</text>
<text text-anchor="start" x="944.077" y="-483.54" font-family="Times,serif" font-size="14.00">destroy</text>
<text text-anchor="start" x="944.077" y="-468.54" font-family="Times,serif" font-size="14.00">edit</text>
<text text-anchor="start" x="944.077" y="-453.54" font-family="Times,serif" font-size="14.00">index</text>
<text text-anchor="start" x="944.077" y="-438.54" font-family="Times,serif" font-size="14.00">new</text>
<text text-anchor="start" x="944.077" y="-423.54" font-family="Times,serif" font-size="14.00">show</text>
<text text-anchor="start" x="944.077" y="-408.54" font-family="Times,serif" font-size="14.00">update</text>
<polyline fill="none" stroke="black" points="936.077,-400.74 1133.08,-400.74 "/>
<polyline fill="none" stroke="black" points="936.077,-376.74 1133.08,-376.74 "/>
<text text-anchor="start" x="944.077" y="-361.54" font-family="Times,serif" font-size="14.00">_layout</text>
</g>
<!-- InternshipsTasksController -->
<g id="node10" class="node"><title>InternshipsTasksController</title>
<path fill="none" stroke="black" d="M255.973,-260.534C255.973,-260.534 395.973,-260.534 395.973,-260.534 401.973,-260.534 407.973,-266.534 407.973,-272.534 407.973,-272.534 407.973,-431.534 407.973,-431.534 407.973,-437.534 401.973,-443.534 395.973,-443.534 395.973,-443.534 255.973,-443.534 255.973,-443.534 249.973,-443.534 243.973,-437.534 243.973,-431.534 243.973,-431.534 243.973,-272.534 243.973,-272.534 243.973,-266.534 249.973,-260.534 255.973,-260.534"/>
<text text-anchor="middle" x="325.973" y="-428.334" font-family="Times,serif" font-size="14.00">InternshipsTasksController</text>
<polyline fill="none" stroke="black" points="243.973,-420.534 407.973,-420.534 "/>
<text text-anchor="start" x="251.973" y="-405.334" font-family="Times,serif" font-size="14.00">create</text>
<text text-anchor="start" x="251.973" y="-390.334" font-family="Times,serif" font-size="14.00">destroy</text>
<text text-anchor="start" x="251.973" y="-375.334" font-family="Times,serif" font-size="14.00">edit</text>
<text text-anchor="start" x="251.973" y="-360.334" font-family="Times,serif" font-size="14.00">index</text>
<text text-anchor="start" x="251.973" y="-345.334" font-family="Times,serif" font-size="14.00">new</text>
<text text-anchor="start" x="251.973" y="-330.334" font-family="Times,serif" font-size="14.00">show</text>
<text text-anchor="start" x="251.973" y="-315.334" font-family="Times,serif" font-size="14.00">update</text>
<polyline fill="none" stroke="black" points="243.973,-307.534 407.973,-307.534 "/>
<polyline fill="none" stroke="black" points="243.973,-283.534 407.973,-283.534 "/>
<text text-anchor="start" x="251.973" y="-268.334" font-family="Times,serif" font-size="14.00">_layout</text>
</g>
<!-- UsersController -->
<g id="node11" class="node"><title>UsersController</title>
<path fill="none" stroke="black" d="M605.08,-2.22018C605.08,-2.22018 785.08,-2.22018 785.08,-2.22018 791.08,-2.22018 797.08,-8.22018 797.08,-14.2202 797.08,-14.2202 797.08,-188.22 797.08,-188.22 797.08,-194.22 791.08,-200.22 785.08,-200.22 785.08,-200.22 605.08,-200.22 605.08,-200.22 599.08,-200.22 593.08,-194.22 593.08,-188.22 593.08,-188.22 593.08,-14.2202 593.08,-14.2202 593.08,-8.22018 599.08,-2.22018 605.08,-2.22018"/>
<text text-anchor="middle" x="695.08" y="-185.02" font-family="Times,serif" font-size="14.00">UsersController</text>
<polyline fill="none" stroke="black" points="593.08,-177.22 797.08,-177.22 "/>
<text text-anchor="start" x="601.08" y="-162.02" font-family="Times,serif" font-size="14.00">_one_time_conditions_valid_152?</text>
<text text-anchor="start" x="601.08" y="-147.02" font-family="Times,serif" font-size="14.00">create</text>
<text text-anchor="start" x="601.08" y="-132.02" font-family="Times,serif" font-size="14.00">destroy</text>
<text text-anchor="start" x="601.08" y="-117.02" font-family="Times,serif" font-size="14.00">edit</text>
<text text-anchor="start" x="601.08" y="-102.02" font-family="Times,serif" font-size="14.00">index</text>
<text text-anchor="start" x="601.08" y="-87.0202" font-family="Times,serif" font-size="14.00">new</text>
<text text-anchor="start" x="601.08" y="-72.0202" font-family="Times,serif" font-size="14.00">show</text>
<text text-anchor="start" x="601.08" y="-57.0202" font-family="Times,serif" font-size="14.00">update</text>
<polyline fill="none" stroke="black" points="593.08,-49.2202 797.08,-49.2202 "/>
<polyline fill="none" stroke="black" points="593.08,-25.2202 797.08,-25.2202 "/>
<text text-anchor="start" x="601.08" y="-10.0202" font-family="Times,serif" font-size="14.00">_layout</text>
</g>
<!-- CompaniesController -->
<g id="node12" class="node"><title>CompaniesController</title>
<path fill="none" stroke="black" d="M470.447,-274.435C470.447,-274.435 650.447,-274.435 650.447,-274.435 656.447,-274.435 662.447,-280.435 662.447,-286.435 662.447,-286.435 662.447,-460.435 662.447,-460.435 662.447,-466.435 656.447,-472.435 650.447,-472.435 650.447,-472.435 470.447,-472.435 470.447,-472.435 464.447,-472.435 458.447,-466.435 458.447,-460.435 458.447,-460.435 458.447,-286.435 458.447,-286.435 458.447,-280.435 464.447,-274.435 470.447,-274.435"/>
<text text-anchor="middle" x="560.447" y="-457.235" font-family="Times,serif" font-size="14.00">CompaniesController</text>
<polyline fill="none" stroke="black" points="458.447,-449.435 662.447,-449.435 "/>
<text text-anchor="start" x="466.447" y="-434.235" font-family="Times,serif" font-size="14.00">_one_time_conditions_valid_186?</text>
<text text-anchor="start" x="466.447" y="-419.235" font-family="Times,serif" font-size="14.00">create</text>
<text text-anchor="start" x="466.447" y="-404.235" font-family="Times,serif" font-size="14.00">destroy</text>
<text text-anchor="start" x="466.447" y="-389.235" font-family="Times,serif" font-size="14.00">edit</text>
<text text-anchor="start" x="466.447" y="-374.235" font-family="Times,serif" font-size="14.00">index</text>
<text text-anchor="start" x="466.447" y="-359.235" font-family="Times,serif" font-size="14.00">new</text>
<text text-anchor="start" x="466.447" y="-344.235" font-family="Times,serif" font-size="14.00">show</text>
<text text-anchor="start" x="466.447" y="-329.235" font-family="Times,serif" font-size="14.00">update</text>
<polyline fill="none" stroke="black" points="458.447,-321.435 662.447,-321.435 "/>
<polyline fill="none" stroke="black" points="458.447,-297.435 662.447,-297.435 "/>
<text text-anchor="start" x="466.447" y="-282.235" font-family="Times,serif" font-size="14.00">_layout</text>
</g>
<!-- ApplicationController -->
<g id="node13" class="node"><title>ApplicationController</title>
<path fill="none" stroke="black" d="M471.986,-570.166C471.986,-570.166 638.986,-570.166 638.986,-570.166 644.986,-570.166 650.986,-576.166 650.986,-582.166 650.986,-582.166 650.986,-650.166 650.986,-650.166 650.986,-656.166 644.986,-662.166 638.986,-662.166 638.986,-662.166 471.986,-662.166 471.986,-662.166 465.986,-662.166 459.986,-656.166 459.986,-650.166 459.986,-650.166 459.986,-582.166 459.986,-582.166 459.986,-576.166 465.986,-570.166 471.986,-570.166"/>
<text text-anchor="middle" x="555.486" y="-646.966" font-family="Times,serif" font-size="14.00">ApplicationController</text>
<polyline fill="none" stroke="black" points="459.986,-639.166 650.986,-639.166 "/>
<text text-anchor="start" x="467.986" y="-623.966" font-family="Times,serif" font-size="14.00">_one_time_conditions_valid_8?</text>
<polyline fill="none" stroke="black" points="459.986,-616.166 650.986,-616.166 "/>
<text text-anchor="start" x="467.986" y="-600.966" font-family="Times,serif" font-size="14.00">authorize</text>
<polyline fill="none" stroke="black" points="459.986,-593.166 650.986,-593.166 "/>
<text text-anchor="start" x="467.986" y="-577.966" font-family="Times,serif" font-size="14.00">_layout</text>
</g>
<!-- ApplicationController&#45;&gt;ReconectarController -->
<g id="edge1" class="edge"><title>ApplicationController&#45;&gt;ReconectarController</title>
<path fill="none" stroke="black" d="M524.302,-569.877C502.221,-541.151 469.912,-506.352 432.292,-488.142 383.822,-464.68 236.042,-457.37 148.672,-455.093"/>
</g>
<!-- ApplicationController&#45;&gt;TreatmentsController -->
<g id="edge2" class="edge"><title>ApplicationController&#45;&gt;TreatmentsController</title>
<path fill="none" stroke="black" d="M651.276,-601.739C662.674,-600.022 674.326,-598.267 685.765,-596.545"/>
</g>
<!-- ApplicationController&#45;&gt;TasksController -->
<g id="edge3" class="edge"><title>ApplicationController&#45;&gt;TasksController</title>
<path fill="none" stroke="black" d="M513.185,-570.041C492.049,-544.206 468.263,-510.282 455.247,-475.635 422.032,-387.22 414.576,-279.153 414.341,-202.198"/>
</g>
<!-- ApplicationController&#45;&gt;ProvincesController -->
<g id="edge4" class="edge"><title>ApplicationController&#45;&gt;ProvincesController</title>
<path fill="none" stroke="black" d="M550.54,-662.336C543.202,-722.324 526.927,-829.725 496.707,-917.16 490.656,-934.668 482.927,-952.687 474.7,-969.924"/>
</g>
<!-- ApplicationController&#45;&gt;SessionsController -->
<g id="edge5" class="edge"><title>ApplicationController&#45;&gt;SessionsController</title>
<path fill="none" stroke="black" d="M591.722,-662.259C613.399,-689.832 641.222,-725.224 664.794,-755.207"/>
</g>
<!-- ApplicationController&#45;&gt;InternshipsUsersController -->
<g id="edge6" class="edge"><title>ApplicationController&#45;&gt;InternshipsUsersController</title>
<path fill="none" stroke="black" d="M523.465,-662.206C509.342,-682.512 492.22,-707.13 475.678,-730.914"/>
</g>
<!-- ApplicationController&#45;&gt;ContractsController -->
<g id="edge7" class="edge"><title>ApplicationController&#45;&gt;ContractsController</title>
<path fill="none" stroke="black" d="M522.561,-570.056C500.212,-542.154 468.255,-508.2 432.292,-488.142 356.236,-445.721 307.556,-502.627 240.773,-446.734 184.378,-399.535 152.046,-324.045 133.685,-258.546"/>
</g>
<!-- ApplicationController&#45;&gt;SkillsController -->
<g id="edge8" class="edge"><title>ApplicationController&#45;&gt;SkillsController</title>
<path fill="none" stroke="black" d="M584.769,-569.863C607.393,-538.472 641.728,-499.228 682.786,-479.476 725.977,-458.698 847.832,-453.332 936.031,-452.3"/>
</g>
<!-- ApplicationController&#45;&gt;InternshipsTasksController -->
<g id="edge9" class="edge"><title>ApplicationController&#45;&gt;InternshipsTasksController</title>
<path fill="none" stroke="black" d="M515.508,-570.158C485.262,-535.35 442.741,-486.415 405.637,-443.714"/>
</g>
<!-- ApplicationController&#45;&gt;UsersController -->
<g id="edge10" class="edge"><title>ApplicationController&#45;&gt;UsersController</title>
<path fill="none" stroke="black" d="M603.147,-569.928C626.25,-544.442 651.912,-510.874 665.647,-475.635 675.4,-450.613 684.79,-302.729 690.245,-200.482"/>
</g>
<!-- ApplicationController&#45;&gt;CompaniesController -->
<g id="edge11" class="edge"><title>ApplicationController&#45;&gt;CompaniesController</title>
<path fill="none" stroke="black" d="M556.431,-569.939C556.994,-542.36 557.732,-506.247 558.422,-472.513"/>
</g>
<!-- LandingController -->
<g id="node14" class="node"><title>LandingController</title>
<path fill="none" stroke="black" d="M968.298,-696.985C968.298,-696.985 1061.3,-696.985 1061.3,-696.985 1067.3,-696.985 1073.3,-702.985 1073.3,-708.985 1073.3,-708.985 1073.3,-777.985 1073.3,-777.985 1073.3,-783.985 1067.3,-789.985 1061.3,-789.985 1061.3,-789.985 968.298,-789.985 968.298,-789.985 962.298,-789.985 956.298,-783.985 956.298,-777.985 956.298,-777.985 956.298,-708.985 956.298,-708.985 956.298,-702.985 962.298,-696.985 968.298,-696.985"/>
<text text-anchor="middle" x="1014.8" y="-774.785" font-family="Times,serif" font-size="14.00">LandingController</text>
<polyline fill="none" stroke="black" points="956.298,-766.985 1073.3,-766.985 "/>
<text text-anchor="start" x="964.298" y="-751.785" font-family="Times,serif" font-size="14.00">bienvenida</text>
<polyline fill="none" stroke="black" points="956.298,-743.985 1073.3,-743.985 "/>
<polyline fill="none" stroke="black" points="956.298,-719.985 1073.3,-719.985 "/>
<text text-anchor="start" x="964.298" y="-704.785" font-family="Times,serif" font-size="14.00">_layout</text>
</g>
<!-- ApplicationController&#45;&gt;LandingController -->
<g id="edge12" class="edge"><title>ApplicationController&#45;&gt;LandingController</title>
<path fill="none" stroke="black" d="M632.871,-662.206C648.963,-670.375 666.109,-678.103 682.786,-683.876 775.344,-715.915 888.673,-731.533 956.127,-738.512"/>
</g>
<!-- InternshipsController -->
<g id="node15" class="node"><title>InternshipsController</title>
<path fill="none" stroke="black" d="M908.137,-934.969C908.137,-934.969 1088.14,-934.969 1088.14,-934.969 1094.14,-934.969 1100.14,-940.969 1100.14,-946.969 1100.14,-946.969 1100.14,-1135.97 1100.14,-1135.97 1100.14,-1141.97 1094.14,-1147.97 1088.14,-1147.97 1088.14,-1147.97 908.137,-1147.97 908.137,-1147.97 902.137,-1147.97 896.137,-1141.97 896.137,-1135.97 896.137,-1135.97 896.137,-946.969 896.137,-946.969 896.137,-940.969 902.137,-934.969 908.137,-934.969"/>
<text text-anchor="middle" x="998.137" y="-1132.77" font-family="Times,serif" font-size="14.00">InternshipsController</text>
<polyline fill="none" stroke="black" points="896.137,-1124.97 1100.14,-1124.97 "/>
<text text-anchor="start" x="904.137" y="-1109.77" font-family="Times,serif" font-size="14.00">_one_time_conditions_valid_228?</text>
<text text-anchor="start" x="904.137" y="-1094.77" font-family="Times,serif" font-size="14.00">create</text>
<text text-anchor="start" x="904.137" y="-1079.77" font-family="Times,serif" font-size="14.00">destroy</text>
<text text-anchor="start" x="904.137" y="-1064.77" font-family="Times,serif" font-size="14.00">edit</text>
<text text-anchor="start" x="904.137" y="-1049.77" font-family="Times,serif" font-size="14.00">index</text>
<text text-anchor="start" x="904.137" y="-1034.77" font-family="Times,serif" font-size="14.00">new</text>
<text text-anchor="start" x="904.137" y="-1019.77" font-family="Times,serif" font-size="14.00">postularme</text>
<text text-anchor="start" x="904.137" y="-1004.77" font-family="Times,serif" font-size="14.00">show</text>
<text text-anchor="start" x="904.137" y="-989.769" font-family="Times,serif" font-size="14.00">update</text>
<polyline fill="none" stroke="black" points="896.137,-981.969 1100.14,-981.969 "/>
<polyline fill="none" stroke="black" points="896.137,-957.969 1100.14,-957.969 "/>
<text text-anchor="start" x="904.137" y="-942.769" font-family="Times,serif" font-size="14.00">_layout</text>
</g>
<!-- ApplicationController&#45;&gt;InternshipsController -->
<g id="edge13" class="edge"><title>ApplicationController&#45;&gt;InternshipsController</title>
<path fill="none" stroke="black" d="M646.234,-662.266C688.228,-685.995 737.293,-717.303 776.134,-752.377 835.311,-805.816 890.015,-876.683 930.315,-934.877"/>
</g>
<!-- LocalitiesController -->
<g id="node16" class="node"><title>LocalitiesController</title>
<path fill="none" stroke="black" d="M602.789,-966.917C602.789,-966.917 782.789,-966.917 782.789,-966.917 788.789,-966.917 794.789,-972.917 794.789,-978.917 794.789,-978.917 794.789,-1152.92 794.789,-1152.92 794.789,-1158.92 788.789,-1164.92 782.789,-1164.92 782.789,-1164.92 602.789,-1164.92 602.789,-1164.92 596.789,-1164.92 590.789,-1158.92 590.789,-1152.92 590.789,-1152.92 590.789,-978.917 590.789,-978.917 590.789,-972.917 596.789,-966.917 602.789,-966.917"/>
<text text-anchor="middle" x="692.789" y="-1149.72" font-family="Times,serif" font-size="14.00">LocalitiesController</text>
<polyline fill="none" stroke="black" points="590.789,-1141.92 794.789,-1141.92 "/>
<text text-anchor="start" x="598.789" y="-1126.72" font-family="Times,serif" font-size="14.00">_one_time_conditions_valid_248?</text>
<text text-anchor="start" x="598.789" y="-1111.72" font-family="Times,serif" font-size="14.00">create</text>
<text text-anchor="start" x="598.789" y="-1096.72" font-family="Times,serif" font-size="14.00">destroy</text>
<text text-anchor="start" x="598.789" y="-1081.72" font-family="Times,serif" font-size="14.00">edit</text>
<text text-anchor="start" x="598.789" y="-1066.72" font-family="Times,serif" font-size="14.00">index</text>
<text text-anchor="start" x="598.789" y="-1051.72" font-family="Times,serif" font-size="14.00">new</text>
<text text-anchor="start" x="598.789" y="-1036.72" font-family="Times,serif" font-size="14.00">show</text>
<text text-anchor="start" x="598.789" y="-1021.72" font-family="Times,serif" font-size="14.00">update</text>
<polyline fill="none" stroke="black" points="590.789,-1013.92 794.789,-1013.92 "/>
<polyline fill="none" stroke="black" points="590.789,-989.917 794.789,-989.917 "/>
<text text-anchor="start" x="598.789" y="-974.717" font-family="Times,serif" font-size="14.00">_layout</text>
</g>
<!-- ApplicationController&#45;&gt;LocalitiesController -->
<g id="edge14" class="edge"><title>ApplicationController&#45;&gt;LocalitiesController</title>
<path fill="none" stroke="black" d="M569.534,-662.184C591.269,-733.378 633.551,-871.879 662.473,-966.615"/>
</g>
<!-- StudiesController -->
<g id="node17" class="node"><title>StudiesController</title>
<path fill="none" stroke="black" d="M705.008,-245.289C705.008,-245.289 885.008,-245.289 885.008,-245.289 891.008,-245.289 897.008,-251.289 897.008,-257.289 897.008,-257.289 897.008,-431.289 897.008,-431.289 897.008,-437.289 891.008,-443.289 885.008,-443.289 885.008,-443.289 705.008,-443.289 705.008,-443.289 699.008,-443.289 693.008,-437.289 693.008,-431.289 693.008,-431.289 693.008,-257.289 693.008,-257.289 693.008,-251.289 699.008,-245.289 705.008,-245.289"/>
<text text-anchor="middle" x="795.008" y="-428.089" font-family="Times,serif" font-size="14.00">StudiesController</text>
<polyline fill="none" stroke="black" points="693.008,-420.289 897.008,-420.289 "/>
<text text-anchor="start" x="701.008" y="-405.089" font-family="Times,serif" font-size="14.00">_one_time_conditions_valid_252?</text>
<text text-anchor="start" x="701.008" y="-390.089" font-family="Times,serif" font-size="14.00">create</text>
<text text-anchor="start" x="701.008" y="-375.089" font-family="Times,serif" font-size="14.00">destroy</text>
<text text-anchor="start" x="701.008" y="-360.089" font-family="Times,serif" font-size="14.00">edit</text>
<text text-anchor="start" x="701.008" y="-345.089" font-family="Times,serif" font-size="14.00">index</text>
<text text-anchor="start" x="701.008" y="-330.089" font-family="Times,serif" font-size="14.00">new</text>
<text text-anchor="start" x="701.008" y="-315.089" font-family="Times,serif" font-size="14.00">show</text>
<text text-anchor="start" x="701.008" y="-300.089" font-family="Times,serif" font-size="14.00">update</text>
<polyline fill="none" stroke="black" points="693.008,-292.289 897.008,-292.289 "/>
<polyline fill="none" stroke="black" points="693.008,-268.289 897.008,-268.289 "/>
<text text-anchor="start" x="701.008" y="-253.089" font-family="Times,serif" font-size="14.00">_layout</text>
</g>
<!-- ApplicationController&#45;&gt;StudiesController -->
<g id="edge15" class="edge"><title>ApplicationController&#45;&gt;StudiesController</title>
<path fill="none" stroke="black" d="M596.117,-570.046C626.615,-535.428 669.505,-486.745 707.652,-443.445"/>
</g>
<!-- AdminController -->
<g id="node18" class="node"><title>AdminController</title>
<path fill="none" stroke="black" d="M963.236,-81.2997C963.236,-81.2997 1049.24,-81.2997 1049.24,-81.2997 1055.24,-81.2997 1061.24,-87.2997 1061.24,-93.2997 1061.24,-93.2997 1061.24,-162.3 1061.24,-162.3 1061.24,-168.3 1055.24,-174.3 1049.24,-174.3 1049.24,-174.3 963.236,-174.3 963.236,-174.3 957.236,-174.3 951.236,-168.3 951.236,-162.3 951.236,-162.3 951.236,-93.2997 951.236,-93.2997 951.236,-87.2997 957.236,-81.2997 963.236,-81.2997"/>
<text text-anchor="middle" x="1006.24" y="-159.1" font-family="Times,serif" font-size="14.00">AdminController</text>
<polyline fill="none" stroke="black" points="951.236,-151.3 1061.24,-151.3 "/>
<text text-anchor="start" x="959.236" y="-136.1" font-family="Times,serif" font-size="14.00">index</text>
<polyline fill="none" stroke="black" points="951.236,-128.3 1061.24,-128.3 "/>
<polyline fill="none" stroke="black" points="951.236,-104.3 1061.24,-104.3 "/>
<text text-anchor="start" x="959.236" y="-89.0997" font-family="Times,serif" font-size="14.00">_layout</text>
</g>
<!-- ApplicationController&#45;&gt;AdminController -->
<g id="edge16" class="edge"><title>ApplicationController&#45;&gt;AdminController</title>
<path fill="none" stroke="black" d="M585.727,-570.129C608.575,-539.288 642.781,-500.597 682.786,-479.476 769.217,-433.844 825.46,-509.461 900.208,-446.489 901.56,-445.351 961.753,-262.921 990.829,-174.623"/>
</g>
<!-- JobsController -->
<g id="node19" class="node"><title>JobsController</title>
<path fill="none" stroke="black" d="M12,-647.977C12,-647.977 192,-647.977 192,-647.977 198,-647.977 204,-653.977 204,-659.977 204,-659.977 204,-833.977 204,-833.977 204,-839.977 198,-845.977 192,-845.977 192,-845.977 12,-845.977 12,-845.977 6,-845.977 -5.68434e-14,-839.977 -5.68434e-14,-833.977 -5.68434e-14,-833.977 -5.68434e-14,-659.977 -5.68434e-14,-659.977 -5.68434e-14,-653.977 6,-647.977 12,-647.977"/>
<text text-anchor="middle" x="102" y="-830.777" font-family="Times,serif" font-size="14.00">JobsController</text>
<polyline fill="none" stroke="black" points="-5.68434e-14,-822.977 204,-822.977 "/>
<text text-anchor="start" x="8" y="-807.777" font-family="Times,serif" font-size="14.00">_one_time_conditions_valid_256?</text>
<text text-anchor="start" x="8" y="-792.777" font-family="Times,serif" font-size="14.00">create</text>
<text text-anchor="start" x="8" y="-777.777" font-family="Times,serif" font-size="14.00">destroy</text>
<text text-anchor="start" x="8" y="-762.777" font-family="Times,serif" font-size="14.00">edit</text>
<text text-anchor="start" x="8" y="-747.777" font-family="Times,serif" font-size="14.00">index</text>
<text text-anchor="start" x="8" y="-732.777" font-family="Times,serif" font-size="14.00">new</text>
<text text-anchor="start" x="8" y="-717.777" font-family="Times,serif" font-size="14.00">show</text>
<text text-anchor="start" x="8" y="-702.777" font-family="Times,serif" font-size="14.00">update</text>
<polyline fill="none" stroke="black" points="-5.68434e-14,-694.977 204,-694.977 "/>
<polyline fill="none" stroke="black" points="-5.68434e-14,-670.977 204,-670.977 "/>
<text text-anchor="start" x="8" y="-655.777" font-family="Times,serif" font-size="14.00">_layout</text>
</g>
<!-- ApplicationController&#45;&gt;JobsController -->
<g id="edge17" class="edge"><title>ApplicationController&#45;&gt;JobsController</title>
<path fill="none" stroke="black" d="M491.783,-662.213C473.343,-673.69 452.67,-684.891 432.292,-692.542 358.705,-720.169 270.682,-733.798 204.015,-740.509"/>
</g>
<!-- SituationsController -->
<g id="node20" class="node"><title>SituationsController</title>
<path fill="none" stroke="black" d="M237.092,-491.342C237.092,-491.342 417.092,-491.342 417.092,-491.342 423.092,-491.342 429.092,-497.342 429.092,-503.342 429.092,-503.342 429.092,-677.342 429.092,-677.342 429.092,-683.342 423.092,-689.342 417.092,-689.342 417.092,-689.342 237.092,-689.342 237.092,-689.342 231.092,-689.342 225.092,-683.342 225.092,-677.342 225.092,-677.342 225.092,-503.342 225.092,-503.342 225.092,-497.342 231.092,-491.342 237.092,-491.342"/>
<text text-anchor="middle" x="327.092" y="-674.142" font-family="Times,serif" font-size="14.00">SituationsController</text>
<polyline fill="none" stroke="black" points="225.092,-666.342 429.092,-666.342 "/>
<text text-anchor="start" x="233.092" y="-651.142" font-family="Times,serif" font-size="14.00">_one_time_conditions_valid_270?</text>
<text text-anchor="start" x="233.092" y="-636.142" font-family="Times,serif" font-size="14.00">create</text>
<text text-anchor="start" x="233.092" y="-621.142" font-family="Times,serif" font-size="14.00">destroy</text>
<text text-anchor="start" x="233.092" y="-606.142" font-family="Times,serif" font-size="14.00">edit</text>
<text text-anchor="start" x="233.092" y="-591.142" font-family="Times,serif" font-size="14.00">index</text>
<text text-anchor="start" x="233.092" y="-576.142" font-family="Times,serif" font-size="14.00">new</text>
<text text-anchor="start" x="233.092" y="-561.142" font-family="Times,serif" font-size="14.00">show</text>
<text text-anchor="start" x="233.092" y="-546.142" font-family="Times,serif" font-size="14.00">update</text>
<polyline fill="none" stroke="black" points="225.092,-538.342 429.092,-538.342 "/>
<polyline fill="none" stroke="black" points="225.092,-514.342 429.092,-514.342 "/>
<text text-anchor="start" x="233.092" y="-499.142" font-family="Times,serif" font-size="14.00">_layout</text>
</g>
<!-- ApplicationController&#45;&gt;SituationsController -->
<g id="edge18" class="edge"><title>ApplicationController&#45;&gt;SituationsController</title>
<path fill="none" stroke="black" d="M459.95,-605.364C449.804,-604.217 439.456,-603.047 429.238,-601.891"/>
</g>
<!-- TypesController -->
<g id="node21" class="node"><title>TypesController</title>
<path fill="none" stroke="black" d="M27.3939,-942.794C27.3939,-942.794 207.394,-942.794 207.394,-942.794 213.394,-942.794 219.394,-948.794 219.394,-954.794 219.394,-954.794 219.394,-1128.79 219.394,-1128.79 219.394,-1134.79 213.394,-1140.79 207.394,-1140.79 207.394,-1140.79 27.3939,-1140.79 27.3939,-1140.79 21.3939,-1140.79 15.3939,-1134.79 15.3939,-1128.79 15.3939,-1128.79 15.3939,-954.794 15.3939,-954.794 15.3939,-948.794 21.3939,-942.794 27.3939,-942.794"/>
<text text-anchor="middle" x="117.394" y="-1125.59" font-family="Times,serif" font-size="14.00">TypesController</text>
<polyline fill="none" stroke="black" points="15.3939,-1117.79 219.394,-1117.79 "/>
<text text-anchor="start" x="23.3939" y="-1102.59" font-family="Times,serif" font-size="14.00">_one_time_conditions_valid_284?</text>
<text text-anchor="start" x="23.3939" y="-1087.59" font-family="Times,serif" font-size="14.00">create</text>
<text text-anchor="start" x="23.3939" y="-1072.59" font-family="Times,serif" font-size="14.00">destroy</text>
<text text-anchor="start" x="23.3939" y="-1057.59" font-family="Times,serif" font-size="14.00">edit</text>
<text text-anchor="start" x="23.3939" y="-1042.59" font-family="Times,serif" font-size="14.00">index</text>
<text text-anchor="start" x="23.3939" y="-1027.59" font-family="Times,serif" font-size="14.00">new</text>
<text text-anchor="start" x="23.3939" y="-1012.59" font-family="Times,serif" font-size="14.00">show</text>
<text text-anchor="start" x="23.3939" y="-997.594" font-family="Times,serif" font-size="14.00">update</text>
<polyline fill="none" stroke="black" points="15.3939,-989.794 219.394,-989.794 "/>
<polyline fill="none" stroke="black" points="15.3939,-965.794 219.394,-965.794 "/>
<text text-anchor="start" x="23.3939" y="-950.594" font-family="Times,serif" font-size="14.00">_layout</text>
</g>
<!-- ApplicationController&#45;&gt;TypesController -->
<g id="edge19" class="edge"><title>ApplicationController&#45;&gt;TypesController</title>
<path fill="none" stroke="black" d="M487.349,-662.288C469.847,-673.043 450.74,-683.872 432.292,-692.542 387.75,-713.474 366.409,-697.873 327.307,-727.76 253.844,-783.911 197.625,-873.474 161.942,-942.609"/>
</g>
</g>
</svg>
