<?xml version="1.0" encoding="UTF-8" standalone="no"?>
<!DOCTYPE svg PUBLIC "-//W3C//DTD SVG 1.1//EN"
 "http://www.w3.org/Graphics/SVG/1.1/DTD/svg11.dtd">
<!-- Generated by graphviz version 2.26.3 (20100126.1600)
 -->
<!-- Title: controllers_diagram Pages: 1 -->
<svg width="1534pt" height="1356pt"
 viewBox="0.00 0.00 1534.00 1355.83" xmlns="http://www.w3.org/2000/svg" xmlns:xlink="http://www.w3.org/1999/xlink">
<g id="graph1" class="graph" transform="scale(1 1) rotate(0) translate(4 1351.83)">
<title>controllers_diagram</title>
<polygon fill="white" stroke="white" points="-4,5 -4,-1351.83 1531,-1351.83 1531,5 -4,5"/>
<!-- _diagram_info -->
<g id="node1" class="node"><title>_diagram_info</title>
<text text-anchor="start" x="1283" y="-78.3" font-family="Times Roman,serif" font-size="13.00">Controllers diagram</text>
<text text-anchor="start" x="1283" y="-61.3" font-family="Times Roman,serif" font-size="13.00">Date: Sep 08 2013 &#45; 18:47</text>
<text text-anchor="start" x="1283" y="-44.3" font-family="Times Roman,serif" font-size="13.00">Migration version: 20130908214222</text>
<text text-anchor="start" x="1283" y="-27.3" font-family="Times Roman,serif" font-size="13.00">Generated by RailRoady 1.1.0</text>
<text text-anchor="start" x="1283" y="-10.3" font-family="Times Roman,serif" font-size="13.00">http://railroady.prestonlee.com</text>
</g>
<!-- TreatmentsController -->
<g id="node2" class="node"><title>TreatmentsController</title>
<polyline fill="none" stroke="black" points="13,-343.65 153,-343.65 "/>
<path fill="none" stroke="black" d="M153,-343.65C159,-343.65 165,-349.65 165,-355.65"/>
<polyline fill="none" stroke="black" points="165,-355.65 165,-541.65 "/>
<path fill="none" stroke="black" d="M165,-541.65C165,-547.65 159,-553.65 153,-553.65"/>
<polyline fill="none" stroke="black" points="153,-553.65 13,-553.65 "/>
<path fill="none" stroke="black" d="M13,-553.65C7,-553.65 1,-547.65 1,-541.65"/>
<polyline fill="none" stroke="black" points="1,-541.65 1,-355.65 "/>
<path fill="none" stroke="black" d="M1,-355.65C1,-349.65 7,-343.65 13,-343.65"/>
<text text-anchor="middle" x="83" y="-537.05" font-family="Times Roman,serif" font-size="14.00">TreatmentsController</text>
<polyline fill="none" stroke="black" points="1,-527.65 165,-527.65 "/>
<text text-anchor="start" x="9" y="-511.05" font-family="Times Roman,serif" font-size="14.00">create</text>
<text text-anchor="start" x="9" y="-493.05" font-family="Times Roman,serif" font-size="14.00">destroy</text>
<text text-anchor="start" x="9" y="-475.05" font-family="Times Roman,serif" font-size="14.00">edit</text>
<text text-anchor="start" x="9" y="-457.05" font-family="Times Roman,serif" font-size="14.00">index</text>
<text text-anchor="start" x="9" y="-439.05" font-family="Times Roman,serif" font-size="14.00">new</text>
<text text-anchor="start" x="9" y="-421.05" font-family="Times Roman,serif" font-size="14.00">show</text>
<text text-anchor="start" x="9" y="-403.05" font-family="Times Roman,serif" font-size="14.00">update</text>
<polyline fill="none" stroke="black" points="1,-393.65 165,-393.65 "/>
<polyline fill="none" stroke="black" points="1,-369.65 165,-369.65 "/>
<text text-anchor="start" x="9" y="-353.05" font-family="Times Roman,serif" font-size="14.00">_layout</text>
</g>
<!-- CompaniesController -->
<g id="node3" class="node"><title>CompaniesController</title>
<polyline fill="none" stroke="black" points="700.464,-553.697 914.464,-553.697 "/>
<path fill="none" stroke="black" d="M914.464,-553.697C920.464,-553.697 926.464,-559.697 926.464,-565.697"/>
<polyline fill="none" stroke="black" points="926.464,-565.697 926.464,-769.697 "/>
<path fill="none" stroke="black" d="M926.464,-769.697C926.464,-775.697 920.464,-781.697 914.464,-781.697"/>
<polyline fill="none" stroke="black" points="914.464,-781.697 700.464,-781.697 "/>
<path fill="none" stroke="black" d="M700.464,-781.697C694.464,-781.697 688.464,-775.697 688.464,-769.697"/>
<polyline fill="none" stroke="black" points="688.464,-769.697 688.464,-565.697 "/>
<path fill="none" stroke="black" d="M688.464,-565.697C688.464,-559.697 694.464,-553.697 700.464,-553.697"/>
<text text-anchor="middle" x="807.464" y="-765.097" font-family="Times Roman,serif" font-size="14.00">CompaniesController</text>
<polyline fill="none" stroke="black" points="688.464,-755.697 926.464,-755.697 "/>
<text text-anchor="start" x="696.464" y="-739.097" font-family="Times Roman,serif" font-size="14.00">_one_time_conditions_valid_69?</text>
<text text-anchor="start" x="696.464" y="-721.097" font-family="Times Roman,serif" font-size="14.00">create</text>
<text text-anchor="start" x="696.464" y="-703.097" font-family="Times Roman,serif" font-size="14.00">destroy</text>
<text text-anchor="start" x="696.464" y="-685.097" font-family="Times Roman,serif" font-size="14.00">edit</text>
<text text-anchor="start" x="696.464" y="-667.097" font-family="Times Roman,serif" font-size="14.00">index</text>
<text text-anchor="start" x="696.464" y="-649.097" font-family="Times Roman,serif" font-size="14.00">new</text>
<text text-anchor="start" x="696.464" y="-631.097" font-family="Times Roman,serif" font-size="14.00">show</text>
<text text-anchor="start" x="696.464" y="-613.097" font-family="Times Roman,serif" font-size="14.00">update</text>
<polyline fill="none" stroke="black" points="688.464,-603.697 926.464,-603.697 "/>
<polyline fill="none" stroke="black" points="688.464,-579.697 926.464,-579.697 "/>
<text text-anchor="start" x="696.464" y="-563.097" font-family="Times Roman,serif" font-size="14.00">_layout</text>
</g>
<!-- LocalitiesController -->
<g id="node4" class="node"><title>LocalitiesController</title>
<polyline fill="none" stroke="black" points="398.38,-16.0349 523.38,-16.0349 "/>
<path fill="none" stroke="black" d="M523.38,-16.0349C529.38,-16.0349 535.38,-22.0349 535.38,-28.0349"/>
<polyline fill="none" stroke="black" points="535.38,-28.0349 535.38,-214.035 "/>
<path fill="none" stroke="black" d="M535.38,-214.035C535.38,-220.035 529.38,-226.035 523.38,-226.035"/>
<polyline fill="none" stroke="black" points="523.38,-226.035 398.38,-226.035 "/>
<path fill="none" stroke="black" d="M398.38,-226.035C392.38,-226.035 386.38,-220.035 386.38,-214.035"/>
<polyline fill="none" stroke="black" points="386.38,-214.035 386.38,-28.0349 "/>
<path fill="none" stroke="black" d="M386.38,-28.0349C386.38,-22.0349 392.38,-16.0349 398.38,-16.0349"/>
<text text-anchor="middle" x="460.88" y="-209.435" font-family="Times Roman,serif" font-size="14.00">LocalitiesController</text>
<polyline fill="none" stroke="black" points="386.38,-200.035 535.38,-200.035 "/>
<text text-anchor="start" x="394.38" y="-183.435" font-family="Times Roman,serif" font-size="14.00">create</text>
<text text-anchor="start" x="394.38" y="-165.435" font-family="Times Roman,serif" font-size="14.00">destroy</text>
<text text-anchor="start" x="394.38" y="-147.435" font-family="Times Roman,serif" font-size="14.00">edit</text>
<text text-anchor="start" x="394.38" y="-129.435" font-family="Times Roman,serif" font-size="14.00">index</text>
<text text-anchor="start" x="394.38" y="-111.435" font-family="Times Roman,serif" font-size="14.00">new</text>
<text text-anchor="start" x="394.38" y="-93.4349" font-family="Times Roman,serif" font-size="14.00">show</text>
<text text-anchor="start" x="394.38" y="-75.4349" font-family="Times Roman,serif" font-size="14.00">update</text>
<polyline fill="none" stroke="black" points="386.38,-66.0349 535.38,-66.0349 "/>
<polyline fill="none" stroke="black" points="386.38,-42.0349 535.38,-42.0349 "/>
<text text-anchor="start" x="394.38" y="-25.4349" font-family="Times Roman,serif" font-size="14.00">_layout</text>
</g>
<!-- InternshipsController -->
<g id="node5" class="node"><title>InternshipsController</title>
<polyline fill="none" stroke="black" points="349.219,-1094.6 572.219,-1094.6 "/>
<path fill="none" stroke="black" d="M572.219,-1094.6C578.219,-1094.6 584.219,-1100.6 584.219,-1106.6"/>
<polyline fill="none" stroke="black" points="584.219,-1106.6 584.219,-1328.6 "/>
<path fill="none" stroke="black" d="M584.219,-1328.6C584.219,-1334.6 578.219,-1340.6 572.219,-1340.6"/>
<polyline fill="none" stroke="black" points="572.219,-1340.6 349.219,-1340.6 "/>
<path fill="none" stroke="black" d="M349.219,-1340.6C343.219,-1340.6 337.219,-1334.6 337.219,-1328.6"/>
<polyline fill="none" stroke="black" points="337.219,-1328.6 337.219,-1106.6 "/>
<path fill="none" stroke="black" d="M337.219,-1106.6C337.219,-1100.6 343.219,-1094.6 349.219,-1094.6"/>
<text text-anchor="middle" x="460.719" y="-1324" font-family="Times Roman,serif" font-size="14.00">InternshipsController</text>
<polyline fill="none" stroke="black" points="337.219,-1314.6 584.219,-1314.6 "/>
<text text-anchor="start" x="345.219" y="-1298" font-family="Times Roman,serif" font-size="14.00">_one_time_conditions_valid_129?</text>
<text text-anchor="start" x="345.219" y="-1280" font-family="Times Roman,serif" font-size="14.00">create</text>
<text text-anchor="start" x="345.219" y="-1262" font-family="Times Roman,serif" font-size="14.00">destroy</text>
<text text-anchor="start" x="345.219" y="-1244" font-family="Times Roman,serif" font-size="14.00">edit</text>
<text text-anchor="start" x="345.219" y="-1226" font-family="Times Roman,serif" font-size="14.00">index</text>
<text text-anchor="start" x="345.219" y="-1208" font-family="Times Roman,serif" font-size="14.00">new</text>
<text text-anchor="start" x="345.219" y="-1190" font-family="Times Roman,serif" font-size="14.00">postularme</text>
<text text-anchor="start" x="345.219" y="-1172" font-family="Times Roman,serif" font-size="14.00">show</text>
<text text-anchor="start" x="345.219" y="-1154" font-family="Times Roman,serif" font-size="14.00">update</text>
<polyline fill="none" stroke="black" points="337.219,-1144.6 584.219,-1144.6 "/>
<polyline fill="none" stroke="black" points="337.219,-1120.6 584.219,-1120.6 "/>
<text text-anchor="start" x="345.219" y="-1104" font-family="Times Roman,serif" font-size="14.00">_layout</text>
</g>
<!-- SessionsController -->
<g id="node6" class="node"><title>SessionsController</title>
<polyline fill="none" stroke="black" points="669.063,-854.009 789.063,-854.009 "/>
<path fill="none" stroke="black" d="M789.063,-854.009C795.063,-854.009 801.063,-860.009 801.063,-866.009"/>
<polyline fill="none" stroke="black" points="801.063,-866.009 801.063,-980.009 "/>
<path fill="none" stroke="black" d="M801.063,-980.009C801.063,-986.009 795.063,-992.009 789.063,-992.009"/>
<polyline fill="none" stroke="black" points="789.063,-992.009 669.063,-992.009 "/>
<path fill="none" stroke="black" d="M669.063,-992.009C663.063,-992.009 657.063,-986.009 657.063,-980.009"/>
<polyline fill="none" stroke="black" points="657.063,-980.009 657.063,-866.009 "/>
<path fill="none" stroke="black" d="M657.063,-866.009C657.063,-860.009 663.063,-854.009 669.063,-854.009"/>
<text text-anchor="middle" x="729.063" y="-975.409" font-family="Times Roman,serif" font-size="14.00">SessionsController</text>
<polyline fill="none" stroke="black" points="657.063,-966.009 801.063,-966.009 "/>
<text text-anchor="start" x="665.063" y="-949.409" font-family="Times Roman,serif" font-size="14.00">create</text>
<text text-anchor="start" x="665.063" y="-931.409" font-family="Times Roman,serif" font-size="14.00">destroy</text>
<text text-anchor="start" x="665.063" y="-913.409" font-family="Times Roman,serif" font-size="14.00">new</text>
<polyline fill="none" stroke="black" points="657.063,-904.009 801.063,-904.009 "/>
<polyline fill="none" stroke="black" points="657.063,-880.009 801.063,-880.009 "/>
<text text-anchor="start" x="665.063" y="-863.409" font-family="Times Roman,serif" font-size="14.00">_layout</text>
</g>
<!-- SkillsController -->
<g id="node7" class="node"><title>SkillsController</title>
<polyline fill="none" stroke="black" points="370.45,-801.056 467.45,-801.056 "/>
<path fill="none" stroke="black" d="M467.45,-801.056C473.45,-801.056 479.45,-807.056 479.45,-813.056"/>
<polyline fill="none" stroke="black" points="479.45,-813.056 479.45,-999.056 "/>
<path fill="none" stroke="black" d="M479.45,-999.056C479.45,-1005.06 473.45,-1011.06 467.45,-1011.06"/>
<polyline fill="none" stroke="black" points="467.45,-1011.06 370.45,-1011.06 "/>
<path fill="none" stroke="black" d="M370.45,-1011.06C364.45,-1011.06 358.45,-1005.06 358.45,-999.056"/>
<polyline fill="none" stroke="black" points="358.45,-999.056 358.45,-813.056 "/>
<path fill="none" stroke="black" d="M358.45,-813.056C358.45,-807.056 364.45,-801.056 370.45,-801.056"/>
<text text-anchor="middle" x="418.95" y="-994.456" font-family="Times Roman,serif" font-size="14.00">SkillsController</text>
<polyline fill="none" stroke="black" points="358.45,-985.056 479.45,-985.056 "/>
<text text-anchor="start" x="366.45" y="-968.456" font-family="Times Roman,serif" font-size="14.00">create</text>
<text text-anchor="start" x="366.45" y="-950.456" font-family="Times Roman,serif" font-size="14.00">destroy</text>
<text text-anchor="start" x="366.45" y="-932.456" font-family="Times Roman,serif" font-size="14.00">edit</text>
<text text-anchor="start" x="366.45" y="-914.456" font-family="Times Roman,serif" font-size="14.00">index</text>
<text text-anchor="start" x="366.45" y="-896.456" font-family="Times Roman,serif" font-size="14.00">new</text>
<text text-anchor="start" x="366.45" y="-878.456" font-family="Times Roman,serif" font-size="14.00">show</text>
<text text-anchor="start" x="366.45" y="-860.456" font-family="Times Roman,serif" font-size="14.00">update</text>
<polyline fill="none" stroke="black" points="358.45,-851.056 479.45,-851.056 "/>
<polyline fill="none" stroke="black" points="358.45,-827.056 479.45,-827.056 "/>
<text text-anchor="start" x="366.45" y="-810.456" font-family="Times Roman,serif" font-size="14.00">_layout</text>
</g>
<!-- LandingController -->
<g id="node8" class="node"><title>LandingController</title>
<polyline fill="none" stroke="black" points="66.3443,-68.5527 182.344,-68.5527 "/>
<path fill="none" stroke="black" d="M182.344,-68.5527C188.344,-68.5527 194.344,-74.5527 194.344,-80.5527"/>
<polyline fill="none" stroke="black" points="194.344,-80.5527 194.344,-158.553 "/>
<path fill="none" stroke="black" d="M194.344,-158.553C194.344,-164.553 188.344,-170.553 182.344,-170.553"/>
<polyline fill="none" stroke="black" points="182.344,-170.553 66.3443,-170.553 "/>
<path fill="none" stroke="black" d="M66.3443,-170.553C60.3443,-170.553 54.3443,-164.553 54.3443,-158.553"/>
<polyline fill="none" stroke="black" points="54.3443,-158.553 54.3443,-80.5527 "/>
<path fill="none" stroke="black" d="M54.3443,-80.5527C54.3443,-74.5527 60.3443,-68.5527 66.3443,-68.5527"/>
<text text-anchor="middle" x="124.344" y="-153.953" font-family="Times Roman,serif" font-size="14.00">LandingController</text>
<polyline fill="none" stroke="black" points="54.3443,-144.553 194.344,-144.553 "/>
<text text-anchor="start" x="62.3443" y="-127.953" font-family="Times Roman,serif" font-size="14.00">bienvenida</text>
<polyline fill="none" stroke="black" points="54.3443,-118.553 194.344,-118.553 "/>
<polyline fill="none" stroke="black" points="54.3443,-94.5527 194.344,-94.5527 "/>
<text text-anchor="start" x="62.3443" y="-77.9527" font-family="Times Roman,serif" font-size="14.00">_layout</text>
</g>
<!-- TypesController -->
<g id="node9" class="node"><title>TypesController</title>
<polyline fill="none" stroke="black" points="1027.66,-397.804 1127.66,-397.804 "/>
<path fill="none" stroke="black" d="M1127.66,-397.804C1133.66,-397.804 1139.66,-403.804 1139.66,-409.804"/>
<polyline fill="none" stroke="black" points="1139.66,-409.804 1139.66,-595.804 "/>
<path fill="none" stroke="black" d="M1139.66,-595.804C1139.66,-601.804 1133.66,-607.804 1127.66,-607.804"/>
<polyline fill="none" stroke="black" points="1127.66,-607.804 1027.66,-607.804 "/>
<path fill="none" stroke="black" d="M1027.66,-607.804C1021.66,-607.804 1015.66,-601.804 1015.66,-595.804"/>
<polyline fill="none" stroke="black" points="1015.66,-595.804 1015.66,-409.804 "/>
<path fill="none" stroke="black" d="M1015.66,-409.804C1015.66,-403.804 1021.66,-397.804 1027.66,-397.804"/>
<text text-anchor="middle" x="1077.66" y="-591.204" font-family="Times Roman,serif" font-size="14.00">TypesController</text>
<polyline fill="none" stroke="black" points="1015.66,-581.804 1139.66,-581.804 "/>
<text text-anchor="start" x="1023.66" y="-565.204" font-family="Times Roman,serif" font-size="14.00">create</text>
<text text-anchor="start" x="1023.66" y="-547.204" font-family="Times Roman,serif" font-size="14.00">destroy</text>
<text text-anchor="start" x="1023.66" y="-529.204" font-family="Times Roman,serif" font-size="14.00">edit</text>
<text text-anchor="start" x="1023.66" y="-511.204" font-family="Times Roman,serif" font-size="14.00">index</text>
<text text-anchor="start" x="1023.66" y="-493.204" font-family="Times Roman,serif" font-size="14.00">new</text>
<text text-anchor="start" x="1023.66" y="-475.204" font-family="Times Roman,serif" font-size="14.00">show</text>
<text text-anchor="start" x="1023.66" y="-457.204" font-family="Times Roman,serif" font-size="14.00">update</text>
<polyline fill="none" stroke="black" points="1015.66,-447.804 1139.66,-447.804 "/>
<polyline fill="none" stroke="black" points="1015.66,-423.804 1139.66,-423.804 "/>
<text text-anchor="start" x="1023.66" y="-407.204" font-family="Times Roman,serif" font-size="14.00">_layout</text>
</g>
<!-- InternshipsTasksController -->
<g id="node10" class="node"><title>InternshipsTasksController</title>
<polyline fill="none" stroke="black" points="326.959,-327.923 502.959,-327.923 "/>
<path fill="none" stroke="black" d="M502.959,-327.923C508.959,-327.923 514.959,-333.923 514.959,-339.923"/>
<polyline fill="none" stroke="black" points="514.959,-339.923 514.959,-525.923 "/>
<path fill="none" stroke="black" d="M514.959,-525.923C514.959,-531.923 508.959,-537.923 502.959,-537.923"/>
<polyline fill="none" stroke="black" points="502.959,-537.923 326.959,-537.923 "/>
<path fill="none" stroke="black" d="M326.959,-537.923C320.959,-537.923 314.959,-531.923 314.959,-525.923"/>
<polyline fill="none" stroke="black" points="314.959,-525.923 314.959,-339.923 "/>
<path fill="none" stroke="black" d="M314.959,-339.923C314.959,-333.923 320.959,-327.923 326.959,-327.923"/>
<text text-anchor="middle" x="414.959" y="-521.323" font-family="Times Roman,serif" font-size="14.00">InternshipsTasksController</text>
<polyline fill="none" stroke="black" points="314.959,-511.923 514.959,-511.923 "/>
<text text-anchor="start" x="322.959" y="-495.323" font-family="Times Roman,serif" font-size="14.00">create</text>
<text text-anchor="start" x="322.959" y="-477.323" font-family="Times Roman,serif" font-size="14.00">destroy</text>
<text text-anchor="start" x="322.959" y="-459.323" font-family="Times Roman,serif" font-size="14.00">edit</text>
<text text-anchor="start" x="322.959" y="-441.323" font-family="Times Roman,serif" font-size="14.00">index</text>
<text text-anchor="start" x="322.959" y="-423.323" font-family="Times Roman,serif" font-size="14.00">new</text>
<text text-anchor="start" x="322.959" y="-405.323" font-family="Times Roman,serif" font-size="14.00">show</text>
<text text-anchor="start" x="322.959" y="-387.323" font-family="Times Roman,serif" font-size="14.00">update</text>
<polyline fill="none" stroke="black" points="314.959,-377.923 514.959,-377.923 "/>
<polyline fill="none" stroke="black" points="314.959,-353.923 514.959,-353.923 "/>
<text text-anchor="start" x="322.959" y="-337.323" font-family="Times Roman,serif" font-size="14.00">_layout</text>
</g>
<!-- ProvincesController -->
<g id="node11" class="node"><title>ProvincesController</title>
<polyline fill="none" stroke="black" points="686.385,-1.5 814.385,-1.5 "/>
<path fill="none" stroke="black" d="M814.385,-1.5C820.385,-1.5 826.385,-7.5 826.385,-13.5"/>
<polyline fill="none" stroke="black" points="826.385,-13.5 826.385,-199.5 "/>
<path fill="none" stroke="black" d="M826.385,-199.5C826.385,-205.5 820.385,-211.5 814.385,-211.5"/>
<polyline fill="none" stroke="black" points="814.385,-211.5 686.385,-211.5 "/>
<path fill="none" stroke="black" d="M686.385,-211.5C680.385,-211.5 674.385,-205.5 674.385,-199.5"/>
<polyline fill="none" stroke="black" points="674.385,-199.5 674.385,-13.5 "/>
<path fill="none" stroke="black" d="M674.385,-13.5C674.385,-7.5 680.385,-1.5 686.385,-1.5"/>
<text text-anchor="middle" x="750.385" y="-194.9" font-family="Times Roman,serif" font-size="14.00">ProvincesController</text>
<polyline fill="none" stroke="black" points="674.385,-185.5 826.385,-185.5 "/>
<text text-anchor="start" x="682.385" y="-168.9" font-family="Times Roman,serif" font-size="14.00">create</text>
<text text-anchor="start" x="682.385" y="-150.9" font-family="Times Roman,serif" font-size="14.00">destroy</text>
<text text-anchor="start" x="682.385" y="-132.9" font-family="Times Roman,serif" font-size="14.00">edit</text>
<text text-anchor="start" x="682.385" y="-114.9" font-family="Times Roman,serif" font-size="14.00">index</text>
<text text-anchor="start" x="682.385" y="-96.9" font-family="Times Roman,serif" font-size="14.00">new</text>
<text text-anchor="start" x="682.385" y="-78.9" font-family="Times Roman,serif" font-size="14.00">show</text>
<text text-anchor="start" x="682.385" y="-60.9" font-family="Times Roman,serif" font-size="14.00">update</text>
<polyline fill="none" stroke="black" points="674.385,-51.5 826.385,-51.5 "/>
<polyline fill="none" stroke="black" points="674.385,-27.5 826.385,-27.5 "/>
<text text-anchor="start" x="682.385" y="-10.9" font-family="Times Roman,serif" font-size="14.00">_layout</text>
</g>
<!-- TasksController -->
<g id="node12" class="node"><title>TasksController</title>
<polyline fill="none" stroke="black" points="675.941,-309.375 773.941,-309.375 "/>
<path fill="none" stroke="black" d="M773.941,-309.375C779.941,-309.375 785.941,-315.375 785.941,-321.375"/>
<polyline fill="none" stroke="black" points="785.941,-321.375 785.941,-507.375 "/>
<path fill="none" stroke="black" d="M785.941,-507.375C785.941,-513.375 779.941,-519.375 773.941,-519.375"/>
<polyline fill="none" stroke="black" points="773.941,-519.375 675.941,-519.375 "/>
<path fill="none" stroke="black" d="M675.941,-519.375C669.941,-519.375 663.941,-513.375 663.941,-507.375"/>
<polyline fill="none" stroke="black" points="663.941,-507.375 663.941,-321.375 "/>
<path fill="none" stroke="black" d="M663.941,-321.375C663.941,-315.375 669.941,-309.375 675.941,-309.375"/>
<text text-anchor="middle" x="724.941" y="-502.775" font-family="Times Roman,serif" font-size="14.00">TasksController</text>
<polyline fill="none" stroke="black" points="663.941,-493.375 785.941,-493.375 "/>
<text text-anchor="start" x="671.941" y="-476.775" font-family="Times Roman,serif" font-size="14.00">create</text>
<text text-anchor="start" x="671.941" y="-458.775" font-family="Times Roman,serif" font-size="14.00">destroy</text>
<text text-anchor="start" x="671.941" y="-440.775" font-family="Times Roman,serif" font-size="14.00">edit</text>
<text text-anchor="start" x="671.941" y="-422.775" font-family="Times Roman,serif" font-size="14.00">index</text>
<text text-anchor="start" x="671.941" y="-404.775" font-family="Times Roman,serif" font-size="14.00">new</text>
<text text-anchor="start" x="671.941" y="-386.775" font-family="Times Roman,serif" font-size="14.00">show</text>
<text text-anchor="start" x="671.941" y="-368.775" font-family="Times Roman,serif" font-size="14.00">update</text>
<polyline fill="none" stroke="black" points="663.941,-359.375 785.941,-359.375 "/>
<polyline fill="none" stroke="black" points="663.941,-335.375 785.941,-335.375 "/>
<text text-anchor="start" x="671.941" y="-318.775" font-family="Times Roman,serif" font-size="14.00">_layout</text>
</g>
<!-- InternshipsUsersController -->
<g id="node13" class="node"><title>InternshipsUsersController</title>
<polyline fill="none" stroke="black" points="106.79,-565.963 283.79,-565.963 "/>
<path fill="none" stroke="black" d="M283.79,-565.963C289.79,-565.963 295.79,-571.963 295.79,-577.963"/>
<polyline fill="none" stroke="black" points="295.79,-577.963 295.79,-763.963 "/>
<path fill="none" stroke="black" d="M295.79,-763.963C295.79,-769.963 289.79,-775.963 283.79,-775.963"/>
<polyline fill="none" stroke="black" points="283.79,-775.963 106.79,-775.963 "/>
<path fill="none" stroke="black" d="M106.79,-775.963C100.79,-775.963 94.7901,-769.963 94.7901,-763.963"/>
<polyline fill="none" stroke="black" points="94.7901,-763.963 94.7901,-577.963 "/>
<path fill="none" stroke="black" d="M94.7901,-577.963C94.7901,-571.963 100.79,-565.963 106.79,-565.963"/>
<text text-anchor="middle" x="195.29" y="-759.363" font-family="Times Roman,serif" font-size="14.00">InternshipsUsersController</text>
<polyline fill="none" stroke="black" points="94.7901,-749.963 295.79,-749.963 "/>
<text text-anchor="start" x="102.79" y="-733.363" font-family="Times Roman,serif" font-size="14.00">create</text>
<text text-anchor="start" x="102.79" y="-715.363" font-family="Times Roman,serif" font-size="14.00">destroy</text>
<text text-anchor="start" x="102.79" y="-697.363" font-family="Times Roman,serif" font-size="14.00">edit</text>
<text text-anchor="start" x="102.79" y="-679.363" font-family="Times Roman,serif" font-size="14.00">index</text>
<text text-anchor="start" x="102.79" y="-661.363" font-family="Times Roman,serif" font-size="14.00">new</text>
<text text-anchor="start" x="102.79" y="-643.363" font-family="Times Roman,serif" font-size="14.00">show</text>
<text text-anchor="start" x="102.79" y="-625.363" font-family="Times Roman,serif" font-size="14.00">update</text>
<polyline fill="none" stroke="black" points="94.7901,-615.963 295.79,-615.963 "/>
<polyline fill="none" stroke="black" points="94.7901,-591.963 295.79,-591.963 "/>
<text text-anchor="start" x="102.79" y="-575.363" font-family="Times Roman,serif" font-size="14.00">_layout</text>
</g>
<!-- ContractsController -->
<g id="node14" class="node"><title>ContractsController</title>
<polyline fill="none" stroke="black" points="1014.82,-691.642 1142.82,-691.642 "/>
<path fill="none" stroke="black" d="M1142.82,-691.642C1148.82,-691.642 1154.82,-697.642 1154.82,-703.642"/>
<polyline fill="none" stroke="black" points="1154.82,-703.642 1154.82,-961.642 "/>
<path fill="none" stroke="black" d="M1154.82,-961.642C1154.82,-967.642 1148.82,-973.642 1142.82,-973.642"/>
<polyline fill="none" stroke="black" points="1142.82,-973.642 1014.82,-973.642 "/>
<path fill="none" stroke="black" d="M1014.82,-973.642C1008.82,-973.642 1002.82,-967.642 1002.82,-961.642"/>
<polyline fill="none" stroke="black" points="1002.82,-961.642 1002.82,-703.642 "/>
<path fill="none" stroke="black" d="M1002.82,-703.642C1002.82,-697.642 1008.82,-691.642 1014.82,-691.642"/>
<text text-anchor="middle" x="1078.82" y="-957.042" font-family="Times Roman,serif" font-size="14.00">ContractsController</text>
<polyline fill="none" stroke="black" points="1002.82,-947.642 1154.82,-947.642 "/>
<text text-anchor="start" x="1010.82" y="-931.042" font-family="Times Roman,serif" font-size="14.00">cm</text>
<text text-anchor="start" x="1010.82" y="-913.042" font-family="Times Roman,serif" font-size="14.00">create</text>
<text text-anchor="start" x="1010.82" y="-895.042" font-family="Times Roman,serif" font-size="14.00">destroy</text>
<text text-anchor="start" x="1010.82" y="-877.042" font-family="Times Roman,serif" font-size="14.00">edit</text>
<text text-anchor="start" x="1010.82" y="-859.042" font-family="Times Roman,serif" font-size="14.00">imprimirmeci</text>
<text text-anchor="start" x="1010.82" y="-841.042" font-family="Times Roman,serif" font-size="14.00">imprimirmecm</text>
<text text-anchor="start" x="1010.82" y="-823.042" font-family="Times Roman,serif" font-size="14.00">index</text>
<text text-anchor="start" x="1010.82" y="-805.042" font-family="Times Roman,serif" font-size="14.00">new</text>
<text text-anchor="start" x="1010.82" y="-787.042" font-family="Times Roman,serif" font-size="14.00">redactarme</text>
<text text-anchor="start" x="1010.82" y="-769.042" font-family="Times Roman,serif" font-size="14.00">show</text>
<text text-anchor="start" x="1010.82" y="-751.042" font-family="Times Roman,serif" font-size="14.00">update</text>
<polyline fill="none" stroke="black" points="1002.82,-741.642 1154.82,-741.642 "/>
<polyline fill="none" stroke="black" points="1002.82,-717.642 1154.82,-717.642 "/>
<text text-anchor="start" x="1010.82" y="-701.042" font-family="Times Roman,serif" font-size="14.00">_layout</text>
</g>
<!-- AdminController -->
<g id="node15" class="node"><title>AdminController</title>
<polyline fill="none" stroke="black" points="1020.04,-1141.54 1125.04,-1141.54 "/>
<path fill="none" stroke="black" d="M1125.04,-1141.54C1131.04,-1141.54 1137.04,-1147.54 1137.04,-1153.54"/>
<polyline fill="none" stroke="black" points="1137.04,-1153.54 1137.04,-1231.54 "/>
<path fill="none" stroke="black" d="M1137.04,-1231.54C1137.04,-1237.54 1131.04,-1243.54 1125.04,-1243.54"/>
<polyline fill="none" stroke="black" points="1125.04,-1243.54 1020.04,-1243.54 "/>
<path fill="none" stroke="black" d="M1020.04,-1243.54C1014.04,-1243.54 1008.04,-1237.54 1008.04,-1231.54"/>
<polyline fill="none" stroke="black" points="1008.04,-1231.54 1008.04,-1153.54 "/>
<path fill="none" stroke="black" d="M1008.04,-1153.54C1008.04,-1147.54 1014.04,-1141.54 1020.04,-1141.54"/>
<text text-anchor="middle" x="1072.54" y="-1226.94" font-family="Times Roman,serif" font-size="14.00">AdminController</text>
<polyline fill="none" stroke="black" points="1008.04,-1217.54 1137.04,-1217.54 "/>
<text text-anchor="start" x="1016.04" y="-1200.94" font-family="Times Roman,serif" font-size="14.00">index</text>
<polyline fill="none" stroke="black" points="1008.04,-1191.54 1137.04,-1191.54 "/>
<polyline fill="none" stroke="black" points="1008.04,-1167.54 1137.04,-1167.54 "/>
<text text-anchor="start" x="1016.04" y="-1150.94" font-family="Times Roman,serif" font-size="14.00">_layout</text>
</g>
<!-- UsersController -->
<g id="node16" class="node"><title>UsersController</title>
<polyline fill="none" stroke="black" points="638.323,-1118.33 861.323,-1118.33 "/>
<path fill="none" stroke="black" d="M861.323,-1118.33C867.323,-1118.33 873.323,-1124.33 873.323,-1130.33"/>
<polyline fill="none" stroke="black" points="873.323,-1130.33 873.323,-1334.33 "/>
<path fill="none" stroke="black" d="M873.323,-1334.33C873.323,-1340.33 867.323,-1346.33 861.323,-1346.33"/>
<polyline fill="none" stroke="black" points="861.323,-1346.33 638.323,-1346.33 "/>
<path fill="none" stroke="black" d="M638.323,-1346.33C632.323,-1346.33 626.323,-1340.33 626.323,-1334.33"/>
<polyline fill="none" stroke="black" points="626.323,-1334.33 626.323,-1130.33 "/>
<path fill="none" stroke="black" d="M626.323,-1130.33C626.323,-1124.33 632.323,-1118.33 638.323,-1118.33"/>
<text text-anchor="middle" x="749.823" y="-1329.73" font-family="Times Roman,serif" font-size="14.00">UsersController</text>
<polyline fill="none" stroke="black" points="626.323,-1320.33 873.323,-1320.33 "/>
<text text-anchor="start" x="634.323" y="-1303.73" font-family="Times Roman,serif" font-size="14.00">_one_time_conditions_valid_249?</text>
<text text-anchor="start" x="634.323" y="-1285.73" font-family="Times Roman,serif" font-size="14.00">create</text>
<text text-anchor="start" x="634.323" y="-1267.73" font-family="Times Roman,serif" font-size="14.00">destroy</text>
<text text-anchor="start" x="634.323" y="-1249.73" font-family="Times Roman,serif" font-size="14.00">edit</text>
<text text-anchor="start" x="634.323" y="-1231.73" font-family="Times Roman,serif" font-size="14.00">index</text>
<text text-anchor="start" x="634.323" y="-1213.73" font-family="Times Roman,serif" font-size="14.00">new</text>
<text text-anchor="start" x="634.323" y="-1195.73" font-family="Times Roman,serif" font-size="14.00">show</text>
<text text-anchor="start" x="634.323" y="-1177.73" font-family="Times Roman,serif" font-size="14.00">update</text>
<polyline fill="none" stroke="black" points="626.323,-1168.33 873.323,-1168.33 "/>
<polyline fill="none" stroke="black" points="626.323,-1144.33 873.323,-1144.33 "/>
<text text-anchor="start" x="634.323" y="-1127.73" font-family="Times Roman,serif" font-size="14.00">_layout</text>
</g>
<!-- ApplicationController -->
<g id="node17" class="node"><title>ApplicationController</title>
<polyline fill="none" stroke="black" points="427.224,-607.987 641.224,-607.987 "/>
<path fill="none" stroke="black" d="M641.224,-607.987C647.224,-607.987 653.224,-613.987 653.224,-619.987"/>
<polyline fill="none" stroke="black" points="653.224,-619.987 653.224,-717.987 "/>
<path fill="none" stroke="black" d="M653.224,-717.987C653.224,-723.987 647.224,-729.987 641.224,-729.987"/>
<polyline fill="none" stroke="black" points="641.224,-729.987 427.224,-729.987 "/>
<path fill="none" stroke="black" d="M427.224,-729.987C421.224,-729.987 415.224,-723.987 415.224,-717.987"/>
<polyline fill="none" stroke="black" points="415.224,-717.987 415.224,-619.987 "/>
<path fill="none" stroke="black" d="M415.224,-619.987C415.224,-613.987 421.224,-607.987 427.224,-607.987"/>
<text text-anchor="middle" x="534.224" y="-713.387" font-family="Times Roman,serif" font-size="14.00">ApplicationController</text>
<polyline fill="none" stroke="black" points="415.224,-703.987 653.224,-703.987 "/>
<text text-anchor="start" x="423.224" y="-687.387" font-family="Times Roman,serif" font-size="14.00">_one_time_conditions_valid_10?</text>
<text text-anchor="start" x="423.224" y="-669.387" font-family="Times Roman,serif" font-size="14.00">_one_time_conditions_valid_8?</text>
<polyline fill="none" stroke="black" points="415.224,-659.987 653.224,-659.987 "/>
<text text-anchor="start" x="423.224" y="-643.387" font-family="Times Roman,serif" font-size="14.00">authorize</text>
<polyline fill="none" stroke="black" points="415.224,-633.987 653.224,-633.987 "/>
<text text-anchor="start" x="423.224" y="-617.387" font-family="Times Roman,serif" font-size="14.00">_layout</text>
</g>
<!-- ApplicationController&#45;&gt;TreatmentsController -->
<g id="edge2" class="edge"><title>ApplicationController&#45;&gt;TreatmentsController</title>
<path fill="none" stroke="black" d="M415.08,-610.808C336.357,-572.367 235.196,-522.969 165.32,-488.848"/>
</g>
<!-- ApplicationController&#45;&gt;CompaniesController -->
<g id="edge4" class="edge"><title>ApplicationController&#45;&gt;CompaniesController</title>
<path fill="none" stroke="black" d="M653.276,-668.425C664.925,-668.37 676.747,-668.314 688.396,-668.259"/>
</g>
<!-- ApplicationController&#45;&gt;LocalitiesController -->
<g id="edge6" class="edge"><title>ApplicationController&#45;&gt;LocalitiesController</title>
<path fill="none" stroke="black" d="M535.542,-607.923C536.072,-538.764 534.044,-422.919 518.159,-324.723 512.909,-292.268 504.329,-257.61 495.389,-226.256"/>
</g>
<!-- ApplicationController&#45;&gt;InternshipsController -->
<g id="edge8" class="edge"><title>ApplicationController&#45;&gt;InternshipsController</title>
<path fill="none" stroke="black" d="M526.041,-730.058C514.301,-817.686 492.42,-980.996 477.235,-1094.33"/>
</g>
<!-- ApplicationController&#45;&gt;SessionsController -->
<g id="edge10" class="edge"><title>ApplicationController&#45;&gt;SessionsController</title>
<path fill="none" stroke="black" d="M581.14,-730.155C609.742,-767.444 646.37,-815.198 676.022,-853.857"/>
</g>
<!-- ApplicationController&#45;&gt;SkillsController -->
<g id="edge12" class="edge"><title>ApplicationController&#45;&gt;SkillsController</title>
<path fill="none" stroke="black" d="M504.538,-730.038C494.065,-751.577 481.967,-776.457 470.225,-800.604"/>
</g>
<!-- ApplicationController&#45;&gt;LandingController -->
<g id="edge14" class="edge"><title>ApplicationController&#45;&gt;LandingController</title>
<path fill="none" stroke="black" d="M415.132,-618.487C378.44,-598.535 340.248,-572.719 311.759,-541.123 211.46,-429.885 157.69,-256.215 135.991,-170.678"/>
</g>
<!-- ApplicationController&#45;&gt;TypesController -->
<g id="edge16" class="edge"><title>ApplicationController&#45;&gt;TypesController</title>
<path fill="none" stroke="black" d="M596.14,-607.936C621.72,-586.243 652.938,-563.902 685.264,-550.497 743.504,-526.347 920.298,-512.294 1015.45,-506.285"/>
</g>
<!-- ApplicationController&#45;&gt;InternshipsTasksController -->
<g id="edge18" class="edge"><title>ApplicationController&#45;&gt;InternshipsTasksController</title>
<path fill="none" stroke="black" d="M503.355,-607.887C492.588,-586.576 480.176,-562.009 468.121,-538.148"/>
</g>
<!-- ApplicationController&#45;&gt;ProvincesController -->
<g id="edge20" class="edge"><title>ApplicationController&#45;&gt;ProvincesController</title>
<path fill="none" stroke="black" d="M553.789,-607.73C577.394,-535.117 619.117,-410.767 660.741,-306.175 673.07,-275.194 687.48,-241.992 701.095,-211.731"/>
</g>
<!-- ApplicationController&#45;&gt;TasksController -->
<g id="edge22" class="edge"><title>ApplicationController&#45;&gt;TasksController</title>
<path fill="none" stroke="black" d="M580.148,-607.677C605.278,-574.127 636.74,-532.126 663.91,-495.852"/>
</g>
<!-- ApplicationController&#45;&gt;InternshipsUsersController -->
<g id="edge24" class="edge"><title>ApplicationController&#45;&gt;InternshipsUsersController</title>
<path fill="none" stroke="black" d="M415.205,-669.681C376.293,-669.907 333.478,-670.157 296.046,-670.375"/>
</g>
<!-- ApplicationController&#45;&gt;ContractsController -->
<g id="edge26" class="edge"><title>ApplicationController&#45;&gt;ContractsController</title>
<path fill="none" stroke="black" d="M598.181,-730.218C623.435,-750.957 653.897,-772.09 685.264,-784.897 789.445,-827.435 921.082,-835.112 1002.61,-835.107"/>
</g>
<!-- ApplicationController&#45;&gt;AdminController -->
<g id="edge28" class="edge"><title>ApplicationController&#45;&gt;AdminController</title>
<path fill="none" stroke="black" d="M609.45,-730.223C633.17,-748.569 659.83,-768.227 685.264,-784.897 735.829,-818.04 758.237,-811.605 804.263,-850.809 906.614,-937.99 996.501,-1069.44 1041.66,-1141.25"/>
</g>
<!-- ApplicationController&#45;&gt;UsersController -->
<g id="edge30" class="edge"><title>ApplicationController&#45;&gt;UsersController</title>
<path fill="none" stroke="black" d="M556.005,-730.238C579.537,-795.968 618.432,-903.324 653.863,-995.209 669.361,-1035.4 686.891,-1079.18 702.689,-1118.05"/>
</g>
<!-- JobsController -->
<g id="node18" class="node"><title>JobsController</title>
<polyline fill="none" stroke="black" points="1028.04,-40.3819 1117.04,-40.3819 "/>
<path fill="none" stroke="black" d="M1117.04,-40.3819C1123.04,-40.3819 1129.04,-46.3819 1129.04,-52.3819"/>
<polyline fill="none" stroke="black" points="1129.04,-52.3819 1129.04,-238.382 "/>
<path fill="none" stroke="black" d="M1129.04,-238.382C1129.04,-244.382 1123.04,-250.382 1117.04,-250.382"/>
<polyline fill="none" stroke="black" points="1117.04,-250.382 1028.04,-250.382 "/>
<path fill="none" stroke="black" d="M1028.04,-250.382C1022.04,-250.382 1016.04,-244.382 1016.04,-238.382"/>
<polyline fill="none" stroke="black" points="1016.04,-238.382 1016.04,-52.3819 "/>
<path fill="none" stroke="black" d="M1016.04,-52.3819C1016.04,-46.3819 1022.04,-40.3819 1028.04,-40.3819"/>
<text text-anchor="middle" x="1072.54" y="-233.782" font-family="Times Roman,serif" font-size="14.00">JobsController</text>
<polyline fill="none" stroke="black" points="1016.04,-224.382 1129.04,-224.382 "/>
<text text-anchor="start" x="1024.04" y="-207.782" font-family="Times Roman,serif" font-size="14.00">create</text>
<text text-anchor="start" x="1024.04" y="-189.782" font-family="Times Roman,serif" font-size="14.00">destroy</text>
<text text-anchor="start" x="1024.04" y="-171.782" font-family="Times Roman,serif" font-size="14.00">edit</text>
<text text-anchor="start" x="1024.04" y="-153.782" font-family="Times Roman,serif" font-size="14.00">index</text>
<text text-anchor="start" x="1024.04" y="-135.782" font-family="Times Roman,serif" font-size="14.00">new</text>
<text text-anchor="start" x="1024.04" y="-117.782" font-family="Times Roman,serif" font-size="14.00">show</text>
<text text-anchor="start" x="1024.04" y="-99.7819" font-family="Times Roman,serif" font-size="14.00">update</text>
<polyline fill="none" stroke="black" points="1016.04,-90.3819 1129.04,-90.3819 "/>
<polyline fill="none" stroke="black" points="1016.04,-66.3819 1129.04,-66.3819 "/>
<text text-anchor="start" x="1024.04" y="-49.7819" font-family="Times Roman,serif" font-size="14.00">_layout</text>
</g>
<!-- ApplicationController&#45;&gt;JobsController -->
<g id="edge32" class="edge"><title>ApplicationController&#45;&gt;JobsController</title>
<path fill="none" stroke="black" d="M600.177,-607.839C625.299,-587.179 655.16,-565.559 685.264,-550.497 728.017,-529.107 749.537,-549.352 789.141,-522.575 890.923,-453.759 970.726,-336.088 1019.36,-250.44"/>
</g>
<!-- SituationsController -->
<g id="node19" class="node"><title>SituationsController</title>
<polyline fill="none" stroke="black" points="59.0275,-1115.2 190.028,-1115.2 "/>
<path fill="none" stroke="black" d="M190.028,-1115.2C196.028,-1115.2 202.028,-1121.2 202.028,-1127.2"/>
<polyline fill="none" stroke="black" points="202.028,-1127.2 202.028,-1313.2 "/>
<path fill="none" stroke="black" d="M202.028,-1313.2C202.028,-1319.2 196.028,-1325.2 190.028,-1325.2"/>
<polyline fill="none" stroke="black" points="190.028,-1325.2 59.0275,-1325.2 "/>
<path fill="none" stroke="black" d="M59.0275,-1325.2C53.0275,-1325.2 47.0275,-1319.2 47.0275,-1313.2"/>
<polyline fill="none" stroke="black" points="47.0275,-1313.2 47.0275,-1127.2 "/>
<path fill="none" stroke="black" d="M47.0275,-1127.2C47.0275,-1121.2 53.0275,-1115.2 59.0275,-1115.2"/>
<text text-anchor="middle" x="124.528" y="-1308.6" font-family="Times Roman,serif" font-size="14.00">SituationsController</text>
<polyline fill="none" stroke="black" points="47.0275,-1299.2 202.028,-1299.2 "/>
<text text-anchor="start" x="55.0275" y="-1282.6" font-family="Times Roman,serif" font-size="14.00">create</text>
<text text-anchor="start" x="55.0275" y="-1264.6" font-family="Times Roman,serif" font-size="14.00">destroy</text>
<text text-anchor="start" x="55.0275" y="-1246.6" font-family="Times Roman,serif" font-size="14.00">edit</text>
<text text-anchor="start" x="55.0275" y="-1228.6" font-family="Times Roman,serif" font-size="14.00">index</text>
<text text-anchor="start" x="55.0275" y="-1210.6" font-family="Times Roman,serif" font-size="14.00">new</text>
<text text-anchor="start" x="55.0275" y="-1192.6" font-family="Times Roman,serif" font-size="14.00">show</text>
<text text-anchor="start" x="55.0275" y="-1174.6" font-family="Times Roman,serif" font-size="14.00">update</text>
<polyline fill="none" stroke="black" points="47.0275,-1165.2 202.028,-1165.2 "/>
<polyline fill="none" stroke="black" points="47.0275,-1141.2 202.028,-1141.2 "/>
<text text-anchor="start" x="55.0275" y="-1124.6" font-family="Times Roman,serif" font-size="14.00">_layout</text>
</g>
<!-- ApplicationController&#45;&gt;SituationsController -->
<g id="edge34" class="edge"><title>ApplicationController&#45;&gt;SituationsController</title>
<path fill="none" stroke="black" d="M432.97,-730.011C405.67,-749.48 377.552,-772.6 355.25,-797.856 271.189,-893.051 205.611,-1024.09 166.203,-1114.85"/>
</g>
<!-- StudiesController -->
<g id="node20" class="node"><title>StudiesController</title>
<polyline fill="none" stroke="black" points="27.956,-788.011 140.956,-788.011 "/>
<path fill="none" stroke="black" d="M140.956,-788.011C146.956,-788.011 152.956,-794.011 152.956,-800.011"/>
<polyline fill="none" stroke="black" points="152.956,-800.011 152.956,-986.011 "/>
<path fill="none" stroke="black" d="M152.956,-986.011C152.956,-992.011 146.956,-998.011 140.956,-998.011"/>
<polyline fill="none" stroke="black" points="140.956,-998.011 27.956,-998.011 "/>
<path fill="none" stroke="black" d="M27.956,-998.011C21.956,-998.011 15.956,-992.011 15.956,-986.011"/>
<polyline fill="none" stroke="black" points="15.956,-986.011 15.956,-800.011 "/>
<path fill="none" stroke="black" d="M15.956,-800.011C15.956,-794.011 21.956,-788.011 27.956,-788.011"/>
<text text-anchor="middle" x="84.456" y="-981.411" font-family="Times Roman,serif" font-size="14.00">StudiesController</text>
<polyline fill="none" stroke="black" points="15.956,-972.011 152.956,-972.011 "/>
<text text-anchor="start" x="23.956" y="-955.411" font-family="Times Roman,serif" font-size="14.00">create</text>
<text text-anchor="start" x="23.956" y="-937.411" font-family="Times Roman,serif" font-size="14.00">destroy</text>
<text text-anchor="start" x="23.956" y="-919.411" font-family="Times Roman,serif" font-size="14.00">edit</text>
<text text-anchor="start" x="23.956" y="-901.411" font-family="Times Roman,serif" font-size="14.00">index</text>
<text text-anchor="start" x="23.956" y="-883.411" font-family="Times Roman,serif" font-size="14.00">new</text>
<text text-anchor="start" x="23.956" y="-865.411" font-family="Times Roman,serif" font-size="14.00">show</text>
<text text-anchor="start" x="23.956" y="-847.411" font-family="Times Roman,serif" font-size="14.00">update</text>
<polyline fill="none" stroke="black" points="15.956,-838.011 152.956,-838.011 "/>
<polyline fill="none" stroke="black" points="15.956,-814.011 152.956,-814.011 "/>
<text text-anchor="start" x="23.956" y="-797.411" font-family="Times Roman,serif" font-size="14.00">_layout</text>
</g>
<!-- ApplicationController&#45;&gt;StudiesController -->
<g id="edge36" class="edge"><title>ApplicationController&#45;&gt;StudiesController</title>
<path fill="none" stroke="black" d="M415.17,-728.286C331.498,-769.962 222.507,-824.249 152.986,-858.877"/>
</g>
</g>
</svg>
