<?xml version="1.0" encoding="UTF-8" standalone="no"?>
<!DOCTYPE svg PUBLIC "-//W3C//DTD SVG 1.1//EN"
 "http://www.w3.org/Graphics/SVG/1.1/DTD/svg11.dtd">
<!-- Generated by graphviz version 2.26.3 (20100126.1600)
 -->
<!-- Title: models_diagram Pages: 1 -->
<svg width="986pt" height="472pt"
 viewBox="0.00 0.00 986.00 472.00" xmlns="http://www.w3.org/2000/svg" xmlns:xlink="http://www.w3.org/1999/xlink">
<g id="graph1" class="graph" transform="scale(1 1) rotate(0) translate(4 468)">
<title>models_diagram</title>
<polygon fill="white" stroke="white" points="-4,5 -4,-468 983,-468 983,5 -4,5"/>
<!-- _diagram_info -->
<g id="node1" class="node"><title>_diagram_info</title>
<text text-anchor="start" x="144" y="-447.8" font-family="Times Roman,serif" font-size="13.00">Models diagram</text>
<text text-anchor="start" x="144" y="-430.8" font-family="Times Roman,serif" font-size="13.00">Date: Oct 26 2013 &#45; 22:17</text>
<text text-anchor="start" x="144" y="-413.8" font-family="Times Roman,serif" font-size="13.00">Migration version: 20130908214125</text>
<text text-anchor="start" x="144" y="-396.8" font-family="Times Roman,serif" font-size="13.00">Generated by RailRoady 1.1.0</text>
<text text-anchor="start" x="144" y="-379.8" font-family="Times Roman,serif" font-size="13.00">http://railroady.prestonlee.com</text>
</g>
<!-- Situation -->
<g id="node2" class="node"><title>Situation</title>
<ellipse fill="none" stroke="black" cx="142" cy="-241" rx="56.0679" ry="18.3848"/>
<text text-anchor="middle" x="142" y="-237.4" font-family="Times Roman,serif" font-size="14.00">Situation</text>
</g>
<!-- Internship -->
<g id="node4" class="node"><title>Internship</title>
<ellipse fill="none" stroke="black" cx="278" cy="-167" rx="61.0181" ry="18.3848"/>
<text text-anchor="middle" x="278" y="-163.4" font-family="Times Roman,serif" font-size="14.00">Internship</text>
</g>
<!-- Situation&#45;&gt;Internship -->
<g id="edge2" class="edge"><title>Situation&#45;&gt;Internship</title>
<path fill="none" stroke="#92d96b" d="M178.321,-221.237C197.015,-211.066 219.822,-198.656 238.9,-188.275"/>
<ellipse fill="none" stroke="#92d96b" cx="174.689" cy="-223.213" rx="4.00002" ry="4.00002"/>
<polygon fill="#92d96b" stroke="#92d96b" points="239.148,-188.14 250.083,-187.313 243.54,-185.75 247.932,-183.361 247.932,-183.361 247.932,-183.361 243.54,-185.75 245.781,-179.408 239.148,-188.14 239.148,-188.14"/>
</g>
<!-- Contract -->
<g id="node3" class="node"><title>Contract</title>
<ellipse fill="none" stroke="black" cx="295" cy="-19" rx="53.9477" ry="18.3848"/>
<text text-anchor="middle" x="295" y="-15.4" font-family="Times Roman,serif" font-size="14.00">Contract</text>
</g>
<!-- Internship&#45;&gt;Contract -->
<g id="edge4" class="edge"><title>Internship&#45;&gt;Contract</title>
<path fill="none" stroke="#7ae549" d="M281.101,-140.006C284.097,-113.917 288.622,-74.5269 291.688,-47.8341"/>
<ellipse fill="none" stroke="#7ae549" cx="280.61" cy="-144.282" rx="4.00001" ry="4.00001"/>
<polygon fill="#7ae549" stroke="#7ae549" points="291.723,-47.5268 297.335,-38.1057 292.294,-42.5594 292.864,-37.5921 292.864,-37.5921 292.864,-37.5921 292.294,-42.5594 288.394,-37.0786 291.723,-47.5268 291.723,-47.5268"/>
</g>
<!-- Task -->
<g id="node11" class="node"><title>Task</title>
<ellipse fill="none" stroke="black" cx="234" cy="-93" rx="33.234" ry="18.3848"/>
<text text-anchor="middle" x="234" y="-89.4" font-family="Times Roman,serif" font-size="14.00">Task</text>
</g>
<!-- Internship&#45;&gt;Task -->
<g id="edge6" class="edge"><title>Internship&#45;&gt;Task</title>
<path fill="none" stroke="#092ced" d="M261.98,-140.058C257.963,-133.301 253.657,-126.06 249.657,-119.333"/>
<polygon fill="#092ced" stroke="#092ced" points="262.013,-140.112 263.256,-151.008 264.568,-144.41 267.124,-148.708 267.124,-148.708 267.124,-148.708 264.568,-144.41 270.992,-146.408 262.013,-140.112 262.013,-140.112"/>
<polygon fill="#092ced" stroke="#092ced" points="249.559,-119.168 248.316,-108.272 247.004,-114.87 244.448,-110.572 244.448,-110.572 244.448,-110.572 247.004,-114.87 240.58,-112.872 249.559,-119.168 249.559,-119.168"/>
</g>
<!-- User -->
<g id="node12" class="node"><title>User</title>
<ellipse fill="none" stroke="black" cx="394" cy="-93" rx="33.9411" ry="18.3848"/>
<text text-anchor="middle" x="394" y="-89.4" font-family="Times Roman,serif" font-size="14.00">User</text>
</g>
<!-- Internship&#45;&gt;User -->
<g id="edge8" class="edge"><title>Internship&#45;&gt;User</title>
<path fill="none" stroke="#691dc4" d="M312.777,-144.815C328.744,-134.629 347.523,-122.649 363.001,-112.776"/>
<polygon fill="#691dc4" stroke="#691dc4" points="312.753,-144.83 301.902,-146.414 308.538,-147.519 304.322,-150.208 304.322,-150.208 304.322,-150.208 308.538,-147.519 306.742,-154.002 312.753,-144.83 312.753,-144.83"/>
<polygon fill="#691dc4" stroke="#691dc4" points="363.255,-112.613 374.106,-111.029 367.47,-109.924 371.686,-107.235 371.686,-107.235 371.686,-107.235 367.47,-109.924 369.265,-103.441 363.255,-112.613 363.255,-112.613"/>
</g>
<!-- Type -->
<g id="node5" class="node"><title>Type</title>
<ellipse fill="none" stroke="black" cx="34" cy="-241" rx="33.9411" ry="18.3848"/>
<text text-anchor="middle" x="34" y="-237.4" font-family="Times Roman,serif" font-size="14.00">Type</text>
</g>
<!-- Type&#45;&gt;Internship -->
<g id="edge10" class="edge"><title>Type&#45;&gt;Internship</title>
<path fill="none" stroke="#442ca4" d="M67.7567,-225.523C70.8583,-224.271 73.972,-223.076 77,-222 123.981,-205.298 178.633,-190.638 219.079,-180.663"/>
<ellipse fill="none" stroke="#442ca4" cx="63.8182" cy="-227.17" rx="4.00001" ry="4.00001"/>
<polygon fill="#442ca4" stroke="#442ca4" points="219.329,-180.602 230.111,-182.601 224.186,-179.416 229.043,-178.23 229.043,-178.23 229.043,-178.23 224.186,-179.416 227.975,-173.858 219.329,-180.602 219.329,-180.602"/>
</g>
<!-- Company -->
<g id="node6" class="node"><title>Company</title>
<ellipse fill="none" stroke="black" cx="415" cy="-241" rx="56.7776" ry="18.3848"/>
<text text-anchor="middle" x="415" y="-237.4" font-family="Times Roman,serif" font-size="14.00">Company</text>
</g>
<!-- Company&#45;&gt;Internship -->
<g id="edge12" class="edge"><title>Company&#45;&gt;Internship</title>
<path fill="none" stroke="#b79402" d="M378.412,-221.237C359.495,-211.019 336.397,-198.543 317.126,-188.134"/>
<ellipse fill="none" stroke="#b79402" cx="382.091" cy="-223.224" rx="4.00002" ry="4.00002"/>
<polygon fill="#b79402" stroke="#b79402" points="317.088,-188.113 310.428,-179.401 312.688,-185.737 308.289,-183.361 308.289,-183.361 308.289,-183.361 312.688,-185.737 306.151,-187.32 317.088,-188.113 317.088,-188.113"/>
</g>
<!-- Company&#45;&gt;User -->
<g id="edge14" class="edge"><title>Company&#45;&gt;User</title>
<path fill="none" stroke="#6641aa" d="M410.895,-212.071C407.185,-185.922 401.754,-147.644 398.058,-121.598"/>
<polygon fill="#6641aa" stroke="#6641aa" points="410.935,-212.355 407.885,-222.888 411.638,-217.305 412.34,-222.256 412.34,-222.256 412.34,-222.256 411.638,-217.305 416.796,-221.623 410.935,-212.355 410.935,-212.355"/>
<polygon fill="#6641aa" stroke="#6641aa" points="398.043,-121.493 401.093,-110.96 397.341,-116.543 396.638,-111.592 396.638,-111.592 396.638,-111.592 397.341,-116.543 392.183,-112.224 398.043,-121.493 398.043,-121.493"/>
</g>
<!-- InternshipsUser -->
<g id="node7" class="node"><title>InternshipsUser</title>
<ellipse fill="none" stroke="black" cx="616" cy="-417" rx="87.889" ry="18.3848"/>
<text text-anchor="middle" x="616" y="-413.4" font-family="Times Roman,serif" font-size="14.00">InternshipsUser</text>
</g>
<!-- InternshipsTask -->
<g id="node8" class="node"><title>InternshipsTask</title>
<ellipse fill="none" stroke="black" cx="809" cy="-417" rx="87.1802" ry="18.3848"/>
<text text-anchor="middle" x="809" y="-413.4" font-family="Times Roman,serif" font-size="14.00">InternshipsTask</text>
</g>
<!-- Locality -->
<g id="node9" class="node"><title>Locality</title>
<ellipse fill="none" stroke="black" cx="457" cy="-315" rx="48.9975" ry="18.3848"/>
<text text-anchor="middle" x="457" y="-311.4" font-family="Times Roman,serif" font-size="14.00">Locality</text>
</g>
<!-- Locality&#45;&gt;Company -->
<g id="edge18" class="edge"><title>Locality&#45;&gt;Company</title>
<path fill="none" stroke="#61acf1" d="M442.651,-289.718C438.406,-282.238 433.756,-274.047 429.502,-266.55"/>
<ellipse fill="none" stroke="#61acf1" cx="444.644" cy="-293.229" rx="4.00002" ry="4.00002"/>
<ellipse fill="#61acf1" stroke="#61acf1" cx="427.383" cy="-262.817" rx="4.00002" ry="4.00002"/>
</g>
<!-- Locality&#45;&gt;User -->
<g id="edge16" class="edge"><title>Locality&#45;&gt;User</title>
<path fill="none" stroke="#4acb7c" d="M471.362,-289.122C479.909,-270.367 487.867,-244.464 481,-222 468.241,-180.264 436.935,-139.827 415.574,-115.674"/>
<ellipse fill="none" stroke="#4acb7c" cx="469.445" cy="-293.089" rx="4.00002" ry="4.00002"/>
<ellipse fill="#4acb7c" stroke="#4acb7c" cx="412.782" cy="-112.572" rx="4.00002" ry="4.00002"/>
</g>
<!-- Treatment -->
<g id="node10" class="node"><title>Treatment</title>
<ellipse fill="none" stroke="black" cx="278" cy="-241" rx="62.2254" ry="18.3848"/>
<text text-anchor="middle" x="278" y="-237.4" font-family="Times Roman,serif" font-size="14.00">Treatment</text>
</g>
<!-- Treatment&#45;&gt;Internship -->
<g id="edge22" class="edge"><title>Treatment&#45;&gt;Internship</title>
<path fill="none" stroke="#d8432c" d="M278,-214.309C278,-208.377 278,-202.061 278,-196.04"/>
<ellipse fill="none" stroke="#d8432c" cx="278" cy="-218.327" rx="4" ry="4"/>
<polygon fill="#d8432c" stroke="#d8432c" points="278,-195.667 282.5,-185.667 278,-190.667 278,-185.667 278,-185.667 278,-185.667 278,-190.667 273.5,-185.667 278,-195.667 278,-195.667"/>
</g>
<!-- Treatment&#45;&gt;User -->
<g id="edge20" class="edge"><title>Treatment&#45;&gt;User</title>
<path fill="none" stroke="#2a58da" d="M311.788,-219.217C324.253,-210.031 337.806,-198.552 348,-186 363.859,-166.472 376.104,-140.573 383.959,-121.066"/>
<ellipse fill="none" stroke="#2a58da" cx="308.256" cy="-221.748" rx="4.00002" ry="4.00002"/>
<polygon fill="#2a58da" stroke="#2a58da" points="384.048,-120.839 391.858,-113.142 385.855,-116.177 387.663,-111.515 387.663,-111.515 387.663,-111.515 385.855,-116.177 383.467,-109.888 384.048,-120.839 384.048,-120.839"/>
</g>
<!-- User&#45;&gt;Contract -->
<g id="edge24" class="edge"><title>User&#45;&gt;Contract</title>
<path fill="none" stroke="#cab3b3" d="M367.159,-72.9368C354.48,-63.4599 339.273,-52.0927 326.095,-42.2424"/>
<ellipse fill="none" stroke="#cab3b3" cx="370.762" cy="-75.6302" rx="4.00002" ry="4.00002"/>
<polygon fill="#cab3b3" stroke="#cab3b3" points="325.784,-42.0106 320.469,-32.4192 321.78,-39.0171 317.775,-36.0235 317.775,-36.0235 317.775,-36.0235 321.78,-39.0171 315.081,-39.6279 325.784,-42.0106 325.784,-42.0106"/>
</g>
<!-- Study -->
<g id="node15" class="node"><title>Study</title>
<ellipse fill="none" stroke="black" cx="479" cy="-19" rx="39.8075" ry="18.3848"/>
<text text-anchor="middle" x="479" y="-15.4" font-family="Times Roman,serif" font-size="14.00">Study</text>
</g>
<!-- User&#45;&gt;Study -->
<g id="edge28" class="edge"><title>User&#45;&gt;Study</title>
<path fill="none" stroke="#c0bbfe" d="M418.283,-71.8591C428.975,-62.5514 441.563,-51.5921 452.497,-42.073"/>
<ellipse fill="none" stroke="#c0bbfe" cx="415.043" cy="-74.68" rx="4.00002" ry="4.00002"/>
<polygon fill="#c0bbfe" stroke="#c0bbfe" points="452.574,-42.0064 463.071,-38.8342 456.345,-38.7233 460.116,-35.4402 460.116,-35.4402 460.116,-35.4402 456.345,-38.7233 457.161,-32.0462 452.574,-42.0064 452.574,-42.0064"/>
</g>
<!-- Job -->
<g id="node16" class="node"><title>Job</title>
<ellipse fill="none" stroke="black" cx="394" cy="-19" rx="27" ry="18.3848"/>
<text text-anchor="middle" x="394" y="-15.4" font-family="Times Roman,serif" font-size="14.00">Job</text>
</g>
<!-- User&#45;&gt;Job -->
<g id="edge26" class="edge"><title>User&#45;&gt;Job</title>
<path fill="none" stroke="#d53706" d="M394,-66.309C394,-60.3769 394,-54.0606 394,-48.0396"/>
<ellipse fill="none" stroke="#d53706" cx="394" cy="-70.3267" rx="4" ry="4"/>
<polygon fill="#d53706" stroke="#d53706" points="394,-47.6674 398.5,-37.6673 394,-42.6674 394,-37.6674 394,-37.6674 394,-37.6674 394,-42.6674 389.5,-37.6674 394,-47.6674 394,-47.6674"/>
</g>
<!-- Skill -->
<g id="node13" class="node"><title>Skill</title>
<ellipse fill="none" stroke="black" cx="946" cy="-417" rx="31.8198" ry="18.3848"/>
<text text-anchor="middle" x="946" y="-413.4" font-family="Times Roman,serif" font-size="14.00">Skill</text>
</g>
<!-- Province -->
<g id="node14" class="node"><title>Province</title>
<ellipse fill="none" stroke="black" cx="457" cy="-417" rx="53.2379" ry="18.3848"/>
<text text-anchor="middle" x="457" y="-413.4" font-family="Times Roman,serif" font-size="14.00">Province</text>
</g>
<!-- Province&#45;&gt;Locality -->
<g id="edge30" class="edge"><title>Province&#45;&gt;Locality</title>
<path fill="none" stroke="#d55d15" d="M457,-390.015C457,-375.835 457,-358.445 457,-343.98"/>
<ellipse fill="none" stroke="#d55d15" cx="457" cy="-394.292" rx="4" ry="4"/>
<polygon fill="#d55d15" stroke="#d55d15" points="457,-343.59 461.5,-333.59 457,-338.59 457,-333.59 457,-333.59 457,-333.59 457,-338.59 452.5,-333.59 457,-343.59 457,-343.59"/>
</g>
</g>
</svg>
