<?xml version="1.0" encoding="UTF-8" standalone="no"?>
<!DOCTYPE svg PUBLIC "-//W3C//DTD SVG 1.1//EN"
 "http://www.w3.org/Graphics/SVG/1.1/DTD/svg11.dtd">
<!-- Generated by graphviz version 2.26.3 (20100126.1600)
 -->
<!-- Title: models_diagram Pages: 1 -->
<svg width="850pt" height="472pt"
 viewBox="0.00 0.00 850.00 472.00" xmlns="http://www.w3.org/2000/svg" xmlns:xlink="http://www.w3.org/1999/xlink">
<g id="graph1" class="graph" transform="scale(1 1) rotate(0) translate(4 468)">
<title>models_diagram</title>
<polygon fill="white" stroke="white" points="-4,5 -4,-468 847,-468 847,5 -4,5"/>
<!-- _diagram_info -->
<g id="node1" class="node"><title>_diagram_info</title>
<text text-anchor="start" x="8" y="-447.8" font-family="Times Roman,serif" font-size="13.00">Models diagram</text>
<text text-anchor="start" x="8" y="-430.8" font-family="Times Roman,serif" font-size="13.00">Date: Jun 10 2013 &#45; 15:42</text>
<text text-anchor="start" x="8" y="-413.8" font-family="Times Roman,serif" font-size="13.00">Migration version: 20130610184034</text>
<text text-anchor="start" x="8" y="-396.8" font-family="Times Roman,serif" font-size="13.00">Generated by RailRoady 1.1.0</text>
<text text-anchor="start" x="8" y="-379.8" font-family="Times Roman,serif" font-size="13.00">http://railroady.prestonlee.com</text>
</g>
<!-- User -->
<g id="node2" class="node"><title>User</title>
<ellipse fill="none" stroke="black" cx="412" cy="-241" rx="33.9411" ry="18.3848"/>
<text text-anchor="middle" x="412" y="-237.4" font-family="Times Roman,serif" font-size="14.00">User</text>
</g>
<!-- Company -->
<g id="node3" class="node"><title>Company</title>
<ellipse fill="none" stroke="black" cx="129" cy="-167" rx="56.7776" ry="18.3848"/>
<text text-anchor="middle" x="129" y="-163.4" font-family="Times Roman,serif" font-size="14.00">Company</text>
</g>
<!-- User&#45;&gt;Company -->
<g id="edge10" class="edge"><title>User&#45;&gt;Company</title>
<path fill="none" stroke="#8cd495" d="M371.343,-230.551C328.649,-219.554 259.57,-201.698 200,-186 194.388,-184.521 188.528,-182.968 182.687,-181.414"/>
<polygon fill="#8cd495" stroke="#8cd495" points="371.4,-230.565 379.962,-237.416 376.242,-231.812 381.084,-233.058 381.084,-233.058 381.084,-233.058 376.242,-231.812 382.206,-228.7 371.4,-230.565 371.4,-230.565"/>
<polygon fill="#8cd495" stroke="#8cd495" points="182.583,-181.386 174.08,-174.461 177.751,-180.098 172.92,-178.809 172.92,-178.809 172.92,-178.809 177.751,-180.098 171.761,-183.158 182.583,-181.386 182.583,-181.386"/>
</g>
<!-- Contract -->
<g id="node4" class="node"><title>Contract</title>
<ellipse fill="none" stroke="black" cx="214" cy="-19" rx="53.9477" ry="18.3848"/>
<text text-anchor="middle" x="214" y="-15.4" font-family="Times Roman,serif" font-size="14.00">Contract</text>
</g>
<!-- User&#45;&gt;Contract -->
<g id="edge2" class="edge"><title>User&#45;&gt;Contract</title>
<path fill="none" stroke="#452a4d" d="M371.469,-233.849C324.338,-224.666 250.719,-207.338 233,-186 200.594,-146.974 203.438,-83.9422 208.601,-47.5034"/>
<ellipse fill="none" stroke="#452a4d" cx="375.438" cy="-234.608" rx="4.00001" ry="4.00001"/>
<polygon fill="#452a4d" stroke="#452a4d" points="208.615,-47.4174 214.612,-38.2368 209.391,-42.478 210.166,-37.5385 210.166,-37.5385 210.166,-37.5385 209.391,-42.478 205.721,-36.8402 208.615,-47.4174 208.615,-47.4174"/>
</g>
<!-- Study -->
<g id="node5" class="node"><title>Study</title>
<ellipse fill="none" stroke="black" cx="412" cy="-167" rx="39.8075" ry="18.3848"/>
<text text-anchor="middle" x="412" y="-163.4" font-family="Times Roman,serif" font-size="14.00">Study</text>
</g>
<!-- User&#45;&gt;Study -->
<g id="edge4" class="edge"><title>User&#45;&gt;Study</title>
<path fill="none" stroke="#6c3dc8" d="M412,-214.309C412,-208.377 412,-202.061 412,-196.04"/>
<ellipse fill="none" stroke="#6c3dc8" cx="412" cy="-218.327" rx="4" ry="4"/>
<polygon fill="#6c3dc8" stroke="#6c3dc8" points="412,-195.667 416.5,-185.667 412,-190.667 412,-185.667 412,-185.667 412,-185.667 412,-190.667 407.5,-185.667 412,-195.667 412,-195.667"/>
</g>
<!-- Internship -->
<g id="node8" class="node"><title>Internship</title>
<ellipse fill="none" stroke="black" cx="311" cy="-93" rx="61.0181" ry="18.3848"/>
<text text-anchor="middle" x="311" y="-89.4" font-family="Times Roman,serif" font-size="14.00">Internship</text>
</g>
<!-- User&#45;&gt;Internship -->
<g id="edge8" class="edge"><title>User&#45;&gt;Internship</title>
<path fill="none" stroke="#230292" d="M454.675,-233.719C482.141,-226.584 515.81,-212.696 533,-186 542.143,-171.8 543.408,-161.301 533,-148 514.072,-123.81 436.941,-108.77 378.87,-100.656"/>
<polygon fill="#230292" stroke="#230292" points="454.606,-233.736 443.835,-231.677 449.742,-234.895 444.878,-236.054 444.878,-236.054 444.878,-236.054 449.742,-234.895 445.921,-240.431 454.606,-233.736 454.606,-233.736"/>
<polygon fill="#230292" stroke="#230292" points="378.542,-100.612 369.237,-94.8099 373.587,-99.9406 368.632,-99.2692 368.632,-99.2692 368.632,-99.2692 373.587,-99.9406 368.028,-103.728 378.542,-100.612 378.542,-100.612"/>
</g>
<!-- Job -->
<g id="node13" class="node"><title>Job</title>
<ellipse fill="none" stroke="black" cx="497" cy="-167" rx="27" ry="18.3848"/>
<text text-anchor="middle" x="497" y="-163.4" font-family="Times Roman,serif" font-size="14.00">Job</text>
</g>
<!-- User&#45;&gt;Job -->
<g id="edge6" class="edge"><title>User&#45;&gt;Job</title>
<path fill="none" stroke="#f09007" d="M436.219,-219.916C447.52,-210.077 460.952,-198.383 472.311,-188.494"/>
<ellipse fill="none" stroke="#f09007" cx="433.043" cy="-222.68" rx="4.00002" ry="4.00002"/>
<polygon fill="#f09007" stroke="#f09007" points="472.614,-188.23 483.111,-185.058 476.385,-184.947 480.156,-181.664 480.156,-181.664 480.156,-181.664 476.385,-184.947 477.201,-178.27 472.614,-188.23 472.614,-188.23"/>
</g>
<!-- Company&#45;&gt;Internship -->
<g id="edge12" class="edge"><title>Company&#45;&gt;Internship</title>
<path fill="none" stroke="#8c92c5" d="M172.635,-149.258C200.594,-137.89 236.824,-123.16 265.197,-111.623"/>
<ellipse fill="none" stroke="#8c92c5" cx="168.663" cy="-150.873" rx="4.00001" ry="4.00001"/>
<polygon fill="#8c92c5" stroke="#8c92c5" points="265.231,-111.609 276.189,-112.012 269.863,-109.726 274.494,-107.843 274.494,-107.843 274.494,-107.843 269.863,-109.726 272.799,-103.674 265.231,-111.609 265.231,-111.609"/>
</g>
<!-- InternshipsUser -->
<g id="node6" class="node"><title>InternshipsUser</title>
<ellipse fill="none" stroke="black" cx="480" cy="-417" rx="87.889" ry="18.3848"/>
<text text-anchor="middle" x="480" y="-413.4" font-family="Times Roman,serif" font-size="14.00">InternshipsUser</text>
</g>
<!-- Province -->
<g id="node7" class="node"><title>Province</title>
<ellipse fill="none" stroke="black" cx="321" cy="-417" rx="53.2379" ry="18.3848"/>
<text text-anchor="middle" x="321" y="-413.4" font-family="Times Roman,serif" font-size="14.00">Province</text>
</g>
<!-- Locality -->
<g id="node12" class="node"><title>Locality</title>
<ellipse fill="none" stroke="black" cx="321" cy="-315" rx="48.9975" ry="18.3848"/>
<text text-anchor="middle" x="321" y="-311.4" font-family="Times Roman,serif" font-size="14.00">Locality</text>
</g>
<!-- Province&#45;&gt;Locality -->
<g id="edge14" class="edge"><title>Province&#45;&gt;Locality</title>
<path fill="none" stroke="#4f3641" d="M321,-390.015C321,-375.835 321,-358.445 321,-343.98"/>
<ellipse fill="none" stroke="#4f3641" cx="321" cy="-394.292" rx="4" ry="4"/>
<polygon fill="#4f3641" stroke="#4f3641" points="321,-343.59 325.5,-333.59 321,-338.59 321,-333.59 321,-333.59 321,-333.59 321,-338.59 316.5,-333.59 321,-343.59 321,-343.59"/>
</g>
<!-- Internship&#45;&gt;Contract -->
<g id="edge16" class="edge"><title>Internship&#45;&gt;Contract</title>
<path fill="none" stroke="#56ebd5" d="M281.523,-70.512C269.778,-61.5525 256.266,-51.2438 244.429,-42.2136"/>
<ellipse fill="none" stroke="#56ebd5" cx="284.832" cy="-73.0369" rx="4.00002" ry="4.00002"/>
<polygon fill="#56ebd5" stroke="#56ebd5" points="244.106,-41.9671 238.884,-32.324 240.13,-38.9344 236.155,-35.9017 236.155,-35.9017 236.155,-35.9017 240.13,-38.9344 233.426,-39.4795 244.106,-41.9671 244.106,-41.9671"/>
</g>
<!-- Task -->
<g id="node9" class="node"><title>Task</title>
<ellipse fill="none" stroke="black" cx="319" cy="-19" rx="33.234" ry="18.3848"/>
<text text-anchor="middle" x="319" y="-15.4" font-family="Times Roman,serif" font-size="14.00">Task</text>
</g>
<!-- Internship&#45;&gt;Task -->
<g id="edge18" class="edge"><title>Internship&#45;&gt;Task</title>
<path fill="none" stroke="#79179e" d="M314.105,-64.2819C314.693,-58.8362 315.309,-53.1382 315.898,-47.6933"/>
<polygon fill="#79179e" stroke="#79179e" points="314.094,-64.3846 308.545,-73.843 313.556,-69.3556 313.019,-74.3267 313.019,-74.3267 313.019,-74.3267 313.556,-69.3556 317.493,-74.8104 314.094,-64.3846 314.094,-64.3846"/>
<polygon fill="#79179e" stroke="#79179e" points="315.907,-47.6094 321.456,-38.1511 316.444,-42.6384 316.982,-37.6674 316.982,-37.6674 316.982,-37.6674 316.444,-42.6384 312.508,-37.1836 315.907,-47.6094 315.907,-47.6094"/>
</g>
<!-- Situation -->
<g id="node10" class="node"><title>Situation</title>
<ellipse fill="none" stroke="black" cx="298" cy="-167" rx="56.0679" ry="18.3848"/>
<text text-anchor="middle" x="298" y="-163.4" font-family="Times Roman,serif" font-size="14.00">Situation</text>
</g>
<!-- Situation&#45;&gt;Internship -->
<g id="edge20" class="edge"><title>Situation&#45;&gt;Internship</title>
<path fill="none" stroke="#be225b" d="M302.689,-140.309C303.757,-134.229 304.896,-127.745 305.978,-121.589"/>
<ellipse fill="none" stroke="#be225b" cx="301.973" cy="-144.387" rx="4.00001" ry="4.00001"/>
<polygon fill="#be225b" stroke="#be225b" points="305.99,-121.517 312.153,-112.446 306.855,-116.592 307.721,-111.667 307.721,-111.667 307.721,-111.667 306.855,-116.592 303.288,-110.889 305.99,-121.517 305.99,-121.517"/>
</g>
<!-- Treatment -->
<g id="node11" class="node"><title>Treatment</title>
<ellipse fill="none" stroke="black" cx="501" cy="-315" rx="62.2254" ry="18.3848"/>
<text text-anchor="middle" x="501" y="-311.4" font-family="Times Roman,serif" font-size="14.00">Treatment</text>
</g>
<!-- Treatment&#45;&gt;User -->
<g id="edge22" class="edge"><title>Treatment&#45;&gt;User</title>
<path fill="none" stroke="#ae4a04" d="M473.734,-292.329C462.55,-283.031 449.65,-272.304 438.543,-263.069"/>
<ellipse fill="none" stroke="#ae4a04" cx="476.833" cy="-294.906" rx="4.00002" ry="4.00002"/>
<polygon fill="#ae4a04" stroke="#ae4a04" points="438.511,-263.043 433.699,-253.189 434.667,-259.846 430.822,-256.65 430.822,-256.65 430.822,-256.65 434.667,-259.846 427.945,-260.11 438.511,-263.043 438.511,-263.043"/>
</g>
<!-- Treatment&#45;&gt;Internship -->
<g id="edge24" class="edge"><title>Treatment&#45;&gt;Internship</title>
<path fill="none" stroke="#84f6a7" d="M520.748,-290.285C546.28,-255.148 583.696,-190.331 550,-148 529.026,-121.651 442.711,-106.865 379.817,-99.4119"/>
<ellipse fill="none" stroke="#84f6a7" cx="518.212" cy="-293.692" rx="4.00002" ry="4.00002"/>
<polygon fill="#84f6a7" stroke="#84f6a7" points="379.481,-99.3735 370.059,-93.764 374.514,-98.8041 369.546,-98.2347 369.546,-98.2347 369.546,-98.2347 374.514,-98.8041 369.034,-102.705 379.481,-99.3735 379.481,-99.3735"/>
</g>
<!-- Locality&#45;&gt;User -->
<g id="edge26" class="edge"><title>Locality&#45;&gt;User</title>
<path fill="none" stroke="#08ddb8" d="M348.056,-292.998C360.257,-283.077 374.587,-271.424 386.586,-261.666"/>
<ellipse fill="none" stroke="#08ddb8" cx="344.753" cy="-295.685" rx="4.00002" ry="4.00002"/>
<ellipse fill="#08ddb8" stroke="#08ddb8" cx="389.881" cy="-258.987" rx="4.00002" ry="4.00002"/>
</g>
<!-- Locality&#45;&gt;Company -->
<g id="edge28" class="edge"><title>Locality&#45;&gt;Company</title>
<path fill="none" stroke="#4a31e9" d="M292.99,-293.409C256.809,-265.52 194.157,-217.225 157.661,-189.093"/>
<ellipse fill="none" stroke="#4a31e9" cx="296.18" cy="-295.868" rx="4.00002" ry="4.00002"/>
<ellipse fill="#4a31e9" stroke="#4a31e9" cx="154.331" cy="-186.526" rx="4.00002" ry="4.00002"/>
</g>
<!-- Skill -->
<g id="node14" class="node"><title>Skill</title>
<ellipse fill="none" stroke="black" cx="618" cy="-417" rx="31.8198" ry="18.3848"/>
<text text-anchor="middle" x="618" y="-413.4" font-family="Times Roman,serif" font-size="14.00">Skill</text>
</g>
<!-- InternshipsTask -->
<g id="node15" class="node"><title>InternshipsTask</title>
<ellipse fill="none" stroke="black" cx="755" cy="-417" rx="87.1802" ry="18.3848"/>
<text text-anchor="middle" x="755" y="-413.4" font-family="Times Roman,serif" font-size="14.00">InternshipsTask</text>
</g>
</g>
</svg>
