<?xml version="1.0" encoding="UTF-8" standalone="no"?>
<!DOCTYPE svg PUBLIC "-//W3C//DTD SVG 1.1//EN"
 "http://www.w3.org/Graphics/SVG/1.1/DTD/svg11.dtd">
<!-- Generated by graphviz version 2.26.3 (20100126.1600)
 -->
<!-- Title: models_diagram Pages: 1 -->
<svg width="768pt" height="472pt"
 viewBox="0.00 0.00 768.00 472.00" xmlns="http://www.w3.org/2000/svg" xmlns:xlink="http://www.w3.org/1999/xlink">
<g id="graph1" class="graph" transform="scale(1 1) rotate(0) translate(4 468)">
<title>models_diagram</title>
<polygon fill="white" stroke="white" points="-4,5 -4,-468 765,-468 765,5 -4,5"/>
<!-- _diagram_info -->
<g id="node1" class="node"><title>_diagram_info</title>
<text text-anchor="start" x="8" y="-447.8" font-family="Times Roman,serif" font-size="13.00">Models diagram</text>
<text text-anchor="start" x="8" y="-430.8" font-family="Times Roman,serif" font-size="13.00">Date: Feb 24 2013 &#45; 18:48</text>
<text text-anchor="start" x="8" y="-413.8" font-family="Times Roman,serif" font-size="13.00">Migration version: 20130224213735</text>
<text text-anchor="start" x="8" y="-396.8" font-family="Times Roman,serif" font-size="13.00">Generated by RailRoady 1.1.0</text>
<text text-anchor="start" x="8" y="-379.8" font-family="Times Roman,serif" font-size="13.00">http://railroady.prestonlee.com</text>
</g>
<!-- Company -->
<g id="node2" class="node"><title>Company</title>
<ellipse fill="none" stroke="black" cx="364" cy="-241" rx="56.7776" ry="18.3848"/>
<text text-anchor="middle" x="364" y="-237.4" font-family="Times Roman,serif" font-size="14.00">Company</text>
</g>
<!-- User -->
<g id="node9" class="node"><title>User</title>
<ellipse fill="none" stroke="black" cx="302" cy="-167" rx="33.9411" ry="18.3848"/>
<text text-anchor="middle" x="302" y="-163.4" font-family="Times Roman,serif" font-size="14.00">User</text>
</g>
<!-- Company&#45;&gt;User -->
<g id="edge4" class="edge"><title>Company&#45;&gt;User</title>
<path fill="none" stroke="#2e22c0" d="M342.34,-215.148C335.986,-207.564 329.054,-199.29 322.757,-191.775"/>
<polygon fill="#2e22c0" stroke="#2e22c0" points="342.569,-215.421 345.542,-225.977 345.78,-219.254 348.992,-223.087 348.992,-223.087 348.992,-223.087 345.78,-219.254 352.441,-220.197 342.569,-215.421 342.569,-215.421"/>
<polygon fill="#2e22c0" stroke="#2e22c0" points="322.654,-191.651 319.681,-181.096 319.442,-187.818 316.231,-183.986 316.231,-183.986 316.231,-183.986 319.442,-187.818 312.782,-186.876 322.654,-191.651 322.654,-191.651"/>
</g>
<!-- Internship -->
<g id="node10" class="node"><title>Internship</title>
<ellipse fill="none" stroke="black" cx="259" cy="-93" rx="61.0181" ry="18.3848"/>
<text text-anchor="middle" x="259" y="-89.4" font-family="Times Roman,serif" font-size="14.00">Internship</text>
</g>
<!-- Company&#45;&gt;Internship -->
<g id="edge2" class="edge"><title>Company&#45;&gt;Internship</title>
<path fill="none" stroke="#09b12c" d="M363.972,-214.2C362.734,-194.356 358.385,-167.495 345,-148 334.853,-133.222 319.299,-121.535 304.194,-112.805"/>
<ellipse fill="none" stroke="#09b12c" cx="364.151" cy="-218.236" rx="4" ry="4"/>
<polygon fill="#09b12c" stroke="#09b12c" points="304.176,-112.794 297.553,-104.054 299.787,-110.4 295.397,-108.005 295.397,-108.005 295.397,-108.005 299.787,-110.4 293.242,-111.955 304.176,-112.794 304.176,-112.794"/>
</g>
<!-- InternshipsTask -->
<g id="node3" class="node"><title>InternshipsTask</title>
<ellipse fill="none" stroke="black" cx="479" cy="-417" rx="87.1802" ry="18.3848"/>
<text text-anchor="middle" x="479" y="-413.4" font-family="Times Roman,serif" font-size="14.00">InternshipsTask</text>
</g>
<!-- Contract -->
<g id="node4" class="node"><title>Contract</title>
<ellipse fill="none" stroke="black" cx="259" cy="-19" rx="53.9477" ry="18.3848"/>
<text text-anchor="middle" x="259" y="-15.4" font-family="Times Roman,serif" font-size="14.00">Contract</text>
</g>
<!-- Situation -->
<g id="node5" class="node"><title>Situation</title>
<ellipse fill="none" stroke="black" cx="110" cy="-167" rx="56.0679" ry="18.3848"/>
<text text-anchor="middle" x="110" y="-163.4" font-family="Times Roman,serif" font-size="14.00">Situation</text>
</g>
<!-- Situation&#45;&gt;Internship -->
<g id="edge6" class="edge"><title>Situation&#45;&gt;Internship</title>
<path fill="none" stroke="#7b997a" d="M148.565,-147.847C169.887,-137.257 196.374,-124.103 218.063,-113.331"/>
<ellipse fill="none" stroke="#7b997a" cx="144.818" cy="-149.708" rx="4.00002" ry="4.00002"/>
<polygon fill="#7b997a" stroke="#7b997a" points="218.079,-113.323 229.037,-112.906 222.557,-111.099 227.035,-108.875 227.035,-108.875 227.035,-108.875 222.557,-111.099 225.033,-104.845 218.079,-113.323 218.079,-113.323"/>
</g>
<!-- Task -->
<g id="node6" class="node"><title>Task</title>
<ellipse fill="none" stroke="black" cx="217" cy="-167" rx="33.234" ry="18.3848"/>
<text text-anchor="middle" x="217" y="-163.4" font-family="Times Roman,serif" font-size="14.00">Task</text>
</g>
<!-- Task&#45;&gt;Internship -->
<g id="edge8" class="edge"><title>Task&#45;&gt;Internship</title>
<path fill="none" stroke="#5e12cc" d="M232.177,-140.26C235.848,-133.792 239.776,-126.87 243.464,-120.374"/>
<polygon fill="#5e12cc" stroke="#5e12cc" points="232.103,-140.39 223.253,-146.865 229.635,-144.738 227.167,-149.087 227.167,-149.087 227.167,-149.087 229.635,-144.738 231.081,-151.308 232.103,-140.39 232.103,-140.39"/>
<polygon fill="#5e12cc" stroke="#5e12cc" points="243.699,-119.959 252.548,-113.484 246.167,-115.611 248.635,-111.262 248.635,-111.262 248.635,-111.262 246.167,-115.611 244.721,-109.041 243.699,-119.959 243.699,-119.959"/>
</g>
<!-- Province -->
<g id="node7" class="node"><title>Province</title>
<ellipse fill="none" stroke="black" cx="321" cy="-417" rx="53.2379" ry="18.3848"/>
<text text-anchor="middle" x="321" y="-413.4" font-family="Times Roman,serif" font-size="14.00">Province</text>
</g>
<!-- Locality -->
<g id="node11" class="node"><title>Locality</title>
<ellipse fill="none" stroke="black" cx="321" cy="-315" rx="48.9975" ry="18.3848"/>
<text text-anchor="middle" x="321" y="-311.4" font-family="Times Roman,serif" font-size="14.00">Locality</text>
</g>
<!-- Province&#45;&gt;Locality -->
<g id="edge10" class="edge"><title>Province&#45;&gt;Locality</title>
<path fill="none" stroke="#92556c" d="M321,-390.015C321,-375.835 321,-358.445 321,-343.98"/>
<ellipse fill="none" stroke="#92556c" cx="321" cy="-394.292" rx="4" ry="4"/>
<polygon fill="#92556c" stroke="#92556c" points="321,-343.59 325.5,-333.59 321,-338.59 321,-333.59 321,-333.59 321,-333.59 321,-338.59 316.5,-333.59 321,-343.59 321,-343.59"/>
</g>
<!-- InternshipsUser -->
<g id="node8" class="node"><title>InternshipsUser</title>
<ellipse fill="none" stroke="black" cx="672" cy="-417" rx="87.889" ry="18.3848"/>
<text text-anchor="middle" x="672" y="-413.4" font-family="Times Roman,serif" font-size="14.00">InternshipsUser</text>
</g>
<!-- User&#45;&gt;Internship -->
<g id="edge12" class="edge"><title>User&#45;&gt;Internship</title>
<path fill="none" stroke="#f75190" d="M286.462,-140.26C282.616,-133.642 278.494,-126.548 274.643,-119.921"/>
<polygon fill="#f75190" stroke="#f75190" points="286.567,-140.44 287.7,-151.348 289.079,-144.764 291.591,-149.087 291.591,-149.087 291.591,-149.087 289.079,-144.764 295.482,-146.826 286.567,-140.44 286.567,-140.44"/>
<polygon fill="#f75190" stroke="#f75190" points="274.636,-119.909 273.503,-109.002 272.124,-115.586 269.612,-111.262 269.612,-111.262 269.612,-111.262 272.124,-115.586 265.721,-113.523 274.636,-119.909 274.636,-119.909"/>
</g>
<!-- Internship&#45;&gt;Contract -->
<g id="edge14" class="edge"><title>Internship&#45;&gt;Contract</title>
<path fill="none" stroke="#29ef1f" d="M259,-66.309C259,-60.3769 259,-54.0606 259,-48.0396"/>
<ellipse fill="none" stroke="#29ef1f" cx="259" cy="-70.3267" rx="4" ry="4"/>
<polygon fill="#29ef1f" stroke="#29ef1f" points="259,-47.6674 263.5,-37.6673 259,-42.6674 259,-37.6674 259,-37.6674 259,-37.6674 259,-42.6674 254.5,-37.6674 259,-47.6674 259,-47.6674"/>
</g>
<!-- Locality&#45;&gt;Company -->
<g id="edge18" class="edge"><title>Locality&#45;&gt;Company</title>
<path fill="none" stroke="#152a7c" d="M335.691,-289.718C340.037,-282.238 344.797,-274.047 349.153,-266.55"/>
<ellipse fill="none" stroke="#152a7c" cx="333.639" cy="-293.249" rx="4.00002" ry="4.00002"/>
<ellipse fill="#152a7c" stroke="#152a7c" cx="351.334" cy="-262.797" rx="4.00002" ry="4.00002"/>
</g>
<!-- Locality&#45;&gt;User -->
<g id="edge16" class="edge"><title>Locality&#45;&gt;User</title>
<path fill="none" stroke="#767317" d="M307.745,-289.222C303.791,-280.219 299.984,-269.889 298,-260 293.588,-238.015 295.134,-212.542 297.475,-193.821"/>
<ellipse fill="none" stroke="#767317" cx="309.54" cy="-293.115" rx="4.00002" ry="4.00002"/>
<ellipse fill="#767317" stroke="#767317" cx="298.043" cy="-189.693" rx="4.00001" ry="4.00001"/>
</g>
</g>
</svg>
