<?xml version="1.0" encoding="UTF-8" standalone="no"?>
<!DOCTYPE svg PUBLIC "-//W3C//DTD SVG 1.1//EN"
 "http://www.w3.org/Graphics/SVG/1.1/DTD/svg11.dtd">
<!-- Generated by graphviz version 2.38.0 (20140413.2041)
 -->
<!-- Title: models_diagram Pages: 1 -->
<svg width="1120pt" height="1685pt"
 viewBox="0.00 0.00 1120.00 1685.00" xmlns="http://www.w3.org/2000/svg" xmlns:xlink="http://www.w3.org/1999/xlink">
<g id="graph0" class="graph" transform="scale(1 1) rotate(0) translate(4 1681)">
<title>models_diagram</title>
<polygon fill="white" stroke="none" points="-4,4 -4,-1681 1116,-1681 1116,4 -4,4"/>
<!-- _diagram_info -->
<g id="node1" class="node"><title>_diagram_info</title>
<text text-anchor="start" x="310.5" y="-1655.6" font-family="Times,serif" font-size="13.00">Models diagram</text>
<text text-anchor="start" x="310.5" y="-1641.6" font-family="Times,serif" font-size="13.00">Date: Mar 03 2015 &#45; 09:30</text>
<text text-anchor="start" x="310.5" y="-1627.6" font-family="Times,serif" font-size="13.00">Migration version: 20150301221325</text>
<text text-anchor="start" x="310.5" y="-1613.6" font-family="Times,serif" font-size="13.00">Generated by RailRoady 1.1.0</text>
<text text-anchor="start" x="310.5" y="-1599.6" font-family="Times,serif" font-size="13.00">http://railroady.prestonlee.com</text>
</g>
<!-- Situation -->
<g id="node2" class="node"><title>Situation</title>
<path fill="none" stroke="black" d="M162,-1217C162,-1217 270,-1217 270,-1217 276,-1217 282,-1223 282,-1229 282,-1229 282,-1296 282,-1296 282,-1302 276,-1308 270,-1308 270,-1308 162,-1308 162,-1308 156,-1308 150,-1302 150,-1296 150,-1296 150,-1229 150,-1229 150,-1223 156,-1217 162,-1217"/>
<text text-anchor="middle" x="216" y="-1292.8" font-family="Times,serif" font-size="14.00">Situation</text>
<polyline fill="none" stroke="black" points="150,-1285 282,-1285 "/>
<text text-anchor="start" x="158" y="-1269.8" font-family="Times,serif" font-size="14.00">id :integer</text>
<text text-anchor="start" x="158" y="-1254.8" font-family="Times,serif" font-size="14.00">status :string</text>
<text text-anchor="start" x="158" y="-1239.8" font-family="Times,serif" font-size="14.00">created_at :datetime</text>
<text text-anchor="start" x="158" y="-1224.8" font-family="Times,serif" font-size="14.00">updated_at :datetime</text>
</g>
<!-- Internship -->
<g id="node4" class="node"><title>Internship</title>
<path fill="none" stroke="black" d="M306.5,-766.5C306.5,-766.5 425.5,-766.5 425.5,-766.5 431.5,-766.5 437.5,-772.5 437.5,-778.5 437.5,-778.5 437.5,-1070.5 437.5,-1070.5 437.5,-1076.5 431.5,-1082.5 425.5,-1082.5 425.5,-1082.5 306.5,-1082.5 306.5,-1082.5 300.5,-1082.5 294.5,-1076.5 294.5,-1070.5 294.5,-1070.5 294.5,-778.5 294.5,-778.5 294.5,-772.5 300.5,-766.5 306.5,-766.5"/>
<text text-anchor="middle" x="366" y="-1067.3" font-family="Times,serif" font-size="14.00">Internship</text>
<polyline fill="none" stroke="black" points="294.5,-1059.5 437.5,-1059.5 "/>
<text text-anchor="start" x="302.5" y="-1044.3" font-family="Times,serif" font-size="14.00">id :integer</text>
<text text-anchor="start" x="302.5" y="-1029.3" font-family="Times,serif" font-size="14.00">company_id :integer</text>
<text text-anchor="start" x="302.5" y="-1014.3" font-family="Times,serif" font-size="14.00">description_job :string</text>
<text text-anchor="start" x="302.5" y="-999.3" font-family="Times,serif" font-size="14.00">situation_id :integer</text>
<text text-anchor="start" x="302.5" y="-984.3" font-family="Times,serif" font-size="14.00">date_from :date</text>
<text text-anchor="start" x="302.5" y="-969.3" font-family="Times,serif" font-size="14.00">date_until :date</text>
<text text-anchor="start" x="302.5" y="-954.3" font-family="Times,serif" font-size="14.00">hs_monday :integer</text>
<text text-anchor="start" x="302.5" y="-939.3" font-family="Times,serif" font-size="14.00">hs_tuesday :integer</text>
<text text-anchor="start" x="302.5" y="-924.3" font-family="Times,serif" font-size="14.00">hs_wednesday :integer</text>
<text text-anchor="start" x="302.5" y="-909.3" font-family="Times,serif" font-size="14.00">hs_thursday :integer</text>
<text text-anchor="start" x="302.5" y="-894.3" font-family="Times,serif" font-size="14.00">hs_friday :integer</text>
<text text-anchor="start" x="302.5" y="-879.3" font-family="Times,serif" font-size="14.00">hs_saturday :integer</text>
<text text-anchor="start" x="302.5" y="-864.3" font-family="Times,serif" font-size="14.00">hs_sunday :integer</text>
<text text-anchor="start" x="302.5" y="-849.3" font-family="Times,serif" font-size="14.00">created_at :datetime</text>
<text text-anchor="start" x="302.5" y="-834.3" font-family="Times,serif" font-size="14.00">updated_at :datetime</text>
<text text-anchor="start" x="302.5" y="-819.3" font-family="Times,serif" font-size="14.00">napplicants :integer</text>
<text text-anchor="start" x="302.5" y="-804.3" font-family="Times,serif" font-size="14.00">horario :boolean</text>
<text text-anchor="start" x="302.5" y="-789.3" font-family="Times,serif" font-size="14.00">description :text</text>
<text text-anchor="start" x="302.5" y="-774.3" font-family="Times,serif" font-size="14.00">type_id :integer</text>
</g>
<!-- Situation&#45;&gt;Internship -->
<g id="edge1" class="edge"><title>Situation&#45;&gt;Internship</title>
<path fill="none" stroke="#9a4517" d="M239.29,-1209.33C253.535,-1177.42 272.629,-1134.65 291.667,-1092.01"/>
<ellipse fill="none" stroke="#9a4517" cx="237.549" cy="-1213.23" rx="4.00002" ry="4.00002"/>
<polygon fill="#9a4517" stroke="#9a4517" points="291.778,-1091.76 299.964,-1084.46 293.816,-1087.19 295.855,-1082.63 295.855,-1082.63 295.855,-1082.63 293.816,-1087.19 291.745,-1080.79 291.778,-1091.76 291.778,-1091.76"/>
</g>
<!-- Contract -->
<g id="node3" class="node"><title>Contract</title>
<path fill="none" stroke="black" d="M316,-60.5C316,-60.5 424,-60.5 424,-60.5 430,-60.5 436,-66.5 436,-72.5 436,-72.5 436,-124.5 436,-124.5 436,-130.5 430,-136.5 424,-136.5 424,-136.5 316,-136.5 316,-136.5 310,-136.5 304,-130.5 304,-124.5 304,-124.5 304,-72.5 304,-72.5 304,-66.5 310,-60.5 316,-60.5"/>
<text text-anchor="middle" x="370" y="-121.3" font-family="Times,serif" font-size="14.00">Contract</text>
<polyline fill="none" stroke="black" points="304,-113.5 436,-113.5 "/>
<text text-anchor="start" x="312" y="-98.3" font-family="Times,serif" font-size="14.00">id :integer</text>
<text text-anchor="start" x="312" y="-83.3" font-family="Times,serif" font-size="14.00">user_id :integer</text>
<text text-anchor="start" x="312" y="-68.3" font-family="Times,serif" font-size="14.00">internship_id :integer</text>
</g>
<!-- Internship&#45;&gt;Contract -->
<g id="edge2" class="edge"><title>Internship&#45;&gt;Contract</title>
<path fill="none" stroke="#857e89" d="M366.804,-757.95C367.733,-566.582 369.206,-263.058 369.77,-146.873"/>
<ellipse fill="none" stroke="#857e89" cx="366.784" cy="-762.086" rx="4" ry="4"/>
<polygon fill="#857e89" stroke="#857e89" points="369.772,-146.549 374.32,-136.571 369.796,-141.549 369.82,-136.549 369.82,-136.549 369.82,-136.549 369.796,-141.549 365.32,-136.527 369.772,-146.549 369.772,-146.549"/>
</g>
<!-- Task -->
<g id="node11" class="node"><title>Task</title>
<path fill="none" stroke="black" d="M222,-436C222,-436 330,-436 330,-436 336,-436 342,-442 342,-448 342,-448 342,-515 342,-515 342,-521 336,-527 330,-527 330,-527 222,-527 222,-527 216,-527 210,-521 210,-515 210,-515 210,-448 210,-448 210,-442 216,-436 222,-436"/>
<text text-anchor="middle" x="276" y="-511.8" font-family="Times,serif" font-size="14.00">Task</text>
<polyline fill="none" stroke="black" points="210,-504 342,-504 "/>
<text text-anchor="start" x="218" y="-488.8" font-family="Times,serif" font-size="14.00">id :integer</text>
<text text-anchor="start" x="218" y="-473.8" font-family="Times,serif" font-size="14.00">description :string</text>
<text text-anchor="start" x="218" y="-458.8" font-family="Times,serif" font-size="14.00">created_at :datetime</text>
<text text-anchor="start" x="218" y="-443.8" font-family="Times,serif" font-size="14.00">updated_at :datetime</text>
</g>
<!-- Internship&#45;&gt;Task -->
<g id="edge3" class="edge"><title>Internship&#45;&gt;Task</title>
<path fill="none" stroke="#95f55e" d="M331.91,-756.461C316.058,-678.784 298.283,-591.687 287.118,-536.977"/>
<polygon fill="#95f55e" stroke="#95f55e" points="331.953,-756.669 329.543,-767.367 332.953,-761.568 333.953,-766.467 333.953,-766.467 333.953,-766.467 332.953,-761.568 338.362,-765.568 331.953,-756.669 331.953,-756.669"/>
<polygon fill="#95f55e" stroke="#95f55e" points="287.112,-536.946 289.521,-526.248 286.112,-532.047 285.112,-527.148 285.112,-527.148 285.112,-527.148 286.112,-532.047 280.703,-528.048 287.112,-536.946 287.112,-536.946"/>
</g>
<!-- User -->
<g id="node12" class="node"><title>User</title>
<path fill="none" stroke="black" d="M463,-233.5C463,-233.5 591,-233.5 591,-233.5 597,-233.5 603,-239.5 603,-245.5 603,-245.5 603,-717.5 603,-717.5 603,-723.5 597,-729.5 591,-729.5 591,-729.5 463,-729.5 463,-729.5 457,-729.5 451,-723.5 451,-717.5 451,-717.5 451,-245.5 451,-245.5 451,-239.5 457,-233.5 463,-233.5"/>
<text text-anchor="middle" x="527" y="-714.3" font-family="Times,serif" font-size="14.00">User</text>
<polyline fill="none" stroke="black" points="451,-706.5 603,-706.5 "/>
<text text-anchor="start" x="459" y="-691.3" font-family="Times,serif" font-size="14.00">id :integer</text>
<text text-anchor="start" x="459" y="-676.3" font-family="Times,serif" font-size="14.00">name :string</text>
<text text-anchor="start" x="459" y="-661.3" font-family="Times,serif" font-size="14.00">surname :string</text>
<text text-anchor="start" x="459" y="-646.3" font-family="Times,serif" font-size="14.00">dni :string</text>
<text text-anchor="start" x="459" y="-631.3" font-family="Times,serif" font-size="14.00">locality_id :integer</text>
<text text-anchor="start" x="459" y="-616.3" font-family="Times,serif" font-size="14.00">password_digest :string</text>
<text text-anchor="start" x="459" y="-601.3" font-family="Times,serif" font-size="14.00">created_at :datetime</text>
<text text-anchor="start" x="459" y="-586.3" font-family="Times,serif" font-size="14.00">updated_at :datetime</text>
<text text-anchor="start" x="459" y="-571.3" font-family="Times,serif" font-size="14.00">email :string</text>
<text text-anchor="start" x="459" y="-556.3" font-family="Times,serif" font-size="14.00">admin :boolean</text>
<text text-anchor="start" x="459" y="-541.3" font-family="Times,serif" font-size="14.00">cuil :string</text>
<text text-anchor="start" x="459" y="-526.3" font-family="Times,serif" font-size="14.00">address :string</text>
<text text-anchor="start" x="459" y="-511.3" font-family="Times,serif" font-size="14.00">manager :boolean</text>
<text text-anchor="start" x="459" y="-496.3" font-family="Times,serif" font-size="14.00">linkedin :string</text>
<text text-anchor="start" x="459" y="-481.3" font-family="Times,serif" font-size="14.00">celphone :string</text>
<text text-anchor="start" x="459" y="-466.3" font-family="Times,serif" font-size="14.00">homephone :string</text>
<text text-anchor="start" x="459" y="-451.3" font-family="Times,serif" font-size="14.00">treatment_id :integer</text>
<text text-anchor="start" x="459" y="-436.3" font-family="Times,serif" font-size="14.00">anioegreso :integer</text>
<text text-anchor="start" x="459" y="-421.3" font-family="Times,serif" font-size="14.00">career :string</text>
<text text-anchor="start" x="459" y="-406.3" font-family="Times,serif" font-size="14.00">working :boolean</text>
<text text-anchor="start" x="459" y="-391.3" font-family="Times,serif" font-size="14.00">workwhere :string</text>
<text text-anchor="start" x="459" y="-376.3" font-family="Times,serif" font-size="14.00">searchingjob :boolean</text>
<text text-anchor="start" x="459" y="-361.3" font-family="Times,serif" font-size="14.00">skills :string</text>
<text text-anchor="start" x="459" y="-346.3" font-family="Times,serif" font-size="14.00">skillstoimprove :string</text>
<text text-anchor="start" x="459" y="-331.3" font-family="Times,serif" font-size="14.00">skype :string</text>
<text text-anchor="start" x="459" y="-316.3" font-family="Times,serif" font-size="14.00">careercomplete :boolean</text>
<text text-anchor="start" x="459" y="-301.3" font-family="Times,serif" font-size="14.00">position :string</text>
<text text-anchor="start" x="459" y="-286.3" font-family="Times,serif" font-size="14.00">validated :boolean</text>
<text text-anchor="start" x="459" y="-271.3" font-family="Times,serif" font-size="14.00">validated_id :integer</text>
<text text-anchor="start" x="459" y="-256.3" font-family="Times,serif" font-size="14.00">graduated_id :integer</text>
<text text-anchor="start" x="459" y="-241.3" font-family="Times,serif" font-size="14.00">graduated :boolean</text>
</g>
<!-- Internship&#45;&gt;User -->
<g id="edge4" class="edge"><title>Internship&#45;&gt;User</title>
<path fill="none" stroke="#fb8cd3" d="M426.808,-756.939C433.547,-738.48 440.482,-719.483 447.409,-700.511"/>
<polygon fill="#fb8cd3" stroke="#fb8cd3" points="426.759,-757.074 419.102,-764.924 425.044,-761.771 423.329,-766.467 423.329,-766.467 423.329,-766.467 425.044,-761.771 427.556,-768.011 426.759,-757.074 426.759,-757.074"/>
<polygon fill="#fb8cd3" stroke="#fb8cd3" points="447.488,-700.293 455.145,-692.443 449.203,-695.597 450.917,-690.9 450.917,-690.9 450.917,-690.9 449.203,-695.597 446.69,-689.357 447.488,-700.293 447.488,-700.293"/>
</g>
<!-- Type -->
<g id="node5" class="node"><title>Type</title>
<path fill="none" stroke="black" d="M12,-1217C12,-1217 120,-1217 120,-1217 126,-1217 132,-1223 132,-1229 132,-1229 132,-1296 132,-1296 132,-1302 126,-1308 120,-1308 120,-1308 12,-1308 12,-1308 6,-1308 0,-1302 0,-1296 0,-1296 0,-1229 0,-1229 0,-1223 6,-1217 12,-1217"/>
<text text-anchor="middle" x="66" y="-1292.8" font-family="Times,serif" font-size="14.00">Type</text>
<polyline fill="none" stroke="black" points="0,-1285 132,-1285 "/>
<text text-anchor="start" x="8" y="-1269.8" font-family="Times,serif" font-size="14.00">id :integer</text>
<text text-anchor="start" x="8" y="-1254.8" font-family="Times,serif" font-size="14.00">tipo :string</text>
<text text-anchor="start" x="8" y="-1239.8" font-family="Times,serif" font-size="14.00">created_at :datetime</text>
<text text-anchor="start" x="8" y="-1224.8" font-family="Times,serif" font-size="14.00">updated_at :datetime</text>
</g>
<!-- Type&#45;&gt;Internship -->
<g id="edge5" class="edge"><title>Type&#45;&gt;Internship</title>
<path fill="none" stroke="#90691a" d="M87.6214,-1209.43C100.75,-1181.12 119.178,-1146.4 141,-1119 182.631,-1066.72 239.839,-1017.74 286.15,-982.142"/>
<ellipse fill="none" stroke="#90691a" cx="85.892" cy="-1213.21" rx="4.00002" ry="4.00002"/>
<polygon fill="#90691a" stroke="#90691a" points="286.416,-981.94 297.097,-979.455 290.392,-978.908 294.369,-975.877 294.369,-975.877 294.369,-975.877 290.392,-978.908 291.64,-972.298 286.416,-981.94 286.416,-981.94"/>
</g>
<!-- Company -->
<g id="node6" class="node"><title>Company</title>
<path fill="none" stroke="black" d="M462,-1119.5C462,-1119.5 614,-1119.5 614,-1119.5 620,-1119.5 626,-1125.5 626,-1131.5 626,-1131.5 626,-1393.5 626,-1393.5 626,-1399.5 620,-1405.5 614,-1405.5 614,-1405.5 462,-1405.5 462,-1405.5 456,-1405.5 450,-1399.5 450,-1393.5 450,-1393.5 450,-1131.5 450,-1131.5 450,-1125.5 456,-1119.5 462,-1119.5"/>
<text text-anchor="middle" x="538" y="-1390.3" font-family="Times,serif" font-size="14.00">Company</text>
<polyline fill="none" stroke="black" points="450,-1382.5 626,-1382.5 "/>
<text text-anchor="start" x="458" y="-1367.3" font-family="Times,serif" font-size="14.00">id :integer</text>
<text text-anchor="start" x="458" y="-1352.3" font-family="Times,serif" font-size="14.00">name :string</text>
<text text-anchor="start" x="458" y="-1337.3" font-family="Times,serif" font-size="14.00">address :string</text>
<text text-anchor="start" x="458" y="-1322.3" font-family="Times,serif" font-size="14.00">locality_id :integer</text>
<text text-anchor="start" x="458" y="-1307.3" font-family="Times,serif" font-size="14.00">manager :string</text>
<text text-anchor="start" x="458" y="-1292.3" font-family="Times,serif" font-size="14.00">boss :string</text>
<text text-anchor="start" x="458" y="-1277.3" font-family="Times,serif" font-size="14.00">created_at :datetime</text>
<text text-anchor="start" x="458" y="-1262.3" font-family="Times,serif" font-size="14.00">updated_at :datetime</text>
<text text-anchor="start" x="458" y="-1247.3" font-family="Times,serif" font-size="14.00">boss_dni :string</text>
<text text-anchor="start" x="458" y="-1232.3" font-family="Times,serif" font-size="14.00">manager_cuil :string</text>
<text text-anchor="start" x="458" y="-1217.3" font-family="Times,serif" font-size="14.00">position :string</text>
<text text-anchor="start" x="458" y="-1202.3" font-family="Times,serif" font-size="14.00">user_id :integer</text>
<text text-anchor="start" x="458" y="-1187.3" font-family="Times,serif" font-size="14.00">razon :string</text>
<text text-anchor="start" x="458" y="-1172.3" font-family="Times,serif" font-size="14.00">art :string</text>
<text text-anchor="start" x="458" y="-1157.3" font-family="Times,serif" font-size="14.00">obsocial :string</text>
<text text-anchor="start" x="458" y="-1142.3" font-family="Times,serif" font-size="14.00">bosstreatment_id :integer</text>
<text text-anchor="start" x="458" y="-1127.3" font-family="Times,serif" font-size="14.00">managertreatment_id :integer</text>
</g>
<!-- Company&#45;&gt;Internship -->
<g id="edge6" class="edge"><title>Company&#45;&gt;Internship</title>
<path fill="none" stroke="#6193f5" d="M461.643,-1112.34C455.212,-1099.77 448.708,-1087.07 442.278,-1074.51"/>
<ellipse fill="none" stroke="#6193f5" cx="463.483" cy="-1115.93" rx="4.00002" ry="4.00002"/>
<polygon fill="#6193f5" stroke="#6193f5" points="442.167,-1074.29 441.616,-1063.34 439.889,-1069.84 437.611,-1065.39 437.611,-1065.39 437.611,-1065.39 439.889,-1069.84 433.605,-1067.44 442.167,-1074.29 442.167,-1074.29"/>
</g>
<!-- Company&#45;&gt;User -->
<g id="edge7" class="edge"><title>Company&#45;&gt;User</title>
<path fill="none" stroke="#69d059" d="M535.843,-1108.76C534.362,-1003.86 532.359,-862.04 530.634,-739.887"/>
<polygon fill="#69d059" stroke="#69d059" points="535.848,-1109.07 531.489,-1119.14 535.918,-1114.07 535.989,-1119.07 535.989,-1119.07 535.989,-1119.07 535.918,-1114.07 540.488,-1119.01 535.848,-1109.07 535.848,-1109.07"/>
<polygon fill="#69d059" stroke="#69d059" points="530.631,-739.632 534.989,-729.57 530.56,-734.633 530.49,-729.633 530.49,-729.633 530.49,-729.633 530.56,-734.633 525.99,-729.697 530.631,-739.632 530.631,-739.632"/>
</g>
<!-- InternshipsUser -->
<g id="node7" class="node"><title>InternshipsUser</title>
<path fill="none" stroke="black" d="M692,-1600.5C692,-1600.5 800,-1600.5 800,-1600.5 806,-1600.5 812,-1606.5 812,-1612.5 812,-1612.5 812,-1649.5 812,-1649.5 812,-1655.5 806,-1661.5 800,-1661.5 800,-1661.5 692,-1661.5 692,-1661.5 686,-1661.5 680,-1655.5 680,-1649.5 680,-1649.5 680,-1612.5 680,-1612.5 680,-1606.5 686,-1600.5 692,-1600.5"/>
<text text-anchor="middle" x="746" y="-1646.3" font-family="Times,serif" font-size="14.00">InternshipsUser</text>
<polyline fill="none" stroke="black" points="680,-1638.5 812,-1638.5 "/>
<text text-anchor="start" x="688" y="-1623.3" font-family="Times,serif" font-size="14.00">internship_id :integer</text>
<text text-anchor="start" x="688" y="-1608.3" font-family="Times,serif" font-size="14.00">user_id :integer</text>
</g>
<!-- InternshipsTask -->
<g id="node8" class="node"><title>InternshipsTask</title>
<path fill="none" stroke="black" d="M842,-1593C842,-1593 950,-1593 950,-1593 956,-1593 962,-1599 962,-1605 962,-1605 962,-1657 962,-1657 962,-1663 956,-1669 950,-1669 950,-1669 842,-1669 842,-1669 836,-1669 830,-1663 830,-1657 830,-1657 830,-1605 830,-1605 830,-1599 836,-1593 842,-1593"/>
<text text-anchor="middle" x="896" y="-1653.8" font-family="Times,serif" font-size="14.00">InternshipsTask</text>
<polyline fill="none" stroke="black" points="830,-1646 962,-1646 "/>
<text text-anchor="start" x="838" y="-1630.8" font-family="Times,serif" font-size="14.00">id :integer</text>
<text text-anchor="start" x="838" y="-1615.8" font-family="Times,serif" font-size="14.00">internship_id :integer</text>
<text text-anchor="start" x="838" y="-1600.8" font-family="Times,serif" font-size="14.00">task_id :integer</text>
</g>
<!-- Locality -->
<g id="node9" class="node"><title>Locality</title>
<path fill="none" stroke="black" d="M542,-1442.5C542,-1442.5 650,-1442.5 650,-1442.5 656,-1442.5 662,-1448.5 662,-1454.5 662,-1454.5 662,-1536.5 662,-1536.5 662,-1542.5 656,-1548.5 650,-1548.5 650,-1548.5 542,-1548.5 542,-1548.5 536,-1548.5 530,-1542.5 530,-1536.5 530,-1536.5 530,-1454.5 530,-1454.5 530,-1448.5 536,-1442.5 542,-1442.5"/>
<text text-anchor="middle" x="596" y="-1533.3" font-family="Times,serif" font-size="14.00">Locality</text>
<polyline fill="none" stroke="black" points="530,-1525.5 662,-1525.5 "/>
<text text-anchor="start" x="538" y="-1510.3" font-family="Times,serif" font-size="14.00">id :integer</text>
<text text-anchor="start" x="538" y="-1495.3" font-family="Times,serif" font-size="14.00">locality :string</text>
<text text-anchor="start" x="538" y="-1480.3" font-family="Times,serif" font-size="14.00">province_id :integer</text>
<text text-anchor="start" x="538" y="-1465.3" font-family="Times,serif" font-size="14.00">created_at :datetime</text>
<text text-anchor="start" x="538" y="-1450.3" font-family="Times,serif" font-size="14.00">updated_at :datetime</text>
</g>
<!-- Locality&#45;&gt;Company -->
<g id="edge9" class="edge"><title>Locality&#45;&gt;Company</title>
<path fill="none" stroke="#81758b" d="M580.938,-1434.51C579.254,-1427.8 577.488,-1420.77 575.672,-1413.54"/>
<ellipse fill="none" stroke="#81758b" cx="581.937" cy="-1438.49" rx="4.00001" ry="4.00001"/>
<ellipse fill="#81758b" stroke="#81758b" cx="574.657" cy="-1409.5" rx="4.00001" ry="4.00001"/>
</g>
<!-- Locality&#45;&gt;User -->
<g id="edge8" class="edge"><title>Locality&#45;&gt;User</title>
<path fill="none" stroke="#3c4223" d="M626.228,-1434.86C629.852,-1425.41 632.98,-1415.59 635,-1406 661.283,-1281.18 645.707,-1246.11 635,-1119 624.343,-992.489 601.973,-853.319 580.341,-737.461"/>
<ellipse fill="none" stroke="#3c4223" cx="624.715" cy="-1438.63" rx="4.00001" ry="4.00001"/>
<ellipse fill="#3c4223" stroke="#3c4223" cx="579.588" cy="-733.443" rx="4.00001" ry="4.00001"/>
</g>
<!-- Treatment -->
<g id="node10" class="node"><title>Treatment</title>
<path fill="none" stroke="black" d="M312,-1217C312,-1217 420,-1217 420,-1217 426,-1217 432,-1223 432,-1229 432,-1229 432,-1296 432,-1296 432,-1302 426,-1308 420,-1308 420,-1308 312,-1308 312,-1308 306,-1308 300,-1302 300,-1296 300,-1296 300,-1229 300,-1229 300,-1223 306,-1217 312,-1217"/>
<text text-anchor="middle" x="366" y="-1292.8" font-family="Times,serif" font-size="14.00">Treatment</text>
<polyline fill="none" stroke="black" points="300,-1285 432,-1285 "/>
<text text-anchor="start" x="308" y="-1269.8" font-family="Times,serif" font-size="14.00">id :integer</text>
<text text-anchor="start" x="308" y="-1254.8" font-family="Times,serif" font-size="14.00">treatment :string</text>
<text text-anchor="start" x="308" y="-1239.8" font-family="Times,serif" font-size="14.00">created_at :datetime</text>
<text text-anchor="start" x="308" y="-1224.8" font-family="Times,serif" font-size="14.00">updated_at :datetime</text>
</g>
<!-- Treatment&#45;&gt;Internship -->
<g id="edge11" class="edge"><title>Treatment&#45;&gt;Internship</title>
<path fill="none" stroke="#3b48a4" d="M366,-1208.47C366,-1176.83 366,-1134.75 366,-1092.73"/>
<ellipse fill="none" stroke="#3b48a4" cx="366" cy="-1212.88" rx="4" ry="4"/>
<polygon fill="#3b48a4" stroke="#3b48a4" points="366,-1092.63 370.5,-1082.63 366,-1087.63 366,-1082.63 366,-1082.63 366,-1082.63 366,-1087.63 361.5,-1082.63 366,-1092.63 366,-1092.63"/>
</g>
<!-- Treatment&#45;&gt;User -->
<g id="edge10" class="edge"><title>Treatment&#45;&gt;User</title>
<path fill="none" stroke="#459ca0" d="M394.548,-1209.45C412.385,-1174.65 434.303,-1127.28 447,-1083 478.623,-972.704 497.822,-847.361 509.443,-739.825"/>
<ellipse fill="none" stroke="#459ca0" cx="392.646" cy="-1213.13" rx="4.00002" ry="4.00002"/>
<polygon fill="#459ca0" stroke="#459ca0" points="509.451,-739.75 514.984,-730.283 509.98,-734.778 510.509,-729.806 510.509,-729.806 510.509,-729.806 509.98,-734.778 506.034,-729.33 509.451,-739.75 509.451,-739.75"/>
</g>
<!-- User&#45;&gt;Contract -->
<g id="edge12" class="edge"><title>User&#45;&gt;Contract</title>
<path fill="none" stroke="#2065b0" d="M447.854,-288.431C425.954,-235.286 404.121,-182.304 389.174,-146.03"/>
<ellipse fill="none" stroke="#2065b0" cx="449.39" cy="-292.161" rx="4.00002" ry="4.00002"/>
<polygon fill="#2065b0" stroke="#2065b0" points="389.147,-145.964 389.497,-135.004 387.242,-141.341 385.337,-136.718 385.337,-136.718 385.337,-136.718 387.242,-141.341 381.176,-138.433 389.147,-145.964 389.147,-145.964"/>
</g>
<!-- Study -->
<g id="node15" class="node"><title>Study</title>
<path fill="none" stroke="black" d="M630,-15.5C630,-15.5 738,-15.5 738,-15.5 744,-15.5 750,-21.5 750,-27.5 750,-27.5 750,-169.5 750,-169.5 750,-175.5 744,-181.5 738,-181.5 738,-181.5 630,-181.5 630,-181.5 624,-181.5 618,-175.5 618,-169.5 618,-169.5 618,-27.5 618,-27.5 618,-21.5 624,-15.5 630,-15.5"/>
<text text-anchor="middle" x="684" y="-166.3" font-family="Times,serif" font-size="14.00">Study</text>
<polyline fill="none" stroke="black" points="618,-158.5 750,-158.5 "/>
<text text-anchor="start" x="626" y="-143.3" font-family="Times,serif" font-size="14.00">id :integer</text>
<text text-anchor="start" x="626" y="-128.3" font-family="Times,serif" font-size="14.00">academy :string</text>
<text text-anchor="start" x="626" y="-113.3" font-family="Times,serif" font-size="14.00">from :date</text>
<text text-anchor="start" x="626" y="-98.3" font-family="Times,serif" font-size="14.00">until :date</text>
<text text-anchor="start" x="626" y="-83.3" font-family="Times,serif" font-size="14.00">title :string</text>
<text text-anchor="start" x="626" y="-68.3" font-family="Times,serif" font-size="14.00">description :string</text>
<text text-anchor="start" x="626" y="-53.3" font-family="Times,serif" font-size="14.00">created_at :datetime</text>
<text text-anchor="start" x="626" y="-38.3" font-family="Times,serif" font-size="14.00">updated_at :datetime</text>
<text text-anchor="start" x="626" y="-23.3" font-family="Times,serif" font-size="14.00">user_id :integer</text>
</g>
<!-- User&#45;&gt;Study -->
<g id="edge14" class="edge"><title>User&#45;&gt;Study</title>
<path fill="none" stroke="#9c85e4" d="M606.18,-288.349C620.144,-254.463 634.079,-220.646 646.217,-191.189"/>
<ellipse fill="none" stroke="#9c85e4" cx="604.61" cy="-292.161" rx="4.00002" ry="4.00002"/>
<polygon fill="#9c85e4" stroke="#9c85e4" points="646.283,-191.029 654.254,-183.498 648.188,-186.406 650.093,-181.783 650.093,-181.783 650.093,-181.783 648.188,-186.406 645.933,-180.069 646.283,-191.029 646.283,-191.029"/>
</g>
<!-- Job -->
<g id="node16" class="node"><title>Job</title>
<path fill="none" stroke="black" d="M466.5,-0.5C466.5,-0.5 587.5,-0.5 587.5,-0.5 593.5,-0.5 599.5,-6.5 599.5,-12.5 599.5,-12.5 599.5,-184.5 599.5,-184.5 599.5,-190.5 593.5,-196.5 587.5,-196.5 587.5,-196.5 466.5,-196.5 466.5,-196.5 460.5,-196.5 454.5,-190.5 454.5,-184.5 454.5,-184.5 454.5,-12.5 454.5,-12.5 454.5,-6.5 460.5,-0.5 466.5,-0.5"/>
<text text-anchor="middle" x="527" y="-181.3" font-family="Times,serif" font-size="14.00">Job</text>
<polyline fill="none" stroke="black" points="454.5,-173.5 599.5,-173.5 "/>
<text text-anchor="start" x="462.5" y="-158.3" font-family="Times,serif" font-size="14.00">id :integer</text>
<text text-anchor="start" x="462.5" y="-143.3" font-family="Times,serif" font-size="14.00">enterprise_name :string</text>
<text text-anchor="start" x="462.5" y="-128.3" font-family="Times,serif" font-size="14.00">position :string</text>
<text text-anchor="start" x="462.5" y="-113.3" font-family="Times,serif" font-size="14.00">area :string</text>
<text text-anchor="start" x="462.5" y="-98.3" font-family="Times,serif" font-size="14.00">from :date</text>
<text text-anchor="start" x="462.5" y="-83.3" font-family="Times,serif" font-size="14.00">until :date</text>
<text text-anchor="start" x="462.5" y="-68.3" font-family="Times,serif" font-size="14.00">workingnow :boolean</text>
<text text-anchor="start" x="462.5" y="-53.3" font-family="Times,serif" font-size="14.00">taskdescription :string</text>
<text text-anchor="start" x="462.5" y="-38.3" font-family="Times,serif" font-size="14.00">user_id :integer</text>
<text text-anchor="start" x="462.5" y="-23.3" font-family="Times,serif" font-size="14.00">created_at :datetime</text>
<text text-anchor="start" x="462.5" y="-8.3" font-family="Times,serif" font-size="14.00">updated_at :datetime</text>
</g>
<!-- User&#45;&gt;Job -->
<g id="edge13" class="edge"><title>User&#45;&gt;Job</title>
<path fill="none" stroke="#160edb" d="M527,-225.018C527,-218.906 527,-212.895 527,-207.016"/>
<ellipse fill="none" stroke="#160edb" cx="527" cy="-229.291" rx="4" ry="4"/>
<polygon fill="#160edb" stroke="#160edb" points="527,-206.581 531.5,-196.581 527,-201.581 527,-196.581 527,-196.581 527,-196.581 527,-201.581 522.5,-196.581 527,-206.581 527,-206.581"/>
</g>
<!-- Skill -->
<g id="node13" class="node"><title>Skill</title>
<path fill="none" stroke="black" d="M992,-1585.5C992,-1585.5 1100,-1585.5 1100,-1585.5 1106,-1585.5 1112,-1591.5 1112,-1597.5 1112,-1597.5 1112,-1664.5 1112,-1664.5 1112,-1670.5 1106,-1676.5 1100,-1676.5 1100,-1676.5 992,-1676.5 992,-1676.5 986,-1676.5 980,-1670.5 980,-1664.5 980,-1664.5 980,-1597.5 980,-1597.5 980,-1591.5 986,-1585.5 992,-1585.5"/>
<text text-anchor="middle" x="1046" y="-1661.3" font-family="Times,serif" font-size="14.00">Skill</text>
<polyline fill="none" stroke="black" points="980,-1653.5 1112,-1653.5 "/>
<text text-anchor="start" x="988" y="-1638.3" font-family="Times,serif" font-size="14.00">id :integer</text>
<text text-anchor="start" x="988" y="-1623.3" font-family="Times,serif" font-size="14.00">name :string</text>
<text text-anchor="start" x="988" y="-1608.3" font-family="Times,serif" font-size="14.00">created_at :datetime</text>
<text text-anchor="start" x="988" y="-1593.3" font-family="Times,serif" font-size="14.00">updated_at :datetime</text>
</g>
<!-- Province -->
<g id="node14" class="node"><title>Province</title>
<path fill="none" stroke="black" d="M542,-1585.5C542,-1585.5 650,-1585.5 650,-1585.5 656,-1585.5 662,-1591.5 662,-1597.5 662,-1597.5 662,-1664.5 662,-1664.5 662,-1670.5 656,-1676.5 650,-1676.5 650,-1676.5 542,-1676.5 542,-1676.5 536,-1676.5 530,-1670.5 530,-1664.5 530,-1664.5 530,-1597.5 530,-1597.5 530,-1591.5 536,-1585.5 542,-1585.5"/>
<text text-anchor="middle" x="596" y="-1661.3" font-family="Times,serif" font-size="14.00">Province</text>
<polyline fill="none" stroke="black" points="530,-1653.5 662,-1653.5 "/>
<text text-anchor="start" x="538" y="-1638.3" font-family="Times,serif" font-size="14.00">id :integer</text>
<text text-anchor="start" x="538" y="-1623.3" font-family="Times,serif" font-size="14.00">province :string</text>
<text text-anchor="start" x="538" y="-1608.3" font-family="Times,serif" font-size="14.00">created_at :datetime</text>
<text text-anchor="start" x="538" y="-1593.3" font-family="Times,serif" font-size="14.00">updated_at :datetime</text>
</g>
<!-- Province&#45;&gt;Locality -->
<g id="edge15" class="edge"><title>Province&#45;&gt;Locality</title>
<path fill="none" stroke="#81510b" d="M596,-1577.11C596,-1571.15 596,-1565.03 596,-1558.96"/>
<ellipse fill="none" stroke="#81510b" cx="596" cy="-1581.18" rx="4" ry="4"/>
<polygon fill="#81510b" stroke="#81510b" points="596,-1558.82 600.5,-1548.82 596,-1553.82 596,-1548.82 596,-1548.82 596,-1548.82 596,-1553.82 591.5,-1548.82 596,-1558.82 596,-1558.82"/>
</g>
</g>
</svg>
