<?xml version="1.0" encoding="UTF-8" standalone="no"?>
<!DOCTYPE svg PUBLIC "-//W3C//DTD SVG 1.1//EN"
 "http://www.w3.org/Graphics/SVG/1.1/DTD/svg11.dtd">
<!-- Generated by graphviz version 2.26.3 (20100126.1600)
 -->
<!-- Title: models_diagram Pages: 1 -->
<svg width="850pt" height="472pt"
 viewBox="0.00 0.00 850.00 472.00" xmlns="http://www.w3.org/2000/svg" xmlns:xlink="http://www.w3.org/1999/xlink">
<g id="graph1" class="graph" transform="scale(1 1) rotate(0) translate(4 468)">
<title>models_diagram</title>
<polygon fill="white" stroke="white" points="-4,5 -4,-468 847,-468 847,5 -4,5"/>
<!-- _diagram_info -->
<g id="node1" class="node"><title>_diagram_info</title>
<text text-anchor="start" x="8" y="-447.8" font-family="Times Roman,serif" font-size="13.00">Models diagram</text>
<text text-anchor="start" x="8" y="-430.8" font-family="Times Roman,serif" font-size="13.00">Date: Sep 08 2013 &#45; 18:47</text>
<text text-anchor="start" x="8" y="-413.8" font-family="Times Roman,serif" font-size="13.00">Migration version: 20130908214222</text>
<text text-anchor="start" x="8" y="-396.8" font-family="Times Roman,serif" font-size="13.00">Generated by RailRoady 1.1.0</text>
<text text-anchor="start" x="8" y="-379.8" font-family="Times Roman,serif" font-size="13.00">http://railroady.prestonlee.com</text>
</g>
<!-- User -->
<g id="node2" class="node"><title>User</title>
<ellipse fill="none" stroke="black" cx="389" cy="-241" rx="33.9411" ry="18.3848"/>
<text text-anchor="middle" x="389" y="-237.4" font-family="Times Roman,serif" font-size="14.00">User</text>
</g>
<!-- Company -->
<g id="node3" class="node"><title>Company</title>
<ellipse fill="none" stroke="black" cx="119" cy="-167" rx="56.7776" ry="18.3848"/>
<text text-anchor="middle" x="119" y="-163.4" font-family="Times Roman,serif" font-size="14.00">Company</text>
</g>
<!-- User&#45;&gt;Company -->
<g id="edge2" class="edge"><title>User&#45;&gt;Company</title>
<path fill="none" stroke="#8bf810" d="M348.523,-230.304C307.322,-219.365 241.636,-201.786 185,-186 180.617,-184.778 176.075,-183.499 171.518,-182.206"/>
<polygon fill="#8bf810" stroke="#8bf810" points="348.531,-230.306 357.043,-237.219 353.364,-231.587 358.197,-232.869 358.197,-232.869 358.197,-232.869 353.364,-231.587 359.35,-228.52 348.531,-230.306 348.531,-230.306"/>
<polygon fill="#8bf810" stroke="#8bf810" points="171.191,-182.113 162.808,-175.043 166.383,-180.742 161.574,-179.371 161.574,-179.371 161.574,-179.371 166.383,-180.742 160.34,-183.698 171.191,-182.113 171.191,-182.113"/>
</g>
<!-- Contract -->
<g id="node4" class="node"><title>Contract</title>
<ellipse fill="none" stroke="black" cx="580" cy="-19" rx="53.9477" ry="18.3848"/>
<text text-anchor="middle" x="580" y="-15.4" font-family="Times Roman,serif" font-size="14.00">Contract</text>
</g>
<!-- User&#45;&gt;Contract -->
<g id="edge4" class="edge"><title>User&#45;&gt;Contract</title>
<path fill="none" stroke="#71389b" d="M430.671,-236.626C488.188,-229.63 587.293,-213.802 609,-186 640.752,-145.333 615.408,-82.0351 596.282,-46.1818"/>
<ellipse fill="none" stroke="#71389b" cx="426.472" cy="-237.123" rx="4.00001" ry="4.00001"/>
<polygon fill="#71389b" stroke="#71389b" points="596.189,-46.0139 595.287,-35.0852 593.769,-41.6386 591.349,-37.2633 591.349,-37.2633 591.349,-37.2633 593.769,-41.6386 587.411,-39.4414 596.189,-46.0139 596.189,-46.0139"/>
</g>
<!-- Study -->
<g id="node5" class="node"><title>Study</title>
<ellipse fill="none" stroke="black" cx="474" cy="-167" rx="39.8075" ry="18.3848"/>
<text text-anchor="middle" x="474" y="-163.4" font-family="Times Roman,serif" font-size="14.00">Study</text>
</g>
<!-- User&#45;&gt;Study -->
<g id="edge10" class="edge"><title>User&#45;&gt;Study</title>
<path fill="none" stroke="#f9c9ad" d="M413.283,-219.859C423.975,-210.551 436.563,-199.592 447.497,-190.073"/>
<ellipse fill="none" stroke="#f9c9ad" cx="410.043" cy="-222.68" rx="4.00002" ry="4.00002"/>
<polygon fill="#f9c9ad" stroke="#f9c9ad" points="447.574,-190.006 458.071,-186.834 451.345,-186.723 455.116,-183.44 455.116,-183.44 455.116,-183.44 451.345,-186.723 452.161,-180.046 447.574,-190.006 447.574,-190.006"/>
</g>
<!-- Internship -->
<g id="node8" class="node"><title>Internship</title>
<ellipse fill="none" stroke="black" cx="381" cy="-93" rx="61.0181" ry="18.3848"/>
<text text-anchor="middle" x="381" y="-89.4" font-family="Times Roman,serif" font-size="14.00">Internship</text>
</g>
<!-- User&#45;&gt;Internship -->
<g id="edge6" class="edge"><title>User&#45;&gt;Internship</title>
<path fill="none" stroke="#60c17e" d="M368.059,-215.706C361.976,-206.858 356.131,-196.499 353,-186 348.174,-169.815 349.06,-164.423 353,-148 355.276,-138.512 359.476,-128.815 363.943,-120.258"/>
<polygon fill="#60c17e" stroke="#60c17e" points="368.223,-215.93 370.5,-226.657 371.177,-219.965 374.131,-223.999 374.131,-223.999 374.131,-223.999 371.177,-219.965 377.762,-221.341 368.223,-215.93 368.223,-215.93"/>
<polygon fill="#60c17e" stroke="#60c17e" points="363.96,-120.226 372.75,-113.669 366.388,-115.855 368.816,-111.484 368.816,-111.484 368.816,-111.484 366.388,-115.855 364.882,-109.299 363.96,-120.226 363.96,-120.226"/>
</g>
<!-- Job -->
<g id="node13" class="node"><title>Job</title>
<ellipse fill="none" stroke="black" cx="389" cy="-167" rx="27" ry="18.3848"/>
<text text-anchor="middle" x="389" y="-163.4" font-family="Times Roman,serif" font-size="14.00">Job</text>
</g>
<!-- User&#45;&gt;Job -->
<g id="edge8" class="edge"><title>User&#45;&gt;Job</title>
<path fill="none" stroke="#369faf" d="M389,-214.309C389,-208.377 389,-202.061 389,-196.04"/>
<ellipse fill="none" stroke="#369faf" cx="389" cy="-218.327" rx="4" ry="4"/>
<polygon fill="#369faf" stroke="#369faf" points="389,-195.667 393.5,-185.667 389,-190.667 389,-185.667 389,-185.667 389,-185.667 389,-190.667 384.5,-185.667 389,-195.667 389,-195.667"/>
</g>
<!-- Company&#45;&gt;Internship -->
<g id="edge12" class="edge"><title>Company&#45;&gt;Internship</title>
<path fill="none" stroke="#1617e0" d="M169.315,-152.477C174.61,-150.961 179.914,-149.446 185,-148 232.636,-134.46 286.847,-119.264 326.162,-108.282"/>
<ellipse fill="none" stroke="#1617e0" cx="165.437" cy="-153.59" rx="4.00001" ry="4.00001"/>
<polygon fill="#1617e0" stroke="#1617e0" points="326.192,-108.274 337.034,-109.918 331.008,-106.929 335.824,-105.584 335.824,-105.584 335.824,-105.584 331.008,-106.929 334.614,-101.25 326.192,-108.274 326.192,-108.274"/>
</g>
<!-- InternshipsUser -->
<g id="node6" class="node"><title>InternshipsUser</title>
<ellipse fill="none" stroke="black" cx="480" cy="-417" rx="87.889" ry="18.3848"/>
<text text-anchor="middle" x="480" y="-413.4" font-family="Times Roman,serif" font-size="14.00">InternshipsUser</text>
</g>
<!-- Province -->
<g id="node7" class="node"><title>Province</title>
<ellipse fill="none" stroke="black" cx="321" cy="-417" rx="53.2379" ry="18.3848"/>
<text text-anchor="middle" x="321" y="-413.4" font-family="Times Roman,serif" font-size="14.00">Province</text>
</g>
<!-- Locality -->
<g id="node12" class="node"><title>Locality</title>
<ellipse fill="none" stroke="black" cx="321" cy="-315" rx="48.9975" ry="18.3848"/>
<text text-anchor="middle" x="321" y="-311.4" font-family="Times Roman,serif" font-size="14.00">Locality</text>
</g>
<!-- Province&#45;&gt;Locality -->
<g id="edge14" class="edge"><title>Province&#45;&gt;Locality</title>
<path fill="none" stroke="#50271b" d="M321,-390.015C321,-375.835 321,-358.445 321,-343.98"/>
<ellipse fill="none" stroke="#50271b" cx="321" cy="-394.292" rx="4" ry="4"/>
<polygon fill="#50271b" stroke="#50271b" points="321,-343.59 325.5,-333.59 321,-338.59 321,-333.59 321,-333.59 321,-333.59 321,-338.59 316.5,-333.59 321,-343.59 321,-343.59"/>
</g>
<!-- Internship&#45;&gt;Contract -->
<g id="edge16" class="edge"><title>Internship&#45;&gt;Contract</title>
<path fill="none" stroke="#945aca" d="M427.62,-75.6641C459.591,-63.7751 501.831,-48.0679 533.728,-36.2067"/>
<ellipse fill="none" stroke="#945aca" cx="423.591" cy="-77.1622" rx="4.00001" ry="4.00001"/>
<polygon fill="#945aca" stroke="#945aca" points="533.899,-36.1431 544.841,-36.8755 538.586,-34.4004 543.272,-32.6576 543.272,-32.6576 543.272,-32.6576 538.586,-34.4004 541.704,-28.4398 533.899,-36.1431 533.899,-36.1431"/>
</g>
<!-- Task -->
<g id="node9" class="node"><title>Task</title>
<ellipse fill="none" stroke="black" cx="381" cy="-19" rx="33.234" ry="18.3848"/>
<text text-anchor="middle" x="381" y="-15.4" font-family="Times Roman,serif" font-size="14.00">Task</text>
</g>
<!-- Internship&#45;&gt;Task -->
<g id="edge18" class="edge"><title>Internship&#45;&gt;Task</title>
<path fill="none" stroke="#d40929" d="M381,-64.2819C381,-58.8362 381,-53.1382 381,-47.6933"/>
<polygon fill="#d40929" stroke="#d40929" points="381,-64.3267 376.5,-74.3266 381,-69.3267 381,-74.3267 381,-74.3267 381,-74.3267 381,-69.3267 385.5,-74.3267 381,-64.3267 381,-64.3267"/>
<polygon fill="#d40929" stroke="#d40929" points="381,-47.6674 385.5,-37.6673 381,-42.6674 381,-37.6674 381,-37.6674 381,-37.6674 381,-42.6674 376.5,-37.6674 381,-47.6674 381,-47.6674"/>
</g>
<!-- Situation -->
<g id="node10" class="node"><title>Situation</title>
<ellipse fill="none" stroke="black" cx="250" cy="-167" rx="56.0679" ry="18.3848"/>
<text text-anchor="middle" x="250" y="-163.4" font-family="Times Roman,serif" font-size="14.00">Situation</text>
</g>
<!-- Situation&#45;&gt;Internship -->
<g id="edge20" class="edge"><title>Situation&#45;&gt;Internship</title>
<path fill="none" stroke="#f9bd31" d="M285.533,-146.928C303.204,-136.946 324.585,-124.868 342.629,-114.675"/>
<ellipse fill="none" stroke="#f9bd31" cx="281.908" cy="-148.976" rx="4.00002" ry="4.00002"/>
<polygon fill="#f9bd31" stroke="#f9bd31" points="343.016,-114.456 353.937,-113.456 347.37,-111.997 351.723,-109.538 351.723,-109.538 351.723,-109.538 347.37,-111.997 349.51,-105.62 343.016,-114.456 343.016,-114.456"/>
</g>
<!-- Treatment -->
<g id="node11" class="node"><title>Treatment</title>
<ellipse fill="none" stroke="black" cx="528" cy="-315" rx="62.2254" ry="18.3848"/>
<text text-anchor="middle" x="528" y="-311.4" font-family="Times Roman,serif" font-size="14.00">Treatment</text>
</g>
<!-- Treatment&#45;&gt;User -->
<g id="edge22" class="edge"><title>Treatment&#45;&gt;User</title>
<path fill="none" stroke="#757dc9" d="M490.144,-294.846C468.954,-283.565 442.774,-269.628 422.359,-258.759"/>
<ellipse fill="none" stroke="#757dc9" cx="493.965" cy="-296.881" rx="4.00002" ry="4.00002"/>
<polygon fill="#757dc9" stroke="#757dc9" points="422.25,-258.702 415.538,-250.03 417.837,-256.352 413.423,-254.002 413.423,-254.002 413.423,-254.002 417.837,-256.352 411.309,-257.974 422.25,-258.702 422.25,-258.702"/>
</g>
<!-- Treatment&#45;&gt;Internship -->
<g id="edge24" class="edge"><title>Treatment&#45;&gt;Internship</title>
<path fill="none" stroke="#884f44" d="M554.337,-291.946C589.923,-258.014 644.995,-193.71 609,-148 589.354,-123.051 509.008,-108.087 449.223,-100.202"/>
<ellipse fill="none" stroke="#884f44" cx="551.299" cy="-294.788" rx="4.00002" ry="4.00002"/>
<polygon fill="#884f44" stroke="#884f44" points="448.988,-100.172 439.639,-94.4399 444.028,-99.5376 439.069,-98.9036 439.069,-98.9036 439.069,-98.9036 444.028,-99.5376 438.498,-103.367 448.988,-100.172 448.988,-100.172"/>
</g>
<!-- Locality&#45;&gt;User -->
<g id="edge26" class="edge"><title>Locality&#45;&gt;User</title>
<path fill="none" stroke="#cb1c9d" d="M342.538,-291.561C350.768,-282.606 360.128,-272.42 368.279,-263.549"/>
<ellipse fill="none" stroke="#cb1c9d" cx="339.822" cy="-294.518" rx="4.00002" ry="4.00002"/>
<ellipse fill="#cb1c9d" stroke="#cb1c9d" cx="370.995" cy="-260.594" rx="4.00002" ry="4.00002"/>
</g>
<!-- Locality&#45;&gt;Company -->
<g id="edge28" class="edge"><title>Locality&#45;&gt;Company</title>
<path fill="none" stroke="#fdcc5b" d="M291.531,-293.409C253.466,-265.52 187.55,-217.225 149.154,-189.093"/>
<ellipse fill="none" stroke="#fdcc5b" cx="294.994" cy="-295.946" rx="4.00002" ry="4.00002"/>
<ellipse fill="#fdcc5b" stroke="#fdcc5b" cx="145.544" cy="-186.448" rx="4.00002" ry="4.00002"/>
</g>
<!-- Skill -->
<g id="node14" class="node"><title>Skill</title>
<ellipse fill="none" stroke="black" cx="618" cy="-417" rx="31.8198" ry="18.3848"/>
<text text-anchor="middle" x="618" y="-413.4" font-family="Times Roman,serif" font-size="14.00">Skill</text>
</g>
<!-- InternshipsTask -->
<g id="node15" class="node"><title>InternshipsTask</title>
<ellipse fill="none" stroke="black" cx="755" cy="-417" rx="87.1802" ry="18.3848"/>
<text text-anchor="middle" x="755" y="-413.4" font-family="Times Roman,serif" font-size="14.00">InternshipsTask</text>
</g>
<!-- Type -->
<g id="node16" class="node"><title>Type</title>
<ellipse fill="none" stroke="black" cx="566" cy="-167" rx="33.9411" ry="18.3848"/>
<text text-anchor="middle" x="566" y="-163.4" font-family="Times Roman,serif" font-size="14.00">Type</text>
</g>
<!-- Type&#45;&gt;Internship -->
<g id="edge30" class="edge"><title>Type&#45;&gt;Internship</title>
<path fill="none" stroke="#75ce80" d="M532.116,-151.853C529.042,-150.531 525.969,-149.23 523,-148 491.976,-135.146 456.779,-121.507 429.188,-111.026"/>
<ellipse fill="none" stroke="#75ce80" cx="536.036" cy="-153.555" rx="4.00002" ry="4.00002"/>
<polygon fill="#75ce80" stroke="#75ce80" points="429.117,-111 421.359,-103.249 424.441,-109.229 419.765,-107.458 419.765,-107.458 419.765,-107.458 424.441,-109.229 418.171,-111.666 429.117,-111 429.117,-111"/>
</g>
</g>
</svg>
