<?xml version="1.0" encoding="UTF-8" standalone="no"?>
<!DOCTYPE svg PUBLIC "-//W3C//DTD SVG 1.1//EN"
 "http://www.w3.org/Graphics/SVG/1.1/DTD/svg11.dtd">
<!-- Generated by graphviz version 2.38.0 (20140413.2041)
 -->
<!-- Title: models_diagram Pages: 1 -->
<svg width="808pt" height="446pt"
 viewBox="0.00 0.00 807.90 446.00" xmlns="http://www.w3.org/2000/svg" xmlns:xlink="http://www.w3.org/1999/xlink">
<g id="graph0" class="graph" transform="scale(1 1) rotate(0) translate(4 442)">
<title>models_diagram</title>
<polygon fill="white" stroke="none" points="-4,4 -4,-442 803.897,-442 803.897,4 -4,4"/>
<!-- _diagram_info -->
<g id="node1" class="node"><title>_diagram_info</title>
<text text-anchor="start" x="115.397" y="-423.6" font-family="Times,serif" font-size="13.00">Models diagram</text>
<text text-anchor="start" x="115.397" y="-409.6" font-family="Times,serif" font-size="13.00">Date: Mar 03 2015 &#45; 09:30</text>
<text text-anchor="start" x="115.397" y="-395.6" font-family="Times,serif" font-size="13.00">Migration version: 20150301221325</text>
<text text-anchor="start" x="115.397" y="-381.6" font-family="Times,serif" font-size="13.00">Generated by RailRoady 1.1.0</text>
<text text-anchor="start" x="115.397" y="-367.6" font-family="Times,serif" font-size="13.00">http://railroady.prestonlee.com</text>
</g>
<!-- Situation -->
<g id="node2" class="node"><title>Situation</title>
<ellipse fill="none" stroke="black" cx="119.897" cy="-234" rx="42.4939" ry="18"/>
<text text-anchor="middle" x="119.897" y="-230.3" font-family="Times,serif" font-size="14.00">Situation</text>
</g>
<!-- Internship -->
<g id="node4" class="node"><title>Internship</title>
<ellipse fill="none" stroke="black" cx="226.897" cy="-162" rx="46.5926" ry="18"/>
<text text-anchor="middle" x="226.897" y="-158.3" font-family="Times,serif" font-size="14.00">Internship</text>
</g>
<!-- Situation&#45;&gt;Internship -->
<g id="edge1" class="edge"><title>Situation&#45;&gt;Internship</title>
<path fill="none" stroke="#984a46" d="M149.181,-213.843C163.486,-204.484 180.718,-193.211 195.317,-183.66"/>
<ellipse fill="none" stroke="#984a46" cx="145.415" cy="-216.306" rx="4.00002" ry="4.00002"/>
<polygon fill="#984a46" stroke="#984a46" points="195.649,-183.443 206.481,-181.734 199.833,-180.706 204.017,-177.968 204.017,-177.968 204.017,-177.968 199.833,-180.706 201.553,-174.203 195.649,-183.443 195.649,-183.443"/>
</g>
<!-- Contract -->
<g id="node3" class="node"><title>Contract</title>
<ellipse fill="none" stroke="black" cx="239.897" cy="-18" rx="42.4939" ry="18"/>
<text text-anchor="middle" x="239.897" y="-14.3" font-family="Times,serif" font-size="14.00">Contract</text>
</g>
<!-- Internship&#45;&gt;Contract -->
<g id="edge2" class="edge"><title>Internship&#45;&gt;Contract</title>
<path fill="none" stroke="#5505c5" d="M229.227,-135.558C231.526,-110.444 235.03,-72.164 237.39,-46.3932"/>
<ellipse fill="none" stroke="#5505c5" cx="228.83" cy="-139.888" rx="4" ry="4"/>
<polygon fill="#5505c5" stroke="#5505c5" points="237.412,-46.1476 242.805,-36.5996 237.868,-41.1684 238.324,-36.1893 238.324,-36.1893 238.324,-36.1893 237.868,-41.1684 233.842,-35.779 237.412,-46.1476 237.412,-46.1476"/>
</g>
<!-- Task -->
<g id="node11" class="node"><title>Task</title>
<ellipse fill="none" stroke="black" cx="182.897" cy="-90" rx="28.6953" ry="18"/>
<text text-anchor="middle" x="182.897" y="-86.3" font-family="Times,serif" font-size="14.00">Task</text>
</g>
<!-- Internship&#45;&gt;Task -->
<g id="edge3" class="edge"><title>Internship&#45;&gt;Task</title>
<path fill="none" stroke="#eacd8a" d="M210.968,-135.658C206.832,-129.077 202.384,-122.002 198.277,-115.467"/>
<polygon fill="#eacd8a" stroke="#eacd8a" points="211.148,-135.945 212.66,-146.806 213.809,-140.178 216.47,-144.411 216.47,-144.411 216.47,-144.411 213.809,-140.178 220.28,-142.016 211.148,-135.945 211.148,-135.945"/>
<polygon fill="#eacd8a" stroke="#eacd8a" points="198.269,-115.454 196.757,-104.593 195.608,-111.221 192.947,-106.988 192.947,-106.988 192.947,-106.988 195.608,-111.221 189.137,-109.383 198.269,-115.454 198.269,-115.454"/>
</g>
<!-- User -->
<g id="node12" class="node"><title>User</title>
<ellipse fill="none" stroke="black" cx="326.897" cy="-90" rx="27.8951" ry="18"/>
<text text-anchor="middle" x="326.897" y="-86.3" font-family="Times,serif" font-size="14.00">User</text>
</g>
<!-- Internship&#45;&gt;User -->
<g id="edge4" class="edge"><title>Internship&#45;&gt;User</title>
<path fill="none" stroke="#296261" d="M257.004,-139.925C270.786,-130.278 286.977,-118.945 300.303,-109.616"/>
<polygon fill="#296261" stroke="#296261" points="256.788,-140.076 246.015,-142.124 252.692,-142.944 248.596,-145.811 248.596,-145.811 248.596,-145.811 252.692,-142.944 251.176,-149.498 256.788,-140.076 256.788,-140.076"/>
<polygon fill="#296261" stroke="#296261" points="300.4,-109.548 311.173,-107.5 304.496,-106.681 308.592,-103.814 308.592,-103.814 308.592,-103.814 304.496,-106.681 306.012,-100.127 300.4,-109.548 300.4,-109.548"/>
</g>
<!-- Type -->
<g id="node5" class="node"><title>Type</title>
<ellipse fill="none" stroke="black" cx="29.8973" cy="-234" rx="29.795" ry="18"/>
<text text-anchor="middle" x="29.8973" y="-230.3" font-family="Times,serif" font-size="14.00">Type</text>
</g>
<!-- Type&#45;&gt;Internship -->
<g id="edge5" class="edge"><title>Type&#45;&gt;Internship</title>
<path fill="none" stroke="#9444af" d="M61.0892,-219.118C63.7189,-218.034 66.3468,-216.982 68.8973,-216 106.42,-201.56 149.761,-187.18 181.549,-177.05"/>
<ellipse fill="none" stroke="#9444af" cx="56.9558" cy="-220.862" rx="4.00001" ry="4.00001"/>
<polygon fill="#9444af" stroke="#9444af" points="181.908,-176.936 192.8,-178.205 186.675,-175.426 191.441,-173.916 191.441,-173.916 191.441,-173.916 186.675,-175.426 190.082,-169.626 181.908,-176.936 181.908,-176.936"/>
</g>
<!-- Company -->
<g id="node6" class="node"><title>Company</title>
<ellipse fill="none" stroke="black" cx="339.897" cy="-234" rx="46.2923" ry="18"/>
<text text-anchor="middle" x="339.897" y="-230.3" font-family="Times,serif" font-size="14.00">Company</text>
</g>
<!-- Company&#45;&gt;Internship -->
<g id="edge6" class="edge"><title>Company&#45;&gt;Internship</title>
<path fill="none" stroke="#4f885d" d="M309.132,-213.942C293.708,-204.387 275.03,-192.817 259.375,-183.119"/>
<ellipse fill="none" stroke="#4f885d" cx="312.808" cy="-216.219" rx="4.00002" ry="4.00002"/>
<polygon fill="#4f885d" stroke="#4f885d" points="259.056,-182.921 252.924,-173.829 254.805,-180.288 250.555,-177.655 250.555,-177.655 250.555,-177.655 254.805,-180.288 248.185,-181.48 259.056,-182.921 259.056,-182.921"/>
</g>
<!-- Company&#45;&gt;User -->
<g id="edge7" class="edge"><title>Company&#45;&gt;User</title>
<path fill="none" stroke="#220416" d="M337.396,-205.679C335.09,-180.487 331.685,-143.295 329.383,-118.156"/>
<polygon fill="#220416" stroke="#220416" points="337.417,-205.913 333.848,-216.282 337.873,-210.892 338.329,-215.871 338.329,-215.871 338.329,-215.871 337.873,-210.892 342.811,-215.461 337.417,-205.913 337.417,-205.913"/>
<polygon fill="#220416" stroke="#220416" points="329.383,-118.148 332.952,-107.779 328.927,-113.168 328.471,-108.189 328.471,-108.189 328.471,-108.189 328.927,-113.168 323.99,-108.6 329.383,-118.148 329.383,-118.148"/>
</g>
<!-- InternshipsUser -->
<g id="node7" class="node"><title>InternshipsUser</title>
<ellipse fill="none" stroke="black" cx="504.897" cy="-399" rx="67.6881" ry="18"/>
<text text-anchor="middle" x="504.897" y="-395.3" font-family="Times,serif" font-size="14.00">InternshipsUser</text>
</g>
<!-- InternshipsTask -->
<g id="node8" class="node"><title>InternshipsTask</title>
<ellipse fill="none" stroke="black" cx="658.897" cy="-399" rx="68.7879" ry="18"/>
<text text-anchor="middle" x="658.897" y="-395.3" font-family="Times,serif" font-size="14.00">InternshipsTask</text>
</g>
<!-- Locality -->
<g id="node9" class="node"><title>Locality</title>
<ellipse fill="none" stroke="black" cx="376.897" cy="-306" rx="40.0939" ry="18"/>
<text text-anchor="middle" x="376.897" y="-302.3" font-family="Times,serif" font-size="14.00">Locality</text>
</g>
<!-- Locality&#45;&gt;Company -->
<g id="edge9" class="edge"><title>Locality&#45;&gt;Company</title>
<path fill="none" stroke="#d7e37c" d="M364.245,-281.062C360.53,-274.034 356.464,-266.343 352.738,-259.293"/>
<ellipse fill="none" stroke="#d7e37c" cx="366.26" cy="-284.875" rx="4.00002" ry="4.00002"/>
<ellipse fill="#d7e37c" stroke="#d7e37c" cx="350.729" cy="-255.493" rx="4.00002" ry="4.00002"/>
</g>
<!-- Locality&#45;&gt;User -->
<g id="edge8" class="edge"><title>Locality&#45;&gt;User</title>
<path fill="none" stroke="#212a5b" d="M387.8,-280.431C394.33,-262.476 400.391,-237.595 394.897,-216 384.974,-176.994 360.141,-137.009 343.394,-113.089"/>
<ellipse fill="none" stroke="#212a5b" cx="386.252" cy="-284.427" rx="4.00001" ry="4.00001"/>
<ellipse fill="#212a5b" stroke="#212a5b" cx="341.014" cy="-109.749" rx="4.00002" ry="4.00002"/>
</g>
<!-- Treatment -->
<g id="node10" class="node"><title>Treatment</title>
<ellipse fill="none" stroke="black" cx="227.897" cy="-234" rx="47.3916" ry="18"/>
<text text-anchor="middle" x="227.897" y="-230.3" font-family="Times,serif" font-size="14.00">Treatment</text>
</g>
<!-- Treatment&#45;&gt;Internship -->
<g id="edge11" class="edge"><title>Treatment&#45;&gt;Internship</title>
<path fill="none" stroke="#ae6e03" d="M227.535,-207.64C227.455,-202.063 227.371,-196.132 227.29,-190.476"/>
<ellipse fill="none" stroke="#ae6e03" cx="227.593" cy="-211.697" rx="4" ry="4"/>
<polygon fill="#ae6e03" stroke="#ae6e03" points="227.285,-190.103 231.641,-180.04 227.213,-185.104 227.142,-180.104 227.142,-180.104 227.142,-180.104 227.213,-185.104 222.642,-180.169 227.285,-190.103 227.285,-190.103"/>
</g>
<!-- Treatment&#45;&gt;User -->
<g id="edge10" class="edge"><title>Treatment&#45;&gt;User</title>
<path fill="none" stroke="#56ddca" d="M253.178,-212.053C263.233,-202.899 274.404,-191.611 282.897,-180 297.216,-160.424 309.087,-135.48 316.876,-116.983"/>
<ellipse fill="none" stroke="#56ddca" cx="250.085" cy="-214.802" rx="4.00002" ry="4.00002"/>
<polygon fill="#56ddca" stroke="#56ddca" points="316.885,-116.959 324.835,-109.406 318.778,-112.331 320.67,-107.703 320.67,-107.703 320.67,-107.703 318.778,-112.331 316.505,-106 316.885,-116.959 316.885,-116.959"/>
</g>
<!-- User&#45;&gt;Contract -->
<g id="edge12" class="edge"><title>User&#45;&gt;Contract</title>
<path fill="none" stroke="#109833" d="M303.555,-70.2192C292.149,-61.0416 278.368,-49.9537 266.55,-40.4447"/>
<ellipse fill="none" stroke="#109833" cx="307.006" cy="-72.9958" rx="4.00002" ry="4.00002"/>
<polygon fill="#109833" stroke="#109833" points="266.526,-40.4254 261.556,-30.6506 262.63,-37.291 258.735,-34.1566 258.735,-34.1566 258.735,-34.1566 262.63,-37.291 255.914,-37.6627 266.526,-40.4254 266.526,-40.4254"/>
</g>
<!-- Study -->
<g id="node15" class="node"><title>Study</title>
<ellipse fill="none" stroke="black" cx="403.897" cy="-18" rx="32.4942" ry="18"/>
<text text-anchor="middle" x="403.897" y="-14.3" font-family="Times,serif" font-size="14.00">Study</text>
</g>
<!-- User&#45;&gt;Study -->
<g id="edge14" class="edge"><title>User&#45;&gt;Study</title>
<path fill="none" stroke="#1ad764" d="M348.643,-69.2312C358.39,-60.37 369.918,-49.8907 379.915,-40.8023"/>
<ellipse fill="none" stroke="#1ad764" cx="345.439" cy="-72.1437" rx="4.00002" ry="4.00002"/>
<polygon fill="#1ad764" stroke="#1ad764" points="380.142,-40.596 390.568,-37.199 383.841,-37.2327 387.541,-33.8693 387.541,-33.8693 387.541,-33.8693 383.841,-37.2327 384.514,-30.5395 380.142,-40.596 380.142,-40.596"/>
</g>
<!-- Job -->
<g id="node16" class="node"><title>Job</title>
<ellipse fill="none" stroke="black" cx="326.897" cy="-18" rx="27" ry="18"/>
<text text-anchor="middle" x="326.897" y="-14.3" font-family="Times,serif" font-size="14.00">Job</text>
</g>
<!-- User&#45;&gt;Job -->
<g id="edge13" class="edge"><title>User&#45;&gt;Job</title>
<path fill="none" stroke="#629c31" d="M326.897,-63.6398C326.897,-58.0629 326.897,-52.1319 326.897,-46.4761"/>
<ellipse fill="none" stroke="#629c31" cx="326.897" cy="-67.6966" rx="4" ry="4"/>
<polygon fill="#629c31" stroke="#629c31" points="326.897,-46.1043 331.397,-36.1043 326.897,-41.1043 326.897,-36.1043 326.897,-36.1043 326.897,-36.1043 326.897,-41.1043 322.397,-36.1044 326.897,-46.1043 326.897,-46.1043"/>
</g>
<!-- Skill -->
<g id="node13" class="node"><title>Skill</title>
<ellipse fill="none" stroke="black" cx="772.897" cy="-399" rx="27" ry="18"/>
<text text-anchor="middle" x="772.897" y="-395.3" font-family="Times,serif" font-size="14.00">Skill</text>
</g>
<!-- Province -->
<g id="node14" class="node"><title>Province</title>
<ellipse fill="none" stroke="black" cx="376.897" cy="-399" rx="42.7926" ry="18"/>
<text text-anchor="middle" x="376.897" y="-395.3" font-family="Times,serif" font-size="14.00">Province</text>
</g>
<!-- Province&#45;&gt;Locality -->
<g id="edge15" class="edge"><title>Province&#45;&gt;Locality</title>
<path fill="none" stroke="#9dc5a9" d="M376.897,-372.729C376.897,-360.725 376.897,-346.362 376.897,-334.129"/>
<ellipse fill="none" stroke="#9dc5a9" cx="376.897" cy="-376.884" rx="4" ry="4"/>
<polygon fill="#9dc5a9" stroke="#9dc5a9" points="376.897,-334.04 381.397,-324.04 376.897,-329.04 376.897,-324.04 376.897,-324.04 376.897,-324.04 376.897,-329.04 372.397,-324.04 376.897,-334.04 376.897,-334.04"/>
</g>
</g>
</svg>
