<?xml version="1.0" encoding="UTF-8" standalone="no"?>
<!DOCTYPE svg PUBLIC "-//W3C//DTD SVG 1.1//EN"
 "http://www.w3.org/Graphics/SVG/1.1/DTD/svg11.dtd">
<!-- Generated by graphviz version 2.26.3 (20100126.1600)
 -->
<!-- Title: models_diagram Pages: 1 -->
<svg width="1011pt" height="1448pt"
 viewBox="0.00 0.00 1011.00 1448.00" xmlns="http://www.w3.org/2000/svg" xmlns:xlink="http://www.w3.org/1999/xlink">
<g id="graph1" class="graph" transform="scale(1 1) rotate(0) translate(4 1444)">
<title>models_diagram</title>
<polygon fill="white" stroke="white" points="-4,5 -4,-1444 1008,-1444 1008,5 -4,5"/>
<!-- _diagram_info -->
<g id="node1" class="node"><title>_diagram_info</title>
<text text-anchor="start" x="21" y="-1416.8" font-family="Times Roman,serif" font-size="13.00">Models diagram</text>
<text text-anchor="start" x="21" y="-1399.8" font-family="Times Roman,serif" font-size="13.00">Date: May 08 2013 &#45; 21:01</text>
<text text-anchor="start" x="21" y="-1382.8" font-family="Times Roman,serif" font-size="13.00">Migration version: 20130415035859</text>
<text text-anchor="start" x="21" y="-1365.8" font-family="Times Roman,serif" font-size="13.00">Generated by RailRoady 1.1.0</text>
<text text-anchor="start" x="21" y="-1348.8" font-family="Times Roman,serif" font-size="13.00">http://railroady.prestonlee.com</text>
</g>
<!-- User -->
<g id="node2" class="node"><title>User</title>
<polyline fill="none" stroke="black" points="409.5,-811 564.5,-811 "/>
<path fill="none" stroke="black" d="M564.5,-811C570.5,-811 576.5,-817 576.5,-823"/>
<polyline fill="none" stroke="black" points="576.5,-823 576.5,-1121 "/>
<path fill="none" stroke="black" d="M576.5,-1121C576.5,-1127 570.5,-1133 564.5,-1133"/>
<polyline fill="none" stroke="black" points="564.5,-1133 409.5,-1133 "/>
<path fill="none" stroke="black" d="M409.5,-1133C403.5,-1133 397.5,-1127 397.5,-1121"/>
<polyline fill="none" stroke="black" points="397.5,-1121 397.5,-823 "/>
<path fill="none" stroke="black" d="M397.5,-823C397.5,-817 403.5,-811 409.5,-811"/>
<text text-anchor="middle" x="487" y="-1116.4" font-family="Times Roman,serif" font-size="14.00">User</text>
<polyline fill="none" stroke="black" points="397.5,-1107 576.5,-1107 "/>
<text text-anchor="start" x="405.5" y="-1090.4" font-family="Times Roman,serif" font-size="14.00">id :integer</text>
<text text-anchor="start" x="405.5" y="-1072.4" font-family="Times Roman,serif" font-size="14.00">name :string</text>
<text text-anchor="start" x="405.5" y="-1054.4" font-family="Times Roman,serif" font-size="14.00">surname :string</text>
<text text-anchor="start" x="405.5" y="-1036.4" font-family="Times Roman,serif" font-size="14.00">dni :string</text>
<text text-anchor="start" x="405.5" y="-1018.4" font-family="Times Roman,serif" font-size="14.00">locality_id :integer</text>
<text text-anchor="start" x="405.5" y="-1000.4" font-family="Times Roman,serif" font-size="14.00">password_digest :string</text>
<text text-anchor="start" x="405.5" y="-982.4" font-family="Times Roman,serif" font-size="14.00">created_at :timestamp</text>
<text text-anchor="start" x="405.5" y="-964.4" font-family="Times Roman,serif" font-size="14.00">updated_at :timestamp</text>
<text text-anchor="start" x="405.5" y="-946.4" font-family="Times Roman,serif" font-size="14.00">email :string</text>
<text text-anchor="start" x="405.5" y="-928.4" font-family="Times Roman,serif" font-size="14.00">admin :boolean</text>
<text text-anchor="start" x="405.5" y="-910.4" font-family="Times Roman,serif" font-size="14.00">cuil :string</text>
<text text-anchor="start" x="405.5" y="-892.4" font-family="Times Roman,serif" font-size="14.00">address :string</text>
<text text-anchor="start" x="405.5" y="-874.4" font-family="Times Roman,serif" font-size="14.00">manager :boolean</text>
<text text-anchor="start" x="405.5" y="-856.4" font-family="Times Roman,serif" font-size="14.00">linkedin :string</text>
<text text-anchor="start" x="405.5" y="-838.4" font-family="Times Roman,serif" font-size="14.00">celphone :string</text>
<text text-anchor="start" x="405.5" y="-820.4" font-family="Times Roman,serif" font-size="14.00">homephone :string</text>
</g>
<!-- Company -->
<g id="node3" class="node"><title>Company</title>
<polyline fill="none" stroke="black" points="206,-523 358,-523 "/>
<path fill="none" stroke="black" d="M358,-523C364,-523 370,-529 370,-535"/>
<polyline fill="none" stroke="black" points="370,-535 370,-761 "/>
<path fill="none" stroke="black" d="M370,-761C370,-767 364,-773 358,-773"/>
<polyline fill="none" stroke="black" points="358,-773 206,-773 "/>
<path fill="none" stroke="black" d="M206,-773C200,-773 194,-767 194,-761"/>
<polyline fill="none" stroke="black" points="194,-761 194,-535 "/>
<path fill="none" stroke="black" d="M194,-535C194,-529 200,-523 206,-523"/>
<text text-anchor="middle" x="282" y="-756.4" font-family="Times Roman,serif" font-size="14.00">Company</text>
<polyline fill="none" stroke="black" points="194,-747 370,-747 "/>
<text text-anchor="start" x="202" y="-730.4" font-family="Times Roman,serif" font-size="14.00">id :integer</text>
<text text-anchor="start" x="202" y="-712.4" font-family="Times Roman,serif" font-size="14.00">name :string</text>
<text text-anchor="start" x="202" y="-694.4" font-family="Times Roman,serif" font-size="14.00">address :string</text>
<text text-anchor="start" x="202" y="-676.4" font-family="Times Roman,serif" font-size="14.00">locality_id :integer</text>
<text text-anchor="start" x="202" y="-658.4" font-family="Times Roman,serif" font-size="14.00">manager :string</text>
<text text-anchor="start" x="202" y="-640.4" font-family="Times Roman,serif" font-size="14.00">boss :string</text>
<text text-anchor="start" x="202" y="-622.4" font-family="Times Roman,serif" font-size="14.00">created_at :timestamp</text>
<text text-anchor="start" x="202" y="-604.4" font-family="Times Roman,serif" font-size="14.00">updated_at :timestamp</text>
<text text-anchor="start" x="202" y="-586.4" font-family="Times Roman,serif" font-size="14.00">boss_dni :string</text>
<text text-anchor="start" x="202" y="-568.4" font-family="Times Roman,serif" font-size="14.00">manager_cuil :string</text>
<text text-anchor="start" x="202" y="-550.4" font-family="Times Roman,serif" font-size="14.00">position :string</text>
<text text-anchor="start" x="202" y="-532.4" font-family="Times Roman,serif" font-size="14.00">user_id :integer</text>
</g>
<!-- User&#45;&gt;Company -->
<g id="edge6" class="edge"><title>User&#45;&gt;Company</title>
<path fill="none" stroke="#a32b73" d="M391.995,-821.846C383.526,-808.461 374.989,-794.967 366.615,-781.734"/>
<polygon fill="#a32b73" stroke="#a32b73" points="392.035,-821.91 393.579,-832.766 394.709,-826.135 397.382,-830.36 397.382,-830.36 397.382,-830.36 394.709,-826.135 401.185,-827.954 392.035,-821.91 392.035,-821.91"/>
<polygon fill="#a32b73" stroke="#a32b73" points="366.486,-781.529 364.942,-770.672 363.813,-777.304 361.139,-773.079 361.139,-773.079 361.139,-773.079 363.813,-777.304 357.336,-775.485 366.486,-781.529 366.486,-781.529"/>
</g>
<!-- Contract -->
<g id="node4" class="node"><title>Contract</title>
<polyline fill="none" stroke="black" points="512,-10 652,-10 "/>
<path fill="none" stroke="black" d="M652,-10C658,-10 664,-16 664,-22"/>
<polyline fill="none" stroke="black" points="664,-22 664,-86 "/>
<path fill="none" stroke="black" d="M664,-86C664,-92 658,-98 652,-98"/>
<polyline fill="none" stroke="black" points="652,-98 512,-98 "/>
<path fill="none" stroke="black" d="M512,-98C506,-98 500,-92 500,-86"/>
<polyline fill="none" stroke="black" points="500,-86 500,-22 "/>
<path fill="none" stroke="black" d="M500,-22C500,-16 506,-10 512,-10"/>
<text text-anchor="middle" x="582" y="-81.4" font-family="Times Roman,serif" font-size="14.00">Contract</text>
<polyline fill="none" stroke="black" points="500,-72 664,-72 "/>
<text text-anchor="start" x="508" y="-55.4" font-family="Times Roman,serif" font-size="14.00">id :integer</text>
<text text-anchor="start" x="508" y="-37.4" font-family="Times Roman,serif" font-size="14.00">user_id :integer</text>
<text text-anchor="start" x="508" y="-19.4" font-family="Times Roman,serif" font-size="14.00">internship_id :integer</text>
</g>
<!-- User&#45;&gt;Contract -->
<g id="edge8" class="edge"><title>User&#45;&gt;Contract</title>
<path fill="none" stroke="#dc8aba" d="M580.89,-852.682C595.766,-827.931 608.899,-801.1 617,-774 688.647,-534.334 627.075,-229.993 596.637,-108.078"/>
<ellipse fill="none" stroke="#dc8aba" cx="578.739" cy="-856.194" rx="4.00002" ry="4.00002"/>
<polygon fill="#dc8aba" stroke="#dc8aba" points="596.6,-107.929 598.511,-97.1309 595.374,-103.082 594.148,-98.2343 594.148,-98.2343 594.148,-98.2343 595.374,-103.082 589.785,-99.3376 596.6,-107.929 596.6,-107.929"/>
</g>
<!-- Study -->
<g id="node5" class="node"><title>Study</title>
<polyline fill="none" stroke="black" points="675.5,-550 816.5,-550 "/>
<path fill="none" stroke="black" d="M816.5,-550C822.5,-550 828.5,-556 828.5,-562"/>
<polyline fill="none" stroke="black" points="828.5,-562 828.5,-734 "/>
<path fill="none" stroke="black" d="M828.5,-734C828.5,-740 822.5,-746 816.5,-746"/>
<polyline fill="none" stroke="black" points="816.5,-746 675.5,-746 "/>
<path fill="none" stroke="black" d="M675.5,-746C669.5,-746 663.5,-740 663.5,-734"/>
<polyline fill="none" stroke="black" points="663.5,-734 663.5,-562 "/>
<path fill="none" stroke="black" d="M663.5,-562C663.5,-556 669.5,-550 675.5,-550"/>
<text text-anchor="middle" x="746" y="-729.4" font-family="Times Roman,serif" font-size="14.00">Study</text>
<polyline fill="none" stroke="black" points="663.5,-720 828.5,-720 "/>
<text text-anchor="start" x="671.5" y="-703.4" font-family="Times Roman,serif" font-size="14.00">id :integer</text>
<text text-anchor="start" x="671.5" y="-685.4" font-family="Times Roman,serif" font-size="14.00">academy :string</text>
<text text-anchor="start" x="671.5" y="-667.4" font-family="Times Roman,serif" font-size="14.00">from :date</text>
<text text-anchor="start" x="671.5" y="-649.4" font-family="Times Roman,serif" font-size="14.00">until :date</text>
<text text-anchor="start" x="671.5" y="-631.4" font-family="Times Roman,serif" font-size="14.00">title :string</text>
<text text-anchor="start" x="671.5" y="-613.4" font-family="Times Roman,serif" font-size="14.00">description :string</text>
<text text-anchor="start" x="671.5" y="-595.4" font-family="Times Roman,serif" font-size="14.00">created_at :datetime</text>
<text text-anchor="start" x="671.5" y="-577.4" font-family="Times Roman,serif" font-size="14.00">updated_at :datetime</text>
<text text-anchor="start" x="671.5" y="-559.4" font-family="Times Roman,serif" font-size="14.00">user_id :integer</text>
</g>
<!-- User&#45;&gt;Study -->
<g id="edge10" class="edge"><title>User&#45;&gt;Study</title>
<path fill="none" stroke="#ecb324" d="M581.671,-858.496C604.262,-831.001 628.153,-801.581 650,-774 655.093,-767.57 660.303,-760.928 665.533,-754.21"/>
<ellipse fill="none" stroke="#ecb324" cx="579.109" cy="-861.611" rx="4.00002" ry="4.00002"/>
<polygon fill="#ecb324" stroke="#ecb324" points="665.543,-754.196 675.23,-749.057 668.61,-750.247 671.676,-746.298 671.676,-746.298 671.676,-746.298 668.61,-750.247 668.121,-743.538 665.543,-754.196 665.543,-754.196"/>
</g>
<!-- Internship -->
<g id="node8" class="node"><title>Internship</title>
<polyline fill="none" stroke="black" points="264,-145 416,-145 "/>
<path fill="none" stroke="black" d="M416,-145C422,-145 428,-151 428,-157"/>
<polyline fill="none" stroke="black" points="428,-157 428,-473 "/>
<path fill="none" stroke="black" d="M428,-473C428,-479 422,-485 416,-485"/>
<polyline fill="none" stroke="black" points="416,-485 264,-485 "/>
<path fill="none" stroke="black" d="M264,-485C258,-485 252,-479 252,-473"/>
<polyline fill="none" stroke="black" points="252,-473 252,-157 "/>
<path fill="none" stroke="black" d="M252,-157C252,-151 258,-145 264,-145"/>
<text text-anchor="middle" x="340" y="-468.4" font-family="Times Roman,serif" font-size="14.00">Internship</text>
<polyline fill="none" stroke="black" points="252,-459 428,-459 "/>
<text text-anchor="start" x="260" y="-442.4" font-family="Times Roman,serif" font-size="14.00">id :integer</text>
<text text-anchor="start" x="260" y="-424.4" font-family="Times Roman,serif" font-size="14.00">company_id :integer</text>
<text text-anchor="start" x="260" y="-406.4" font-family="Times Roman,serif" font-size="14.00">description_job :string</text>
<text text-anchor="start" x="260" y="-388.4" font-family="Times Roman,serif" font-size="14.00">situation_id :integer</text>
<text text-anchor="start" x="260" y="-370.4" font-family="Times Roman,serif" font-size="14.00">date_from :date</text>
<text text-anchor="start" x="260" y="-352.4" font-family="Times Roman,serif" font-size="14.00">date_until :date</text>
<text text-anchor="start" x="260" y="-334.4" font-family="Times Roman,serif" font-size="14.00">hs_monday :integer</text>
<text text-anchor="start" x="260" y="-316.4" font-family="Times Roman,serif" font-size="14.00">hs_tuesday :integer</text>
<text text-anchor="start" x="260" y="-298.4" font-family="Times Roman,serif" font-size="14.00">hs_wednesday :integer</text>
<text text-anchor="start" x="260" y="-280.4" font-family="Times Roman,serif" font-size="14.00">hs_thursday :integer</text>
<text text-anchor="start" x="260" y="-262.4" font-family="Times Roman,serif" font-size="14.00">hs_friday :integer</text>
<text text-anchor="start" x="260" y="-244.4" font-family="Times Roman,serif" font-size="14.00">hs_saturday :integer</text>
<text text-anchor="start" x="260" y="-226.4" font-family="Times Roman,serif" font-size="14.00">hs_sunday :integer</text>
<text text-anchor="start" x="260" y="-208.4" font-family="Times Roman,serif" font-size="14.00">created_at :timestamp</text>
<text text-anchor="start" x="260" y="-190.4" font-family="Times Roman,serif" font-size="14.00">updated_at :timestamp</text>
<text text-anchor="start" x="260" y="-172.4" font-family="Times Roman,serif" font-size="14.00">napplicants :integer</text>
<text text-anchor="start" x="260" y="-154.4" font-family="Times Roman,serif" font-size="14.00">horario :boolean</text>
</g>
<!-- User&#45;&gt;Internship -->
<g id="edge4" class="edge"><title>User&#45;&gt;Internship</title>
<path fill="none" stroke="#566d1d" d="M424.399,-801.354C421.736,-792.15 419.246,-782.992 417,-774 389.555,-664.109 397.933,-633.673 379,-522 377.507,-513.196 375.945,-504.188 374.339,-495.096"/>
<polygon fill="#566d1d" stroke="#566d1d" points="424.402,-801.365 422.919,-812.23 425.819,-806.16 427.235,-810.955 427.235,-810.955 427.235,-810.955 425.819,-806.16 431.55,-809.681 424.402,-801.365 424.402,-801.365"/>
<polygon fill="#566d1d" stroke="#566d1d" points="374.33,-495.048 377.011,-484.414 373.455,-490.125 372.581,-485.202 372.581,-485.202 372.581,-485.202 373.455,-490.125 368.15,-485.989 374.33,-495.048 374.33,-495.048"/>
</g>
<!-- Job -->
<g id="node12" class="node"><title>Job</title>
<polyline fill="none" stroke="black" points="438,-532 596,-532 "/>
<path fill="none" stroke="black" d="M596,-532C602,-532 608,-538 608,-544"/>
<polyline fill="none" stroke="black" points="608,-544 608,-752 "/>
<path fill="none" stroke="black" d="M608,-752C608,-758 602,-764 596,-764"/>
<polyline fill="none" stroke="black" points="596,-764 438,-764 "/>
<path fill="none" stroke="black" d="M438,-764C432,-764 426,-758 426,-752"/>
<polyline fill="none" stroke="black" points="426,-752 426,-544 "/>
<path fill="none" stroke="black" d="M426,-544C426,-538 432,-532 438,-532"/>
<text text-anchor="middle" x="517" y="-747.4" font-family="Times Roman,serif" font-size="14.00">Job</text>
<polyline fill="none" stroke="black" points="426,-738 608,-738 "/>
<text text-anchor="start" x="434" y="-721.4" font-family="Times Roman,serif" font-size="14.00">id :integer</text>
<text text-anchor="start" x="434" y="-703.4" font-family="Times Roman,serif" font-size="14.00">enterprise_name :string</text>
<text text-anchor="start" x="434" y="-685.4" font-family="Times Roman,serif" font-size="14.00">position :string</text>
<text text-anchor="start" x="434" y="-667.4" font-family="Times Roman,serif" font-size="14.00">area :string</text>
<text text-anchor="start" x="434" y="-649.4" font-family="Times Roman,serif" font-size="14.00">from :date</text>
<text text-anchor="start" x="434" y="-631.4" font-family="Times Roman,serif" font-size="14.00">until :date</text>
<text text-anchor="start" x="434" y="-613.4" font-family="Times Roman,serif" font-size="14.00">workingnow :boolean</text>
<text text-anchor="start" x="434" y="-595.4" font-family="Times Roman,serif" font-size="14.00">taskdescription :string</text>
<text text-anchor="start" x="434" y="-577.4" font-family="Times Roman,serif" font-size="14.00">user_id :integer</text>
<text text-anchor="start" x="434" y="-559.4" font-family="Times Roman,serif" font-size="14.00">created_at :datetime</text>
<text text-anchor="start" x="434" y="-541.4" font-family="Times Roman,serif" font-size="14.00">updated_at :datetime</text>
</g>
<!-- User&#45;&gt;Job -->
<g id="edge2" class="edge"><title>User&#45;&gt;Job</title>
<path fill="none" stroke="#8b43a6" d="M502.663,-802.844C503.547,-793.29 504.429,-783.769 505.295,-774.415"/>
<ellipse fill="none" stroke="#8b43a6" cx="502.281" cy="-806.966" rx="4" ry="4"/>
<polygon fill="#8b43a6" stroke="#8b43a6" points="505.306,-774.294 510.709,-764.752 505.767,-769.315 506.228,-764.337 506.228,-764.337 506.228,-764.337 505.767,-769.315 501.747,-763.922 505.306,-774.294 505.306,-774.294"/>
</g>
<!-- Company&#45;&gt;Internship -->
<g id="edge12" class="edge"><title>Company&#45;&gt;Internship</title>
<path fill="none" stroke="#005862" d="M305.253,-514.493C306.359,-508.143 307.477,-501.727 308.599,-495.283"/>
<ellipse fill="none" stroke="#005862" cx="304.531" cy="-518.641" rx="4.00001" ry="4.00001"/>
<polygon fill="#005862" stroke="#005862" points="308.65,-494.99 314.799,-485.911 309.508,-490.065 310.366,-485.139 310.366,-485.139 310.366,-485.139 309.508,-490.065 305.933,-484.366 308.65,-494.99 308.65,-494.99"/>
</g>
<!-- InternshipsUser -->
<g id="node6" class="node"><title>InternshipsUser</title>
<polyline fill="none" stroke="black" points="487,-1351 627,-1351 "/>
<path fill="none" stroke="black" d="M627,-1351C633,-1351 639,-1357 639,-1363"/>
<polyline fill="none" stroke="black" points="639,-1363 639,-1409 "/>
<path fill="none" stroke="black" d="M639,-1409C639,-1415 633,-1421 627,-1421"/>
<polyline fill="none" stroke="black" points="627,-1421 487,-1421 "/>
<path fill="none" stroke="black" d="M487,-1421C481,-1421 475,-1415 475,-1409"/>
<polyline fill="none" stroke="black" points="475,-1409 475,-1363 "/>
<path fill="none" stroke="black" d="M475,-1363C475,-1357 481,-1351 487,-1351"/>
<text text-anchor="middle" x="557" y="-1404.4" font-family="Times Roman,serif" font-size="14.00">InternshipsUser</text>
<polyline fill="none" stroke="black" points="475,-1395 639,-1395 "/>
<text text-anchor="start" x="483" y="-1378.4" font-family="Times Roman,serif" font-size="14.00">internship_id :integer</text>
<text text-anchor="start" x="483" y="-1360.4" font-family="Times Roman,serif" font-size="14.00">user_id :integer</text>
</g>
<!-- Province -->
<g id="node7" class="node"><title>Province</title>
<polyline fill="none" stroke="black" points="293,-1333 445,-1333 "/>
<path fill="none" stroke="black" d="M445,-1333C451,-1333 457,-1339 457,-1345"/>
<polyline fill="none" stroke="black" points="457,-1345 457,-1427 "/>
<path fill="none" stroke="black" d="M457,-1427C457,-1433 451,-1439 445,-1439"/>
<polyline fill="none" stroke="black" points="445,-1439 293,-1439 "/>
<path fill="none" stroke="black" d="M293,-1439C287,-1439 281,-1433 281,-1427"/>
<polyline fill="none" stroke="black" points="281,-1427 281,-1345 "/>
<path fill="none" stroke="black" d="M281,-1345C281,-1339 287,-1333 293,-1333"/>
<text text-anchor="middle" x="369" y="-1422.4" font-family="Times Roman,serif" font-size="14.00">Province</text>
<polyline fill="none" stroke="black" points="281,-1413 457,-1413 "/>
<text text-anchor="start" x="289" y="-1396.4" font-family="Times Roman,serif" font-size="14.00">id :integer</text>
<text text-anchor="start" x="289" y="-1378.4" font-family="Times Roman,serif" font-size="14.00">province :string</text>
<text text-anchor="start" x="289" y="-1360.4" font-family="Times Roman,serif" font-size="14.00">created_at :timestamp</text>
<text text-anchor="start" x="289" y="-1342.4" font-family="Times Roman,serif" font-size="14.00">updated_at :timestamp</text>
</g>
<!-- Locality -->
<g id="node11" class="node"><title>Locality</title>
<polyline fill="none" stroke="black" points="293,-1171 445,-1171 "/>
<path fill="none" stroke="black" d="M445,-1171C451,-1171 457,-1177 457,-1183"/>
<polyline fill="none" stroke="black" points="457,-1183 457,-1283 "/>
<path fill="none" stroke="black" d="M457,-1283C457,-1289 451,-1295 445,-1295"/>
<polyline fill="none" stroke="black" points="445,-1295 293,-1295 "/>
<path fill="none" stroke="black" d="M293,-1295C287,-1295 281,-1289 281,-1283"/>
<polyline fill="none" stroke="black" points="281,-1283 281,-1183 "/>
<path fill="none" stroke="black" d="M281,-1183C281,-1177 287,-1171 293,-1171"/>
<text text-anchor="middle" x="369" y="-1278.4" font-family="Times Roman,serif" font-size="14.00">Locality</text>
<polyline fill="none" stroke="black" points="281,-1269 457,-1269 "/>
<text text-anchor="start" x="289" y="-1252.4" font-family="Times Roman,serif" font-size="14.00">id :integer</text>
<text text-anchor="start" x="289" y="-1234.4" font-family="Times Roman,serif" font-size="14.00">locality :string</text>
<text text-anchor="start" x="289" y="-1216.4" font-family="Times Roman,serif" font-size="14.00">province_id :integer</text>
<text text-anchor="start" x="289" y="-1198.4" font-family="Times Roman,serif" font-size="14.00">created_at :timestamp</text>
<text text-anchor="start" x="289" y="-1180.4" font-family="Times Roman,serif" font-size="14.00">updated_at :timestamp</text>
</g>
<!-- Province&#45;&gt;Locality -->
<g id="edge14" class="edge"><title>Province&#45;&gt;Locality</title>
<path fill="none" stroke="#26a417" d="M369,-1324.82C369,-1318.42 369,-1311.87 369,-1305.36"/>
<ellipse fill="none" stroke="#26a417" cx="369" cy="-1328.92" rx="4" ry="4"/>
<polygon fill="#26a417" stroke="#26a417" points="369,-1305.19 373.5,-1295.19 369,-1300.19 369,-1295.19 369,-1295.19 369,-1295.19 369,-1300.19 364.5,-1295.19 369,-1305.19 369,-1305.19"/>
</g>
<!-- Internship&#45;&gt;Contract -->
<g id="edge16" class="edge"><title>Internship&#45;&gt;Contract</title>
<path fill="none" stroke="#59ce6c" d="M433.518,-214.14C467.845,-177.117 505.288,-136.734 533.987,-105.783"/>
<ellipse fill="none" stroke="#59ce6c" cx="430.772" cy="-217.102" rx="4.00002" ry="4.00002"/>
<polygon fill="#59ce6c" stroke="#59ce6c" points="534.288,-105.458 544.387,-101.185 537.687,-101.792 541.087,-98.1251 541.087,-98.1251 541.087,-98.1251 537.687,-101.792 537.787,-95.0655 534.288,-105.458 534.288,-105.458"/>
</g>
<!-- Task -->
<g id="node9" class="node"><title>Task</title>
<polyline fill="none" stroke="black" points="264,-1 416,-1 "/>
<path fill="none" stroke="black" d="M416,-1C422,-1 428,-7 428,-13"/>
<polyline fill="none" stroke="black" points="428,-13 428,-95 "/>
<path fill="none" stroke="black" d="M428,-95C428,-101 422,-107 416,-107"/>
<polyline fill="none" stroke="black" points="416,-107 264,-107 "/>
<path fill="none" stroke="black" d="M264,-107C258,-107 252,-101 252,-95"/>
<polyline fill="none" stroke="black" points="252,-95 252,-13 "/>
<path fill="none" stroke="black" d="M252,-13C252,-7 258,-1 264,-1"/>
<text text-anchor="middle" x="340" y="-90.4" font-family="Times Roman,serif" font-size="14.00">Task</text>
<polyline fill="none" stroke="black" points="252,-81 428,-81 "/>
<text text-anchor="start" x="260" y="-64.4" font-family="Times Roman,serif" font-size="14.00">id :integer</text>
<text text-anchor="start" x="260" y="-46.4" font-family="Times Roman,serif" font-size="14.00">description :string</text>
<text text-anchor="start" x="260" y="-28.4" font-family="Times Roman,serif" font-size="14.00">created_at :timestamp</text>
<text text-anchor="start" x="260" y="-10.4" font-family="Times Roman,serif" font-size="14.00">updated_at :timestamp</text>
</g>
<!-- Internship&#45;&gt;Task -->
<g id="edge18" class="edge"><title>Internship&#45;&gt;Task</title>
<path fill="none" stroke="#791388" d="M340,-134.694C340,-128.8 340,-123.065 340,-117.549"/>
<polygon fill="#791388" stroke="#791388" points="340,-134.919 335.5,-144.919 340,-139.919 340,-144.919 340,-144.919 340,-144.919 340,-139.919 344.5,-144.919 340,-134.919 340,-134.919"/>
<polygon fill="#791388" stroke="#791388" points="340,-117.227 344.5,-107.227 340,-112.227 340,-107.227 340,-107.227 340,-107.227 340,-112.227 335.5,-107.227 340,-117.227 340,-117.227"/>
</g>
<!-- Situation -->
<g id="node10" class="node"><title>Situation</title>
<polyline fill="none" stroke="black" points="12,-595 164,-595 "/>
<path fill="none" stroke="black" d="M164,-595C170,-595 176,-601 176,-607"/>
<polyline fill="none" stroke="black" points="176,-607 176,-689 "/>
<path fill="none" stroke="black" d="M176,-689C176,-695 170,-701 164,-701"/>
<polyline fill="none" stroke="black" points="164,-701 12,-701 "/>
<path fill="none" stroke="black" d="M12,-701C6,-701 0,-695 0,-689"/>
<polyline fill="none" stroke="black" points="0,-689 0,-607 "/>
<path fill="none" stroke="black" d="M0,-607C0,-601 6,-595 12,-595"/>
<text text-anchor="middle" x="88" y="-684.4" font-family="Times Roman,serif" font-size="14.00">Situation</text>
<polyline fill="none" stroke="black" points="0,-675 176,-675 "/>
<text text-anchor="start" x="8" y="-658.4" font-family="Times Roman,serif" font-size="14.00">id :integer</text>
<text text-anchor="start" x="8" y="-640.4" font-family="Times Roman,serif" font-size="14.00">status :string</text>
<text text-anchor="start" x="8" y="-622.4" font-family="Times Roman,serif" font-size="14.00">created_at :timestamp</text>
<text text-anchor="start" x="8" y="-604.4" font-family="Times Roman,serif" font-size="14.00">updated_at :timestamp</text>
</g>
<!-- Situation&#45;&gt;Internship -->
<g id="edge20" class="edge"><title>Situation&#45;&gt;Internship</title>
<path fill="none" stroke="#3b7971" d="M133.18,-588.299C164.454,-546.972 207.222,-490.456 245.753,-439.541"/>
<ellipse fill="none" stroke="#3b7971" cx="130.623" cy="-591.677" rx="4.00002" ry="4.00002"/>
<polygon fill="#3b7971" stroke="#3b7971" points="245.863,-439.395 255.486,-434.136 248.881,-435.408 251.898,-431.421 251.898,-431.421 251.898,-431.421 248.881,-435.408 248.31,-428.705 245.863,-439.395 245.863,-439.395"/>
</g>
<!-- Locality&#45;&gt;User -->
<g id="edge24" class="edge"><title>Locality&#45;&gt;User</title>
<path fill="none" stroke="#81abde" d="M400.538,-1163.24C403.862,-1155.89 407.336,-1148.21 410.901,-1140.32"/>
<ellipse fill="none" stroke="#81abde" cx="398.762" cy="-1167.17" rx="4.00002" ry="4.00002"/>
<ellipse fill="#81abde" stroke="#81abde" cx="412.55" cy="-1136.67" rx="4.00002" ry="4.00002"/>
</g>
<!-- Locality&#45;&gt;Company -->
<g id="edge22" class="edge"><title>Locality&#45;&gt;Company</title>
<path fill="none" stroke="#554402" d="M358.594,-1163.03C344.61,-1069 319.476,-899.994 301.823,-781.294"/>
<ellipse fill="none" stroke="#554402" cx="359.183" cy="-1166.99" rx="4.00001" ry="4.00001"/>
<ellipse fill="#554402" stroke="#554402" cx="301.207" cy="-777.15" rx="4.00001" ry="4.00001"/>
</g>
<!-- Skill -->
<g id="node13" class="node"><title>Skill</title>
<polyline fill="none" stroke="black" points="668.5,-1333 809.5,-1333 "/>
<path fill="none" stroke="black" d="M809.5,-1333C815.5,-1333 821.5,-1339 821.5,-1345"/>
<polyline fill="none" stroke="black" points="821.5,-1345 821.5,-1427 "/>
<path fill="none" stroke="black" d="M821.5,-1427C821.5,-1433 815.5,-1439 809.5,-1439"/>
<polyline fill="none" stroke="black" points="809.5,-1439 668.5,-1439 "/>
<path fill="none" stroke="black" d="M668.5,-1439C662.5,-1439 656.5,-1433 656.5,-1427"/>
<polyline fill="none" stroke="black" points="656.5,-1427 656.5,-1345 "/>
<path fill="none" stroke="black" d="M656.5,-1345C656.5,-1339 662.5,-1333 668.5,-1333"/>
<text text-anchor="middle" x="739" y="-1422.4" font-family="Times Roman,serif" font-size="14.00">Skill</text>
<polyline fill="none" stroke="black" points="656.5,-1413 821.5,-1413 "/>
<text text-anchor="start" x="664.5" y="-1396.4" font-family="Times Roman,serif" font-size="14.00">id :integer</text>
<text text-anchor="start" x="664.5" y="-1378.4" font-family="Times Roman,serif" font-size="14.00">name :string</text>
<text text-anchor="start" x="664.5" y="-1360.4" font-family="Times Roman,serif" font-size="14.00">created_at :datetime</text>
<text text-anchor="start" x="664.5" y="-1342.4" font-family="Times Roman,serif" font-size="14.00">updated_at :datetime</text>
</g>
<!-- InternshipsTask -->
<g id="node14" class="node"><title>InternshipsTask</title>
<polyline fill="none" stroke="black" points="851,-1342 991,-1342 "/>
<path fill="none" stroke="black" d="M991,-1342C997,-1342 1003,-1348 1003,-1354"/>
<polyline fill="none" stroke="black" points="1003,-1354 1003,-1418 "/>
<path fill="none" stroke="black" d="M1003,-1418C1003,-1424 997,-1430 991,-1430"/>
<polyline fill="none" stroke="black" points="991,-1430 851,-1430 "/>
<path fill="none" stroke="black" d="M851,-1430C845,-1430 839,-1424 839,-1418"/>
<polyline fill="none" stroke="black" points="839,-1418 839,-1354 "/>
<path fill="none" stroke="black" d="M839,-1354C839,-1348 845,-1342 851,-1342"/>
<text text-anchor="middle" x="921" y="-1413.4" font-family="Times Roman,serif" font-size="14.00">InternshipsTask</text>
<polyline fill="none" stroke="black" points="839,-1404 1003,-1404 "/>
<text text-anchor="start" x="847" y="-1387.4" font-family="Times Roman,serif" font-size="14.00">id :integer</text>
<text text-anchor="start" x="847" y="-1369.4" font-family="Times Roman,serif" font-size="14.00">internship_id :integer</text>
<text text-anchor="start" x="847" y="-1351.4" font-family="Times Roman,serif" font-size="14.00">task_id :integer</text>
</g>
</g>
</svg>
