<?xml version="1.0" encoding="UTF-8" standalone="no"?>
<!DOCTYPE svg PUBLIC "-//W3C//DTD SVG 1.1//EN"
 "http://www.w3.org/Graphics/SVG/1.1/DTD/svg11.dtd">
<!-- Generated by graphviz version 2.26.3 (20100126.1600)
 -->
<!-- Title: models_diagram Pages: 1 -->
<svg width="1111pt" height="1448pt"
 viewBox="0.00 0.00 1111.00 1448.00" xmlns="http://www.w3.org/2000/svg" xmlns:xlink="http://www.w3.org/1999/xlink">
<g id="graph1" class="graph" transform="scale(1 1) rotate(0) translate(4 1444)">
<title>models_diagram</title>
<polygon fill="white" stroke="white" points="-4,5 -4,-1444 1108,-1444 1108,5 -4,5"/>
<!-- _diagram_info -->
<g id="node1" class="node"><title>_diagram_info</title>
<text text-anchor="start" x="109" y="-1416.8" font-family="Times Roman,serif" font-size="13.00">Models diagram</text>
<text text-anchor="start" x="109" y="-1399.8" font-family="Times Roman,serif" font-size="13.00">Date: May 12 2013 &#45; 19:07</text>
<text text-anchor="start" x="109" y="-1382.8" font-family="Times Roman,serif" font-size="13.00">Migration version: 20130509000641</text>
<text text-anchor="start" x="109" y="-1365.8" font-family="Times Roman,serif" font-size="13.00">Generated by RailRoady 1.1.0</text>
<text text-anchor="start" x="109" y="-1348.8" font-family="Times Roman,serif" font-size="13.00">http://railroady.prestonlee.com</text>
</g>
<!-- Company -->
<g id="node2" class="node"><title>Company</title>
<polyline fill="none" stroke="black" points="323,-865 475,-865 "/>
<path fill="none" stroke="black" d="M475,-865C481,-865 487,-871 487,-877"/>
<polyline fill="none" stroke="black" points="487,-877 487,-1121 "/>
<path fill="none" stroke="black" d="M487,-1121C487,-1127 481,-1133 475,-1133"/>
<polyline fill="none" stroke="black" points="475,-1133 323,-1133 "/>
<path fill="none" stroke="black" d="M323,-1133C317,-1133 311,-1127 311,-1121"/>
<polyline fill="none" stroke="black" points="311,-1121 311,-877 "/>
<path fill="none" stroke="black" d="M311,-877C311,-871 317,-865 323,-865"/>
<text text-anchor="middle" x="399" y="-1116.4" font-family="Times Roman,serif" font-size="14.00">Company</text>
<polyline fill="none" stroke="black" points="311,-1107 487,-1107 "/>
<text text-anchor="start" x="319" y="-1090.4" font-family="Times Roman,serif" font-size="14.00">id :integer</text>
<text text-anchor="start" x="319" y="-1072.4" font-family="Times Roman,serif" font-size="14.00">name :string</text>
<text text-anchor="start" x="319" y="-1054.4" font-family="Times Roman,serif" font-size="14.00">address :string</text>
<text text-anchor="start" x="319" y="-1036.4" font-family="Times Roman,serif" font-size="14.00">locality_id :integer</text>
<text text-anchor="start" x="319" y="-1018.4" font-family="Times Roman,serif" font-size="14.00">manager :string</text>
<text text-anchor="start" x="319" y="-1000.4" font-family="Times Roman,serif" font-size="14.00">boss :string</text>
<text text-anchor="start" x="319" y="-982.4" font-family="Times Roman,serif" font-size="14.00">created_at :timestamp</text>
<text text-anchor="start" x="319" y="-964.4" font-family="Times Roman,serif" font-size="14.00">updated_at :timestamp</text>
<text text-anchor="start" x="319" y="-946.4" font-family="Times Roman,serif" font-size="14.00">boss_dni :string</text>
<text text-anchor="start" x="319" y="-928.4" font-family="Times Roman,serif" font-size="14.00">manager_cuil :string</text>
<text text-anchor="start" x="319" y="-910.4" font-family="Times Roman,serif" font-size="14.00">position :string</text>
<text text-anchor="start" x="319" y="-892.4" font-family="Times Roman,serif" font-size="14.00">user_id :integer</text>
<text text-anchor="start" x="319" y="-874.4" font-family="Times Roman,serif" font-size="14.00">razon :string</text>
</g>
<!-- User -->
<g id="node12" class="node"><title>User</title>
<polyline fill="none" stroke="black" points="437.5,-505 592.5,-505 "/>
<path fill="none" stroke="black" d="M592.5,-505C598.5,-505 604.5,-511 604.5,-517"/>
<polyline fill="none" stroke="black" points="604.5,-517 604.5,-815 "/>
<path fill="none" stroke="black" d="M604.5,-815C604.5,-821 598.5,-827 592.5,-827"/>
<polyline fill="none" stroke="black" points="592.5,-827 437.5,-827 "/>
<path fill="none" stroke="black" d="M437.5,-827C431.5,-827 425.5,-821 425.5,-815"/>
<polyline fill="none" stroke="black" points="425.5,-815 425.5,-517 "/>
<path fill="none" stroke="black" d="M425.5,-517C425.5,-511 431.5,-505 437.5,-505"/>
<text text-anchor="middle" x="515" y="-810.4" font-family="Times Roman,serif" font-size="14.00">User</text>
<polyline fill="none" stroke="black" points="425.5,-801 604.5,-801 "/>
<text text-anchor="start" x="433.5" y="-784.4" font-family="Times Roman,serif" font-size="14.00">id :integer</text>
<text text-anchor="start" x="433.5" y="-766.4" font-family="Times Roman,serif" font-size="14.00">name :string</text>
<text text-anchor="start" x="433.5" y="-748.4" font-family="Times Roman,serif" font-size="14.00">surname :string</text>
<text text-anchor="start" x="433.5" y="-730.4" font-family="Times Roman,serif" font-size="14.00">dni :string</text>
<text text-anchor="start" x="433.5" y="-712.4" font-family="Times Roman,serif" font-size="14.00">locality_id :integer</text>
<text text-anchor="start" x="433.5" y="-694.4" font-family="Times Roman,serif" font-size="14.00">password_digest :string</text>
<text text-anchor="start" x="433.5" y="-676.4" font-family="Times Roman,serif" font-size="14.00">created_at :timestamp</text>
<text text-anchor="start" x="433.5" y="-658.4" font-family="Times Roman,serif" font-size="14.00">updated_at :timestamp</text>
<text text-anchor="start" x="433.5" y="-640.4" font-family="Times Roman,serif" font-size="14.00">email :string</text>
<text text-anchor="start" x="433.5" y="-622.4" font-family="Times Roman,serif" font-size="14.00">admin :boolean</text>
<text text-anchor="start" x="433.5" y="-604.4" font-family="Times Roman,serif" font-size="14.00">cuil :string</text>
<text text-anchor="start" x="433.5" y="-586.4" font-family="Times Roman,serif" font-size="14.00">address :string</text>
<text text-anchor="start" x="433.5" y="-568.4" font-family="Times Roman,serif" font-size="14.00">manager :boolean</text>
<text text-anchor="start" x="433.5" y="-550.4" font-family="Times Roman,serif" font-size="14.00">linkedin :string</text>
<text text-anchor="start" x="433.5" y="-532.4" font-family="Times Roman,serif" font-size="14.00">celphone :string</text>
<text text-anchor="start" x="433.5" y="-514.4" font-family="Times Roman,serif" font-size="14.00">homephone :string</text>
</g>
<!-- Company&#45;&gt;User -->
<g id="edge4" class="edge"><title>Company&#45;&gt;User</title>
<path fill="none" stroke="#5d5ff5" d="M449.056,-855.305C451.19,-849.178 453.34,-843.008 455.492,-836.83"/>
<polygon fill="#5d5ff5" stroke="#5d5ff5" points="448.97,-855.552 441.431,-863.515 447.325,-860.274 445.68,-864.996 445.68,-864.996 445.68,-864.996 447.325,-860.274 449.93,-866.476 448.97,-855.552 448.97,-855.552"/>
<polygon fill="#5d5ff5" stroke="#5d5ff5" points="455.584,-836.564 463.123,-828.601 457.229,-831.843 458.874,-827.121 458.874,-827.121 458.874,-827.121 457.229,-831.843 454.624,-825.64 455.584,-836.564 455.584,-836.564"/>
</g>
<!-- Internship -->
<g id="node13" class="node"><title>Internship</title>
<polyline fill="none" stroke="black" points="207,-127 359,-127 "/>
<path fill="none" stroke="black" d="M359,-127C365,-127 371,-133 371,-139"/>
<polyline fill="none" stroke="black" points="371,-139 371,-455 "/>
<path fill="none" stroke="black" d="M371,-455C371,-461 365,-467 359,-467"/>
<polyline fill="none" stroke="black" points="359,-467 207,-467 "/>
<path fill="none" stroke="black" d="M207,-467C201,-467 195,-461 195,-455"/>
<polyline fill="none" stroke="black" points="195,-455 195,-139 "/>
<path fill="none" stroke="black" d="M195,-139C195,-133 201,-127 207,-127"/>
<text text-anchor="middle" x="283" y="-450.4" font-family="Times Roman,serif" font-size="14.00">Internship</text>
<polyline fill="none" stroke="black" points="195,-441 371,-441 "/>
<text text-anchor="start" x="203" y="-424.4" font-family="Times Roman,serif" font-size="14.00">id :integer</text>
<text text-anchor="start" x="203" y="-406.4" font-family="Times Roman,serif" font-size="14.00">company_id :integer</text>
<text text-anchor="start" x="203" y="-388.4" font-family="Times Roman,serif" font-size="14.00">description_job :string</text>
<text text-anchor="start" x="203" y="-370.4" font-family="Times Roman,serif" font-size="14.00">situation_id :integer</text>
<text text-anchor="start" x="203" y="-352.4" font-family="Times Roman,serif" font-size="14.00">date_from :date</text>
<text text-anchor="start" x="203" y="-334.4" font-family="Times Roman,serif" font-size="14.00">date_until :date</text>
<text text-anchor="start" x="203" y="-316.4" font-family="Times Roman,serif" font-size="14.00">hs_monday :integer</text>
<text text-anchor="start" x="203" y="-298.4" font-family="Times Roman,serif" font-size="14.00">hs_tuesday :integer</text>
<text text-anchor="start" x="203" y="-280.4" font-family="Times Roman,serif" font-size="14.00">hs_wednesday :integer</text>
<text text-anchor="start" x="203" y="-262.4" font-family="Times Roman,serif" font-size="14.00">hs_thursday :integer</text>
<text text-anchor="start" x="203" y="-244.4" font-family="Times Roman,serif" font-size="14.00">hs_friday :integer</text>
<text text-anchor="start" x="203" y="-226.4" font-family="Times Roman,serif" font-size="14.00">hs_saturday :integer</text>
<text text-anchor="start" x="203" y="-208.4" font-family="Times Roman,serif" font-size="14.00">hs_sunday :integer</text>
<text text-anchor="start" x="203" y="-190.4" font-family="Times Roman,serif" font-size="14.00">created_at :timestamp</text>
<text text-anchor="start" x="203" y="-172.4" font-family="Times Roman,serif" font-size="14.00">updated_at :timestamp</text>
<text text-anchor="start" x="203" y="-154.4" font-family="Times Roman,serif" font-size="14.00">napplicants :integer</text>
<text text-anchor="start" x="203" y="-136.4" font-family="Times Roman,serif" font-size="14.00">horario :boolean</text>
</g>
<!-- Company&#45;&gt;Internship -->
<g id="edge2" class="edge"><title>Company&#45;&gt;Internship</title>
<path fill="none" stroke="#540b2a" d="M407.877,-856.898C410.604,-756.835 407.176,-620.494 379,-504 376.805,-494.927 374.202,-485.77 371.282,-476.622"/>
<ellipse fill="none" stroke="#540b2a" cx="407.759" cy="-860.948" rx="4" ry="4"/>
<polygon fill="#540b2a" stroke="#540b2a" points="371.271,-476.589 372.402,-465.682 369.701,-471.843 368.13,-467.096 368.13,-467.096 368.13,-467.096 369.701,-471.843 363.857,-468.51 371.271,-476.589 371.271,-476.589"/>
</g>
<!-- InternshipsTask -->
<g id="node3" class="node"><title>InternshipsTask</title>
<polyline fill="none" stroke="black" points="575,-1342 715,-1342 "/>
<path fill="none" stroke="black" d="M715,-1342C721,-1342 727,-1348 727,-1354"/>
<polyline fill="none" stroke="black" points="727,-1354 727,-1418 "/>
<path fill="none" stroke="black" d="M727,-1418C727,-1424 721,-1430 715,-1430"/>
<polyline fill="none" stroke="black" points="715,-1430 575,-1430 "/>
<path fill="none" stroke="black" d="M575,-1430C569,-1430 563,-1424 563,-1418"/>
<polyline fill="none" stroke="black" points="563,-1418 563,-1354 "/>
<path fill="none" stroke="black" d="M563,-1354C563,-1348 569,-1342 575,-1342"/>
<text text-anchor="middle" x="645" y="-1413.4" font-family="Times Roman,serif" font-size="14.00">InternshipsTask</text>
<polyline fill="none" stroke="black" points="563,-1404 727,-1404 "/>
<text text-anchor="start" x="571" y="-1387.4" font-family="Times Roman,serif" font-size="14.00">id :integer</text>
<text text-anchor="start" x="571" y="-1369.4" font-family="Times Roman,serif" font-size="14.00">internship_id :integer</text>
<text text-anchor="start" x="571" y="-1351.4" font-family="Times Roman,serif" font-size="14.00">task_id :integer</text>
</g>
<!-- Contract -->
<g id="node4" class="node"><title>Contract</title>
<polyline fill="none" stroke="black" points="271,-1 411,-1 "/>
<path fill="none" stroke="black" d="M411,-1C417,-1 423,-7 423,-13"/>
<polyline fill="none" stroke="black" points="423,-13 423,-77 "/>
<path fill="none" stroke="black" d="M423,-77C423,-83 417,-89 411,-89"/>
<polyline fill="none" stroke="black" points="411,-89 271,-89 "/>
<path fill="none" stroke="black" d="M271,-89C265,-89 259,-83 259,-77"/>
<polyline fill="none" stroke="black" points="259,-77 259,-13 "/>
<path fill="none" stroke="black" d="M259,-13C259,-7 265,-1 271,-1"/>
<text text-anchor="middle" x="341" y="-72.4" font-family="Times Roman,serif" font-size="14.00">Contract</text>
<polyline fill="none" stroke="black" points="259,-63 423,-63 "/>
<text text-anchor="start" x="267" y="-46.4" font-family="Times Roman,serif" font-size="14.00">id :integer</text>
<text text-anchor="start" x="267" y="-28.4" font-family="Times Roman,serif" font-size="14.00">user_id :integer</text>
<text text-anchor="start" x="267" y="-10.4" font-family="Times Roman,serif" font-size="14.00">internship_id :integer</text>
</g>
<!-- Situation -->
<g id="node5" class="node"><title>Situation</title>
<polyline fill="none" stroke="black" points="12,-613 164,-613 "/>
<path fill="none" stroke="black" d="M164,-613C170,-613 176,-619 176,-625"/>
<polyline fill="none" stroke="black" points="176,-625 176,-707 "/>
<path fill="none" stroke="black" d="M176,-707C176,-713 170,-719 164,-719"/>
<polyline fill="none" stroke="black" points="164,-719 12,-719 "/>
<path fill="none" stroke="black" d="M12,-719C6,-719 0,-713 0,-707"/>
<polyline fill="none" stroke="black" points="0,-707 0,-625 "/>
<path fill="none" stroke="black" d="M0,-625C0,-619 6,-613 12,-613"/>
<text text-anchor="middle" x="88" y="-702.4" font-family="Times Roman,serif" font-size="14.00">Situation</text>
<polyline fill="none" stroke="black" points="0,-693 176,-693 "/>
<text text-anchor="start" x="8" y="-676.4" font-family="Times Roman,serif" font-size="14.00">id :integer</text>
<text text-anchor="start" x="8" y="-658.4" font-family="Times Roman,serif" font-size="14.00">status :string</text>
<text text-anchor="start" x="8" y="-640.4" font-family="Times Roman,serif" font-size="14.00">created_at :timestamp</text>
<text text-anchor="start" x="8" y="-622.4" font-family="Times Roman,serif" font-size="14.00">updated_at :timestamp</text>
</g>
<!-- Situation&#45;&gt;Internship -->
<g id="edge6" class="edge"><title>Situation&#45;&gt;Internship</title>
<path fill="none" stroke="#af0909" d="M119.887,-605.661C139.176,-569.159 164.858,-520.56 190.126,-472.747"/>
<ellipse fill="none" stroke="#af0909" cx="118.015" cy="-609.202" rx="4.00002" ry="4.00002"/>
<polygon fill="#af0909" stroke="#af0909" points="190.165,-472.673 198.816,-465.934 192.501,-468.252 194.837,-463.831 194.837,-463.831 194.837,-463.831 192.501,-468.252 190.858,-461.729 190.165,-472.673 190.165,-472.673"/>
</g>
<!-- Study -->
<g id="node6" class="node"><title>Study</title>
<polyline fill="none" stroke="black" points="439,-199 591,-199 "/>
<path fill="none" stroke="black" d="M591,-199C597,-199 603,-205 603,-211"/>
<polyline fill="none" stroke="black" points="603,-211 603,-383 "/>
<path fill="none" stroke="black" d="M603,-383C603,-389 597,-395 591,-395"/>
<polyline fill="none" stroke="black" points="591,-395 439,-395 "/>
<path fill="none" stroke="black" d="M439,-395C433,-395 427,-389 427,-383"/>
<polyline fill="none" stroke="black" points="427,-383 427,-211 "/>
<path fill="none" stroke="black" d="M427,-211C427,-205 433,-199 439,-199"/>
<text text-anchor="middle" x="515" y="-378.4" font-family="Times Roman,serif" font-size="14.00">Study</text>
<polyline fill="none" stroke="black" points="427,-369 603,-369 "/>
<text text-anchor="start" x="435" y="-352.4" font-family="Times Roman,serif" font-size="14.00">id :integer</text>
<text text-anchor="start" x="435" y="-334.4" font-family="Times Roman,serif" font-size="14.00">academy :string</text>
<text text-anchor="start" x="435" y="-316.4" font-family="Times Roman,serif" font-size="14.00">from :date</text>
<text text-anchor="start" x="435" y="-298.4" font-family="Times Roman,serif" font-size="14.00">until :date</text>
<text text-anchor="start" x="435" y="-280.4" font-family="Times Roman,serif" font-size="14.00">title :string</text>
<text text-anchor="start" x="435" y="-262.4" font-family="Times Roman,serif" font-size="14.00">description :string</text>
<text text-anchor="start" x="435" y="-244.4" font-family="Times Roman,serif" font-size="14.00">created_at :timestamp</text>
<text text-anchor="start" x="435" y="-226.4" font-family="Times Roman,serif" font-size="14.00">updated_at :timestamp</text>
<text text-anchor="start" x="435" y="-208.4" font-family="Times Roman,serif" font-size="14.00">user_id :integer</text>
</g>
<!-- Task -->
<g id="node7" class="node"><title>Task</title>
<polyline fill="none" stroke="black" points="206,-613 358,-613 "/>
<path fill="none" stroke="black" d="M358,-613C364,-613 370,-619 370,-625"/>
<polyline fill="none" stroke="black" points="370,-625 370,-707 "/>
<path fill="none" stroke="black" d="M370,-707C370,-713 364,-719 358,-719"/>
<polyline fill="none" stroke="black" points="358,-719 206,-719 "/>
<path fill="none" stroke="black" d="M206,-719C200,-719 194,-713 194,-707"/>
<polyline fill="none" stroke="black" points="194,-707 194,-625 "/>
<path fill="none" stroke="black" d="M194,-625C194,-619 200,-613 206,-613"/>
<text text-anchor="middle" x="282" y="-702.4" font-family="Times Roman,serif" font-size="14.00">Task</text>
<polyline fill="none" stroke="black" points="194,-693 370,-693 "/>
<text text-anchor="start" x="202" y="-676.4" font-family="Times Roman,serif" font-size="14.00">id :integer</text>
<text text-anchor="start" x="202" y="-658.4" font-family="Times Roman,serif" font-size="14.00">description :string</text>
<text text-anchor="start" x="202" y="-640.4" font-family="Times Roman,serif" font-size="14.00">created_at :timestamp</text>
<text text-anchor="start" x="202" y="-622.4" font-family="Times Roman,serif" font-size="14.00">updated_at :timestamp</text>
</g>
<!-- Task&#45;&gt;Internship -->
<g id="edge8" class="edge"><title>Task&#45;&gt;Internship</title>
<path fill="none" stroke="#95d626" d="M282.172,-602.468C282.267,-567.532 282.39,-522.249 282.511,-477.298"/>
<polygon fill="#95d626" stroke="#95d626" points="282.172,-602.738 277.644,-612.726 282.158,-607.738 282.144,-612.738 282.144,-612.738 282.144,-612.738 282.158,-607.738 286.644,-612.751 282.172,-602.738 282.172,-602.738"/>
<polygon fill="#95d626" stroke="#95d626" points="282.512,-477.11 287.039,-467.122 282.525,-472.11 282.539,-467.11 282.539,-467.11 282.539,-467.11 282.525,-472.11 278.039,-467.098 282.512,-477.11 282.512,-477.11"/>
</g>
<!-- Job -->
<g id="node8" class="node"><title>Job</title>
<polyline fill="none" stroke="black" points="633,-181 791,-181 "/>
<path fill="none" stroke="black" d="M791,-181C797,-181 803,-187 803,-193"/>
<polyline fill="none" stroke="black" points="803,-193 803,-401 "/>
<path fill="none" stroke="black" d="M803,-401C803,-407 797,-413 791,-413"/>
<polyline fill="none" stroke="black" points="791,-413 633,-413 "/>
<path fill="none" stroke="black" d="M633,-413C627,-413 621,-407 621,-401"/>
<polyline fill="none" stroke="black" points="621,-401 621,-193 "/>
<path fill="none" stroke="black" d="M621,-193C621,-187 627,-181 633,-181"/>
<text text-anchor="middle" x="712" y="-396.4" font-family="Times Roman,serif" font-size="14.00">Job</text>
<polyline fill="none" stroke="black" points="621,-387 803,-387 "/>
<text text-anchor="start" x="629" y="-370.4" font-family="Times Roman,serif" font-size="14.00">id :integer</text>
<text text-anchor="start" x="629" y="-352.4" font-family="Times Roman,serif" font-size="14.00">enterprise_name :string</text>
<text text-anchor="start" x="629" y="-334.4" font-family="Times Roman,serif" font-size="14.00">position :string</text>
<text text-anchor="start" x="629" y="-316.4" font-family="Times Roman,serif" font-size="14.00">area :string</text>
<text text-anchor="start" x="629" y="-298.4" font-family="Times Roman,serif" font-size="14.00">from :date</text>
<text text-anchor="start" x="629" y="-280.4" font-family="Times Roman,serif" font-size="14.00">until :date</text>
<text text-anchor="start" x="629" y="-262.4" font-family="Times Roman,serif" font-size="14.00">workingnow :boolean</text>
<text text-anchor="start" x="629" y="-244.4" font-family="Times Roman,serif" font-size="14.00">taskdescription :string</text>
<text text-anchor="start" x="629" y="-226.4" font-family="Times Roman,serif" font-size="14.00">user_id :integer</text>
<text text-anchor="start" x="629" y="-208.4" font-family="Times Roman,serif" font-size="14.00">created_at :timestamp</text>
<text text-anchor="start" x="629" y="-190.4" font-family="Times Roman,serif" font-size="14.00">updated_at :timestamp</text>
</g>
<!-- Province -->
<g id="node9" class="node"><title>Province</title>
<polyline fill="none" stroke="black" points="381,-1333 533,-1333 "/>
<path fill="none" stroke="black" d="M533,-1333C539,-1333 545,-1339 545,-1345"/>
<polyline fill="none" stroke="black" points="545,-1345 545,-1427 "/>
<path fill="none" stroke="black" d="M545,-1427C545,-1433 539,-1439 533,-1439"/>
<polyline fill="none" stroke="black" points="533,-1439 381,-1439 "/>
<path fill="none" stroke="black" d="M381,-1439C375,-1439 369,-1433 369,-1427"/>
<polyline fill="none" stroke="black" points="369,-1427 369,-1345 "/>
<path fill="none" stroke="black" d="M369,-1345C369,-1339 375,-1333 381,-1333"/>
<text text-anchor="middle" x="457" y="-1422.4" font-family="Times Roman,serif" font-size="14.00">Province</text>
<polyline fill="none" stroke="black" points="369,-1413 545,-1413 "/>
<text text-anchor="start" x="377" y="-1396.4" font-family="Times Roman,serif" font-size="14.00">id :integer</text>
<text text-anchor="start" x="377" y="-1378.4" font-family="Times Roman,serif" font-size="14.00">province :string</text>
<text text-anchor="start" x="377" y="-1360.4" font-family="Times Roman,serif" font-size="14.00">created_at :timestamp</text>
<text text-anchor="start" x="377" y="-1342.4" font-family="Times Roman,serif" font-size="14.00">updated_at :timestamp</text>
</g>
<!-- Locality -->
<g id="node14" class="node"><title>Locality</title>
<polyline fill="none" stroke="black" points="381,-1171 533,-1171 "/>
<path fill="none" stroke="black" d="M533,-1171C539,-1171 545,-1177 545,-1183"/>
<polyline fill="none" stroke="black" points="545,-1183 545,-1283 "/>
<path fill="none" stroke="black" d="M545,-1283C545,-1289 539,-1295 533,-1295"/>
<polyline fill="none" stroke="black" points="533,-1295 381,-1295 "/>
<path fill="none" stroke="black" d="M381,-1295C375,-1295 369,-1289 369,-1283"/>
<polyline fill="none" stroke="black" points="369,-1283 369,-1183 "/>
<path fill="none" stroke="black" d="M369,-1183C369,-1177 375,-1171 381,-1171"/>
<text text-anchor="middle" x="457" y="-1278.4" font-family="Times Roman,serif" font-size="14.00">Locality</text>
<polyline fill="none" stroke="black" points="369,-1269 545,-1269 "/>
<text text-anchor="start" x="377" y="-1252.4" font-family="Times Roman,serif" font-size="14.00">id :integer</text>
<text text-anchor="start" x="377" y="-1234.4" font-family="Times Roman,serif" font-size="14.00">locality :string</text>
<text text-anchor="start" x="377" y="-1216.4" font-family="Times Roman,serif" font-size="14.00">province_id :integer</text>
<text text-anchor="start" x="377" y="-1198.4" font-family="Times Roman,serif" font-size="14.00">created_at :timestamp</text>
<text text-anchor="start" x="377" y="-1180.4" font-family="Times Roman,serif" font-size="14.00">updated_at :timestamp</text>
</g>
<!-- Province&#45;&gt;Locality -->
<g id="edge10" class="edge"><title>Province&#45;&gt;Locality</title>
<path fill="none" stroke="#9115d5" d="M457,-1324.82C457,-1318.42 457,-1311.87 457,-1305.36"/>
<ellipse fill="none" stroke="#9115d5" cx="457" cy="-1328.92" rx="4" ry="4"/>
<polygon fill="#9115d5" stroke="#9115d5" points="457,-1305.19 461.5,-1295.19 457,-1300.19 457,-1295.19 457,-1295.19 457,-1295.19 457,-1300.19 452.5,-1295.19 457,-1305.19 457,-1305.19"/>
</g>
<!-- InternshipsUser -->
<g id="node10" class="node"><title>InternshipsUser</title>
<polyline fill="none" stroke="black" points="757,-1351 897,-1351 "/>
<path fill="none" stroke="black" d="M897,-1351C903,-1351 909,-1357 909,-1363"/>
<polyline fill="none" stroke="black" points="909,-1363 909,-1409 "/>
<path fill="none" stroke="black" d="M909,-1409C909,-1415 903,-1421 897,-1421"/>
<polyline fill="none" stroke="black" points="897,-1421 757,-1421 "/>
<path fill="none" stroke="black" d="M757,-1421C751,-1421 745,-1415 745,-1409"/>
<polyline fill="none" stroke="black" points="745,-1409 745,-1363 "/>
<path fill="none" stroke="black" d="M745,-1363C745,-1357 751,-1351 757,-1351"/>
<text text-anchor="middle" x="827" y="-1404.4" font-family="Times Roman,serif" font-size="14.00">InternshipsUser</text>
<polyline fill="none" stroke="black" points="745,-1395 909,-1395 "/>
<text text-anchor="start" x="753" y="-1378.4" font-family="Times Roman,serif" font-size="14.00">internship_id :integer</text>
<text text-anchor="start" x="753" y="-1360.4" font-family="Times Roman,serif" font-size="14.00">user_id :integer</text>
</g>
<!-- Skill -->
<g id="node11" class="node"><title>Skill</title>
<polyline fill="none" stroke="black" points="939,-1333 1091,-1333 "/>
<path fill="none" stroke="black" d="M1091,-1333C1097,-1333 1103,-1339 1103,-1345"/>
<polyline fill="none" stroke="black" points="1103,-1345 1103,-1427 "/>
<path fill="none" stroke="black" d="M1103,-1427C1103,-1433 1097,-1439 1091,-1439"/>
<polyline fill="none" stroke="black" points="1091,-1439 939,-1439 "/>
<path fill="none" stroke="black" d="M939,-1439C933,-1439 927,-1433 927,-1427"/>
<polyline fill="none" stroke="black" points="927,-1427 927,-1345 "/>
<path fill="none" stroke="black" d="M927,-1345C927,-1339 933,-1333 939,-1333"/>
<text text-anchor="middle" x="1015" y="-1422.4" font-family="Times Roman,serif" font-size="14.00">Skill</text>
<polyline fill="none" stroke="black" points="927,-1413 1103,-1413 "/>
<text text-anchor="start" x="935" y="-1396.4" font-family="Times Roman,serif" font-size="14.00">id :integer</text>
<text text-anchor="start" x="935" y="-1378.4" font-family="Times Roman,serif" font-size="14.00">name :string</text>
<text text-anchor="start" x="935" y="-1360.4" font-family="Times Roman,serif" font-size="14.00">created_at :timestamp</text>
<text text-anchor="start" x="935" y="-1342.4" font-family="Times Roman,serif" font-size="14.00">updated_at :timestamp</text>
</g>
<!-- User&#45;&gt;Contract -->
<g id="edge18" class="edge"><title>User&#45;&gt;Contract</title>
<path fill="none" stroke="#ce6351" d="M427.733,-497.405C424.119,-487.582 420.833,-477.739 418,-468 375.281,-321.152 422.219,-272.992 380,-126 377.378,-116.87 373.798,-107.504 369.865,-98.5288"/>
<ellipse fill="none" stroke="#ce6351" cx="429.149" cy="-501.167" rx="4.00001" ry="4.00001"/>
<polygon fill="#ce6351" stroke="#ce6351" points="369.823,-98.4375 369.755,-87.4718 367.743,-93.8908 365.663,-89.344 365.663,-89.344 365.663,-89.344 367.743,-93.8908 361.571,-91.2161 369.823,-98.4375 369.823,-98.4375"/>
</g>
<!-- User&#45;&gt;Study -->
<g id="edge12" class="edge"><title>User&#45;&gt;Study</title>
<path fill="none" stroke="#067ccc" d="M515,-496.619C515,-465.549 515,-433.903 515,-405.238"/>
<ellipse fill="none" stroke="#067ccc" cx="515" cy="-500.956" rx="4" ry="4"/>
<polygon fill="#067ccc" stroke="#067ccc" points="515,-405.229 519.5,-395.229 515,-400.229 515,-395.229 515,-395.229 515,-395.229 515,-400.229 510.5,-395.229 515,-405.229 515,-405.229"/>
</g>
<!-- User&#45;&gt;Job -->
<g id="edge14" class="edge"><title>User&#45;&gt;Job</title>
<path fill="none" stroke="#80b06a" d="M604.846,-497.71C618.424,-472.278 632.222,-446.432 645.199,-422.125"/>
<ellipse fill="none" stroke="#80b06a" cx="602.861" cy="-501.428" rx="4.00002" ry="4.00002"/>
<polygon fill="#80b06a" stroke="#80b06a" points="645.231,-422.065 653.91,-415.362 647.586,-417.654 649.941,-413.243 649.941,-413.243 649.941,-413.243 647.586,-417.654 645.971,-411.124 645.231,-422.065 645.231,-422.065"/>
</g>
<!-- User&#45;&gt;Internship -->
<g id="edge16" class="edge"><title>User&#45;&gt;Internship</title>
<path fill="none" stroke="#f70aa3" d="M419.766,-515.339C417.167,-511.51 414.575,-507.724 412,-504 400.626,-487.549 396.138,-484.611 385,-468 382.184,-463.801 379.358,-459.524 376.53,-455.191"/>
<polygon fill="#f70aa3" stroke="#f70aa3" points="419.873,-515.497 421.736,-526.303 422.669,-519.642 425.466,-523.786 425.466,-523.786 425.466,-523.786 422.669,-519.642 429.196,-521.269 419.873,-515.497 419.873,-515.497"/>
<polygon fill="#f70aa3" stroke="#f70aa3" points="376.53,-455.19 374.872,-444.35 373.812,-450.993 371.095,-446.795 371.095,-446.795 371.095,-446.795 373.812,-450.993 367.317,-449.241 376.53,-455.19 376.53,-455.19"/>
</g>
<!-- Internship&#45;&gt;Contract -->
<g id="edge20" class="edge"><title>Internship&#45;&gt;Contract</title>
<path fill="none" stroke="#c34775" d="M323.983,-118.936C325.558,-112.091 327.077,-105.495 328.514,-99.2516"/>
<ellipse fill="none" stroke="#c34775" cx="323.066" cy="-122.919" rx="4.00001" ry="4.00001"/>
<polygon fill="#c34775" stroke="#c34775" points="328.608,-98.8407 335.236,-90.1048 329.73,-93.9681 330.851,-89.0955 330.851,-89.0955 330.851,-89.0955 329.73,-93.9681 326.466,-88.0861 328.608,-98.8407 328.608,-98.8407"/>
</g>
<!-- Locality&#45;&gt;Company -->
<g id="edge24" class="edge"><title>Locality&#45;&gt;Company</title>
<path fill="none" stroke="#3aaa6a" d="M439.661,-1163.05C437.93,-1156.06 436.134,-1148.82 434.302,-1141.42"/>
<ellipse fill="none" stroke="#3aaa6a" cx="440.647" cy="-1167.02" rx="4.00001" ry="4.00001"/>
<ellipse fill="#3aaa6a" stroke="#3aaa6a" cx="433.264" cy="-1137.24" rx="4.00001" ry="4.00001"/>
</g>
<!-- Locality&#45;&gt;User -->
<g id="edge22" class="edge"><title>Locality&#45;&gt;User</title>
<path fill="none" stroke="#be37c9" d="M487.816,-1163.19C491.095,-1153.53 493.969,-1143.63 496,-1134 516.592,-1036.39 521.812,-924.869 521.664,-835.176"/>
<ellipse fill="none" stroke="#be37c9" cx="486.439" cy="-1167.09" rx="4.00001" ry="4.00001"/>
<ellipse fill="#be37c9" stroke="#be37c9" cx="521.65" cy="-831.116" rx="4" ry="4"/>
</g>
</g>
</svg>
