<?xml version="1.0" encoding="UTF-8" standalone="no"?>
<!DOCTYPE svg PUBLIC "-//W3C//DTD SVG 1.1//EN"
 "http://www.w3.org/Graphics/SVG/1.1/DTD/svg11.dtd">
<!-- Generated by graphviz version 2.36.0 (20140111.2315)
 -->
<!-- Title: models_diagram Pages: 1 -->
<svg width="1118pt" height="1690pt"
 viewBox="0.00 0.00 1118.00 1690.00" xmlns="http://www.w3.org/2000/svg" xmlns:xlink="http://www.w3.org/1999/xlink">
<g id="graph0" class="graph" transform="scale(1 1) rotate(0) translate(4 1686)">
<title>models_diagram</title>
<polygon fill="white" stroke="none" points="-4,4 -4,-1686 1114,-1686 1114,4 -4,4"/>
<!-- _diagram_info -->
<g id="node1" class="node"><title>_diagram_info</title>
<text text-anchor="start" x="304" y="-1660.6" font-family="Times,serif" font-size="13.00">Models diagram</text>
<text text-anchor="start" x="304" y="-1646.6" font-family="Times,serif" font-size="13.00">Date: Aug 04 2015 &#45; 20:47</text>
<text text-anchor="start" x="304" y="-1632.6" font-family="Times,serif" font-size="13.00">Migration version: 20150301221325</text>
<text text-anchor="start" x="304" y="-1618.6" font-family="Times,serif" font-size="13.00">Generated by RailRoady 1.1.0</text>
<text text-anchor="start" x="304" y="-1604.6" font-family="Times,serif" font-size="13.00">http://railroady.prestonlee.com</text>
</g>
<!-- Situation -->
<g id="node2" class="node"><title>Situation</title>
<path fill="none" stroke="black" d="M160.5,-1220.5C160.5,-1220.5 267.5,-1220.5 267.5,-1220.5 273.5,-1220.5 279.5,-1226.5 279.5,-1232.5 279.5,-1232.5 279.5,-1299.5 279.5,-1299.5 279.5,-1305.5 273.5,-1311.5 267.5,-1311.5 267.5,-1311.5 160.5,-1311.5 160.5,-1311.5 154.5,-1311.5 148.5,-1305.5 148.5,-1299.5 148.5,-1299.5 148.5,-1232.5 148.5,-1232.5 148.5,-1226.5 154.5,-1220.5 160.5,-1220.5"/>
<text text-anchor="middle" x="214" y="-1296.3" font-family="Times,serif" font-size="14.00">Situation</text>
<polyline fill="none" stroke="black" points="148.5,-1288.5 279.5,-1288.5 "/>
<text text-anchor="start" x="156.5" y="-1273.3" font-family="Times,serif" font-size="14.00">id :integer</text>
<text text-anchor="start" x="156.5" y="-1258.3" font-family="Times,serif" font-size="14.00">status :string</text>
<text text-anchor="start" x="156.5" y="-1243.3" font-family="Times,serif" font-size="14.00">created_at :datetime</text>
<text text-anchor="start" x="156.5" y="-1228.3" font-family="Times,serif" font-size="14.00">updated_at :datetime</text>
</g>
<!-- Internship -->
<g id="node4" class="node"><title>Internship</title>
<path fill="none" stroke="black" d="M305,-769C305,-769 421,-769 421,-769 427,-769 433,-775 433,-781 433,-781 433,-1073 433,-1073 433,-1079 427,-1085 421,-1085 421,-1085 305,-1085 305,-1085 299,-1085 293,-1079 293,-1073 293,-1073 293,-781 293,-781 293,-775 299,-769 305,-769"/>
<text text-anchor="middle" x="363" y="-1069.8" font-family="Times,serif" font-size="14.00">Internship</text>
<polyline fill="none" stroke="black" points="293,-1062 433,-1062 "/>
<text text-anchor="start" x="301" y="-1046.8" font-family="Times,serif" font-size="14.00">id :integer</text>
<text text-anchor="start" x="301" y="-1031.8" font-family="Times,serif" font-size="14.00">company_id :integer</text>
<text text-anchor="start" x="301" y="-1016.8" font-family="Times,serif" font-size="14.00">description_job :string</text>
<text text-anchor="start" x="301" y="-1001.8" font-family="Times,serif" font-size="14.00">situation_id :integer</text>
<text text-anchor="start" x="301" y="-986.8" font-family="Times,serif" font-size="14.00">date_from :date</text>
<text text-anchor="start" x="301" y="-971.8" font-family="Times,serif" font-size="14.00">date_until :date</text>
<text text-anchor="start" x="301" y="-956.8" font-family="Times,serif" font-size="14.00">hs_monday :integer</text>
<text text-anchor="start" x="301" y="-941.8" font-family="Times,serif" font-size="14.00">hs_tuesday :integer</text>
<text text-anchor="start" x="301" y="-926.8" font-family="Times,serif" font-size="14.00">hs_wednesday :integer</text>
<text text-anchor="start" x="301" y="-911.8" font-family="Times,serif" font-size="14.00">hs_thursday :integer</text>
<text text-anchor="start" x="301" y="-896.8" font-family="Times,serif" font-size="14.00">hs_friday :integer</text>
<text text-anchor="start" x="301" y="-881.8" font-family="Times,serif" font-size="14.00">hs_saturday :integer</text>
<text text-anchor="start" x="301" y="-866.8" font-family="Times,serif" font-size="14.00">hs_sunday :integer</text>
<text text-anchor="start" x="301" y="-851.8" font-family="Times,serif" font-size="14.00">created_at :datetime</text>
<text text-anchor="start" x="301" y="-836.8" font-family="Times,serif" font-size="14.00">updated_at :datetime</text>
<text text-anchor="start" x="301" y="-821.8" font-family="Times,serif" font-size="14.00">napplicants :integer</text>
<text text-anchor="start" x="301" y="-806.8" font-family="Times,serif" font-size="14.00">horario :boolean</text>
<text text-anchor="start" x="301" y="-791.8" font-family="Times,serif" font-size="14.00">description :text</text>
<text text-anchor="start" x="301" y="-776.8" font-family="Times,serif" font-size="14.00">type_id :integer</text>
</g>
<!-- Situation&#45;&gt;Internship -->
<g id="edge1" class="edge"><title>Situation&#45;&gt;Internship</title>
<path fill="none" stroke="#0c8b1b" d="M237.143,-1212.66C251.361,-1180.5 270.441,-1137.34 289.439,-1094.38"/>
<ellipse fill="none" stroke="#0c8b1b" cx="235.404" cy="-1216.59" rx="4.00002" ry="4.00002"/>
<polygon fill="#0c8b1b" stroke="#0c8b1b" points="289.446,-1094.36 297.606,-1087.03 291.468,-1089.79 293.49,-1085.21 293.49,-1085.21 293.49,-1085.21 291.468,-1089.79 289.375,-1083.39 289.446,-1094.36 289.446,-1094.36"/>
</g>
<!-- Contract -->
<g id="node3" class="node"><title>Contract</title>
<path fill="none" stroke="black" d="M312.5,-61C312.5,-61 421.5,-61 421.5,-61 427.5,-61 433.5,-67 433.5,-73 433.5,-73 433.5,-125 433.5,-125 433.5,-131 427.5,-137 421.5,-137 421.5,-137 312.5,-137 312.5,-137 306.5,-137 300.5,-131 300.5,-125 300.5,-125 300.5,-73 300.5,-73 300.5,-67 306.5,-61 312.5,-61"/>
<text text-anchor="middle" x="367" y="-121.8" font-family="Times,serif" font-size="14.00">Contract</text>
<polyline fill="none" stroke="black" points="300.5,-114 433.5,-114 "/>
<text text-anchor="start" x="308.5" y="-98.8" font-family="Times,serif" font-size="14.00">id :integer</text>
<text text-anchor="start" x="308.5" y="-83.8" font-family="Times,serif" font-size="14.00">user_id :integer</text>
<text text-anchor="start" x="308.5" y="-68.8" font-family="Times,serif" font-size="14.00">internship_id :integer</text>
</g>
<!-- Internship&#45;&gt;Contract -->
<g id="edge2" class="edge"><title>Internship&#45;&gt;Contract</title>
<path fill="none" stroke="#629908" d="M363.801,-760.538C364.731,-568.575 366.208,-263.546 366.771,-147.198"/>
<ellipse fill="none" stroke="#629908" cx="363.781" cy="-764.692" rx="4" ry="4"/>
<polygon fill="#629908" stroke="#629908" points="366.771,-147.187 371.32,-137.209 366.796,-142.187 366.82,-137.187 366.82,-137.187 366.82,-137.187 366.796,-142.187 362.32,-137.165 366.771,-147.187 366.771,-147.187"/>
</g>
<!-- Task -->
<g id="node11" class="node"><title>Task</title>
<path fill="none" stroke="black" d="M219.5,-437.5C219.5,-437.5 326.5,-437.5 326.5,-437.5 332.5,-437.5 338.5,-443.5 338.5,-449.5 338.5,-449.5 338.5,-516.5 338.5,-516.5 338.5,-522.5 332.5,-528.5 326.5,-528.5 326.5,-528.5 219.5,-528.5 219.5,-528.5 213.5,-528.5 207.5,-522.5 207.5,-516.5 207.5,-516.5 207.5,-449.5 207.5,-449.5 207.5,-443.5 213.5,-437.5 219.5,-437.5"/>
<text text-anchor="middle" x="273" y="-513.3" font-family="Times,serif" font-size="14.00">Task</text>
<polyline fill="none" stroke="black" points="207.5,-505.5 338.5,-505.5 "/>
<text text-anchor="start" x="215.5" y="-490.3" font-family="Times,serif" font-size="14.00">id :integer</text>
<text text-anchor="start" x="215.5" y="-475.3" font-family="Times,serif" font-size="14.00">description :string</text>
<text text-anchor="start" x="215.5" y="-460.3" font-family="Times,serif" font-size="14.00">created_at :datetime</text>
<text text-anchor="start" x="215.5" y="-445.3" font-family="Times,serif" font-size="14.00">updated_at :datetime</text>
</g>
<!-- Internship&#45;&gt;Task -->
<g id="edge3" class="edge"><title>Internship&#45;&gt;Task</title>
<path fill="none" stroke="#e3b4d6" d="M328.973,-758.889C313.112,-680.997 295.315,-593.593 284.134,-538.682"/>
<polygon fill="#e3b4d6" stroke="#e3b4d6" points="329.021,-759.124 326.606,-769.821 330.018,-764.023 331.016,-768.923 331.016,-768.923 331.016,-768.923 330.018,-764.023 335.425,-768.025 329.021,-759.124 329.021,-759.124"/>
<polygon fill="#e3b4d6" stroke="#e3b4d6" points="284.121,-538.616 286.535,-527.919 283.123,-533.716 282.126,-528.817 282.126,-528.817 282.126,-528.817 283.123,-533.716 277.716,-529.715 284.121,-538.616 284.121,-538.616"/>
</g>
<!-- User -->
<g id="node12" class="node"><title>User</title>
<path fill="none" stroke="black" d="M461,-235C461,-235 587,-235 587,-235 593,-235 599,-241 599,-247 599,-247 599,-719 599,-719 599,-725 593,-731 587,-731 587,-731 461,-731 461,-731 455,-731 449,-725 449,-719 449,-719 449,-247 449,-247 449,-241 455,-235 461,-235"/>
<text text-anchor="middle" x="524" y="-715.8" font-family="Times,serif" font-size="14.00">User</text>
<polyline fill="none" stroke="black" points="449,-708 599,-708 "/>
<text text-anchor="start" x="457" y="-692.8" font-family="Times,serif" font-size="14.00">id :integer</text>
<text text-anchor="start" x="457" y="-677.8" font-family="Times,serif" font-size="14.00">name :string</text>
<text text-anchor="start" x="457" y="-662.8" font-family="Times,serif" font-size="14.00">surname :string</text>
<text text-anchor="start" x="457" y="-647.8" font-family="Times,serif" font-size="14.00">dni :string</text>
<text text-anchor="start" x="457" y="-632.8" font-family="Times,serif" font-size="14.00">locality_id :integer</text>
<text text-anchor="start" x="457" y="-617.8" font-family="Times,serif" font-size="14.00">password_digest :string</text>
<text text-anchor="start" x="457" y="-602.8" font-family="Times,serif" font-size="14.00">created_at :datetime</text>
<text text-anchor="start" x="457" y="-587.8" font-family="Times,serif" font-size="14.00">updated_at :datetime</text>
<text text-anchor="start" x="457" y="-572.8" font-family="Times,serif" font-size="14.00">email :string</text>
<text text-anchor="start" x="457" y="-557.8" font-family="Times,serif" font-size="14.00">admin :boolean</text>
<text text-anchor="start" x="457" y="-542.8" font-family="Times,serif" font-size="14.00">cuil :string</text>
<text text-anchor="start" x="457" y="-527.8" font-family="Times,serif" font-size="14.00">address :string</text>
<text text-anchor="start" x="457" y="-512.8" font-family="Times,serif" font-size="14.00">manager :boolean</text>
<text text-anchor="start" x="457" y="-497.8" font-family="Times,serif" font-size="14.00">linkedin :string</text>
<text text-anchor="start" x="457" y="-482.8" font-family="Times,serif" font-size="14.00">celphone :string</text>
<text text-anchor="start" x="457" y="-467.8" font-family="Times,serif" font-size="14.00">homephone :string</text>
<text text-anchor="start" x="457" y="-452.8" font-family="Times,serif" font-size="14.00">treatment_id :integer</text>
<text text-anchor="start" x="457" y="-437.8" font-family="Times,serif" font-size="14.00">anioegreso :integer</text>
<text text-anchor="start" x="457" y="-422.8" font-family="Times,serif" font-size="14.00">career :string</text>
<text text-anchor="start" x="457" y="-407.8" font-family="Times,serif" font-size="14.00">working :boolean</text>
<text text-anchor="start" x="457" y="-392.8" font-family="Times,serif" font-size="14.00">workwhere :string</text>
<text text-anchor="start" x="457" y="-377.8" font-family="Times,serif" font-size="14.00">searchingjob :boolean</text>
<text text-anchor="start" x="457" y="-362.8" font-family="Times,serif" font-size="14.00">skills :string</text>
<text text-anchor="start" x="457" y="-347.8" font-family="Times,serif" font-size="14.00">skillstoimprove :string</text>
<text text-anchor="start" x="457" y="-332.8" font-family="Times,serif" font-size="14.00">skype :string</text>
<text text-anchor="start" x="457" y="-317.8" font-family="Times,serif" font-size="14.00">careercomplete :boolean</text>
<text text-anchor="start" x="457" y="-302.8" font-family="Times,serif" font-size="14.00">position :string</text>
<text text-anchor="start" x="457" y="-287.8" font-family="Times,serif" font-size="14.00">validated :boolean</text>
<text text-anchor="start" x="457" y="-272.8" font-family="Times,serif" font-size="14.00">validated_id :integer</text>
<text text-anchor="start" x="457" y="-257.8" font-family="Times,serif" font-size="14.00">graduated_id :integer</text>
<text text-anchor="start" x="457" y="-242.8" font-family="Times,serif" font-size="14.00">graduated :boolean</text>
</g>
<!-- Internship&#45;&gt;User -->
<g id="edge4" class="edge"><title>Internship&#45;&gt;User</title>
<path fill="none" stroke="#da4af4" d="M423.727,-759.283C430.838,-739.76 438.169,-719.635 445.478,-699.569"/>
<polygon fill="#da4af4" stroke="#da4af4" points="423.639,-759.527 415.988,-767.383 421.927,-764.225 420.216,-768.923 420.216,-768.923 420.216,-768.923 421.927,-764.225 424.444,-770.463 423.639,-759.527 423.639,-759.527"/>
<polygon fill="#da4af4" stroke="#da4af4" points="445.526,-699.439 453.176,-691.583 447.237,-694.741 448.948,-690.043 448.948,-690.043 448.948,-690.043 447.237,-694.741 444.72,-688.503 445.526,-699.439 445.526,-699.439"/>
</g>
<!-- Type -->
<g id="node5" class="node"><title>Type</title>
<path fill="none" stroke="black" d="M11.5,-1220.5C11.5,-1220.5 118.5,-1220.5 118.5,-1220.5 124.5,-1220.5 130.5,-1226.5 130.5,-1232.5 130.5,-1232.5 130.5,-1299.5 130.5,-1299.5 130.5,-1305.5 124.5,-1311.5 118.5,-1311.5 118.5,-1311.5 11.5,-1311.5 11.5,-1311.5 5.5,-1311.5 -0.5,-1305.5 -0.5,-1299.5 -0.5,-1299.5 -0.5,-1232.5 -0.5,-1232.5 -0.5,-1226.5 5.5,-1220.5 11.5,-1220.5"/>
<text text-anchor="middle" x="65" y="-1296.3" font-family="Times,serif" font-size="14.00">Type</text>
<polyline fill="none" stroke="black" points="-0.5,-1288.5 130.5,-1288.5 "/>
<text text-anchor="start" x="7.5" y="-1273.3" font-family="Times,serif" font-size="14.00">id :integer</text>
<text text-anchor="start" x="7.5" y="-1258.3" font-family="Times,serif" font-size="14.00">tipo :string</text>
<text text-anchor="start" x="7.5" y="-1243.3" font-family="Times,serif" font-size="14.00">created_at :datetime</text>
<text text-anchor="start" x="7.5" y="-1228.3" font-family="Times,serif" font-size="14.00">updated_at :datetime</text>
</g>
<!-- Type&#45;&gt;Internship -->
<g id="edge5" class="edge"><title>Type&#45;&gt;Internship</title>
<path fill="none" stroke="#794c56" d="M86.2196,-1212.75C99.1382,-1184.35 117.323,-1149.51 139,-1122 180.673,-1069.11 238.29,-1019.58 284.653,-983.815"/>
<ellipse fill="none" stroke="#794c56" cx="84.5184" cy="-1216.55" rx="4.00002" ry="4.00002"/>
<polygon fill="#794c56" stroke="#794c56" points="284.934,-983.6 295.611,-981.097 288.905,-980.561 292.876,-977.523 292.876,-977.523 292.876,-977.523 288.905,-980.561 290.142,-973.949 284.934,-983.6 284.934,-983.6"/>
</g>
<!-- Company -->
<g id="node6" class="node"><title>Company</title>
<path fill="none" stroke="black" d="M459,-1123C459,-1123 613,-1123 613,-1123 619,-1123 625,-1129 625,-1135 625,-1135 625,-1397 625,-1397 625,-1403 619,-1409 613,-1409 613,-1409 459,-1409 459,-1409 453,-1409 447,-1403 447,-1397 447,-1397 447,-1135 447,-1135 447,-1129 453,-1123 459,-1123"/>
<text text-anchor="middle" x="536" y="-1393.8" font-family="Times,serif" font-size="14.00">Company</text>
<polyline fill="none" stroke="black" points="447,-1386 625,-1386 "/>
<text text-anchor="start" x="455" y="-1370.8" font-family="Times,serif" font-size="14.00">id :integer</text>
<text text-anchor="start" x="455" y="-1355.8" font-family="Times,serif" font-size="14.00">name :string</text>
<text text-anchor="start" x="455" y="-1340.8" font-family="Times,serif" font-size="14.00">address :string</text>
<text text-anchor="start" x="455" y="-1325.8" font-family="Times,serif" font-size="14.00">locality_id :integer</text>
<text text-anchor="start" x="455" y="-1310.8" font-family="Times,serif" font-size="14.00">manager :string</text>
<text text-anchor="start" x="455" y="-1295.8" font-family="Times,serif" font-size="14.00">boss :string</text>
<text text-anchor="start" x="455" y="-1280.8" font-family="Times,serif" font-size="14.00">created_at :datetime</text>
<text text-anchor="start" x="455" y="-1265.8" font-family="Times,serif" font-size="14.00">updated_at :datetime</text>
<text text-anchor="start" x="455" y="-1250.8" font-family="Times,serif" font-size="14.00">boss_dni :string</text>
<text text-anchor="start" x="455" y="-1235.8" font-family="Times,serif" font-size="14.00">manager_cuil :string</text>
<text text-anchor="start" x="455" y="-1220.8" font-family="Times,serif" font-size="14.00">position :string</text>
<text text-anchor="start" x="455" y="-1205.8" font-family="Times,serif" font-size="14.00">user_id :integer</text>
<text text-anchor="start" x="455" y="-1190.8" font-family="Times,serif" font-size="14.00">razon :string</text>
<text text-anchor="start" x="455" y="-1175.8" font-family="Times,serif" font-size="14.00">art :string</text>
<text text-anchor="start" x="455" y="-1160.8" font-family="Times,serif" font-size="14.00">obsocial :string</text>
<text text-anchor="start" x="455" y="-1145.8" font-family="Times,serif" font-size="14.00">bosstreatment_id :integer</text>
<text text-anchor="start" x="455" y="-1130.8" font-family="Times,serif" font-size="14.00">managertreatment_id :integer</text>
</g>
<!-- Company&#45;&gt;Internship -->
<g id="edge6" class="edge"><title>Company&#45;&gt;Internship</title>
<path fill="none" stroke="#974530" d="M459.173,-1115.34C452.054,-1101.47 444.846,-1087.43 437.746,-1073.6"/>
<ellipse fill="none" stroke="#974530" cx="461.056" cy="-1119.01" rx="4.00002" ry="4.00002"/>
<polygon fill="#974530" stroke="#974530" points="437.664,-1073.44 437.101,-1062.49 435.381,-1069 433.097,-1064.55 433.097,-1064.55 433.097,-1064.55 435.381,-1069 429.094,-1066.6 437.664,-1073.44 437.664,-1073.44"/>
</g>
<!-- Company&#45;&gt;User -->
<g id="edge7" class="edge"><title>Company&#45;&gt;User</title>
<path fill="none" stroke="#f20142" d="M533.659,-1112.63C532.04,-1007.25 529.846,-864.448 527.958,-741.578"/>
<polygon fill="#f20142" stroke="#f20142" points="533.659,-1112.66 529.313,-1122.73 533.736,-1117.66 533.813,-1122.66 533.813,-1122.66 533.813,-1122.66 533.736,-1117.66 538.312,-1122.59 533.659,-1112.66 533.659,-1112.66"/>
<polygon fill="#f20142" stroke="#f20142" points="527.953,-741.263 532.299,-731.195 527.876,-736.264 527.799,-731.264 527.799,-731.264 527.799,-731.264 527.876,-736.264 523.3,-731.333 527.953,-741.263 527.953,-741.263"/>
</g>
<!-- InternshipsUser -->
<g id="node7" class="node"><title>InternshipsUser</title>
<path fill="none" stroke="black" d="M689.5,-1605.5C689.5,-1605.5 798.5,-1605.5 798.5,-1605.5 804.5,-1605.5 810.5,-1611.5 810.5,-1617.5 810.5,-1617.5 810.5,-1654.5 810.5,-1654.5 810.5,-1660.5 804.5,-1666.5 798.5,-1666.5 798.5,-1666.5 689.5,-1666.5 689.5,-1666.5 683.5,-1666.5 677.5,-1660.5 677.5,-1654.5 677.5,-1654.5 677.5,-1617.5 677.5,-1617.5 677.5,-1611.5 683.5,-1605.5 689.5,-1605.5"/>
<text text-anchor="middle" x="744" y="-1651.3" font-family="Times,serif" font-size="14.00">InternshipsUser</text>
<polyline fill="none" stroke="black" points="677.5,-1643.5 810.5,-1643.5 "/>
<text text-anchor="start" x="685.5" y="-1628.3" font-family="Times,serif" font-size="14.00">internship_id :integer</text>
<text text-anchor="start" x="685.5" y="-1613.3" font-family="Times,serif" font-size="14.00">user_id :integer</text>
</g>
<!-- InternshipsTask -->
<g id="node8" class="node"><title>InternshipsTask</title>
<path fill="none" stroke="black" d="M840.5,-1598C840.5,-1598 949.5,-1598 949.5,-1598 955.5,-1598 961.5,-1604 961.5,-1610 961.5,-1610 961.5,-1662 961.5,-1662 961.5,-1668 955.5,-1674 949.5,-1674 949.5,-1674 840.5,-1674 840.5,-1674 834.5,-1674 828.5,-1668 828.5,-1662 828.5,-1662 828.5,-1610 828.5,-1610 828.5,-1604 834.5,-1598 840.5,-1598"/>
<text text-anchor="middle" x="895" y="-1658.8" font-family="Times,serif" font-size="14.00">InternshipsTask</text>
<polyline fill="none" stroke="black" points="828.5,-1651 961.5,-1651 "/>
<text text-anchor="start" x="836.5" y="-1635.8" font-family="Times,serif" font-size="14.00">id :integer</text>
<text text-anchor="start" x="836.5" y="-1620.8" font-family="Times,serif" font-size="14.00">internship_id :integer</text>
<text text-anchor="start" x="836.5" y="-1605.8" font-family="Times,serif" font-size="14.00">task_id :integer</text>
</g>
<!-- Locality -->
<g id="node9" class="node"><title>Locality</title>
<path fill="none" stroke="black" d="M540.5,-1447C540.5,-1447 647.5,-1447 647.5,-1447 653.5,-1447 659.5,-1453 659.5,-1459 659.5,-1459 659.5,-1541 659.5,-1541 659.5,-1547 653.5,-1553 647.5,-1553 647.5,-1553 540.5,-1553 540.5,-1553 534.5,-1553 528.5,-1547 528.5,-1541 528.5,-1541 528.5,-1459 528.5,-1459 528.5,-1453 534.5,-1447 540.5,-1447"/>
<text text-anchor="middle" x="594" y="-1537.8" font-family="Times,serif" font-size="14.00">Locality</text>
<polyline fill="none" stroke="black" points="528.5,-1530 659.5,-1530 "/>
<text text-anchor="start" x="536.5" y="-1514.8" font-family="Times,serif" font-size="14.00">id :integer</text>
<text text-anchor="start" x="536.5" y="-1499.8" font-family="Times,serif" font-size="14.00">locality :string</text>
<text text-anchor="start" x="536.5" y="-1484.8" font-family="Times,serif" font-size="14.00">province_id :integer</text>
<text text-anchor="start" x="536.5" y="-1469.8" font-family="Times,serif" font-size="14.00">created_at :datetime</text>
<text text-anchor="start" x="536.5" y="-1454.8" font-family="Times,serif" font-size="14.00">updated_at :datetime</text>
</g>
<!-- Locality&#45;&gt;Company -->
<g id="edge9" class="edge"><title>Locality&#45;&gt;Company</title>
<path fill="none" stroke="#1b54c5" d="M579.034,-1439.14C577.257,-1432.03 575.387,-1424.55 573.463,-1416.85"/>
<ellipse fill="none" stroke="#1b54c5" cx="580.013" cy="-1443.05" rx="4.00001" ry="4.00001"/>
<ellipse fill="#1b54c5" stroke="#1b54c5" cx="572.492" cy="-1412.97" rx="4.00001" ry="4.00001"/>
</g>
<!-- Locality&#45;&gt;User -->
<g id="edge8" class="edge"><title>Locality&#45;&gt;User</title>
<path fill="none" stroke="#018b4d" d="M624.228,-1439.01C627.853,-1429.51 630.98,-1419.64 633,-1410 659.245,-1284.72 643.817,-1249.54 633,-1122 622.232,-995.036 599.618,-855.371 577.764,-739.168"/>
<ellipse fill="none" stroke="#018b4d" cx="622.709" cy="-1442.82" rx="4.00001" ry="4.00001"/>
<ellipse fill="#018b4d" stroke="#018b4d" cx="577.001" cy="-735.127" rx="4.00001" ry="4.00001"/>
</g>
<!-- Treatment -->
<g id="node10" class="node"><title>Treatment</title>
<path fill="none" stroke="black" d="M309.5,-1220.5C309.5,-1220.5 416.5,-1220.5 416.5,-1220.5 422.5,-1220.5 428.5,-1226.5 428.5,-1232.5 428.5,-1232.5 428.5,-1299.5 428.5,-1299.5 428.5,-1305.5 422.5,-1311.5 416.5,-1311.5 416.5,-1311.5 309.5,-1311.5 309.5,-1311.5 303.5,-1311.5 297.5,-1305.5 297.5,-1299.5 297.5,-1299.5 297.5,-1232.5 297.5,-1232.5 297.5,-1226.5 303.5,-1220.5 309.5,-1220.5"/>
<text text-anchor="middle" x="363" y="-1296.3" font-family="Times,serif" font-size="14.00">Treatment</text>
<polyline fill="none" stroke="black" points="297.5,-1288.5 428.5,-1288.5 "/>
<text text-anchor="start" x="305.5" y="-1273.3" font-family="Times,serif" font-size="14.00">id :integer</text>
<text text-anchor="start" x="305.5" y="-1258.3" font-family="Times,serif" font-size="14.00">treatment :string</text>
<text text-anchor="start" x="305.5" y="-1243.3" font-family="Times,serif" font-size="14.00">created_at :datetime</text>
<text text-anchor="start" x="305.5" y="-1228.3" font-family="Times,serif" font-size="14.00">updated_at :datetime</text>
</g>
<!-- Treatment&#45;&gt;Internship -->
<g id="edge11" class="edge"><title>Treatment&#45;&gt;Internship</title>
<path fill="none" stroke="#4566f9" d="M363,-1212.22C363,-1180.37 363,-1137.84 363,-1095.41"/>
<ellipse fill="none" stroke="#4566f9" cx="363" cy="-1216.25" rx="4" ry="4"/>
<polygon fill="#4566f9" stroke="#4566f9" points="363,-1095.21 367.5,-1085.21 363,-1090.21 363,-1085.21 363,-1085.21 363,-1085.21 363,-1090.21 358.5,-1085.21 363,-1095.21 363,-1095.21"/>
</g>
<!-- Treatment&#45;&gt;User -->
<g id="edge10" class="edge"><title>Treatment&#45;&gt;User</title>
<path fill="none" stroke="#88ae9a" d="M390.58,-1213.06C407.974,-1178.08 429.448,-1130.4 442,-1086 473.373,-975.022 492.905,-849.029 504.988,-741.09"/>
<ellipse fill="none" stroke="#88ae9a" cx="388.729" cy="-1216.75" rx="4.00002" ry="4.00002"/>
<polygon fill="#88ae9a" stroke="#88ae9a" points="505,-740.975 510.571,-731.529 505.549,-736.005 506.098,-731.035 506.098,-731.035 506.098,-731.035 505.549,-736.005 501.625,-730.541 505,-740.975 505,-740.975"/>
</g>
<!-- User&#45;&gt;Contract -->
<g id="edge12" class="edge"><title>User&#45;&gt;Contract</title>
<path fill="none" stroke="#c3cccb" d="M445.843,-291.834C423.615,-237.751 401.351,-183.579 386.178,-146.663"/>
<ellipse fill="none" stroke="#c3cccb" cx="447.428" cy="-295.691" rx="4.00001" ry="4.00001"/>
<polygon fill="#c3cccb" stroke="#c3cccb" points="386.087,-146.442 386.448,-135.482 384.187,-141.817 382.286,-137.192 382.286,-137.192 382.286,-137.192 384.187,-141.817 378.124,-138.903 386.087,-146.442 386.087,-146.442"/>
</g>
<!-- Study -->
<g id="node15" class="node"><title>Study</title>
<path fill="none" stroke="black" d="M626.5,-16C626.5,-16 733.5,-16 733.5,-16 739.5,-16 745.5,-22 745.5,-28 745.5,-28 745.5,-170 745.5,-170 745.5,-176 739.5,-182 733.5,-182 733.5,-182 626.5,-182 626.5,-182 620.5,-182 614.5,-176 614.5,-170 614.5,-170 614.5,-28 614.5,-28 614.5,-22 620.5,-16 626.5,-16"/>
<text text-anchor="middle" x="680" y="-166.8" font-family="Times,serif" font-size="14.00">Study</text>
<polyline fill="none" stroke="black" points="614.5,-159 745.5,-159 "/>
<text text-anchor="start" x="622.5" y="-143.8" font-family="Times,serif" font-size="14.00">id :integer</text>
<text text-anchor="start" x="622.5" y="-128.8" font-family="Times,serif" font-size="14.00">academy :string</text>
<text text-anchor="start" x="622.5" y="-113.8" font-family="Times,serif" font-size="14.00">from :date</text>
<text text-anchor="start" x="622.5" y="-98.8" font-family="Times,serif" font-size="14.00">until :date</text>
<text text-anchor="start" x="622.5" y="-83.8" font-family="Times,serif" font-size="14.00">title :string</text>
<text text-anchor="start" x="622.5" y="-68.8" font-family="Times,serif" font-size="14.00">description :string</text>
<text text-anchor="start" x="622.5" y="-53.8" font-family="Times,serif" font-size="14.00">created_at :datetime</text>
<text text-anchor="start" x="622.5" y="-38.8" font-family="Times,serif" font-size="14.00">updated_at :datetime</text>
<text text-anchor="start" x="622.5" y="-23.8" font-family="Times,serif" font-size="14.00">user_id :integer</text>
</g>
<!-- User&#45;&gt;Study -->
<g id="edge14" class="edge"><title>User&#45;&gt;Study</title>
<path fill="none" stroke="#ac8f2e" d="M602.149,-290.636C616.222,-256.174 630.289,-221.727 642.517,-191.784"/>
<ellipse fill="none" stroke="#ac8f2e" cx="600.542" cy="-294.57" rx="4.00001" ry="4.00001"/>
<polygon fill="#ac8f2e" stroke="#ac8f2e" points="642.64,-191.484 650.587,-183.928 644.53,-186.855 646.421,-182.226 646.421,-182.226 646.421,-182.226 644.53,-186.855 642.255,-180.525 642.64,-191.484 642.64,-191.484"/>
</g>
<!-- Job -->
<g id="node16" class="node"><title>Job</title>
<path fill="none" stroke="black" d="M463.5,-1C463.5,-1 584.5,-1 584.5,-1 590.5,-1 596.5,-7 596.5,-13 596.5,-13 596.5,-185 596.5,-185 596.5,-191 590.5,-197 584.5,-197 584.5,-197 463.5,-197 463.5,-197 457.5,-197 451.5,-191 451.5,-185 451.5,-185 451.5,-13 451.5,-13 451.5,-7 457.5,-1 463.5,-1"/>
<text text-anchor="middle" x="524" y="-181.8" font-family="Times,serif" font-size="14.00">Job</text>
<polyline fill="none" stroke="black" points="451.5,-174 596.5,-174 "/>
<text text-anchor="start" x="459.5" y="-158.8" font-family="Times,serif" font-size="14.00">id :integer</text>
<text text-anchor="start" x="459.5" y="-143.8" font-family="Times,serif" font-size="14.00">enterprise_name :string</text>
<text text-anchor="start" x="459.5" y="-128.8" font-family="Times,serif" font-size="14.00">position :string</text>
<text text-anchor="start" x="459.5" y="-113.8" font-family="Times,serif" font-size="14.00">area :string</text>
<text text-anchor="start" x="459.5" y="-98.8" font-family="Times,serif" font-size="14.00">from :date</text>
<text text-anchor="start" x="459.5" y="-83.8" font-family="Times,serif" font-size="14.00">until :date</text>
<text text-anchor="start" x="459.5" y="-68.8" font-family="Times,serif" font-size="14.00">workingnow :boolean</text>
<text text-anchor="start" x="459.5" y="-53.8" font-family="Times,serif" font-size="14.00">taskdescription :string</text>
<text text-anchor="start" x="459.5" y="-38.8" font-family="Times,serif" font-size="14.00">user_id :integer</text>
<text text-anchor="start" x="459.5" y="-23.8" font-family="Times,serif" font-size="14.00">created_at :datetime</text>
<text text-anchor="start" x="459.5" y="-8.8" font-family="Times,serif" font-size="14.00">updated_at :datetime</text>
</g>
<!-- User&#45;&gt;Job -->
<g id="edge13" class="edge"><title>User&#45;&gt;Job</title>
<path fill="none" stroke="#813f56" d="M524,-226.728C524,-220.208 524,-213.8 524,-207.542"/>
<ellipse fill="none" stroke="#813f56" cx="524" cy="-230.948" rx="4" ry="4"/>
<polygon fill="#813f56" stroke="#813f56" points="524,-207.156 528.5,-197.156 524,-202.156 524,-197.156 524,-197.156 524,-197.156 524,-202.156 519.5,-197.156 524,-207.156 524,-207.156"/>
</g>
<!-- Skill -->
<g id="node13" class="node"><title>Skill</title>
<path fill="none" stroke="black" d="M991.5,-1590.5C991.5,-1590.5 1098.5,-1590.5 1098.5,-1590.5 1104.5,-1590.5 1110.5,-1596.5 1110.5,-1602.5 1110.5,-1602.5 1110.5,-1669.5 1110.5,-1669.5 1110.5,-1675.5 1104.5,-1681.5 1098.5,-1681.5 1098.5,-1681.5 991.5,-1681.5 991.5,-1681.5 985.5,-1681.5 979.5,-1675.5 979.5,-1669.5 979.5,-1669.5 979.5,-1602.5 979.5,-1602.5 979.5,-1596.5 985.5,-1590.5 991.5,-1590.5"/>
<text text-anchor="middle" x="1045" y="-1666.3" font-family="Times,serif" font-size="14.00">Skill</text>
<polyline fill="none" stroke="black" points="979.5,-1658.5 1110.5,-1658.5 "/>
<text text-anchor="start" x="987.5" y="-1643.3" font-family="Times,serif" font-size="14.00">id :integer</text>
<text text-anchor="start" x="987.5" y="-1628.3" font-family="Times,serif" font-size="14.00">name :string</text>
<text text-anchor="start" x="987.5" y="-1613.3" font-family="Times,serif" font-size="14.00">created_at :datetime</text>
<text text-anchor="start" x="987.5" y="-1598.3" font-family="Times,serif" font-size="14.00">updated_at :datetime</text>
</g>
<!-- Province -->
<g id="node14" class="node"><title>Province</title>
<path fill="none" stroke="black" d="M540.5,-1590.5C540.5,-1590.5 647.5,-1590.5 647.5,-1590.5 653.5,-1590.5 659.5,-1596.5 659.5,-1602.5 659.5,-1602.5 659.5,-1669.5 659.5,-1669.5 659.5,-1675.5 653.5,-1681.5 647.5,-1681.5 647.5,-1681.5 540.5,-1681.5 540.5,-1681.5 534.5,-1681.5 528.5,-1675.5 528.5,-1669.5 528.5,-1669.5 528.5,-1602.5 528.5,-1602.5 528.5,-1596.5 534.5,-1590.5 540.5,-1590.5"/>
<text text-anchor="middle" x="594" y="-1666.3" font-family="Times,serif" font-size="14.00">Province</text>
<polyline fill="none" stroke="black" points="528.5,-1658.5 659.5,-1658.5 "/>
<text text-anchor="start" x="536.5" y="-1643.3" font-family="Times,serif" font-size="14.00">id :integer</text>
<text text-anchor="start" x="536.5" y="-1628.3" font-family="Times,serif" font-size="14.00">province :string</text>
<text text-anchor="start" x="536.5" y="-1613.3" font-family="Times,serif" font-size="14.00">created_at :datetime</text>
<text text-anchor="start" x="536.5" y="-1598.3" font-family="Times,serif" font-size="14.00">updated_at :datetime</text>
</g>
<!-- Province&#45;&gt;Locality -->
<g id="edge15" class="edge"><title>Province&#45;&gt;Locality</title>
<path fill="none" stroke="#d70440" d="M594,-1582.16C594,-1576.09 594,-1569.84 594,-1563.65"/>
<ellipse fill="none" stroke="#d70440" cx="594" cy="-1586.38" rx="4" ry="4"/>
<polygon fill="#d70440" stroke="#d70440" points="594,-1563.32 598.5,-1553.32 594,-1558.32 594,-1553.32 594,-1553.32 594,-1553.32 594,-1558.32 589.5,-1553.32 594,-1563.32 594,-1563.32"/>
</g>
</g>
</svg>
