<?xml version="1.0" encoding="UTF-8" standalone="no"?>
<!DOCTYPE svg PUBLIC "-//W3C//DTD SVG 1.1//EN"
 "http://www.w3.org/Graphics/SVG/1.1/DTD/svg11.dtd">
<!-- Generated by graphviz version 2.26.3 (20100126.1600)
 -->
<!-- Title: models_diagram Pages: 1 -->
<svg width="1052pt" height="1574pt"
 viewBox="0.00 0.00 1052.00 1574.00" xmlns="http://www.w3.org/2000/svg" xmlns:xlink="http://www.w3.org/1999/xlink">
<g id="graph1" class="graph" transform="scale(1 1) rotate(0) translate(4 1570)">
<title>models_diagram</title>
<polygon fill="white" stroke="white" points="-4,5 -4,-1570 1049,-1570 1049,5 -4,5"/>
<!-- _diagram_info -->
<g id="node1" class="node"><title>_diagram_info</title>
<text text-anchor="start" x="50" y="-1542.8" font-family="Times Roman,serif" font-size="13.00">Models diagram</text>
<text text-anchor="start" x="50" y="-1525.8" font-family="Times Roman,serif" font-size="13.00">Date: Jun 10 2013 &#45; 16:56</text>
<text text-anchor="start" x="50" y="-1508.8" font-family="Times Roman,serif" font-size="13.00">Migration version: 20130610184034</text>
<text text-anchor="start" x="50" y="-1491.8" font-family="Times Roman,serif" font-size="13.00">Generated by RailRoady 1.1.0</text>
<text text-anchor="start" x="50" y="-1474.8" font-family="Times Roman,serif" font-size="13.00">http://railroady.prestonlee.com</text>
</g>
<!-- User -->
<g id="node2" class="node"><title>User</title>
<polyline fill="none" stroke="black" points="486.5,-919 641.5,-919 "/>
<path fill="none" stroke="black" d="M641.5,-919C647.5,-919 653.5,-925 653.5,-931"/>
<polyline fill="none" stroke="black" points="653.5,-931 653.5,-1247 "/>
<path fill="none" stroke="black" d="M653.5,-1247C653.5,-1253 647.5,-1259 641.5,-1259"/>
<polyline fill="none" stroke="black" points="641.5,-1259 486.5,-1259 "/>
<path fill="none" stroke="black" d="M486.5,-1259C480.5,-1259 474.5,-1253 474.5,-1247"/>
<polyline fill="none" stroke="black" points="474.5,-1247 474.5,-931 "/>
<path fill="none" stroke="black" d="M474.5,-931C474.5,-925 480.5,-919 486.5,-919"/>
<text text-anchor="middle" x="564" y="-1242.4" font-family="Times Roman,serif" font-size="14.00">User</text>
<polyline fill="none" stroke="black" points="474.5,-1233 653.5,-1233 "/>
<text text-anchor="start" x="482.5" y="-1216.4" font-family="Times Roman,serif" font-size="14.00">id :integer</text>
<text text-anchor="start" x="482.5" y="-1198.4" font-family="Times Roman,serif" font-size="14.00">name :string</text>
<text text-anchor="start" x="482.5" y="-1180.4" font-family="Times Roman,serif" font-size="14.00">surname :string</text>
<text text-anchor="start" x="482.5" y="-1162.4" font-family="Times Roman,serif" font-size="14.00">dni :string</text>
<text text-anchor="start" x="482.5" y="-1144.4" font-family="Times Roman,serif" font-size="14.00">locality_id :integer</text>
<text text-anchor="start" x="482.5" y="-1126.4" font-family="Times Roman,serif" font-size="14.00">password_digest :string</text>
<text text-anchor="start" x="482.5" y="-1108.4" font-family="Times Roman,serif" font-size="14.00">created_at :timestamp</text>
<text text-anchor="start" x="482.5" y="-1090.4" font-family="Times Roman,serif" font-size="14.00">updated_at :timestamp</text>
<text text-anchor="start" x="482.5" y="-1072.4" font-family="Times Roman,serif" font-size="14.00">email :string</text>
<text text-anchor="start" x="482.5" y="-1054.4" font-family="Times Roman,serif" font-size="14.00">admin :boolean</text>
<text text-anchor="start" x="482.5" y="-1036.4" font-family="Times Roman,serif" font-size="14.00">cuil :string</text>
<text text-anchor="start" x="482.5" y="-1018.4" font-family="Times Roman,serif" font-size="14.00">address :string</text>
<text text-anchor="start" x="482.5" y="-1000.4" font-family="Times Roman,serif" font-size="14.00">manager :boolean</text>
<text text-anchor="start" x="482.5" y="-982.4" font-family="Times Roman,serif" font-size="14.00">linkedin :string</text>
<text text-anchor="start" x="482.5" y="-964.4" font-family="Times Roman,serif" font-size="14.00">celphone :string</text>
<text text-anchor="start" x="482.5" y="-946.4" font-family="Times Roman,serif" font-size="14.00">homephone :string</text>
<text text-anchor="start" x="482.5" y="-928.4" font-family="Times Roman,serif" font-size="14.00">treatment_id :integer</text>
</g>
<!-- Company -->
<g id="node3" class="node"><title>Company</title>
<polyline fill="none" stroke="black" points="12,-541 214,-541 "/>
<path fill="none" stroke="black" d="M214,-541C220,-541 226,-547 226,-553"/>
<polyline fill="none" stroke="black" points="226,-553 226,-869 "/>
<path fill="none" stroke="black" d="M226,-869C226,-875 220,-881 214,-881"/>
<polyline fill="none" stroke="black" points="214,-881 12,-881 "/>
<path fill="none" stroke="black" d="M12,-881C6,-881 0,-875 0,-869"/>
<polyline fill="none" stroke="black" points="0,-869 0,-553 "/>
<path fill="none" stroke="black" d="M0,-553C0,-547 6,-541 12,-541"/>
<text text-anchor="middle" x="113" y="-864.4" font-family="Times Roman,serif" font-size="14.00">Company</text>
<polyline fill="none" stroke="black" points="0,-855 226,-855 "/>
<text text-anchor="start" x="8" y="-838.4" font-family="Times Roman,serif" font-size="14.00">id :integer</text>
<text text-anchor="start" x="8" y="-820.4" font-family="Times Roman,serif" font-size="14.00">name :string</text>
<text text-anchor="start" x="8" y="-802.4" font-family="Times Roman,serif" font-size="14.00">address :string</text>
<text text-anchor="start" x="8" y="-784.4" font-family="Times Roman,serif" font-size="14.00">locality_id :integer</text>
<text text-anchor="start" x="8" y="-766.4" font-family="Times Roman,serif" font-size="14.00">manager :string</text>
<text text-anchor="start" x="8" y="-748.4" font-family="Times Roman,serif" font-size="14.00">boss :string</text>
<text text-anchor="start" x="8" y="-730.4" font-family="Times Roman,serif" font-size="14.00">created_at :timestamp</text>
<text text-anchor="start" x="8" y="-712.4" font-family="Times Roman,serif" font-size="14.00">updated_at :timestamp</text>
<text text-anchor="start" x="8" y="-694.4" font-family="Times Roman,serif" font-size="14.00">boss_dni :string</text>
<text text-anchor="start" x="8" y="-676.4" font-family="Times Roman,serif" font-size="14.00">manager_cuil :string</text>
<text text-anchor="start" x="8" y="-658.4" font-family="Times Roman,serif" font-size="14.00">position :string</text>
<text text-anchor="start" x="8" y="-640.4" font-family="Times Roman,serif" font-size="14.00">user_id :integer</text>
<text text-anchor="start" x="8" y="-622.4" font-family="Times Roman,serif" font-size="14.00">razon :string</text>
<text text-anchor="start" x="8" y="-604.4" font-family="Times Roman,serif" font-size="14.00">art :string</text>
<text text-anchor="start" x="8" y="-586.4" font-family="Times Roman,serif" font-size="14.00">obsocial :string</text>
<text text-anchor="start" x="8" y="-568.4" font-family="Times Roman,serif" font-size="14.00">bosstreatment_id :integer</text>
<text text-anchor="start" x="8" y="-550.4" font-family="Times Roman,serif" font-size="14.00">managertreatment_id :integer</text>
</g>
<!-- User&#45;&gt;Company -->
<g id="edge10" class="edge"><title>User&#45;&gt;Company</title>
<path fill="none" stroke="#c056b2" d="M465.375,-1038.46C397.57,-1000.86 307.876,-945.266 240,-882 237.844,-879.991 235.7,-877.941 233.568,-875.855"/>
<polygon fill="#c056b2" stroke="#c056b2" points="465.612,-1038.59 472.201,-1047.35 469.992,-1041 474.371,-1043.41 474.371,-1043.41 474.371,-1043.41 469.992,-1041 476.542,-1039.47 465.612,-1038.59 465.612,-1038.59"/>
<polygon fill="#c056b2" stroke="#c056b2" points="233.428,-875.714 229.558,-865.454 229.899,-872.172 226.37,-868.63 226.37,-868.63 226.37,-868.63 229.899,-872.172 223.182,-871.806 233.428,-875.714 233.428,-875.714"/>
</g>
<!-- Contract -->
<g id="node4" class="node"><title>Contract</title>
<polyline fill="none" stroke="black" points="184,-10 324,-10 "/>
<path fill="none" stroke="black" d="M324,-10C330,-10 336,-16 336,-22"/>
<polyline fill="none" stroke="black" points="336,-22 336,-86 "/>
<path fill="none" stroke="black" d="M336,-86C336,-92 330,-98 324,-98"/>
<polyline fill="none" stroke="black" points="324,-98 184,-98 "/>
<path fill="none" stroke="black" d="M184,-98C178,-98 172,-92 172,-86"/>
<polyline fill="none" stroke="black" points="172,-86 172,-22 "/>
<path fill="none" stroke="black" d="M172,-22C172,-16 178,-10 184,-10"/>
<text text-anchor="middle" x="254" y="-81.4" font-family="Times Roman,serif" font-size="14.00">Contract</text>
<polyline fill="none" stroke="black" points="172,-72 336,-72 "/>
<text text-anchor="start" x="180" y="-55.4" font-family="Times Roman,serif" font-size="14.00">id :integer</text>
<text text-anchor="start" x="180" y="-37.4" font-family="Times Roman,serif" font-size="14.00">user_id :integer</text>
<text text-anchor="start" x="180" y="-19.4" font-family="Times Roman,serif" font-size="14.00">internship_id :integer</text>
</g>
<!-- User&#45;&gt;Contract -->
<g id="edge2" class="edge"><title>User&#45;&gt;Contract</title>
<path fill="none" stroke="#c8668d" d="M466.924,-1048.73C399.366,-1015.01 314.277,-959.813 273,-882 236.971,-814.081 247.882,-281.696 252.448,-108.35"/>
<ellipse fill="none" stroke="#c8668d" cx="470.648" cy="-1050.57" rx="4.00002" ry="4.00002"/>
<polygon fill="#c8668d" stroke="#c8668d" points="252.452,-108.179 257.218,-98.3029 252.586,-103.181 252.719,-98.1828 252.719,-98.1828 252.719,-98.1828 252.586,-103.181 248.221,-98.0627 252.452,-108.179 252.452,-108.179"/>
</g>
<!-- Study -->
<g id="node5" class="node"><title>Study</title>
<polyline fill="none" stroke="black" points="488,-613 640,-613 "/>
<path fill="none" stroke="black" d="M640,-613C646,-613 652,-619 652,-625"/>
<polyline fill="none" stroke="black" points="652,-625 652,-797 "/>
<path fill="none" stroke="black" d="M652,-797C652,-803 646,-809 640,-809"/>
<polyline fill="none" stroke="black" points="640,-809 488,-809 "/>
<path fill="none" stroke="black" d="M488,-809C482,-809 476,-803 476,-797"/>
<polyline fill="none" stroke="black" points="476,-797 476,-625 "/>
<path fill="none" stroke="black" d="M476,-625C476,-619 482,-613 488,-613"/>
<text text-anchor="middle" x="564" y="-792.4" font-family="Times Roman,serif" font-size="14.00">Study</text>
<polyline fill="none" stroke="black" points="476,-783 652,-783 "/>
<text text-anchor="start" x="484" y="-766.4" font-family="Times Roman,serif" font-size="14.00">id :integer</text>
<text text-anchor="start" x="484" y="-748.4" font-family="Times Roman,serif" font-size="14.00">academy :string</text>
<text text-anchor="start" x="484" y="-730.4" font-family="Times Roman,serif" font-size="14.00">from :date</text>
<text text-anchor="start" x="484" y="-712.4" font-family="Times Roman,serif" font-size="14.00">until :date</text>
<text text-anchor="start" x="484" y="-694.4" font-family="Times Roman,serif" font-size="14.00">title :string</text>
<text text-anchor="start" x="484" y="-676.4" font-family="Times Roman,serif" font-size="14.00">description :string</text>
<text text-anchor="start" x="484" y="-658.4" font-family="Times Roman,serif" font-size="14.00">created_at :timestamp</text>
<text text-anchor="start" x="484" y="-640.4" font-family="Times Roman,serif" font-size="14.00">updated_at :timestamp</text>
<text text-anchor="start" x="484" y="-622.4" font-family="Times Roman,serif" font-size="14.00">user_id :integer</text>
</g>
<!-- User&#45;&gt;Study -->
<g id="edge4" class="edge"><title>User&#45;&gt;Study</title>
<path fill="none" stroke="#603916" d="M564,-910.429C564,-879.393 564,-847.981 564,-819.553"/>
<ellipse fill="none" stroke="#603916" cx="564" cy="-914.798" rx="4" ry="4"/>
<polygon fill="#603916" stroke="#603916" points="564,-819.221 568.5,-809.221 564,-814.221 564,-809.221 564,-809.221 564,-809.221 564,-814.221 559.5,-809.222 564,-819.221 564,-819.221"/>
</g>
<!-- Internship -->
<g id="node8" class="node"><title>Internship</title>
<polyline fill="none" stroke="black" points="330,-145 482,-145 "/>
<path fill="none" stroke="black" d="M482,-145C488,-145 494,-151 494,-157"/>
<polyline fill="none" stroke="black" points="494,-157 494,-491 "/>
<path fill="none" stroke="black" d="M494,-491C494,-497 488,-503 482,-503"/>
<polyline fill="none" stroke="black" points="482,-503 330,-503 "/>
<path fill="none" stroke="black" d="M330,-503C324,-503 318,-497 318,-491"/>
<polyline fill="none" stroke="black" points="318,-491 318,-157 "/>
<path fill="none" stroke="black" d="M318,-157C318,-151 324,-145 330,-145"/>
<text text-anchor="middle" x="406" y="-486.4" font-family="Times Roman,serif" font-size="14.00">Internship</text>
<polyline fill="none" stroke="black" points="318,-477 494,-477 "/>
<text text-anchor="start" x="326" y="-460.4" font-family="Times Roman,serif" font-size="14.00">id :integer</text>
<text text-anchor="start" x="326" y="-442.4" font-family="Times Roman,serif" font-size="14.00">company_id :integer</text>
<text text-anchor="start" x="326" y="-424.4" font-family="Times Roman,serif" font-size="14.00">description_job :string</text>
<text text-anchor="start" x="326" y="-406.4" font-family="Times Roman,serif" font-size="14.00">situation_id :integer</text>
<text text-anchor="start" x="326" y="-388.4" font-family="Times Roman,serif" font-size="14.00">date_from :date</text>
<text text-anchor="start" x="326" y="-370.4" font-family="Times Roman,serif" font-size="14.00">date_until :date</text>
<text text-anchor="start" x="326" y="-352.4" font-family="Times Roman,serif" font-size="14.00">hs_monday :integer</text>
<text text-anchor="start" x="326" y="-334.4" font-family="Times Roman,serif" font-size="14.00">hs_tuesday :integer</text>
<text text-anchor="start" x="326" y="-316.4" font-family="Times Roman,serif" font-size="14.00">hs_wednesday :integer</text>
<text text-anchor="start" x="326" y="-298.4" font-family="Times Roman,serif" font-size="14.00">hs_thursday :integer</text>
<text text-anchor="start" x="326" y="-280.4" font-family="Times Roman,serif" font-size="14.00">hs_friday :integer</text>
<text text-anchor="start" x="326" y="-262.4" font-family="Times Roman,serif" font-size="14.00">hs_saturday :integer</text>
<text text-anchor="start" x="326" y="-244.4" font-family="Times Roman,serif" font-size="14.00">hs_sunday :integer</text>
<text text-anchor="start" x="326" y="-226.4" font-family="Times Roman,serif" font-size="14.00">created_at :timestamp</text>
<text text-anchor="start" x="326" y="-208.4" font-family="Times Roman,serif" font-size="14.00">updated_at :timestamp</text>
<text text-anchor="start" x="326" y="-190.4" font-family="Times Roman,serif" font-size="14.00">napplicants :integer</text>
<text text-anchor="start" x="326" y="-172.4" font-family="Times Roman,serif" font-size="14.00">horario :boolean</text>
<text text-anchor="start" x="326" y="-154.4" font-family="Times Roman,serif" font-size="14.00">description :text</text>
</g>
<!-- User&#45;&gt;Internship -->
<g id="edge8" class="edge"><title>User&#45;&gt;Internship</title>
<path fill="none" stroke="#2c8601" d="M662.794,-1049.9C732.108,-1016.62 819.53,-961.452 861,-882 896.166,-814.625 901.614,-604.238 861,-540 782.947,-416.545 613.042,-362.236 504.378,-339.399"/>
<polygon fill="#2c8601" stroke="#2c8601" points="662.617,-1049.98 651.653,-1050.18 658.095,-1052.12 653.573,-1054.25 653.573,-1054.25 653.573,-1054.25 658.095,-1052.12 655.493,-1058.32 662.617,-1049.98 662.617,-1049.98"/>
<polygon fill="#2c8601" stroke="#2c8601" points="504.181,-339.359 495.288,-332.943 499.283,-338.355 494.385,-337.351 494.385,-337.351 494.385,-337.351 499.283,-338.355 493.482,-341.759 504.181,-339.359 504.181,-339.359"/>
</g>
<!-- Job -->
<g id="node13" class="node"><title>Job</title>
<polyline fill="none" stroke="black" points="682,-595 840,-595 "/>
<path fill="none" stroke="black" d="M840,-595C846,-595 852,-601 852,-607"/>
<polyline fill="none" stroke="black" points="852,-607 852,-815 "/>
<path fill="none" stroke="black" d="M852,-815C852,-821 846,-827 840,-827"/>
<polyline fill="none" stroke="black" points="840,-827 682,-827 "/>
<path fill="none" stroke="black" d="M682,-827C676,-827 670,-821 670,-815"/>
<polyline fill="none" stroke="black" points="670,-815 670,-607 "/>
<path fill="none" stroke="black" d="M670,-607C670,-601 676,-595 682,-595"/>
<text text-anchor="middle" x="761" y="-810.4" font-family="Times Roman,serif" font-size="14.00">Job</text>
<polyline fill="none" stroke="black" points="670,-801 852,-801 "/>
<text text-anchor="start" x="678" y="-784.4" font-family="Times Roman,serif" font-size="14.00">id :integer</text>
<text text-anchor="start" x="678" y="-766.4" font-family="Times Roman,serif" font-size="14.00">enterprise_name :string</text>
<text text-anchor="start" x="678" y="-748.4" font-family="Times Roman,serif" font-size="14.00">position :string</text>
<text text-anchor="start" x="678" y="-730.4" font-family="Times Roman,serif" font-size="14.00">area :string</text>
<text text-anchor="start" x="678" y="-712.4" font-family="Times Roman,serif" font-size="14.00">from :date</text>
<text text-anchor="start" x="678" y="-694.4" font-family="Times Roman,serif" font-size="14.00">until :date</text>
<text text-anchor="start" x="678" y="-676.4" font-family="Times Roman,serif" font-size="14.00">workingnow :boolean</text>
<text text-anchor="start" x="678" y="-658.4" font-family="Times Roman,serif" font-size="14.00">taskdescription :string</text>
<text text-anchor="start" x="678" y="-640.4" font-family="Times Roman,serif" font-size="14.00">user_id :integer</text>
<text text-anchor="start" x="678" y="-622.4" font-family="Times Roman,serif" font-size="14.00">created_at :timestamp</text>
<text text-anchor="start" x="678" y="-604.4" font-family="Times Roman,serif" font-size="14.00">updated_at :timestamp</text>
</g>
<!-- User&#45;&gt;Job -->
<g id="edge6" class="edge"><title>User&#45;&gt;Job</title>
<path fill="none" stroke="#0ac501" d="M656.49,-911.531C669.717,-886.152 683.089,-860.494 695.647,-836.398"/>
<ellipse fill="none" stroke="#0ac501" cx="654.552" cy="-915.251" rx="4.00002" ry="4.00002"/>
<polygon fill="#0ac501" stroke="#0ac501" points="695.797,-836.111 704.409,-829.323 698.107,-831.677 700.418,-827.243 700.418,-827.243 700.418,-827.243 698.107,-831.677 696.428,-825.163 695.797,-836.111 695.797,-836.111"/>
</g>
<!-- Company&#45;&gt;Internship -->
<g id="edge12" class="edge"><title>Company&#45;&gt;Internship</title>
<path fill="none" stroke="#fdfda2" d="M231.085,-555.031C257.916,-519.593 286.068,-482.408 311.755,-448.481"/>
<ellipse fill="none" stroke="#fdfda2" cx="228.486" cy="-558.463" rx="4.00002" ry="4.00002"/>
<polygon fill="#fdfda2" stroke="#fdfda2" points="311.847,-448.36 321.471,-443.103 314.865,-444.373 317.883,-440.387 317.883,-440.387 317.883,-440.387 314.865,-444.373 314.295,-437.671 311.847,-448.36 311.847,-448.36"/>
</g>
<!-- InternshipsUser -->
<g id="node6" class="node"><title>InternshipsUser</title>
<polyline fill="none" stroke="black" points="516,-1477 656,-1477 "/>
<path fill="none" stroke="black" d="M656,-1477C662,-1477 668,-1483 668,-1489"/>
<polyline fill="none" stroke="black" points="668,-1489 668,-1535 "/>
<path fill="none" stroke="black" d="M668,-1535C668,-1541 662,-1547 656,-1547"/>
<polyline fill="none" stroke="black" points="656,-1547 516,-1547 "/>
<path fill="none" stroke="black" d="M516,-1547C510,-1547 504,-1541 504,-1535"/>
<polyline fill="none" stroke="black" points="504,-1535 504,-1489 "/>
<path fill="none" stroke="black" d="M504,-1489C504,-1483 510,-1477 516,-1477"/>
<text text-anchor="middle" x="586" y="-1530.4" font-family="Times Roman,serif" font-size="14.00">InternshipsUser</text>
<polyline fill="none" stroke="black" points="504,-1521 668,-1521 "/>
<text text-anchor="start" x="512" y="-1504.4" font-family="Times Roman,serif" font-size="14.00">internship_id :integer</text>
<text text-anchor="start" x="512" y="-1486.4" font-family="Times Roman,serif" font-size="14.00">user_id :integer</text>
</g>
<!-- Province -->
<g id="node7" class="node"><title>Province</title>
<polyline fill="none" stroke="black" points="322,-1459 474,-1459 "/>
<path fill="none" stroke="black" d="M474,-1459C480,-1459 486,-1465 486,-1471"/>
<polyline fill="none" stroke="black" points="486,-1471 486,-1553 "/>
<path fill="none" stroke="black" d="M486,-1553C486,-1559 480,-1565 474,-1565"/>
<polyline fill="none" stroke="black" points="474,-1565 322,-1565 "/>
<path fill="none" stroke="black" d="M322,-1565C316,-1565 310,-1559 310,-1553"/>
<polyline fill="none" stroke="black" points="310,-1553 310,-1471 "/>
<path fill="none" stroke="black" d="M310,-1471C310,-1465 316,-1459 322,-1459"/>
<text text-anchor="middle" x="398" y="-1548.4" font-family="Times Roman,serif" font-size="14.00">Province</text>
<polyline fill="none" stroke="black" points="310,-1539 486,-1539 "/>
<text text-anchor="start" x="318" y="-1522.4" font-family="Times Roman,serif" font-size="14.00">id :integer</text>
<text text-anchor="start" x="318" y="-1504.4" font-family="Times Roman,serif" font-size="14.00">province :string</text>
<text text-anchor="start" x="318" y="-1486.4" font-family="Times Roman,serif" font-size="14.00">created_at :timestamp</text>
<text text-anchor="start" x="318" y="-1468.4" font-family="Times Roman,serif" font-size="14.00">updated_at :timestamp</text>
</g>
<!-- Locality -->
<g id="node12" class="node"><title>Locality</title>
<polyline fill="none" stroke="black" points="322,-1297 474,-1297 "/>
<path fill="none" stroke="black" d="M474,-1297C480,-1297 486,-1303 486,-1309"/>
<polyline fill="none" stroke="black" points="486,-1309 486,-1409 "/>
<path fill="none" stroke="black" d="M486,-1409C486,-1415 480,-1421 474,-1421"/>
<polyline fill="none" stroke="black" points="474,-1421 322,-1421 "/>
<path fill="none" stroke="black" d="M322,-1421C316,-1421 310,-1415 310,-1409"/>
<polyline fill="none" stroke="black" points="310,-1409 310,-1309 "/>
<path fill="none" stroke="black" d="M310,-1309C310,-1303 316,-1297 322,-1297"/>
<text text-anchor="middle" x="398" y="-1404.4" font-family="Times Roman,serif" font-size="14.00">Locality</text>
<polyline fill="none" stroke="black" points="310,-1395 486,-1395 "/>
<text text-anchor="start" x="318" y="-1378.4" font-family="Times Roman,serif" font-size="14.00">id :integer</text>
<text text-anchor="start" x="318" y="-1360.4" font-family="Times Roman,serif" font-size="14.00">locality :string</text>
<text text-anchor="start" x="318" y="-1342.4" font-family="Times Roman,serif" font-size="14.00">province_id :integer</text>
<text text-anchor="start" x="318" y="-1324.4" font-family="Times Roman,serif" font-size="14.00">created_at :timestamp</text>
<text text-anchor="start" x="318" y="-1306.4" font-family="Times Roman,serif" font-size="14.00">updated_at :timestamp</text>
</g>
<!-- Province&#45;&gt;Locality -->
<g id="edge14" class="edge"><title>Province&#45;&gt;Locality</title>
<path fill="none" stroke="#3a15ba" d="M398,-1450.82C398,-1444.42 398,-1437.87 398,-1431.36"/>
<ellipse fill="none" stroke="#3a15ba" cx="398" cy="-1454.92" rx="4" ry="4"/>
<polygon fill="#3a15ba" stroke="#3a15ba" points="398,-1431.19 402.5,-1421.19 398,-1426.19 398,-1421.19 398,-1421.19 398,-1421.19 398,-1426.19 393.5,-1421.19 398,-1431.19 398,-1431.19"/>
</g>
<!-- Internship&#45;&gt;Contract -->
<g id="edge16" class="edge"><title>Internship&#45;&gt;Contract</title>
<path fill="none" stroke="#884be9" d="M313.803,-160.23C303.087,-141.194 292.821,-122.958 283.912,-107.133"/>
<ellipse fill="none" stroke="#884be9" cx="315.839" cy="-163.845" rx="4.00002" ry="4.00002"/>
<polygon fill="#884be9" stroke="#884be9" points="283.736,-106.821 282.752,-95.8995 281.283,-102.464 278.831,-98.107 278.831,-98.107 278.831,-98.107 281.283,-102.464 274.909,-100.315 283.736,-106.821 283.736,-106.821"/>
</g>
<!-- Task -->
<g id="node9" class="node"><title>Task</title>
<polyline fill="none" stroke="black" points="366,-1 518,-1 "/>
<path fill="none" stroke="black" d="M518,-1C524,-1 530,-7 530,-13"/>
<polyline fill="none" stroke="black" points="530,-13 530,-95 "/>
<path fill="none" stroke="black" d="M530,-95C530,-101 524,-107 518,-107"/>
<polyline fill="none" stroke="black" points="518,-107 366,-107 "/>
<path fill="none" stroke="black" d="M366,-107C360,-107 354,-101 354,-95"/>
<polyline fill="none" stroke="black" points="354,-95 354,-13 "/>
<path fill="none" stroke="black" d="M354,-13C354,-7 360,-1 366,-1"/>
<text text-anchor="middle" x="442" y="-90.4" font-family="Times Roman,serif" font-size="14.00">Task</text>
<polyline fill="none" stroke="black" points="354,-81 530,-81 "/>
<text text-anchor="start" x="362" y="-64.4" font-family="Times Roman,serif" font-size="14.00">id :integer</text>
<text text-anchor="start" x="362" y="-46.4" font-family="Times Roman,serif" font-size="14.00">description :string</text>
<text text-anchor="start" x="362" y="-28.4" font-family="Times Roman,serif" font-size="14.00">created_at :timestamp</text>
<text text-anchor="start" x="362" y="-10.4" font-family="Times Roman,serif" font-size="14.00">updated_at :timestamp</text>
</g>
<!-- Internship&#45;&gt;Task -->
<g id="edge18" class="edge"><title>Internship&#45;&gt;Task</title>
<path fill="none" stroke="#de515d" d="M431.26,-134.55C432.037,-128.726 432.791,-123.065 433.517,-117.621"/>
<polygon fill="#de515d" stroke="#de515d" points="431.234,-134.745 425.452,-144.062 430.573,-139.701 429.912,-144.657 429.912,-144.657 429.912,-144.657 430.573,-139.701 434.373,-145.252 431.234,-134.745 431.234,-134.745"/>
<polygon fill="#de515d" stroke="#de515d" points="433.554,-117.346 439.336,-108.029 434.215,-112.39 434.875,-107.434 434.875,-107.434 434.875,-107.434 434.215,-112.39 430.415,-106.839 433.554,-117.346 433.554,-117.346"/>
</g>
<!-- Situation -->
<g id="node10" class="node"><title>Situation</title>
<polyline fill="none" stroke="black" points="294,-658 446,-658 "/>
<path fill="none" stroke="black" d="M446,-658C452,-658 458,-664 458,-670"/>
<polyline fill="none" stroke="black" points="458,-670 458,-752 "/>
<path fill="none" stroke="black" d="M458,-752C458,-758 452,-764 446,-764"/>
<polyline fill="none" stroke="black" points="446,-764 294,-764 "/>
<path fill="none" stroke="black" d="M294,-764C288,-764 282,-758 282,-752"/>
<polyline fill="none" stroke="black" points="282,-752 282,-670 "/>
<path fill="none" stroke="black" d="M282,-670C282,-664 288,-658 294,-658"/>
<text text-anchor="middle" x="370" y="-747.4" font-family="Times Roman,serif" font-size="14.00">Situation</text>
<polyline fill="none" stroke="black" points="282,-738 458,-738 "/>
<text text-anchor="start" x="290" y="-721.4" font-family="Times Roman,serif" font-size="14.00">id :integer</text>
<text text-anchor="start" x="290" y="-703.4" font-family="Times Roman,serif" font-size="14.00">status :string</text>
<text text-anchor="start" x="290" y="-685.4" font-family="Times Roman,serif" font-size="14.00">created_at :timestamp</text>
<text text-anchor="start" x="290" y="-667.4" font-family="Times Roman,serif" font-size="14.00">updated_at :timestamp</text>
</g>
<!-- Situation&#45;&gt;Internship -->
<g id="edge20" class="edge"><title>Situation&#45;&gt;Internship</title>
<path fill="none" stroke="#299b7f" d="M375.736,-649.335C379.195,-612.154 383.806,-562.59 388.383,-513.382"/>
<ellipse fill="none" stroke="#299b7f" cx="375.338" cy="-653.613" rx="4" ry="4"/>
<polygon fill="#299b7f" stroke="#299b7f" points="388.402,-513.178 393.809,-503.638 388.865,-508.2 389.328,-503.221 389.328,-503.221 389.328,-503.221 388.865,-508.2 384.848,-502.804 388.402,-513.178 388.402,-513.178"/>
</g>
<!-- Treatment -->
<g id="node11" class="node"><title>Treatment</title>
<polyline fill="none" stroke="black" points="670.5,-1306 811.5,-1306 "/>
<path fill="none" stroke="black" d="M811.5,-1306C817.5,-1306 823.5,-1312 823.5,-1318"/>
<polyline fill="none" stroke="black" points="823.5,-1318 823.5,-1400 "/>
<path fill="none" stroke="black" d="M823.5,-1400C823.5,-1406 817.5,-1412 811.5,-1412"/>
<polyline fill="none" stroke="black" points="811.5,-1412 670.5,-1412 "/>
<path fill="none" stroke="black" d="M670.5,-1412C664.5,-1412 658.5,-1406 658.5,-1400"/>
<polyline fill="none" stroke="black" points="658.5,-1400 658.5,-1318 "/>
<path fill="none" stroke="black" d="M658.5,-1318C658.5,-1312 664.5,-1306 670.5,-1306"/>
<text text-anchor="middle" x="741" y="-1395.4" font-family="Times Roman,serif" font-size="14.00">Treatment</text>
<polyline fill="none" stroke="black" points="658.5,-1386 823.5,-1386 "/>
<text text-anchor="start" x="666.5" y="-1369.4" font-family="Times Roman,serif" font-size="14.00">id :integer</text>
<text text-anchor="start" x="666.5" y="-1351.4" font-family="Times Roman,serif" font-size="14.00">treatment :string</text>
<text text-anchor="start" x="666.5" y="-1333.4" font-family="Times Roman,serif" font-size="14.00">created_at :datetime</text>
<text text-anchor="start" x="666.5" y="-1315.4" font-family="Times Roman,serif" font-size="14.00">updated_at :datetime</text>
</g>
<!-- Treatment&#45;&gt;User -->
<g id="edge22" class="edge"><title>Treatment&#45;&gt;User</title>
<path fill="none" stroke="#aef3c5" d="M701.678,-1299.02C688.908,-1279.54 674.137,-1257 659.109,-1234.08"/>
<ellipse fill="none" stroke="#aef3c5" cx="704.049" cy="-1302.63" rx="4.00002" ry="4.00002"/>
<polygon fill="#aef3c5" stroke="#aef3c5" points="659.047,-1233.99 657.328,-1223.16 656.306,-1229.81 653.565,-1225.62 653.565,-1225.62 653.565,-1225.62 656.306,-1229.81 649.801,-1228.09 659.047,-1233.99 659.047,-1233.99"/>
</g>
<!-- Treatment&#45;&gt;Internship -->
<g id="edge24" class="edge"><title>Treatment&#45;&gt;Internship</title>
<path fill="none" stroke="#92d98c" d="M778.596,-1298.72C862.996,-1154.92 1048.12,-785.469 889,-540 804.122,-409.063 619.214,-356.788 504.402,-336.434"/>
<ellipse fill="none" stroke="#92d98c" cx="776.444" cy="-1302.36" rx="4.00002" ry="4.00002"/>
<polygon fill="#92d98c" stroke="#92d98c" points="504.058,-336.374 494.967,-330.242 499.13,-335.526 494.203,-334.677 494.203,-334.677 494.203,-334.677 499.13,-335.526 493.439,-339.111 504.058,-336.374 504.058,-336.374"/>
</g>
<!-- Locality&#45;&gt;User -->
<g id="edge26" class="edge"><title>Locality&#45;&gt;User</title>
<path fill="none" stroke="#fbe70c" d="M440.693,-1289.56C449.824,-1274.71 459.815,-1258.46 470.032,-1241.84"/>
<ellipse fill="none" stroke="#fbe70c" cx="438.387" cy="-1293.31" rx="4.00002" ry="4.00002"/>
<ellipse fill="#fbe70c" stroke="#fbe70c" cx="472.327" cy="-1238.11" rx="4.00002" ry="4.00002"/>
</g>
<!-- Locality&#45;&gt;Company -->
<g id="edge28" class="edge"><title>Locality&#45;&gt;Company</title>
<path fill="none" stroke="#c04bae" d="M367.422,-1289.48C325.671,-1194.55 249.372,-1021.07 191.182,-888.761"/>
<ellipse fill="none" stroke="#c04bae" cx="369.063" cy="-1293.21" rx="4.00002" ry="4.00002"/>
<ellipse fill="#c04bae" stroke="#c04bae" cx="189.512" cy="-884.964" rx="4.00002" ry="4.00002"/>
</g>
<!-- Skill -->
<g id="node14" class="node"><title>Skill</title>
<polyline fill="none" stroke="black" points="698,-1459 850,-1459 "/>
<path fill="none" stroke="black" d="M850,-1459C856,-1459 862,-1465 862,-1471"/>
<polyline fill="none" stroke="black" points="862,-1471 862,-1553 "/>
<path fill="none" stroke="black" d="M862,-1553C862,-1559 856,-1565 850,-1565"/>
<polyline fill="none" stroke="black" points="850,-1565 698,-1565 "/>
<path fill="none" stroke="black" d="M698,-1565C692,-1565 686,-1559 686,-1553"/>
<polyline fill="none" stroke="black" points="686,-1553 686,-1471 "/>
<path fill="none" stroke="black" d="M686,-1471C686,-1465 692,-1459 698,-1459"/>
<text text-anchor="middle" x="774" y="-1548.4" font-family="Times Roman,serif" font-size="14.00">Skill</text>
<polyline fill="none" stroke="black" points="686,-1539 862,-1539 "/>
<text text-anchor="start" x="694" y="-1522.4" font-family="Times Roman,serif" font-size="14.00">id :integer</text>
<text text-anchor="start" x="694" y="-1504.4" font-family="Times Roman,serif" font-size="14.00">name :string</text>
<text text-anchor="start" x="694" y="-1486.4" font-family="Times Roman,serif" font-size="14.00">created_at :timestamp</text>
<text text-anchor="start" x="694" y="-1468.4" font-family="Times Roman,serif" font-size="14.00">updated_at :timestamp</text>
</g>
<!-- InternshipsTask -->
<g id="node15" class="node"><title>InternshipsTask</title>
<polyline fill="none" stroke="black" points="892,-1468 1032,-1468 "/>
<path fill="none" stroke="black" d="M1032,-1468C1038,-1468 1044,-1474 1044,-1480"/>
<polyline fill="none" stroke="black" points="1044,-1480 1044,-1544 "/>
<path fill="none" stroke="black" d="M1044,-1544C1044,-1550 1038,-1556 1032,-1556"/>
<polyline fill="none" stroke="black" points="1032,-1556 892,-1556 "/>
<path fill="none" stroke="black" d="M892,-1556C886,-1556 880,-1550 880,-1544"/>
<polyline fill="none" stroke="black" points="880,-1544 880,-1480 "/>
<path fill="none" stroke="black" d="M880,-1480C880,-1474 886,-1468 892,-1468"/>
<text text-anchor="middle" x="962" y="-1539.4" font-family="Times Roman,serif" font-size="14.00">InternshipsTask</text>
<polyline fill="none" stroke="black" points="880,-1530 1044,-1530 "/>
<text text-anchor="start" x="888" y="-1513.4" font-family="Times Roman,serif" font-size="14.00">id :integer</text>
<text text-anchor="start" x="888" y="-1495.4" font-family="Times Roman,serif" font-size="14.00">internship_id :integer</text>
<text text-anchor="start" x="888" y="-1477.4" font-family="Times Roman,serif" font-size="14.00">task_id :integer</text>
</g>
</g>
</svg>
