<?xml version="1.0" encoding="UTF-8" standalone="no"?>
<!DOCTYPE svg PUBLIC "-//W3C//DTD SVG 1.1//EN"
 "http://www.w3.org/Graphics/SVG/1.1/DTD/svg11.dtd">
<!-- Generated by graphviz version 2.26.3 (20100126.1600)
 -->
<!-- Title: models_diagram Pages: 1 -->
<svg width="1125pt" height="1592pt"
 viewBox="0.00 0.00 1124.95 1592.00" xmlns="http://www.w3.org/2000/svg" xmlns:xlink="http://www.w3.org/1999/xlink">
<g id="graph1" class="graph" transform="scale(1 1) rotate(0) translate(4 1588)">
<title>models_diagram</title>
<polygon fill="white" stroke="white" points="-4,5 -4,-1588 1121.95,-1588 1121.95,5 -4,5"/>
<!-- _diagram_info -->
<g id="node1" class="node"><title>_diagram_info</title>
<text text-anchor="start" x="57" y="-1560.8" font-family="Times Roman,serif" font-size="13.00">Models diagram</text>
<text text-anchor="start" x="57" y="-1543.8" font-family="Times Roman,serif" font-size="13.00">Date: Sep 08 2013 &#45; 18:47</text>
<text text-anchor="start" x="57" y="-1526.8" font-family="Times Roman,serif" font-size="13.00">Migration version: 20130908214222</text>
<text text-anchor="start" x="57" y="-1509.8" font-family="Times Roman,serif" font-size="13.00">Generated by RailRoady 1.1.0</text>
<text text-anchor="start" x="57" y="-1492.8" font-family="Times Roman,serif" font-size="13.00">http://railroady.prestonlee.com</text>
</g>
<!-- User -->
<g id="node2" class="node"><title>User</title>
<polyline fill="none" stroke="black" points="489.5,-937 644.5,-937 "/>
<path fill="none" stroke="black" d="M644.5,-937C650.5,-937 656.5,-943 656.5,-949"/>
<polyline fill="none" stroke="black" points="656.5,-949 656.5,-1265 "/>
<path fill="none" stroke="black" d="M656.5,-1265C656.5,-1271 650.5,-1277 644.5,-1277"/>
<polyline fill="none" stroke="black" points="644.5,-1277 489.5,-1277 "/>
<path fill="none" stroke="black" d="M489.5,-1277C483.5,-1277 477.5,-1271 477.5,-1265"/>
<polyline fill="none" stroke="black" points="477.5,-1265 477.5,-949 "/>
<path fill="none" stroke="black" d="M477.5,-949C477.5,-943 483.5,-937 489.5,-937"/>
<text text-anchor="middle" x="567" y="-1260.4" font-family="Times Roman,serif" font-size="14.00">User</text>
<polyline fill="none" stroke="black" points="477.5,-1251 656.5,-1251 "/>
<text text-anchor="start" x="485.5" y="-1234.4" font-family="Times Roman,serif" font-size="14.00">id :integer</text>
<text text-anchor="start" x="485.5" y="-1216.4" font-family="Times Roman,serif" font-size="14.00">name :string</text>
<text text-anchor="start" x="485.5" y="-1198.4" font-family="Times Roman,serif" font-size="14.00">surname :string</text>
<text text-anchor="start" x="485.5" y="-1180.4" font-family="Times Roman,serif" font-size="14.00">dni :string</text>
<text text-anchor="start" x="485.5" y="-1162.4" font-family="Times Roman,serif" font-size="14.00">locality_id :integer</text>
<text text-anchor="start" x="485.5" y="-1144.4" font-family="Times Roman,serif" font-size="14.00">password_digest :string</text>
<text text-anchor="start" x="485.5" y="-1126.4" font-family="Times Roman,serif" font-size="14.00">created_at :timestamp</text>
<text text-anchor="start" x="485.5" y="-1108.4" font-family="Times Roman,serif" font-size="14.00">updated_at :timestamp</text>
<text text-anchor="start" x="485.5" y="-1090.4" font-family="Times Roman,serif" font-size="14.00">email :string</text>
<text text-anchor="start" x="485.5" y="-1072.4" font-family="Times Roman,serif" font-size="14.00">admin :boolean</text>
<text text-anchor="start" x="485.5" y="-1054.4" font-family="Times Roman,serif" font-size="14.00">cuil :string</text>
<text text-anchor="start" x="485.5" y="-1036.4" font-family="Times Roman,serif" font-size="14.00">address :string</text>
<text text-anchor="start" x="485.5" y="-1018.4" font-family="Times Roman,serif" font-size="14.00">manager :boolean</text>
<text text-anchor="start" x="485.5" y="-1000.4" font-family="Times Roman,serif" font-size="14.00">linkedin :string</text>
<text text-anchor="start" x="485.5" y="-982.4" font-family="Times Roman,serif" font-size="14.00">celphone :string</text>
<text text-anchor="start" x="485.5" y="-964.4" font-family="Times Roman,serif" font-size="14.00">homephone :string</text>
<text text-anchor="start" x="485.5" y="-946.4" font-family="Times Roman,serif" font-size="14.00">treatment_id :integer</text>
</g>
<!-- Company -->
<g id="node3" class="node"><title>Company</title>
<polyline fill="none" stroke="black" points="12,-559 214,-559 "/>
<path fill="none" stroke="black" d="M214,-559C220,-559 226,-565 226,-571"/>
<polyline fill="none" stroke="black" points="226,-571 226,-887 "/>
<path fill="none" stroke="black" d="M226,-887C226,-893 220,-899 214,-899"/>
<polyline fill="none" stroke="black" points="214,-899 12,-899 "/>
<path fill="none" stroke="black" d="M12,-899C6,-899 0,-893 0,-887"/>
<polyline fill="none" stroke="black" points="0,-887 0,-571 "/>
<path fill="none" stroke="black" d="M0,-571C0,-565 6,-559 12,-559"/>
<text text-anchor="middle" x="113" y="-882.4" font-family="Times Roman,serif" font-size="14.00">Company</text>
<polyline fill="none" stroke="black" points="0,-873 226,-873 "/>
<text text-anchor="start" x="8" y="-856.4" font-family="Times Roman,serif" font-size="14.00">id :integer</text>
<text text-anchor="start" x="8" y="-838.4" font-family="Times Roman,serif" font-size="14.00">name :string</text>
<text text-anchor="start" x="8" y="-820.4" font-family="Times Roman,serif" font-size="14.00">address :string</text>
<text text-anchor="start" x="8" y="-802.4" font-family="Times Roman,serif" font-size="14.00">locality_id :integer</text>
<text text-anchor="start" x="8" y="-784.4" font-family="Times Roman,serif" font-size="14.00">manager :string</text>
<text text-anchor="start" x="8" y="-766.4" font-family="Times Roman,serif" font-size="14.00">boss :string</text>
<text text-anchor="start" x="8" y="-748.4" font-family="Times Roman,serif" font-size="14.00">created_at :timestamp</text>
<text text-anchor="start" x="8" y="-730.4" font-family="Times Roman,serif" font-size="14.00">updated_at :timestamp</text>
<text text-anchor="start" x="8" y="-712.4" font-family="Times Roman,serif" font-size="14.00">boss_dni :string</text>
<text text-anchor="start" x="8" y="-694.4" font-family="Times Roman,serif" font-size="14.00">manager_cuil :string</text>
<text text-anchor="start" x="8" y="-676.4" font-family="Times Roman,serif" font-size="14.00">position :string</text>
<text text-anchor="start" x="8" y="-658.4" font-family="Times Roman,serif" font-size="14.00">user_id :integer</text>
<text text-anchor="start" x="8" y="-640.4" font-family="Times Roman,serif" font-size="14.00">razon :string</text>
<text text-anchor="start" x="8" y="-622.4" font-family="Times Roman,serif" font-size="14.00">art :string</text>
<text text-anchor="start" x="8" y="-604.4" font-family="Times Roman,serif" font-size="14.00">obsocial :string</text>
<text text-anchor="start" x="8" y="-586.4" font-family="Times Roman,serif" font-size="14.00">bosstreatment_id :integer</text>
<text text-anchor="start" x="8" y="-568.4" font-family="Times Roman,serif" font-size="14.00">managertreatment_id :integer</text>
</g>
<!-- User&#45;&gt;Company -->
<g id="edge2" class="edge"><title>User&#45;&gt;Company</title>
<path fill="none" stroke="#a4004f" d="M468.694,-1047C374.443,-989.275 244.99,-909.388 235,-900 234.543,-899.571 234.087,-899.14 233.632,-898.707"/>
<polygon fill="#a4004f" stroke="#a4004f" points="468.885,-1047.12 475.064,-1056.18 473.149,-1049.73 477.414,-1052.34 477.414,-1052.34 477.414,-1052.34 473.149,-1049.73 479.763,-1048.5 468.885,-1047.12 468.885,-1047.12"/>
<polygon fill="#a4004f" stroke="#a4004f" points="233.453,-898.531 229.461,-888.318 229.882,-895.032 226.311,-891.532 226.311,-891.532 226.311,-891.532 229.882,-895.032 223.161,-894.746 233.453,-898.531 233.453,-898.531"/>
</g>
<!-- Contract -->
<g id="node4" class="node"><title>Contract</title>
<polyline fill="none" stroke="black" points="885,-10 1025,-10 "/>
<path fill="none" stroke="black" d="M1025,-10C1031,-10 1037,-16 1037,-22"/>
<polyline fill="none" stroke="black" points="1037,-22 1037,-86 "/>
<path fill="none" stroke="black" d="M1037,-86C1037,-92 1031,-98 1025,-98"/>
<polyline fill="none" stroke="black" points="1025,-98 885,-98 "/>
<path fill="none" stroke="black" d="M885,-98C879,-98 873,-92 873,-86"/>
<polyline fill="none" stroke="black" points="873,-86 873,-22 "/>
<path fill="none" stroke="black" d="M873,-22C873,-16 879,-10 885,-10"/>
<text text-anchor="middle" x="955" y="-81.4" font-family="Times Roman,serif" font-size="14.00">Contract</text>
<polyline fill="none" stroke="black" points="873,-72 1037,-72 "/>
<text text-anchor="start" x="881" y="-55.4" font-family="Times Roman,serif" font-size="14.00">id :integer</text>
<text text-anchor="start" x="881" y="-37.4" font-family="Times Roman,serif" font-size="14.00">user_id :integer</text>
<text text-anchor="start" x="881" y="-19.4" font-family="Times Roman,serif" font-size="14.00">internship_id :integer</text>
</g>
<!-- User&#45;&gt;Contract -->
<g id="edge4" class="edge"><title>User&#45;&gt;Contract</title>
<path fill="none" stroke="#51e721" d="M664.759,-1095.8C777.875,-1077.03 959.287,-1027.69 1043,-900 1210.39,-644.676 1050.01,-249.962 982.104,-107.538"/>
<ellipse fill="none" stroke="#51e721" cx="660.683" cy="-1096.46" rx="4.00001" ry="4.00001"/>
<polygon fill="#51e721" stroke="#51e721" points="981.911,-107.136 981.63,-96.174 979.743,-102.631 977.575,-98.1251 977.575,-98.1251 977.575,-98.1251 979.743,-102.631 973.52,-100.076 981.911,-107.136 981.911,-107.136"/>
</g>
<!-- Study -->
<g id="node5" class="node"><title>Study</title>
<polyline fill="none" stroke="black" points="688,-631 840,-631 "/>
<path fill="none" stroke="black" d="M840,-631C846,-631 852,-637 852,-643"/>
<polyline fill="none" stroke="black" points="852,-643 852,-815 "/>
<path fill="none" stroke="black" d="M852,-815C852,-821 846,-827 840,-827"/>
<polyline fill="none" stroke="black" points="840,-827 688,-827 "/>
<path fill="none" stroke="black" d="M688,-827C682,-827 676,-821 676,-815"/>
<polyline fill="none" stroke="black" points="676,-815 676,-643 "/>
<path fill="none" stroke="black" d="M676,-643C676,-637 682,-631 688,-631"/>
<text text-anchor="middle" x="764" y="-810.4" font-family="Times Roman,serif" font-size="14.00">Study</text>
<polyline fill="none" stroke="black" points="676,-801 852,-801 "/>
<text text-anchor="start" x="684" y="-784.4" font-family="Times Roman,serif" font-size="14.00">id :integer</text>
<text text-anchor="start" x="684" y="-766.4" font-family="Times Roman,serif" font-size="14.00">academy :string</text>
<text text-anchor="start" x="684" y="-748.4" font-family="Times Roman,serif" font-size="14.00">from :date</text>
<text text-anchor="start" x="684" y="-730.4" font-family="Times Roman,serif" font-size="14.00">until :date</text>
<text text-anchor="start" x="684" y="-712.4" font-family="Times Roman,serif" font-size="14.00">title :string</text>
<text text-anchor="start" x="684" y="-694.4" font-family="Times Roman,serif" font-size="14.00">description :string</text>
<text text-anchor="start" x="684" y="-676.4" font-family="Times Roman,serif" font-size="14.00">created_at :timestamp</text>
<text text-anchor="start" x="684" y="-658.4" font-family="Times Roman,serif" font-size="14.00">updated_at :timestamp</text>
<text text-anchor="start" x="684" y="-640.4" font-family="Times Roman,serif" font-size="14.00">user_id :integer</text>
</g>
<!-- User&#45;&gt;Study -->
<g id="edge10" class="edge"><title>User&#45;&gt;Study</title>
<path fill="none" stroke="#0415b9" d="M659.605,-929.311C676.199,-897.472 693.016,-865.202 708.165,-836.135"/>
<ellipse fill="none" stroke="#0415b9" cx="657.552" cy="-933.251" rx="4.00002" ry="4.00002"/>
<polygon fill="#0415b9" stroke="#0415b9" points="708.189,-836.089 716.801,-829.301 710.5,-831.655 712.81,-827.221 712.81,-827.221 712.81,-827.221 710.5,-831.655 708.82,-825.142 708.189,-836.089 708.189,-836.089"/>
</g>
<!-- Internship -->
<g id="node8" class="node"><title>Internship</title>
<polyline fill="none" stroke="black" points="478,-145 630,-145 "/>
<path fill="none" stroke="black" d="M630,-145C636,-145 642,-151 642,-157"/>
<polyline fill="none" stroke="black" points="642,-157 642,-509 "/>
<path fill="none" stroke="black" d="M642,-509C642,-515 636,-521 630,-521"/>
<polyline fill="none" stroke="black" points="630,-521 478,-521 "/>
<path fill="none" stroke="black" d="M478,-521C472,-521 466,-515 466,-509"/>
<polyline fill="none" stroke="black" points="466,-509 466,-157 "/>
<path fill="none" stroke="black" d="M466,-157C466,-151 472,-145 478,-145"/>
<text text-anchor="middle" x="554" y="-504.4" font-family="Times Roman,serif" font-size="14.00">Internship</text>
<polyline fill="none" stroke="black" points="466,-495 642,-495 "/>
<text text-anchor="start" x="474" y="-478.4" font-family="Times Roman,serif" font-size="14.00">id :integer</text>
<text text-anchor="start" x="474" y="-460.4" font-family="Times Roman,serif" font-size="14.00">company_id :integer</text>
<text text-anchor="start" x="474" y="-442.4" font-family="Times Roman,serif" font-size="14.00">description_job :string</text>
<text text-anchor="start" x="474" y="-424.4" font-family="Times Roman,serif" font-size="14.00">situation_id :integer</text>
<text text-anchor="start" x="474" y="-406.4" font-family="Times Roman,serif" font-size="14.00">date_from :date</text>
<text text-anchor="start" x="474" y="-388.4" font-family="Times Roman,serif" font-size="14.00">date_until :date</text>
<text text-anchor="start" x="474" y="-370.4" font-family="Times Roman,serif" font-size="14.00">hs_monday :integer</text>
<text text-anchor="start" x="474" y="-352.4" font-family="Times Roman,serif" font-size="14.00">hs_tuesday :integer</text>
<text text-anchor="start" x="474" y="-334.4" font-family="Times Roman,serif" font-size="14.00">hs_wednesday :integer</text>
<text text-anchor="start" x="474" y="-316.4" font-family="Times Roman,serif" font-size="14.00">hs_thursday :integer</text>
<text text-anchor="start" x="474" y="-298.4" font-family="Times Roman,serif" font-size="14.00">hs_friday :integer</text>
<text text-anchor="start" x="474" y="-280.4" font-family="Times Roman,serif" font-size="14.00">hs_saturday :integer</text>
<text text-anchor="start" x="474" y="-262.4" font-family="Times Roman,serif" font-size="14.00">hs_sunday :integer</text>
<text text-anchor="start" x="474" y="-244.4" font-family="Times Roman,serif" font-size="14.00">created_at :timestamp</text>
<text text-anchor="start" x="474" y="-226.4" font-family="Times Roman,serif" font-size="14.00">updated_at :timestamp</text>
<text text-anchor="start" x="474" y="-208.4" font-family="Times Roman,serif" font-size="14.00">napplicants :integer</text>
<text text-anchor="start" x="474" y="-190.4" font-family="Times Roman,serif" font-size="14.00">horario :boolean</text>
<text text-anchor="start" x="474" y="-172.4" font-family="Times Roman,serif" font-size="14.00">description :text</text>
<text text-anchor="start" x="474" y="-154.4" font-family="Times Roman,serif" font-size="14.00">type_id :integer</text>
</g>
<!-- User&#45;&gt;Internship -->
<g id="edge6" class="edge"><title>User&#45;&gt;Internship</title>
<path fill="none" stroke="#1bc01f" d="M474.507,-927.394C471.618,-918.256 469.082,-909.096 467,-900 433.086,-751.832 439.118,-707.421 467,-558 468.664,-549.081 470.67,-540.06 472.947,-531.018"/>
<polygon fill="#1bc01f" stroke="#1bc01f" points="474.511,-927.408 473.367,-938.314 476.076,-932.157 477.641,-936.905 477.641,-936.905 477.641,-936.905 476.076,-932.157 481.915,-935.497 474.511,-927.408 474.511,-927.408"/>
<polygon fill="#1bc01f" stroke="#1bc01f" points="472.985,-530.876 479.875,-522.345 474.253,-526.039 475.522,-521.203 475.522,-521.203 475.522,-521.203 474.253,-526.039 471.169,-520.061 472.985,-530.876 472.985,-530.876"/>
</g>
<!-- Job -->
<g id="node13" class="node"><title>Job</title>
<polyline fill="none" stroke="black" points="488,-613 646,-613 "/>
<path fill="none" stroke="black" d="M646,-613C652,-613 658,-619 658,-625"/>
<polyline fill="none" stroke="black" points="658,-625 658,-833 "/>
<path fill="none" stroke="black" d="M658,-833C658,-839 652,-845 646,-845"/>
<polyline fill="none" stroke="black" points="646,-845 488,-845 "/>
<path fill="none" stroke="black" d="M488,-845C482,-845 476,-839 476,-833"/>
<polyline fill="none" stroke="black" points="476,-833 476,-625 "/>
<path fill="none" stroke="black" d="M476,-625C476,-619 482,-613 488,-613"/>
<text text-anchor="middle" x="567" y="-828.4" font-family="Times Roman,serif" font-size="14.00">Job</text>
<polyline fill="none" stroke="black" points="476,-819 658,-819 "/>
<text text-anchor="start" x="484" y="-802.4" font-family="Times Roman,serif" font-size="14.00">id :integer</text>
<text text-anchor="start" x="484" y="-784.4" font-family="Times Roman,serif" font-size="14.00">enterprise_name :string</text>
<text text-anchor="start" x="484" y="-766.4" font-family="Times Roman,serif" font-size="14.00">position :string</text>
<text text-anchor="start" x="484" y="-748.4" font-family="Times Roman,serif" font-size="14.00">area :string</text>
<text text-anchor="start" x="484" y="-730.4" font-family="Times Roman,serif" font-size="14.00">from :date</text>
<text text-anchor="start" x="484" y="-712.4" font-family="Times Roman,serif" font-size="14.00">until :date</text>
<text text-anchor="start" x="484" y="-694.4" font-family="Times Roman,serif" font-size="14.00">workingnow :boolean</text>
<text text-anchor="start" x="484" y="-676.4" font-family="Times Roman,serif" font-size="14.00">taskdescription :string</text>
<text text-anchor="start" x="484" y="-658.4" font-family="Times Roman,serif" font-size="14.00">user_id :integer</text>
<text text-anchor="start" x="484" y="-640.4" font-family="Times Roman,serif" font-size="14.00">created_at :timestamp</text>
<text text-anchor="start" x="484" y="-622.4" font-family="Times Roman,serif" font-size="14.00">updated_at :timestamp</text>
</g>
<!-- User&#45;&gt;Job -->
<g id="edge8" class="edge"><title>User&#45;&gt;Job</title>
<path fill="none" stroke="#e5a803" d="M567,-928.439C567,-903.817 567,-878.957 567,-855.539"/>
<ellipse fill="none" stroke="#e5a803" cx="567" cy="-932.798" rx="4" ry="4"/>
<polygon fill="#e5a803" stroke="#e5a803" points="567,-855.243 571.5,-845.243 567,-850.243 567,-845.243 567,-845.243 567,-845.243 567,-850.243 562.5,-845.243 567,-855.243 567,-855.243"/>
</g>
<!-- Company&#45;&gt;Internship -->
<g id="edge12" class="edge"><title>Company&#45;&gt;Internship</title>
<path fill="none" stroke="#3834a2" d="M231.941,-561.078C232.958,-560.043 233.978,-559.017 235,-558 301.796,-491.564 390.109,-430.936 456.876,-389.398"/>
<ellipse fill="none" stroke="#3834a2" cx="228.92" cy="-564.216" rx="4.00002" ry="4.00002"/>
<polygon fill="#3834a2" stroke="#3834a2" points="457.23,-389.179 468.102,-387.747 461.483,-386.549 465.735,-383.919 465.735,-383.919 465.735,-383.919 461.483,-386.549 463.368,-380.092 457.23,-389.179 457.23,-389.179"/>
</g>
<!-- InternshipsUser -->
<g id="node6" class="node"><title>InternshipsUser</title>
<polyline fill="none" stroke="black" points="523,-1495 663,-1495 "/>
<path fill="none" stroke="black" d="M663,-1495C669,-1495 675,-1501 675,-1507"/>
<polyline fill="none" stroke="black" points="675,-1507 675,-1553 "/>
<path fill="none" stroke="black" d="M675,-1553C675,-1559 669,-1565 663,-1565"/>
<polyline fill="none" stroke="black" points="663,-1565 523,-1565 "/>
<path fill="none" stroke="black" d="M523,-1565C517,-1565 511,-1559 511,-1553"/>
<polyline fill="none" stroke="black" points="511,-1553 511,-1507 "/>
<path fill="none" stroke="black" d="M511,-1507C511,-1501 517,-1495 523,-1495"/>
<text text-anchor="middle" x="593" y="-1548.4" font-family="Times Roman,serif" font-size="14.00">InternshipsUser</text>
<polyline fill="none" stroke="black" points="511,-1539 675,-1539 "/>
<text text-anchor="start" x="519" y="-1522.4" font-family="Times Roman,serif" font-size="14.00">internship_id :integer</text>
<text text-anchor="start" x="519" y="-1504.4" font-family="Times Roman,serif" font-size="14.00">user_id :integer</text>
</g>
<!-- Province -->
<g id="node7" class="node"><title>Province</title>
<polyline fill="none" stroke="black" points="329,-1477 481,-1477 "/>
<path fill="none" stroke="black" d="M481,-1477C487,-1477 493,-1483 493,-1489"/>
<polyline fill="none" stroke="black" points="493,-1489 493,-1571 "/>
<path fill="none" stroke="black" d="M493,-1571C493,-1577 487,-1583 481,-1583"/>
<polyline fill="none" stroke="black" points="481,-1583 329,-1583 "/>
<path fill="none" stroke="black" d="M329,-1583C323,-1583 317,-1577 317,-1571"/>
<polyline fill="none" stroke="black" points="317,-1571 317,-1489 "/>
<path fill="none" stroke="black" d="M317,-1489C317,-1483 323,-1477 329,-1477"/>
<text text-anchor="middle" x="405" y="-1566.4" font-family="Times Roman,serif" font-size="14.00">Province</text>
<polyline fill="none" stroke="black" points="317,-1557 493,-1557 "/>
<text text-anchor="start" x="325" y="-1540.4" font-family="Times Roman,serif" font-size="14.00">id :integer</text>
<text text-anchor="start" x="325" y="-1522.4" font-family="Times Roman,serif" font-size="14.00">province :string</text>
<text text-anchor="start" x="325" y="-1504.4" font-family="Times Roman,serif" font-size="14.00">created_at :timestamp</text>
<text text-anchor="start" x="325" y="-1486.4" font-family="Times Roman,serif" font-size="14.00">updated_at :timestamp</text>
</g>
<!-- Locality -->
<g id="node12" class="node"><title>Locality</title>
<polyline fill="none" stroke="black" points="329,-1315 481,-1315 "/>
<path fill="none" stroke="black" d="M481,-1315C487,-1315 493,-1321 493,-1327"/>
<polyline fill="none" stroke="black" points="493,-1327 493,-1427 "/>
<path fill="none" stroke="black" d="M493,-1427C493,-1433 487,-1439 481,-1439"/>
<polyline fill="none" stroke="black" points="481,-1439 329,-1439 "/>
<path fill="none" stroke="black" d="M329,-1439C323,-1439 317,-1433 317,-1427"/>
<polyline fill="none" stroke="black" points="317,-1427 317,-1327 "/>
<path fill="none" stroke="black" d="M317,-1327C317,-1321 323,-1315 329,-1315"/>
<text text-anchor="middle" x="405" y="-1422.4" font-family="Times Roman,serif" font-size="14.00">Locality</text>
<polyline fill="none" stroke="black" points="317,-1413 493,-1413 "/>
<text text-anchor="start" x="325" y="-1396.4" font-family="Times Roman,serif" font-size="14.00">id :integer</text>
<text text-anchor="start" x="325" y="-1378.4" font-family="Times Roman,serif" font-size="14.00">locality :string</text>
<text text-anchor="start" x="325" y="-1360.4" font-family="Times Roman,serif" font-size="14.00">province_id :integer</text>
<text text-anchor="start" x="325" y="-1342.4" font-family="Times Roman,serif" font-size="14.00">created_at :timestamp</text>
<text text-anchor="start" x="325" y="-1324.4" font-family="Times Roman,serif" font-size="14.00">updated_at :timestamp</text>
</g>
<!-- Province&#45;&gt;Locality -->
<g id="edge14" class="edge"><title>Province&#45;&gt;Locality</title>
<path fill="none" stroke="#31eaa3" d="M405,-1468.82C405,-1462.42 405,-1455.87 405,-1449.36"/>
<ellipse fill="none" stroke="#31eaa3" cx="405" cy="-1472.92" rx="4" ry="4"/>
<polygon fill="#31eaa3" stroke="#31eaa3" points="405,-1449.19 409.5,-1439.19 405,-1444.19 405,-1439.19 405,-1439.19 405,-1439.19 405,-1444.19 400.5,-1439.19 405,-1449.19 405,-1449.19"/>
</g>
<!-- Internship&#45;&gt;Contract -->
<g id="edge16" class="edge"><title>Internship&#45;&gt;Contract</title>
<path fill="none" stroke="#7c6da8" d="M648.706,-267.107C720.54,-217.128 817.764,-149.484 883.243,-103.926"/>
<ellipse fill="none" stroke="#7c6da8" cx="645.285" cy="-269.488" rx="4.00002" ry="4.00002"/>
<polygon fill="#7c6da8" stroke="#7c6da8" points="883.257,-103.916 894.036,-101.899 887.361,-101.06 891.466,-98.2048 891.466,-98.2048 891.466,-98.2048 887.361,-101.06 888.895,-94.5109 883.257,-103.916 883.257,-103.916"/>
</g>
<!-- Task -->
<g id="node9" class="node"><title>Task</title>
<polyline fill="none" stroke="black" points="478,-1 630,-1 "/>
<path fill="none" stroke="black" d="M630,-1C636,-1 642,-7 642,-13"/>
<polyline fill="none" stroke="black" points="642,-13 642,-95 "/>
<path fill="none" stroke="black" d="M642,-95C642,-101 636,-107 630,-107"/>
<polyline fill="none" stroke="black" points="630,-107 478,-107 "/>
<path fill="none" stroke="black" d="M478,-107C472,-107 466,-101 466,-95"/>
<polyline fill="none" stroke="black" points="466,-95 466,-13 "/>
<path fill="none" stroke="black" d="M466,-13C466,-7 472,-1 478,-1"/>
<text text-anchor="middle" x="554" y="-90.4" font-family="Times Roman,serif" font-size="14.00">Task</text>
<polyline fill="none" stroke="black" points="466,-81 642,-81 "/>
<text text-anchor="start" x="474" y="-64.4" font-family="Times Roman,serif" font-size="14.00">id :integer</text>
<text text-anchor="start" x="474" y="-46.4" font-family="Times Roman,serif" font-size="14.00">description :string</text>
<text text-anchor="start" x="474" y="-28.4" font-family="Times Roman,serif" font-size="14.00">created_at :timestamp</text>
<text text-anchor="start" x="474" y="-10.4" font-family="Times Roman,serif" font-size="14.00">updated_at :timestamp</text>
</g>
<!-- Internship&#45;&gt;Task -->
<g id="edge18" class="edge"><title>Internship&#45;&gt;Task</title>
<path fill="none" stroke="#3355d8" d="M554,-134.943C554,-128.771 554,-122.785 554,-117.049"/>
<polygon fill="#3355d8" stroke="#3355d8" points="554,-134.969 549.5,-144.969 554,-139.969 554,-144.969 554,-144.969 554,-144.969 554,-139.969 558.5,-144.969 554,-134.969 554,-134.969"/>
<polygon fill="#3355d8" stroke="#3355d8" points="554,-117.007 558.5,-107.007 554,-112.007 554,-107.007 554,-107.007 554,-107.007 554,-112.007 549.5,-107.007 554,-117.007 554,-117.007"/>
</g>
<!-- Situation -->
<g id="node10" class="node"><title>Situation</title>
<polyline fill="none" stroke="black" points="256,-676 408,-676 "/>
<path fill="none" stroke="black" d="M408,-676C414,-676 420,-682 420,-688"/>
<polyline fill="none" stroke="black" points="420,-688 420,-770 "/>
<path fill="none" stroke="black" d="M420,-770C420,-776 414,-782 408,-782"/>
<polyline fill="none" stroke="black" points="408,-782 256,-782 "/>
<path fill="none" stroke="black" d="M256,-782C250,-782 244,-776 244,-770"/>
<polyline fill="none" stroke="black" points="244,-770 244,-688 "/>
<path fill="none" stroke="black" d="M244,-688C244,-682 250,-676 256,-676"/>
<text text-anchor="middle" x="332" y="-765.4" font-family="Times Roman,serif" font-size="14.00">Situation</text>
<polyline fill="none" stroke="black" points="244,-756 420,-756 "/>
<text text-anchor="start" x="252" y="-739.4" font-family="Times Roman,serif" font-size="14.00">id :integer</text>
<text text-anchor="start" x="252" y="-721.4" font-family="Times Roman,serif" font-size="14.00">status :string</text>
<text text-anchor="start" x="252" y="-703.4" font-family="Times Roman,serif" font-size="14.00">created_at :timestamp</text>
<text text-anchor="start" x="252" y="-685.4" font-family="Times Roman,serif" font-size="14.00">updated_at :timestamp</text>
</g>
<!-- Situation&#45;&gt;Internship -->
<g id="edge20" class="edge"><title>Situation&#45;&gt;Internship</title>
<path fill="none" stroke="#139f43" d="M365.946,-668.448C391.321,-623.185 427.301,-559.005 461.005,-498.883"/>
<ellipse fill="none" stroke="#139f43" cx="363.896" cy="-672.105" rx="4.00002" ry="4.00002"/>
<polygon fill="#139f43" stroke="#139f43" points="461.069,-498.768 469.885,-492.246 463.515,-494.407 465.96,-490.045 465.96,-490.045 465.96,-490.045 463.515,-494.407 462.034,-487.845 461.069,-498.768 461.069,-498.768"/>
</g>
<!-- Treatment -->
<g id="node11" class="node"><title>Treatment</title>
<polyline fill="none" stroke="black" points="757,-1324 909,-1324 "/>
<path fill="none" stroke="black" d="M909,-1324C915,-1324 921,-1330 921,-1336"/>
<polyline fill="none" stroke="black" points="921,-1336 921,-1418 "/>
<path fill="none" stroke="black" d="M921,-1418C921,-1424 915,-1430 909,-1430"/>
<polyline fill="none" stroke="black" points="909,-1430 757,-1430 "/>
<path fill="none" stroke="black" d="M757,-1430C751,-1430 745,-1424 745,-1418"/>
<polyline fill="none" stroke="black" points="745,-1418 745,-1336 "/>
<path fill="none" stroke="black" d="M745,-1336C745,-1330 751,-1324 757,-1324"/>
<text text-anchor="middle" x="833" y="-1413.4" font-family="Times Roman,serif" font-size="14.00">Treatment</text>
<polyline fill="none" stroke="black" points="745,-1404 921,-1404 "/>
<text text-anchor="start" x="753" y="-1387.4" font-family="Times Roman,serif" font-size="14.00">id :integer</text>
<text text-anchor="start" x="753" y="-1369.4" font-family="Times Roman,serif" font-size="14.00">treatment :string</text>
<text text-anchor="start" x="753" y="-1351.4" font-family="Times Roman,serif" font-size="14.00">created_at :timestamp</text>
<text text-anchor="start" x="753" y="-1333.4" font-family="Times Roman,serif" font-size="14.00">updated_at :timestamp</text>
</g>
<!-- Treatment&#45;&gt;User -->
<g id="edge22" class="edge"><title>Treatment&#45;&gt;User</title>
<path fill="none" stroke="#d1fcb6" d="M774.861,-1317.99C742.415,-1285.05 701.153,-1243.17 663.959,-1205.42"/>
<ellipse fill="none" stroke="#d1fcb6" cx="777.957" cy="-1321.13" rx="4.00002" ry="4.00002"/>
<polygon fill="#d1fcb6" stroke="#d1fcb6" points="663.596,-1205.05 659.784,-1194.77 660.087,-1201.49 656.578,-1197.92 656.578,-1197.92 656.578,-1197.92 660.087,-1201.49 653.372,-1201.08 663.596,-1205.05 663.596,-1205.05"/>
</g>
<!-- Treatment&#45;&gt;Internship -->
<g id="edge24" class="edge"><title>Treatment&#45;&gt;Internship</title>
<path fill="none" stroke="#c1a5e3" d="M877.822,-1317.25C978.817,-1174.75 1203.28,-808.177 1043,-558 957.033,-423.813 768.612,-368.559 652.379,-346.621"/>
<ellipse fill="none" stroke="#c1a5e3" cx="875.43" cy="-1320.61" rx="4.00002" ry="4.00002"/>
<polygon fill="#c1a5e3" stroke="#c1a5e3" points="652.239,-346.596 643.218,-340.361 647.321,-345.691 642.404,-344.787 642.404,-344.787 642.404,-344.787 647.321,-345.691 641.59,-349.213 652.239,-346.596 652.239,-346.596"/>
</g>
<!-- Locality&#45;&gt;User -->
<g id="edge26" class="edge"><title>Locality&#45;&gt;User</title>
<path fill="none" stroke="#c41e01" d="M446.687,-1307.52C454.969,-1293.72 463.975,-1278.71 473.208,-1263.32"/>
<ellipse fill="none" stroke="#c41e01" cx="444.427" cy="-1311.29" rx="4.00002" ry="4.00002"/>
<ellipse fill="#c41e01" stroke="#c41e01" cx="475.407" cy="-1259.66" rx="4.00002" ry="4.00002"/>
</g>
<!-- Locality&#45;&gt;Company -->
<g id="edge28" class="edge"><title>Locality&#45;&gt;Company</title>
<path fill="none" stroke="#6ae945" d="M373.671,-1307.48C330.895,-1212.55 252.722,-1039.07 193.102,-906.761"/>
<ellipse fill="none" stroke="#6ae945" cx="375.358" cy="-1311.22" rx="4.00002" ry="4.00002"/>
<ellipse fill="#6ae945" stroke="#6ae945" cx="191.385" cy="-902.949" rx="4.00002" ry="4.00002"/>
</g>
<!-- Skill -->
<g id="node14" class="node"><title>Skill</title>
<polyline fill="none" stroke="black" points="705,-1477 857,-1477 "/>
<path fill="none" stroke="black" d="M857,-1477C863,-1477 869,-1483 869,-1489"/>
<polyline fill="none" stroke="black" points="869,-1489 869,-1571 "/>
<path fill="none" stroke="black" d="M869,-1571C869,-1577 863,-1583 857,-1583"/>
<polyline fill="none" stroke="black" points="857,-1583 705,-1583 "/>
<path fill="none" stroke="black" d="M705,-1583C699,-1583 693,-1577 693,-1571"/>
<polyline fill="none" stroke="black" points="693,-1571 693,-1489 "/>
<path fill="none" stroke="black" d="M693,-1489C693,-1483 699,-1477 705,-1477"/>
<text text-anchor="middle" x="781" y="-1566.4" font-family="Times Roman,serif" font-size="14.00">Skill</text>
<polyline fill="none" stroke="black" points="693,-1557 869,-1557 "/>
<text text-anchor="start" x="701" y="-1540.4" font-family="Times Roman,serif" font-size="14.00">id :integer</text>
<text text-anchor="start" x="701" y="-1522.4" font-family="Times Roman,serif" font-size="14.00">name :string</text>
<text text-anchor="start" x="701" y="-1504.4" font-family="Times Roman,serif" font-size="14.00">created_at :timestamp</text>
<text text-anchor="start" x="701" y="-1486.4" font-family="Times Roman,serif" font-size="14.00">updated_at :timestamp</text>
</g>
<!-- InternshipsTask -->
<g id="node15" class="node"><title>InternshipsTask</title>
<polyline fill="none" stroke="black" points="899,-1486 1039,-1486 "/>
<path fill="none" stroke="black" d="M1039,-1486C1045,-1486 1051,-1492 1051,-1498"/>
<polyline fill="none" stroke="black" points="1051,-1498 1051,-1562 "/>
<path fill="none" stroke="black" d="M1051,-1562C1051,-1568 1045,-1574 1039,-1574"/>
<polyline fill="none" stroke="black" points="1039,-1574 899,-1574 "/>
<path fill="none" stroke="black" d="M899,-1574C893,-1574 887,-1568 887,-1562"/>
<polyline fill="none" stroke="black" points="887,-1562 887,-1498 "/>
<path fill="none" stroke="black" d="M887,-1498C887,-1492 893,-1486 899,-1486"/>
<text text-anchor="middle" x="969" y="-1557.4" font-family="Times Roman,serif" font-size="14.00">InternshipsTask</text>
<polyline fill="none" stroke="black" points="887,-1548 1051,-1548 "/>
<text text-anchor="start" x="895" y="-1531.4" font-family="Times Roman,serif" font-size="14.00">id :integer</text>
<text text-anchor="start" x="895" y="-1513.4" font-family="Times Roman,serif" font-size="14.00">internship_id :integer</text>
<text text-anchor="start" x="895" y="-1495.4" font-family="Times Roman,serif" font-size="14.00">task_id :integer</text>
</g>
<!-- Type -->
<g id="node16" class="node"><title>Type</title>
<polyline fill="none" stroke="black" points="881.5,-676 1022.5,-676 "/>
<path fill="none" stroke="black" d="M1022.5,-676C1028.5,-676 1034.5,-682 1034.5,-688"/>
<polyline fill="none" stroke="black" points="1034.5,-688 1034.5,-770 "/>
<path fill="none" stroke="black" d="M1034.5,-770C1034.5,-776 1028.5,-782 1022.5,-782"/>
<polyline fill="none" stroke="black" points="1022.5,-782 881.5,-782 "/>
<path fill="none" stroke="black" d="M881.5,-782C875.5,-782 869.5,-776 869.5,-770"/>
<polyline fill="none" stroke="black" points="869.5,-770 869.5,-688 "/>
<path fill="none" stroke="black" d="M869.5,-688C869.5,-682 875.5,-676 881.5,-676"/>
<text text-anchor="middle" x="952" y="-765.4" font-family="Times Roman,serif" font-size="14.00">Type</text>
<polyline fill="none" stroke="black" points="869.5,-756 1034.5,-756 "/>
<text text-anchor="start" x="877.5" y="-739.4" font-family="Times Roman,serif" font-size="14.00">id :integer</text>
<text text-anchor="start" x="877.5" y="-721.4" font-family="Times Roman,serif" font-size="14.00">tipo :string</text>
<text text-anchor="start" x="877.5" y="-703.4" font-family="Times Roman,serif" font-size="14.00">created_at :datetime</text>
<text text-anchor="start" x="877.5" y="-685.4" font-family="Times Roman,serif" font-size="14.00">updated_at :datetime</text>
</g>
<!-- Type&#45;&gt;Internship -->
<g id="edge30" class="edge"><title>Type&#45;&gt;Internship</title>
<path fill="none" stroke="#6a7e12" d="M927.743,-668.146C912.034,-633.489 889.244,-590.616 861,-558 801.075,-488.799 716.107,-428.606 650.747,-387.936"/>
<ellipse fill="none" stroke="#6a7e12" cx="929.555" cy="-672.208" rx="4.00002" ry="4.00002"/>
<polygon fill="#6a7e12" stroke="#6a7e12" points="650.576,-387.83 644.43,-378.748 646.321,-385.204 642.066,-382.577 642.066,-382.577 642.066,-382.577 646.321,-385.204 639.702,-386.406 650.576,-387.83 650.576,-387.83"/>
</g>
</g>
</svg>
