<?xml version="1.0" encoding="UTF-8" standalone="no"?>
<!DOCTYPE svg PUBLIC "-//W3C//DTD SVG 1.1//EN"
 "http://www.w3.org/Graphics/SVG/1.1/DTD/svg11.dtd">
<!-- Generated by graphviz version 2.36.0 (20140111.2315)
 -->
<!-- Title: models_diagram Pages: 1 -->
<svg width="797pt" height="446pt"
 viewBox="0.00 0.00 797.00 446.00" xmlns="http://www.w3.org/2000/svg" xmlns:xlink="http://www.w3.org/1999/xlink">
<g id="graph0" class="graph" transform="scale(1 1) rotate(0) translate(4 442)">
<title>models_diagram</title>
<polygon fill="white" stroke="none" points="-4,4 -4,-442 793,-442 793,4 -4,4"/>
<!-- _diagram_info -->
<g id="node1" class="node"><title>_diagram_info</title>
<text text-anchor="start" x="106" y="-423.6" font-family="Times,serif" font-size="13.00">Models diagram</text>
<text text-anchor="start" x="106" y="-409.6" font-family="Times,serif" font-size="13.00">Date: Aug 04 2015 &#45; 20:47</text>
<text text-anchor="start" x="106" y="-395.6" font-family="Times,serif" font-size="13.00">Migration version: 20150301221325</text>
<text text-anchor="start" x="106" y="-381.6" font-family="Times,serif" font-size="13.00">Generated by RailRoady 1.1.0</text>
<text text-anchor="start" x="106" y="-367.6" font-family="Times,serif" font-size="13.00">http://railroady.prestonlee.com</text>
</g>
<!-- Situation -->
<g id="node2" class="node"><title>Situation</title>
<ellipse fill="none" stroke="black" cx="117" cy="-234" rx="42.3701" ry="18"/>
<text text-anchor="middle" x="117" y="-230.3" font-family="Times,serif" font-size="14.00">Situation</text>
</g>
<!-- Internship -->
<g id="node4" class="node"><title>Internship</title>
<ellipse fill="none" stroke="black" cx="224" cy="-162" rx="46.2191" ry="18"/>
<text text-anchor="middle" x="224" y="-158.3" font-family="Times,serif" font-size="14.00">Internship</text>
</g>
<!-- Situation&#45;&gt;Internship -->
<g id="edge1" class="edge"><title>Situation&#45;&gt;Internship</title>
<path fill="none" stroke="#6ccf65" d="M145.869,-214.114C160.477,-204.557 178.219,-192.95 193.103,-183.213"/>
<ellipse fill="none" stroke="#6ccf65" cx="142.518" cy="-216.306" rx="4.00002" ry="4.00002"/>
<polygon fill="#6ccf65" stroke="#6ccf65" points="193.121,-183.201 203.953,-181.492 197.306,-180.464 201.49,-177.726 201.49,-177.726 201.49,-177.726 197.306,-180.464 199.026,-173.961 193.121,-183.201 193.121,-183.201"/>
</g>
<!-- Contract -->
<g id="node3" class="node"><title>Contract</title>
<ellipse fill="none" stroke="black" cx="237" cy="-18" rx="40.4202" ry="18"/>
<text text-anchor="middle" x="237" y="-14.3" font-family="Times,serif" font-size="14.00">Contract</text>
</g>
<!-- Internship&#45;&gt;Contract -->
<g id="edge2" class="edge"><title>Internship&#45;&gt;Contract</title>
<path fill="none" stroke="#9036c6" d="M226.329,-135.558C228.628,-110.444 232.133,-72.164 234.492,-46.3932"/>
<ellipse fill="none" stroke="#9036c6" cx="225.933" cy="-139.888" rx="4" ry="4"/>
<polygon fill="#9036c6" stroke="#9036c6" points="234.515,-46.1476 239.908,-36.5996 234.97,-41.1684 235.426,-36.1893 235.426,-36.1893 235.426,-36.1893 234.97,-41.1684 230.945,-35.779 234.515,-46.1476 234.515,-46.1476"/>
</g>
<!-- Task -->
<g id="node11" class="node"><title>Task</title>
<ellipse fill="none" stroke="black" cx="181" cy="-90" rx="27.4223" ry="18"/>
<text text-anchor="middle" x="181" y="-86.3" font-family="Times,serif" font-size="14.00">Task</text>
</g>
<!-- Internship&#45;&gt;Task -->
<g id="edge3" class="edge"><title>Internship&#45;&gt;Task</title>
<path fill="none" stroke="#fe4d32" d="M208.433,-135.658C204.482,-129.227 200.242,-122.323 196.304,-115.914"/>
<polygon fill="#fe4d32" stroke="#fe4d32" points="208.575,-135.89 209.975,-146.766 211.192,-140.151 213.81,-144.411 213.81,-144.411 213.81,-144.411 211.192,-140.151 217.644,-142.056 208.575,-135.89 208.575,-135.89"/>
<polygon fill="#fe4d32" stroke="#fe4d32" points="196.055,-115.509 194.656,-104.633 193.438,-111.248 190.821,-106.988 190.821,-106.988 190.821,-106.988 193.438,-111.248 186.987,-109.344 196.055,-115.509 196.055,-115.509"/>
</g>
<!-- User -->
<g id="node12" class="node"><title>User</title>
<ellipse fill="none" stroke="black" cx="323" cy="-90" rx="26.949" ry="18"/>
<text text-anchor="middle" x="323" y="-86.3" font-family="Times,serif" font-size="14.00">User</text>
</g>
<!-- Internship&#45;&gt;User -->
<g id="edge4" class="edge"><title>Internship&#45;&gt;User</title>
<path fill="none" stroke="#9a9b86" d="M253.806,-139.925C267.45,-130.278 283.478,-118.945 296.671,-109.616"/>
<polygon fill="#9a9b86" stroke="#9a9b86" points="253.647,-140.038 242.884,-142.137 249.564,-142.924 245.482,-145.811 245.482,-145.811 245.482,-145.811 249.564,-142.924 248.08,-149.485 253.647,-140.038 253.647,-140.038"/>
<polygon fill="#9a9b86" stroke="#9a9b86" points="296.713,-109.587 307.476,-107.488 300.795,-106.7 304.878,-103.814 304.878,-103.814 304.878,-103.814 300.795,-106.7 302.28,-100.139 296.713,-109.587 296.713,-109.587"/>
</g>
<!-- Type -->
<g id="node5" class="node"><title>Type</title>
<ellipse fill="none" stroke="black" cx="28" cy="-234" rx="28.3955" ry="18"/>
<text text-anchor="middle" x="28" y="-230.3" font-family="Times,serif" font-size="14.00">Type</text>
</g>
<!-- Type&#45;&gt;Internship -->
<g id="edge5" class="edge"><title>Type&#45;&gt;Internship</title>
<path fill="none" stroke="#d6d05f" d="M58.171,-219.185C60.8055,-218.075 63.4416,-216.999 66,-216 103.575,-201.333 147.082,-186.923 178.917,-176.839"/>
<ellipse fill="none" stroke="#d6d05f" cx="54.0234" cy="-220.979" rx="4.00001" ry="4.00001"/>
<polygon fill="#d6d05f" stroke="#d6d05f" points="179.282,-176.724 190.171,-178.015 184.051,-175.223 188.821,-173.723 188.821,-173.723 188.821,-173.723 184.051,-175.223 187.47,-169.43 179.282,-176.724 179.282,-176.724"/>
</g>
<!-- Company -->
<g id="node6" class="node"><title>Company</title>
<ellipse fill="none" stroke="black" cx="336" cy="-234" rx="45.244" ry="18"/>
<text text-anchor="middle" x="336" y="-230.3" font-family="Times,serif" font-size="14.00">Company</text>
</g>
<!-- Company&#45;&gt;Internship -->
<g id="edge6" class="edge"><title>Company&#45;&gt;Internship</title>
<path fill="none" stroke="#ee9c76" d="M305.782,-214.114C290.492,-204.557 271.92,-192.95 256.341,-183.213"/>
<ellipse fill="none" stroke="#ee9c76" cx="309.402" cy="-216.376" rx="4.00002" ry="4.00002"/>
<polygon fill="#ee9c76" stroke="#ee9c76" points="256.042,-183.026 249.947,-173.91 251.802,-180.376 247.562,-177.726 247.562,-177.726 247.562,-177.726 251.802,-180.376 245.177,-181.542 256.042,-183.026 256.042,-183.026"/>
</g>
<!-- Company&#45;&gt;User -->
<g id="edge7" class="edge"><title>Company&#45;&gt;User</title>
<path fill="none" stroke="#757e65" d="M333.499,-205.679C331.192,-180.487 327.788,-143.295 325.486,-118.156"/>
<polygon fill="#757e65" stroke="#757e65" points="333.52,-205.913 329.951,-216.282 333.976,-210.892 334.432,-215.871 334.432,-215.871 334.432,-215.871 333.976,-210.892 338.913,-215.461 333.52,-205.913 333.52,-205.913"/>
<polygon fill="#757e65" stroke="#757e65" points="325.485,-118.148 329.055,-107.779 325.03,-113.168 324.574,-108.189 324.574,-108.189 324.574,-108.189 325.03,-113.168 320.092,-108.6 325.485,-118.148 325.485,-118.148"/>
</g>
<!-- InternshipsUser -->
<g id="node7" class="node"><title>InternshipsUser</title>
<ellipse fill="none" stroke="black" cx="499" cy="-399" rx="65.9423" ry="18"/>
<text text-anchor="middle" x="499" y="-395.3" font-family="Times,serif" font-size="14.00">InternshipsUser</text>
</g>
<!-- InternshipsTask -->
<g id="node8" class="node"><title>InternshipsTask</title>
<ellipse fill="none" stroke="black" cx="650" cy="-399" rx="66.4165" ry="18"/>
<text text-anchor="middle" x="650" y="-395.3" font-family="Times,serif" font-size="14.00">InternshipsTask</text>
</g>
<!-- Locality -->
<g id="node9" class="node"><title>Locality</title>
<ellipse fill="none" stroke="black" cx="372" cy="-306" rx="39.9464" ry="18"/>
<text text-anchor="middle" x="372" y="-302.3" font-family="Times,serif" font-size="14.00">Locality</text>
</g>
<!-- Locality&#45;&gt;Company -->
<g id="edge9" class="edge"><title>Locality&#45;&gt;Company</title>
<path fill="none" stroke="#1588c5" d="M359.689,-281.062C356.075,-274.034 352.119,-266.343 348.493,-259.293"/>
<ellipse fill="none" stroke="#1588c5" cx="361.639" cy="-284.854" rx="4.00002" ry="4.00002"/>
<ellipse fill="#1588c5" stroke="#1588c5" cx="346.55" cy="-255.513" rx="4.00002" ry="4.00002"/>
</g>
<!-- Locality&#45;&gt;User -->
<g id="edge8" class="edge"><title>Locality&#45;&gt;User</title>
<path fill="none" stroke="#02d337" d="M382.862,-280.441C389.373,-262.492 395.427,-237.612 390,-216 380.231,-177.094 355.76,-137.082 339.257,-113.129"/>
<ellipse fill="none" stroke="#02d337" cx="381.32" cy="-284.433" rx="4.00001" ry="4.00001"/>
<ellipse fill="#02d337" stroke="#02d337" cx="336.921" cy="-109.797" rx="4.00002" ry="4.00002"/>
</g>
<!-- Treatment -->
<g id="node10" class="node"><title>Treatment</title>
<ellipse fill="none" stroke="black" cx="225" cy="-234" rx="47.169" ry="18"/>
<text text-anchor="middle" x="225" y="-230.3" font-family="Times,serif" font-size="14.00">Treatment</text>
</g>
<!-- Treatment&#45;&gt;Internship -->
<g id="edge11" class="edge"><title>Treatment&#45;&gt;Internship</title>
<path fill="none" stroke="#2e785e" d="M224.638,-207.64C224.558,-202.063 224.473,-196.132 224.393,-190.476"/>
<ellipse fill="none" stroke="#2e785e" cx="224.696" cy="-211.697" rx="4" ry="4"/>
<polygon fill="#2e785e" stroke="#2e785e" points="224.387,-190.103 228.744,-180.04 224.316,-185.104 224.244,-180.104 224.244,-180.104 224.244,-180.104 224.316,-185.104 219.745,-180.169 224.387,-190.103 224.387,-190.103"/>
</g>
<!-- Treatment&#45;&gt;User -->
<g id="edge10" class="edge"><title>Treatment&#45;&gt;User</title>
<path fill="none" stroke="#42b141" d="M249.799,-211.982C259.668,-202.818 270.64,-191.54 279,-180 293.229,-160.359 305.109,-135.421 312.924,-116.943"/>
<ellipse fill="none" stroke="#42b141" cx="246.792" cy="-214.711" rx="4.00002" ry="4.00002"/>
<polygon fill="#42b141" stroke="#42b141" points="312.932,-116.923 320.895,-109.385 314.832,-112.299 316.733,-107.674 316.733,-107.674 316.733,-107.674 314.832,-112.299 312.571,-105.963 312.932,-116.923 312.932,-116.923"/>
</g>
<!-- User&#45;&gt;Contract -->
<g id="edge12" class="edge"><title>User&#45;&gt;Contract</title>
<path fill="none" stroke="#7f734a" d="M299.926,-70.2192C288.759,-61.1298 275.291,-50.1667 263.684,-40.7194"/>
<ellipse fill="none" stroke="#7f734a" cx="303.316" cy="-72.9782" rx="4.00002" ry="4.00002"/>
<polygon fill="#7f734a" stroke="#7f734a" points="263.377,-40.4694 258.462,-30.6666 259.499,-37.313 255.621,-34.1566 255.621,-34.1566 255.621,-34.1566 259.499,-37.313 252.78,-37.6467 263.377,-40.4694 263.377,-40.4694"/>
</g>
<!-- Study -->
<g id="node15" class="node"><title>Study</title>
<ellipse fill="none" stroke="black" cx="399" cy="-18" rx="31.2965" ry="18"/>
<text text-anchor="middle" x="399" y="-14.3" font-family="Times,serif" font-size="14.00">Study</text>
</g>
<!-- User&#45;&gt;Study -->
<g id="edge14" class="edge"><title>User&#45;&gt;Study</title>
<path fill="none" stroke="#0f7c81" d="M344.506,-69.1918C354.197,-60.2663 365.663,-49.7054 375.571,-40.5792"/>
<ellipse fill="none" stroke="#0f7c81" cx="341.322" cy="-72.1245" rx="4.00002" ry="4.00002"/>
<polygon fill="#0f7c81" stroke="#0f7c81" points="375.764,-40.4011 386.169,-36.9363 379.442,-37.0137 383.12,-33.6263 383.12,-33.6263 383.12,-33.6263 379.442,-37.0137 380.071,-30.3164 375.764,-40.4011 375.764,-40.4011"/>
</g>
<!-- Job -->
<g id="node16" class="node"><title>Job</title>
<ellipse fill="none" stroke="black" cx="323" cy="-18" rx="27" ry="18"/>
<text text-anchor="middle" x="323" y="-14.3" font-family="Times,serif" font-size="14.00">Job</text>
</g>
<!-- User&#45;&gt;Job -->
<g id="edge13" class="edge"><title>User&#45;&gt;Job</title>
<path fill="none" stroke="#d33c73" d="M323,-63.6398C323,-58.0629 323,-52.1319 323,-46.4761"/>
<ellipse fill="none" stroke="#d33c73" cx="323" cy="-67.6966" rx="4" ry="4"/>
<polygon fill="#d33c73" stroke="#d33c73" points="323,-46.1043 327.5,-36.1043 323,-41.1043 323,-36.1043 323,-36.1043 323,-36.1043 323,-41.1043 318.5,-36.1044 323,-46.1043 323,-46.1043"/>
</g>
<!-- Skill -->
<g id="node13" class="node"><title>Skill</title>
<ellipse fill="none" stroke="black" cx="762" cy="-399" rx="26.949" ry="18"/>
<text text-anchor="middle" x="762" y="-395.3" font-family="Times,serif" font-size="14.00">Skill</text>
</g>
<!-- Province -->
<g id="node14" class="node"><title>Province</title>
<ellipse fill="none" stroke="black" cx="372" cy="-399" rx="42.3701" ry="18"/>
<text text-anchor="middle" x="372" y="-395.3" font-family="Times,serif" font-size="14.00">Province</text>
</g>
<!-- Province&#45;&gt;Locality -->
<g id="edge15" class="edge"><title>Province&#45;&gt;Locality</title>
<path fill="none" stroke="#de84cc" d="M372,-372.729C372,-360.725 372,-346.362 372,-334.129"/>
<ellipse fill="none" stroke="#de84cc" cx="372" cy="-376.884" rx="4" ry="4"/>
<polygon fill="#de84cc" stroke="#de84cc" points="372,-334.04 376.5,-324.04 372,-329.04 372,-324.04 372,-324.04 372,-324.04 372,-329.04 367.5,-324.04 372,-334.04 372,-334.04"/>
</g>
</g>
</svg>
