<?xml version="1.0" encoding="UTF-8" standalone="no"?>
<!DOCTYPE svg PUBLIC "-//W3C//DTD SVG 1.1//EN"
 "http://www.w3.org/Graphics/SVG/1.1/DTD/svg11.dtd">
<!-- Generated by graphviz version 2.26.3 (20100126.1600)
 -->
<!-- Title: models_diagram Pages: 1 -->
<svg width="768pt" height="472pt"
 viewBox="0.00 0.00 768.00 472.00" xmlns="http://www.w3.org/2000/svg" xmlns:xlink="http://www.w3.org/1999/xlink">
<g id="graph1" class="graph" transform="scale(1 1) rotate(0) translate(4 468)">
<title>models_diagram</title>
<polygon fill="white" stroke="white" points="-4,5 -4,-468 765,-468 765,5 -4,5"/>
<!-- _diagram_info -->
<g id="node1" class="node"><title>_diagram_info</title>
<text text-anchor="start" x="8" y="-447.8" font-family="Times Roman,serif" font-size="13.00">Models diagram</text>
<text text-anchor="start" x="8" y="-430.8" font-family="Times Roman,serif" font-size="13.00">Date: Apr 08 2013 &#45; 00:57</text>
<text text-anchor="start" x="8" y="-413.8" font-family="Times Roman,serif" font-size="13.00">Migration version: 20130408000305</text>
<text text-anchor="start" x="8" y="-396.8" font-family="Times Roman,serif" font-size="13.00">Generated by RailRoady 1.1.0</text>
<text text-anchor="start" x="8" y="-379.8" font-family="Times Roman,serif" font-size="13.00">http://railroady.prestonlee.com</text>
</g>
<!-- Company -->
<g id="node2" class="node"><title>Company</title>
<ellipse fill="none" stroke="black" cx="279" cy="-241" rx="56.7776" ry="18.3848"/>
<text text-anchor="middle" x="279" y="-237.4" font-family="Times Roman,serif" font-size="14.00">Company</text>
</g>
<!-- User -->
<g id="node11" class="node"><title>User</title>
<ellipse fill="none" stroke="black" cx="310" cy="-167" rx="33.9411" ry="18.3848"/>
<text text-anchor="middle" x="310" y="-163.4" font-family="Times Roman,serif" font-size="14.00">User</text>
</g>
<!-- Company&#45;&gt;User -->
<g id="edge4" class="edge"><title>Company&#45;&gt;User</title>
<path fill="none" stroke="#5c5997" d="M284.241,-212.788C286.617,-206.52 289.414,-199.895 292.308,-193.689"/>
<polygon fill="#5c5997" stroke="#5c5997" points="284.202,-212.898 276.627,-220.827 282.536,-217.612 280.87,-222.327 280.87,-222.327 280.87,-222.327 282.536,-217.612 285.113,-223.826 284.202,-212.898 284.202,-212.898"/>
<polygon fill="#5c5997" stroke="#5c5997" points="292.467,-193.367 300.924,-186.386 294.677,-188.882 296.887,-184.396 296.887,-184.396 296.887,-184.396 294.677,-188.882 292.85,-182.407 292.467,-193.367 292.467,-193.367"/>
</g>
<!-- Internship -->
<g id="node12" class="node"><title>Internship</title>
<ellipse fill="none" stroke="black" cx="188" cy="-93" rx="61.0181" ry="18.3848"/>
<text text-anchor="middle" x="188" y="-89.4" font-family="Times Roman,serif" font-size="14.00">Internship</text>
</g>
<!-- Company&#45;&gt;Internship -->
<g id="edge2" class="edge"><title>Company&#45;&gt;Internship</title>
<path fill="none" stroke="#b38daf" d="M266.302,-214.962C256.738,-195.987 242.931,-169.881 229,-148 222.844,-138.331 215.522,-128.159 208.781,-119.228"/>
<ellipse fill="none" stroke="#b38daf" cx="268.214" cy="-218.791" rx="4.00002" ry="4.00002"/>
<polygon fill="#b38daf" stroke="#b38daf" points="208.636,-119.039 206.124,-108.365 205.594,-115.071 202.552,-111.103 202.552,-111.103 202.552,-111.103 205.594,-115.071 198.981,-113.841 208.636,-119.039 208.636,-119.039"/>
</g>
<!-- InternshipsTask -->
<g id="node3" class="node"><title>InternshipsTask</title>
<ellipse fill="none" stroke="black" cx="479" cy="-417" rx="87.1802" ry="18.3848"/>
<text text-anchor="middle" x="479" y="-413.4" font-family="Times Roman,serif" font-size="14.00">InternshipsTask</text>
</g>
<!-- Contract -->
<g id="node4" class="node"><title>Contract</title>
<ellipse fill="none" stroke="black" cx="188" cy="-19" rx="53.9477" ry="18.3848"/>
<text text-anchor="middle" x="188" y="-15.4" font-family="Times Roman,serif" font-size="14.00">Contract</text>
</g>
<!-- Situation -->
<g id="node5" class="node"><title>Situation</title>
<ellipse fill="none" stroke="black" cx="80" cy="-167" rx="56.0679" ry="18.3848"/>
<text text-anchor="middle" x="80" y="-163.4" font-family="Times Roman,serif" font-size="14.00">Situation</text>
</g>
<!-- Situation&#45;&gt;Internship -->
<g id="edge6" class="edge"><title>Situation&#45;&gt;Internship</title>
<path fill="none" stroke="#634371" d="M111.346,-145.522C125.014,-136.157 141.048,-125.171 154.908,-115.674"/>
<ellipse fill="none" stroke="#634371" cx="107.807" cy="-147.947" rx="4.00002" ry="4.00002"/>
<polygon fill="#634371" stroke="#634371" points="154.967,-115.634 165.76,-113.694 159.092,-112.808 163.216,-109.981 163.216,-109.981 163.216,-109.981 159.092,-112.808 160.673,-106.269 154.967,-115.634 154.967,-115.634"/>
</g>
<!-- Study -->
<g id="node6" class="node"><title>Study</title>
<ellipse fill="none" stroke="black" cx="309" cy="-93" rx="39.8075" ry="18.3848"/>
<text text-anchor="middle" x="309" y="-89.4" font-family="Times Roman,serif" font-size="14.00">Study</text>
</g>
<!-- Task -->
<g id="node7" class="node"><title>Task</title>
<ellipse fill="none" stroke="black" cx="187" cy="-167" rx="33.234" ry="18.3848"/>
<text text-anchor="middle" x="187" y="-163.4" font-family="Times Roman,serif" font-size="14.00">Task</text>
</g>
<!-- Task&#45;&gt;Internship -->
<g id="edge8" class="edge"><title>Task&#45;&gt;Internship</title>
<path fill="none" stroke="#ed73c8" d="M187.388,-138.282C187.462,-132.836 187.539,-127.138 187.612,-121.693"/>
<polygon fill="#ed73c8" stroke="#ed73c8" points="187.388,-138.328 182.753,-148.266 187.32,-143.327 187.252,-148.327 187.252,-148.327 187.252,-148.327 187.32,-143.327 191.752,-148.388 187.388,-138.328 187.388,-138.328"/>
<polygon fill="#ed73c8" stroke="#ed73c8" points="187.613,-121.666 192.247,-111.728 187.68,-116.667 187.748,-111.667 187.748,-111.667 187.748,-111.667 187.68,-116.667 183.248,-111.607 187.613,-121.666 187.613,-121.666"/>
</g>
<!-- Job -->
<g id="node8" class="node"><title>Job</title>
<ellipse fill="none" stroke="black" cx="394" cy="-93" rx="27" ry="18.3848"/>
<text text-anchor="middle" x="394" y="-89.4" font-family="Times Roman,serif" font-size="14.00">Job</text>
</g>
<!-- Province -->
<g id="node9" class="node"><title>Province</title>
<ellipse fill="none" stroke="black" cx="321" cy="-417" rx="53.2379" ry="18.3848"/>
<text text-anchor="middle" x="321" y="-413.4" font-family="Times Roman,serif" font-size="14.00">Province</text>
</g>
<!-- Locality -->
<g id="node13" class="node"><title>Locality</title>
<ellipse fill="none" stroke="black" cx="321" cy="-315" rx="48.9975" ry="18.3848"/>
<text text-anchor="middle" x="321" y="-311.4" font-family="Times Roman,serif" font-size="14.00">Locality</text>
</g>
<!-- Province&#45;&gt;Locality -->
<g id="edge10" class="edge"><title>Province&#45;&gt;Locality</title>
<path fill="none" stroke="#696bd6" d="M321,-390.015C321,-375.835 321,-358.445 321,-343.98"/>
<ellipse fill="none" stroke="#696bd6" cx="321" cy="-394.292" rx="4" ry="4"/>
<polygon fill="#696bd6" stroke="#696bd6" points="321,-343.59 325.5,-333.59 321,-338.59 321,-333.59 321,-333.59 321,-333.59 321,-338.59 316.5,-333.59 321,-343.59 321,-343.59"/>
</g>
<!-- InternshipsUser -->
<g id="node10" class="node"><title>InternshipsUser</title>
<ellipse fill="none" stroke="black" cx="672" cy="-417" rx="87.889" ry="18.3848"/>
<text text-anchor="middle" x="672" y="-413.4" font-family="Times Roman,serif" font-size="14.00">InternshipsUser</text>
</g>
<!-- User&#45;&gt;Company -->
<g id="edge12" class="edge"><title>User&#45;&gt;Company</title>
<path fill="none" stroke="#b52955" d="M305.406,-193.486C303.005,-199.967 300.11,-206.917 297.093,-213.446"/>
<ellipse fill="none" stroke="#b52955" cx="306.839" cy="-189.373" rx="4.00001" ry="4.00001"/>
<polygon fill="#b52955" stroke="#b52955" points="296.96,-213.719 288.534,-220.736 294.77,-218.213 292.579,-222.708 292.579,-222.708 292.579,-222.708 294.77,-218.213 296.624,-224.68 296.96,-213.719 296.96,-213.719"/>
</g>
<!-- User&#45;&gt;Study -->
<g id="edge18" class="edge"><title>User&#45;&gt;Study</title>
<path fill="none" stroke="#e525e4" d="M309.639,-140.309C309.559,-134.377 309.474,-128.061 309.392,-122.04"/>
<ellipse fill="none" stroke="#e525e4" cx="309.694" cy="-144.327" rx="4" ry="4"/>
<polygon fill="#e525e4" stroke="#e525e4" points="309.387,-121.666 313.752,-111.607 309.32,-116.667 309.252,-111.667 309.252,-111.667 309.252,-111.667 309.32,-116.667 304.753,-111.728 309.387,-121.666 309.387,-121.666"/>
</g>
<!-- User&#45;&gt;Job -->
<g id="edge16" class="edge"><title>User&#45;&gt;Job</title>
<path fill="none" stroke="#620c5e" d="M334.306,-145.587C345.385,-135.827 358.474,-124.297 369.568,-114.523"/>
<ellipse fill="none" stroke="#620c5e" cx="331.228" cy="-148.299" rx="4.00002" ry="4.00002"/>
<polygon fill="#620c5e" stroke="#620c5e" points="369.733,-114.378 380.211,-111.145 373.484,-111.073 377.236,-107.768 377.236,-107.768 377.236,-107.768 373.484,-111.073 374.262,-104.391 369.733,-114.378 369.733,-114.378"/>
</g>
<!-- User&#45;&gt;Internship -->
<g id="edge14" class="edge"><title>User&#45;&gt;Internship</title>
<path fill="none" stroke="#505eaa" d="M278.249,-147.741C261.69,-137.697 241.364,-125.368 224.196,-114.955"/>
<polygon fill="#505eaa" stroke="#505eaa" points="278.503,-147.895 284.719,-156.929 282.778,-150.488 287.053,-153.081 287.053,-153.081 287.053,-153.081 282.778,-150.488 289.387,-149.234 278.503,-147.895 278.503,-147.895"/>
<polygon fill="#505eaa" stroke="#505eaa" points="224.093,-114.893 217.877,-105.859 219.818,-112.3 215.543,-109.707 215.543,-109.707 215.543,-109.707 219.818,-112.3 213.209,-113.554 224.093,-114.893 224.093,-114.893"/>
</g>
<!-- Internship&#45;&gt;Contract -->
<g id="edge20" class="edge"><title>Internship&#45;&gt;Contract</title>
<path fill="none" stroke="#a32e81" d="M188,-66.309C188,-60.3769 188,-54.0606 188,-48.0396"/>
<ellipse fill="none" stroke="#a32e81" cx="188" cy="-70.3267" rx="4" ry="4"/>
<polygon fill="#a32e81" stroke="#a32e81" points="188,-47.6674 192.5,-37.6673 188,-42.6674 188,-37.6674 188,-37.6674 188,-37.6674 188,-42.6674 183.5,-37.6674 188,-47.6674 188,-47.6674"/>
</g>
<!-- Locality&#45;&gt;Company -->
<g id="edge24" class="edge"><title>Locality&#45;&gt;Company</title>
<path fill="none" stroke="#76506f" d="M306.651,-289.718C302.406,-282.238 297.756,-274.047 293.502,-266.55"/>
<ellipse fill="none" stroke="#76506f" cx="308.644" cy="-293.229" rx="4.00002" ry="4.00002"/>
<ellipse fill="#76506f" stroke="#76506f" cx="291.383" cy="-262.817" rx="4.00002" ry="4.00002"/>
</g>
<!-- Locality&#45;&gt;User -->
<g id="edge22" class="edge"><title>Locality&#45;&gt;User</title>
<path fill="none" stroke="#262390" d="M335.18,-289.176C343.639,-270.448 351.568,-244.554 345,-222 341.772,-210.916 335.56,-199.933 329.255,-190.73"/>
<ellipse fill="none" stroke="#262390" cx="333.29" cy="-293.125" rx="4.00002" ry="4.00002"/>
<ellipse fill="#262390" stroke="#262390" cx="326.798" cy="-187.315" rx="4.00002" ry="4.00002"/>
</g>
</g>
</svg>
