<?xml version="1.0" encoding="UTF-8" standalone="no"?>
<!DOCTYPE svg PUBLIC "-//W3C//DTD SVG 1.1//EN"
 "http://www.w3.org/Graphics/SVG/1.1/DTD/svg11.dtd">
<!-- Generated by graphviz version 2.26.3 (20100126.1600)
 -->
<!-- Title: models_diagram Pages: 1 -->
<svg width="850pt" height="472pt"
 viewBox="0.00 0.00 850.00 472.00" xmlns="http://www.w3.org/2000/svg" xmlns:xlink="http://www.w3.org/1999/xlink">
<g id="graph1" class="graph" transform="scale(1 1) rotate(0) translate(4 468)">
<title>models_diagram</title>
<polygon fill="white" stroke="white" points="-4,5 -4,-468 847,-468 847,5 -4,5"/>
<!-- _diagram_info -->
<g id="node1" class="node"><title>_diagram_info</title>
<text text-anchor="start" x="8" y="-447.8" font-family="Times Roman,serif" font-size="13.00">Models diagram</text>
<text text-anchor="start" x="8" y="-430.8" font-family="Times Roman,serif" font-size="13.00">Date: May 12 2013 &#45; 19:07</text>
<text text-anchor="start" x="8" y="-413.8" font-family="Times Roman,serif" font-size="13.00">Migration version: 20130509000641</text>
<text text-anchor="start" x="8" y="-396.8" font-family="Times Roman,serif" font-size="13.00">Generated by RailRoady 1.1.0</text>
<text text-anchor="start" x="8" y="-379.8" font-family="Times Roman,serif" font-size="13.00">http://railroady.prestonlee.com</text>
</g>
<!-- Company -->
<g id="node2" class="node"><title>Company</title>
<ellipse fill="none" stroke="black" cx="279" cy="-241" rx="56.7776" ry="18.3848"/>
<text text-anchor="middle" x="279" y="-237.4" font-family="Times Roman,serif" font-size="14.00">Company</text>
</g>
<!-- User -->
<g id="node12" class="node"><title>User</title>
<ellipse fill="none" stroke="black" cx="353" cy="-167" rx="33.9411" ry="18.3848"/>
<text text-anchor="middle" x="353" y="-163.4" font-family="Times Roman,serif" font-size="14.00">User</text>
</g>
<!-- Company&#45;&gt;User -->
<g id="edge4" class="edge"><title>Company&#45;&gt;User</title>
<path fill="none" stroke="#439430" d="M304.04,-215.96C312.244,-207.756 321.326,-198.674 329.417,-190.583"/>
<polygon fill="#439430" stroke="#439430" points="303.984,-216.016 293.731,-219.905 300.449,-219.551 296.913,-223.087 296.913,-223.087 296.913,-223.087 300.449,-219.551 300.095,-226.269 303.984,-216.016 303.984,-216.016"/>
<polygon fill="#439430" stroke="#439430" points="329.446,-190.554 339.699,-186.665 332.981,-187.019 336.517,-183.483 336.517,-183.483 336.517,-183.483 332.981,-187.019 333.335,-180.301 329.446,-190.554 329.446,-190.554"/>
</g>
<!-- Internship -->
<g id="node13" class="node"><title>Internship</title>
<ellipse fill="none" stroke="black" cx="218" cy="-93" rx="61.0181" ry="18.3848"/>
<text text-anchor="middle" x="218" y="-89.4" font-family="Times Roman,serif" font-size="14.00">Internship</text>
</g>
<!-- Company&#45;&gt;Internship -->
<g id="edge2" class="edge"><title>Company&#45;&gt;Internship</title>
<path fill="none" stroke="#f19a07" d="M276.772,-214.412C274.415,-195.259 269.628,-169.169 260,-148 255.326,-137.723 248.424,-127.58 241.56,-118.858"/>
<ellipse fill="none" stroke="#f19a07" cx="277.222" cy="-218.446" rx="4.00001" ry="4.00001"/>
<polygon fill="#f19a07" stroke="#f19a07" points="241.423,-118.691 238.538,-108.111 238.244,-114.832 235.065,-110.972 235.065,-110.972 235.065,-110.972 238.244,-114.832 231.591,-113.833 241.423,-118.691 241.423,-118.691"/>
</g>
<!-- InternshipsTask -->
<g id="node3" class="node"><title>InternshipsTask</title>
<ellipse fill="none" stroke="black" cx="479" cy="-417" rx="87.1802" ry="18.3848"/>
<text text-anchor="middle" x="479" y="-413.4" font-family="Times Roman,serif" font-size="14.00">InternshipsTask</text>
</g>
<!-- Contract -->
<g id="node4" class="node"><title>Contract</title>
<ellipse fill="none" stroke="black" cx="262" cy="-19" rx="53.9477" ry="18.3848"/>
<text text-anchor="middle" x="262" y="-15.4" font-family="Times Roman,serif" font-size="14.00">Contract</text>
</g>
<!-- Situation -->
<g id="node5" class="node"><title>Situation</title>
<ellipse fill="none" stroke="black" cx="111" cy="-167" rx="56.0679" ry="18.3848"/>
<text text-anchor="middle" x="111" y="-163.4" font-family="Times Roman,serif" font-size="14.00">Situation</text>
</g>
<!-- Situation&#45;&gt;Internship -->
<g id="edge6" class="edge"><title>Situation&#45;&gt;Internship</title>
<path fill="none" stroke="#a28c8c" d="M142.056,-145.522C155.597,-136.157 171.482,-125.171 185.214,-115.674"/>
<ellipse fill="none" stroke="#a28c8c" cx="138.57" cy="-147.933" rx="4.00002" ry="4.00002"/>
<polygon fill="#a28c8c" stroke="#a28c8c" points="185.221,-115.67 196.005,-113.683 189.333,-112.826 193.446,-109.981 193.446,-109.981 193.446,-109.981 189.333,-112.826 190.886,-106.28 185.221,-115.67 185.221,-115.67"/>
</g>
<!-- Study -->
<g id="node6" class="node"><title>Study</title>
<ellipse fill="none" stroke="black" cx="375" cy="-93" rx="39.8075" ry="18.3848"/>
<text text-anchor="middle" x="375" y="-89.4" font-family="Times Roman,serif" font-size="14.00">Study</text>
</g>
<!-- Task -->
<g id="node7" class="node"><title>Task</title>
<ellipse fill="none" stroke="black" cx="218" cy="-167" rx="33.234" ry="18.3848"/>
<text text-anchor="middle" x="218" y="-163.4" font-family="Times Roman,serif" font-size="14.00">Task</text>
</g>
<!-- Task&#45;&gt;Internship -->
<g id="edge8" class="edge"><title>Task&#45;&gt;Internship</title>
<path fill="none" stroke="#0ab59b" d="M218,-138.282C218,-132.836 218,-127.138 218,-121.693"/>
<polygon fill="#0ab59b" stroke="#0ab59b" points="218,-138.327 213.5,-148.327 218,-143.327 218,-148.327 218,-148.327 218,-148.327 218,-143.327 222.5,-148.327 218,-138.327 218,-138.327"/>
<polygon fill="#0ab59b" stroke="#0ab59b" points="218,-121.667 222.5,-111.667 218,-116.667 218,-111.667 218,-111.667 218,-111.667 218,-116.667 213.5,-111.667 218,-121.667 218,-121.667"/>
</g>
<!-- Job -->
<g id="node8" class="node"><title>Job</title>
<ellipse fill="none" stroke="black" cx="460" cy="-93" rx="27" ry="18.3848"/>
<text text-anchor="middle" x="460" y="-89.4" font-family="Times Roman,serif" font-size="14.00">Job</text>
</g>
<!-- Province -->
<g id="node9" class="node"><title>Province</title>
<ellipse fill="none" stroke="black" cx="321" cy="-417" rx="53.2379" ry="18.3848"/>
<text text-anchor="middle" x="321" y="-413.4" font-family="Times Roman,serif" font-size="14.00">Province</text>
</g>
<!-- Locality -->
<g id="node14" class="node"><title>Locality</title>
<ellipse fill="none" stroke="black" cx="321" cy="-315" rx="48.9975" ry="18.3848"/>
<text text-anchor="middle" x="321" y="-311.4" font-family="Times Roman,serif" font-size="14.00">Locality</text>
</g>
<!-- Province&#45;&gt;Locality -->
<g id="edge10" class="edge"><title>Province&#45;&gt;Locality</title>
<path fill="none" stroke="#120614" d="M321,-390.015C321,-375.835 321,-358.445 321,-343.98"/>
<ellipse fill="none" stroke="#120614" cx="321" cy="-394.292" rx="4" ry="4"/>
<polygon fill="#120614" stroke="#120614" points="321,-343.59 325.5,-333.59 321,-338.59 321,-333.59 321,-333.59 321,-333.59 321,-338.59 316.5,-333.59 321,-343.59 321,-343.59"/>
</g>
<!-- InternshipsUser -->
<g id="node10" class="node"><title>InternshipsUser</title>
<ellipse fill="none" stroke="black" cx="672" cy="-417" rx="87.889" ry="18.3848"/>
<text text-anchor="middle" x="672" y="-413.4" font-family="Times Roman,serif" font-size="14.00">InternshipsUser</text>
</g>
<!-- Skill -->
<g id="node11" class="node"><title>Skill</title>
<ellipse fill="none" stroke="black" cx="810" cy="-417" rx="31.8198" ry="18.3848"/>
<text text-anchor="middle" x="810" y="-413.4" font-family="Times Roman,serif" font-size="14.00">Skill</text>
</g>
<!-- User&#45;&gt;Contract -->
<g id="edge18" class="edge"><title>User&#45;&gt;Contract</title>
<path fill="none" stroke="#2b8ac0" d="M337.856,-142.37C321.533,-115.822 295.624,-73.6856 278.715,-46.1852"/>
<ellipse fill="none" stroke="#2b8ac0" cx="340.109" cy="-146.034" rx="4.00002" ry="4.00002"/>
<polygon fill="#2b8ac0" stroke="#2b8ac0" points="278.59,-45.9823 277.186,-35.1067 275.972,-41.723 273.353,-37.4637 273.353,-37.4637 273.353,-37.4637 275.972,-41.723 269.519,-39.8207 278.59,-45.9823 278.59,-45.9823"/>
</g>
<!-- User&#45;&gt;Study -->
<g id="edge12" class="edge"><title>User&#45;&gt;Study</title>
<path fill="none" stroke="#74c70d" d="M360.776,-140.843C362.679,-134.444 364.722,-127.571 366.65,-121.085"/>
<ellipse fill="none" stroke="#74c70d" cx="359.578" cy="-144.874" rx="4.00001" ry="4.00001"/>
<polygon fill="#74c70d" stroke="#74c70d" points="366.698,-120.924 373.862,-112.621 368.123,-116.131 369.548,-111.338 369.548,-111.338 369.548,-111.338 368.123,-116.131 365.235,-110.056 366.698,-120.924 366.698,-120.924"/>
</g>
<!-- User&#45;&gt;Job -->
<g id="edge14" class="edge"><title>User&#45;&gt;Job</title>
<path fill="none" stroke="#6cb282" d="M380.796,-147.777C396.671,-136.798 416.508,-123.079 432.358,-112.117"/>
<ellipse fill="none" stroke="#6cb282" cx="377.43" cy="-150.105" rx="4.00002" ry="4.00002"/>
<polygon fill="#6cb282" stroke="#6cb282" points="432.478,-112.034 443.262,-110.047 436.59,-109.19 440.702,-106.346 440.702,-106.346 440.702,-106.346 436.59,-109.19 438.143,-102.645 432.478,-112.034 432.478,-112.034"/>
</g>
<!-- User&#45;&gt;Internship -->
<g id="edge16" class="edge"><title>User&#45;&gt;Internship</title>
<path fill="none" stroke="#bffeb0" d="M319.84,-148.823C300.664,-138.312 276.448,-125.038 256.442,-114.072"/>
<polygon fill="#bffeb0" stroke="#bffeb0" points="320.096,-148.964 326.702,-157.716 324.48,-151.367 328.865,-153.77 328.865,-153.77 328.865,-153.77 324.48,-151.367 331.028,-149.824 320.096,-148.964 320.096,-148.964"/>
<polygon fill="#bffeb0" stroke="#bffeb0" points="256.348,-114.021 249.742,-105.268 251.964,-111.617 247.579,-109.214 247.579,-109.214 247.579,-109.214 251.964,-111.617 245.416,-113.16 256.348,-114.021 256.348,-114.021"/>
</g>
<!-- Internship&#45;&gt;Contract -->
<g id="edge20" class="edge"><title>Internship&#45;&gt;Contract</title>
<path fill="none" stroke="#59140c" d="M233.033,-67.7178C237.202,-60.7059 241.743,-53.0678 245.967,-45.9638"/>
<ellipse fill="none" stroke="#59140c" cx="230.921" cy="-71.2697" rx="4.00002" ry="4.00002"/>
<polygon fill="#59140c" stroke="#59140c" points="245.985,-45.9335 254.964,-39.638 248.541,-41.6359 251.096,-37.3382 251.096,-37.3382 251.096,-37.3382 248.541,-41.6359 247.228,-35.0383 245.985,-45.9335 245.985,-45.9335"/>
</g>
<!-- Locality&#45;&gt;Company -->
<g id="edge24" class="edge"><title>Locality&#45;&gt;Company</title>
<path fill="none" stroke="#f9caf4" d="M306.651,-289.718C302.406,-282.238 297.756,-274.047 293.502,-266.55"/>
<ellipse fill="none" stroke="#f9caf4" cx="308.644" cy="-293.229" rx="4.00002" ry="4.00002"/>
<ellipse fill="#f9caf4" stroke="#f9caf4" cx="291.383" cy="-262.817" rx="4.00002" ry="4.00002"/>
</g>
<!-- Locality&#45;&gt;User -->
<g id="edge22" class="edge"><title>Locality&#45;&gt;User</title>
<path fill="none" stroke="#addd59" d="M334.215,-289.439C338.345,-280.368 342.476,-269.94 345,-260 350.533,-238.206 352.418,-212.717 352.985,-193.941"/>
<ellipse fill="none" stroke="#addd59" cx="332.492" cy="-293.082" rx="4.00002" ry="4.00002"/>
<ellipse fill="#addd59" stroke="#addd59" cx="353.074" cy="-189.823" rx="4" ry="4"/>
</g>
</g>
</svg>
