<?xml version="1.0" encoding="UTF-8" standalone="no"?>
<!DOCTYPE svg PUBLIC "-//W3C//DTD SVG 1.1//EN"
 "http://www.w3.org/Graphics/SVG/1.1/DTD/svg11.dtd">
<!-- Generated by graphviz version 2.26.3 (20100126.1600)
 -->
<!-- Title: models_diagram Pages: 1 -->
<svg width="850pt" height="472pt"
 viewBox="0.00 0.00 850.00 472.00" xmlns="http://www.w3.org/2000/svg" xmlns:xlink="http://www.w3.org/1999/xlink">
<g id="graph1" class="graph" transform="scale(1 1) rotate(0) translate(4 468)">
<title>models_diagram</title>
<polygon fill="white" stroke="white" points="-4,5 -4,-468 847,-468 847,5 -4,5"/>
<!-- _diagram_info -->
<g id="node1" class="node"><title>_diagram_info</title>
<text text-anchor="start" x="8" y="-447.8" font-family="Times Roman,serif" font-size="13.00">Models diagram</text>
<text text-anchor="start" x="8" y="-430.8" font-family="Times Roman,serif" font-size="13.00">Date: May 08 2013 &#45; 21:02</text>
<text text-anchor="start" x="8" y="-413.8" font-family="Times Roman,serif" font-size="13.00">Migration version: 20130415035859</text>
<text text-anchor="start" x="8" y="-396.8" font-family="Times Roman,serif" font-size="13.00">Generated by RailRoady 1.1.0</text>
<text text-anchor="start" x="8" y="-379.8" font-family="Times Roman,serif" font-size="13.00">http://railroady.prestonlee.com</text>
</g>
<!-- User -->
<g id="node2" class="node"><title>User</title>
<ellipse fill="none" stroke="black" cx="366" cy="-241" rx="33.9411" ry="18.3848"/>
<text text-anchor="middle" x="366" y="-237.4" font-family="Times Roman,serif" font-size="14.00">User</text>
</g>
<!-- Company -->
<g id="node3" class="node"><title>Company</title>
<ellipse fill="none" stroke="black" cx="254" cy="-167" rx="56.7776" ry="18.3848"/>
<text text-anchor="middle" x="254" y="-163.4" font-family="Times Roman,serif" font-size="14.00">Company</text>
</g>
<!-- User&#45;&gt;Company -->
<g id="edge6" class="edge"><title>User&#45;&gt;Company</title>
<path fill="none" stroke="#9695f4" d="M335.375,-220.766C320.668,-211.048 302.999,-199.374 287.889,-189.391"/>
<polygon fill="#9695f4" stroke="#9695f4" points="335.796,-221.044 341.659,-230.311 339.968,-223.8 344.139,-226.556 344.139,-226.556 344.139,-226.556 339.968,-223.8 346.62,-222.802 335.796,-221.044 335.796,-221.044"/>
<polygon fill="#9695f4" stroke="#9695f4" points="287.673,-189.248 281.81,-179.981 283.501,-186.492 279.329,-183.735 279.329,-183.735 279.329,-183.735 283.501,-186.492 276.849,-187.49 287.673,-189.248 287.673,-189.248"/>
</g>
<!-- Contract -->
<g id="node4" class="node"><title>Contract</title>
<ellipse fill="none" stroke="black" cx="425" cy="-19" rx="53.9477" ry="18.3848"/>
<text text-anchor="middle" x="425" y="-15.4" font-family="Times Roman,serif" font-size="14.00">Contract</text>
</g>
<!-- User&#45;&gt;Contract -->
<g id="edge8" class="edge"><title>User&#45;&gt;Contract</title>
<path fill="none" stroke="#ef9fe3" d="M396.473,-223.25C409.35,-213.956 422.972,-201.306 430,-186 450.621,-141.089 441.58,-81.9882 433.225,-47.4773"/>
<ellipse fill="none" stroke="#ef9fe3" cx="393.144" cy="-225.536" rx="4.00002" ry="4.00002"/>
<polygon fill="#ef9fe3" stroke="#ef9fe3" points="433.175,-47.285 435.046,-36.4798 431.931,-42.4422 430.687,-37.5994 430.687,-37.5994 430.687,-37.5994 431.931,-42.4422 426.329,-38.719 433.175,-47.285 433.175,-47.285"/>
</g>
<!-- Study -->
<g id="node5" class="node"><title>Study</title>
<ellipse fill="none" stroke="black" cx="517" cy="-167" rx="39.8075" ry="18.3848"/>
<text text-anchor="middle" x="517" y="-163.4" font-family="Times Roman,serif" font-size="14.00">Study</text>
</g>
<!-- User&#45;&gt;Study -->
<g id="edge10" class="edge"><title>User&#45;&gt;Study</title>
<path fill="none" stroke="#e5415b" d="M398.596,-225.026C422.596,-213.264 455.253,-197.26 480.192,-185.038"/>
<ellipse fill="none" stroke="#e5415b" cx="394.866" cy="-226.854" rx="4.00002" ry="4.00002"/>
<polygon fill="#e5415b" stroke="#e5415b" points="480.358,-184.957 491.318,-184.597 484.848,-182.757 489.338,-180.556 489.338,-180.556 489.338,-180.556 484.848,-182.757 487.358,-176.515 480.358,-184.957 480.358,-184.957"/>
</g>
<!-- Internship -->
<g id="node8" class="node"><title>Internship</title>
<ellipse fill="none" stroke="black" cx="296" cy="-93" rx="61.0181" ry="18.3848"/>
<text text-anchor="middle" x="296" y="-89.4" font-family="Times Roman,serif" font-size="14.00">Internship</text>
</g>
<!-- User&#45;&gt;Internship -->
<g id="edge4" class="edge"><title>User&#45;&gt;Internship</title>
<path fill="none" stroke="#72e2e3" d="M352.991,-213.495C340.504,-187.095 321.741,-147.423 309.193,-120.894"/>
<polygon fill="#72e2e3" stroke="#72e2e3" points="353.141,-213.812 353.349,-224.776 355.279,-218.332 357.417,-222.852 357.417,-222.852 357.417,-222.852 355.279,-218.332 361.485,-220.928 353.141,-213.812 353.141,-213.812"/>
<polygon fill="#72e2e3" stroke="#72e2e3" points="309.15,-120.803 308.942,-109.839 307.012,-116.283 304.874,-111.763 304.874,-111.763 304.874,-111.763 307.012,-116.283 300.806,-113.687 309.15,-120.803 309.15,-120.803"/>
</g>
<!-- Job -->
<g id="node12" class="node"><title>Job</title>
<ellipse fill="none" stroke="black" cx="394" cy="-167" rx="27" ry="18.3848"/>
<text text-anchor="middle" x="394" y="-163.4" font-family="Times Roman,serif" font-size="14.00">Job</text>
</g>
<!-- User&#45;&gt;Job -->
<g id="edge2" class="edge"><title>User&#45;&gt;Job</title>
<path fill="none" stroke="#f01f7b" d="M375.809,-215.076C378.327,-208.422 381.044,-201.241 383.591,-194.509"/>
<ellipse fill="none" stroke="#f01f7b" cx="374.337" cy="-218.967" rx="4.00001" ry="4.00001"/>
<polygon fill="#f01f7b" stroke="#f01f7b" points="383.619,-194.435 391.367,-186.674 385.389,-189.758 387.158,-185.082 387.158,-185.082 387.158,-185.082 385.389,-189.758 382.949,-183.489 383.619,-194.435 383.619,-194.435"/>
</g>
<!-- Company&#45;&gt;Internship -->
<g id="edge12" class="edge"><title>Company&#45;&gt;Internship</title>
<path fill="none" stroke="#206f74" d="M268.349,-141.718C272.241,-134.862 276.472,-127.407 280.427,-120.438"/>
<ellipse fill="none" stroke="#206f74" cx="266.356" cy="-145.229" rx="4.00002" ry="4.00002"/>
<polygon fill="#206f74" stroke="#206f74" points="280.656,-120.035 289.505,-113.559 283.124,-115.687 285.592,-111.338 285.592,-111.338 285.592,-111.338 283.124,-115.687 281.678,-109.117 280.656,-120.035 280.656,-120.035"/>
</g>
<!-- InternshipsUser -->
<g id="node6" class="node"><title>InternshipsUser</title>
<ellipse fill="none" stroke="black" cx="480" cy="-417" rx="87.889" ry="18.3848"/>
<text text-anchor="middle" x="480" y="-413.4" font-family="Times Roman,serif" font-size="14.00">InternshipsUser</text>
</g>
<!-- Province -->
<g id="node7" class="node"><title>Province</title>
<ellipse fill="none" stroke="black" cx="321" cy="-417" rx="53.2379" ry="18.3848"/>
<text text-anchor="middle" x="321" y="-413.4" font-family="Times Roman,serif" font-size="14.00">Province</text>
</g>
<!-- Locality -->
<g id="node11" class="node"><title>Locality</title>
<ellipse fill="none" stroke="black" cx="321" cy="-315" rx="48.9975" ry="18.3848"/>
<text text-anchor="middle" x="321" y="-311.4" font-family="Times Roman,serif" font-size="14.00">Locality</text>
</g>
<!-- Province&#45;&gt;Locality -->
<g id="edge14" class="edge"><title>Province&#45;&gt;Locality</title>
<path fill="none" stroke="#f6b2d7" d="M321,-390.015C321,-375.835 321,-358.445 321,-343.98"/>
<ellipse fill="none" stroke="#f6b2d7" cx="321" cy="-394.292" rx="4" ry="4"/>
<polygon fill="#f6b2d7" stroke="#f6b2d7" points="321,-343.59 325.5,-333.59 321,-338.59 321,-333.59 321,-333.59 321,-333.59 321,-338.59 316.5,-333.59 321,-343.59 321,-343.59"/>
</g>
<!-- Internship&#45;&gt;Contract -->
<g id="edge16" class="edge"><title>Internship&#45;&gt;Contract</title>
<path fill="none" stroke="#777504" d="M331.683,-72.5309C349.202,-62.4809 370.293,-50.3826 387.988,-40.2319"/>
<ellipse fill="none" stroke="#777504" cx="328.099" cy="-74.5866" rx="4.00002" ry="4.00002"/>
<polygon fill="#777504" stroke="#777504" points="388.22,-40.0984 399.134,-39.0259 392.558,-37.6104 396.895,-35.1225 396.895,-35.1225 396.895,-35.1225 392.558,-37.6104 394.655,-31.2191 388.22,-40.0984 388.22,-40.0984"/>
</g>
<!-- Task -->
<g id="node9" class="node"><title>Task</title>
<ellipse fill="none" stroke="black" cx="296" cy="-19" rx="33.234" ry="18.3848"/>
<text text-anchor="middle" x="296" y="-15.4" font-family="Times Roman,serif" font-size="14.00">Task</text>
</g>
<!-- Internship&#45;&gt;Task -->
<g id="edge18" class="edge"><title>Internship&#45;&gt;Task</title>
<path fill="none" stroke="#3d2827" d="M296,-64.2819C296,-58.8362 296,-53.1382 296,-47.6933"/>
<polygon fill="#3d2827" stroke="#3d2827" points="296,-64.3267 291.5,-74.3266 296,-69.3267 296,-74.3267 296,-74.3267 296,-74.3267 296,-69.3267 300.5,-74.3267 296,-64.3267 296,-64.3267"/>
<polygon fill="#3d2827" stroke="#3d2827" points="296,-47.6674 300.5,-37.6673 296,-42.6674 296,-37.6674 296,-37.6674 296,-37.6674 296,-42.6674 291.5,-37.6674 296,-47.6674 296,-47.6674"/>
</g>
<!-- Situation -->
<g id="node10" class="node"><title>Situation</title>
<ellipse fill="none" stroke="black" cx="123" cy="-167" rx="56.0679" ry="18.3848"/>
<text text-anchor="middle" x="123" y="-163.4" font-family="Times Roman,serif" font-size="14.00">Situation</text>
</g>
<!-- Situation&#45;&gt;Internship -->
<g id="edge20" class="edge"><title>Situation&#45;&gt;Internship</title>
<path fill="none" stroke="#976b2f" d="M165.196,-148.951C191.239,-137.811 224.62,-123.533 251.141,-112.188"/>
<ellipse fill="none" stroke="#976b2f" cx="161.271" cy="-150.63" rx="4.00002" ry="4.00002"/>
<polygon fill="#976b2f" stroke="#976b2f" points="251.382,-112.085 262.346,-112.29 255.979,-110.119 260.576,-108.153 260.576,-108.153 260.576,-108.153 255.979,-110.119 258.806,-104.015 251.382,-112.085 251.382,-112.085"/>
</g>
<!-- Locality&#45;&gt;User -->
<g id="edge24" class="edge"><title>Locality&#45;&gt;User</title>
<path fill="none" stroke="#6ab88e" d="M336.293,-289.851C341.082,-281.977 346.357,-273.302 351.117,-265.475"/>
<ellipse fill="none" stroke="#6ab88e" cx="334.202" cy="-293.29" rx="4.00002" ry="4.00002"/>
<ellipse fill="#6ab88e" stroke="#6ab88e" cx="353.236" cy="-261.99" rx="4.00002" ry="4.00002"/>
</g>
<!-- Locality&#45;&gt;Company -->
<g id="edge22" class="edge"><title>Locality&#45;&gt;Company</title>
<path fill="none" stroke="#6d2dec" d="M309.269,-289.086C297.08,-262.162 278.11,-220.258 265.87,-193.221"/>
<ellipse fill="none" stroke="#6d2dec" cx="311" cy="-292.911" rx="4.00002" ry="4.00002"/>
<ellipse fill="#6d2dec" stroke="#6d2dec" cx="264.105" cy="-189.322" rx="4.00002" ry="4.00002"/>
</g>
<!-- Skill -->
<g id="node13" class="node"><title>Skill</title>
<ellipse fill="none" stroke="black" cx="618" cy="-417" rx="31.8198" ry="18.3848"/>
<text text-anchor="middle" x="618" y="-413.4" font-family="Times Roman,serif" font-size="14.00">Skill</text>
</g>
<!-- InternshipsTask -->
<g id="node14" class="node"><title>InternshipsTask</title>
<ellipse fill="none" stroke="black" cx="755" cy="-417" rx="87.1802" ry="18.3848"/>
<text text-anchor="middle" x="755" y="-413.4" font-family="Times Roman,serif" font-size="14.00">InternshipsTask</text>
</g>
</g>
</svg>
