<?xml version="1.0" encoding="UTF-8" standalone="no"?>
<!DOCTYPE svg PUBLIC "-//W3C//DTD SVG 1.1//EN"
 "http://www.w3.org/Graphics/SVG/1.1/DTD/svg11.dtd">
<!-- Generated by graphviz version 2.26.3 (20100126.1600)
 -->
<!-- Title: models_diagram Pages: 1 -->
<svg width="962pt" height="1322pt"
 viewBox="0.00 0.00 962.00 1322.00" xmlns="http://www.w3.org/2000/svg" xmlns:xlink="http://www.w3.org/1999/xlink">
<g id="graph1" class="graph" transform="scale(1 1) rotate(0) translate(4 1318)">
<title>models_diagram</title>
<polygon fill="white" stroke="white" points="-4,5 -4,-1318 959,-1318 959,5 -4,5"/>
<!-- _diagram_info -->
<g id="node1" class="node"><title>_diagram_info</title>
<text text-anchor="start" x="166" y="-1290.8" font-family="Times Roman,serif" font-size="13.00">Models diagram</text>
<text text-anchor="start" x="166" y="-1273.8" font-family="Times Roman,serif" font-size="13.00">Date: Feb 24 2013 &#45; 18:48</text>
<text text-anchor="start" x="166" y="-1256.8" font-family="Times Roman,serif" font-size="13.00">Migration version: 20130224213735</text>
<text text-anchor="start" x="166" y="-1239.8" font-family="Times Roman,serif" font-size="13.00">Generated by RailRoady 1.1.0</text>
<text text-anchor="start" x="166" y="-1222.8" font-family="Times Roman,serif" font-size="13.00">http://railroady.prestonlee.com</text>
</g>
<!-- Company -->
<g id="node2" class="node"><title>Company</title>
<polyline fill="none" stroke="black" points="492.5,-775 633.5,-775 "/>
<path fill="none" stroke="black" d="M633.5,-775C639.5,-775 645.5,-781 645.5,-787"/>
<polyline fill="none" stroke="black" points="645.5,-787 645.5,-995 "/>
<path fill="none" stroke="black" d="M645.5,-995C645.5,-1001 639.5,-1007 633.5,-1007"/>
<polyline fill="none" stroke="black" points="633.5,-1007 492.5,-1007 "/>
<path fill="none" stroke="black" d="M492.5,-1007C486.5,-1007 480.5,-1001 480.5,-995"/>
<polyline fill="none" stroke="black" points="480.5,-995 480.5,-787 "/>
<path fill="none" stroke="black" d="M480.5,-787C480.5,-781 486.5,-775 492.5,-775"/>
<text text-anchor="middle" x="563" y="-990.4" font-family="Times Roman,serif" font-size="14.00">Company</text>
<polyline fill="none" stroke="black" points="480.5,-981 645.5,-981 "/>
<text text-anchor="start" x="488.5" y="-964.4" font-family="Times Roman,serif" font-size="14.00">id :integer</text>
<text text-anchor="start" x="488.5" y="-946.4" font-family="Times Roman,serif" font-size="14.00">name :string</text>
<text text-anchor="start" x="488.5" y="-928.4" font-family="Times Roman,serif" font-size="14.00">address :string</text>
<text text-anchor="start" x="488.5" y="-910.4" font-family="Times Roman,serif" font-size="14.00">locality_id :integer</text>
<text text-anchor="start" x="488.5" y="-892.4" font-family="Times Roman,serif" font-size="14.00">manager :string</text>
<text text-anchor="start" x="488.5" y="-874.4" font-family="Times Roman,serif" font-size="14.00">boss :string</text>
<text text-anchor="start" x="488.5" y="-856.4" font-family="Times Roman,serif" font-size="14.00">created_at :datetime</text>
<text text-anchor="start" x="488.5" y="-838.4" font-family="Times Roman,serif" font-size="14.00">updated_at :datetime</text>
<text text-anchor="start" x="488.5" y="-820.4" font-family="Times Roman,serif" font-size="14.00">boss_dni :string</text>
<text text-anchor="start" x="488.5" y="-802.4" font-family="Times Roman,serif" font-size="14.00">manager_cuil :string</text>
<text text-anchor="start" x="488.5" y="-784.4" font-family="Times Roman,serif" font-size="14.00">position :string</text>
</g>
<!-- User -->
<g id="node9" class="node"><title>User</title>
<polyline fill="none" stroke="black" points="375.5,-487 530.5,-487 "/>
<path fill="none" stroke="black" d="M530.5,-487C536.5,-487 542.5,-493 542.5,-499"/>
<polyline fill="none" stroke="black" points="542.5,-499 542.5,-725 "/>
<path fill="none" stroke="black" d="M542.5,-725C542.5,-731 536.5,-737 530.5,-737"/>
<polyline fill="none" stroke="black" points="530.5,-737 375.5,-737 "/>
<path fill="none" stroke="black" d="M375.5,-737C369.5,-737 363.5,-731 363.5,-725"/>
<polyline fill="none" stroke="black" points="363.5,-725 363.5,-499 "/>
<path fill="none" stroke="black" d="M363.5,-499C363.5,-493 369.5,-487 375.5,-487"/>
<text text-anchor="middle" x="453" y="-720.4" font-family="Times Roman,serif" font-size="14.00">User</text>
<polyline fill="none" stroke="black" points="363.5,-711 542.5,-711 "/>
<text text-anchor="start" x="371.5" y="-694.4" font-family="Times Roman,serif" font-size="14.00">id :integer</text>
<text text-anchor="start" x="371.5" y="-676.4" font-family="Times Roman,serif" font-size="14.00">name :string</text>
<text text-anchor="start" x="371.5" y="-658.4" font-family="Times Roman,serif" font-size="14.00">surname :string</text>
<text text-anchor="start" x="371.5" y="-640.4" font-family="Times Roman,serif" font-size="14.00">dni :string</text>
<text text-anchor="start" x="371.5" y="-622.4" font-family="Times Roman,serif" font-size="14.00">locality_id :integer</text>
<text text-anchor="start" x="371.5" y="-604.4" font-family="Times Roman,serif" font-size="14.00">password_digest :string</text>
<text text-anchor="start" x="371.5" y="-586.4" font-family="Times Roman,serif" font-size="14.00">created_at :datetime</text>
<text text-anchor="start" x="371.5" y="-568.4" font-family="Times Roman,serif" font-size="14.00">updated_at :datetime</text>
<text text-anchor="start" x="371.5" y="-550.4" font-family="Times Roman,serif" font-size="14.00">email :string</text>
<text text-anchor="start" x="371.5" y="-532.4" font-family="Times Roman,serif" font-size="14.00">admin :boolean</text>
<text text-anchor="start" x="371.5" y="-514.4" font-family="Times Roman,serif" font-size="14.00">cuil :string</text>
<text text-anchor="start" x="371.5" y="-496.4" font-family="Times Roman,serif" font-size="14.00">address :string</text>
</g>
<!-- Company&#45;&gt;User -->
<g id="edge4" class="edge"><title>Company&#45;&gt;User</title>
<path fill="none" stroke="#9c09c5" d="M513.461,-765.351C511.033,-759.193 508.591,-752.999 506.154,-746.817"/>
<polygon fill="#9c09c5" stroke="#9c09c5" points="513.479,-765.396 512.96,-776.35 515.313,-770.048 517.147,-774.699 517.147,-774.699 517.147,-774.699 515.313,-770.048 521.333,-773.049 513.479,-765.396 513.479,-765.396"/>
<polygon fill="#9c09c5" stroke="#9c09c5" points="505.999,-746.423 506.517,-735.47 504.165,-741.772 502.331,-737.12 502.331,-737.12 502.331,-737.12 504.165,-741.772 498.144,-738.771 505.999,-746.423 505.999,-746.423"/>
</g>
<!-- Internship -->
<g id="node10" class="node"><title>Internship</title>
<polyline fill="none" stroke="black" points="282,-127 434,-127 "/>
<path fill="none" stroke="black" d="M434,-127C440,-127 446,-133 446,-139"/>
<polyline fill="none" stroke="black" points="446,-139 446,-437 "/>
<path fill="none" stroke="black" d="M446,-437C446,-443 440,-449 434,-449"/>
<polyline fill="none" stroke="black" points="434,-449 282,-449 "/>
<path fill="none" stroke="black" d="M282,-449C276,-449 270,-443 270,-437"/>
<polyline fill="none" stroke="black" points="270,-437 270,-139 "/>
<path fill="none" stroke="black" d="M270,-139C270,-133 276,-127 282,-127"/>
<text text-anchor="middle" x="358" y="-432.4" font-family="Times Roman,serif" font-size="14.00">Internship</text>
<polyline fill="none" stroke="black" points="270,-423 446,-423 "/>
<text text-anchor="start" x="278" y="-406.4" font-family="Times Roman,serif" font-size="14.00">id :integer</text>
<text text-anchor="start" x="278" y="-388.4" font-family="Times Roman,serif" font-size="14.00">company_id :integer</text>
<text text-anchor="start" x="278" y="-370.4" font-family="Times Roman,serif" font-size="14.00">description_job :string</text>
<text text-anchor="start" x="278" y="-352.4" font-family="Times Roman,serif" font-size="14.00">situation_id :integer</text>
<text text-anchor="start" x="278" y="-334.4" font-family="Times Roman,serif" font-size="14.00">date_from :date</text>
<text text-anchor="start" x="278" y="-316.4" font-family="Times Roman,serif" font-size="14.00">date_until :date</text>
<text text-anchor="start" x="278" y="-298.4" font-family="Times Roman,serif" font-size="14.00">hs_monday :integer</text>
<text text-anchor="start" x="278" y="-280.4" font-family="Times Roman,serif" font-size="14.00">hs_tuesday :integer</text>
<text text-anchor="start" x="278" y="-262.4" font-family="Times Roman,serif" font-size="14.00">hs_wednesday :integer</text>
<text text-anchor="start" x="278" y="-244.4" font-family="Times Roman,serif" font-size="14.00">hs_thursday :integer</text>
<text text-anchor="start" x="278" y="-226.4" font-family="Times Roman,serif" font-size="14.00">hs_friday :integer</text>
<text text-anchor="start" x="278" y="-208.4" font-family="Times Roman,serif" font-size="14.00">hs_saturday :integer</text>
<text text-anchor="start" x="278" y="-190.4" font-family="Times Roman,serif" font-size="14.00">hs_sunday :integer</text>
<text text-anchor="start" x="278" y="-172.4" font-family="Times Roman,serif" font-size="14.00">created_at :datetime</text>
<text text-anchor="start" x="278" y="-154.4" font-family="Times Roman,serif" font-size="14.00">updated_at :datetime</text>
<text text-anchor="start" x="278" y="-136.4" font-family="Times Roman,serif" font-size="14.00">napplicants :integer</text>
</g>
<!-- Company&#45;&gt;Internship -->
<g id="edge2" class="edge"><title>Company&#45;&gt;Internship</title>
<path fill="none" stroke="#d86cf4" d="M582.072,-766.786C589.415,-683.988 588.544,-574.526 551,-486 530.178,-436.904 491.082,-393.132 453.493,-359.308"/>
<ellipse fill="none" stroke="#d86cf4" cx="581.682" cy="-770.984" rx="4" ry="4"/>
<polygon fill="#d86cf4" stroke="#d86cf4" points="453.49,-359.305 448.984,-349.308 449.746,-355.992 446.001,-352.678 446.001,-352.678 446.001,-352.678 449.746,-355.992 443.019,-356.048 453.49,-359.305 453.49,-359.305"/>
</g>
<!-- InternshipsTask -->
<g id="node3" class="node"><title>InternshipsTask</title>
<polyline fill="none" stroke="black" points="620,-1216 760,-1216 "/>
<path fill="none" stroke="black" d="M760,-1216C766,-1216 772,-1222 772,-1228"/>
<polyline fill="none" stroke="black" points="772,-1228 772,-1292 "/>
<path fill="none" stroke="black" d="M772,-1292C772,-1298 766,-1304 760,-1304"/>
<polyline fill="none" stroke="black" points="760,-1304 620,-1304 "/>
<path fill="none" stroke="black" d="M620,-1304C614,-1304 608,-1298 608,-1292"/>
<polyline fill="none" stroke="black" points="608,-1292 608,-1228 "/>
<path fill="none" stroke="black" d="M608,-1228C608,-1222 614,-1216 620,-1216"/>
<text text-anchor="middle" x="690" y="-1287.4" font-family="Times Roman,serif" font-size="14.00">InternshipsTask</text>
<polyline fill="none" stroke="black" points="608,-1278 772,-1278 "/>
<text text-anchor="start" x="616" y="-1261.4" font-family="Times Roman,serif" font-size="14.00">id :integer</text>
<text text-anchor="start" x="616" y="-1243.4" font-family="Times Roman,serif" font-size="14.00">internship_id :integer</text>
<text text-anchor="start" x="616" y="-1225.4" font-family="Times Roman,serif" font-size="14.00">task_id :integer</text>
</g>
<!-- Contract -->
<g id="node4" class="node"><title>Contract</title>
<polyline fill="none" stroke="black" points="288,-1 428,-1 "/>
<path fill="none" stroke="black" d="M428,-1C434,-1 440,-7 440,-13"/>
<polyline fill="none" stroke="black" points="440,-13 440,-77 "/>
<path fill="none" stroke="black" d="M440,-77C440,-83 434,-89 428,-89"/>
<polyline fill="none" stroke="black" points="428,-89 288,-89 "/>
<path fill="none" stroke="black" d="M288,-89C282,-89 276,-83 276,-77"/>
<polyline fill="none" stroke="black" points="276,-77 276,-13 "/>
<path fill="none" stroke="black" d="M276,-13C276,-7 282,-1 288,-1"/>
<text text-anchor="middle" x="358" y="-72.4" font-family="Times Roman,serif" font-size="14.00">Contract</text>
<polyline fill="none" stroke="black" points="276,-63 440,-63 "/>
<text text-anchor="start" x="284" y="-46.4" font-family="Times Roman,serif" font-size="14.00">id :integer</text>
<text text-anchor="start" x="284" y="-28.4" font-family="Times Roman,serif" font-size="14.00">user_id :integer</text>
<text text-anchor="start" x="284" y="-10.4" font-family="Times Roman,serif" font-size="14.00">internship_id :integer</text>
</g>
<!-- Situation -->
<g id="node5" class="node"><title>Situation</title>
<polyline fill="none" stroke="black" points="11.5,-559 152.5,-559 "/>
<path fill="none" stroke="black" d="M152.5,-559C158.5,-559 164.5,-565 164.5,-571"/>
<polyline fill="none" stroke="black" points="164.5,-571 164.5,-653 "/>
<path fill="none" stroke="black" d="M164.5,-653C164.5,-659 158.5,-665 152.5,-665"/>
<polyline fill="none" stroke="black" points="152.5,-665 11.5,-665 "/>
<path fill="none" stroke="black" d="M11.5,-665C5.5,-665 -0.5,-659 -0.5,-653"/>
<polyline fill="none" stroke="black" points="-0.5,-653 -0.5,-571 "/>
<path fill="none" stroke="black" d="M-0.5,-571C-0.5,-565 5.5,-559 11.5,-559"/>
<text text-anchor="middle" x="82" y="-648.4" font-family="Times Roman,serif" font-size="14.00">Situation</text>
<polyline fill="none" stroke="black" points="-0.5,-639 164.5,-639 "/>
<text text-anchor="start" x="7.5" y="-622.4" font-family="Times Roman,serif" font-size="14.00">id :integer</text>
<text text-anchor="start" x="7.5" y="-604.4" font-family="Times Roman,serif" font-size="14.00">status :string</text>
<text text-anchor="start" x="7.5" y="-586.4" font-family="Times Roman,serif" font-size="14.00">created_at :datetime</text>
<text text-anchor="start" x="7.5" y="-568.4" font-family="Times Roman,serif" font-size="14.00">updated_at :datetime</text>
</g>
<!-- Situation&#45;&gt;Internship -->
<g id="edge6" class="edge"><title>Situation&#45;&gt;Internship</title>
<path fill="none" stroke="#1484ee" d="M122.823,-552.249C138.01,-530.904 155.754,-506.961 173,-486 200.949,-452.031 233.161,-416.462 262.794,-384.993"/>
<ellipse fill="none" stroke="#1484ee" cx="120.507" cy="-555.519" rx="4.00002" ry="4.00002"/>
<polygon fill="#1484ee" stroke="#1484ee" points="263,-384.775 273.139,-380.597 266.434,-381.141 269.868,-377.507 269.868,-377.507 269.868,-377.507 266.434,-381.141 266.597,-374.416 263,-384.775 263,-384.775"/>
</g>
<!-- Task -->
<g id="node6" class="node"><title>Task</title>
<polyline fill="none" stroke="black" points="193.5,-559 334.5,-559 "/>
<path fill="none" stroke="black" d="M334.5,-559C340.5,-559 346.5,-565 346.5,-571"/>
<polyline fill="none" stroke="black" points="346.5,-571 346.5,-653 "/>
<path fill="none" stroke="black" d="M346.5,-653C346.5,-659 340.5,-665 334.5,-665"/>
<polyline fill="none" stroke="black" points="334.5,-665 193.5,-665 "/>
<path fill="none" stroke="black" d="M193.5,-665C187.5,-665 181.5,-659 181.5,-653"/>
<polyline fill="none" stroke="black" points="181.5,-653 181.5,-571 "/>
<path fill="none" stroke="black" d="M181.5,-571C181.5,-565 187.5,-559 193.5,-559"/>
<text text-anchor="middle" x="264" y="-648.4" font-family="Times Roman,serif" font-size="14.00">Task</text>
<polyline fill="none" stroke="black" points="181.5,-639 346.5,-639 "/>
<text text-anchor="start" x="189.5" y="-622.4" font-family="Times Roman,serif" font-size="14.00">id :integer</text>
<text text-anchor="start" x="189.5" y="-604.4" font-family="Times Roman,serif" font-size="14.00">description :string</text>
<text text-anchor="start" x="189.5" y="-586.4" font-family="Times Roman,serif" font-size="14.00">created_at :datetime</text>
<text text-anchor="start" x="189.5" y="-568.4" font-family="Times Roman,serif" font-size="14.00">updated_at :datetime</text>
</g>
<!-- Task&#45;&gt;Internship -->
<g id="edge8" class="edge"><title>Task&#45;&gt;Internship</title>
<path fill="none" stroke="#3411f8" d="M282.282,-548.986C289.839,-522.937 299.003,-491.35 308.308,-459.277"/>
<polygon fill="#3411f8" stroke="#3411f8" points="282.203,-549.257 275.095,-557.607 280.81,-554.059 279.417,-558.861 279.417,-558.861 279.417,-558.861 280.81,-554.059 283.739,-560.115 282.203,-549.257 282.203,-549.257"/>
<polygon fill="#3411f8" stroke="#3411f8" points="308.413,-458.918 315.521,-450.567 309.806,-454.116 311.199,-449.314 311.199,-449.314 311.199,-449.314 309.806,-454.116 306.877,-448.06 308.413,-458.918 308.413,-458.918"/>
</g>
<!-- Province -->
<g id="node7" class="node"><title>Province</title>
<polyline fill="none" stroke="black" points="437.5,-1207 578.5,-1207 "/>
<path fill="none" stroke="black" d="M578.5,-1207C584.5,-1207 590.5,-1213 590.5,-1219"/>
<polyline fill="none" stroke="black" points="590.5,-1219 590.5,-1301 "/>
<path fill="none" stroke="black" d="M590.5,-1301C590.5,-1307 584.5,-1313 578.5,-1313"/>
<polyline fill="none" stroke="black" points="578.5,-1313 437.5,-1313 "/>
<path fill="none" stroke="black" d="M437.5,-1313C431.5,-1313 425.5,-1307 425.5,-1301"/>
<polyline fill="none" stroke="black" points="425.5,-1301 425.5,-1219 "/>
<path fill="none" stroke="black" d="M425.5,-1219C425.5,-1213 431.5,-1207 437.5,-1207"/>
<text text-anchor="middle" x="508" y="-1296.4" font-family="Times Roman,serif" font-size="14.00">Province</text>
<polyline fill="none" stroke="black" points="425.5,-1287 590.5,-1287 "/>
<text text-anchor="start" x="433.5" y="-1270.4" font-family="Times Roman,serif" font-size="14.00">id :integer</text>
<text text-anchor="start" x="433.5" y="-1252.4" font-family="Times Roman,serif" font-size="14.00">province :string</text>
<text text-anchor="start" x="433.5" y="-1234.4" font-family="Times Roman,serif" font-size="14.00">created_at :datetime</text>
<text text-anchor="start" x="433.5" y="-1216.4" font-family="Times Roman,serif" font-size="14.00">updated_at :datetime</text>
</g>
<!-- Locality -->
<g id="node11" class="node"><title>Locality</title>
<polyline fill="none" stroke="black" points="437.5,-1045 578.5,-1045 "/>
<path fill="none" stroke="black" d="M578.5,-1045C584.5,-1045 590.5,-1051 590.5,-1057"/>
<polyline fill="none" stroke="black" points="590.5,-1057 590.5,-1157 "/>
<path fill="none" stroke="black" d="M590.5,-1157C590.5,-1163 584.5,-1169 578.5,-1169"/>
<polyline fill="none" stroke="black" points="578.5,-1169 437.5,-1169 "/>
<path fill="none" stroke="black" d="M437.5,-1169C431.5,-1169 425.5,-1163 425.5,-1157"/>
<polyline fill="none" stroke="black" points="425.5,-1157 425.5,-1057 "/>
<path fill="none" stroke="black" d="M425.5,-1057C425.5,-1051 431.5,-1045 437.5,-1045"/>
<text text-anchor="middle" x="508" y="-1152.4" font-family="Times Roman,serif" font-size="14.00">Locality</text>
<polyline fill="none" stroke="black" points="425.5,-1143 590.5,-1143 "/>
<text text-anchor="start" x="433.5" y="-1126.4" font-family="Times Roman,serif" font-size="14.00">id :integer</text>
<text text-anchor="start" x="433.5" y="-1108.4" font-family="Times Roman,serif" font-size="14.00">locality :string</text>
<text text-anchor="start" x="433.5" y="-1090.4" font-family="Times Roman,serif" font-size="14.00">province_id :integer</text>
<text text-anchor="start" x="433.5" y="-1072.4" font-family="Times Roman,serif" font-size="14.00">created_at :datetime</text>
<text text-anchor="start" x="433.5" y="-1054.4" font-family="Times Roman,serif" font-size="14.00">updated_at :datetime</text>
</g>
<!-- Province&#45;&gt;Locality -->
<g id="edge10" class="edge"><title>Province&#45;&gt;Locality</title>
<path fill="none" stroke="#c684c2" d="M508,-1198.82C508,-1192.42 508,-1185.87 508,-1179.36"/>
<ellipse fill="none" stroke="#c684c2" cx="508" cy="-1202.92" rx="4" ry="4"/>
<polygon fill="#c684c2" stroke="#c684c2" points="508,-1179.19 512.5,-1169.19 508,-1174.19 508,-1169.19 508,-1169.19 508,-1169.19 508,-1174.19 503.5,-1169.19 508,-1179.19 508,-1179.19"/>
</g>
<!-- InternshipsUser -->
<g id="node8" class="node"><title>InternshipsUser</title>
<polyline fill="none" stroke="black" points="802,-1225 942,-1225 "/>
<path fill="none" stroke="black" d="M942,-1225C948,-1225 954,-1231 954,-1237"/>
<polyline fill="none" stroke="black" points="954,-1237 954,-1283 "/>
<path fill="none" stroke="black" d="M954,-1283C954,-1289 948,-1295 942,-1295"/>
<polyline fill="none" stroke="black" points="942,-1295 802,-1295 "/>
<path fill="none" stroke="black" d="M802,-1295C796,-1295 790,-1289 790,-1283"/>
<polyline fill="none" stroke="black" points="790,-1283 790,-1237 "/>
<path fill="none" stroke="black" d="M790,-1237C790,-1231 796,-1225 802,-1225"/>
<text text-anchor="middle" x="872" y="-1278.4" font-family="Times Roman,serif" font-size="14.00">InternshipsUser</text>
<polyline fill="none" stroke="black" points="790,-1269 954,-1269 "/>
<text text-anchor="start" x="798" y="-1252.4" font-family="Times Roman,serif" font-size="14.00">internship_id :integer</text>
<text text-anchor="start" x="798" y="-1234.4" font-family="Times Roman,serif" font-size="14.00">user_id :integer</text>
</g>
<!-- User&#45;&gt;Internship -->
<g id="edge12" class="edge"><title>User&#45;&gt;Internship</title>
<path fill="none" stroke="#bce68d" d="M413.448,-477.106C411.661,-471.012 409.859,-464.866 408.052,-458.703"/>
<polygon fill="#bce68d" stroke="#bce68d" points="413.457,-477.137 411.952,-487.999 414.864,-481.935 416.271,-486.733 416.271,-486.733 416.271,-486.733 414.864,-481.935 420.589,-485.467 413.457,-477.137 413.457,-477.137"/>
<polygon fill="#bce68d" stroke="#bce68d" points="408.023,-458.605 409.528,-447.743 406.616,-453.807 405.209,-449.009 405.209,-449.009 405.209,-449.009 406.616,-453.807 400.891,-450.275 408.023,-458.605 408.023,-458.605"/>
</g>
<!-- Internship&#45;&gt;Contract -->
<g id="edge14" class="edge"><title>Internship&#45;&gt;Contract</title>
<path fill="none" stroke="#dea87e" d="M358,-118.773C358,-112.027 358,-105.514 358,-99.3394"/>
<ellipse fill="none" stroke="#dea87e" cx="358" cy="-122.93" rx="4" ry="4"/>
<polygon fill="#dea87e" stroke="#dea87e" points="358,-99.2841 362.5,-89.284 358,-94.2841 358,-89.2841 358,-89.2841 358,-89.2841 358,-94.2841 353.5,-89.2841 358,-99.2841 358,-99.2841"/>
</g>
<!-- Locality&#45;&gt;Company -->
<g id="edge18" class="edge"><title>Locality&#45;&gt;Company</title>
<path fill="none" stroke="#854e52" d="M525.844,-1036.92C527.626,-1029.92 529.47,-1022.68 531.34,-1015.34"/>
<ellipse fill="none" stroke="#854e52" cx="524.822" cy="-1040.94" rx="4.00001" ry="4.00001"/>
<ellipse fill="#854e52" stroke="#854e52" cx="532.392" cy="-1011.21" rx="4.00001" ry="4.00001"/>
</g>
<!-- Locality&#45;&gt;User -->
<g id="edge16" class="edge"><title>Locality&#45;&gt;User</title>
<path fill="none" stroke="#0ac3af" d="M479.706,-1037.26C476.638,-1027.56 473.934,-1017.62 472,-1008 454.66,-921.733 449.901,-822.871 449.481,-745.507"/>
<ellipse fill="none" stroke="#0ac3af" cx="480.989" cy="-1041.17" rx="4.00001" ry="4.00001"/>
<ellipse fill="#0ac3af" stroke="#0ac3af" cx="449.466" cy="-741.137" rx="4" ry="4"/>
</g>
</g>
</svg>
