<?xml version="1.0" encoding="UTF-8" standalone="no"?>
<!DOCTYPE svg PUBLIC "-//W3C//DTD SVG 1.1//EN"
 "http://www.w3.org/Graphics/SVG/1.1/DTD/svg11.dtd">
<!-- Generated by graphviz version 2.26.3 (20100126.1600)
 -->
<!-- Title: models_diagram Pages: 1 -->
<svg width="975pt" height="1394pt"
 viewBox="0.00 0.00 975.00 1394.00" xmlns="http://www.w3.org/2000/svg" xmlns:xlink="http://www.w3.org/1999/xlink">
<g id="graph1" class="graph" transform="scale(1 1) rotate(0) translate(4 1390)">
<title>models_diagram</title>
<polygon fill="white" stroke="white" points="-4,5 -4,-1390 972,-1390 972,5 -4,5"/>
<!-- _diagram_info -->
<g id="node1" class="node"><title>_diagram_info</title>
<text text-anchor="start" x="167" y="-1362.8" font-family="Times Roman,serif" font-size="13.00">Models diagram</text>
<text text-anchor="start" x="167" y="-1345.8" font-family="Times Roman,serif" font-size="13.00">Date: Apr 07 2013 &#45; 21:05</text>
<text text-anchor="start" x="167" y="-1328.8" font-family="Times Roman,serif" font-size="13.00">Migration version: 20130408000305</text>
<text text-anchor="start" x="167" y="-1311.8" font-family="Times Roman,serif" font-size="13.00">Generated by RailRoady 1.1.0</text>
<text text-anchor="start" x="167" y="-1294.8" font-family="Times Roman,serif" font-size="13.00">http://railroady.prestonlee.com</text>
</g>
<!-- Company -->
<g id="node2" class="node"><title>Company</title>
<polyline fill="none" stroke="black" points="381,-829 533,-829 "/>
<path fill="none" stroke="black" d="M533,-829C539,-829 545,-835 545,-841"/>
<polyline fill="none" stroke="black" points="545,-841 545,-1067 "/>
<path fill="none" stroke="black" d="M545,-1067C545,-1073 539,-1079 533,-1079"/>
<polyline fill="none" stroke="black" points="533,-1079 381,-1079 "/>
<path fill="none" stroke="black" d="M381,-1079C375,-1079 369,-1073 369,-1067"/>
<polyline fill="none" stroke="black" points="369,-1067 369,-841 "/>
<path fill="none" stroke="black" d="M369,-841C369,-835 375,-829 381,-829"/>
<text text-anchor="middle" x="457" y="-1062.4" font-family="Times Roman,serif" font-size="14.00">Company</text>
<polyline fill="none" stroke="black" points="369,-1053 545,-1053 "/>
<text text-anchor="start" x="377" y="-1036.4" font-family="Times Roman,serif" font-size="14.00">id :integer</text>
<text text-anchor="start" x="377" y="-1018.4" font-family="Times Roman,serif" font-size="14.00">name :string</text>
<text text-anchor="start" x="377" y="-1000.4" font-family="Times Roman,serif" font-size="14.00">address :string</text>
<text text-anchor="start" x="377" y="-982.4" font-family="Times Roman,serif" font-size="14.00">locality_id :integer</text>
<text text-anchor="start" x="377" y="-964.4" font-family="Times Roman,serif" font-size="14.00">manager :string</text>
<text text-anchor="start" x="377" y="-946.4" font-family="Times Roman,serif" font-size="14.00">boss :string</text>
<text text-anchor="start" x="377" y="-928.4" font-family="Times Roman,serif" font-size="14.00">created_at :timestamp</text>
<text text-anchor="start" x="377" y="-910.4" font-family="Times Roman,serif" font-size="14.00">updated_at :timestamp</text>
<text text-anchor="start" x="377" y="-892.4" font-family="Times Roman,serif" font-size="14.00">boss_dni :string</text>
<text text-anchor="start" x="377" y="-874.4" font-family="Times Roman,serif" font-size="14.00">manager_cuil :string</text>
<text text-anchor="start" x="377" y="-856.4" font-family="Times Roman,serif" font-size="14.00">position :string</text>
<text text-anchor="start" x="377" y="-838.4" font-family="Times Roman,serif" font-size="14.00">user_id :integer</text>
</g>
<!-- User -->
<g id="node11" class="node"><title>User</title>
<polyline fill="none" stroke="black" points="437.5,-505 592.5,-505 "/>
<path fill="none" stroke="black" d="M592.5,-505C598.5,-505 604.5,-511 604.5,-517"/>
<polyline fill="none" stroke="black" points="604.5,-517 604.5,-779 "/>
<path fill="none" stroke="black" d="M604.5,-779C604.5,-785 598.5,-791 592.5,-791"/>
<polyline fill="none" stroke="black" points="592.5,-791 437.5,-791 "/>
<path fill="none" stroke="black" d="M437.5,-791C431.5,-791 425.5,-785 425.5,-779"/>
<polyline fill="none" stroke="black" points="425.5,-779 425.5,-517 "/>
<path fill="none" stroke="black" d="M425.5,-517C425.5,-511 431.5,-505 437.5,-505"/>
<text text-anchor="middle" x="515" y="-774.4" font-family="Times Roman,serif" font-size="14.00">User</text>
<polyline fill="none" stroke="black" points="425.5,-765 604.5,-765 "/>
<text text-anchor="start" x="433.5" y="-748.4" font-family="Times Roman,serif" font-size="14.00">id :integer</text>
<text text-anchor="start" x="433.5" y="-730.4" font-family="Times Roman,serif" font-size="14.00">name :string</text>
<text text-anchor="start" x="433.5" y="-712.4" font-family="Times Roman,serif" font-size="14.00">surname :string</text>
<text text-anchor="start" x="433.5" y="-694.4" font-family="Times Roman,serif" font-size="14.00">dni :string</text>
<text text-anchor="start" x="433.5" y="-676.4" font-family="Times Roman,serif" font-size="14.00">locality_id :integer</text>
<text text-anchor="start" x="433.5" y="-658.4" font-family="Times Roman,serif" font-size="14.00">password_digest :string</text>
<text text-anchor="start" x="433.5" y="-640.4" font-family="Times Roman,serif" font-size="14.00">created_at :timestamp</text>
<text text-anchor="start" x="433.5" y="-622.4" font-family="Times Roman,serif" font-size="14.00">updated_at :timestamp</text>
<text text-anchor="start" x="433.5" y="-604.4" font-family="Times Roman,serif" font-size="14.00">email :string</text>
<text text-anchor="start" x="433.5" y="-586.4" font-family="Times Roman,serif" font-size="14.00">admin :boolean</text>
<text text-anchor="start" x="433.5" y="-568.4" font-family="Times Roman,serif" font-size="14.00">cuil :string</text>
<text text-anchor="start" x="433.5" y="-550.4" font-family="Times Roman,serif" font-size="14.00">address :string</text>
<text text-anchor="start" x="433.5" y="-532.4" font-family="Times Roman,serif" font-size="14.00">manager :boolean</text>
<text text-anchor="start" x="433.5" y="-514.4" font-family="Times Roman,serif" font-size="14.00">linkedin :string</text>
</g>
<!-- Company&#45;&gt;User -->
<g id="edge4" class="edge"><title>Company&#45;&gt;User</title>
<path fill="none" stroke="#bb3e3f" d="M475.927,-818.744C477.014,-812.869 478.121,-806.959 479.241,-801.049"/>
<polygon fill="#bb3e3f" stroke="#bb3e3f" points="475.913,-818.82 469.681,-827.842 475.01,-823.737 474.107,-828.655 474.107,-828.655 474.107,-828.655 475.01,-823.737 478.533,-829.468 475.913,-818.82 475.913,-818.82"/>
<polygon fill="#bb3e3f" stroke="#bb3e3f" points="479.263,-800.931 485.558,-791.951 480.2,-796.019 481.138,-791.108 481.138,-791.108 481.138,-791.108 480.2,-796.019 476.717,-790.265 479.263,-800.931 479.263,-800.931"/>
</g>
<!-- Internship -->
<g id="node12" class="node"><title>Internship</title>
<polyline fill="none" stroke="black" points="217,-127 369,-127 "/>
<path fill="none" stroke="black" d="M369,-127C375,-127 381,-133 381,-139"/>
<polyline fill="none" stroke="black" points="381,-139 381,-455 "/>
<path fill="none" stroke="black" d="M381,-455C381,-461 375,-467 369,-467"/>
<polyline fill="none" stroke="black" points="369,-467 217,-467 "/>
<path fill="none" stroke="black" d="M217,-467C211,-467 205,-461 205,-455"/>
<polyline fill="none" stroke="black" points="205,-455 205,-139 "/>
<path fill="none" stroke="black" d="M205,-139C205,-133 211,-127 217,-127"/>
<text text-anchor="middle" x="293" y="-450.4" font-family="Times Roman,serif" font-size="14.00">Internship</text>
<polyline fill="none" stroke="black" points="205,-441 381,-441 "/>
<text text-anchor="start" x="213" y="-424.4" font-family="Times Roman,serif" font-size="14.00">id :integer</text>
<text text-anchor="start" x="213" y="-406.4" font-family="Times Roman,serif" font-size="14.00">company_id :integer</text>
<text text-anchor="start" x="213" y="-388.4" font-family="Times Roman,serif" font-size="14.00">description_job :string</text>
<text text-anchor="start" x="213" y="-370.4" font-family="Times Roman,serif" font-size="14.00">situation_id :integer</text>
<text text-anchor="start" x="213" y="-352.4" font-family="Times Roman,serif" font-size="14.00">date_from :date</text>
<text text-anchor="start" x="213" y="-334.4" font-family="Times Roman,serif" font-size="14.00">date_until :date</text>
<text text-anchor="start" x="213" y="-316.4" font-family="Times Roman,serif" font-size="14.00">hs_monday :integer</text>
<text text-anchor="start" x="213" y="-298.4" font-family="Times Roman,serif" font-size="14.00">hs_tuesday :integer</text>
<text text-anchor="start" x="213" y="-280.4" font-family="Times Roman,serif" font-size="14.00">hs_wednesday :integer</text>
<text text-anchor="start" x="213" y="-262.4" font-family="Times Roman,serif" font-size="14.00">hs_thursday :integer</text>
<text text-anchor="start" x="213" y="-244.4" font-family="Times Roman,serif" font-size="14.00">hs_friday :integer</text>
<text text-anchor="start" x="213" y="-226.4" font-family="Times Roman,serif" font-size="14.00">hs_saturday :integer</text>
<text text-anchor="start" x="213" y="-208.4" font-family="Times Roman,serif" font-size="14.00">hs_sunday :integer</text>
<text text-anchor="start" x="213" y="-190.4" font-family="Times Roman,serif" font-size="14.00">created_at :timestamp</text>
<text text-anchor="start" x="213" y="-172.4" font-family="Times Roman,serif" font-size="14.00">updated_at :timestamp</text>
<text text-anchor="start" x="213" y="-154.4" font-family="Times Roman,serif" font-size="14.00">napplicants :integer</text>
<text text-anchor="start" x="213" y="-136.4" font-family="Times Roman,serif" font-size="14.00">horario :boolean</text>
</g>
<!-- Company&#45;&gt;Internship -->
<g id="edge2" class="edge"><title>Company&#45;&gt;Internship</title>
<path fill="none" stroke="#c0c9b6" d="M422.888,-820.89C420.772,-811.14 418.781,-801.434 417,-792 393.044,-665.133 412.5,-628.688 379,-504 376.583,-495.004 373.866,-485.881 370.927,-476.733"/>
<ellipse fill="none" stroke="#c0c9b6" cx="423.75" cy="-824.808" rx="4.00001" ry="4.00001"/>
<polygon fill="#c0c9b6" stroke="#c0c9b6" points="370.914,-476.694 372.061,-465.788 369.35,-471.944 367.786,-467.195 367.786,-467.195 367.786,-467.195 369.35,-471.944 363.512,-468.603 370.914,-476.694 370.914,-476.694"/>
</g>
<!-- InternshipsTask -->
<g id="node3" class="node"><title>InternshipsTask</title>
<polyline fill="none" stroke="black" points="633,-1288 773,-1288 "/>
<path fill="none" stroke="black" d="M773,-1288C779,-1288 785,-1294 785,-1300"/>
<polyline fill="none" stroke="black" points="785,-1300 785,-1364 "/>
<path fill="none" stroke="black" d="M785,-1364C785,-1370 779,-1376 773,-1376"/>
<polyline fill="none" stroke="black" points="773,-1376 633,-1376 "/>
<path fill="none" stroke="black" d="M633,-1376C627,-1376 621,-1370 621,-1364"/>
<polyline fill="none" stroke="black" points="621,-1364 621,-1300 "/>
<path fill="none" stroke="black" d="M621,-1300C621,-1294 627,-1288 633,-1288"/>
<text text-anchor="middle" x="703" y="-1359.4" font-family="Times Roman,serif" font-size="14.00">InternshipsTask</text>
<polyline fill="none" stroke="black" points="621,-1350 785,-1350 "/>
<text text-anchor="start" x="629" y="-1333.4" font-family="Times Roman,serif" font-size="14.00">id :integer</text>
<text text-anchor="start" x="629" y="-1315.4" font-family="Times Roman,serif" font-size="14.00">internship_id :integer</text>
<text text-anchor="start" x="629" y="-1297.4" font-family="Times Roman,serif" font-size="14.00">task_id :integer</text>
</g>
<!-- Contract -->
<g id="node4" class="node"><title>Contract</title>
<polyline fill="none" stroke="black" points="223,-1 363,-1 "/>
<path fill="none" stroke="black" d="M363,-1C369,-1 375,-7 375,-13"/>
<polyline fill="none" stroke="black" points="375,-13 375,-77 "/>
<path fill="none" stroke="black" d="M375,-77C375,-83 369,-89 363,-89"/>
<polyline fill="none" stroke="black" points="363,-89 223,-89 "/>
<path fill="none" stroke="black" d="M223,-89C217,-89 211,-83 211,-77"/>
<polyline fill="none" stroke="black" points="211,-77 211,-13 "/>
<path fill="none" stroke="black" d="M211,-13C211,-7 217,-1 223,-1"/>
<text text-anchor="middle" x="293" y="-72.4" font-family="Times Roman,serif" font-size="14.00">Contract</text>
<polyline fill="none" stroke="black" points="211,-63 375,-63 "/>
<text text-anchor="start" x="219" y="-46.4" font-family="Times Roman,serif" font-size="14.00">id :integer</text>
<text text-anchor="start" x="219" y="-28.4" font-family="Times Roman,serif" font-size="14.00">user_id :integer</text>
<text text-anchor="start" x="219" y="-10.4" font-family="Times Roman,serif" font-size="14.00">internship_id :integer</text>
</g>
<!-- Situation -->
<g id="node5" class="node"><title>Situation</title>
<polyline fill="none" stroke="black" points="12,-595 164,-595 "/>
<path fill="none" stroke="black" d="M164,-595C170,-595 176,-601 176,-607"/>
<polyline fill="none" stroke="black" points="176,-607 176,-689 "/>
<path fill="none" stroke="black" d="M176,-689C176,-695 170,-701 164,-701"/>
<polyline fill="none" stroke="black" points="164,-701 12,-701 "/>
<path fill="none" stroke="black" d="M12,-701C6,-701 0,-695 0,-689"/>
<polyline fill="none" stroke="black" points="0,-689 0,-607 "/>
<path fill="none" stroke="black" d="M0,-607C0,-601 6,-595 12,-595"/>
<text text-anchor="middle" x="88" y="-684.4" font-family="Times Roman,serif" font-size="14.00">Situation</text>
<polyline fill="none" stroke="black" points="0,-675 176,-675 "/>
<text text-anchor="start" x="8" y="-658.4" font-family="Times Roman,serif" font-size="14.00">id :integer</text>
<text text-anchor="start" x="8" y="-640.4" font-family="Times Roman,serif" font-size="14.00">status :string</text>
<text text-anchor="start" x="8" y="-622.4" font-family="Times Roman,serif" font-size="14.00">created_at :timestamp</text>
<text text-anchor="start" x="8" y="-604.4" font-family="Times Roman,serif" font-size="14.00">updated_at :timestamp</text>
</g>
<!-- Situation&#45;&gt;Internship -->
<g id="edge6" class="edge"><title>Situation&#45;&gt;Internship</title>
<path fill="none" stroke="#700769" d="M123.256,-587.634C144.503,-551.256 172.648,-503.067 199.899,-456.407"/>
<ellipse fill="none" stroke="#700769" cx="121.152" cy="-591.237" rx="4.00002" ry="4.00002"/>
<polygon fill="#700769" stroke="#700769" points="199.932,-456.351 208.861,-449.985 202.454,-452.033 204.975,-447.715 204.975,-447.715 204.975,-447.715 202.454,-452.033 201.09,-445.446 199.932,-456.351 199.932,-456.351"/>
</g>
<!-- Study -->
<g id="node6" class="node"><title>Study</title>
<polyline fill="none" stroke="black" points="432.5,-199 573.5,-199 "/>
<path fill="none" stroke="black" d="M573.5,-199C579.5,-199 585.5,-205 585.5,-211"/>
<polyline fill="none" stroke="black" points="585.5,-211 585.5,-383 "/>
<path fill="none" stroke="black" d="M585.5,-383C585.5,-389 579.5,-395 573.5,-395"/>
<polyline fill="none" stroke="black" points="573.5,-395 432.5,-395 "/>
<path fill="none" stroke="black" d="M432.5,-395C426.5,-395 420.5,-389 420.5,-383"/>
<polyline fill="none" stroke="black" points="420.5,-383 420.5,-211 "/>
<path fill="none" stroke="black" d="M420.5,-211C420.5,-205 426.5,-199 432.5,-199"/>
<text text-anchor="middle" x="503" y="-378.4" font-family="Times Roman,serif" font-size="14.00">Study</text>
<polyline fill="none" stroke="black" points="420.5,-369 585.5,-369 "/>
<text text-anchor="start" x="428.5" y="-352.4" font-family="Times Roman,serif" font-size="14.00">id :integer</text>
<text text-anchor="start" x="428.5" y="-334.4" font-family="Times Roman,serif" font-size="14.00">academy :string</text>
<text text-anchor="start" x="428.5" y="-316.4" font-family="Times Roman,serif" font-size="14.00">from :date</text>
<text text-anchor="start" x="428.5" y="-298.4" font-family="Times Roman,serif" font-size="14.00">until :date</text>
<text text-anchor="start" x="428.5" y="-280.4" font-family="Times Roman,serif" font-size="14.00">title :string</text>
<text text-anchor="start" x="428.5" y="-262.4" font-family="Times Roman,serif" font-size="14.00">description :string</text>
<text text-anchor="start" x="428.5" y="-244.4" font-family="Times Roman,serif" font-size="14.00">created_at :datetime</text>
<text text-anchor="start" x="428.5" y="-226.4" font-family="Times Roman,serif" font-size="14.00">updated_at :datetime</text>
<text text-anchor="start" x="428.5" y="-208.4" font-family="Times Roman,serif" font-size="14.00">user_id :integer</text>
</g>
<!-- Task -->
<g id="node7" class="node"><title>Task</title>
<polyline fill="none" stroke="black" points="206,-595 358,-595 "/>
<path fill="none" stroke="black" d="M358,-595C364,-595 370,-601 370,-607"/>
<polyline fill="none" stroke="black" points="370,-607 370,-689 "/>
<path fill="none" stroke="black" d="M370,-689C370,-695 364,-701 358,-701"/>
<polyline fill="none" stroke="black" points="358,-701 206,-701 "/>
<path fill="none" stroke="black" d="M206,-701C200,-701 194,-695 194,-689"/>
<polyline fill="none" stroke="black" points="194,-689 194,-607 "/>
<path fill="none" stroke="black" d="M194,-607C194,-601 200,-595 206,-595"/>
<text text-anchor="middle" x="282" y="-684.4" font-family="Times Roman,serif" font-size="14.00">Task</text>
<polyline fill="none" stroke="black" points="194,-675 370,-675 "/>
<text text-anchor="start" x="202" y="-658.4" font-family="Times Roman,serif" font-size="14.00">id :integer</text>
<text text-anchor="start" x="202" y="-640.4" font-family="Times Roman,serif" font-size="14.00">description :string</text>
<text text-anchor="start" x="202" y="-622.4" font-family="Times Roman,serif" font-size="14.00">created_at :timestamp</text>
<text text-anchor="start" x="202" y="-604.4" font-family="Times Roman,serif" font-size="14.00">updated_at :timestamp</text>
</g>
<!-- Task&#45;&gt;Internship -->
<g id="edge8" class="edge"><title>Task&#45;&gt;Internship</title>
<path fill="none" stroke="#1b035b" d="M283.984,-584.691C284.939,-554.206 286.139,-515.944 287.347,-477.368"/>
<polygon fill="#1b035b" stroke="#1b035b" points="283.984,-584.696 279.173,-594.55 283.827,-589.693 283.671,-594.691 283.671,-594.691 283.671,-594.691 283.827,-589.693 288.168,-594.832 283.984,-584.696 283.984,-584.696"/>
<polygon fill="#1b035b" stroke="#1b035b" points="287.358,-477.019 292.169,-467.165 287.515,-472.021 287.672,-467.024 287.672,-467.024 287.672,-467.024 287.515,-472.021 283.174,-466.883 287.358,-477.019 287.358,-477.019"/>
</g>
<!-- Job -->
<g id="node8" class="node"><title>Job</title>
<polyline fill="none" stroke="black" points="615,-181 773,-181 "/>
<path fill="none" stroke="black" d="M773,-181C779,-181 785,-187 785,-193"/>
<polyline fill="none" stroke="black" points="785,-193 785,-401 "/>
<path fill="none" stroke="black" d="M785,-401C785,-407 779,-413 773,-413"/>
<polyline fill="none" stroke="black" points="773,-413 615,-413 "/>
<path fill="none" stroke="black" d="M615,-413C609,-413 603,-407 603,-401"/>
<polyline fill="none" stroke="black" points="603,-401 603,-193 "/>
<path fill="none" stroke="black" d="M603,-193C603,-187 609,-181 615,-181"/>
<text text-anchor="middle" x="694" y="-396.4" font-family="Times Roman,serif" font-size="14.00">Job</text>
<polyline fill="none" stroke="black" points="603,-387 785,-387 "/>
<text text-anchor="start" x="611" y="-370.4" font-family="Times Roman,serif" font-size="14.00">id :integer</text>
<text text-anchor="start" x="611" y="-352.4" font-family="Times Roman,serif" font-size="14.00">enterprise_name :string</text>
<text text-anchor="start" x="611" y="-334.4" font-family="Times Roman,serif" font-size="14.00">position :string</text>
<text text-anchor="start" x="611" y="-316.4" font-family="Times Roman,serif" font-size="14.00">area :string</text>
<text text-anchor="start" x="611" y="-298.4" font-family="Times Roman,serif" font-size="14.00">from :date</text>
<text text-anchor="start" x="611" y="-280.4" font-family="Times Roman,serif" font-size="14.00">until :date</text>
<text text-anchor="start" x="611" y="-262.4" font-family="Times Roman,serif" font-size="14.00">workingnow :boolean</text>
<text text-anchor="start" x="611" y="-244.4" font-family="Times Roman,serif" font-size="14.00">taskdescription :string</text>
<text text-anchor="start" x="611" y="-226.4" font-family="Times Roman,serif" font-size="14.00">user_id :integer</text>
<text text-anchor="start" x="611" y="-208.4" font-family="Times Roman,serif" font-size="14.00">created_at :datetime</text>
<text text-anchor="start" x="611" y="-190.4" font-family="Times Roman,serif" font-size="14.00">updated_at :datetime</text>
</g>
<!-- Province -->
<g id="node9" class="node"><title>Province</title>
<polyline fill="none" stroke="black" points="439,-1279 591,-1279 "/>
<path fill="none" stroke="black" d="M591,-1279C597,-1279 603,-1285 603,-1291"/>
<polyline fill="none" stroke="black" points="603,-1291 603,-1373 "/>
<path fill="none" stroke="black" d="M603,-1373C603,-1379 597,-1385 591,-1385"/>
<polyline fill="none" stroke="black" points="591,-1385 439,-1385 "/>
<path fill="none" stroke="black" d="M439,-1385C433,-1385 427,-1379 427,-1373"/>
<polyline fill="none" stroke="black" points="427,-1373 427,-1291 "/>
<path fill="none" stroke="black" d="M427,-1291C427,-1285 433,-1279 439,-1279"/>
<text text-anchor="middle" x="515" y="-1368.4" font-family="Times Roman,serif" font-size="14.00">Province</text>
<polyline fill="none" stroke="black" points="427,-1359 603,-1359 "/>
<text text-anchor="start" x="435" y="-1342.4" font-family="Times Roman,serif" font-size="14.00">id :integer</text>
<text text-anchor="start" x="435" y="-1324.4" font-family="Times Roman,serif" font-size="14.00">province :string</text>
<text text-anchor="start" x="435" y="-1306.4" font-family="Times Roman,serif" font-size="14.00">created_at :timestamp</text>
<text text-anchor="start" x="435" y="-1288.4" font-family="Times Roman,serif" font-size="14.00">updated_at :timestamp</text>
</g>
<!-- Locality -->
<g id="node13" class="node"><title>Locality</title>
<polyline fill="none" stroke="black" points="439,-1117 591,-1117 "/>
<path fill="none" stroke="black" d="M591,-1117C597,-1117 603,-1123 603,-1129"/>
<polyline fill="none" stroke="black" points="603,-1129 603,-1229 "/>
<path fill="none" stroke="black" d="M603,-1229C603,-1235 597,-1241 591,-1241"/>
<polyline fill="none" stroke="black" points="591,-1241 439,-1241 "/>
<path fill="none" stroke="black" d="M439,-1241C433,-1241 427,-1235 427,-1229"/>
<polyline fill="none" stroke="black" points="427,-1229 427,-1129 "/>
<path fill="none" stroke="black" d="M427,-1129C427,-1123 433,-1117 439,-1117"/>
<text text-anchor="middle" x="515" y="-1224.4" font-family="Times Roman,serif" font-size="14.00">Locality</text>
<polyline fill="none" stroke="black" points="427,-1215 603,-1215 "/>
<text text-anchor="start" x="435" y="-1198.4" font-family="Times Roman,serif" font-size="14.00">id :integer</text>
<text text-anchor="start" x="435" y="-1180.4" font-family="Times Roman,serif" font-size="14.00">locality :string</text>
<text text-anchor="start" x="435" y="-1162.4" font-family="Times Roman,serif" font-size="14.00">province_id :integer</text>
<text text-anchor="start" x="435" y="-1144.4" font-family="Times Roman,serif" font-size="14.00">created_at :timestamp</text>
<text text-anchor="start" x="435" y="-1126.4" font-family="Times Roman,serif" font-size="14.00">updated_at :timestamp</text>
</g>
<!-- Province&#45;&gt;Locality -->
<g id="edge10" class="edge"><title>Province&#45;&gt;Locality</title>
<path fill="none" stroke="#42cf8e" d="M515,-1270.82C515,-1264.42 515,-1257.87 515,-1251.36"/>
<ellipse fill="none" stroke="#42cf8e" cx="515" cy="-1274.92" rx="4" ry="4"/>
<polygon fill="#42cf8e" stroke="#42cf8e" points="515,-1251.19 519.5,-1241.19 515,-1246.19 515,-1241.19 515,-1241.19 515,-1241.19 515,-1246.19 510.5,-1241.19 515,-1251.19 515,-1251.19"/>
</g>
<!-- InternshipsUser -->
<g id="node10" class="node"><title>InternshipsUser</title>
<polyline fill="none" stroke="black" points="815,-1297 955,-1297 "/>
<path fill="none" stroke="black" d="M955,-1297C961,-1297 967,-1303 967,-1309"/>
<polyline fill="none" stroke="black" points="967,-1309 967,-1355 "/>
<path fill="none" stroke="black" d="M967,-1355C967,-1361 961,-1367 955,-1367"/>
<polyline fill="none" stroke="black" points="955,-1367 815,-1367 "/>
<path fill="none" stroke="black" d="M815,-1367C809,-1367 803,-1361 803,-1355"/>
<polyline fill="none" stroke="black" points="803,-1355 803,-1309 "/>
<path fill="none" stroke="black" d="M803,-1309C803,-1303 809,-1297 815,-1297"/>
<text text-anchor="middle" x="885" y="-1350.4" font-family="Times Roman,serif" font-size="14.00">InternshipsUser</text>
<polyline fill="none" stroke="black" points="803,-1341 967,-1341 "/>
<text text-anchor="start" x="811" y="-1324.4" font-family="Times Roman,serif" font-size="14.00">internship_id :integer</text>
<text text-anchor="start" x="811" y="-1306.4" font-family="Times Roman,serif" font-size="14.00">user_id :integer</text>
</g>
<!-- User&#45;&gt;Company -->
<g id="edge12" class="edge"><title>User&#45;&gt;Company</title>
<path fill="none" stroke="#86a834" d="M493.068,-799.319C491.842,-805.805 490.598,-812.296 489.346,-818.744"/>
<ellipse fill="none" stroke="#86a834" cx="493.873" cy="-795.039" rx="4.00001" ry="4.00001"/>
<polygon fill="#86a834" stroke="#86a834" points="489.327,-818.841 482.993,-827.792 488.368,-823.748 487.409,-828.655 487.409,-828.655 487.409,-828.655 488.368,-823.748 491.826,-829.518 489.327,-818.841 489.327,-818.841"/>
</g>
<!-- User&#45;&gt;Study -->
<g id="edge18" class="edge"><title>User&#45;&gt;Study</title>
<path fill="none" stroke="#88f26d" d="M509.829,-496.737C508.777,-465.972 507.69,-434.194 506.702,-405.283"/>
<ellipse fill="none" stroke="#88f26d" cx="509.974" cy="-500.984" rx="4" ry="4"/>
<polygon fill="#88f26d" stroke="#88f26d" points="506.698,-405.177 510.854,-395.029 506.528,-400.18 506.357,-395.183 506.357,-395.183 506.357,-395.183 506.528,-400.18 501.859,-395.336 506.698,-405.177 506.698,-405.177"/>
</g>
<!-- User&#45;&gt;Job -->
<g id="edge16" class="edge"><title>User&#45;&gt;Job</title>
<path fill="none" stroke="#ef9556" d="M591.597,-497.801C604.463,-472.573 617.692,-446.632 630.191,-422.123"/>
<ellipse fill="none" stroke="#ef9556" cx="589.752" cy="-501.418" rx="4.00002" ry="4.00002"/>
<polygon fill="#ef9556" stroke="#ef9556" points="630.217,-422.071 638.769,-415.207 632.489,-417.617 634.76,-413.162 634.76,-413.162 634.76,-413.162 632.489,-417.617 630.752,-411.118 630.217,-422.071 630.217,-422.071"/>
</g>
<!-- User&#45;&gt;Internship -->
<g id="edge14" class="edge"><title>User&#45;&gt;Internship</title>
<path fill="none" stroke="#70ed11" d="M419.839,-497.543C408.761,-480.027 397.467,-462.172 386.413,-444.694"/>
<polygon fill="#70ed11" stroke="#70ed11" points="419.999,-497.795 421.541,-508.652 422.671,-502.021 425.344,-506.247 425.344,-506.247 425.344,-506.247 422.671,-502.021 429.147,-503.841 419.999,-497.795 419.999,-497.795"/>
<polygon fill="#70ed11" stroke="#70ed11" points="386.353,-444.598 384.811,-433.741 383.68,-440.373 381.007,-436.147 381.007,-436.147 381.007,-436.147 383.68,-440.373 377.204,-438.552 386.353,-444.598 386.353,-444.598"/>
</g>
<!-- Internship&#45;&gt;Contract -->
<g id="edge20" class="edge"><title>Internship&#45;&gt;Contract</title>
<path fill="none" stroke="#cb9cbf" d="M293,-118.625C293,-111.854 293,-105.329 293,-99.1497"/>
<ellipse fill="none" stroke="#cb9cbf" cx="293" cy="-122.817" rx="4" ry="4"/>
<polygon fill="#cb9cbf" stroke="#cb9cbf" points="293,-99.0955 297.5,-89.0954 293,-94.0955 293,-89.0955 293,-89.0955 293,-89.0955 293,-94.0955 288.5,-89.0955 293,-99.0955 293,-99.0955"/>
</g>
<!-- Locality&#45;&gt;Company -->
<g id="edge24" class="edge"><title>Locality&#45;&gt;Company</title>
<path fill="none" stroke="#df0587" d="M496.962,-1109.03C495.156,-1102.02 493.283,-1094.75 491.378,-1087.36"/>
<ellipse fill="none" stroke="#df0587" cx="497.999" cy="-1113.05" rx="4.00001" ry="4.00001"/>
<ellipse fill="#df0587" stroke="#df0587" cx="490.299" cy="-1083.18" rx="4.00001" ry="4.00001"/>
</g>
<!-- Locality&#45;&gt;User -->
<g id="edge22" class="edge"><title>Locality&#45;&gt;User</title>
<path fill="none" stroke="#68f858" d="M546.185,-1109.26C549.405,-1099.6 552.165,-1089.67 554,-1080 574.892,-969.966 565.926,-939.363 554,-828 553.003,-818.686 551.723,-809.146 550.238,-799.554"/>
<ellipse fill="none" stroke="#68f858" cx="544.826" cy="-1113.17" rx="4.00001" ry="4.00001"/>
<ellipse fill="#68f858" stroke="#68f858" cx="549.578" cy="-795.438" rx="4.00001" ry="4.00001"/>
</g>
</g>
</svg>
