<?xml version="1.0" encoding="UTF-8" standalone="no"?>
<!DOCTYPE svg PUBLIC "-//W3C//DTD SVG 1.1//EN"
 "http://www.w3.org/Graphics/SVG/1.1/DTD/svg11.dtd">
<!-- Generated by graphviz version 2.26.3 (20100126.1600)
 -->
<!-- Title: models_diagram Pages: 1 -->
<svg width="574pt" height="398pt"
 viewBox="0.00 0.00 574.00 398.00" xmlns="http://www.w3.org/2000/svg" xmlns:xlink="http://www.w3.org/1999/xlink">
<g id="graph1" class="graph" transform="scale(1 1) rotate(0) translate(4 394)">
<title>models_diagram</title>
<polygon fill="white" stroke="white" points="-4,5 -4,-394 571,-394 571,5 -4,5"/>
<!-- _diagram_info -->
<g id="node1" class="node"><title>_diagram_info</title>
<text text-anchor="start" x="8" y="-373.8" font-family="Times Roman,serif" font-size="13.00">Models diagram</text>
<text text-anchor="start" x="8" y="-356.8" font-family="Times Roman,serif" font-size="13.00">Date: Feb 08 2013 &#45; 18:23</text>
<text text-anchor="start" x="8" y="-339.8" font-family="Times Roman,serif" font-size="13.00">Migration version: 20130208173710</text>
<text text-anchor="start" x="8" y="-322.8" font-family="Times Roman,serif" font-size="13.00">Generated by RailRoady 1.1.0</text>
<text text-anchor="start" x="8" y="-305.8" font-family="Times Roman,serif" font-size="13.00">http://railroady.prestonlee.com</text>
</g>
<!-- Company -->
<g id="node2" class="node"><title>Company</title>
<ellipse fill="none" stroke="black" cx="364" cy="-167" rx="56.7776" ry="18.3848"/>
<text text-anchor="middle" x="364" y="-163.4" font-family="Times Roman,serif" font-size="14.00">Company</text>
</g>
<!-- User -->
<g id="node7" class="node"><title>User</title>
<ellipse fill="none" stroke="black" cx="302" cy="-93" rx="33.9411" ry="18.3848"/>
<text text-anchor="middle" x="302" y="-89.4" font-family="Times Roman,serif" font-size="14.00">User</text>
</g>
<!-- Company&#45;&gt;User -->
<g id="edge4" class="edge"><title>Company&#45;&gt;User</title>
<path fill="none" stroke="#efe500" d="M342.34,-141.148C335.986,-133.564 329.054,-125.29 322.757,-117.775"/>
<polygon fill="#efe500" stroke="#efe500" points="342.569,-141.421 345.542,-151.977 345.78,-145.254 348.992,-149.087 348.992,-149.087 348.992,-149.087 345.78,-145.254 352.441,-146.197 342.569,-141.421 342.569,-141.421"/>
<polygon fill="#efe500" stroke="#efe500" points="322.654,-117.651 319.681,-107.096 319.442,-113.818 316.231,-109.986 316.231,-109.986 316.231,-109.986 319.442,-113.818 312.782,-112.876 322.654,-117.651 322.654,-117.651"/>
</g>
<!-- Internship -->
<g id="node8" class="node"><title>Internship</title>
<ellipse fill="none" stroke="black" cx="259" cy="-19" rx="61.0181" ry="18.3848"/>
<text text-anchor="middle" x="259" y="-15.4" font-family="Times Roman,serif" font-size="14.00">Internship</text>
</g>
<!-- Company&#45;&gt;Internship -->
<g id="edge2" class="edge"><title>Company&#45;&gt;Internship</title>
<path fill="none" stroke="#0648e1" d="M363.972,-140.2C362.734,-120.356 358.385,-93.4951 345,-74 334.853,-59.2217 319.299,-47.5353 304.194,-38.8047"/>
<ellipse fill="none" stroke="#0648e1" cx="364.151" cy="-144.236" rx="4" ry="4"/>
<polygon fill="#0648e1" stroke="#0648e1" points="304.176,-38.7945 297.553,-30.0545 299.787,-36.3996 295.397,-34.0047 295.397,-34.0047 295.397,-34.0047 299.787,-36.3996 293.242,-37.955 304.176,-38.7945 304.176,-38.7945"/>
</g>
<!-- InternshipsTask -->
<g id="node3" class="node"><title>InternshipsTask</title>
<ellipse fill="none" stroke="black" cx="479" cy="-343" rx="87.1802" ry="18.3848"/>
<text text-anchor="middle" x="479" y="-339.4" font-family="Times Roman,serif" font-size="14.00">InternshipsTask</text>
</g>
<!-- Situation -->
<g id="node4" class="node"><title>Situation</title>
<ellipse fill="none" stroke="black" cx="110" cy="-93" rx="56.0679" ry="18.3848"/>
<text text-anchor="middle" x="110" y="-89.4" font-family="Times Roman,serif" font-size="14.00">Situation</text>
</g>
<!-- Situation&#45;&gt;Internship -->
<g id="edge6" class="edge"><title>Situation&#45;&gt;Internship</title>
<path fill="none" stroke="#5d3554" d="M148.565,-73.847C169.887,-63.2573 196.374,-50.1029 218.063,-39.3313"/>
<ellipse fill="none" stroke="#5d3554" cx="144.818" cy="-75.7079" rx="4.00002" ry="4.00002"/>
<polygon fill="#5d3554" stroke="#5d3554" points="218.079,-39.3233 229.037,-38.9055 222.557,-37.0993 227.035,-34.8752 227.035,-34.8752 227.035,-34.8752 222.557,-37.0993 225.033,-30.8449 218.079,-39.3233 218.079,-39.3233"/>
</g>
<!-- Task -->
<g id="node5" class="node"><title>Task</title>
<ellipse fill="none" stroke="black" cx="217" cy="-93" rx="33.234" ry="18.3848"/>
<text text-anchor="middle" x="217" y="-89.4" font-family="Times Roman,serif" font-size="14.00">Task</text>
</g>
<!-- Task&#45;&gt;Internship -->
<g id="edge8" class="edge"><title>Task&#45;&gt;Internship</title>
<path fill="none" stroke="#ab33ab" d="M232.177,-66.26C235.848,-59.7922 239.776,-52.8702 243.464,-46.3737"/>
<polygon fill="#ab33ab" stroke="#ab33ab" points="232.103,-66.3898 223.253,-72.8654 229.635,-70.7382 227.167,-75.0867 227.167,-75.0867 227.167,-75.0867 229.635,-70.7382 231.081,-77.3079 232.103,-66.3898 232.103,-66.3898"/>
<polygon fill="#ab33ab" stroke="#ab33ab" points="243.699,-45.9593 252.548,-39.4837 246.167,-41.6109 248.635,-37.2625 248.635,-37.2625 248.635,-37.2625 246.167,-41.6109 244.721,-35.0412 243.699,-45.9593 243.699,-45.9593"/>
</g>
<!-- Province -->
<g id="node6" class="node"><title>Province</title>
<ellipse fill="none" stroke="black" cx="321" cy="-343" rx="53.2379" ry="18.3848"/>
<text text-anchor="middle" x="321" y="-339.4" font-family="Times Roman,serif" font-size="14.00">Province</text>
</g>
<!-- Locality -->
<g id="node9" class="node"><title>Locality</title>
<ellipse fill="none" stroke="black" cx="321" cy="-241" rx="48.9975" ry="18.3848"/>
<text text-anchor="middle" x="321" y="-237.4" font-family="Times Roman,serif" font-size="14.00">Locality</text>
</g>
<!-- Province&#45;&gt;Locality -->
<g id="edge10" class="edge"><title>Province&#45;&gt;Locality</title>
<path fill="none" stroke="#e9b3b5" d="M321,-316.015C321,-301.835 321,-284.445 321,-269.98"/>
<ellipse fill="none" stroke="#e9b3b5" cx="321" cy="-320.292" rx="4" ry="4"/>
<polygon fill="#e9b3b5" stroke="#e9b3b5" points="321,-269.59 325.5,-259.59 321,-264.59 321,-259.59 321,-259.59 321,-259.59 321,-264.59 316.5,-259.59 321,-269.59 321,-269.59"/>
</g>
<!-- User&#45;&gt;Internship -->
<g id="edge12" class="edge"><title>User&#45;&gt;Internship</title>
<path fill="none" stroke="#e0ca7b" d="M287.493,-68.0342C283.375,-60.948 278.874,-53.201 274.689,-46.0003"/>
<ellipse fill="none" stroke="#e0ca7b" cx="289.581" cy="-71.6282" rx="4.00002" ry="4.00002"/>
<polygon fill="#e0ca7b" stroke="#e0ca7b" points="274.636,-45.9087 273.503,-35.0016 272.124,-41.5856 269.612,-37.2625 269.612,-37.2625 269.612,-37.2625 272.124,-41.5856 265.721,-39.5234 274.636,-45.9087 274.636,-45.9087"/>
</g>
<!-- Locality&#45;&gt;Company -->
<g id="edge16" class="edge"><title>Locality&#45;&gt;Company</title>
<path fill="none" stroke="#2c4500" d="M335.691,-215.718C340.037,-208.238 344.797,-200.047 349.153,-192.55"/>
<ellipse fill="none" stroke="#2c4500" cx="333.639" cy="-219.249" rx="4.00002" ry="4.00002"/>
<ellipse fill="#2c4500" stroke="#2c4500" cx="351.334" cy="-188.797" rx="4.00002" ry="4.00002"/>
</g>
<!-- Locality&#45;&gt;User -->
<g id="edge14" class="edge"><title>Locality&#45;&gt;User</title>
<path fill="none" stroke="#a61581" d="M307.745,-215.222C303.791,-206.219 299.984,-195.889 298,-186 293.588,-164.015 295.134,-138.542 297.475,-119.821"/>
<ellipse fill="none" stroke="#a61581" cx="309.54" cy="-219.115" rx="4.00002" ry="4.00002"/>
<ellipse fill="#a61581" stroke="#a61581" cx="298.043" cy="-115.693" rx="4.00001" ry="4.00001"/>
</g>
</g>
</svg>
