<?xml version="1.0" encoding="UTF-8" standalone="no"?>
<!DOCTYPE svg PUBLIC "-//W3C//DTD SVG 1.1//EN"
 "http://www.w3.org/Graphics/SVG/1.1/DTD/svg11.dtd">
<!-- Generated by graphviz version 2.26.3 (20100126.1600)
 -->
<!-- Title: models_diagram Pages: 1 -->
<svg width="1419pt" height="1718pt"
 viewBox="0.00 0.00 1419.00 1718.00" xmlns="http://www.w3.org/2000/svg" xmlns:xlink="http://www.w3.org/1999/xlink">
<g id="graph1" class="graph" transform="scale(1 1) rotate(0) translate(4 1714)">
<title>models_diagram</title>
<polygon fill="white" stroke="white" points="-4,5 -4,-1714 1416,-1714 1416,5 -4,5"/>
<!-- _diagram_info -->
<g id="node1" class="node"><title>_diagram_info</title>
<text text-anchor="start" x="417" y="-1686.8" font-family="Times Roman,serif" font-size="13.00">Models diagram</text>
<text text-anchor="start" x="417" y="-1669.8" font-family="Times Roman,serif" font-size="13.00">Date: Oct 26 2013 &#45; 22:17</text>
<text text-anchor="start" x="417" y="-1652.8" font-family="Times Roman,serif" font-size="13.00">Migration version: 20130908214125</text>
<text text-anchor="start" x="417" y="-1635.8" font-family="Times Roman,serif" font-size="13.00">Generated by RailRoady 1.1.0</text>
<text text-anchor="start" x="417" y="-1618.8" font-family="Times Roman,serif" font-size="13.00">http://railroady.prestonlee.com</text>
</g>
<!-- Situation -->
<g id="node2" class="node"><title>Situation</title>
<polyline fill="none" stroke="black" points="206,-1180 358,-1180 "/>
<path fill="none" stroke="black" d="M358,-1180C364,-1180 370,-1186 370,-1192"/>
<polyline fill="none" stroke="black" points="370,-1192 370,-1274 "/>
<path fill="none" stroke="black" d="M370,-1274C370,-1280 364,-1286 358,-1286"/>
<polyline fill="none" stroke="black" points="358,-1286 206,-1286 "/>
<path fill="none" stroke="black" d="M206,-1286C200,-1286 194,-1280 194,-1274"/>
<polyline fill="none" stroke="black" points="194,-1274 194,-1192 "/>
<path fill="none" stroke="black" d="M194,-1192C194,-1186 200,-1180 206,-1180"/>
<text text-anchor="middle" x="282" y="-1269.4" font-family="Times Roman,serif" font-size="14.00">Situation</text>
<polyline fill="none" stroke="black" points="194,-1260 370,-1260 "/>
<text text-anchor="start" x="202" y="-1243.4" font-family="Times Roman,serif" font-size="14.00">id :integer</text>
<text text-anchor="start" x="202" y="-1225.4" font-family="Times Roman,serif" font-size="14.00">status :string</text>
<text text-anchor="start" x="202" y="-1207.4" font-family="Times Roman,serif" font-size="14.00">created_at :timestamp</text>
<text text-anchor="start" x="202" y="-1189.4" font-family="Times Roman,serif" font-size="14.00">updated_at :timestamp</text>
</g>
<!-- Internship -->
<g id="node4" class="node"><title>Internship</title>
<polyline fill="none" stroke="black" points="400,-649 552,-649 "/>
<path fill="none" stroke="black" d="M552,-649C558,-649 564,-655 564,-661"/>
<polyline fill="none" stroke="black" points="564,-661 564,-1013 "/>
<path fill="none" stroke="black" d="M564,-1013C564,-1019 558,-1025 552,-1025"/>
<polyline fill="none" stroke="black" points="552,-1025 400,-1025 "/>
<path fill="none" stroke="black" d="M400,-1025C394,-1025 388,-1019 388,-1013"/>
<polyline fill="none" stroke="black" points="388,-1013 388,-661 "/>
<path fill="none" stroke="black" d="M388,-661C388,-655 394,-649 400,-649"/>
<text text-anchor="middle" x="476" y="-1008.4" font-family="Times Roman,serif" font-size="14.00">Internship</text>
<polyline fill="none" stroke="black" points="388,-999 564,-999 "/>
<text text-anchor="start" x="396" y="-982.4" font-family="Times Roman,serif" font-size="14.00">id :integer</text>
<text text-anchor="start" x="396" y="-964.4" font-family="Times Roman,serif" font-size="14.00">company_id :integer</text>
<text text-anchor="start" x="396" y="-946.4" font-family="Times Roman,serif" font-size="14.00">description_job :string</text>
<text text-anchor="start" x="396" y="-928.4" font-family="Times Roman,serif" font-size="14.00">situation_id :integer</text>
<text text-anchor="start" x="396" y="-910.4" font-family="Times Roman,serif" font-size="14.00">date_from :date</text>
<text text-anchor="start" x="396" y="-892.4" font-family="Times Roman,serif" font-size="14.00">date_until :date</text>
<text text-anchor="start" x="396" y="-874.4" font-family="Times Roman,serif" font-size="14.00">hs_monday :integer</text>
<text text-anchor="start" x="396" y="-856.4" font-family="Times Roman,serif" font-size="14.00">hs_tuesday :integer</text>
<text text-anchor="start" x="396" y="-838.4" font-family="Times Roman,serif" font-size="14.00">hs_wednesday :integer</text>
<text text-anchor="start" x="396" y="-820.4" font-family="Times Roman,serif" font-size="14.00">hs_thursday :integer</text>
<text text-anchor="start" x="396" y="-802.4" font-family="Times Roman,serif" font-size="14.00">hs_friday :integer</text>
<text text-anchor="start" x="396" y="-784.4" font-family="Times Roman,serif" font-size="14.00">hs_saturday :integer</text>
<text text-anchor="start" x="396" y="-766.4" font-family="Times Roman,serif" font-size="14.00">hs_sunday :integer</text>
<text text-anchor="start" x="396" y="-748.4" font-family="Times Roman,serif" font-size="14.00">created_at :timestamp</text>
<text text-anchor="start" x="396" y="-730.4" font-family="Times Roman,serif" font-size="14.00">updated_at :timestamp</text>
<text text-anchor="start" x="396" y="-712.4" font-family="Times Roman,serif" font-size="14.00">napplicants :integer</text>
<text text-anchor="start" x="396" y="-694.4" font-family="Times Roman,serif" font-size="14.00">horario :boolean</text>
<text text-anchor="start" x="396" y="-676.4" font-family="Times Roman,serif" font-size="14.00">description :text</text>
<text text-anchor="start" x="396" y="-658.4" font-family="Times Roman,serif" font-size="14.00">type_id :integer</text>
</g>
<!-- Situation&#45;&gt;Internship -->
<g id="edge2" class="edge"><title>Situation&#45;&gt;Internship</title>
<path fill="none" stroke="#09e2c6" d="M311.758,-1172.26C331.078,-1132.82 357.405,-1079.08 383.319,-1026.18"/>
<ellipse fill="none" stroke="#09e2c6" cx="309.923" cy="-1176" rx="4.00002" ry="4.00002"/>
<polygon fill="#09e2c6" stroke="#09e2c6" points="383.411,-1025.99 391.852,-1018.99 385.611,-1021.5 387.811,-1017.01 387.811,-1017.01 387.811,-1017.01 385.611,-1021.5 383.77,-1015.03 383.411,-1025.99 383.411,-1025.99"/>
</g>
<!-- Contract -->
<g id="node3" class="node"><title>Contract</title>
<polyline fill="none" stroke="black" points="413,-73 553,-73 "/>
<path fill="none" stroke="black" d="M553,-73C559,-73 565,-79 565,-85"/>
<polyline fill="none" stroke="black" points="565,-85 565,-149 "/>
<path fill="none" stroke="black" d="M565,-149C565,-155 559,-161 553,-161"/>
<polyline fill="none" stroke="black" points="553,-161 413,-161 "/>
<path fill="none" stroke="black" d="M413,-161C407,-161 401,-155 401,-149"/>
<polyline fill="none" stroke="black" points="401,-149 401,-85 "/>
<path fill="none" stroke="black" d="M401,-85C401,-79 407,-73 413,-73"/>
<text text-anchor="middle" x="483" y="-144.4" font-family="Times Roman,serif" font-size="14.00">Contract</text>
<polyline fill="none" stroke="black" points="401,-135 565,-135 "/>
<text text-anchor="start" x="409" y="-118.4" font-family="Times Roman,serif" font-size="14.00">id :integer</text>
<text text-anchor="start" x="409" y="-100.4" font-family="Times Roman,serif" font-size="14.00">user_id :integer</text>
<text text-anchor="start" x="409" y="-82.4" font-family="Times Roman,serif" font-size="14.00">internship_id :integer</text>
</g>
<!-- Internship&#45;&gt;Contract -->
<g id="edge4" class="edge"><title>Internship&#45;&gt;Contract</title>
<path fill="none" stroke="#159eb3" d="M477.91,-640.5C479.453,-481.857 481.518,-269.427 482.474,-171.113"/>
<ellipse fill="none" stroke="#159eb3" cx="477.869" cy="-644.769" rx="4" ry="4"/>
<polygon fill="#159eb3" stroke="#159eb3" points="482.474,-171.111 487.071,-161.155 482.522,-166.111 482.571,-161.111 482.571,-161.111 482.571,-161.111 482.522,-166.111 478.071,-161.068 482.474,-171.111 482.474,-171.111"/>
</g>
<!-- Task -->
<g id="node11" class="node"><title>Task</title>
<polyline fill="none" stroke="black" points="291,-388 443,-388 "/>
<path fill="none" stroke="black" d="M443,-388C449,-388 455,-394 455,-400"/>
<polyline fill="none" stroke="black" points="455,-400 455,-482 "/>
<path fill="none" stroke="black" d="M455,-482C455,-488 449,-494 443,-494"/>
<polyline fill="none" stroke="black" points="443,-494 291,-494 "/>
<path fill="none" stroke="black" d="M291,-494C285,-494 279,-488 279,-482"/>
<polyline fill="none" stroke="black" points="279,-482 279,-400 "/>
<path fill="none" stroke="black" d="M279,-400C279,-394 285,-388 291,-388"/>
<text text-anchor="middle" x="367" y="-477.4" font-family="Times Roman,serif" font-size="14.00">Task</text>
<polyline fill="none" stroke="black" points="279,-468 455,-468 "/>
<text text-anchor="start" x="287" y="-451.4" font-family="Times Roman,serif" font-size="14.00">id :integer</text>
<text text-anchor="start" x="287" y="-433.4" font-family="Times Roman,serif" font-size="14.00">description :string</text>
<text text-anchor="start" x="287" y="-415.4" font-family="Times Roman,serif" font-size="14.00">created_at :timestamp</text>
<text text-anchor="start" x="287" y="-397.4" font-family="Times Roman,serif" font-size="14.00">updated_at :timestamp</text>
</g>
<!-- Internship&#45;&gt;Task -->
<g id="edge6" class="edge"><title>Internship&#45;&gt;Task</title>
<path fill="none" stroke="#f38962" d="M421.469,-638.888C408.031,-590.065 394.594,-541.252 384.429,-504.321"/>
<polygon fill="#f38962" stroke="#f38962" points="421.559,-639.216 419.875,-650.052 422.886,-644.037 424.213,-648.858 424.213,-648.858 424.213,-648.858 422.886,-644.037 428.552,-647.663 421.559,-639.216 421.559,-639.216"/>
<polygon fill="#f38962" stroke="#f38962" points="384.305,-503.871 385.99,-493.035 382.979,-499.05 381.652,-494.23 381.652,-494.23 381.652,-494.23 382.979,-499.05 377.313,-495.424 384.305,-503.871 384.305,-503.871"/>
</g>
<!-- User -->
<g id="node12" class="node"><title>User</title>
<polyline fill="none" stroke="black" points="596.5,-271 751.5,-271 "/>
<path fill="none" stroke="black" d="M751.5,-271C757.5,-271 763.5,-277 763.5,-283"/>
<polyline fill="none" stroke="black" points="763.5,-283 763.5,-599 "/>
<path fill="none" stroke="black" d="M763.5,-599C763.5,-605 757.5,-611 751.5,-611"/>
<polyline fill="none" stroke="black" points="751.5,-611 596.5,-611 "/>
<path fill="none" stroke="black" d="M596.5,-611C590.5,-611 584.5,-605 584.5,-599"/>
<polyline fill="none" stroke="black" points="584.5,-599 584.5,-283 "/>
<path fill="none" stroke="black" d="M584.5,-283C584.5,-277 590.5,-271 596.5,-271"/>
<text text-anchor="middle" x="674" y="-594.4" font-family="Times Roman,serif" font-size="14.00">User</text>
<polyline fill="none" stroke="black" points="584.5,-585 763.5,-585 "/>
<text text-anchor="start" x="592.5" y="-568.4" font-family="Times Roman,serif" font-size="14.00">id :integer</text>
<text text-anchor="start" x="592.5" y="-550.4" font-family="Times Roman,serif" font-size="14.00">name :string</text>
<text text-anchor="start" x="592.5" y="-532.4" font-family="Times Roman,serif" font-size="14.00">surname :string</text>
<text text-anchor="start" x="592.5" y="-514.4" font-family="Times Roman,serif" font-size="14.00">dni :string</text>
<text text-anchor="start" x="592.5" y="-496.4" font-family="Times Roman,serif" font-size="14.00">locality_id :integer</text>
<text text-anchor="start" x="592.5" y="-478.4" font-family="Times Roman,serif" font-size="14.00">password_digest :string</text>
<text text-anchor="start" x="592.5" y="-460.4" font-family="Times Roman,serif" font-size="14.00">created_at :timestamp</text>
<text text-anchor="start" x="592.5" y="-442.4" font-family="Times Roman,serif" font-size="14.00">updated_at :timestamp</text>
<text text-anchor="start" x="592.5" y="-424.4" font-family="Times Roman,serif" font-size="14.00">email :string</text>
<text text-anchor="start" x="592.5" y="-406.4" font-family="Times Roman,serif" font-size="14.00">admin :boolean</text>
<text text-anchor="start" x="592.5" y="-388.4" font-family="Times Roman,serif" font-size="14.00">cuil :string</text>
<text text-anchor="start" x="592.5" y="-370.4" font-family="Times Roman,serif" font-size="14.00">address :string</text>
<text text-anchor="start" x="592.5" y="-352.4" font-family="Times Roman,serif" font-size="14.00">manager :boolean</text>
<text text-anchor="start" x="592.5" y="-334.4" font-family="Times Roman,serif" font-size="14.00">linkedin :string</text>
<text text-anchor="start" x="592.5" y="-316.4" font-family="Times Roman,serif" font-size="14.00">celphone :string</text>
<text text-anchor="start" x="592.5" y="-298.4" font-family="Times Roman,serif" font-size="14.00">homephone :string</text>
<text text-anchor="start" x="592.5" y="-280.4" font-family="Times Roman,serif" font-size="14.00">treatment_id :integer</text>
</g>
<!-- Internship&#45;&gt;User -->
<g id="edge8" class="edge"><title>Internship&#45;&gt;User</title>
<path fill="none" stroke="#0364af" d="M568.796,-651.407C574.004,-640.993 579.234,-630.532 584.429,-620.141"/>
<polygon fill="#0364af" stroke="#0364af" points="568.615,-651.77 560.118,-658.702 566.379,-656.242 564.143,-660.714 564.143,-660.714 564.143,-660.714 566.379,-656.242 568.168,-662.727 568.615,-651.77 568.615,-651.77"/>
<polygon fill="#0364af" stroke="#0364af" points="584.512,-619.975 593.009,-613.044 586.748,-615.503 588.984,-611.031 588.984,-611.031 588.984,-611.031 586.748,-615.503 584.959,-609.019 584.512,-619.975 584.512,-619.975"/>
</g>
<!-- Type -->
<g id="node5" class="node"><title>Type</title>
<polyline fill="none" stroke="black" points="12,-1180 164,-1180 "/>
<path fill="none" stroke="black" d="M164,-1180C170,-1180 176,-1186 176,-1192"/>
<polyline fill="none" stroke="black" points="176,-1192 176,-1274 "/>
<path fill="none" stroke="black" d="M176,-1274C176,-1280 170,-1286 164,-1286"/>
<polyline fill="none" stroke="black" points="164,-1286 12,-1286 "/>
<path fill="none" stroke="black" d="M12,-1286C6,-1286 0,-1280 0,-1274"/>
<polyline fill="none" stroke="black" points="0,-1274 0,-1192 "/>
<path fill="none" stroke="black" d="M0,-1192C0,-1186 6,-1180 12,-1180"/>
<text text-anchor="middle" x="88" y="-1269.4" font-family="Times Roman,serif" font-size="14.00">Type</text>
<polyline fill="none" stroke="black" points="0,-1260 176,-1260 "/>
<text text-anchor="start" x="8" y="-1243.4" font-family="Times Roman,serif" font-size="14.00">id :integer</text>
<text text-anchor="start" x="8" y="-1225.4" font-family="Times Roman,serif" font-size="14.00">tipo :string</text>
<text text-anchor="start" x="8" y="-1207.4" font-family="Times Roman,serif" font-size="14.00">created_at :timestamp</text>
<text text-anchor="start" x="8" y="-1189.4" font-family="Times Roman,serif" font-size="14.00">updated_at :timestamp</text>
</g>
<!-- Type&#45;&gt;Internship -->
<g id="edge10" class="edge"><title>Type&#45;&gt;Internship</title>
<path fill="none" stroke="#174e7e" d="M114.888,-1172.55C131.991,-1138.01 156.298,-1095.1 185,-1062 241.237,-997.139 318.653,-938.355 379.498,-897.15"/>
<ellipse fill="none" stroke="#174e7e" cx="113.105" cy="-1176.2" rx="4.00002" ry="4.00002"/>
<polygon fill="#174e7e" stroke="#174e7e" points="379.671,-897.034 390.481,-895.188 383.821,-894.244 387.97,-891.454 387.97,-891.454 387.97,-891.454 383.821,-894.244 385.459,-887.72 379.671,-897.034 379.671,-897.034"/>
</g>
<!-- Company -->
<g id="node6" class="node"><title>Company</title>
<polyline fill="none" stroke="black" points="594,-1063 796,-1063 "/>
<path fill="none" stroke="black" d="M796,-1063C802,-1063 808,-1069 808,-1075"/>
<polyline fill="none" stroke="black" points="808,-1075 808,-1391 "/>
<path fill="none" stroke="black" d="M808,-1391C808,-1397 802,-1403 796,-1403"/>
<polyline fill="none" stroke="black" points="796,-1403 594,-1403 "/>
<path fill="none" stroke="black" d="M594,-1403C588,-1403 582,-1397 582,-1391"/>
<polyline fill="none" stroke="black" points="582,-1391 582,-1075 "/>
<path fill="none" stroke="black" d="M582,-1075C582,-1069 588,-1063 594,-1063"/>
<text text-anchor="middle" x="695" y="-1386.4" font-family="Times Roman,serif" font-size="14.00">Company</text>
<polyline fill="none" stroke="black" points="582,-1377 808,-1377 "/>
<text text-anchor="start" x="590" y="-1360.4" font-family="Times Roman,serif" font-size="14.00">id :integer</text>
<text text-anchor="start" x="590" y="-1342.4" font-family="Times Roman,serif" font-size="14.00">name :string</text>
<text text-anchor="start" x="590" y="-1324.4" font-family="Times Roman,serif" font-size="14.00">address :string</text>
<text text-anchor="start" x="590" y="-1306.4" font-family="Times Roman,serif" font-size="14.00">locality_id :integer</text>
<text text-anchor="start" x="590" y="-1288.4" font-family="Times Roman,serif" font-size="14.00">manager :string</text>
<text text-anchor="start" x="590" y="-1270.4" font-family="Times Roman,serif" font-size="14.00">boss :string</text>
<text text-anchor="start" x="590" y="-1252.4" font-family="Times Roman,serif" font-size="14.00">created_at :timestamp</text>
<text text-anchor="start" x="590" y="-1234.4" font-family="Times Roman,serif" font-size="14.00">updated_at :timestamp</text>
<text text-anchor="start" x="590" y="-1216.4" font-family="Times Roman,serif" font-size="14.00">boss_dni :string</text>
<text text-anchor="start" x="590" y="-1198.4" font-family="Times Roman,serif" font-size="14.00">manager_cuil :string</text>
<text text-anchor="start" x="590" y="-1180.4" font-family="Times Roman,serif" font-size="14.00">position :string</text>
<text text-anchor="start" x="590" y="-1162.4" font-family="Times Roman,serif" font-size="14.00">user_id :integer</text>
<text text-anchor="start" x="590" y="-1144.4" font-family="Times Roman,serif" font-size="14.00">razon :string</text>
<text text-anchor="start" x="590" y="-1126.4" font-family="Times Roman,serif" font-size="14.00">art :string</text>
<text text-anchor="start" x="590" y="-1108.4" font-family="Times Roman,serif" font-size="14.00">obsocial :string</text>
<text text-anchor="start" x="590" y="-1090.4" font-family="Times Roman,serif" font-size="14.00">bosstreatment_id :integer</text>
<text text-anchor="start" x="590" y="-1072.4" font-family="Times Roman,serif" font-size="14.00">managertreatment_id :integer</text>
</g>
<!-- Company&#45;&gt;Internship -->
<g id="edge12" class="edge"><title>Company&#45;&gt;Internship</title>
<path fill="none" stroke="#4a2bcc" d="M596.975,-1055.75C587.622,-1038.84 578.156,-1021.72 568.854,-1004.9"/>
<ellipse fill="none" stroke="#4a2bcc" cx="598.917" cy="-1059.26" rx="4.00002" ry="4.00002"/>
<polygon fill="#4a2bcc" stroke="#4a2bcc" points="568.845,-1004.88 567.944,-993.956 566.426,-1000.51 564.006,-996.134 564.006,-996.134 564.006,-996.134 566.426,-1000.51 560.068,-998.312 568.845,-1004.88 568.845,-1004.88"/>
</g>
<!-- Company&#45;&gt;User -->
<g id="edge14" class="edge"><title>Company&#45;&gt;User</title>
<path fill="none" stroke="#f19eb3" d="M690.21,-1052.35C686.789,-923.322 682.206,-750.465 678.785,-621.478"/>
<polygon fill="#f19eb3" stroke="#f19eb3" points="690.217,-1052.61 685.984,-1062.73 690.349,-1057.61 690.482,-1062.61 690.482,-1062.61 690.482,-1062.61 690.349,-1057.61 694.98,-1062.49 690.217,-1052.61 690.217,-1052.61"/>
<polygon fill="#f19eb3" stroke="#f19eb3" points="678.775,-621.094 683.009,-610.978 678.643,-616.095 678.51,-611.097 678.51,-611.097 678.51,-611.097 678.643,-616.095 674.012,-611.216 678.775,-621.094 678.775,-621.094"/>
</g>
<!-- InternshipsUser -->
<g id="node7" class="node"><title>InternshipsUser</title>
<polyline fill="none" stroke="black" points="883,-1621 1023,-1621 "/>
<path fill="none" stroke="black" d="M1023,-1621C1029,-1621 1035,-1627 1035,-1633"/>
<polyline fill="none" stroke="black" points="1035,-1633 1035,-1679 "/>
<path fill="none" stroke="black" d="M1035,-1679C1035,-1685 1029,-1691 1023,-1691"/>
<polyline fill="none" stroke="black" points="1023,-1691 883,-1691 "/>
<path fill="none" stroke="black" d="M883,-1691C877,-1691 871,-1685 871,-1679"/>
<polyline fill="none" stroke="black" points="871,-1679 871,-1633 "/>
<path fill="none" stroke="black" d="M871,-1633C871,-1627 877,-1621 883,-1621"/>
<text text-anchor="middle" x="953" y="-1674.4" font-family="Times Roman,serif" font-size="14.00">InternshipsUser</text>
<polyline fill="none" stroke="black" points="871,-1665 1035,-1665 "/>
<text text-anchor="start" x="879" y="-1648.4" font-family="Times Roman,serif" font-size="14.00">internship_id :integer</text>
<text text-anchor="start" x="879" y="-1630.4" font-family="Times Roman,serif" font-size="14.00">user_id :integer</text>
</g>
<!-- InternshipsTask -->
<g id="node8" class="node"><title>InternshipsTask</title>
<polyline fill="none" stroke="black" points="1065,-1612 1205,-1612 "/>
<path fill="none" stroke="black" d="M1205,-1612C1211,-1612 1217,-1618 1217,-1624"/>
<polyline fill="none" stroke="black" points="1217,-1624 1217,-1688 "/>
<path fill="none" stroke="black" d="M1217,-1688C1217,-1694 1211,-1700 1205,-1700"/>
<polyline fill="none" stroke="black" points="1205,-1700 1065,-1700 "/>
<path fill="none" stroke="black" d="M1065,-1700C1059,-1700 1053,-1694 1053,-1688"/>
<polyline fill="none" stroke="black" points="1053,-1688 1053,-1624 "/>
<path fill="none" stroke="black" d="M1053,-1624C1053,-1618 1059,-1612 1065,-1612"/>
<text text-anchor="middle" x="1135" y="-1683.4" font-family="Times Roman,serif" font-size="14.00">InternshipsTask</text>
<polyline fill="none" stroke="black" points="1053,-1674 1217,-1674 "/>
<text text-anchor="start" x="1061" y="-1657.4" font-family="Times Roman,serif" font-size="14.00">id :integer</text>
<text text-anchor="start" x="1061" y="-1639.4" font-family="Times Roman,serif" font-size="14.00">internship_id :integer</text>
<text text-anchor="start" x="1061" y="-1621.4" font-family="Times Roman,serif" font-size="14.00">task_id :integer</text>
</g>
<!-- Locality -->
<g id="node9" class="node"><title>Locality</title>
<polyline fill="none" stroke="black" points="689,-1441 841,-1441 "/>
<path fill="none" stroke="black" d="M841,-1441C847,-1441 853,-1447 853,-1453"/>
<polyline fill="none" stroke="black" points="853,-1453 853,-1553 "/>
<path fill="none" stroke="black" d="M853,-1553C853,-1559 847,-1565 841,-1565"/>
<polyline fill="none" stroke="black" points="841,-1565 689,-1565 "/>
<path fill="none" stroke="black" d="M689,-1565C683,-1565 677,-1559 677,-1553"/>
<polyline fill="none" stroke="black" points="677,-1553 677,-1453 "/>
<path fill="none" stroke="black" d="M677,-1453C677,-1447 683,-1441 689,-1441"/>
<text text-anchor="middle" x="765" y="-1548.4" font-family="Times Roman,serif" font-size="14.00">Locality</text>
<polyline fill="none" stroke="black" points="677,-1539 853,-1539 "/>
<text text-anchor="start" x="685" y="-1522.4" font-family="Times Roman,serif" font-size="14.00">id :integer</text>
<text text-anchor="start" x="685" y="-1504.4" font-family="Times Roman,serif" font-size="14.00">locality :string</text>
<text text-anchor="start" x="685" y="-1486.4" font-family="Times Roman,serif" font-size="14.00">province_id :integer</text>
<text text-anchor="start" x="685" y="-1468.4" font-family="Times Roman,serif" font-size="14.00">created_at :timestamp</text>
<text text-anchor="start" x="685" y="-1450.4" font-family="Times Roman,serif" font-size="14.00">updated_at :timestamp</text>
</g>
<!-- Locality&#45;&gt;Company -->
<g id="edge18" class="edge"><title>Locality&#45;&gt;Company</title>
<path fill="none" stroke="#17b8c4" d="M746.828,-1432.91C745.028,-1425.96 743.149,-1418.72 741.219,-1411.27"/>
<ellipse fill="none" stroke="#17b8c4" cx="747.849" cy="-1436.85" rx="4.00001" ry="4.00001"/>
<ellipse fill="#17b8c4" stroke="#17b8c4" cx="740.11" cy="-1407" rx="4.00001" ry="4.00001"/>
</g>
<!-- Locality&#45;&gt;User -->
<g id="edge16" class="edge"><title>Locality&#45;&gt;User</title>
<path fill="none" stroke="#962049" d="M806.686,-1433.59C810.92,-1423.93 814.555,-1413.91 817,-1404 853.4,-1256.42 834.164,-1213.03 817,-1062 799.794,-910.603 759.712,-742.367 726.348,-619.23"/>
<ellipse fill="none" stroke="#962049" cx="805.006" cy="-1437.27" rx="4.00002" ry="4.00002"/>
<ellipse fill="#962049" stroke="#962049" cx="725.21" cy="-615.045" rx="4.00001" ry="4.00001"/>
</g>
<!-- Treatment -->
<g id="node10" class="node"><title>Treatment</title>
<polyline fill="none" stroke="black" points="400,-1180 552,-1180 "/>
<path fill="none" stroke="black" d="M552,-1180C558,-1180 564,-1186 564,-1192"/>
<polyline fill="none" stroke="black" points="564,-1192 564,-1274 "/>
<path fill="none" stroke="black" d="M564,-1274C564,-1280 558,-1286 552,-1286"/>
<polyline fill="none" stroke="black" points="552,-1286 400,-1286 "/>
<path fill="none" stroke="black" d="M400,-1286C394,-1286 388,-1280 388,-1274"/>
<polyline fill="none" stroke="black" points="388,-1274 388,-1192 "/>
<path fill="none" stroke="black" d="M388,-1192C388,-1186 394,-1180 400,-1180"/>
<text text-anchor="middle" x="476" y="-1269.4" font-family="Times Roman,serif" font-size="14.00">Treatment</text>
<polyline fill="none" stroke="black" points="388,-1260 564,-1260 "/>
<text text-anchor="start" x="396" y="-1243.4" font-family="Times Roman,serif" font-size="14.00">id :integer</text>
<text text-anchor="start" x="396" y="-1225.4" font-family="Times Roman,serif" font-size="14.00">treatment :string</text>
<text text-anchor="start" x="396" y="-1207.4" font-family="Times Roman,serif" font-size="14.00">created_at :timestamp</text>
<text text-anchor="start" x="396" y="-1189.4" font-family="Times Roman,serif" font-size="14.00">updated_at :timestamp</text>
</g>
<!-- Treatment&#45;&gt;Internship -->
<g id="edge22" class="edge"><title>Treatment&#45;&gt;Internship</title>
<path fill="none" stroke="#998946" d="M476,-1171.36C476,-1134.27 476,-1084.78 476,-1035.26"/>
<ellipse fill="none" stroke="#998946" cx="476" cy="-1175.59" rx="4" ry="4"/>
<polygon fill="#998946" stroke="#998946" points="476,-1035.03 480.5,-1025.03 476,-1030.03 476,-1025.03 476,-1025.03 476,-1025.03 476,-1030.03 471.5,-1025.03 476,-1035.03 476,-1035.03"/>
</g>
<!-- Treatment&#45;&gt;User -->
<g id="edge20" class="edge"><title>Treatment&#45;&gt;User</title>
<path fill="none" stroke="#b29cb3" d="M509.582,-1172.57C530.692,-1132.18 556.888,-1077.25 573,-1026 614.635,-893.562 640.418,-738.535 655.504,-621.355"/>
<ellipse fill="none" stroke="#b29cb3" cx="507.701" cy="-1176.14" rx="4.00002" ry="4.00002"/>
<polygon fill="#b29cb3" stroke="#b29cb3" points="655.533,-621.127 661.26,-611.775 656.164,-616.167 656.796,-611.207 656.796,-611.207 656.796,-611.207 656.164,-616.167 652.332,-610.639 655.533,-621.127 655.533,-621.127"/>
</g>
<!-- User&#45;&gt;Contract -->
<g id="edge24" class="edge"><title>User&#45;&gt;Contract</title>
<path fill="none" stroke="#aa47bd" d="M580.175,-281.841C556.357,-241.438 532.4,-200.799 514.233,-169.982"/>
<ellipse fill="none" stroke="#aa47bd" cx="582.341" cy="-285.515" rx="4.00002" ry="4.00002"/>
<polygon fill="#aa47bd" stroke="#aa47bd" points="514.106,-169.767 512.904,-158.867 511.567,-165.459 509.028,-161.152 509.028,-161.152 509.028,-161.152 511.567,-165.459 505.151,-163.437 514.106,-169.767 514.106,-169.767"/>
</g>
<!-- Study -->
<g id="node15" class="node"><title>Study</title>
<polyline fill="none" stroke="black" points="795,-19 947,-19 "/>
<path fill="none" stroke="black" d="M947,-19C953,-19 959,-25 959,-31"/>
<polyline fill="none" stroke="black" points="959,-31 959,-203 "/>
<path fill="none" stroke="black" d="M959,-203C959,-209 953,-215 947,-215"/>
<polyline fill="none" stroke="black" points="947,-215 795,-215 "/>
<path fill="none" stroke="black" d="M795,-215C789,-215 783,-209 783,-203"/>
<polyline fill="none" stroke="black" points="783,-203 783,-31 "/>
<path fill="none" stroke="black" d="M783,-31C783,-25 789,-19 795,-19"/>
<text text-anchor="middle" x="871" y="-198.4" font-family="Times Roman,serif" font-size="14.00">Study</text>
<polyline fill="none" stroke="black" points="783,-189 959,-189 "/>
<text text-anchor="start" x="791" y="-172.4" font-family="Times Roman,serif" font-size="14.00">id :integer</text>
<text text-anchor="start" x="791" y="-154.4" font-family="Times Roman,serif" font-size="14.00">academy :string</text>
<text text-anchor="start" x="791" y="-136.4" font-family="Times Roman,serif" font-size="14.00">from :date</text>
<text text-anchor="start" x="791" y="-118.4" font-family="Times Roman,serif" font-size="14.00">until :date</text>
<text text-anchor="start" x="791" y="-100.4" font-family="Times Roman,serif" font-size="14.00">title :string</text>
<text text-anchor="start" x="791" y="-82.4" font-family="Times Roman,serif" font-size="14.00">description :string</text>
<text text-anchor="start" x="791" y="-64.4" font-family="Times Roman,serif" font-size="14.00">created_at :timestamp</text>
<text text-anchor="start" x="791" y="-46.4" font-family="Times Roman,serif" font-size="14.00">updated_at :timestamp</text>
<text text-anchor="start" x="791" y="-28.4" font-family="Times Roman,serif" font-size="14.00">user_id :integer</text>
</g>
<!-- User&#45;&gt;Study -->
<g id="edge28" class="edge"><title>User&#45;&gt;Study</title>
<path fill="none" stroke="#65569e" d="M767.738,-286.832C780.697,-265.518 793.767,-244.022 806.047,-223.826"/>
<ellipse fill="none" stroke="#65569e" cx="765.643" cy="-290.277" rx="4.00002" ry="4.00002"/>
<polygon fill="#65569e" stroke="#65569e" points="806.064,-223.799 815.104,-217.592 808.661,-219.526 811.259,-215.254 811.259,-215.254 811.259,-215.254 808.661,-219.526 807.414,-212.916 806.064,-223.799 806.064,-223.799"/>
</g>
<!-- Job -->
<g id="node16" class="node"><title>Job</title>
<polyline fill="none" stroke="black" points="595,-1 753,-1 "/>
<path fill="none" stroke="black" d="M753,-1C759,-1 765,-7 765,-13"/>
<polyline fill="none" stroke="black" points="765,-13 765,-221 "/>
<path fill="none" stroke="black" d="M765,-221C765,-227 759,-233 753,-233"/>
<polyline fill="none" stroke="black" points="753,-233 595,-233 "/>
<path fill="none" stroke="black" d="M595,-233C589,-233 583,-227 583,-221"/>
<polyline fill="none" stroke="black" points="583,-221 583,-13 "/>
<path fill="none" stroke="black" d="M583,-13C583,-7 589,-1 595,-1"/>
<text text-anchor="middle" x="674" y="-216.4" font-family="Times Roman,serif" font-size="14.00">Job</text>
<polyline fill="none" stroke="black" points="583,-207 765,-207 "/>
<text text-anchor="start" x="591" y="-190.4" font-family="Times Roman,serif" font-size="14.00">id :integer</text>
<text text-anchor="start" x="591" y="-172.4" font-family="Times Roman,serif" font-size="14.00">enterprise_name :string</text>
<text text-anchor="start" x="591" y="-154.4" font-family="Times Roman,serif" font-size="14.00">position :string</text>
<text text-anchor="start" x="591" y="-136.4" font-family="Times Roman,serif" font-size="14.00">area :string</text>
<text text-anchor="start" x="591" y="-118.4" font-family="Times Roman,serif" font-size="14.00">from :date</text>
<text text-anchor="start" x="591" y="-100.4" font-family="Times Roman,serif" font-size="14.00">until :date</text>
<text text-anchor="start" x="591" y="-82.4" font-family="Times Roman,serif" font-size="14.00">workingnow :boolean</text>
<text text-anchor="start" x="591" y="-64.4" font-family="Times Roman,serif" font-size="14.00">taskdescription :string</text>
<text text-anchor="start" x="591" y="-46.4" font-family="Times Roman,serif" font-size="14.00">user_id :integer</text>
<text text-anchor="start" x="591" y="-28.4" font-family="Times Roman,serif" font-size="14.00">created_at :timestamp</text>
<text text-anchor="start" x="591" y="-10.4" font-family="Times Roman,serif" font-size="14.00">updated_at :timestamp</text>
</g>
<!-- User&#45;&gt;Job -->
<g id="edge26" class="edge"><title>User&#45;&gt;Job</title>
<path fill="none" stroke="#cb6d71" d="M674,-262.922C674,-256.377 674,-249.867 674,-243.437"/>
<ellipse fill="none" stroke="#cb6d71" cx="674" cy="-266.935" rx="4" ry="4"/>
<polygon fill="#cb6d71" stroke="#cb6d71" points="674,-243.402 678.5,-233.402 674,-238.402 674,-233.402 674,-233.402 674,-233.402 674,-238.402 669.5,-233.402 674,-243.402 674,-243.402"/>
</g>
<!-- Skill -->
<g id="node13" class="node"><title>Skill</title>
<polyline fill="none" stroke="black" points="1247,-1603 1399,-1603 "/>
<path fill="none" stroke="black" d="M1399,-1603C1405,-1603 1411,-1609 1411,-1615"/>
<polyline fill="none" stroke="black" points="1411,-1615 1411,-1697 "/>
<path fill="none" stroke="black" d="M1411,-1697C1411,-1703 1405,-1709 1399,-1709"/>
<polyline fill="none" stroke="black" points="1399,-1709 1247,-1709 "/>
<path fill="none" stroke="black" d="M1247,-1709C1241,-1709 1235,-1703 1235,-1697"/>
<polyline fill="none" stroke="black" points="1235,-1697 1235,-1615 "/>
<path fill="none" stroke="black" d="M1235,-1615C1235,-1609 1241,-1603 1247,-1603"/>
<text text-anchor="middle" x="1323" y="-1692.4" font-family="Times Roman,serif" font-size="14.00">Skill</text>
<polyline fill="none" stroke="black" points="1235,-1683 1411,-1683 "/>
<text text-anchor="start" x="1243" y="-1666.4" font-family="Times Roman,serif" font-size="14.00">id :integer</text>
<text text-anchor="start" x="1243" y="-1648.4" font-family="Times Roman,serif" font-size="14.00">name :string</text>
<text text-anchor="start" x="1243" y="-1630.4" font-family="Times Roman,serif" font-size="14.00">created_at :timestamp</text>
<text text-anchor="start" x="1243" y="-1612.4" font-family="Times Roman,serif" font-size="14.00">updated_at :timestamp</text>
</g>
<!-- Province -->
<g id="node14" class="node"><title>Province</title>
<polyline fill="none" stroke="black" points="689,-1603 841,-1603 "/>
<path fill="none" stroke="black" d="M841,-1603C847,-1603 853,-1609 853,-1615"/>
<polyline fill="none" stroke="black" points="853,-1615 853,-1697 "/>
<path fill="none" stroke="black" d="M853,-1697C853,-1703 847,-1709 841,-1709"/>
<polyline fill="none" stroke="black" points="841,-1709 689,-1709 "/>
<path fill="none" stroke="black" d="M689,-1709C683,-1709 677,-1703 677,-1697"/>
<polyline fill="none" stroke="black" points="677,-1697 677,-1615 "/>
<path fill="none" stroke="black" d="M677,-1615C677,-1609 683,-1603 689,-1603"/>
<text text-anchor="middle" x="765" y="-1692.4" font-family="Times Roman,serif" font-size="14.00">Province</text>
<polyline fill="none" stroke="black" points="677,-1683 853,-1683 "/>
<text text-anchor="start" x="685" y="-1666.4" font-family="Times Roman,serif" font-size="14.00">id :integer</text>
<text text-anchor="start" x="685" y="-1648.4" font-family="Times Roman,serif" font-size="14.00">province :string</text>
<text text-anchor="start" x="685" y="-1630.4" font-family="Times Roman,serif" font-size="14.00">created_at :timestamp</text>
<text text-anchor="start" x="685" y="-1612.4" font-family="Times Roman,serif" font-size="14.00">updated_at :timestamp</text>
</g>
<!-- Province&#45;&gt;Locality -->
<g id="edge30" class="edge"><title>Province&#45;&gt;Locality</title>
<path fill="none" stroke="#0ae477" d="M765,-1594.82C765,-1588.42 765,-1581.87 765,-1575.36"/>
<ellipse fill="none" stroke="#0ae477" cx="765" cy="-1598.92" rx="4" ry="4"/>
<polygon fill="#0ae477" stroke="#0ae477" points="765,-1575.19 769.5,-1565.19 765,-1570.19 765,-1565.19 765,-1565.19 765,-1565.19 765,-1570.19 760.5,-1565.19 765,-1575.19 765,-1575.19"/>
</g>
</g>
</svg>
