<?xml version="1.0" encoding="UTF-8" standalone="no"?>
<!DOCTYPE svg PUBLIC "-//W3C//DTD SVG 1.1//EN"
 "http://www.w3.org/Graphics/SVG/1.1/DTD/svg11.dtd">
<!-- Generated by graphviz version 2.26.3 (20100126.1600)
 -->
<!-- Title: models_diagram Pages: 1 -->
<svg width="780pt" height="1106pt"
 viewBox="0.00 0.00 780.00 1106.00" xmlns="http://www.w3.org/2000/svg" xmlns:xlink="http://www.w3.org/1999/xlink">
<g id="graph1" class="graph" transform="scale(1 1) rotate(0) translate(4 1102)">
<title>models_diagram</title>
<polygon fill="white" stroke="white" points="-4,5 -4,-1102 777,-1102 777,5 -4,5"/>
<!-- _diagram_info -->
<g id="node1" class="node"><title>_diagram_info</title>
<text text-anchor="start" x="166" y="-1065.8" font-family="Times Roman,serif" font-size="13.00">Models diagram</text>
<text text-anchor="start" x="166" y="-1048.8" font-family="Times Roman,serif" font-size="13.00">Date: Feb 08 2013 &#45; 18:23</text>
<text text-anchor="start" x="166" y="-1031.8" font-family="Times Roman,serif" font-size="13.00">Migration version: 20130208173710</text>
<text text-anchor="start" x="166" y="-1014.8" font-family="Times Roman,serif" font-size="13.00">Generated by RailRoady 1.1.0</text>
<text text-anchor="start" x="166" y="-997.8" font-family="Times Roman,serif" font-size="13.00">http://railroady.prestonlee.com</text>
</g>
<!-- Company -->
<g id="node2" class="node"><title>Company</title>
<polyline fill="none" stroke="black" points="492.5,-595 633.5,-595 "/>
<path fill="none" stroke="black" d="M633.5,-595C639.5,-595 645.5,-601 645.5,-607"/>
<polyline fill="none" stroke="black" points="645.5,-607 645.5,-761 "/>
<path fill="none" stroke="black" d="M645.5,-761C645.5,-767 639.5,-773 633.5,-773"/>
<polyline fill="none" stroke="black" points="633.5,-773 492.5,-773 "/>
<path fill="none" stroke="black" d="M492.5,-773C486.5,-773 480.5,-767 480.5,-761"/>
<polyline fill="none" stroke="black" points="480.5,-761 480.5,-607 "/>
<path fill="none" stroke="black" d="M480.5,-607C480.5,-601 486.5,-595 492.5,-595"/>
<text text-anchor="middle" x="563" y="-756.4" font-family="Times Roman,serif" font-size="14.00">Company</text>
<polyline fill="none" stroke="black" points="480.5,-747 645.5,-747 "/>
<text text-anchor="start" x="488.5" y="-730.4" font-family="Times Roman,serif" font-size="14.00">id :integer</text>
<text text-anchor="start" x="488.5" y="-712.4" font-family="Times Roman,serif" font-size="14.00">name :string</text>
<text text-anchor="start" x="488.5" y="-694.4" font-family="Times Roman,serif" font-size="14.00">address :string</text>
<text text-anchor="start" x="488.5" y="-676.4" font-family="Times Roman,serif" font-size="14.00">locality_id :integer</text>
<text text-anchor="start" x="488.5" y="-658.4" font-family="Times Roman,serif" font-size="14.00">manager :string</text>
<text text-anchor="start" x="488.5" y="-640.4" font-family="Times Roman,serif" font-size="14.00">boss :string</text>
<text text-anchor="start" x="488.5" y="-622.4" font-family="Times Roman,serif" font-size="14.00">created_at :datetime</text>
<text text-anchor="start" x="488.5" y="-604.4" font-family="Times Roman,serif" font-size="14.00">updated_at :datetime</text>
</g>
<!-- User -->
<g id="node7" class="node"><title>User</title>
<polyline fill="none" stroke="black" points="375.5,-343 530.5,-343 "/>
<path fill="none" stroke="black" d="M530.5,-343C536.5,-343 542.5,-349 542.5,-355"/>
<polyline fill="none" stroke="black" points="542.5,-355 542.5,-545 "/>
<path fill="none" stroke="black" d="M542.5,-545C542.5,-551 536.5,-557 530.5,-557"/>
<polyline fill="none" stroke="black" points="530.5,-557 375.5,-557 "/>
<path fill="none" stroke="black" d="M375.5,-557C369.5,-557 363.5,-551 363.5,-545"/>
<polyline fill="none" stroke="black" points="363.5,-545 363.5,-355 "/>
<path fill="none" stroke="black" d="M363.5,-355C363.5,-349 369.5,-343 375.5,-343"/>
<text text-anchor="middle" x="453" y="-540.4" font-family="Times Roman,serif" font-size="14.00">User</text>
<polyline fill="none" stroke="black" points="363.5,-531 542.5,-531 "/>
<text text-anchor="start" x="371.5" y="-514.4" font-family="Times Roman,serif" font-size="14.00">id :integer</text>
<text text-anchor="start" x="371.5" y="-496.4" font-family="Times Roman,serif" font-size="14.00">name :string</text>
<text text-anchor="start" x="371.5" y="-478.4" font-family="Times Roman,serif" font-size="14.00">surname :string</text>
<text text-anchor="start" x="371.5" y="-460.4" font-family="Times Roman,serif" font-size="14.00">dni :string</text>
<text text-anchor="start" x="371.5" y="-442.4" font-family="Times Roman,serif" font-size="14.00">locality_id :integer</text>
<text text-anchor="start" x="371.5" y="-424.4" font-family="Times Roman,serif" font-size="14.00">password_digest :string</text>
<text text-anchor="start" x="371.5" y="-406.4" font-family="Times Roman,serif" font-size="14.00">created_at :datetime</text>
<text text-anchor="start" x="371.5" y="-388.4" font-family="Times Roman,serif" font-size="14.00">updated_at :datetime</text>
<text text-anchor="start" x="371.5" y="-370.4" font-family="Times Roman,serif" font-size="14.00">email :string</text>
<text text-anchor="start" x="371.5" y="-352.4" font-family="Times Roman,serif" font-size="14.00">admin :boolean</text>
</g>
<!-- Company&#45;&gt;User -->
<g id="edge4" class="edge"><title>Company&#45;&gt;User</title>
<path fill="none" stroke="#4e6ddf" d="M516.74,-585.592C513.791,-579.319 510.807,-572.971 507.824,-566.626"/>
<polygon fill="#4e6ddf" stroke="#4e6ddf" points="516.846,-585.817 517.027,-596.782 518.973,-590.342 521.1,-594.867 521.1,-594.867 521.1,-594.867 518.973,-590.342 525.172,-592.953 516.846,-585.817 516.846,-585.817"/>
<polygon fill="#4e6ddf" stroke="#4e6ddf" points="507.713,-566.388 507.531,-555.424 505.585,-561.863 503.458,-557.338 503.458,-557.338 503.458,-557.338 505.585,-561.863 499.386,-559.253 507.713,-566.388 507.713,-566.388"/>
</g>
<!-- Internship -->
<g id="node8" class="node"><title>Internship</title>
<polyline fill="none" stroke="black" points="282,-1 434,-1 "/>
<path fill="none" stroke="black" d="M434,-1C440,-1 446,-7 446,-13"/>
<polyline fill="none" stroke="black" points="446,-13 446,-293 "/>
<path fill="none" stroke="black" d="M446,-293C446,-299 440,-305 434,-305"/>
<polyline fill="none" stroke="black" points="434,-305 282,-305 "/>
<path fill="none" stroke="black" d="M282,-305C276,-305 270,-299 270,-293"/>
<polyline fill="none" stroke="black" points="270,-293 270,-13 "/>
<path fill="none" stroke="black" d="M270,-13C270,-7 276,-1 282,-1"/>
<text text-anchor="middle" x="358" y="-288.4" font-family="Times Roman,serif" font-size="14.00">Internship</text>
<polyline fill="none" stroke="black" points="270,-279 446,-279 "/>
<text text-anchor="start" x="278" y="-262.4" font-family="Times Roman,serif" font-size="14.00">id :integer</text>
<text text-anchor="start" x="278" y="-244.4" font-family="Times Roman,serif" font-size="14.00">company_id :integer</text>
<text text-anchor="start" x="278" y="-226.4" font-family="Times Roman,serif" font-size="14.00">description_job :string</text>
<text text-anchor="start" x="278" y="-208.4" font-family="Times Roman,serif" font-size="14.00">situation_id :integer</text>
<text text-anchor="start" x="278" y="-190.4" font-family="Times Roman,serif" font-size="14.00">date_from :date</text>
<text text-anchor="start" x="278" y="-172.4" font-family="Times Roman,serif" font-size="14.00">date_until :date</text>
<text text-anchor="start" x="278" y="-154.4" font-family="Times Roman,serif" font-size="14.00">hs_monday :integer</text>
<text text-anchor="start" x="278" y="-136.4" font-family="Times Roman,serif" font-size="14.00">hs_tuesday :integer</text>
<text text-anchor="start" x="278" y="-118.4" font-family="Times Roman,serif" font-size="14.00">hs_wednesday :integer</text>
<text text-anchor="start" x="278" y="-100.4" font-family="Times Roman,serif" font-size="14.00">hs_thursday :integer</text>
<text text-anchor="start" x="278" y="-82.4" font-family="Times Roman,serif" font-size="14.00">hs_friday :integer</text>
<text text-anchor="start" x="278" y="-64.4" font-family="Times Roman,serif" font-size="14.00">hs_saturday :integer</text>
<text text-anchor="start" x="278" y="-46.4" font-family="Times Roman,serif" font-size="14.00">hs_sunday :integer</text>
<text text-anchor="start" x="278" y="-28.4" font-family="Times Roman,serif" font-size="14.00">created_at :datetime</text>
<text text-anchor="start" x="278" y="-10.4" font-family="Times Roman,serif" font-size="14.00">updated_at :datetime</text>
</g>
<!-- Company&#45;&gt;Internship -->
<g id="edge2" class="edge"><title>Company&#45;&gt;Internship</title>
<path fill="none" stroke="#0af452" d="M578.234,-586.902C585.019,-516.007 585.058,-419.202 551,-342 530.103,-294.631 491.337,-252.969 454.001,-220.901"/>
<ellipse fill="none" stroke="#0af452" cx="577.822" cy="-591.001" rx="4" ry="4"/>
<polygon fill="#0af452" stroke="#0af452" points="453.706,-220.652 448.964,-210.765 449.884,-217.428 446.062,-214.205 446.062,-214.205 446.062,-214.205 449.884,-217.428 443.161,-217.644 453.706,-220.652 453.706,-220.652"/>
</g>
<!-- InternshipsTask -->
<g id="node3" class="node"><title>InternshipsTask</title>
<polyline fill="none" stroke="black" points="619.5,-973 760.5,-973 "/>
<path fill="none" stroke="black" d="M760.5,-973C766.5,-973 772.5,-979 772.5,-985"/>
<polyline fill="none" stroke="black" points="772.5,-985 772.5,-1085 "/>
<path fill="none" stroke="black" d="M772.5,-1085C772.5,-1091 766.5,-1097 760.5,-1097"/>
<polyline fill="none" stroke="black" points="760.5,-1097 619.5,-1097 "/>
<path fill="none" stroke="black" d="M619.5,-1097C613.5,-1097 607.5,-1091 607.5,-1085"/>
<polyline fill="none" stroke="black" points="607.5,-1085 607.5,-985 "/>
<path fill="none" stroke="black" d="M607.5,-985C607.5,-979 613.5,-973 619.5,-973"/>
<text text-anchor="middle" x="690" y="-1080.4" font-family="Times Roman,serif" font-size="14.00">InternshipsTask</text>
<polyline fill="none" stroke="black" points="607.5,-1071 772.5,-1071 "/>
<text text-anchor="start" x="615.5" y="-1054.4" font-family="Times Roman,serif" font-size="14.00">id :integer</text>
<text text-anchor="start" x="615.5" y="-1036.4" font-family="Times Roman,serif" font-size="14.00">internship_id :integer</text>
<text text-anchor="start" x="615.5" y="-1018.4" font-family="Times Roman,serif" font-size="14.00">task_id :integer</text>
<text text-anchor="start" x="615.5" y="-1000.4" font-family="Times Roman,serif" font-size="14.00">created_at :datetime</text>
<text text-anchor="start" x="615.5" y="-982.4" font-family="Times Roman,serif" font-size="14.00">updated_at :datetime</text>
</g>
<!-- Situation -->
<g id="node4" class="node"><title>Situation</title>
<polyline fill="none" stroke="black" points="11.5,-397 152.5,-397 "/>
<path fill="none" stroke="black" d="M152.5,-397C158.5,-397 164.5,-403 164.5,-409"/>
<polyline fill="none" stroke="black" points="164.5,-409 164.5,-491 "/>
<path fill="none" stroke="black" d="M164.5,-491C164.5,-497 158.5,-503 152.5,-503"/>
<polyline fill="none" stroke="black" points="152.5,-503 11.5,-503 "/>
<path fill="none" stroke="black" d="M11.5,-503C5.5,-503 -0.5,-497 -0.5,-491"/>
<polyline fill="none" stroke="black" points="-0.5,-491 -0.5,-409 "/>
<path fill="none" stroke="black" d="M-0.5,-409C-0.5,-403 5.5,-397 11.5,-397"/>
<text text-anchor="middle" x="82" y="-486.4" font-family="Times Roman,serif" font-size="14.00">Situation</text>
<polyline fill="none" stroke="black" points="-0.5,-477 164.5,-477 "/>
<text text-anchor="start" x="7.5" y="-460.4" font-family="Times Roman,serif" font-size="14.00">id :integer</text>
<text text-anchor="start" x="7.5" y="-442.4" font-family="Times Roman,serif" font-size="14.00">status :string</text>
<text text-anchor="start" x="7.5" y="-424.4" font-family="Times Roman,serif" font-size="14.00">created_at :datetime</text>
<text text-anchor="start" x="7.5" y="-406.4" font-family="Times Roman,serif" font-size="14.00">updated_at :datetime</text>
</g>
<!-- Situation&#45;&gt;Internship -->
<g id="edge6" class="edge"><title>Situation&#45;&gt;Internship</title>
<path fill="none" stroke="#b89fa2" d="M130.717,-390.569C144.181,-374.592 158.955,-357.461 173,-342 201.319,-310.826 233.095,-277.727 262.216,-248.085"/>
<ellipse fill="none" stroke="#b89fa2" cx="128.002" cy="-393.801" rx="4.00002" ry="4.00002"/>
<polygon fill="#b89fa2" stroke="#b89fa2" points="262.543,-247.752 272.765,-243.783 266.05,-244.189 269.558,-240.626 269.558,-240.626 269.558,-240.626 266.05,-244.189 266.351,-237.469 262.543,-247.752 262.543,-247.752"/>
</g>
<!-- Task -->
<g id="node5" class="node"><title>Task</title>
<polyline fill="none" stroke="black" points="193.5,-397 334.5,-397 "/>
<path fill="none" stroke="black" d="M334.5,-397C340.5,-397 346.5,-403 346.5,-409"/>
<polyline fill="none" stroke="black" points="346.5,-409 346.5,-491 "/>
<path fill="none" stroke="black" d="M346.5,-491C346.5,-497 340.5,-503 334.5,-503"/>
<polyline fill="none" stroke="black" points="334.5,-503 193.5,-503 "/>
<path fill="none" stroke="black" d="M193.5,-503C187.5,-503 181.5,-497 181.5,-491"/>
<polyline fill="none" stroke="black" points="181.5,-491 181.5,-409 "/>
<path fill="none" stroke="black" d="M181.5,-409C181.5,-403 187.5,-397 193.5,-397"/>
<text text-anchor="middle" x="264" y="-486.4" font-family="Times Roman,serif" font-size="14.00">Task</text>
<polyline fill="none" stroke="black" points="181.5,-477 346.5,-477 "/>
<text text-anchor="start" x="189.5" y="-460.4" font-family="Times Roman,serif" font-size="14.00">id :integer</text>
<text text-anchor="start" x="189.5" y="-442.4" font-family="Times Roman,serif" font-size="14.00">description :string</text>
<text text-anchor="start" x="189.5" y="-424.4" font-family="Times Roman,serif" font-size="14.00">created_at :datetime</text>
<text text-anchor="start" x="189.5" y="-406.4" font-family="Times Roman,serif" font-size="14.00">updated_at :datetime</text>
</g>
<!-- Task&#45;&gt;Internship -->
<g id="edge8" class="edge"><title>Task&#45;&gt;Internship</title>
<path fill="none" stroke="#e98ae0" d="M283.889,-387.16C290.69,-365.669 298.643,-340.542 306.766,-314.877"/>
<polygon fill="#e98ae0" stroke="#e98ae0" points="283.823,-387.368 276.515,-395.544 282.314,-392.135 280.805,-396.902 280.805,-396.902 280.805,-396.902 282.314,-392.135 285.096,-398.26 283.823,-387.368 283.823,-387.368"/>
<polygon fill="#e98ae0" stroke="#e98ae0" points="306.868,-314.555 314.176,-306.379 308.377,-309.788 309.886,-305.021 309.886,-305.021 309.886,-305.021 308.377,-309.788 305.595,-303.663 306.868,-314.555 306.868,-314.555"/>
</g>
<!-- Province -->
<g id="node6" class="node"><title>Province</title>
<polyline fill="none" stroke="black" points="437.5,-982 578.5,-982 "/>
<path fill="none" stroke="black" d="M578.5,-982C584.5,-982 590.5,-988 590.5,-994"/>
<polyline fill="none" stroke="black" points="590.5,-994 590.5,-1076 "/>
<path fill="none" stroke="black" d="M590.5,-1076C590.5,-1082 584.5,-1088 578.5,-1088"/>
<polyline fill="none" stroke="black" points="578.5,-1088 437.5,-1088 "/>
<path fill="none" stroke="black" d="M437.5,-1088C431.5,-1088 425.5,-1082 425.5,-1076"/>
<polyline fill="none" stroke="black" points="425.5,-1076 425.5,-994 "/>
<path fill="none" stroke="black" d="M425.5,-994C425.5,-988 431.5,-982 437.5,-982"/>
<text text-anchor="middle" x="508" y="-1071.4" font-family="Times Roman,serif" font-size="14.00">Province</text>
<polyline fill="none" stroke="black" points="425.5,-1062 590.5,-1062 "/>
<text text-anchor="start" x="433.5" y="-1045.4" font-family="Times Roman,serif" font-size="14.00">id :integer</text>
<text text-anchor="start" x="433.5" y="-1027.4" font-family="Times Roman,serif" font-size="14.00">province :string</text>
<text text-anchor="start" x="433.5" y="-1009.4" font-family="Times Roman,serif" font-size="14.00">created_at :datetime</text>
<text text-anchor="start" x="433.5" y="-991.4" font-family="Times Roman,serif" font-size="14.00">updated_at :datetime</text>
</g>
<!-- Locality -->
<g id="node9" class="node"><title>Locality</title>
<polyline fill="none" stroke="black" points="437.5,-811 578.5,-811 "/>
<path fill="none" stroke="black" d="M578.5,-811C584.5,-811 590.5,-817 590.5,-823"/>
<polyline fill="none" stroke="black" points="590.5,-823 590.5,-923 "/>
<path fill="none" stroke="black" d="M590.5,-923C590.5,-929 584.5,-935 578.5,-935"/>
<polyline fill="none" stroke="black" points="578.5,-935 437.5,-935 "/>
<path fill="none" stroke="black" d="M437.5,-935C431.5,-935 425.5,-929 425.5,-923"/>
<polyline fill="none" stroke="black" points="425.5,-923 425.5,-823 "/>
<path fill="none" stroke="black" d="M425.5,-823C425.5,-817 431.5,-811 437.5,-811"/>
<text text-anchor="middle" x="508" y="-918.4" font-family="Times Roman,serif" font-size="14.00">Locality</text>
<polyline fill="none" stroke="black" points="425.5,-909 590.5,-909 "/>
<text text-anchor="start" x="433.5" y="-892.4" font-family="Times Roman,serif" font-size="14.00">id :integer</text>
<text text-anchor="start" x="433.5" y="-874.4" font-family="Times Roman,serif" font-size="14.00">locality :string</text>
<text text-anchor="start" x="433.5" y="-856.4" font-family="Times Roman,serif" font-size="14.00">province_id :integer</text>
<text text-anchor="start" x="433.5" y="-838.4" font-family="Times Roman,serif" font-size="14.00">created_at :datetime</text>
<text text-anchor="start" x="433.5" y="-820.4" font-family="Times Roman,serif" font-size="14.00">updated_at :datetime</text>
</g>
<!-- Province&#45;&gt;Locality -->
<g id="edge10" class="edge"><title>Province&#45;&gt;Locality</title>
<path fill="none" stroke="#363a23" d="M508,-973.77C508,-964.498 508,-954.858 508,-945.377"/>
<ellipse fill="none" stroke="#363a23" cx="508" cy="-977.955" rx="4" ry="4"/>
<polygon fill="#363a23" stroke="#363a23" points="508,-945.177 512.5,-935.177 508,-940.177 508,-935.177 508,-935.177 508,-935.177 508,-940.177 503.5,-935.177 508,-945.177 508,-945.177"/>
</g>
<!-- User&#45;&gt;Internship -->
<g id="edge12" class="edge"><title>User&#45;&gt;Internship</title>
<path fill="none" stroke="#03aa00" d="M416.198,-334.944C414.086,-328.343 411.945,-321.648 409.792,-314.917"/>
<ellipse fill="none" stroke="#03aa00" cx="417.484" cy="-338.966" rx="4.00001" ry="4.00001"/>
<polygon fill="#03aa00" stroke="#03aa00" points="409.677,-314.559 410.917,-303.664 408.154,-309.797 406.631,-305.035 406.631,-305.035 406.631,-305.035 408.154,-309.797 402.345,-306.406 409.677,-314.559 409.677,-314.559"/>
</g>
<!-- Locality&#45;&gt;Company -->
<g id="edge16" class="edge"><title>Locality&#45;&gt;Company</title>
<path fill="none" stroke="#936cda" d="M528.333,-803.129C530.415,-795.975 532.555,-788.619 534.703,-781.24"/>
<ellipse fill="none" stroke="#936cda" cx="527.203" cy="-807.012" rx="4.00001" ry="4.00001"/>
<ellipse fill="#936cda" stroke="#936cda" cx="535.915" cy="-777.074" rx="4.00001" ry="4.00001"/>
</g>
<!-- Locality&#45;&gt;User -->
<g id="edge14" class="edge"><title>Locality&#45;&gt;User</title>
<path fill="none" stroke="#7361f4" d="M479.802,-803.236C476.719,-793.541 473.985,-783.61 472,-774 457.902,-705.742 452.992,-627.802 451.683,-565.473"/>
<ellipse fill="none" stroke="#7361f4" cx="481.09" cy="-807.15" rx="4.00001" ry="4.00001"/>
<ellipse fill="#7361f4" stroke="#7361f4" cx="451.602" cy="-561.174" rx="4" ry="4"/>
</g>
</g>
</svg>
